<svg class="main-svg" xmlns="http://www.w3.org/2000/svg" xmlns:xlink="http://www.w3.org/1999/xlink" width="700" height="500" style="" viewBox="0 0 700 500"><rect x="0" y="0" width="700" height="500" style="fill: rgb(255, 255, 255); fill-opacity: 1;"/><defs id="defs-5badad"><g class="clips"><clipPath id="clip5badadxyplot" class="plotclip"><rect width="619" height="435"/></clipPath><clipPath class="axesclip" id="clip5badadx"><rect x="60" y="0" width="619" height="500"/></clipPath><clipPath class="axesclip" id="clip5badady"><rect x="0" y="25" width="700" height="435"/></clipPath><clipPath class="axesclip" id="clip5badadxy"><rect x="60" y="25" width="619" height="435"/></clipPath></g><g class="gradients"/></defs><g class="bglayer"/><g class="layer-below"><g class="imagelayer"/><g class="shapelayer"/></g><g class="cartesianlayer"><g class="subplot xy"><g class="layer-subplot"><g class="shapelayer"/><g class="imagelayer"/></g><g class="gridlayer"><g class="x"><path class="xgrid crisp" transform="translate(212.42,0)" d="M0,25v435" style="stroke: rgb(238, 238, 238); stroke-opacity: 1; stroke-width: 1px;"/><path class="xgrid crisp" transform="translate(367.94,0)" d="M0,25v435" style="stroke: rgb(238, 238, 238); stroke-opacity: 1; stroke-width: 1px;"/><path class="xgrid crisp" transform="translate(523.47,0)" d="M0,25v435" style="stroke: rgb(238, 238, 238); stroke-opacity: 1; stroke-width: 1px;"/></g><g class="y"><path class="ygrid crisp" transform="translate(0,362.27)" d="M60,0h619" style="stroke: rgb(238, 238, 238); stroke-opacity: 1; stroke-width: 1px;"/><path class="ygrid crisp" transform="translate(0,286.28)" d="M60,0h619" style="stroke: rgb(238, 238, 238); stroke-opacity: 1; stroke-width: 1px;"/><path class="ygrid crisp" transform="translate(0,210.3)" d="M60,0h619" style="stroke: rgb(238, 238, 238); stroke-opacity: 1; stroke-width: 1px;"/><path class="ygrid crisp" transform="translate(0,134.32)" d="M60,0h619" style="stroke: rgb(238, 238, 238); stroke-opacity: 1; stroke-width: 1px;"/><path class="ygrid crisp" transform="translate(0,58.34)" d="M60,0h619" style="stroke: rgb(238, 238, 238); stroke-opacity: 1; stroke-width: 1px;"/></g></g><g class="zerolinelayer"><path class="yzl zl crisp" transform="translate(0,438.25)" d="M60,0h619" style="stroke: rgb(68, 68, 68); stroke-opacity: 1; stroke-width: 1px;"/></g><path class="xlines-below"/><path class="ylines-below"/><g class="overlines-below"/><g class="xaxislayer-below"/><g class="yaxislayer-below"/><g class="overaxes-below"/><g class="plot" transform="translate(60, 25)" clip-path="url('#clip5badadxyplot')"><g class="scatterlayer mlayer"><g class="trace scatter tracec624ec" style="stroke-miterlimit: 2; opacity: 1;"><g class="fills"/><g class="errorbars"/><g class="lines"><path class="js-line" d="M0,409.45L3.11,413.25L6.22,413.25L9.33,407.13L12.44,410.19L27.99,407.19L31.11,405.97L34.22,405.82L37.33,404.66L43.55,402.86L46.66,401.62L55.99,398.95L59.1,397.35L68.43,393.63L71.54,392.49L74.65,390.85L77.76,390.61L80.87,387.61L83.98,386.31L87.1,386.47L90.21,382.89L93.32,379.97L96.43,379.86L108.87,370.7L111.98,371.1L115.09,368.95L118.2,364.01L124.42,360.4L127.53,357.88L130.64,357.02L133.75,353.47L139.97,346.61L143.09,346.9L146.2,343.59L149.31,336.98L155.53,333.15L158.64,329.99L161.75,327.37L164.86,321.08L167.97,321.01L171.08,313.85L174.19,312.67L177.3,308.2L180.41,300.83L183.52,299.16L186.63,296.26L189.74,294.79L195.96,284.88L199.08,277.83L202.19,275.84L205.3,270.44L208.41,266.81L211.52,260.62L214.63,255.66L217.74,247.25L220.85,247.89L223.96,237.22L230.18,232.07L233.29,222.76L236.4,217.88L239.51,208.29L242.62,207.55L245.73,197.67L248.84,194.9L251.95,185.19L261.29,166.25L264.4,157L270.62,140.3L273.73,132.74L276.84,127.88L279.95,119.77L283.06,104.17L286.17,99.23L295.5,68.38L298.61,62.48L301.72,53.81L304.83,41.47L307.94,31.89L311.06,42.02L320.39,127.38L323.5,175.22L326.61,210.72L329.72,237.29L332.83,261.4L335.94,278.89L342.16,313.94L345.27,324.67L351.49,344.79L354.6,351.48L360.82,358.96L363.93,364.32L370.16,374.18L373.27,375.52L376.38,380.37L379.49,383.07L382.6,386.98L385.71,388.52L395.04,393.11L398.15,392.43L401.26,393.7L404.37,393.44L410.59,396.55L413.7,397.33L416.81,398.4L419.92,400.39L423.04,401.74L426.15,401.8L429.26,402.57L432.37,402.33L435.48,401.49L438.59,403.85L444.81,403.09L447.92,404.64L460.36,407.1L463.47,407.68L469.69,408.12L472.8,408.27L479.03,408.63L482.14,408.75L497.69,409.85L500.8,410.69L503.91,410.13L507.02,410.38L510.13,411.03L513.24,410.69L522.57,411.48L525.68,411.2L531.9,411.48L535.02,411.6L547.46,412.26L550.57,412.13L569.23,412.41L572.34,412.38L581.67,412.45L584.78,412.43L619,412.81" style="vector-effect: non-scaling-stroke; fill: none; stroke: rgb(31, 119, 180); stroke-opacity: 1; stroke-width: 2px; opacity: 1;"/></g><g class="points"/><g class="text"/></g><g class="trace scatter traceaf471b" style="stroke-miterlimit: 2; opacity: 1;"><g class="fills"/><g class="errorbars"/><g class="lines"><path class="js-line" d="M0,409.45L3.11,413.25L6.22,413.25L9.33,407.13L12.44,410.19L27.99,407.19L31.11,405.97L34.22,405.82L37.33,404.66L43.55,402.86L46.66,401.62L55.99,398.95L59.1,397.35L68.43,393.63L71.54,392.49L74.65,390.85L77.76,390.61L80.87,387.61L83.98,386.31L87.1,386.47L90.21,382.89L93.32,379.97L96.43,379.86L108.87,370.7L111.98,371.1L115.09,368.95L118.2,364.01L124.42,360.4L127.53,357.88L130.64,357.02L133.75,353.47L139.97,346.61L143.09,346.9L146.2,343.59L149.31,336.98L155.53,333.15L158.64,329.99L161.75,327.37L164.86,321.08L167.97,321.01L171.08,313.85L174.19,312.67L177.3,308.2L180.41,300.83L183.52,299.16L186.63,296.26L189.74,294.79L195.96,284.88L199.08,277.83L202.19,275.84L205.3,270.44L208.41,266.81L211.52,260.62L214.63,255.66L217.74,247.25L220.85,247.89L223.96,237.22L230.18,232.07L233.29,222.76L236.4,217.88L239.51,208.29L242.62,207.55L245.73,197.67L248.84,194.9L251.95,185.19L261.29,166.25L264.4,157L270.62,140.3L273.73,132.74L276.84,127.88L279.95,119.77L283.06,104.17L286.17,99.23L295.5,68.38L298.61,62.48L301.72,53.81L304.83,41.47L307.94,31.89L311.06,40.37L320.39,121.4L323.5,168.51L329.72,233.63L332.83,259.16L345.27,326.69L348.38,334.93L351.49,339.07L354.6,345.36L357.71,349.03L360.82,354.42L370.16,368.95L373.27,371.9L379.49,379.97L382.6,384.21L385.71,387.51L388.82,386.77L391.93,385.78L395.04,387.13L398.15,387.06L401.26,388.52L404.37,390.82L407.48,389.89L410.59,392.54L413.7,393.72L419.92,396.74L423.04,399.4L426.15,399.12L429.26,400.33L435.48,400.2L438.59,400.41L441.7,401.15L444.81,400.33L447.92,401.42L451.03,401.64L457.25,404.72L460.36,404.59L472.8,405.96L475.91,405.94L479.03,407.29L482.14,406.28L510.13,410.25L513.24,409.72L547.46,411.16L550.57,411.16L566.12,412L569.23,411.86L619,412.59" style="vector-effect: non-scaling-stroke; fill: none; stroke: rgb(255, 127, 14); stroke-opacity: 1; stroke-width: 2px; opacity: 1;"/></g><g class="points"/><g class="text"/></g><g class="trace scatter tracea1ebf9" style="stroke-miterlimit: 2; opacity: 1;"><g class="fills"/><g class="errorbars"/><g class="lines"><path class="js-line" d="M0,409.45L3.11,413.25L6.22,413.25L9.33,407.13L12.44,410.19L27.99,407.19L31.11,405.97L34.22,405.82L37.33,404.66L43.55,402.86L46.66,401.62L55.99,398.95L59.1,397.35L68.43,393.63L71.54,392.49L74.65,390.85L77.76,390.61L80.87,387.61L83.98,386.31L87.1,386.47L90.21,382.89L93.32,379.97L96.43,379.86L108.87,370.7L111.98,371.1L115.09,368.95L118.2,364.01L124.42,360.4L127.53,357.88L130.64,357.02L133.75,353.47L139.97,346.61L143.09,346.9L146.2,343.59L149.31,336.98L155.53,333.15L158.64,329.99L161.75,327.37L164.86,321.08L167.97,321.01L171.08,313.85L174.19,312.67L177.3,308.2L180.41,300.83L183.52,299.16L186.63,296.26L189.74,294.79L195.96,284.88L199.08,277.83L202.19,275.84L205.3,270.44L208.41,266.81L211.52,260.62L214.63,255.66L217.74,247.25L220.85,247.89L223.96,237.22L230.18,232.07L233.29,222.76L236.4,217.88L239.51,208.29L242.62,207.55L245.73,197.67L248.84,194.9L251.95,185.19L261.29,166.25L264.4,157L270.62,140.3L273.73,132.74L276.84,127.88L279.95,119.77L283.06,104.17L286.17,99.23L295.5,68.38L298.61,62.48L301.72,53.81L304.83,41.47L307.94,31.89L311.06,34.4L320.39,119.12L323.5,159.58L329.72,226.54L332.83,251.84L339.05,295.63L342.16,309.72L345.27,325.28L348.38,328.7L351.49,334.55L354.6,338.33L367.05,356.42L370.16,361.07L376.38,373.38L379.49,376.74L382.6,379.68L385.71,383.79L388.82,384.85L391.93,382.02L395.04,382.99L398.15,383.07L401.26,383.22L404.37,384.55L407.48,388.44L410.59,389.28L413.7,390.57L416.81,392.68L426.15,397.27L429.26,398L432.37,396.97L435.48,397.24L444.81,398.15L447.92,399.1L451.03,400.86L454.14,400.29L457.25,402.57L460.36,403.32L463.47,403.35L466.58,404.64L472.8,404L475.91,404.66L485.25,406.15L488.36,405.96L494.58,406.96L497.69,407.38L500.8,408.27L503.91,407.95L510.13,408.9L513.24,408.46L525.68,410.15L528.79,409.45L531.9,410.4L535.02,410.25L538.13,410.7L541.24,410.34L547.46,410.99L550.57,410.91L563.01,411.18L566.12,411.18L572.34,411.71L575.45,411.75L619,412.05" style="vector-effect: non-scaling-stroke; fill: none; stroke: rgb(44, 160, 44); stroke-opacity: 1; stroke-width: 2px; opacity: 1;"/></g><g class="points"/><g class="text"/></g><g class="trace scatter tracea42b81" style="stroke-miterlimit: 2; opacity: 1;"><g class="fills"/><g class="errorbars"/><g class="lines"><path class="js-line" d="M0,409.45L3.11,413.25L6.22,413.25L9.33,407.13L12.44,410.19L27.99,407.19L31.11,405.97L34.22,405.82L37.33,404.66L43.55,402.86L46.66,401.62L55.99,398.95L59.1,397.35L68.43,393.63L71.54,392.49L74.65,390.85L77.76,390.61L80.87,387.61L83.98,386.31L87.1,386.47L90.21,382.89L93.32,379.97L96.43,379.86L108.87,370.7L111.98,371.1L115.09,368.95L118.2,364.01L124.42,360.4L127.53,357.88L130.64,357.02L133.75,353.47L139.97,346.61L143.09,346.9L146.2,343.59L149.31,336.98L155.53,333.15L158.64,329.99L161.75,327.37L164.86,321.08L167.97,321.01L171.08,313.85L174.19,312.67L177.3,308.2L180.41,300.83L183.52,299.16L186.63,296.26L189.74,294.79L195.96,284.88L199.08,277.83L202.19,275.84L205.3,270.44L208.41,266.81L211.52,260.62L214.63,255.66L217.74,247.25L220.85,247.89L223.96,237.22L230.18,232.07L233.29,222.76L236.4,217.88L239.51,208.29L242.62,207.55L245.73,197.67L248.84,194.9L251.95,185.19L261.29,166.25L264.4,157L270.62,140.3L273.73,132.74L276.84,127.88L279.95,119.77L283.06,104.17L286.17,99.23L295.5,68.38L298.61,62.48L301.72,53.81L304.83,41.47L307.94,31.89L311.06,26.99L314.17,54.57L317.28,75.03L320.39,106.53L323.5,152.14L329.72,214.56L332.83,240.35L339.05,286.26L342.16,301.12L348.38,328.66L351.49,328.7L354.6,327.22L357.71,331.4L360.82,334.06L363.93,338.2L370.16,352.01L373.27,356.98L379.49,369.67L382.6,371.06L385.71,376.21L388.82,378.79L398.15,372.33L401.26,372.96L407.48,377.08L410.59,378.2L419.92,388.19L423.04,390L426.15,391.25L429.26,391.41L432.37,392.41L435.48,390.78L441.7,390.02L444.81,389.26L457.25,395.45L460.36,395.57L463.47,397.5L466.58,397.67L469.69,399.69L472.8,400.24L475.91,399.06L479.03,400.69L482.14,400.96L485.25,399.23L491.47,401.49L494.58,401.83L497.69,403.18L500.8,402.84L507.02,404.42L510.13,404.74L513.24,404.64L516.35,405.65L525.68,406.68L528.79,405.77L531.9,407.57L535.02,406.26L538.13,407.46L541.24,407.29L544.35,408.37L547.46,408.48L550.57,409.07L553.68,408.56L563.01,409.74L566.12,409.3L578.56,410.08L581.67,410.29L619,411.41" style="vector-effect: non-scaling-stroke; fill: none; stroke: rgb(214, 39, 40); stroke-opacity: 1; stroke-width: 2px; opacity: 1;"/></g><g class="points"/><g class="text"/></g><g class="trace scatter trace2734db" style="stroke-miterlimit: 2; opacity: 1;"><g class="fills"/><g class="errorbars"/><g class="lines"><path class="js-line" d="M0,409.45L3.11,413.25L6.22,413.25L9.33,407.13L12.44,410.19L27.99,407.19L31.11,405.97L34.22,405.82L37.33,404.66L43.55,402.86L46.66,401.62L55.99,398.95L59.1,397.35L68.43,393.63L71.54,392.49L74.65,390.85L77.76,390.61L80.87,387.61L83.98,386.31L87.1,386.47L90.21,382.89L93.32,379.97L96.43,379.86L108.87,370.7L111.98,371.1L115.09,368.95L118.2,364.01L124.42,360.4L127.53,357.88L130.64,357.02L133.75,353.47L139.97,346.61L143.09,346.9L146.2,343.59L149.31,336.98L155.53,333.15L158.64,329.99L161.75,327.37L164.86,321.08L167.97,321.01L171.08,313.85L174.19,312.67L177.3,308.2L180.41,300.83L183.52,299.16L186.63,296.26L189.74,294.79L195.96,284.88L199.08,277.83L202.19,275.84L205.3,270.44L208.41,266.81L211.52,260.62L214.63,255.66L217.74,247.25L220.85,247.89L223.96,237.22L230.18,232.07L233.29,222.76L236.4,217.88L239.51,208.29L242.62,207.55L245.73,197.67L248.84,194.9L251.95,185.19L261.29,166.25L264.4,157L270.62,140.3L273.73,132.74L276.84,127.88L279.95,119.77L283.06,104.17L286.17,99.23L295.5,68.38L298.61,62.48L301.72,53.81L304.83,41.47L311.06,21.75L314.17,31.49L320.39,81.38L323.5,121.31L329.72,193.45L332.83,219.21L339.05,268.83L342.16,284.21L345.27,305.41L348.38,319.11L351.49,320.32L354.6,318.35L357.71,313.64L360.82,311.11L363.93,312.16L367.05,319.54L370.16,323.29L373.27,332.82L376.38,338.77L379.49,346.46L382.6,350.09L385.71,358.2L388.82,363.79L391.93,365.91L395.04,364.03L398.15,360.56L401.26,357.33L404.37,355.79L407.48,352.67L410.59,353.49L413.7,358.75L416.81,360.63L423.04,367.49L426.15,371.21L432.37,377.96L435.48,378.89L438.59,379.11L441.7,376.38L444.81,377.16L447.92,374.86L451.03,373.32L454.14,374.67L457.25,376.7L460.36,380.41L466.58,382.29L469.69,385.48L475.91,388.18L479.03,390.8L482.14,390.8L485.25,389.68L488.36,390.4L491.47,389.13L497.69,390.44L500.8,390.23L507.02,393.7L510.13,392.81L513.24,394.06L516.35,396.78L519.46,396.82L522.57,398.68L525.68,397.22L528.79,397.43L531.9,397.41L535.02,398.36L547.46,398.43L550.57,398.89L553.68,400.77L556.79,400.9L563.01,402.59L566.12,402.67L569.23,402.37L572.34,403.16L584.78,405.46L587.89,404.61L597.23,404.49L600.34,406.01L603.45,405.94L606.56,406.94L612.78,406.34L615.89,406.91L619,406.53" style="vector-effect: non-scaling-stroke; fill: none; stroke: rgb(148, 103, 189); stroke-opacity: 1; stroke-width: 2px; opacity: 1;"/></g><g class="points"/><g class="text"/></g><g class="trace scatter traceaa29d6" style="stroke-miterlimit: 2; opacity: 1;"><g class="fills"/><g class="errorbars"/><g class="lines"><path class="js-line" d="M0,409.37L3.11,413.25L6.22,413.25L9.33,407.13L12.44,410.19L27.99,407.19L31.11,405.97L34.22,405.82L37.33,404.66L43.55,402.86L46.66,401.62L55.99,398.95L59.1,397.35L68.43,393.63L71.54,392.49L74.65,390.85L77.76,390.61L80.87,387.61L83.98,386.31L87.1,386.47L90.21,382.89L93.32,379.97L96.43,379.86L108.87,370.7L111.98,371.1L115.09,368.95L118.2,364.01L124.42,360.4L127.53,357.88L130.64,357.02L133.75,353.47L139.97,346.61L143.09,346.9L146.2,343.59L149.31,336.98L155.53,333.15L158.64,329.99L161.75,327.37L164.86,321.08L167.97,321.01L171.08,313.85L174.19,312.67L177.3,308.2L180.41,300.83L183.52,299.16L186.63,296.26L189.74,294.79L195.96,284.88L199.08,277.83L202.19,275.84L205.3,270.44L208.41,266.81L211.52,260.62L214.63,255.66L217.74,247.25L220.85,247.89L223.96,237.22L230.18,232.07L233.29,222.76L236.4,217.88L239.51,208.29L242.62,207.55L245.73,197.67L248.84,194.9L251.95,185.19L261.29,166.25L264.4,157L270.62,140.3L273.73,132.74L276.84,127.88L279.95,119.77L283.06,104.17L286.17,99.23L295.5,68.38L298.61,62.48L301.72,53.81L304.83,41.47L311.06,23.42L314.17,27.09L317.28,38.26L320.39,60.58L329.72,162.15L332.83,192.12L339.05,243.39L342.16,263.94L348.38,300.64L351.49,309.93L354.6,306.49L357.71,304.59L363.93,289.53L367.05,293.29L370.16,295.31L373.27,299.05L376.38,305.35L379.49,315.18L385.71,332.65L388.82,338.69L391.93,342.47L395.04,348.23L398.15,346.8L401.26,343.08L404.37,341.09L407.48,337.72L410.59,333.87L413.7,334.93L416.81,335.73L419.92,339.43L423.04,341.98L426.15,346.37L429.26,351.13L432.37,353.93L438.59,360.97L441.7,362.17L444.81,359.99L447.92,358.88L457.25,358.39L460.36,360.52L463.47,359.13L466.58,359.49L469.69,361.64L472.8,365.21L475.91,366.2L479.03,368.48L482.14,372.01L485.25,372.31L488.36,371.71L491.47,374.8L494.58,375.37L497.69,372.47L500.8,374.75L503.91,375.43L507.02,376.08L510.13,377.94L513.24,379.7L516.35,378.49L519.46,378.3L522.57,380.84L525.68,381.15L528.79,383.45L538.13,385.06L541.24,386.24L544.35,386.3L547.46,385.23L550.57,387.15L553.68,385.88L556.79,388.02L559.9,388.46L569.23,389.87L572.34,392.15L575.45,391.14L578.56,392.53L581.67,391.97L584.78,394.39L587.89,392.91L591.01,393.51L594.12,394.69L597.23,394.92L600.34,394.86L603.45,395.96L606.56,394.88L609.67,395.96L615.89,397.29L619,396.76" style="vector-effect: non-scaling-stroke; fill: none; stroke: rgb(140, 86, 75); stroke-opacity: 1; stroke-width: 2px; opacity: 1;"/></g><g class="points"/><g class="text"/></g></g></g><g class="overplot"/><path class="xlines-above crisp" style="fill: none;" d="M0,0"/><path class="ylines-above crisp" style="fill: none;" d="M0,0"/><g class="overlines-above"/><g class="xaxislayer-above"><g class="xtick"><text text-anchor="middle" x="0" y="473" transform="translate(212.42,0)" style="font-family: 'Open Sans', verdana, arial, sans-serif; font-size: 12px; fill: rgb(68, 68, 68); fill-opacity: 1; white-space: pre;">50</text></g><g class="xtick"><text text-anchor="middle" x="0" y="473" transform="translate(367.94,0)" style="font-family: 'Open Sans', verdana, arial, sans-serif; font-size: 12px; fill: rgb(68, 68, 68); fill-opacity: 1; white-space: pre;">100</text></g><g class="xtick"><text text-anchor="middle" x="0" y="473" transform="translate(523.47,0)" style="font-family: 'Open Sans', verdana, arial, sans-serif; font-size: 12px; fill: rgb(68, 68, 68); fill-opacity: 1; white-space: pre;">150</text></g><g class="xtick"><text text-anchor="middle" x="0" y="473" transform="translate(679,0)" style="font-family: 'Open Sans', verdana, arial, sans-serif; font-size: 12px; fill: rgb(68, 68, 68); fill-opacity: 1; white-space: pre;">200</text></g></g><g class="yaxislayer-above"><g class="ytick"><text text-anchor="end" x="59" y="4.199999999999999" transform="translate(0,438.25)" style="font-family: 'Open Sans', verdana, arial, sans-serif; font-size: 12px; fill: rgb(68, 68, 68); fill-opacity: 1; white-space: pre;">0</text></g><g class="ytick"><text text-anchor="end" x="59" y="4.199999999999999" transform="translate(0,362.27)" style="font-family: 'Open Sans', verdana, arial, sans-serif; font-size: 12px; fill: rgb(68, 68, 68); fill-opacity: 1; white-space: pre;">20</text></g><g class="ytick"><text text-anchor="end" x="59" y="4.199999999999999" transform="translate(0,286.28)" style="font-family: 'Open Sans', verdana, arial, sans-serif; font-size: 12px; fill: rgb(68, 68, 68); fill-opacity: 1; white-space: pre;">40</text></g><g class="ytick"><text text-anchor="end" x="59" y="4.199999999999999" transform="translate(0,210.3)" style="font-family: 'Open Sans', verdana, arial, sans-serif; font-size: 12px; fill: rgb(68, 68, 68); fill-opacity: 1; white-space: pre;">60</text></g><g class="ytick"><text text-anchor="end" x="59" y="4.199999999999999" transform="translate(0,134.32)" style="font-family: 'Open Sans', verdana, arial, sans-serif; font-size: 12px; fill: rgb(68, 68, 68); fill-opacity: 1; white-space: pre;">80</text></g><g class="ytick"><text text-anchor="end" x="59" y="4.199999999999999" transform="translate(0,58.34)" style="font-family: 'Open Sans', verdana, arial, sans-serif; font-size: 12px; fill: rgb(68, 68, 68); fill-opacity: 1; white-space: pre;">100</text></g></g><g class="overaxes-above"/></g></g><g class="polarlayer"/><g class="ternarylayer"/><g class="geolayer"/><g class="funnelarealayer"/><g class="pielayer"/><g class="treemaplayer"/><g class="sunburstlayer"/><g class="glimages"/><defs id="topdefs-5badad"><g class="clips"/><clipPath id="legend5badad"><rect width="117" height="140" x="0" y="0"/></clipPath></defs><g class="layer-above"><g class="imagelayer"/><g class="shapelayer"/></g><g class="infolayer"><g class="legend" pointer-events="all" transform="translate(90.95, 46.750000000000014)"><rect class="bg" shape-rendering="crispEdges" style="stroke: rgb(68, 68, 68); stroke-opacity: 1; fill: rgb(226, 226, 226); fill-opacity: 1; stroke-width: 0px;" width="117" height="140" x="0" y="0"/><g class="scrollbox" transform="translate(0, 0)" clip-path="url('#legend5badad')"><text class="legendtitletext user-select-none" text-anchor="start" x="2" y="15.600000000000001" style="font-family: 'Open Sans', verdana, arial, sans-serif; font-size: 12px; fill: rgb(68, 68, 68); fill-opacity: 1; white-space: pre;"><tspan style="font-weight:bold"> Identification Time </tspan></text><g class="groups"><g class="traces" transform="translate(0, 30.1)" style="opacity: 1;"><text class="legendtext user-select-none" text-anchor="start" x="40" y="4.680000000000001" style="font-family: 'Open Sans', verdana, arial, sans-serif; font-size: 12px; fill: rgb(68, 68, 68); fill-opacity: 1; white-space: pre;">0 Months</text><g class="layers" style="opacity: 1;"><g class="legendfill"/><g class="legendlines"><path class="js-line" d="M5,0h30" style="fill: none; stroke: rgb(31, 119, 180); stroke-opacity: 1; stroke-width: 2px;"/></g><g class="legendsymbols"><g class="legendpoints"/></g></g><rect class="legendtoggle" pointer-events="all" x="0" y="-9.5" width="98.046875" height="19" style="cursor: pointer; fill: rgb(0, 0, 0); fill-opacity: 0;"/></g><g class="traces" transform="translate(0, 49.1)" style="opacity: 1;"><text class="legendtext user-select-none" text-anchor="start" x="40" y="4.680000000000001" style="font-family: 'Open Sans', verdana, arial, sans-serif; font-size: 12px; fill: rgb(68, 68, 68); fill-opacity: 1; white-space: pre;">3 Months</text><g class="layers" style="opacity: 1;"><g class="legendfill"/><g class="legendlines"><path class="js-line" d="M5,0h30" style="fill: none; stroke: rgb(255, 127, 14); stroke-opacity: 1; stroke-width: 2px;"/></g><g class="legendsymbols"><g class="legendpoints"/></g></g><rect class="legendtoggle" pointer-events="all" x="0" y="-9.5" width="98.046875" height="19" style="cursor: pointer; fill: rgb(0, 0, 0); fill-opacity: 0;"/></g><g class="traces" transform="translate(0, 68.1)" style="opacity: 1;"><text class="legendtext user-select-none" text-anchor="start" x="40" y="4.680000000000001" style="font-family: 'Open Sans', verdana, arial, sans-serif; font-size: 12px; fill: rgb(68, 68, 68); fill-opacity: 1; white-space: pre;">6 Months</text><g class="layers" style="opacity: 1;"><g class="legendfill"/><g class="legendlines"><path class="js-line" d="M5,0h30" style="fill: none; stroke: rgb(44, 160, 44); stroke-opacity: 1; stroke-width: 2px;"/></g><g class="legendsymbols"><g class="legendpoints"/></g></g><rect class="legendtoggle" pointer-events="all" x="0" y="-9.5" width="98.046875" height="19" style="cursor: pointer; fill: rgb(0, 0, 0); fill-opacity: 0;"/></g><g class="traces" transform="translate(0, 87.1)" style="opacity: 1;"><text class="legendtext user-select-none" text-anchor="start" x="40" y="4.680000000000001" style="font-family: 'Open Sans', verdana, arial, sans-serif; font-size: 12px; fill: rgb(68, 68, 68); fill-opacity: 1; white-space: pre;">12 Months</text><g class="layers" style="opacity: 1;"><g class="legendfill"/><g class="legendlines"><path class="js-line" d="M5,0h30" style="fill: none; stroke: rgb(214, 39, 40); stroke-opacity: 1; stroke-width: 2px;"/></g><g class="legendsymbols"><g class="legendpoints"/></g></g><rect class="legendtoggle" pointer-events="all" x="0" y="-9.5" width="98.046875" height="19" style="cursor: pointer; fill: rgb(0, 0, 0); fill-opacity: 0;"/></g><g class="traces" transform="translate(0, 106.1)" style="opacity: 1;"><text class="legendtext user-select-none" text-anchor="start" x="40" y="4.680000000000001" style="font-family: 'Open Sans', verdana, arial, sans-serif; font-size: 12px; fill: rgb(68, 68, 68); fill-opacity: 1; white-space: pre;">24 Months</text><g class="layers" style="opacity: 1;"><g class="legendfill"/><g class="legendlines"><path class="js-line" d="M5,0h30" style="fill: none; stroke: rgb(148, 103, 189); stroke-opacity: 1; stroke-width: 2px;"/></g><g class="legendsymbols"><g class="legendpoints"/></g></g><rect class="legendtoggle" pointer-events="all" x="0" y="-9.5" width="98.046875" height="19" style="cursor: pointer; fill: rgb(0, 0, 0); fill-opacity: 0;"/></g><g class="traces" transform="translate(0, 125.1)" style="opacity: 1;"><text class="legendtext user-select-none" text-anchor="start" x="40" y="4.680000000000001" style="font-family: 'Open Sans', verdana, arial, sans-serif; font-size: 12px; fill: rgb(68, 68, 68); fill-opacity: 1; white-space: pre;">36 Months</text><g class="layers" style="opacity: 1;"><g class="legendfill"/><g class="legendlines"><path class="js-line" d="M5,0h30" style="fill: none; stroke: rgb(140, 86, 75); stroke-opacity: 1; stroke-width: 2px;"/></g><g class="legendsymbols"><g class="legendpoints"/></g></g><rect class="legendtoggle" pointer-events="all" x="0" y="-9.5" width="98.046875" height="19" style="cursor: pointer; fill: rgb(0, 0, 0); fill-opacity: 0;"/></g></g></g><rect class="scrollbar" rx="20" ry="3" width="0" height="0" style="fill: rgb(128, 139, 164); fill-opacity: 1;" x="0" y="0"/></g><g class="g-gtitle"><text class="gtitle" x="350" y="12.5" text-anchor="middle" dy="0em" style="font-family: 'Open Sans', verdana, arial, sans-serif; font-size: 17px; fill: rgb(68, 68, 68); opacity: 1; font-weight: normal; white-space: pre;"><tspan style="font-weight:bold"> Leprosy Incidence MB - Immunity Vaccine 0.5, Treatment 95% </tspan></text></g><g class="g-xtitle" transform="translate(0,-15)"><text class="xtitle" x="369.5" y="512" text-anchor="middle" style="font-family: 'Open Sans', verdana, arial, sans-serif; font-size: 14px; fill: rgb(68, 68, 68); opacity: 1; font-weight: normal; white-space: pre;">Time(Years)</text></g><g class="g-ytitle"><text class="ytitle" transform="rotate(-90,22,242.5)" x="22" y="242.5" text-anchor="middle" style="font-family: 'Open Sans', verdana, arial, sans-serif; font-size: 14px; fill: rgb(68, 68, 68); opacity: 1; font-weight: normal; white-space: pre;">Number of new infectiuos individuals</text></g></g></svg>