<svg class="main-svg" xmlns="http://www.w3.org/2000/svg" xmlns:xlink="http://www.w3.org/1999/xlink" width="700" height="500" style="" viewBox="0 0 700 500"><rect x="0" y="0" width="700" height="500" style="fill: rgb(255, 255, 255); fill-opacity: 1;"/><defs id="defs-8035f4"><g class="clips"><clipPath id="clip8035f4xyplot" class="plotclip"><rect width="619" height="435"/></clipPath><clipPath class="axesclip" id="clip8035f4x"><rect x="60" y="0" width="619" height="500"/></clipPath><clipPath class="axesclip" id="clip8035f4y"><rect x="0" y="25" width="700" height="435"/></clipPath><clipPath class="axesclip" id="clip8035f4xy"><rect x="60" y="25" width="619" height="435"/></clipPath></g><g class="gradients"/></defs><g class="bglayer"/><g class="layer-below"><g class="imagelayer"/><g class="shapelayer"/></g><g class="cartesianlayer"><g class="subplot xy"><g class="layer-subplot"><g class="shapelayer"/><g class="imagelayer"/></g><g class="gridlayer"><g class="x"><path class="xgrid crisp" transform="translate(212.42,0)" d="M0,25v435" style="stroke: rgb(238, 238, 238); stroke-opacity: 1; stroke-width: 1px;"/><path class="xgrid crisp" transform="translate(367.94,0)" d="M0,25v435" style="stroke: rgb(238, 238, 238); stroke-opacity: 1; stroke-width: 1px;"/><path class="xgrid crisp" transform="translate(523.47,0)" d="M0,25v435" style="stroke: rgb(238, 238, 238); stroke-opacity: 1; stroke-width: 1px;"/></g><g class="y"><path class="ygrid crisp" transform="translate(0,362.27)" d="M60,0h619" style="stroke: rgb(238, 238, 238); stroke-opacity: 1; stroke-width: 1px;"/><path class="ygrid crisp" transform="translate(0,286.28)" d="M60,0h619" style="stroke: rgb(238, 238, 238); stroke-opacity: 1; stroke-width: 1px;"/><path class="ygrid crisp" transform="translate(0,210.3)" d="M60,0h619" style="stroke: rgb(238, 238, 238); stroke-opacity: 1; stroke-width: 1px;"/><path class="ygrid crisp" transform="translate(0,134.32)" d="M60,0h619" style="stroke: rgb(238, 238, 238); stroke-opacity: 1; stroke-width: 1px;"/><path class="ygrid crisp" transform="translate(0,58.34)" d="M60,0h619" style="stroke: rgb(238, 238, 238); stroke-opacity: 1; stroke-width: 1px;"/></g></g><g class="zerolinelayer"><path class="yzl zl crisp" transform="translate(0,438.25)" d="M60,0h619" style="stroke: rgb(68, 68, 68); stroke-opacity: 1; stroke-width: 1px;"/></g><path class="xlines-below"/><path class="ylines-below"/><g class="overlines-below"/><g class="xaxislayer-below"/><g class="yaxislayer-below"/><g class="overaxes-below"/><g class="plot" transform="translate(60, 25)" clip-path="url('#clip8035f4xyplot')"><g class="scatterlayer mlayer"><g class="trace scatter trace83a8d1" style="stroke-miterlimit: 2; opacity: 1;"><g class="fills"/><g class="errorbars"/><g class="lines"><path class="js-line" d="M0,409.45L3.11,413.25L6.22,413.25L9.33,407.13L12.44,410.19L27.99,407.19L31.11,405.97L34.22,405.82L37.33,404.66L43.55,402.86L46.66,401.62L55.99,398.95L59.1,397.35L68.43,393.63L71.54,392.49L74.65,390.85L77.76,390.61L80.87,387.61L83.98,386.31L87.1,386.47L90.21,382.89L93.32,379.97L96.43,379.86L108.87,370.7L111.98,371.1L115.09,368.95L118.2,364.01L124.42,360.4L127.53,357.88L130.64,357.02L133.75,353.47L139.97,346.61L143.09,346.9L146.2,343.59L149.31,336.98L155.53,333.15L158.64,329.99L161.75,327.37L164.86,321.08L167.97,321.01L171.08,313.85L174.19,312.67L177.3,308.2L180.41,300.83L183.52,299.16L186.63,296.26L189.74,294.79L195.96,284.88L199.08,277.83L202.19,275.84L205.3,270.44L208.41,266.81L211.52,260.62L214.63,255.66L217.74,247.25L220.85,247.89L223.96,237.22L230.18,232.07L233.29,222.76L236.4,217.88L239.51,208.29L242.62,207.55L245.73,197.67L248.84,194.9L251.95,185.19L261.29,166.25L264.4,157L270.62,140.3L273.73,132.74L276.84,127.88L279.95,119.77L283.06,104.17L286.17,99.23L295.5,68.38L298.61,62.48L301.72,53.81L304.83,41.47L307.94,31.89L311.06,42.02L320.39,127.12L323.5,188.82L329.72,250.95L332.83,275.19L339.05,309.02L342.16,324.58L348.38,345.28L351.49,353.79L354.6,357.4L357.71,362.66L360.82,365.82L363.93,371.93L373.27,382.91L376.38,385.65L385.71,393.08L388.82,393.8L391.93,393.8L395.04,394.96L398.15,396.91L401.26,397.05L404.37,396.99L407.48,397.9L410.59,400.16L413.7,401.24L416.81,402.95L419.92,403.51L423.04,404.4L426.15,404.44L432.37,405.63L435.48,405.46L438.59,404.97L441.7,405.77L447.92,406.53L451.03,407.48L466.58,409.83L469.69,409.56L472.8,410.21L475.91,409.98L503.91,411.67L507.02,411.18L522.57,412.17L525.68,412.17L615.89,413.06L619,412.74" style="vector-effect: non-scaling-stroke; fill: none; stroke: rgb(31, 119, 180); stroke-opacity: 1; stroke-width: 2px; opacity: 1;"/></g><g class="points"/><g class="text"/></g><g class="trace scatter trace73e53a" style="stroke-miterlimit: 2; opacity: 1;"><g class="fills"/><g class="errorbars"/><g class="lines"><path class="js-line" d="M0,409.45L3.11,413.25L6.22,413.25L9.33,407.13L12.44,410.19L27.99,407.19L31.11,405.97L34.22,405.82L37.33,404.66L43.55,402.86L46.66,401.62L55.99,398.95L59.1,397.35L68.43,393.63L71.54,392.49L74.65,390.85L77.76,390.61L80.87,387.61L83.98,386.31L87.1,386.47L90.21,382.89L93.32,379.97L96.43,379.86L108.87,370.7L111.98,371.1L115.09,368.95L118.2,364.01L124.42,360.4L127.53,357.88L130.64,357.02L133.75,353.47L139.97,346.61L143.09,346.9L146.2,343.59L149.31,336.98L155.53,333.15L158.64,329.99L161.75,327.37L164.86,321.08L167.97,321.01L171.08,313.85L174.19,312.67L177.3,308.2L180.41,300.83L183.52,299.16L186.63,296.26L189.74,294.79L195.96,284.88L199.08,277.83L202.19,275.84L205.3,270.44L208.41,266.81L211.52,260.62L214.63,255.66L217.74,247.25L220.85,247.89L223.96,237.22L230.18,232.07L233.29,222.76L236.4,217.88L239.51,208.29L242.62,207.55L245.73,197.67L248.84,194.9L251.95,185.19L261.29,166.25L264.4,157L270.62,140.3L273.73,132.74L276.84,127.88L279.95,119.77L283.06,104.17L286.17,99.23L295.5,68.38L298.61,62.48L301.72,53.81L304.83,41.47L307.94,31.89L311.06,40.37L317.28,94.54L320.39,117.47L323.5,182.32L326.61,220.03L335.94,291.49L339.05,308.51L345.27,334.02L348.38,342.45L351.49,346.2L354.6,354.4L357.71,359.26L360.82,360.59L363.93,366.73L367.05,370.93L370.16,376.38L373.27,380.14L376.38,382.38L379.49,387.87L382.6,389.13L385.71,393.23L388.82,392.96L391.93,393.46L395.04,392.51L398.15,392.43L401.26,392.26L404.37,394.01L407.48,396.84L410.59,396.99L416.81,399.35L419.92,401.26L423.04,402.04L426.15,403.7L435.48,403.13L438.59,402.48L441.7,403.87L444.81,404.27L447.92,405.48L451.03,405.61L460.36,408.16L463.47,408.06L466.58,408.77L469.69,408.52L475.91,409.09L479.03,408.56L482.14,409.41L485.25,409.26L491.47,409.58L494.58,410.51L503.91,410.86L507.02,411.35L600.34,412.91L603.45,412.78L619,412.89" style="vector-effect: non-scaling-stroke; fill: none; stroke: rgb(255, 127, 14); stroke-opacity: 1; stroke-width: 2px; opacity: 1;"/></g><g class="points"/><g class="text"/></g><g class="trace scatter trace1e0494" style="stroke-miterlimit: 2; opacity: 1;"><g class="fills"/><g class="errorbars"/><g class="lines"><path class="js-line" d="M0,409.45L3.11,413.25L6.22,413.25L9.33,407.13L12.44,410.19L27.99,407.19L31.11,405.97L34.22,405.82L37.33,404.66L43.55,402.86L46.66,401.62L55.99,398.95L59.1,397.35L68.43,393.63L71.54,392.49L74.65,390.85L77.76,390.61L80.87,387.61L83.98,386.31L87.1,386.47L90.21,382.89L93.32,379.97L96.43,379.86L108.87,370.7L111.98,371.1L115.09,368.95L118.2,364.01L124.42,360.4L127.53,357.88L130.64,357.02L133.75,353.47L139.97,346.61L143.09,346.9L146.2,343.59L149.31,336.98L155.53,333.15L158.64,329.99L161.75,327.37L164.86,321.08L167.97,321.01L171.08,313.85L174.19,312.67L177.3,308.2L180.41,300.83L183.52,299.16L186.63,296.26L189.74,294.79L195.96,284.88L199.08,277.83L202.19,275.84L205.3,270.44L208.41,266.81L211.52,260.62L214.63,255.66L217.74,247.25L220.85,247.89L223.96,237.22L230.18,232.07L233.29,222.76L236.4,217.88L239.51,208.29L242.62,207.55L245.73,197.67L248.84,194.9L251.95,185.19L261.29,166.25L264.4,157L270.62,140.3L273.73,132.74L276.84,127.88L279.95,119.77L283.06,104.17L286.17,99.23L295.5,68.38L298.61,62.48L301.72,53.81L304.83,41.47L307.94,31.89L311.06,34.4L320.39,117.43L323.5,178.03L329.72,244.95L332.83,265.58L335.94,287.06L339.05,301.95L345.27,329.71L348.38,340.4L351.49,343.33L354.6,348.84L360.82,356.57L363.93,361.22L370.16,372.43L373.27,374.71L376.38,380.27L379.49,383.12L385.71,388.82L388.82,390.61L395.04,387.42L398.15,389.75L401.26,389.64L404.37,390.78L407.48,392.83L410.59,393.82L413.7,395.05L416.81,397.1L423.04,400.12L426.15,401.11L429.26,401.83L432.37,401.43L435.48,400.5L438.59,401.4L444.81,401.62L447.92,402.33L454.14,404.61L457.25,404.83L460.36,406.3L463.47,406.75L479.03,407.34L482.14,407.4L485.25,408.22L488.36,407.86L507.02,410.5L510.13,410.23L516.35,410.46L519.46,410.69L544.35,412.07L547.46,411.79L550.57,411.56L553.68,412.13L559.9,411.84L563.01,412.28L572.34,412.13L575.45,412.36L603.45,412.66L606.56,412.45L615.89,412.72L619,412.83" style="vector-effect: non-scaling-stroke; fill: none; stroke: rgb(44, 160, 44); stroke-opacity: 1; stroke-width: 2px; opacity: 1;"/></g><g class="points"/><g class="text"/></g><g class="trace scatter trace0e39e0" style="stroke-miterlimit: 2; opacity: 1;"><g class="fills"/><g class="errorbars"/><g class="lines"><path class="js-line" d="M0,409.45L3.11,413.25L6.22,413.25L9.33,407.13L12.44,410.19L27.99,407.19L31.11,405.97L34.22,405.82L37.33,404.66L43.55,402.86L46.66,401.62L55.99,398.95L59.1,397.35L68.43,393.63L71.54,392.49L74.65,390.85L77.76,390.61L80.87,387.61L83.98,386.31L87.1,386.47L90.21,382.89L93.32,379.97L96.43,379.86L108.87,370.7L111.98,371.1L115.09,368.95L118.2,364.01L124.42,360.4L127.53,357.88L130.64,357.02L133.75,353.47L139.97,346.61L143.09,346.9L146.2,343.59L149.31,336.98L155.53,333.15L158.64,329.99L161.75,327.37L164.86,321.08L167.97,321.01L171.08,313.85L174.19,312.67L177.3,308.2L180.41,300.83L183.52,299.16L186.63,296.26L189.74,294.79L195.96,284.88L199.08,277.83L202.19,275.84L205.3,270.44L208.41,266.81L211.52,260.62L214.63,255.66L217.74,247.25L220.85,247.89L223.96,237.22L230.18,232.07L233.29,222.76L236.4,217.88L239.51,208.29L242.62,207.55L245.73,197.67L248.84,194.9L251.95,185.19L261.29,166.25L264.4,157L270.62,140.3L273.73,132.74L276.84,127.88L279.95,119.77L283.06,104.17L286.17,99.23L295.5,68.38L298.61,62.48L301.72,53.81L304.83,41.47L307.94,31.89L311.06,26.99L320.39,106.6L323.5,168.66L329.72,230.95L332.83,258.49L335.94,280.6L339.05,296.14L342.16,311.11L345.27,331.64L348.38,339.15L351.49,335.67L354.6,338.22L357.71,342.42L360.82,343.8L363.93,349.5L367.05,355.41L370.16,359.44L376.38,372.71L379.49,376.44L382.6,381.05L385.71,383.52L388.82,387.3L391.93,383.1L401.26,380.31L404.37,383.29L407.48,382.65L410.59,387.07L423.04,396.17L426.15,396.34L429.26,399.25L432.37,398L435.48,396.95L438.59,396.86L444.81,396.93L447.92,398.13L451.03,399.63L454.14,399.92L457.25,402.21L460.36,403.54L463.47,403.09L466.58,404.91L475.91,405.4L479.03,405.02L488.36,405.52L491.47,405.77L494.58,405.99L497.69,407.13L500.8,408.48L503.91,408.31L519.46,410.08L522.57,409.41L531.9,410.29L535.02,410.23L538.13,411.05L541.24,410.53L559.9,411.54L563.01,411.52L606.56,412.24L609.67,412.21L619,412.41" style="vector-effect: non-scaling-stroke; fill: none; stroke: rgb(214, 39, 40); stroke-opacity: 1; stroke-width: 2px; opacity: 1;"/></g><g class="points"/><g class="text"/></g><g class="trace scatter trace3e6cbe" style="stroke-miterlimit: 2; opacity: 1;"><g class="fills"/><g class="errorbars"/><g class="lines"><path class="js-line" d="M0,409.45L3.11,413.25L6.22,413.25L9.33,407.13L12.44,410.19L27.99,407.19L31.11,405.97L34.22,405.82L37.33,404.66L43.55,402.86L46.66,401.62L55.99,398.95L59.1,397.35L68.43,393.63L71.54,392.49L74.65,390.85L77.76,390.61L80.87,387.61L83.98,386.31L87.1,386.47L90.21,382.89L93.32,379.97L96.43,379.86L108.87,370.7L111.98,371.1L115.09,368.95L118.2,364.01L124.42,360.4L127.53,357.88L130.64,357.02L133.75,353.47L139.97,346.61L143.09,346.9L146.2,343.59L149.31,336.98L155.53,333.15L158.64,329.99L161.75,327.37L164.86,321.08L167.97,321.01L171.08,313.85L174.19,312.67L177.3,308.2L180.41,300.83L183.52,299.16L186.63,296.26L189.74,294.79L195.96,284.88L199.08,277.83L202.19,275.84L205.3,270.44L208.41,266.81L211.52,260.62L214.63,255.66L217.74,247.25L220.85,247.89L223.96,237.22L230.18,232.07L233.29,222.76L236.4,217.88L239.51,208.29L242.62,207.55L245.73,197.67L248.84,194.9L251.95,185.19L261.29,166.25L264.4,157L270.62,140.3L273.73,132.74L276.84,127.88L279.95,119.77L283.06,104.17L286.17,99.23L295.5,68.38L298.61,62.48L301.72,53.81L304.83,41.47L311.06,21.75L314.17,34.52L317.28,50.57L320.39,80.6L323.5,139.81L326.61,178.6L332.83,239.55L335.94,258.93L339.05,283.17L342.16,300.38L345.27,317.02L348.38,327.75L351.49,335.37L354.6,330.07L357.71,323.4L360.82,325.89L363.93,325.62L367.05,332.48L376.38,353.47L379.49,359.64L385.71,372.77L388.82,375.22L391.93,377.14L395.04,374.8L398.15,372.09L401.26,366.73L404.37,366.81L407.48,367.7L410.59,369.71L413.7,374.27L416.81,375.16L419.92,377.75L423.04,381.24L426.15,386.6L429.26,389.51L432.37,390.27L435.48,390.4L438.59,388.75L444.81,387.89L447.92,385.61L451.03,386.92L454.14,389.43L457.25,389.35L460.36,391.48L472.8,398.28L475.91,398.95L482.14,400.29L485.25,399.38L494.58,400.33L497.69,400.88L500.8,401.99L503.91,401.7L516.35,404.51L519.46,404.95L528.79,405.71L531.9,405.67L535.02,405.71L538.13,406.87L541.24,405.88L544.35,406.81L550.57,408.46L553.68,407.93L559.9,408.82L563.01,408.75L569.23,409.05L572.34,409.26L587.89,409.72L591.01,409.75L600.34,410.63L603.45,410.61L619,410.61" style="vector-effect: non-scaling-stroke; fill: none; stroke: rgb(148, 103, 189); stroke-opacity: 1; stroke-width: 2px; opacity: 1;"/></g><g class="points"/><g class="text"/></g><g class="trace scatter tracedd1dab" style="stroke-miterlimit: 2; opacity: 1;"><g class="fills"/><g class="errorbars"/><g class="lines"><path class="js-line" d="M0,409.43L3.11,413.25L6.22,413.25L9.33,407.13L12.44,410.19L27.99,407.19L31.11,405.97L34.22,405.82L37.33,404.66L43.55,402.86L46.66,401.62L55.99,398.95L59.1,397.35L68.43,393.63L71.54,392.49L74.65,390.85L77.76,390.61L80.87,387.61L83.98,386.31L87.1,386.47L90.21,382.89L93.32,379.97L96.43,379.86L108.87,370.7L111.98,371.1L115.09,368.95L118.2,364.01L124.42,360.4L127.53,357.88L130.64,357.02L133.75,353.47L139.97,346.61L143.09,346.9L146.2,343.59L149.31,336.98L155.53,333.15L158.64,329.99L161.75,327.37L164.86,321.08L167.97,321.01L171.08,313.85L174.19,312.67L177.3,308.2L180.41,300.83L183.52,299.16L186.63,296.26L189.74,294.79L195.96,284.88L199.08,277.83L202.19,275.84L205.3,270.44L208.41,266.81L211.52,260.62L214.63,255.66L217.74,247.25L220.85,247.89L223.96,237.22L230.18,232.07L233.29,222.76L236.4,217.88L239.51,208.29L242.62,207.55L245.73,197.67L248.84,194.9L251.95,185.19L261.29,166.25L264.4,157L270.62,140.3L273.73,132.74L276.84,127.88L279.95,119.77L283.06,104.17L286.17,99.23L295.5,68.38L298.61,62.48L301.72,53.81L304.83,41.47L311.06,23.42L314.17,28.19L317.28,33.74L320.39,60.25L323.5,115.49L326.61,149.82L332.83,215.7L335.94,242.12L345.27,302.41L348.38,316.75L351.49,324.35L354.6,324.67L357.71,320.99L360.82,315.48L363.93,310.98L367.05,315.42L370.16,314.64L373.27,324.45L379.49,337.61L382.6,344.73L388.82,360.08L391.93,363.9L395.04,365.57L398.15,365.67L407.48,356.78L410.59,356.11L413.7,354.93L416.81,357.42L419.92,363.18L423.04,365.15L429.26,372.16L432.37,376.91L435.48,379.21L438.59,380.52L441.7,381L444.81,380.14L447.92,380.84L451.03,378.05L457.25,379.04L460.36,378.77L463.47,381.05L466.58,381.22L472.8,386.07L475.91,387.74L479.03,388.76L482.14,393.17L485.25,392.47L488.36,392.72L494.58,393.72L497.69,392.87L503.91,393.36L507.02,393.74L510.13,394.67L513.24,394.33L516.35,396.53L519.46,397.14L525.68,397.86L528.79,399.67L535.02,401.57L538.13,400.85L544.35,400.66L547.46,401.76L553.68,402.57L556.79,402.21L563.01,403.87L566.12,403.26L569.23,404.53L572.34,404.47L578.56,404.97L581.67,405.52L587.89,406.37L591.01,407.15L597.23,406.28L600.34,406.85L606.56,406.53L609.67,407.06L615.89,407.67L619,407.08" style="vector-effect: non-scaling-stroke; fill: none; stroke: rgb(140, 86, 75); stroke-opacity: 1; stroke-width: 2px; opacity: 1;"/></g><g class="points"/><g class="text"/></g></g></g><g class="overplot"/><path class="xlines-above crisp" style="fill: none;" d="M0,0"/><path class="ylines-above crisp" style="fill: none;" d="M0,0"/><g class="overlines-above"/><g class="xaxislayer-above"><g class="xtick"><text text-anchor="middle" x="0" y="473" transform="translate(212.42,0)" style="font-family: 'Open Sans', verdana, arial, sans-serif; font-size: 12px; fill: rgb(68, 68, 68); fill-opacity: 1; white-space: pre;">50</text></g><g class="xtick"><text text-anchor="middle" x="0" y="473" transform="translate(367.94,0)" style="font-family: 'Open Sans', verdana, arial, sans-serif; font-size: 12px; fill: rgb(68, 68, 68); fill-opacity: 1; white-space: pre;">100</text></g><g class="xtick"><text text-anchor="middle" x="0" y="473" transform="translate(523.47,0)" style="font-family: 'Open Sans', verdana, arial, sans-serif; font-size: 12px; fill: rgb(68, 68, 68); fill-opacity: 1; white-space: pre;">150</text></g><g class="xtick"><text text-anchor="middle" x="0" y="473" transform="translate(679,0)" style="font-family: 'Open Sans', verdana, arial, sans-serif; font-size: 12px; fill: rgb(68, 68, 68); fill-opacity: 1; white-space: pre;">200</text></g></g><g class="yaxislayer-above"><g class="ytick"><text text-anchor="end" x="59" y="4.199999999999999" transform="translate(0,438.25)" style="font-family: 'Open Sans', verdana, arial, sans-serif; font-size: 12px; fill: rgb(68, 68, 68); fill-opacity: 1; white-space: pre;">0</text></g><g class="ytick"><text text-anchor="end" x="59" y="4.199999999999999" transform="translate(0,362.27)" style="font-family: 'Open Sans', verdana, arial, sans-serif; font-size: 12px; fill: rgb(68, 68, 68); fill-opacity: 1; white-space: pre;">20</text></g><g class="ytick"><text text-anchor="end" x="59" y="4.199999999999999" transform="translate(0,286.28)" style="font-family: 'Open Sans', verdana, arial, sans-serif; font-size: 12px; fill: rgb(68, 68, 68); fill-opacity: 1; white-space: pre;">40</text></g><g class="ytick"><text text-anchor="end" x="59" y="4.199999999999999" transform="translate(0,210.3)" style="font-family: 'Open Sans', verdana, arial, sans-serif; font-size: 12px; fill: rgb(68, 68, 68); fill-opacity: 1; white-space: pre;">60</text></g><g class="ytick"><text text-anchor="end" x="59" y="4.199999999999999" transform="translate(0,134.32)" style="font-family: 'Open Sans', verdana, arial, sans-serif; font-size: 12px; fill: rgb(68, 68, 68); fill-opacity: 1; white-space: pre;">80</text></g><g class="ytick"><text text-anchor="end" x="59" y="4.199999999999999" transform="translate(0,58.34)" style="font-family: 'Open Sans', verdana, arial, sans-serif; font-size: 12px; fill: rgb(68, 68, 68); fill-opacity: 1; white-space: pre;">100</text></g></g><g class="overaxes-above"/></g></g><g class="polarlayer"/><g class="ternarylayer"/><g class="geolayer"/><g class="funnelarealayer"/><g class="pielayer"/><g class="treemaplayer"/><g class="sunburstlayer"/><g class="glimages"/><defs id="topdefs-8035f4"><g class="clips"/><clipPath id="legend8035f4"><rect width="117" height="140" x="0" y="0"/></clipPath></defs><g class="layer-above"><g class="imagelayer"/><g class="shapelayer"/></g><g class="infolayer"><g class="legend" pointer-events="all" transform="translate(90.95, 46.750000000000014)"><rect class="bg" shape-rendering="crispEdges" style="stroke: rgb(68, 68, 68); stroke-opacity: 1; fill: rgb(226, 226, 226); fill-opacity: 1; stroke-width: 0px;" width="117" height="140" x="0" y="0"/><g class="scrollbox" transform="translate(0, 0)" clip-path="url('#legend8035f4')"><text class="legendtitletext user-select-none" text-anchor="start" x="2" y="15.600000000000001" style="font-family: 'Open Sans', verdana, arial, sans-serif; font-size: 12px; fill: rgb(68, 68, 68); fill-opacity: 1; white-space: pre;"><tspan style="font-weight:bold"> Identification Time </tspan></text><g class="groups"><g class="traces" transform="translate(0, 30.1)" style="opacity: 1;"><text class="legendtext user-select-none" text-anchor="start" x="40" y="4.680000000000001" style="font-family: 'Open Sans', verdana, arial, sans-serif; font-size: 12px; fill: rgb(68, 68, 68); fill-opacity: 1; white-space: pre;">0 Months</text><g class="layers" style="opacity: 1;"><g class="legendfill"/><g class="legendlines"><path class="js-line" d="M5,0h30" style="fill: none; stroke: rgb(31, 119, 180); stroke-opacity: 1; stroke-width: 2px;"/></g><g class="legendsymbols"><g class="legendpoints"/></g></g><rect class="legendtoggle" pointer-events="all" x="0" y="-9.5" width="98.046875" height="19" style="cursor: pointer; fill: rgb(0, 0, 0); fill-opacity: 0;"/></g><g class="traces" transform="translate(0, 49.1)" style="opacity: 1;"><text class="legendtext user-select-none" text-anchor="start" x="40" y="4.680000000000001" style="font-family: 'Open Sans', verdana, arial, sans-serif; font-size: 12px; fill: rgb(68, 68, 68); fill-opacity: 1; white-space: pre;">3 Months</text><g class="layers" style="opacity: 1;"><g class="legendfill"/><g class="legendlines"><path class="js-line" d="M5,0h30" style="fill: none; stroke: rgb(255, 127, 14); stroke-opacity: 1; stroke-width: 2px;"/></g><g class="legendsymbols"><g class="legendpoints"/></g></g><rect class="legendtoggle" pointer-events="all" x="0" y="-9.5" width="98.046875" height="19" style="cursor: pointer; fill: rgb(0, 0, 0); fill-opacity: 0;"/></g><g class="traces" transform="translate(0, 68.1)" style="opacity: 1;"><text class="legendtext user-select-none" text-anchor="start" x="40" y="4.680000000000001" style="font-family: 'Open Sans', verdana, arial, sans-serif; font-size: 12px; fill: rgb(68, 68, 68); fill-opacity: 1; white-space: pre;">6 Months</text><g class="layers" style="opacity: 1;"><g class="legendfill"/><g class="legendlines"><path class="js-line" d="M5,0h30" style="fill: none; stroke: rgb(44, 160, 44); stroke-opacity: 1; stroke-width: 2px;"/></g><g class="legendsymbols"><g class="legendpoints"/></g></g><rect class="legendtoggle" pointer-events="all" x="0" y="-9.5" width="98.046875" height="19" style="cursor: pointer; fill: rgb(0, 0, 0); fill-opacity: 0;"/></g><g class="traces" transform="translate(0, 87.1)" style="opacity: 1;"><text class="legendtext user-select-none" text-anchor="start" x="40" y="4.680000000000001" style="font-family: 'Open Sans', verdana, arial, sans-serif; font-size: 12px; fill: rgb(68, 68, 68); fill-opacity: 1; white-space: pre;">12 Months</text><g class="layers" style="opacity: 1;"><g class="legendfill"/><g class="legendlines"><path class="js-line" d="M5,0h30" style="fill: none; stroke: rgb(214, 39, 40); stroke-opacity: 1; stroke-width: 2px;"/></g><g class="legendsymbols"><g class="legendpoints"/></g></g><rect class="legendtoggle" pointer-events="all" x="0" y="-9.5" width="98.046875" height="19" style="cursor: pointer; fill: rgb(0, 0, 0); fill-opacity: 0;"/></g><g class="traces" transform="translate(0, 106.1)" style="opacity: 1;"><text class="legendtext user-select-none" text-anchor="start" x="40" y="4.680000000000001" style="font-family: 'Open Sans', verdana, arial, sans-serif; font-size: 12px; fill: rgb(68, 68, 68); fill-opacity: 1; white-space: pre;">24 Months</text><g class="layers" style="opacity: 1;"><g class="legendfill"/><g class="legendlines"><path class="js-line" d="M5,0h30" style="fill: none; stroke: rgb(148, 103, 189); stroke-opacity: 1; stroke-width: 2px;"/></g><g class="legendsymbols"><g class="legendpoints"/></g></g><rect class="legendtoggle" pointer-events="all" x="0" y="-9.5" width="98.046875" height="19" style="cursor: pointer; fill: rgb(0, 0, 0); fill-opacity: 0;"/></g><g class="traces" transform="translate(0, 125.1)" style="opacity: 1;"><text class="legendtext user-select-none" text-anchor="start" x="40" y="4.680000000000001" style="font-family: 'Open Sans', verdana, arial, sans-serif; font-size: 12px; fill: rgb(68, 68, 68); fill-opacity: 1; white-space: pre;">36 Months</text><g class="layers" style="opacity: 1;"><g class="legendfill"/><g class="legendlines"><path class="js-line" d="M5,0h30" style="fill: none; stroke: rgb(140, 86, 75); stroke-opacity: 1; stroke-width: 2px;"/></g><g class="legendsymbols"><g class="legendpoints"/></g></g><rect class="legendtoggle" pointer-events="all" x="0" y="-9.5" width="98.046875" height="19" style="cursor: pointer; fill: rgb(0, 0, 0); fill-opacity: 0;"/></g></g></g><rect class="scrollbar" rx="20" ry="3" width="0" height="0" style="fill: rgb(128, 139, 164); fill-opacity: 1;" x="0" y="0"/></g><g class="g-gtitle"><text class="gtitle" x="350" y="12.5" text-anchor="middle" dy="0em" style="font-family: 'Open Sans', verdana, arial, sans-serif; font-size: 17px; fill: rgb(68, 68, 68); opacity: 1; font-weight: normal; white-space: pre;"><tspan style="font-weight:bold"> Leprosy Incidence MB - Immunity Vaccine 0.99, Treatment 95% </tspan></text></g><g class="g-xtitle" transform="translate(0,-15)"><text class="xtitle" x="369.5" y="512" text-anchor="middle" style="font-family: 'Open Sans', verdana, arial, sans-serif; font-size: 14px; fill: rgb(68, 68, 68); opacity: 1; font-weight: normal; white-space: pre;">Time(Years)</text></g><g class="g-ytitle"><text class="ytitle" transform="rotate(-90,22,242.5)" x="22" y="242.5" text-anchor="middle" style="font-family: 'Open Sans', verdana, arial, sans-serif; font-size: 14px; fill: rgb(68, 68, 68); opacity: 1; font-weight: normal; white-space: pre;">Number of new infectiuos individuals</text></g></g></svg>