<svg class="main-svg" xmlns="http://www.w3.org/2000/svg" xmlns:xlink="http://www.w3.org/1999/xlink" width="700" height="500" style="" viewBox="0 0 700 500"><rect x="0" y="0" width="700" height="500" style="fill: rgb(255, 255, 255); fill-opacity: 1;"/><defs id="defs-325301"><g class="clips"><clipPath id="clip325301xyplot" class="plotclip"><rect width="619" height="435"/></clipPath><clipPath class="axesclip" id="clip325301x"><rect x="60" y="0" width="619" height="500"/></clipPath><clipPath class="axesclip" id="clip325301y"><rect x="0" y="25" width="700" height="435"/></clipPath><clipPath class="axesclip" id="clip325301xy"><rect x="60" y="25" width="619" height="435"/></clipPath></g><g class="gradients"/></defs><g class="bglayer"/><g class="layer-below"><g class="imagelayer"/><g class="shapelayer"/></g><g class="cartesianlayer"><g class="subplot xy"><g class="layer-subplot"><g class="shapelayer"/><g class="imagelayer"/></g><g class="gridlayer"><g class="x"><path class="xgrid crisp" transform="translate(212.42,0)" d="M0,25v435" style="stroke: rgb(238, 238, 238); stroke-opacity: 1; stroke-width: 1px;"/><path class="xgrid crisp" transform="translate(367.94,0)" d="M0,25v435" style="stroke: rgb(238, 238, 238); stroke-opacity: 1; stroke-width: 1px;"/><path class="xgrid crisp" transform="translate(523.47,0)" d="M0,25v435" style="stroke: rgb(238, 238, 238); stroke-opacity: 1; stroke-width: 1px;"/></g><g class="y"><path class="ygrid crisp" transform="translate(0,362.27)" d="M60,0h619" style="stroke: rgb(238, 238, 238); stroke-opacity: 1; stroke-width: 1px;"/><path class="ygrid crisp" transform="translate(0,286.28)" d="M60,0h619" style="stroke: rgb(238, 238, 238); stroke-opacity: 1; stroke-width: 1px;"/><path class="ygrid crisp" transform="translate(0,210.3)" d="M60,0h619" style="stroke: rgb(238, 238, 238); stroke-opacity: 1; stroke-width: 1px;"/><path class="ygrid crisp" transform="translate(0,134.32)" d="M60,0h619" style="stroke: rgb(238, 238, 238); stroke-opacity: 1; stroke-width: 1px;"/><path class="ygrid crisp" transform="translate(0,58.34)" d="M60,0h619" style="stroke: rgb(238, 238, 238); stroke-opacity: 1; stroke-width: 1px;"/></g></g><g class="zerolinelayer"><path class="yzl zl crisp" transform="translate(0,438.25)" d="M60,0h619" style="stroke: rgb(68, 68, 68); stroke-opacity: 1; stroke-width: 1px;"/></g><path class="xlines-below"/><path class="ylines-below"/><g class="overlines-below"/><g class="xaxislayer-below"/><g class="yaxislayer-below"/><g class="overaxes-below"/><g class="plot" transform="translate(60, 25)" clip-path="url('#clip325301xyplot')"><g class="scatterlayer mlayer"><g class="trace scatter trace240ab8" style="stroke-miterlimit: 2; opacity: 1;"><g class="fills"/><g class="errorbars"/><g class="lines"><path class="js-line" d="M0,409.45L3.11,413.25L6.22,413.25L9.33,407.13L12.44,410.19L27.99,407.19L31.11,405.97L34.22,405.82L37.33,404.66L43.55,402.86L46.66,401.62L55.99,398.95L59.1,397.35L68.43,393.63L71.54,392.49L74.65,390.85L77.76,390.61L80.87,387.61L83.98,386.31L87.1,386.47L90.21,382.89L93.32,379.97L96.43,379.86L108.87,370.7L111.98,371.1L115.09,368.95L118.2,364.01L124.42,360.4L127.53,357.88L130.64,357.02L133.75,353.47L139.97,346.61L143.09,346.9L146.2,343.59L149.31,336.98L155.53,333.15L158.64,329.99L161.75,327.37L164.86,321.08L167.97,321.01L171.08,313.85L174.19,312.67L177.3,308.2L180.41,300.83L183.52,299.16L186.63,296.26L189.74,294.79L195.96,284.88L199.08,277.83L202.19,275.84L205.3,270.44L208.41,266.81L211.52,260.62L214.63,255.66L217.74,247.25L220.85,247.89L223.96,237.22L230.18,232.07L233.29,222.76L236.4,217.88L239.51,208.29L242.62,207.55L245.73,197.67L248.84,194.9L251.95,185.19L261.29,166.25L264.4,157L270.62,140.3L273.73,132.74L276.84,127.88L279.95,119.77L283.06,104.17L286.17,99.23L295.5,68.38L298.61,62.48L301.72,53.81L304.83,41.47L307.94,31.89L311.06,42.02L317.28,98.13L320.39,125.01L326.61,200.86L329.72,228.5L339.05,292.74L342.16,303.63L345.27,322.36L348.38,333.2L351.49,340.36L354.6,344.22L357.71,349.2L360.82,356.45L367.05,366.08L370.16,371.16L373.27,373.91L376.38,378.01L379.49,379.89L382.6,384.38L388.82,388.23L391.93,388.14L395.04,390.02L398.15,389.64L401.26,389.47L404.37,391.97L410.59,392.32L413.7,395.03L416.81,395.17L419.92,396.88L426.15,399.29L429.26,399.06L438.59,401.11L441.7,402.37L444.81,402.23L447.92,403.22L454.14,403.32L457.25,405.52L472.8,406.7L475.91,407.32L479.03,406.91L482.14,407.4L485.25,408.37L488.36,407.49L491.47,408.52L494.58,408.18L497.69,408.27L500.8,409.26L503.91,410L507.02,409.74L513.24,409.87L516.35,410.57L528.79,410.55L531.9,410.99L544.35,411.37L547.46,411.26L550.57,411.88L553.68,411.67L572.34,412.4L575.45,412.21L587.89,412.38L591.01,412.28L619,412.72" style="vector-effect: non-scaling-stroke; fill: none; stroke: rgb(31, 119, 180); stroke-opacity: 1; stroke-width: 2px; opacity: 1;"/></g><g class="points"/><g class="text"/></g><g class="trace scatter trace9c7b15" style="stroke-miterlimit: 2; opacity: 1;"><g class="fills"/><g class="errorbars"/><g class="lines"><path class="js-line" d="M0,409.45L3.11,413.25L6.22,413.25L9.33,407.13L12.44,410.19L27.99,407.19L31.11,405.97L34.22,405.82L37.33,404.66L43.55,402.86L46.66,401.62L55.99,398.95L59.1,397.35L68.43,393.63L71.54,392.49L74.65,390.85L77.76,390.61L80.87,387.61L83.98,386.31L87.1,386.47L90.21,382.89L93.32,379.97L96.43,379.86L108.87,370.7L111.98,371.1L115.09,368.95L118.2,364.01L124.42,360.4L127.53,357.88L130.64,357.02L133.75,353.47L139.97,346.61L143.09,346.9L146.2,343.59L149.31,336.98L155.53,333.15L158.64,329.99L161.75,327.37L164.86,321.08L167.97,321.01L171.08,313.85L174.19,312.67L177.3,308.2L180.41,300.83L183.52,299.16L186.63,296.26L189.74,294.79L195.96,284.88L199.08,277.83L202.19,275.84L205.3,270.44L208.41,266.81L211.52,260.62L214.63,255.66L217.74,247.25L220.85,247.89L223.96,237.22L230.18,232.07L233.29,222.76L236.4,217.88L239.51,208.29L242.62,207.55L245.73,197.67L248.84,194.9L251.95,185.19L261.29,166.25L264.4,157L270.62,140.3L273.73,132.74L276.84,127.88L279.95,119.77L283.06,104.17L286.17,99.23L295.5,68.38L298.61,62.48L301.72,53.81L304.83,41.47L307.94,31.89L311.06,40.37L317.28,94.75L320.39,125.16L326.61,193.64L329.72,220.41L339.05,290.9L342.16,304.73L348.38,329.95L351.49,334L360.82,347.92L363.93,356.38L367.05,359.23L370.16,363.12L373.27,369.12L376.38,371.99L379.49,377.14L382.6,380.12L385.71,383.73L388.82,382.93L391.93,385.52L395.04,384.47L401.26,384.6L404.37,387L407.48,387.57L410.59,391.18L413.7,391.61L416.81,392.92L419.92,393.51L423.04,396.13L432.37,397.81L435.48,396.31L444.81,398.97L447.92,398.15L451.03,399.52L454.14,399.74L463.47,403.85L466.58,403.3L469.69,404.85L472.8,403.9L479.03,404.87L482.14,404.72L485.25,404.95L488.36,406.2L494.58,406.47L497.69,407.61L507.02,408.1L510.13,408.79L516.35,409.07L519.46,409.41L528.79,410.31L531.9,409.58L538.13,410.55L541.24,410L550.57,410.48L553.68,410.99L566.12,411.16L569.23,411.22L619,412.4" style="vector-effect: non-scaling-stroke; fill: none; stroke: rgb(255, 127, 14); stroke-opacity: 1; stroke-width: 2px; opacity: 1;"/></g><g class="points"/><g class="text"/></g><g class="trace scatter trace6a1ba5" style="stroke-miterlimit: 2; opacity: 1;"><g class="fills"/><g class="errorbars"/><g class="lines"><path class="js-line" d="M0,409.45L3.11,413.25L6.22,413.25L9.33,407.13L12.44,410.19L27.99,407.19L31.11,405.97L34.22,405.82L37.33,404.66L43.55,402.86L46.66,401.62L55.99,398.95L59.1,397.35L68.43,393.63L71.54,392.49L74.65,390.85L77.76,390.61L80.87,387.61L83.98,386.31L87.1,386.47L90.21,382.89L93.32,379.97L96.43,379.86L108.87,370.7L111.98,371.1L115.09,368.95L118.2,364.01L124.42,360.4L127.53,357.88L130.64,357.02L133.75,353.47L139.97,346.61L143.09,346.9L146.2,343.59L149.31,336.98L155.53,333.15L158.64,329.99L161.75,327.37L164.86,321.08L167.97,321.01L171.08,313.85L174.19,312.67L177.3,308.2L180.41,300.83L183.52,299.16L186.63,296.26L189.74,294.79L195.96,284.88L199.08,277.83L202.19,275.84L205.3,270.44L208.41,266.81L211.52,260.62L214.63,255.66L217.74,247.25L220.85,247.89L223.96,237.22L230.18,232.07L233.29,222.76L236.4,217.88L239.51,208.29L242.62,207.55L245.73,197.67L248.84,194.9L251.95,185.19L261.29,166.25L264.4,157L270.62,140.3L273.73,132.74L276.84,127.88L279.95,119.77L283.06,104.17L286.17,99.23L295.5,68.38L298.61,62.48L301.72,53.81L304.83,41.47L307.94,31.89L311.06,34.4L323.5,148.17L326.61,186.69L332.83,245.04L335.94,264.99L345.27,320.11L348.38,325.98L351.49,328.8L354.6,332.71L357.71,337.29L360.82,344.11L363.93,348.13L367.05,354L373.27,361.37L376.38,368L382.6,376.74L385.71,378.54L388.82,380.82L391.93,379.76L395.04,379.38L398.15,380.56L401.26,378.49L404.37,382.65L407.48,382.19L410.59,383.86L416.81,386.71L419.92,390.95L423.04,390.47L426.15,393.17L429.26,393.86L432.37,393.4L435.48,392.81L438.59,393L444.81,394.44L447.92,395.07L451.03,395.32L454.14,397.22L460.36,399.88L463.47,399.73L475.91,402.18L479.03,402.04L482.14,401.89L485.25,403.2L488.36,403.07L491.47,404.11L497.69,404.63L500.8,405.88L507.02,405.52L510.13,406.37L516.35,407.3L519.46,406.53L522.57,407.55L525.68,407.57L531.9,407.63L535.02,408.58L581.67,410.91L584.78,411.35L587.89,410.91L591.01,411.24L597.23,410.99L600.34,411.29L619,411.83" style="vector-effect: non-scaling-stroke; fill: none; stroke: rgb(44, 160, 44); stroke-opacity: 1; stroke-width: 2px; opacity: 1;"/></g><g class="points"/><g class="text"/></g><g class="trace scatter tracebf8834" style="stroke-miterlimit: 2; opacity: 1;"><g class="fills"/><g class="errorbars"/><g class="lines"><path class="js-line" d="M0,409.45L3.11,413.25L6.22,413.25L9.33,407.13L12.44,410.19L27.99,407.19L31.11,405.97L34.22,405.82L37.33,404.66L43.55,402.86L46.66,401.62L55.99,398.95L59.1,397.35L68.43,393.63L71.54,392.49L74.65,390.85L77.76,390.61L80.87,387.61L83.98,386.31L87.1,386.47L90.21,382.89L93.32,379.97L96.43,379.86L108.87,370.7L111.98,371.1L115.09,368.95L118.2,364.01L124.42,360.4L127.53,357.88L130.64,357.02L133.75,353.47L139.97,346.61L143.09,346.9L146.2,343.59L149.31,336.98L155.53,333.15L158.64,329.99L161.75,327.37L164.86,321.08L167.97,321.01L171.08,313.85L174.19,312.67L177.3,308.2L180.41,300.83L183.52,299.16L186.63,296.26L189.74,294.79L195.96,284.88L199.08,277.83L202.19,275.84L205.3,270.44L208.41,266.81L211.52,260.62L214.63,255.66L217.74,247.25L220.85,247.89L223.96,237.22L230.18,232.07L233.29,222.76L236.4,217.88L239.51,208.29L242.62,207.55L245.73,197.67L248.84,194.9L251.95,185.19L261.29,166.25L264.4,157L270.62,140.3L273.73,132.74L276.84,127.88L279.95,119.77L283.06,104.17L286.17,99.23L295.5,68.38L298.61,62.48L301.72,53.81L304.83,41.47L307.94,31.89L311.06,26.99L317.28,73.76L320.39,105.75L329.72,203.6L332.83,228.35L339.05,276.2L342.16,296.75L345.27,306.86L348.38,319.62L351.49,319.35L354.6,321.27L357.71,325.4L360.82,327.71L363.93,332.06L367.05,338.12L370.16,343.06L373.27,349.52L379.49,361.49L382.6,365.89L385.71,371.19L388.82,373.8L395.04,370.85L398.15,367.53L401.26,366.27L404.37,369.16L407.48,369.67L410.59,371.27L413.7,375.16L416.81,376.68L419.92,378.05L423.04,383.01L426.15,384.41L429.26,388.14L432.37,385.54L435.48,385.99L438.59,386.11L441.7,382.67L444.81,383.88L447.92,386.28L451.03,386.37L454.14,388.23L460.36,391.18L463.47,393.23L466.58,394.63L469.69,394.65L479.03,396.7L482.14,396.19L485.25,397.14L488.36,396.72L491.47,396.91L494.58,396.29L497.69,399.04L500.8,398.72L507.02,400.64L510.13,401.47L513.24,401.13L516.35,402.25L522.57,403.37L525.68,402.99L528.79,402.78L531.9,403.33L535.02,404.53L538.13,403.89L547.46,406.24L550.57,405.82L556.79,405.82L559.9,407.4L572.34,407.3L575.45,408.08L578.56,408.54L581.67,407.61L584.78,408.88L587.89,408.84L594.12,409.07L597.23,408.88L600.34,409.81L603.45,409.94L609.67,409.22L612.78,410L619,409.81" style="vector-effect: non-scaling-stroke; fill: none; stroke: rgb(214, 39, 40); stroke-opacity: 1; stroke-width: 2px; opacity: 1;"/></g><g class="points"/><g class="text"/></g><g class="trace scatter trace0f87e1" style="stroke-miterlimit: 2; opacity: 1;"><g class="fills"/><g class="errorbars"/><g class="lines"><path class="js-line" d="M0,409.45L3.11,413.25L6.22,413.25L9.33,407.13L12.44,410.19L27.99,407.19L31.11,405.97L34.22,405.82L37.33,404.66L43.55,402.86L46.66,401.62L55.99,398.95L59.1,397.35L68.43,393.63L71.54,392.49L74.65,390.85L77.76,390.61L80.87,387.61L83.98,386.31L87.1,386.47L90.21,382.89L93.32,379.97L96.43,379.86L108.87,370.7L111.98,371.1L115.09,368.95L118.2,364.01L124.42,360.4L127.53,357.88L130.64,357.02L133.75,353.47L139.97,346.61L143.09,346.9L146.2,343.59L149.31,336.98L155.53,333.15L158.64,329.99L161.75,327.37L164.86,321.08L167.97,321.01L171.08,313.85L174.19,312.67L177.3,308.2L180.41,300.83L183.52,299.16L186.63,296.26L189.74,294.79L195.96,284.88L199.08,277.83L202.19,275.84L205.3,270.44L208.41,266.81L211.52,260.62L214.63,255.66L217.74,247.25L220.85,247.89L223.96,237.22L230.18,232.07L233.29,222.76L236.4,217.88L239.51,208.29L242.62,207.55L245.73,197.67L248.84,194.9L251.95,185.19L261.29,166.25L264.4,157L270.62,140.3L273.73,132.74L276.84,127.88L279.95,119.77L283.06,104.17L286.17,99.23L295.5,68.38L298.61,62.48L301.72,53.81L304.83,41.47L311.06,21.75L314.17,35.6L320.39,75.49L323.5,108.88L332.83,206.06L335.94,233.1L342.16,279.37L345.27,295.04L348.38,308.26L351.49,312.17L354.6,308.55L357.71,303.63L360.82,303.21L363.93,307.84L367.05,308.96L370.16,311.38L373.27,318.54L376.38,327.75L379.49,332.5L382.6,341.92L385.71,349.79L388.82,351.76L391.93,354.97L395.04,357.04L398.15,353.62L401.26,346.02L404.37,343.99L407.48,346.39L410.59,342.43L413.7,344.79L416.81,350.49L419.92,352.98L429.26,362.68L432.37,367.93L435.48,370.15L438.59,368.65L441.7,366.24L444.81,366.79L447.92,364.94L451.03,364.07L457.25,363.79L460.36,367.77L466.58,370.85L469.69,374.33L472.8,374.95L475.91,377.77L479.03,380.73L482.14,380.44L485.25,380.98L488.36,380.29L491.47,381.07L494.58,378.24L497.69,380.39L500.8,380.39L503.91,382.5L507.02,381.68L510.13,384.13L513.24,384.3L516.35,386.28L519.46,387.17L528.79,389.85L531.9,389.87L535.02,390.28L538.13,389.52L541.24,392.45L544.35,391.42L556.79,391.33L559.9,392.7L563.01,394.41L566.12,394.82L572.34,394.92L575.45,396.46L578.56,397.43L581.67,397.16L587.89,397.83L591.01,397.27L609.67,398.49L612.78,400.14L615.89,399.97L619,401.02" style="vector-effect: non-scaling-stroke; fill: none; stroke: rgb(148, 103, 189); stroke-opacity: 1; stroke-width: 2px; opacity: 1;"/></g><g class="points"/><g class="text"/></g><g class="trace scatter trace961716" style="stroke-miterlimit: 2; opacity: 1;"><g class="fills"/><g class="errorbars"/><g class="lines"><path class="js-line" d="M0,409.3L3.11,413.25L6.22,413.25L9.33,407.13L12.44,410.19L27.99,407.19L31.11,405.97L34.22,405.82L37.33,404.66L43.55,402.86L46.66,401.62L55.99,398.95L59.1,397.35L68.43,393.63L71.54,392.49L74.65,390.85L77.76,390.61L80.87,387.61L83.98,386.31L87.1,386.47L90.21,382.89L93.32,379.97L96.43,379.86L108.87,370.7L111.98,371.1L115.09,368.95L118.2,364.01L124.42,360.4L127.53,357.88L130.64,357.02L133.75,353.47L139.97,346.61L143.09,346.9L146.2,343.59L149.31,336.98L155.53,333.15L158.64,329.99L161.75,327.37L164.86,321.08L167.97,321.01L171.08,313.85L174.19,312.67L177.3,308.2L180.41,300.83L183.52,299.16L186.63,296.26L189.74,294.79L195.96,284.88L199.08,277.83L202.19,275.84L205.3,270.44L208.41,266.81L211.52,260.62L214.63,255.66L217.74,247.25L220.85,247.89L223.96,237.22L230.18,232.07L233.29,222.76L236.4,217.88L239.51,208.29L242.62,207.55L245.73,197.67L248.84,194.9L251.95,185.19L261.29,166.25L264.4,157L270.62,140.3L273.73,132.74L276.84,127.88L279.95,119.77L283.06,104.17L286.17,99.23L295.5,68.38L298.61,62.48L301.72,53.81L304.83,41.47L311.06,23.42L314.17,26.9L317.28,39.3L320.39,60.54L323.5,81.36L326.61,112.91L335.94,207.47L339.05,231.92L345.27,274.11L348.38,290.35L351.49,299.88L354.6,300.34L357.71,292.11L360.82,287.71L363.93,284.67L367.05,279.6L373.27,286.38L376.38,296.27L379.49,301.5L382.6,311.76L388.82,326.38L391.93,331.49L398.15,335.6L401.26,331.59L404.37,326.88L407.48,323.95L410.59,319.54L413.7,318.63L416.81,317.09L419.92,318.88L423.04,323.44L426.15,326.27L432.37,335.98L435.48,338.41L438.59,343.97L441.7,346.21L444.81,348.51L447.92,343.92L451.03,344.01L454.14,339.05L457.25,340.48L460.36,340.33L463.47,338.12L466.58,338.83L472.8,343.1L475.91,348.17L479.03,345.57L482.14,351.42L485.25,352.24L488.36,354.71L491.47,355.56L494.58,354.61L500.8,355.73L503.91,354.42L507.02,356.02L510.13,355.2L513.24,356.81L516.35,359.7L519.46,359.93L522.57,361.07L528.79,364.43L531.9,363.03L535.02,365.1L538.13,365.74L541.24,365.63L544.35,368.06L550.57,367.93L553.68,368.65L556.79,366.58L559.9,368.15L566.12,371.97L569.23,369.69L572.34,371.93L575.45,370.89L578.56,375.54L581.67,375.43L584.78,373.59L587.89,375.2L591.01,377.46L594.12,376.55L597.23,376.87L600.34,375.98L603.45,375.75L606.56,378.6L612.78,380.35L615.89,380.2L619,379.3" style="vector-effect: non-scaling-stroke; fill: none; stroke: rgb(140, 86, 75); stroke-opacity: 1; stroke-width: 2px; opacity: 1;"/></g><g class="points"/><g class="text"/></g></g></g><g class="overplot"/><path class="xlines-above crisp" style="fill: none;" d="M0,0"/><path class="ylines-above crisp" style="fill: none;" d="M0,0"/><g class="overlines-above"/><g class="xaxislayer-above"><g class="xtick"><text text-anchor="middle" x="0" y="473" transform="translate(212.42,0)" style="font-family: 'Open Sans', verdana, arial, sans-serif; font-size: 12px; fill: rgb(68, 68, 68); fill-opacity: 1; white-space: pre;">50</text></g><g class="xtick"><text text-anchor="middle" x="0" y="473" transform="translate(367.94,0)" style="font-family: 'Open Sans', verdana, arial, sans-serif; font-size: 12px; fill: rgb(68, 68, 68); fill-opacity: 1; white-space: pre;">100</text></g><g class="xtick"><text text-anchor="middle" x="0" y="473" transform="translate(523.47,0)" style="font-family: 'Open Sans', verdana, arial, sans-serif; font-size: 12px; fill: rgb(68, 68, 68); fill-opacity: 1; white-space: pre;">150</text></g><g class="xtick"><text text-anchor="middle" x="0" y="473" transform="translate(679,0)" style="font-family: 'Open Sans', verdana, arial, sans-serif; font-size: 12px; fill: rgb(68, 68, 68); fill-opacity: 1; white-space: pre;">200</text></g></g><g class="yaxislayer-above"><g class="ytick"><text text-anchor="end" x="59" y="4.199999999999999" transform="translate(0,438.25)" style="font-family: 'Open Sans', verdana, arial, sans-serif; font-size: 12px; fill: rgb(68, 68, 68); fill-opacity: 1; white-space: pre;">0</text></g><g class="ytick"><text text-anchor="end" x="59" y="4.199999999999999" transform="translate(0,362.27)" style="font-family: 'Open Sans', verdana, arial, sans-serif; font-size: 12px; fill: rgb(68, 68, 68); fill-opacity: 1; white-space: pre;">20</text></g><g class="ytick"><text text-anchor="end" x="59" y="4.199999999999999" transform="translate(0,286.28)" style="font-family: 'Open Sans', verdana, arial, sans-serif; font-size: 12px; fill: rgb(68, 68, 68); fill-opacity: 1; white-space: pre;">40</text></g><g class="ytick"><text text-anchor="end" x="59" y="4.199999999999999" transform="translate(0,210.3)" style="font-family: 'Open Sans', verdana, arial, sans-serif; font-size: 12px; fill: rgb(68, 68, 68); fill-opacity: 1; white-space: pre;">60</text></g><g class="ytick"><text text-anchor="end" x="59" y="4.199999999999999" transform="translate(0,134.32)" style="font-family: 'Open Sans', verdana, arial, sans-serif; font-size: 12px; fill: rgb(68, 68, 68); fill-opacity: 1; white-space: pre;">80</text></g><g class="ytick"><text text-anchor="end" x="59" y="4.199999999999999" transform="translate(0,58.34)" style="font-family: 'Open Sans', verdana, arial, sans-serif; font-size: 12px; fill: rgb(68, 68, 68); fill-opacity: 1; white-space: pre;">100</text></g></g><g class="overaxes-above"/></g></g><g class="polarlayer"/><g class="ternarylayer"/><g class="geolayer"/><g class="funnelarealayer"/><g class="pielayer"/><g class="treemaplayer"/><g class="sunburstlayer"/><g class="glimages"/><defs id="topdefs-325301"><g class="clips"/><clipPath id="legend325301"><rect width="117" height="140" x="0" y="0"/></clipPath></defs><g class="layer-above"><g class="imagelayer"/><g class="shapelayer"/></g><g class="infolayer"><g class="legend" pointer-events="all" transform="translate(90.95, 46.750000000000014)"><rect class="bg" shape-rendering="crispEdges" style="stroke: rgb(68, 68, 68); stroke-opacity: 1; fill: rgb(226, 226, 226); fill-opacity: 1; stroke-width: 0px;" width="117" height="140" x="0" y="0"/><g class="scrollbox" transform="translate(0, 0)" clip-path="url('#legend325301')"><text class="legendtitletext user-select-none" text-anchor="start" x="2" y="15.600000000000001" style="font-family: 'Open Sans', verdana, arial, sans-serif; font-size: 12px; fill: rgb(68, 68, 68); fill-opacity: 1; white-space: pre;"><tspan style="font-weight:bold"> Identification Time </tspan></text><g class="groups"><g class="traces" transform="translate(0, 30.1)" style="opacity: 1;"><text class="legendtext user-select-none" text-anchor="start" x="40" y="4.680000000000001" style="font-family: 'Open Sans', verdana, arial, sans-serif; font-size: 12px; fill: rgb(68, 68, 68); fill-opacity: 1; white-space: pre;">0 Months</text><g class="layers" style="opacity: 1;"><g class="legendfill"/><g class="legendlines"><path class="js-line" d="M5,0h30" style="fill: none; stroke: rgb(31, 119, 180); stroke-opacity: 1; stroke-width: 2px;"/></g><g class="legendsymbols"><g class="legendpoints"/></g></g><rect class="legendtoggle" pointer-events="all" x="0" y="-9.5" width="98.046875" height="19" style="cursor: pointer; fill: rgb(0, 0, 0); fill-opacity: 0;"/></g><g class="traces" transform="translate(0, 49.1)" style="opacity: 1;"><text class="legendtext user-select-none" text-anchor="start" x="40" y="4.680000000000001" style="font-family: 'Open Sans', verdana, arial, sans-serif; font-size: 12px; fill: rgb(68, 68, 68); fill-opacity: 1; white-space: pre;">3 Months</text><g class="layers" style="opacity: 1;"><g class="legendfill"/><g class="legendlines"><path class="js-line" d="M5,0h30" style="fill: none; stroke: rgb(255, 127, 14); stroke-opacity: 1; stroke-width: 2px;"/></g><g class="legendsymbols"><g class="legendpoints"/></g></g><rect class="legendtoggle" pointer-events="all" x="0" y="-9.5" width="98.046875" height="19" style="cursor: pointer; fill: rgb(0, 0, 0); fill-opacity: 0;"/></g><g class="traces" transform="translate(0, 68.1)" style="opacity: 1;"><text class="legendtext user-select-none" text-anchor="start" x="40" y="4.680000000000001" style="font-family: 'Open Sans', verdana, arial, sans-serif; font-size: 12px; fill: rgb(68, 68, 68); fill-opacity: 1; white-space: pre;">6 Months</text><g class="layers" style="opacity: 1;"><g class="legendfill"/><g class="legendlines"><path class="js-line" d="M5,0h30" style="fill: none; stroke: rgb(44, 160, 44); stroke-opacity: 1; stroke-width: 2px;"/></g><g class="legendsymbols"><g class="legendpoints"/></g></g><rect class="legendtoggle" pointer-events="all" x="0" y="-9.5" width="98.046875" height="19" style="cursor: pointer; fill: rgb(0, 0, 0); fill-opacity: 0;"/></g><g class="traces" transform="translate(0, 87.1)" style="opacity: 1;"><text class="legendtext user-select-none" text-anchor="start" x="40" y="4.680000000000001" style="font-family: 'Open Sans', verdana, arial, sans-serif; font-size: 12px; fill: rgb(68, 68, 68); fill-opacity: 1; white-space: pre;">12 Months</text><g class="layers" style="opacity: 1;"><g class="legendfill"/><g class="legendlines"><path class="js-line" d="M5,0h30" style="fill: none; stroke: rgb(214, 39, 40); stroke-opacity: 1; stroke-width: 2px;"/></g><g class="legendsymbols"><g class="legendpoints"/></g></g><rect class="legendtoggle" pointer-events="all" x="0" y="-9.5" width="98.046875" height="19" style="cursor: pointer; fill: rgb(0, 0, 0); fill-opacity: 0;"/></g><g class="traces" transform="translate(0, 106.1)" style="opacity: 1;"><text class="legendtext user-select-none" text-anchor="start" x="40" y="4.680000000000001" style="font-family: 'Open Sans', verdana, arial, sans-serif; font-size: 12px; fill: rgb(68, 68, 68); fill-opacity: 1; white-space: pre;">24 Months</text><g class="layers" style="opacity: 1;"><g class="legendfill"/><g class="legendlines"><path class="js-line" d="M5,0h30" style="fill: none; stroke: rgb(148, 103, 189); stroke-opacity: 1; stroke-width: 2px;"/></g><g class="legendsymbols"><g class="legendpoints"/></g></g><rect class="legendtoggle" pointer-events="all" x="0" y="-9.5" width="98.046875" height="19" style="cursor: pointer; fill: rgb(0, 0, 0); fill-opacity: 0;"/></g><g class="traces" transform="translate(0, 125.1)" style="opacity: 1;"><text class="legendtext user-select-none" text-anchor="start" x="40" y="4.680000000000001" style="font-family: 'Open Sans', verdana, arial, sans-serif; font-size: 12px; fill: rgb(68, 68, 68); fill-opacity: 1; white-space: pre;">36 Months</text><g class="layers" style="opacity: 1;"><g class="legendfill"/><g class="legendlines"><path class="js-line" d="M5,0h30" style="fill: none; stroke: rgb(140, 86, 75); stroke-opacity: 1; stroke-width: 2px;"/></g><g class="legendsymbols"><g class="legendpoints"/></g></g><rect class="legendtoggle" pointer-events="all" x="0" y="-9.5" width="98.046875" height="19" style="cursor: pointer; fill: rgb(0, 0, 0); fill-opacity: 0;"/></g></g></g><rect class="scrollbar" rx="20" ry="3" width="0" height="0" style="fill: rgb(128, 139, 164); fill-opacity: 1;" x="0" y="0"/></g><g class="g-gtitle"><text class="gtitle" x="350" y="12.5" text-anchor="middle" dy="0em" style="font-family: 'Open Sans', verdana, arial, sans-serif; font-size: 17px; fill: rgb(68, 68, 68); opacity: 1; font-weight: normal; white-space: pre;"><tspan style="font-weight:bold"> Leprosy Incidence MB - Immunity Vaccine 0.0, Treatment 95% </tspan></text></g><g class="g-xtitle" transform="translate(0,-15)"><text class="xtitle" x="369.5" y="512" text-anchor="middle" style="font-family: 'Open Sans', verdana, arial, sans-serif; font-size: 14px; fill: rgb(68, 68, 68); opacity: 1; font-weight: normal; white-space: pre;">Time(Years)</text></g><g class="g-ytitle"><text class="ytitle" transform="rotate(-90,22,242.5)" x="22" y="242.5" text-anchor="middle" style="font-family: 'Open Sans', verdana, arial, sans-serif; font-size: 14px; fill: rgb(68, 68, 68); opacity: 1; font-weight: normal; white-space: pre;">Number of new infectiuos individuals</text></g></g></svg>