<svg class="main-svg" xmlns="http://www.w3.org/2000/svg" xmlns:xlink="http://www.w3.org/1999/xlink" width="700" height="500" style="" viewBox="0 0 700 500"><rect x="0" y="0" width="700" height="500" style="fill: rgb(255, 255, 255); fill-opacity: 1;"/><defs id="defs-9fb0bc"><g class="clips"><clipPath id="clip9fb0bcxyplot" class="plotclip"><rect width="619" height="435"/></clipPath><clipPath class="axesclip" id="clip9fb0bcx"><rect x="60" y="0" width="619" height="500"/></clipPath><clipPath class="axesclip" id="clip9fb0bcy"><rect x="0" y="25" width="700" height="435"/></clipPath><clipPath class="axesclip" id="clip9fb0bcxy"><rect x="60" y="25" width="619" height="435"/></clipPath></g><g class="gradients"/></defs><g class="bglayer"/><g class="layer-below"><g class="imagelayer"/><g class="shapelayer"/></g><g class="cartesianlayer"><g class="subplot xy"><g class="layer-subplot"><g class="shapelayer"/><g class="imagelayer"/></g><g class="gridlayer"><g class="x"><path class="xgrid crisp" transform="translate(212.42,0)" d="M0,25v435" style="stroke: rgb(238, 238, 238); stroke-opacity: 1; stroke-width: 1px;"/><path class="xgrid crisp" transform="translate(367.94,0)" d="M0,25v435" style="stroke: rgb(238, 238, 238); stroke-opacity: 1; stroke-width: 1px;"/><path class="xgrid crisp" transform="translate(523.47,0)" d="M0,25v435" style="stroke: rgb(238, 238, 238); stroke-opacity: 1; stroke-width: 1px;"/></g><g class="y"><path class="ygrid crisp" transform="translate(0,373.61)" d="M60,0h619" style="stroke: rgb(238, 238, 238); stroke-opacity: 1; stroke-width: 1px;"/><path class="ygrid crisp" transform="translate(0,308.96)" d="M60,0h619" style="stroke: rgb(238, 238, 238); stroke-opacity: 1; stroke-width: 1px;"/><path class="ygrid crisp" transform="translate(0,244.32)" d="M60,0h619" style="stroke: rgb(238, 238, 238); stroke-opacity: 1; stroke-width: 1px;"/><path class="ygrid crisp" transform="translate(0,179.67)" d="M60,0h619" style="stroke: rgb(238, 238, 238); stroke-opacity: 1; stroke-width: 1px;"/><path class="ygrid crisp" transform="translate(0,115.03)" d="M60,0h619" style="stroke: rgb(238, 238, 238); stroke-opacity: 1; stroke-width: 1px;"/><path class="ygrid crisp" transform="translate(0,50.379999999999995)" d="M60,0h619" style="stroke: rgb(238, 238, 238); stroke-opacity: 1; stroke-width: 1px;"/></g></g><g class="zerolinelayer"><path class="yzl zl crisp" transform="translate(0,438.25)" d="M60,0h619" style="stroke: rgb(68, 68, 68); stroke-opacity: 1; stroke-width: 1px;"/></g><path class="xlines-below"/><path class="ylines-below"/><g class="overlines-below"/><g class="xaxislayer-below"/><g class="yaxislayer-below"/><g class="overaxes-below"/><g class="plot" transform="translate(60, 25)" clip-path="url('#clip9fb0bcxyplot')"><g class="scatterlayer mlayer"><g class="trace scatter trace7f578b" style="stroke-miterlimit: 2; opacity: 1;"><g class="fills"/><g class="errorbars"/><g class="lines"><path class="js-line" d="M0,411.3L3.11,413.25L6.22,413.25L9.33,411.17L12.44,412.21L43.55,409.71L46.66,409.29L62.21,407.35L65.32,406.84L77.76,405.54L80.87,404.52L87.1,404.14L90.21,402.92L93.32,401.92L96.43,401.89L108.87,398.77L111.98,398.91L115.09,398.17L118.2,396.49L130.64,394.12L133.75,392.91L139.97,390.57L143.09,390.67L146.2,389.54L149.31,387.3L161.75,384.02L164.86,381.88L167.97,381.86L171.08,379.42L174.19,379.02L177.3,377.5L180.41,374.99L183.52,374.42L192.85,371.27L195.96,369.56L199.08,367.16L202.19,366.49L214.63,359.62L217.74,356.76L220.85,356.98L223.96,353.34L230.18,351.59L233.29,348.42L236.4,346.76L239.51,343.5L242.62,343.25L245.73,339.88L248.84,338.94L251.95,335.64L261.29,329.19L264.4,326.04L273.73,317.79L276.84,316.13L279.95,313.37L283.06,308.07L286.17,306.39L289.28,302.64L298.61,293.88L301.72,290.93L307.94,283.47L311.06,281.51L314.17,283.62L317.28,281.38L320.39,284.05L323.5,289.34L332.83,294.3L335.94,295.84L342.16,300.33L345.27,299.4L348.38,300.43L351.49,300.45L354.6,299.06L357.71,298.9L360.82,297.03L363.93,296.44L367.05,296.06L370.16,294.43L373.27,294.45L376.38,291.38L379.49,290.6L382.6,289L385.71,289.54L388.82,288.43L395.04,285.34L398.15,286.33L404.37,283.18L407.48,280.39L413.7,279.38L416.81,277.01L419.92,275.49L423.04,275.86L426.15,275.56L429.26,273.81L438.59,268.85L441.7,268.7L447.92,263.88L451.03,264.54L454.14,259.86L457.25,259.18L460.36,258.3L463.47,258.39L466.58,253.11L469.69,253.42L475.91,250.47L479.03,251.03L482.14,249.67L485.25,246.73L488.36,242.47L491.47,243.02L494.58,241.92L497.69,239.89L500.8,238.79L503.91,234.79L507.02,234.25L510.13,235.57L519.46,225.89L522.57,227.18L525.68,226.82L528.79,224.24L531.9,219.92L535.02,218.87L538.13,217.19L541.24,216.83L544.35,211.84L547.46,210.41L550.57,211L553.68,206.56L559.9,204.84L563.01,202.11L569.23,195.14L572.34,196.88L575.45,192.58L578.56,190.4L581.67,188.98L584.78,186.01L587.89,184.49L591.01,180.42L594.12,181.32L597.23,178.06L600.34,175.47L603.45,175.07L609.67,165.67L612.78,166.85L619,161.83" style="vector-effect: non-scaling-stroke; fill: none; stroke: rgb(31, 119, 180); stroke-opacity: 1; stroke-width: 2px; opacity: 1;"/></g><g class="points"/><g class="text"/></g><g class="trace scatter trace569153" style="stroke-miterlimit: 2; opacity: 1;"><g class="fills"/><g class="errorbars"/><g class="lines"><path class="js-line" d="M0,411.17L3.11,413.25L6.22,413.25L9.33,411.17L12.44,412.21L43.55,409.71L46.66,409.29L62.21,407.35L65.32,406.84L77.76,405.54L80.87,404.52L87.1,404.14L90.21,402.92L93.32,401.92L96.43,401.89L108.87,398.77L111.98,398.91L115.09,398.17L118.2,396.49L130.64,394.12L133.75,392.91L139.97,390.57L143.09,390.67L146.2,389.54L149.31,387.3L161.75,384.02L164.86,381.88L167.97,381.86L171.08,379.42L174.19,379.02L177.3,377.5L180.41,374.99L183.52,374.42L192.85,371.27L195.96,369.56L199.08,367.16L202.19,366.49L214.63,359.62L217.74,356.76L220.85,356.98L223.96,353.34L230.18,351.59L233.29,348.42L236.4,346.76L239.51,343.5L242.62,343.25L245.73,339.88L248.84,338.94L251.95,335.64L261.29,329.19L264.4,326.04L273.73,317.79L276.84,316.13L279.95,313.37L283.06,308.07L286.17,306.39L289.28,302.64L298.61,293.88L301.72,290.93L307.94,283.47L311.06,280.34L317.28,280.22L320.39,282.47L323.5,287.74L326.61,290.06L329.72,291.11L332.83,293.73L335.94,294.36L339.05,296.24L342.16,298.3L345.27,297.68L348.38,298.89L351.49,298.84L354.6,296.9L357.71,297.72L360.82,294.61L363.93,295.94L370.16,291.54L373.27,291.98L376.38,291.98L379.49,288.73L382.6,289.22L385.71,288.31L395.04,284.41L398.15,283.62L401.26,281.25L404.37,282.53L410.59,277.54L413.7,278.3L416.81,277.16L419.92,274.08L423.04,273.59L426.15,272.09L432.37,268.15L435.48,267.83L444.81,263.64L447.92,260.62L451.03,258.61L454.14,259.02L457.25,254.02L460.36,255.9L463.47,254.45L466.58,250.72L469.69,249.29L472.8,249.23L475.91,246.22L479.03,245.74L482.14,241.98L485.25,241.19L488.36,240.29L491.47,238.52L494.58,237.3L497.69,234.28L503.91,230.99L507.02,229.65L516.35,222.28L519.46,221.42L525.68,217.17L528.79,215.9L535.02,208.98L538.13,210.12L541.24,205.88L544.35,206.87L547.46,200.93L550.57,198.99L553.68,197.73L556.79,194.61L559.9,195.11L563.01,192.94L566.12,192.54L569.23,187.93L572.34,185.25L575.45,183.87L578.56,180.7L581.67,179.46L584.78,177.3L587.89,173.03L591.01,171.66L594.12,168.97L597.23,166.42L600.34,162.69L612.78,154.78L615.89,150.9L619,149.89" style="vector-effect: non-scaling-stroke; fill: none; stroke: rgb(255, 127, 14); stroke-opacity: 1; stroke-width: 2px; opacity: 1;"/></g><g class="points"/><g class="text"/></g><g class="trace scatter traceabe3bc" style="stroke-miterlimit: 2; opacity: 1;"><g class="fills"/><g class="errorbars"/><g class="lines"><path class="js-line" d="M0,411.1L3.11,413.25L6.22,413.25L9.33,411.17L12.44,412.21L43.55,409.71L46.66,409.29L62.21,407.35L65.32,406.84L77.76,405.54L80.87,404.52L87.1,404.14L90.21,402.92L93.32,401.92L96.43,401.89L108.87,398.77L111.98,398.91L115.09,398.17L118.2,396.49L130.64,394.12L133.75,392.91L139.97,390.57L143.09,390.67L146.2,389.54L149.31,387.3L161.75,384.02L164.86,381.88L167.97,381.86L171.08,379.42L174.19,379.02L177.3,377.5L180.41,374.99L183.52,374.42L192.85,371.27L195.96,369.56L199.08,367.16L202.19,366.49L214.63,359.62L217.74,356.76L220.85,356.98L223.96,353.34L230.18,351.59L233.29,348.42L236.4,346.76L239.51,343.5L242.62,343.25L245.73,339.88L248.84,338.94L251.95,335.64L261.29,329.19L264.4,326.04L273.73,317.79L276.84,316.13L279.95,313.37L283.06,308.07L286.17,306.39L289.28,302.64L298.61,293.88L301.72,290.93L307.94,283.47L311.06,281.37L314.17,281.49L317.28,280.48L320.39,281.29L323.5,286.07L326.61,288.69L329.72,289.42L332.83,290.49L335.94,293.15L339.05,294.58L342.16,294.48L345.27,297.36L348.38,297.14L351.49,298.22L354.6,296.01L357.71,295.82L360.82,292L363.93,294.34L367.05,292.16L370.16,291.67L373.27,288.53L376.38,286.88L379.49,288.09L382.6,287.61L385.71,283.73L388.82,283.79L391.93,282.71L398.15,281.39L401.26,277.32L404.37,277.24L407.48,274.37L413.7,273.83L416.81,272.18L419.92,269.11L423.04,269.55L426.15,268.17L429.26,265.8L432.37,265.12L435.48,261.18L438.59,261.75L441.7,259.09L444.81,258.94L447.92,255.87L451.03,255.17L454.14,251.98L457.25,252.09L460.36,248.08L463.47,247.83L466.58,246.66L469.69,246.45L472.8,245.26L479.03,238.96L482.14,237.18L485.25,237.34L488.36,234.17L491.47,232.83L494.58,228.99L497.69,228L500.8,225.07L507.02,222.27L510.13,218.45L513.24,217.18L516.35,219.4L519.46,214.44L522.57,211.5L528.79,208.92L531.9,206.47L535.02,201.86L538.13,202.63L541.24,201.24L544.35,197.29L547.46,196.29L550.57,190.09L553.68,189.09L556.79,188.88L559.9,188.48L563.01,184.28L566.12,180.76L569.23,179.82L572.34,178.85L575.45,174.03L578.56,170.94L581.67,169.02L584.78,167.94L587.89,163.64L591.01,158.78L594.12,157.9L597.23,157.67L600.34,155.11L603.45,149.78L606.56,148.63L612.78,140.7L615.89,140.59L619,138.03" style="vector-effect: non-scaling-stroke; fill: none; stroke: rgb(44, 160, 44); stroke-opacity: 1; stroke-width: 2px; opacity: 1;"/></g><g class="points"/><g class="text"/></g><g class="trace scatter traceef6830" style="stroke-miterlimit: 2; opacity: 1;"><g class="fills"/><g class="errorbars"/><g class="lines"><path class="js-line" d="M0,410.92L3.11,413.25L6.22,413.25L9.33,411.17L12.44,412.21L43.55,409.71L46.66,409.29L62.21,407.35L65.32,406.84L77.76,405.54L80.87,404.52L87.1,404.14L90.21,402.92L93.32,401.92L96.43,401.89L108.87,398.77L111.98,398.91L115.09,398.17L118.2,396.49L130.64,394.12L133.75,392.91L139.97,390.57L143.09,390.67L146.2,389.54L149.31,387.3L161.75,384.02L164.86,381.88L167.97,381.86L171.08,379.42L174.19,379.02L177.3,377.5L180.41,374.99L183.52,374.42L192.85,371.27L195.96,369.56L199.08,367.16L202.19,366.49L214.63,359.62L217.74,356.76L220.85,356.98L223.96,353.34L230.18,351.59L233.29,348.42L236.4,346.76L239.51,343.5L242.62,343.25L245.73,339.88L248.84,338.94L251.95,335.64L261.29,329.19L264.4,326.04L273.73,317.79L276.84,316.13L279.95,313.37L283.06,308.07L286.17,306.39L289.28,302.64L298.61,293.88L301.72,290.93L307.94,283.47L311.06,280.07L314.17,280.81L317.28,279.56L320.39,280.32L323.5,284.04L326.61,286.23L329.72,286.59L335.94,290.48L339.05,290.56L342.16,293.26L345.27,293.81L348.38,294.52L351.49,294.32L354.6,292.66L357.71,292.24L360.82,291.11L363.93,289.07L370.16,285.27L373.27,287.31L376.38,283.8L379.49,282.07L385.71,280.87L388.82,279.17L395.04,276.11L398.15,275.47L401.26,273.23L404.37,272.01L407.48,270.94L410.59,267.8L413.7,267.11L416.81,265.51L423.04,261.6L426.15,260.45L429.26,257.48L432.37,258.49L435.48,254.3L438.59,254.67L441.7,251.35L444.81,249.43L447.92,246.71L451.03,247.52L457.25,242.58L460.36,243.83L466.58,236.44L469.69,232.39L475.91,232.96L479.03,229.98L482.14,227.82L485.25,224.31L488.36,221.5L491.47,220.65L494.58,219.52L497.69,217.27L500.8,214.64L503.91,209.36L507.02,209.65L510.13,207.6L513.24,207.06L516.35,202.18L519.46,202.7L522.57,198.82L525.68,197.52L528.79,193.94L531.9,191.84L535.02,188.47L538.13,186.35L541.24,183.21L547.46,176.9L550.57,175.87L559.9,167.06L563.01,166.47L566.12,164.4L569.23,160.95L572.34,157.84L575.45,152.5L578.56,151.63L581.67,149.65L584.78,146.86L587.89,142.25L591.01,140.56L594.12,137.15L597.23,134.48L600.34,132.98L606.56,128.07L609.67,122.44L612.78,121.01L615.89,116.95L619,116.18" style="vector-effect: non-scaling-stroke; fill: none; stroke: rgb(214, 39, 40); stroke-opacity: 1; stroke-width: 2px; opacity: 1;"/></g><g class="points"/><g class="text"/></g><g class="trace scatter tracef7e0fc" style="stroke-miterlimit: 2; opacity: 1;"><g class="fills"/><g class="errorbars"/><g class="lines"><path class="js-line" d="M0,411.01L3.11,413.25L6.22,413.25L9.33,411.17L12.44,412.21L43.55,409.71L46.66,409.29L62.21,407.35L65.32,406.84L77.76,405.54L80.87,404.52L87.1,404.14L90.21,402.92L93.32,401.92L96.43,401.89L108.87,398.77L111.98,398.91L115.09,398.17L118.2,396.49L130.64,394.12L133.75,392.91L139.97,390.57L143.09,390.67L146.2,389.54L149.31,387.3L161.75,384.02L164.86,381.88L167.97,381.86L171.08,379.42L174.19,379.02L177.3,377.5L180.41,374.99L183.52,374.42L192.85,371.27L195.96,369.56L199.08,367.16L202.19,366.49L214.63,359.62L217.74,356.76L220.85,356.98L223.96,353.34L230.18,351.59L233.29,348.42L236.4,346.76L239.51,343.5L242.62,343.25L245.73,339.88L248.84,338.94L251.95,335.64L261.29,329.19L264.4,326.04L273.73,317.79L276.84,316.13L279.95,313.37L283.06,308.07L286.17,306.39L289.28,302.64L298.61,293.88L301.72,290.93L311.06,279.24L314.17,278.14L317.28,276.88L320.39,276.86L323.5,281.65L326.61,282.01L329.72,283.81L332.83,283.68L335.94,285.6L339.05,283.68L342.16,286.11L345.27,286.79L348.38,287.89L351.49,285.03L354.6,286.2L357.71,284.85L360.82,284.54L363.93,282.28L370.16,278.29L373.27,276.69L379.49,272.15L382.6,272.96L385.71,269.04L388.82,270.87L391.93,266.65L395.04,265.25L398.15,261.78L401.26,261.83L404.37,258.54L407.48,259.11L410.59,256.58L413.7,252.29L416.81,252.61L419.92,250.42L429.26,243.93L432.37,243.35L435.48,239.07L438.59,237.5L441.7,235.71L444.81,232.61L447.92,232.69L451.03,230.56L454.14,229.19L457.25,223.57L460.36,220.32L463.47,220.12L466.58,217.59L469.69,216.34L472.8,211.51L475.91,210.5L479.03,209.88L482.14,207.89L485.25,204.2L488.36,199.19L491.47,200.2L494.58,196.92L497.69,193.01L500.8,192.29L503.91,187.48L507.02,186.49L513.24,180.37L516.35,176.11L519.46,171.57L522.57,172.09L525.68,170.06L528.79,166.13L538.13,156.32L541.24,153.58L547.46,147.56L550.57,145.75L563.01,130.24L566.12,128.37L572.34,121.1L575.45,117.82L578.56,117.01L581.67,113.63L584.78,105.69L587.89,105.81L591.01,104.96L594.12,97.37L597.23,96.5L600.34,89.36L603.45,85.88L606.56,80.58L609.67,79.59L612.78,76.08L615.89,71.35L619,68.88" style="vector-effect: non-scaling-stroke; fill: none; stroke: rgb(148, 103, 189); stroke-opacity: 1; stroke-width: 2px; opacity: 1;"/></g><g class="points"/><g class="text"/></g><g class="trace scatter trace656fb0" style="stroke-miterlimit: 2; opacity: 1;"><g class="fills"/><g class="errorbars"/><g class="lines"><path class="js-line" d="M0,410.74L3.11,413.25L6.22,413.25L9.33,411.17L12.44,412.21L43.55,409.71L46.66,409.29L62.21,407.35L65.32,406.84L77.76,405.54L80.87,404.52L87.1,404.14L90.21,402.92L93.32,401.92L96.43,401.89L108.87,398.77L111.98,398.91L115.09,398.17L118.2,396.49L130.64,394.12L133.75,392.91L139.97,390.57L143.09,390.67L146.2,389.54L149.31,387.3L161.75,384.02L164.86,381.88L167.97,381.86L171.08,379.42L174.19,379.02L177.3,377.5L180.41,374.99L183.52,374.42L192.85,371.27L195.96,369.56L199.08,367.16L202.19,366.49L214.63,359.62L217.74,356.76L220.85,356.98L223.96,353.34L230.18,351.59L233.29,348.42L236.4,346.76L239.51,343.5L242.62,343.25L245.73,339.88L248.84,338.94L251.95,335.64L261.29,329.19L264.4,326.04L273.73,317.79L276.84,316.13L279.95,313.37L283.06,308.07L286.17,306.39L289.28,302.64L298.61,293.88L301.72,290.93L307.94,283.47L311.06,280.22L320.39,273.7L323.5,277.61L326.61,280.55L329.72,281.25L332.83,281.82L335.94,278.49L342.16,281.79L345.27,282.92L348.38,283.41L351.49,282.77L354.6,283.17L357.71,280.78L360.82,279.05L363.93,276.24L367.05,275.43L370.16,272.47L376.38,270.2L379.49,267.61L382.6,266.02L385.71,262.69L388.82,261.98L391.93,258.79L395.04,256.23L398.15,255.63L401.26,254.63L404.37,251.26L410.59,248.03L413.7,245.28L416.81,244.06L419.92,239.59L423.04,235.16L426.15,234L429.26,232.02L432.37,229.1L435.48,228.37L438.59,225.59L444.81,219.37L447.92,220.35L451.03,216.01L454.14,213.74L457.25,207.88L460.36,209.48L463.47,205.22L466.58,202.3L472.8,197.51L475.91,192.83L479.03,190.18L482.14,190.72L485.25,183.97L488.36,181.63L491.47,176.96L494.58,177.53L500.8,170.87L503.91,163.78L507.02,163.19L510.13,160.28L513.24,158.98L516.35,154.68L522.57,145.36L525.68,143.88L531.9,136.21L535.02,134.99L538.13,128.22L541.24,125.56L547.46,119.17L550.57,114.66L553.68,111.13L556.79,109.5L559.9,103.76L563.01,100.07L566.12,95.52L569.23,93.63L572.34,88.11L575.45,80.42L581.67,75.08L584.78,68.41L587.89,68.2L591.01,60.47L594.12,55.73L597.23,52.77L603.45,46.29L606.56,39.75L615.89,26.04L619,21.75" style="vector-effect: non-scaling-stroke; fill: none; stroke: rgb(140, 86, 75); stroke-opacity: 1; stroke-width: 2px; opacity: 1;"/></g><g class="points"/><g class="text"/></g></g></g><g class="overplot"/><path class="xlines-above crisp" style="fill: none;" d="M0,0"/><path class="ylines-above crisp" style="fill: none;" d="M0,0"/><g class="overlines-above"/><g class="xaxislayer-above"><g class="xtick"><text text-anchor="middle" x="0" y="473" transform="translate(212.42,0)" style="font-family: 'Open Sans', verdana, arial, sans-serif; font-size: 12px; fill: rgb(68, 68, 68); fill-opacity: 1; white-space: pre;">50</text></g><g class="xtick"><text text-anchor="middle" x="0" y="473" transform="translate(367.94,0)" style="font-family: 'Open Sans', verdana, arial, sans-serif; font-size: 12px; fill: rgb(68, 68, 68); fill-opacity: 1; white-space: pre;">100</text></g><g class="xtick"><text text-anchor="middle" x="0" y="473" transform="translate(523.47,0)" style="font-family: 'Open Sans', verdana, arial, sans-serif; font-size: 12px; fill: rgb(68, 68, 68); fill-opacity: 1; white-space: pre;">150</text></g><g class="xtick"><text text-anchor="middle" x="0" y="473" transform="translate(679,0)" style="font-family: 'Open Sans', verdana, arial, sans-serif; font-size: 12px; fill: rgb(68, 68, 68); fill-opacity: 1; white-space: pre;">200</text></g></g><g class="yaxislayer-above"><g class="ytick"><text text-anchor="end" x="59" y="4.199999999999999" transform="translate(0,438.25)" style="font-family: 'Open Sans', verdana, arial, sans-serif; font-size: 12px; fill: rgb(68, 68, 68); fill-opacity: 1; white-space: pre;">0</text></g><g class="ytick"><text text-anchor="end" x="59" y="4.199999999999999" transform="translate(0,373.61)" style="font-family: 'Open Sans', verdana, arial, sans-serif; font-size: 12px; fill: rgb(68, 68, 68); fill-opacity: 1; white-space: pre;">50</text></g><g class="ytick"><text text-anchor="end" x="59" y="4.199999999999999" transform="translate(0,308.96)" style="font-family: 'Open Sans', verdana, arial, sans-serif; font-size: 12px; fill: rgb(68, 68, 68); fill-opacity: 1; white-space: pre;">100</text></g><g class="ytick"><text text-anchor="end" x="59" y="4.199999999999999" transform="translate(0,244.32)" style="font-family: 'Open Sans', verdana, arial, sans-serif; font-size: 12px; fill: rgb(68, 68, 68); fill-opacity: 1; white-space: pre;">150</text></g><g class="ytick"><text text-anchor="end" x="59" y="4.199999999999999" transform="translate(0,179.67)" style="font-family: 'Open Sans', verdana, arial, sans-serif; font-size: 12px; fill: rgb(68, 68, 68); fill-opacity: 1; white-space: pre;">200</text></g><g class="ytick"><text text-anchor="end" x="59" y="4.199999999999999" transform="translate(0,115.03)" style="font-family: 'Open Sans', verdana, arial, sans-serif; font-size: 12px; fill: rgb(68, 68, 68); fill-opacity: 1; white-space: pre;">250</text></g><g class="ytick"><text text-anchor="end" x="59" y="4.199999999999999" transform="translate(0,50.379999999999995)" style="font-family: 'Open Sans', verdana, arial, sans-serif; font-size: 12px; fill: rgb(68, 68, 68); fill-opacity: 1; white-space: pre;">300</text></g></g><g class="overaxes-above"/></g></g><g class="polarlayer"/><g class="ternarylayer"/><g class="geolayer"/><g class="funnelarealayer"/><g class="pielayer"/><g class="treemaplayer"/><g class="sunburstlayer"/><g class="glimages"/><defs id="topdefs-9fb0bc"><g class="clips"/><clipPath id="legend9fb0bc"><rect width="117" height="140" x="0" y="0"/></clipPath></defs><g class="layer-above"><g class="imagelayer"/><g class="shapelayer"/></g><g class="infolayer"><g class="legend" pointer-events="all" transform="translate(90.95, 46.750000000000014)"><rect class="bg" shape-rendering="crispEdges" style="stroke: rgb(68, 68, 68); stroke-opacity: 1; fill: rgb(226, 226, 226); fill-opacity: 1; stroke-width: 0px;" width="117" height="140" x="0" y="0"/><g class="scrollbox" transform="translate(0, 0)" clip-path="url('#legend9fb0bc')"><text class="legendtitletext user-select-none" text-anchor="start" x="2" y="15.600000000000001" style="font-family: 'Open Sans', verdana, arial, sans-serif; font-size: 12px; fill: rgb(68, 68, 68); fill-opacity: 1; white-space: pre;"><tspan style="font-weight:bold"> Identification Time </tspan></text><g class="groups"><g class="traces" transform="translate(0, 30.1)" style="opacity: 1;"><text class="legendtext user-select-none" text-anchor="start" x="40" y="4.680000000000001" style="font-family: 'Open Sans', verdana, arial, sans-serif; font-size: 12px; fill: rgb(68, 68, 68); fill-opacity: 1; white-space: pre;">0 Months</text><g class="layers" style="opacity: 1;"><g class="legendfill"/><g class="legendlines"><path class="js-line" d="M5,0h30" style="fill: none; stroke: rgb(31, 119, 180); stroke-opacity: 1; stroke-width: 2px;"/></g><g class="legendsymbols"><g class="legendpoints"/></g></g><rect class="legendtoggle" pointer-events="all" x="0" y="-9.5" width="98.046875" height="19" style="cursor: pointer; fill: rgb(0, 0, 0); fill-opacity: 0;"/></g><g class="traces" transform="translate(0, 49.1)" style="opacity: 1;"><text class="legendtext user-select-none" text-anchor="start" x="40" y="4.680000000000001" style="font-family: 'Open Sans', verdana, arial, sans-serif; font-size: 12px; fill: rgb(68, 68, 68); fill-opacity: 1; white-space: pre;">3 Months</text><g class="layers" style="opacity: 1;"><g class="legendfill"/><g class="legendlines"><path class="js-line" d="M5,0h30" style="fill: none; stroke: rgb(255, 127, 14); stroke-opacity: 1; stroke-width: 2px;"/></g><g class="legendsymbols"><g class="legendpoints"/></g></g><rect class="legendtoggle" pointer-events="all" x="0" y="-9.5" width="98.046875" height="19" style="cursor: pointer; fill: rgb(0, 0, 0); fill-opacity: 0;"/></g><g class="traces" transform="translate(0, 68.1)" style="opacity: 1;"><text class="legendtext user-select-none" text-anchor="start" x="40" y="4.680000000000001" style="font-family: 'Open Sans', verdana, arial, sans-serif; font-size: 12px; fill: rgb(68, 68, 68); fill-opacity: 1; white-space: pre;">6 Months</text><g class="layers" style="opacity: 1;"><g class="legendfill"/><g class="legendlines"><path class="js-line" d="M5,0h30" style="fill: none; stroke: rgb(44, 160, 44); stroke-opacity: 1; stroke-width: 2px;"/></g><g class="legendsymbols"><g class="legendpoints"/></g></g><rect class="legendtoggle" pointer-events="all" x="0" y="-9.5" width="98.046875" height="19" style="cursor: pointer; fill: rgb(0, 0, 0); fill-opacity: 0;"/></g><g class="traces" transform="translate(0, 87.1)" style="opacity: 1;"><text class="legendtext user-select-none" text-anchor="start" x="40" y="4.680000000000001" style="font-family: 'Open Sans', verdana, arial, sans-serif; font-size: 12px; fill: rgb(68, 68, 68); fill-opacity: 1; white-space: pre;">12 Months</text><g class="layers" style="opacity: 1;"><g class="legendfill"/><g class="legendlines"><path class="js-line" d="M5,0h30" style="fill: none; stroke: rgb(214, 39, 40); stroke-opacity: 1; stroke-width: 2px;"/></g><g class="legendsymbols"><g class="legendpoints"/></g></g><rect class="legendtoggle" pointer-events="all" x="0" y="-9.5" width="98.046875" height="19" style="cursor: pointer; fill: rgb(0, 0, 0); fill-opacity: 0;"/></g><g class="traces" transform="translate(0, 106.1)" style="opacity: 1;"><text class="legendtext user-select-none" text-anchor="start" x="40" y="4.680000000000001" style="font-family: 'Open Sans', verdana, arial, sans-serif; font-size: 12px; fill: rgb(68, 68, 68); fill-opacity: 1; white-space: pre;">24 Months</text><g class="layers" style="opacity: 1;"><g class="legendfill"/><g class="legendlines"><path class="js-line" d="M5,0h30" style="fill: none; stroke: rgb(148, 103, 189); stroke-opacity: 1; stroke-width: 2px;"/></g><g class="legendsymbols"><g class="legendpoints"/></g></g><rect class="legendtoggle" pointer-events="all" x="0" y="-9.5" width="98.046875" height="19" style="cursor: pointer; fill: rgb(0, 0, 0); fill-opacity: 0;"/></g><g class="traces" transform="translate(0, 125.1)" style="opacity: 1;"><text class="legendtext user-select-none" text-anchor="start" x="40" y="4.680000000000001" style="font-family: 'Open Sans', verdana, arial, sans-serif; font-size: 12px; fill: rgb(68, 68, 68); fill-opacity: 1; white-space: pre;">36 Months</text><g class="layers" style="opacity: 1;"><g class="legendfill"/><g class="legendlines"><path class="js-line" d="M5,0h30" style="fill: none; stroke: rgb(140, 86, 75); stroke-opacity: 1; stroke-width: 2px;"/></g><g class="legendsymbols"><g class="legendpoints"/></g></g><rect class="legendtoggle" pointer-events="all" x="0" y="-9.5" width="98.046875" height="19" style="cursor: pointer; fill: rgb(0, 0, 0); fill-opacity: 0;"/></g></g></g><rect class="scrollbar" rx="20" ry="3" width="0" height="0" style="fill: rgb(128, 139, 164); fill-opacity: 1;" x="0" y="0"/></g><g class="g-gtitle"><text class="gtitle" x="350" y="12.5" text-anchor="middle" dy="0em" style="font-family: 'Open Sans', verdana, arial, sans-serif; font-size: 17px; fill: rgb(68, 68, 68); opacity: 1; font-weight: normal; white-space: pre;"><tspan style="font-weight:bold"> Leprosy Incidence MB - Immunity Vaccine 0.5, Treatment 25% </tspan></text></g><g class="g-xtitle" transform="translate(0,-15)"><text class="xtitle" x="369.5" y="512" text-anchor="middle" style="font-family: 'Open Sans', verdana, arial, sans-serif; font-size: 14px; fill: rgb(68, 68, 68); opacity: 1; font-weight: normal; white-space: pre;">Time(Years)</text></g><g class="g-ytitle"><text class="ytitle" transform="rotate(-90,22,242.5)" x="22" y="242.5" text-anchor="middle" style="font-family: 'Open Sans', verdana, arial, sans-serif; font-size: 14px; fill: rgb(68, 68, 68); opacity: 1; font-weight: normal; white-space: pre;">Number of new infectiuos individuals</text></g></g></svg>