<svg class="main-svg" xmlns="http://www.w3.org/2000/svg" xmlns:xlink="http://www.w3.org/1999/xlink" width="700" height="500" style="" viewBox="0 0 700 500"><rect x="0" y="0" width="700" height="500" style="fill: rgb(255, 255, 255); fill-opacity: 1;"/><defs id="defs-fb194a"><g class="clips"><clipPath id="clipfb194axyplot" class="plotclip"><rect width="619" height="435"/></clipPath><clipPath class="axesclip" id="clipfb194ax"><rect x="60" y="0" width="619" height="500"/></clipPath><clipPath class="axesclip" id="clipfb194ay"><rect x="0" y="25" width="700" height="435"/></clipPath><clipPath class="axesclip" id="clipfb194axy"><rect x="60" y="25" width="619" height="435"/></clipPath></g><g class="gradients"/></defs><g class="bglayer"/><g class="layer-below"><g class="imagelayer"/><g class="shapelayer"/></g><g class="cartesianlayer"><g class="subplot xy"><g class="layer-subplot"><g class="shapelayer"/><g class="imagelayer"/></g><g class="gridlayer"><g class="x"><path class="xgrid crisp" transform="translate(212.42,0)" d="M0,25v435" style="stroke: rgb(238, 238, 238); stroke-opacity: 1; stroke-width: 1px;"/><path class="xgrid crisp" transform="translate(367.94,0)" d="M0,25v435" style="stroke: rgb(238, 238, 238); stroke-opacity: 1; stroke-width: 1px;"/><path class="xgrid crisp" transform="translate(523.47,0)" d="M0,25v435" style="stroke: rgb(238, 238, 238); stroke-opacity: 1; stroke-width: 1px;"/></g><g class="y"><path class="ygrid crisp" transform="translate(0,363.34)" d="M60,0h619" style="stroke: rgb(238, 238, 238); stroke-opacity: 1; stroke-width: 1px;"/><path class="ygrid crisp" transform="translate(0,288.42)" d="M60,0h619" style="stroke: rgb(238, 238, 238); stroke-opacity: 1; stroke-width: 1px;"/><path class="ygrid crisp" transform="translate(0,213.51)" d="M60,0h619" style="stroke: rgb(238, 238, 238); stroke-opacity: 1; stroke-width: 1px;"/><path class="ygrid crisp" transform="translate(0,138.59)" d="M60,0h619" style="stroke: rgb(238, 238, 238); stroke-opacity: 1; stroke-width: 1px;"/><path class="ygrid crisp" transform="translate(0,63.68)" d="M60,0h619" style="stroke: rgb(238, 238, 238); stroke-opacity: 1; stroke-width: 1px;"/></g></g><g class="zerolinelayer"><path class="yzl zl crisp" transform="translate(0,438.25)" d="M60,0h619" style="stroke: rgb(68, 68, 68); stroke-opacity: 1; stroke-width: 1px;"/></g><path class="xlines-below"/><path class="ylines-below"/><g class="overlines-below"/><g class="xaxislayer-below"/><g class="yaxislayer-below"/><g class="overaxes-below"/><g class="plot" transform="translate(60, 25)" clip-path="url('#clipfb194axyplot')"><g class="scatterlayer mlayer"><g class="trace scatter trace3a2f40" style="stroke-miterlimit: 2; opacity: 1;"><g class="fills"/><g class="errorbars"/><g class="lines"><path class="js-line" d="M0,409.45L3.11,413.25L6.22,413.25L9.33,407.22L12.44,410.23L27.99,407.28L31.11,406.08L34.22,405.93L37.33,404.78L43.55,403.01L46.66,401.79L55.99,399.15L59.1,397.57L68.43,393.9L71.54,392.78L74.65,391.17L77.76,390.93L80.87,387.97L83.98,386.69L87.1,386.84L90.21,383.32L93.32,380.44L96.43,380.33L108.87,371.3L111.98,371.69L115.09,369.58L118.2,364.71L124.42,361.15L127.53,358.66L130.64,357.81L133.75,354.31L139.97,347.55L143.09,347.83L146.2,344.57L149.31,338.06L155.53,334.27L158.64,331.16L161.75,328.58L164.86,322.38L167.97,322.3L171.08,315.24L174.19,314.08L177.3,309.68L180.41,302.41L183.52,300.77L186.63,297.9L189.74,296.46L195.96,286.68L199.08,279.73L202.19,277.77L205.3,272.45L208.41,268.87L211.52,262.77L214.63,257.88L217.74,249.58L220.85,250.22L223.96,239.69L230.18,234.62L233.29,225.44L236.4,220.63L239.51,211.17L242.62,210.44L245.73,200.7L248.84,197.97L251.95,188.4L261.29,169.72L264.4,160.6L270.62,144.14L273.73,136.69L276.84,131.89L279.95,123.9L283.06,108.52L286.17,103.65L295.5,73.23L298.61,67.41L301.72,58.87L304.83,46.7L307.94,37.26L311.06,40.97L320.39,69.06L323.5,124.19L332.83,175.66L335.94,188.71L345.27,232.22L348.38,241.43L357.71,253.95L360.82,253.72L367.05,258.83L370.16,265.16L373.27,261.25L376.38,270.6L379.49,275.45L382.6,276.1L385.71,281.61L388.82,285.15L395.04,293.74L398.15,289.25L404.37,296.46L407.48,298.78L410.59,300.97L413.7,304.55L416.81,305.43L419.92,309.46L423.04,310.77L426.15,313.48L432.37,319.42L435.48,316.99L438.59,317.68L441.7,322.38L457.25,329.72L460.36,334.33L463.47,333.95L466.58,336.52L469.69,336.43L472.8,339.52L475.91,341.63L479.03,342.66L485.25,345.15L488.36,344.5L494.58,348.99L497.69,349.97L500.8,349.72L503.91,351.8L510.13,352.4L513.24,355.72L516.35,358.09L519.46,356.95L525.68,358.43L528.79,361.3L531.9,358.92L535.02,362.63L538.13,363.19L541.24,364.8L547.46,366.71L550.57,365.19L553.68,366.43L556.79,365.94L559.9,369.18L563.01,368.34L575.45,372.42L578.56,372.59L581.67,372.89L584.78,374.05L587.89,373.64L591.01,375.68L594.12,374.93L597.23,377.25L600.34,376.15L603.45,378.77L606.56,378.32L609.67,379.3L612.78,377.82L615.89,379.43L619,380.87" style="vector-effect: non-scaling-stroke; fill: none; stroke: rgb(31, 119, 180); stroke-opacity: 1; stroke-width: 2px; opacity: 1;"/></g><g class="points"/><g class="text"/></g><g class="trace scatter trace1fff0c" style="stroke-miterlimit: 2; opacity: 1;"><g class="fills"/><g class="errorbars"/><g class="lines"><path class="js-line" d="M0,409.37L3.11,413.25L6.22,413.25L9.33,407.22L12.44,410.23L27.99,407.28L31.11,406.08L34.22,405.93L37.33,404.78L43.55,403.01L46.66,401.79L55.99,399.15L59.1,397.57L68.43,393.9L71.54,392.78L74.65,391.17L77.76,390.93L80.87,387.97L83.98,386.69L87.1,386.84L90.21,383.32L93.32,380.44L96.43,380.33L108.87,371.3L111.98,371.69L115.09,369.58L118.2,364.71L124.42,361.15L127.53,358.66L130.64,357.81L133.75,354.31L139.97,347.55L143.09,347.83L146.2,344.57L149.31,338.06L155.53,334.27L158.64,331.16L161.75,328.58L164.86,322.38L167.97,322.3L171.08,315.24L174.19,314.08L177.3,309.68L180.41,302.41L183.52,300.77L186.63,297.9L189.74,296.46L195.96,286.68L199.08,279.73L202.19,277.77L205.3,272.45L208.41,268.87L211.52,262.77L214.63,257.88L217.74,249.58L220.85,250.22L223.96,239.69L230.18,234.62L233.29,225.44L236.4,220.63L239.51,211.17L242.62,210.44L245.73,200.7L248.84,197.97L251.95,188.4L261.29,169.72L264.4,160.6L270.62,144.14L273.73,136.69L276.84,131.89L279.95,123.9L283.06,108.52L286.17,103.65L295.5,73.23L298.61,67.41L301.72,58.87L304.83,46.7L307.94,37.26L311.06,35.82L320.39,66.36L323.5,118.45L326.61,139.27L329.72,153.34L335.94,189.2L339.05,198.72L342.16,213.98L345.27,225.44L351.49,245.54L354.6,247.52L357.71,248.12L360.82,254.15L363.93,256.14L367.05,255.46L373.27,262.92L376.38,268.44L379.49,269.9L382.6,276.31L388.82,285.41L391.93,287.19L395.04,286.89L398.15,289.3L401.26,295.67L404.37,291.81L407.48,294.85L410.59,300.52L413.7,302.56L416.81,305.62L419.92,304.68L423.04,306.12L426.15,313.37L429.26,310.81L432.37,315.56L435.48,314.29L438.59,317.88L441.7,319.87L444.81,320.86L447.92,320.15L451.03,323.3L454.14,323.43L457.25,325.73L460.36,325.6L463.47,331.2L466.58,330.47L469.69,334.25L472.8,334.25L475.91,338L479.03,336.59L482.14,338.8L485.25,338.99L491.47,342.72L494.58,343.77L497.69,346.75L500.8,345.9L507.02,349.87L510.13,348.81L513.24,348.67L516.35,351.99L519.46,352.05L522.57,353.71L528.79,355L531.9,357.06L535.02,358.06L538.13,358L544.35,362.05L547.46,361.67L550.57,363.9L553.68,362.74L556.79,364.57L559.9,362.29L563.01,365.89L566.12,364.09L569.23,366.47L572.34,367.7L575.45,369.93L578.56,368.96L581.67,370.47L584.78,370.59L587.89,368.49L591.01,371.64L594.12,373.71L597.23,373.47L600.34,374.65L603.45,374.76L609.67,374.07L612.78,377.12L615.89,375.81L619,375.64" style="vector-effect: non-scaling-stroke; fill: none; stroke: rgb(255, 127, 14); stroke-opacity: 1; stroke-width: 2px; opacity: 1;"/></g><g class="points"/><g class="text"/></g><g class="trace scatter trace743c50" style="stroke-miterlimit: 2; opacity: 1;"><g class="fills"/><g class="errorbars"/><g class="lines"><path class="js-line" d="M0,409.41L3.11,413.25L6.22,413.25L9.33,407.22L12.44,410.23L27.99,407.28L31.11,406.08L34.22,405.93L37.33,404.78L43.55,403.01L46.66,401.79L55.99,399.15L59.1,397.57L68.43,393.9L71.54,392.78L74.65,391.17L77.76,390.93L80.87,387.97L83.98,386.69L87.1,386.84L90.21,383.32L93.32,380.44L96.43,380.33L108.87,371.3L111.98,371.69L115.09,369.58L118.2,364.71L124.42,361.15L127.53,358.66L130.64,357.81L133.75,354.31L139.97,347.55L143.09,347.83L146.2,344.57L149.31,338.06L155.53,334.27L158.64,331.16L161.75,328.58L164.86,322.38L167.97,322.3L171.08,315.24L174.19,314.08L177.3,309.68L180.41,302.41L183.52,300.77L186.63,297.9L189.74,296.46L195.96,286.68L199.08,279.73L202.19,277.77L205.3,272.45L208.41,268.87L211.52,262.77L214.63,257.88L217.74,249.58L220.85,250.22L223.96,239.69L230.18,234.62L233.29,225.44L236.4,220.63L239.51,211.17L242.62,210.44L245.73,200.7L248.84,197.97L251.95,188.4L261.29,169.72L264.4,160.6L270.62,144.14L273.73,136.69L276.84,131.89L279.95,123.9L283.06,108.52L286.17,103.65L295.5,73.23L298.61,67.41L301.72,58.87L304.83,46.7L307.94,37.26L311.06,31.75L320.39,62.6L323.5,113.14L335.94,181.8L339.05,193.7L345.27,225.29L348.38,236.51L351.49,236.7L354.6,239.97L357.71,243.1L360.82,243.79L363.93,248.59L367.05,250.09L370.16,254.13L373.27,259.51L376.38,260.11L379.49,264.23L385.71,275.5L388.82,279.7L391.93,278.22L395.04,283.56L401.26,283.09L404.37,288.86L407.48,289.72L410.59,292.28L413.7,297.23L416.81,296.31L419.92,298.89L423.04,298.69L426.15,305.15L429.26,303.84L432.37,306.05L435.48,309.29L438.59,313L441.7,310.96L444.81,314.05L447.92,315.92L451.03,318.93L454.14,319.61L457.25,319.96L460.36,325.23L466.58,327.87L469.69,329.51L472.8,331.69L475.91,332.42L485.25,338L488.36,337.27L494.58,340.73L497.69,338.58L507.02,346.99L510.13,346.71L519.46,350.58L522.57,348.66L525.68,352.21L528.79,351.76L535.02,355.96L538.13,357.01L541.24,354.26L544.35,354.27L547.46,358.88L550.57,358.09L553.68,362.5L556.79,359.82L563.01,360.94L566.12,362.23L572.34,366.67L575.45,364.05L578.56,363.96L581.67,366.32L584.78,366.22L587.89,368.3L591.01,370.34L594.12,368.28L597.23,371.56L600.34,371.39L603.45,371.07L606.56,371.86L609.67,374.26L612.78,373.32L615.89,372.65L619,374.78" style="vector-effect: non-scaling-stroke; fill: none; stroke: rgb(44, 160, 44); stroke-opacity: 1; stroke-width: 2px; opacity: 1;"/></g><g class="points"/><g class="text"/></g><g class="trace scatter trace06a9cc" style="stroke-miterlimit: 2; opacity: 1;"><g class="fills"/><g class="errorbars"/><g class="lines"><path class="js-line" d="M0,409.43L3.11,413.25L6.22,413.25L9.33,407.22L12.44,410.23L27.99,407.28L31.11,406.08L34.22,405.93L37.33,404.78L43.55,403.01L46.66,401.79L55.99,399.15L59.1,397.57L68.43,393.9L71.54,392.78L74.65,391.17L77.76,390.93L80.87,387.97L83.98,386.69L87.1,386.84L90.21,383.32L93.32,380.44L96.43,380.33L108.87,371.3L111.98,371.69L115.09,369.58L118.2,364.71L124.42,361.15L127.53,358.66L130.64,357.81L133.75,354.31L139.97,347.55L143.09,347.83L146.2,344.57L149.31,338.06L155.53,334.27L158.64,331.16L161.75,328.58L164.86,322.38L167.97,322.3L171.08,315.24L174.19,314.08L177.3,309.68L180.41,302.41L183.52,300.77L186.63,297.9L189.74,296.46L195.96,286.68L199.08,279.73L202.19,277.77L205.3,272.45L208.41,268.87L211.52,262.77L214.63,257.88L217.74,249.58L220.85,250.22L223.96,239.69L230.18,234.62L233.29,225.44L236.4,220.63L239.51,211.17L242.62,210.44L245.73,200.7L248.84,197.97L251.95,188.4L261.29,169.72L264.4,160.6L270.62,144.14L273.73,136.69L276.84,131.89L279.95,123.9L283.06,108.52L286.17,103.65L295.5,73.23L298.61,67.41L301.72,58.87L304.83,46.7L307.94,37.26L311.06,33.62L314.17,35.63L317.28,42.8L320.39,57.37L323.5,101.01L332.83,157.96L335.94,171.5L345.27,214.15L348.38,224.19L351.49,231.34L354.6,232.97L360.82,238.76L363.93,240.22L367.05,239.69L370.16,244.96L373.27,250.18L376.38,251.87L379.49,258.72L382.6,261.21L385.71,265.54L388.82,271.25L391.93,276.98L395.04,274.77L398.15,275.52L401.26,278.54L404.37,282.23L407.48,282.11L416.81,287.41L419.92,289.53L423.04,291.4L426.15,295.26L429.26,298.26L432.37,303.37L435.48,300.26L438.59,302.75L441.7,307.13L444.81,308.71L447.92,307.73L451.03,311.5L454.14,314.61L457.25,315.45L460.36,314.85L463.47,315.17L469.69,323.03L472.8,319.81L482.14,325.84L485.25,327.47L488.36,329.87L491.47,330.1L494.58,330.56L497.69,333.3L500.8,335.21L503.91,336.03L507.02,334.63L510.13,338.39L513.24,341.03L516.35,339.67L522.57,341.97L525.68,344.5L528.79,345.13L531.9,344.12L535.02,345.36L538.13,348.22L544.35,348.66L547.46,351.05L550.57,350.66L553.68,351.82L559.9,353.38L563.01,356.63L569.23,354.69L572.34,355.27L575.45,357.03L578.56,357.81L581.67,357.38L584.78,358.69L587.89,362.14L591.01,362.05L594.12,361.26L597.23,362.01L603.45,362.51L606.56,362.72L612.78,364.69L615.89,364.35L619,365.94" style="vector-effect: non-scaling-stroke; fill: none; stroke: rgb(214, 39, 40); stroke-opacity: 1; stroke-width: 2px; opacity: 1;"/></g><g class="points"/><g class="text"/></g><g class="trace scatter trace2d64c4" style="stroke-miterlimit: 2; opacity: 1;"><g class="fills"/><g class="errorbars"/><g class="lines"><path class="js-line" d="M0,409.3L3.11,413.25L6.22,413.25L9.33,407.22L12.44,410.23L27.99,407.28L31.11,406.08L34.22,405.93L37.33,404.78L43.55,403.01L46.66,401.79L55.99,399.15L59.1,397.57L68.43,393.9L71.54,392.78L74.65,391.17L77.76,390.93L80.87,387.97L83.98,386.69L87.1,386.84L90.21,383.32L93.32,380.44L96.43,380.33L108.87,371.3L111.98,371.69L115.09,369.58L118.2,364.71L124.42,361.15L127.53,358.66L130.64,357.81L133.75,354.31L139.97,347.55L143.09,347.83L146.2,344.57L149.31,338.06L155.53,334.27L158.64,331.16L161.75,328.58L164.86,322.38L167.97,322.3L171.08,315.24L174.19,314.08L177.3,309.68L180.41,302.41L183.52,300.77L186.63,297.9L189.74,296.46L195.96,286.68L199.08,279.73L202.19,277.77L205.3,272.45L208.41,268.87L211.52,262.77L214.63,257.88L217.74,249.58L220.85,250.22L223.96,239.69L230.18,234.62L233.29,225.44L236.4,220.63L239.51,211.17L242.62,210.44L245.73,200.7L248.84,197.97L251.95,188.4L261.29,169.72L264.4,160.6L270.62,144.14L273.73,136.69L276.84,131.89L279.95,123.9L283.06,108.52L286.17,103.65L295.5,73.23L298.61,67.41L301.72,58.87L304.83,46.7L311.06,28.75L314.17,30.46L317.28,30.85L320.39,41.1L323.5,85.24L326.61,103.24L335.94,158.84L339.05,171.58L342.16,179.35L345.27,199.07L348.38,209.91L351.49,215.61L354.6,220.59L357.71,222.74L360.82,224.75L363.93,222.63L367.05,226.34L370.16,227.31L373.27,234.45L376.38,233.34L379.49,240.55L382.6,240.93L385.71,245.59L388.82,251.94L391.93,254.36L395.04,259L401.26,264.98L404.37,262.5L407.48,260.18L410.59,266.77L413.7,266.44L416.81,267.3L419.92,272.56L423.04,271.49L426.15,275.41L429.26,276.96L432.37,280.13L435.48,279.47L438.59,286.8L441.7,288.2L444.81,288.09L447.92,293.18L451.03,292.49L454.14,293.99L457.25,295.54L460.36,296.07L463.47,300.35L466.58,298.09L469.69,301.52L472.8,298.74L475.91,303.41L479.03,302.94L485.25,307.36L488.36,308.2L491.47,309.1L494.58,311.39L497.69,310.04L500.8,311.78L503.91,311.27L507.02,312.47L510.13,317.23L513.24,315L516.35,316.03L519.46,319.08L522.57,321.8L525.68,322.49L528.79,322.3L531.9,320.24L535.02,326.86L538.13,327.96L544.35,328.63L547.46,327.81L550.57,329.08L553.68,328.86L556.79,331.03L559.9,330.88L563.01,333.8L566.12,332.51L569.23,334.16L572.34,332.01L575.45,336.46L578.56,336.86L581.67,337.85L584.78,336.84L587.89,337.36L591.01,340.85L594.12,339.22L597.23,342.25L609.67,342.98L612.78,347.25L615.89,345.02L619,345.9" style="vector-effect: non-scaling-stroke; fill: none; stroke: rgb(148, 103, 189); stroke-opacity: 1; stroke-width: 2px; opacity: 1;"/></g><g class="points"/><g class="text"/></g><g class="trace scatter traceef2a68" style="stroke-miterlimit: 2; opacity: 1;"><g class="fills"/><g class="errorbars"/><g class="lines"><path class="js-line" d="M0,409.34L3.11,413.25L6.22,413.25L9.33,407.22L12.44,410.23L27.99,407.28L31.11,406.08L34.22,405.93L37.33,404.78L43.55,403.01L46.66,401.79L55.99,399.15L59.1,397.57L68.43,393.9L71.54,392.78L74.65,391.17L77.76,390.93L80.87,387.97L83.98,386.69L87.1,386.84L90.21,383.32L93.32,380.44L96.43,380.33L108.87,371.3L111.98,371.69L115.09,369.58L118.2,364.71L124.42,361.15L127.53,358.66L130.64,357.81L133.75,354.31L139.97,347.55L143.09,347.83L146.2,344.57L149.31,338.06L155.53,334.27L158.64,331.16L161.75,328.58L164.86,322.38L167.97,322.3L171.08,315.24L174.19,314.08L177.3,309.68L180.41,302.41L183.52,300.77L186.63,297.9L189.74,296.46L195.96,286.68L199.08,279.73L202.19,277.77L205.3,272.45L208.41,268.87L211.52,262.77L214.63,257.88L217.74,249.58L220.85,250.22L223.96,239.69L230.18,234.62L233.29,225.44L236.4,220.63L239.51,211.17L242.62,210.44L245.73,200.7L248.84,197.97L251.95,188.4L261.29,169.72L264.4,160.6L270.62,144.14L273.73,136.69L276.84,131.89L279.95,123.9L283.06,108.52L286.17,103.65L295.5,73.23L298.61,67.41L301.72,58.87L304.83,46.7L311.06,27.82L314.17,21.75L317.28,22.29L320.39,31.84L323.5,73.08L326.61,86.7L329.72,111.5L332.83,127.06L335.94,137.32L339.05,153.15L345.27,183.75L348.38,190.72L351.49,197.98L354.6,209.56L357.71,208.87L360.82,212.31L363.93,208.83L367.05,210.83L370.16,210.55L373.27,217.09L379.49,221.25L382.6,224.56L385.71,232.82L388.82,233.72L391.93,234.32L395.04,242.75L398.15,241.23L401.26,241.29L404.37,246.42L407.48,248.93L410.59,247.03L413.7,250.35L416.81,251.14L419.92,256.62L426.15,259.62L429.26,258.18L432.37,264.17L435.48,263.82L438.59,262.95L441.7,267.92L447.92,271.18L451.03,274.7L454.14,273.33L457.25,277.36L460.36,277.81L463.47,276.1L469.69,284.23L472.8,284.87L475.91,284.6L479.03,288.01L482.14,285.32L485.25,291.38L488.36,285.63L491.47,290.34L494.58,292.08L497.69,296.38L500.8,296.65L503.91,294.7L507.02,295.41L510.13,297.7L516.35,302.43L519.46,303.11L522.57,305.19L525.68,303.31L528.79,304.01L531.9,308.65L535.02,309.44L538.13,308.88L547.46,312.02L550.57,311.99L553.68,312.36L556.79,314.89L559.9,311.61L563.01,313.3L566.12,316.5L569.23,318.3L572.34,316.93L575.45,319.1L578.56,317.92L581.67,320.92L584.78,319.98L587.89,319.93L591.01,320.81L594.12,320.34L597.23,321.82L600.34,321.46L603.45,326.09L606.56,325.45L609.67,326.41L612.78,325.41L615.89,328.54L619,327.31" style="vector-effect: non-scaling-stroke; fill: none; stroke: rgb(140, 86, 75); stroke-opacity: 1; stroke-width: 2px; opacity: 1;"/></g><g class="points"/><g class="text"/></g></g></g><g class="overplot"/><path class="xlines-above crisp" style="fill: none;" d="M0,0"/><path class="ylines-above crisp" style="fill: none;" d="M0,0"/><g class="overlines-above"/><g class="xaxislayer-above"><g class="xtick"><text text-anchor="middle" x="0" y="473" transform="translate(212.42,0)" style="font-family: 'Open Sans', verdana, arial, sans-serif; font-size: 12px; fill: rgb(68, 68, 68); fill-opacity: 1; white-space: pre;">50</text></g><g class="xtick"><text text-anchor="middle" x="0" y="473" transform="translate(367.94,0)" style="font-family: 'Open Sans', verdana, arial, sans-serif; font-size: 12px; fill: rgb(68, 68, 68); fill-opacity: 1; white-space: pre;">100</text></g><g class="xtick"><text text-anchor="middle" x="0" y="473" transform="translate(523.47,0)" style="font-family: 'Open Sans', verdana, arial, sans-serif; font-size: 12px; fill: rgb(68, 68, 68); fill-opacity: 1; white-space: pre;">150</text></g><g class="xtick"><text text-anchor="middle" x="0" y="473" transform="translate(679,0)" style="font-family: 'Open Sans', verdana, arial, sans-serif; font-size: 12px; fill: rgb(68, 68, 68); fill-opacity: 1; white-space: pre;">200</text></g></g><g class="yaxislayer-above"><g class="ytick"><text text-anchor="end" x="59" y="4.199999999999999" transform="translate(0,438.25)" style="font-family: 'Open Sans', verdana, arial, sans-serif; font-size: 12px; fill: rgb(68, 68, 68); fill-opacity: 1; white-space: pre;">0</text></g><g class="ytick"><text text-anchor="end" x="59" y="4.199999999999999" transform="translate(0,363.34)" style="font-family: 'Open Sans', verdana, arial, sans-serif; font-size: 12px; fill: rgb(68, 68, 68); fill-opacity: 1; white-space: pre;">20</text></g><g class="ytick"><text text-anchor="end" x="59" y="4.199999999999999" transform="translate(0,288.42)" style="font-family: 'Open Sans', verdana, arial, sans-serif; font-size: 12px; fill: rgb(68, 68, 68); fill-opacity: 1; white-space: pre;">40</text></g><g class="ytick"><text text-anchor="end" x="59" y="4.199999999999999" transform="translate(0,213.51)" style="font-family: 'Open Sans', verdana, arial, sans-serif; font-size: 12px; fill: rgb(68, 68, 68); fill-opacity: 1; white-space: pre;">60</text></g><g class="ytick"><text text-anchor="end" x="59" y="4.199999999999999" transform="translate(0,138.59)" style="font-family: 'Open Sans', verdana, arial, sans-serif; font-size: 12px; fill: rgb(68, 68, 68); fill-opacity: 1; white-space: pre;">80</text></g><g class="ytick"><text text-anchor="end" x="59" y="4.199999999999999" transform="translate(0,63.68)" style="font-family: 'Open Sans', verdana, arial, sans-serif; font-size: 12px; fill: rgb(68, 68, 68); fill-opacity: 1; white-space: pre;">100</text></g></g><g class="overaxes-above"/></g></g><g class="polarlayer"/><g class="ternarylayer"/><g class="geolayer"/><g class="funnelarealayer"/><g class="pielayer"/><g class="treemaplayer"/><g class="sunburstlayer"/><g class="glimages"/><defs id="topdefs-fb194a"><g class="clips"/><clipPath id="legendfb194a"><rect width="117" height="140" x="0" y="0"/></clipPath></defs><g class="layer-above"><g class="imagelayer"/><g class="shapelayer"/></g><g class="infolayer"><g class="legend" pointer-events="all" transform="translate(90.95, 46.750000000000014)"><rect class="bg" shape-rendering="crispEdges" style="stroke: rgb(68, 68, 68); stroke-opacity: 1; fill: rgb(226, 226, 226); fill-opacity: 1; stroke-width: 0px;" width="117" height="140" x="0" y="0"/><g class="scrollbox" transform="translate(0, 0)" clip-path="url('#legendfb194a')"><text class="legendtitletext user-select-none" text-anchor="start" x="2" y="15.600000000000001" style="font-family: 'Open Sans', verdana, arial, sans-serif; font-size: 12px; fill: rgb(68, 68, 68); fill-opacity: 1; white-space: pre;"><tspan style="font-weight:bold"> Identification Time </tspan></text><g class="groups"><g class="traces" transform="translate(0, 30.1)" style="opacity: 1;"><text class="legendtext user-select-none" text-anchor="start" x="40" y="4.680000000000001" style="font-family: 'Open Sans', verdana, arial, sans-serif; font-size: 12px; fill: rgb(68, 68, 68); fill-opacity: 1; white-space: pre;">0 Months</text><g class="layers" style="opacity: 1;"><g class="legendfill"/><g class="legendlines"><path class="js-line" d="M5,0h30" style="fill: none; stroke: rgb(31, 119, 180); stroke-opacity: 1; stroke-width: 2px;"/></g><g class="legendsymbols"><g class="legendpoints"/></g></g><rect class="legendtoggle" pointer-events="all" x="0" y="-9.5" width="98.046875" height="19" style="cursor: pointer; fill: rgb(0, 0, 0); fill-opacity: 0;"/></g><g class="traces" transform="translate(0, 49.1)" style="opacity: 1;"><text class="legendtext user-select-none" text-anchor="start" x="40" y="4.680000000000001" style="font-family: 'Open Sans', verdana, arial, sans-serif; font-size: 12px; fill: rgb(68, 68, 68); fill-opacity: 1; white-space: pre;">3 Months</text><g class="layers" style="opacity: 1;"><g class="legendfill"/><g class="legendlines"><path class="js-line" d="M5,0h30" style="fill: none; stroke: rgb(255, 127, 14); stroke-opacity: 1; stroke-width: 2px;"/></g><g class="legendsymbols"><g class="legendpoints"/></g></g><rect class="legendtoggle" pointer-events="all" x="0" y="-9.5" width="98.046875" height="19" style="cursor: pointer; fill: rgb(0, 0, 0); fill-opacity: 0;"/></g><g class="traces" transform="translate(0, 68.1)" style="opacity: 1;"><text class="legendtext user-select-none" text-anchor="start" x="40" y="4.680000000000001" style="font-family: 'Open Sans', verdana, arial, sans-serif; font-size: 12px; fill: rgb(68, 68, 68); fill-opacity: 1; white-space: pre;">6 Months</text><g class="layers" style="opacity: 1;"><g class="legendfill"/><g class="legendlines"><path class="js-line" d="M5,0h30" style="fill: none; stroke: rgb(44, 160, 44); stroke-opacity: 1; stroke-width: 2px;"/></g><g class="legendsymbols"><g class="legendpoints"/></g></g><rect class="legendtoggle" pointer-events="all" x="0" y="-9.5" width="98.046875" height="19" style="cursor: pointer; fill: rgb(0, 0, 0); fill-opacity: 0;"/></g><g class="traces" transform="translate(0, 87.1)" style="opacity: 1;"><text class="legendtext user-select-none" text-anchor="start" x="40" y="4.680000000000001" style="font-family: 'Open Sans', verdana, arial, sans-serif; font-size: 12px; fill: rgb(68, 68, 68); fill-opacity: 1; white-space: pre;">12 Months</text><g class="layers" style="opacity: 1;"><g class="legendfill"/><g class="legendlines"><path class="js-line" d="M5,0h30" style="fill: none; stroke: rgb(214, 39, 40); stroke-opacity: 1; stroke-width: 2px;"/></g><g class="legendsymbols"><g class="legendpoints"/></g></g><rect class="legendtoggle" pointer-events="all" x="0" y="-9.5" width="98.046875" height="19" style="cursor: pointer; fill: rgb(0, 0, 0); fill-opacity: 0;"/></g><g class="traces" transform="translate(0, 106.1)" style="opacity: 1;"><text class="legendtext user-select-none" text-anchor="start" x="40" y="4.680000000000001" style="font-family: 'Open Sans', verdana, arial, sans-serif; font-size: 12px; fill: rgb(68, 68, 68); fill-opacity: 1; white-space: pre;">24 Months</text><g class="layers" style="opacity: 1;"><g class="legendfill"/><g class="legendlines"><path class="js-line" d="M5,0h30" style="fill: none; stroke: rgb(148, 103, 189); stroke-opacity: 1; stroke-width: 2px;"/></g><g class="legendsymbols"><g class="legendpoints"/></g></g><rect class="legendtoggle" pointer-events="all" x="0" y="-9.5" width="98.046875" height="19" style="cursor: pointer; fill: rgb(0, 0, 0); fill-opacity: 0;"/></g><g class="traces" transform="translate(0, 125.1)" style="opacity: 1;"><text class="legendtext user-select-none" text-anchor="start" x="40" y="4.680000000000001" style="font-family: 'Open Sans', verdana, arial, sans-serif; font-size: 12px; fill: rgb(68, 68, 68); fill-opacity: 1; white-space: pre;">36 Months</text><g class="layers" style="opacity: 1;"><g class="legendfill"/><g class="legendlines"><path class="js-line" d="M5,0h30" style="fill: none; stroke: rgb(140, 86, 75); stroke-opacity: 1; stroke-width: 2px;"/></g><g class="legendsymbols"><g class="legendpoints"/></g></g><rect class="legendtoggle" pointer-events="all" x="0" y="-9.5" width="98.046875" height="19" style="cursor: pointer; fill: rgb(0, 0, 0); fill-opacity: 0;"/></g></g></g><rect class="scrollbar" rx="20" ry="3" width="0" height="0" style="fill: rgb(128, 139, 164); fill-opacity: 1;" x="0" y="0"/></g><g class="g-gtitle"><text class="gtitle" x="350" y="12.5" text-anchor="middle" dy="0em" style="font-family: 'Open Sans', verdana, arial, sans-serif; font-size: 17px; fill: rgb(68, 68, 68); opacity: 1; font-weight: normal; white-space: pre;"><tspan style="font-weight:bold"> Leprosy Incidence MB - Immunity Vaccine 0.5, Treatment 50% </tspan></text></g><g class="g-xtitle" transform="translate(0,-15)"><text class="xtitle" x="369.5" y="512" text-anchor="middle" style="font-family: 'Open Sans', verdana, arial, sans-serif; font-size: 14px; fill: rgb(68, 68, 68); opacity: 1; font-weight: normal; white-space: pre;">Time(Years)</text></g><g class="g-ytitle"><text class="ytitle" transform="rotate(-90,22,242.5)" x="22" y="242.5" text-anchor="middle" style="font-family: 'Open Sans', verdana, arial, sans-serif; font-size: 14px; fill: rgb(68, 68, 68); opacity: 1; font-weight: normal; white-space: pre;">Number of new infectiuos individuals</text></g></g></svg>