<svg class="main-svg" xmlns="http://www.w3.org/2000/svg" xmlns:xlink="http://www.w3.org/1999/xlink" width="700" height="500" style="" viewBox="0 0 700 500"><rect x="0" y="0" width="700" height="500" style="fill: rgb(255, 255, 255); fill-opacity: 1;"/><defs id="defs-5623a4"><g class="clips"><clipPath id="clip5623a4xyplot" class="plotclip"><rect width="619" height="435"/></clipPath><clipPath class="axesclip" id="clip5623a4x"><rect x="60" y="0" width="619" height="500"/></clipPath><clipPath class="axesclip" id="clip5623a4y"><rect x="0" y="25" width="700" height="435"/></clipPath><clipPath class="axesclip" id="clip5623a4xy"><rect x="60" y="25" width="619" height="435"/></clipPath></g><g class="gradients"/></defs><g class="bglayer"/><g class="layer-below"><g class="imagelayer"/><g class="shapelayer"/></g><g class="cartesianlayer"><g class="subplot xy"><g class="layer-subplot"><g class="shapelayer"/><g class="imagelayer"/></g><g class="gridlayer"><g class="x"><path class="xgrid crisp" transform="translate(212.42,0)" d="M0,25v435" style="stroke: rgb(238, 238, 238); stroke-opacity: 1; stroke-width: 1px;"/><path class="xgrid crisp" transform="translate(367.94,0)" d="M0,25v435" style="stroke: rgb(238, 238, 238); stroke-opacity: 1; stroke-width: 1px;"/><path class="xgrid crisp" transform="translate(523.47,0)" d="M0,25v435" style="stroke: rgb(238, 238, 238); stroke-opacity: 1; stroke-width: 1px;"/></g><g class="y"><path class="ygrid crisp" transform="translate(0,360.25)" d="M60,0h619" style="stroke: rgb(238, 238, 238); stroke-opacity: 1; stroke-width: 1px;"/><path class="ygrid crisp" transform="translate(0,282.26)" d="M60,0h619" style="stroke: rgb(238, 238, 238); stroke-opacity: 1; stroke-width: 1px;"/><path class="ygrid crisp" transform="translate(0,204.26)" d="M60,0h619" style="stroke: rgb(238, 238, 238); stroke-opacity: 1; stroke-width: 1px;"/><path class="ygrid crisp" transform="translate(0,126.26)" d="M60,0h619" style="stroke: rgb(238, 238, 238); stroke-opacity: 1; stroke-width: 1px;"/><path class="ygrid crisp" transform="translate(0,48.269999999999996)" d="M60,0h619" style="stroke: rgb(238, 238, 238); stroke-opacity: 1; stroke-width: 1px;"/></g></g><g class="zerolinelayer"><path class="yzl zl crisp" transform="translate(0,438.25)" d="M60,0h619" style="stroke: rgb(68, 68, 68); stroke-opacity: 1; stroke-width: 1px;"/></g><path class="xlines-below"/><path class="ylines-below"/><g class="overlines-below"/><g class="xaxislayer-below"/><g class="yaxislayer-below"/><g class="overaxes-below"/><g class="plot" transform="translate(60, 25)" clip-path="url('#clip5623a4xyplot')"><g class="scatterlayer mlayer"><g class="trace scatter tracee49d40" style="stroke-miterlimit: 2; opacity: 1;"><g class="fills"/><g class="errorbars"/><g class="lines"><path class="js-line" d="M0,411.85L3.11,413.25L6.22,413.25L9.33,411.99L12.44,412.62L52.88,410.5L55.99,410.31L102.65,405.4L105.76,404.92L133.75,400.98L136.86,400.16L146.2,398.95L149.31,397.59L161.75,395.62L164.86,394.33L167.97,394.31L171.08,392.84L177.3,391.68L180.41,390.17L189.74,388.93L192.85,387.92L205.3,383.93L208.41,383.19L217.74,379.17L220.85,379.3L223.96,377.11L227.07,376.54L230.18,376.05L233.29,374.14L236.4,373.14L239.51,371.17L242.62,371.02L245.73,368.99L248.84,368.42L251.95,366.43L264.4,360.64L267.51,358.82L279.95,353L283.06,349.8L286.17,348.78L289.28,346.52L311.06,333.78L314.17,334.95L320.39,333.74L323.5,334.96L329.72,337.15L332.83,337.49L335.94,338.87L339.05,338.4L345.27,339.14L348.38,339.57L354.6,337.76L357.71,336.15L360.82,337.05L363.93,335.6L367.05,333.99L370.16,331.17L373.27,331.14L376.38,329.92L379.49,329.86L382.6,328.6L388.82,325.65L391.93,325.28L398.15,321.79L401.26,319.81L404.37,319.68L407.48,317.75L413.7,315.36L416.81,313.77L423.04,311.56L426.15,309.41L429.26,308.91L432.37,306.67L435.48,304.63L438.59,304.3L441.7,301.21L444.81,300.52L451.03,297.51L454.14,294.41L457.25,293.89L460.36,292.17L463.47,289.41L466.58,289.82L472.8,284.86L475.91,284.7L479.03,280.96L482.14,279.67L485.25,278.62L488.36,276.41L491.47,274.27L494.58,273.65L497.69,268.93L500.8,268.06L507.02,264.63L510.13,261.43L513.24,259.66L516.35,259L519.46,256.83L522.57,253.72L525.68,250.18L528.79,247.97L531.9,245.69L535.02,244.52L538.13,242.62L541.24,238.42L544.35,236.85L547.46,234.39L553.68,229.1L556.79,229.5L563.01,221.56L566.12,221.65L569.23,217.54L572.34,215.41L578.56,209.6L581.67,208.01L584.78,202.53L587.89,202.81L603.45,185.93L606.56,185.81L609.67,179.07L612.78,179.62L615.89,174.48L619,171.71" style="vector-effect: non-scaling-stroke; fill: none; stroke: rgb(31, 119, 180); stroke-opacity: 1; stroke-width: 2px; opacity: 1;"/></g><g class="points"/><g class="text"/></g><g class="trace scatter tracee5842d" style="stroke-miterlimit: 2; opacity: 1;"><g class="fills"/><g class="errorbars"/><g class="lines"><path class="js-line" d="M0,411.8L3.11,413.25L6.22,413.25L9.33,411.99L12.44,412.62L52.88,410.5L55.99,410.31L102.65,405.4L105.76,404.92L133.75,400.98L136.86,400.16L146.2,398.95L149.31,397.59L161.75,395.62L164.86,394.33L167.97,394.31L171.08,392.84L177.3,391.68L180.41,390.17L189.74,388.93L192.85,387.92L205.3,383.93L208.41,383.19L217.74,379.17L220.85,379.3L223.96,377.11L227.07,376.54L230.18,376.05L233.29,374.14L236.4,373.14L239.51,371.17L242.62,371.02L245.73,368.99L248.84,368.42L251.95,366.43L264.4,360.64L267.51,358.82L279.95,353L283.06,349.8L286.17,348.78L289.28,346.52L311.06,333.07L314.17,332.91L320.39,334.97L323.5,333.97L326.61,334.92L329.72,337.12L332.83,336.05L335.94,336.86L339.05,337.79L342.16,337.36L345.27,338.95L348.38,338.47L354.6,337.05L357.71,337.02L363.93,334.02L367.05,332.34L370.16,329.48L373.27,329.86L379.49,326.94L382.6,327.32L385.71,326.01L388.82,323.74L391.93,323.09L395.04,321.34L398.15,321L401.26,319.15L416.81,311.04L419.92,310.45L441.7,299.32L444.81,296.45L447.92,296.12L451.03,294.31L454.14,291.74L457.25,291.11L460.36,289.27L463.47,286.15L469.69,283.37L472.8,282.66L475.91,279.52L479.03,277.65L485.25,272.68L488.36,271.28L497.69,265.02L500.8,263.65L503.91,260.18L507.02,258.49L510.13,256.55L513.24,256.18L516.35,252.08L519.46,250.2L522.57,247.18L525.68,245.52L531.9,241.26L535.02,238.03L538.13,234.32L541.24,232.08L547.46,229.91L550.57,225.84L556.79,218.99L559.9,217.25L563.01,212.16L566.12,212.24L569.23,208.58L572.34,206.78L575.45,203.22L578.56,201.42L581.67,196.36L584.78,194.68L597.23,183.45L600.34,181.32L603.45,173.72L606.56,174.94L609.67,169.6L612.78,167.7L619,159.66" style="vector-effect: non-scaling-stroke; fill: none; stroke: rgb(255, 127, 14); stroke-opacity: 1; stroke-width: 2px; opacity: 1;"/></g><g class="points"/><g class="text"/></g><g class="trace scatter trace532fc1" style="stroke-miterlimit: 2; opacity: 1;"><g class="fills"/><g class="errorbars"/><g class="lines"><path class="js-line" d="M0,411.73L3.11,413.25L6.22,413.25L9.33,411.99L12.44,412.62L52.88,410.5L55.99,410.31L102.65,405.4L105.76,404.92L133.75,400.98L136.86,400.16L146.2,398.95L149.31,397.59L161.75,395.62L164.86,394.33L167.97,394.31L171.08,392.84L177.3,391.68L180.41,390.17L189.74,388.93L192.85,387.92L205.3,383.93L208.41,383.19L217.74,379.17L220.85,379.3L223.96,377.11L227.07,376.54L230.18,376.05L233.29,374.14L236.4,373.14L239.51,371.17L242.62,371.02L245.73,368.99L248.84,368.42L251.95,366.43L264.4,360.64L267.51,358.82L279.95,353L283.06,349.8L286.17,348.78L289.28,346.52L311.06,333.69L314.17,333.66L317.28,332.42L320.39,334L329.72,334.63L332.83,336.18L345.27,337.95L348.38,337.27L351.49,336.9L354.6,335.7L357.71,335.28L360.82,332.83L379.49,326.22L382.6,324.49L385.71,322.67L388.82,322.37L391.93,319.49L395.04,319.84L398.15,319.02L401.26,316.71L404.37,315.34L407.48,313.09L416.81,309.48L419.92,307.75L423.04,306.25L426.15,303.89L432.37,300.75L435.48,298.82L438.59,295.9L441.7,294.78L444.81,294.18L447.92,291.13L451.03,290.99L454.14,287.14L460.36,284.69L463.47,281.92L466.58,280.43L469.69,277.86L472.8,274.9L475.91,273.9L482.14,269.53L485.25,268.32L497.69,258.21L500.8,256.22L503.91,254.85L507.02,251.12L513.24,246.97L516.35,243.43L519.46,241.95L522.57,238.91L531.9,230.92L535.02,227.35L538.13,224.43L541.24,223.29L550.57,214.32L553.68,211.04L556.79,208.42L559.9,206.8L563.01,203.4L566.12,197.48L572.34,195.67L575.45,189.49L578.56,187.89L581.67,184.42L584.78,181.75L587.89,180.42L591.01,177.7L594.12,173.03L597.23,168.45L600.34,166.02L603.45,160.68L606.56,158.7L609.67,156.65L612.78,152.52L615.89,149.51L619,144.97" style="vector-effect: non-scaling-stroke; fill: none; stroke: rgb(44, 160, 44); stroke-opacity: 1; stroke-width: 2px; opacity: 1;"/></g><g class="points"/><g class="text"/></g><g class="trace scatter trace1009d4" style="stroke-miterlimit: 2; opacity: 1;"><g class="fills"/><g class="errorbars"/><g class="lines"><path class="js-line" d="M0,411.67L3.11,413.25L6.22,413.25L9.33,411.99L12.44,412.62L52.88,410.5L55.99,410.31L102.65,405.4L105.76,404.92L133.75,400.98L136.86,400.16L146.2,398.95L149.31,397.59L161.75,395.62L164.86,394.33L167.97,394.31L171.08,392.84L177.3,391.68L180.41,390.17L189.74,388.93L192.85,387.92L205.3,383.93L208.41,383.19L217.74,379.17L220.85,379.3L223.96,377.11L227.07,376.54L230.18,376.05L233.29,374.14L236.4,373.14L239.51,371.17L242.62,371.02L245.73,368.99L248.84,368.42L251.95,366.43L264.4,360.64L267.51,358.82L279.95,353L283.06,349.8L286.17,348.78L289.28,346.52L307.94,334.96L311.06,332.91L314.17,333.75L317.28,332.8L320.39,332.17L323.5,332.77L326.61,334.01L329.72,334.1L335.94,333.32L339.05,335.32L345.27,334.26L348.38,335.03L351.49,335.11L354.6,332.87L357.71,332.13L360.82,330.34L363.93,330.98L367.05,328.44L373.27,324.78L376.38,324.38L379.49,323.99L382.6,321.1L385.71,320.36L388.82,317.95L391.93,316.91L395.04,316.74L398.15,314.23L401.26,313.41L404.37,312.26L407.48,309.28L410.59,308.01L413.7,305.36L419.92,302.76L423.04,300.8L432.37,294.13L435.48,294.35L438.59,290.4L441.7,290.37L444.81,288.46L447.92,285.45L451.03,282.15L454.14,281.03L457.25,279.88L460.36,277.82L463.47,275.46L466.58,274.31L472.8,267.61L475.91,265.96L479.03,264L482.14,261.1L485.25,259.25L488.36,259.22L491.47,255.78L494.58,253.95L500.8,245.99L503.91,244.31L513.24,237.34L516.35,234.23L528.79,223.98L531.9,218.12L535.02,217.07L538.13,215.16L541.24,211.21L544.35,208.78L559.9,192.44L563.01,190.82L569.23,181.57L572.34,180.11L575.45,176.81L578.56,171.28L581.67,169.48L584.78,164.64L587.89,162.39L591.01,158.35L594.12,152.27L597.23,149.12L600.34,148.41L603.45,140.85L606.56,140.66L609.67,134.38L615.89,125.65L619,124.08" style="vector-effect: non-scaling-stroke; fill: none; stroke: rgb(214, 39, 40); stroke-opacity: 1; stroke-width: 2px; opacity: 1;"/></g><g class="points"/><g class="text"/></g><g class="trace scatter trace27f4ac" style="stroke-miterlimit: 2; opacity: 1;"><g class="fills"/><g class="errorbars"/><g class="lines"><path class="js-line" d="M0,411.55L3.11,413.25L6.22,413.25L9.33,411.99L12.44,412.62L52.88,410.5L55.99,410.31L102.65,405.4L105.76,404.92L133.75,400.98L136.86,400.16L146.2,398.95L149.31,397.59L161.75,395.62L164.86,394.33L167.97,394.31L171.08,392.84L177.3,391.68L180.41,390.17L189.74,388.93L192.85,387.92L205.3,383.93L208.41,383.19L217.74,379.17L220.85,379.3L223.96,377.11L227.07,376.54L230.18,376.05L233.29,374.14L236.4,373.14L239.51,371.17L242.62,371.02L245.73,368.99L248.84,368.42L251.95,366.43L264.4,360.64L267.51,358.82L279.95,353L283.06,349.8L286.17,348.78L289.28,346.52L307.94,334.96L311.06,332.4L314.17,331.49L317.28,331.85L320.39,330.66L323.5,330.57L326.61,331.42L329.72,330.58L335.94,331.77L339.05,331.06L342.16,332.18L345.27,331.7L348.38,331.56L351.49,330.52L354.6,330.01L357.71,328.7L363.93,326.28L367.05,323.79L373.27,321.29L376.38,317.87L382.6,315.94L385.71,313.42L388.82,311.7L391.93,312.53L395.04,308.54L398.15,306.56L404.37,303.99L407.48,301.25L419.92,294.27L423.04,290.63L426.15,288.7L429.26,287.77L432.37,285.12L435.48,283.66L438.59,280.44L441.7,278.43L447.92,273.8L451.03,270.16L457.25,268.87L460.36,264.34L463.47,260.8L466.58,258.93L469.69,256.61L472.8,255.42L475.91,250.22L479.03,247.8L482.14,247.21L485.25,242.19L488.36,237.8L491.47,236.7L494.58,235.21L497.69,230.63L503.91,223.49L507.02,221.34L513.24,215.7L516.35,210.5L519.46,208.11L522.57,204.47L525.68,203.1L528.79,198.05L531.9,193.33L535.02,190.89L544.35,179.63L547.46,174.91L553.68,169.1L556.79,162.87L566.12,151L569.23,146.97L572.34,143.69L575.45,137.57L578.56,134.71L581.67,130.07L591.01,116.04L594.12,109.53L600.34,102.41L603.45,94.33L612.78,81.02L615.89,73.91L619,69.95" style="vector-effect: non-scaling-stroke; fill: none; stroke: rgb(148, 103, 189); stroke-opacity: 1; stroke-width: 2px; opacity: 1;"/></g><g class="points"/><g class="text"/></g><g class="trace scatter trace78d8b0" style="stroke-miterlimit: 2; opacity: 1;"><g class="fills"/><g class="errorbars"/><g class="lines"><path class="js-line" d="M0,411.41L3.11,413.25L6.22,413.25L9.33,411.99L12.44,412.62L52.88,410.5L55.99,410.31L102.65,405.4L105.76,404.92L133.75,400.98L136.86,400.16L146.2,398.95L149.31,397.59L161.75,395.62L164.86,394.33L167.97,394.31L171.08,392.84L177.3,391.68L180.41,390.17L189.74,388.93L192.85,387.92L205.3,383.93L208.41,383.19L217.74,379.17L220.85,379.3L223.96,377.11L227.07,376.54L230.18,376.05L233.29,374.14L236.4,373.14L239.51,371.17L242.62,371.02L245.73,368.99L248.84,368.42L251.95,366.43L264.4,360.64L267.51,358.82L279.95,353L283.06,349.8L286.17,348.78L289.28,346.52L307.94,334.96L311.06,333L317.28,329.69L320.39,329.55L326.61,328.65L329.72,329.51L335.94,328.53L339.05,329.16L348.38,327.43L351.49,327.47L363.93,322.65L367.05,320.27L370.16,317.38L373.27,316.89L379.49,313.56L382.6,309.57L385.71,308.3L388.82,306.16L391.93,305.63L395.04,303.79L401.26,299.02L404.37,298.36L407.48,294.43L410.59,292.6L413.7,290.41L416.81,289.15L419.92,285.23L423.04,284.01L429.26,277.97L432.37,276.25L435.48,274.4L438.59,270.88L441.7,266.73L444.81,264.44L460.36,251.34L463.47,247.63L466.58,244.59L469.69,242.69L479.03,230.99L482.14,230.09L485.25,227.52L488.36,222.54L494.58,215.33L497.69,212.86L500.8,206.93L503.91,203.45L513.24,192.77L516.35,189.86L519.46,183.96L522.57,182.97L525.68,175.6L528.79,173.27L531.9,167.29L535.02,163.73L538.13,158.43L541.24,156.21L544.35,150.25L547.46,145.94L553.68,137.01L556.79,129.87L559.9,128.58L563.01,121.62L569.23,113.9L572.34,106.22L575.45,102.49L578.56,95.83L581.67,91.9L584.78,86.26L587.89,81.73L591.01,72.69L600.34,58.2L603.45,52.51L609.67,38.05L612.78,33.38L615.89,26.33L619,21.75" style="vector-effect: non-scaling-stroke; fill: none; stroke: rgb(140, 86, 75); stroke-opacity: 1; stroke-width: 2px; opacity: 1;"/></g><g class="points"/><g class="text"/></g></g></g><g class="overplot"/><path class="xlines-above crisp" style="fill: none;" d="M0,0"/><path class="ylines-above crisp" style="fill: none;" d="M0,0"/><g class="overlines-above"/><g class="xaxislayer-above"><g class="xtick"><text text-anchor="middle" x="0" y="473" transform="translate(212.42,0)" style="font-family: 'Open Sans', verdana, arial, sans-serif; font-size: 12px; fill: rgb(68, 68, 68); fill-opacity: 1; white-space: pre;">50</text></g><g class="xtick"><text text-anchor="middle" x="0" y="473" transform="translate(367.94,0)" style="font-family: 'Open Sans', verdana, arial, sans-serif; font-size: 12px; fill: rgb(68, 68, 68); fill-opacity: 1; white-space: pre;">100</text></g><g class="xtick"><text text-anchor="middle" x="0" y="473" transform="translate(523.47,0)" style="font-family: 'Open Sans', verdana, arial, sans-serif; font-size: 12px; fill: rgb(68, 68, 68); fill-opacity: 1; white-space: pre;">150</text></g><g class="xtick"><text text-anchor="middle" x="0" y="473" transform="translate(679,0)" style="font-family: 'Open Sans', verdana, arial, sans-serif; font-size: 12px; fill: rgb(68, 68, 68); fill-opacity: 1; white-space: pre;">200</text></g></g><g class="yaxislayer-above"><g class="ytick"><text text-anchor="end" x="59" y="4.199999999999999" transform="translate(0,438.25)" style="font-family: 'Open Sans', verdana, arial, sans-serif; font-size: 12px; fill: rgb(68, 68, 68); fill-opacity: 1; white-space: pre;">0</text></g><g class="ytick"><text text-anchor="end" x="59" y="4.199999999999999" transform="translate(0,360.25)" style="font-family: 'Open Sans', verdana, arial, sans-serif; font-size: 12px; fill: rgb(68, 68, 68); fill-opacity: 1; white-space: pre;">100</text></g><g class="ytick"><text text-anchor="end" x="59" y="4.199999999999999" transform="translate(0,282.26)" style="font-family: 'Open Sans', verdana, arial, sans-serif; font-size: 12px; fill: rgb(68, 68, 68); fill-opacity: 1; white-space: pre;">200</text></g><g class="ytick"><text text-anchor="end" x="59" y="4.199999999999999" transform="translate(0,204.26)" style="font-family: 'Open Sans', verdana, arial, sans-serif; font-size: 12px; fill: rgb(68, 68, 68); fill-opacity: 1; white-space: pre;">300</text></g><g class="ytick"><text text-anchor="end" x="59" y="4.199999999999999" transform="translate(0,126.26)" style="font-family: 'Open Sans', verdana, arial, sans-serif; font-size: 12px; fill: rgb(68, 68, 68); fill-opacity: 1; white-space: pre;">400</text></g><g class="ytick"><text text-anchor="end" x="59" y="4.199999999999999" transform="translate(0,48.269999999999996)" style="font-family: 'Open Sans', verdana, arial, sans-serif; font-size: 12px; fill: rgb(68, 68, 68); fill-opacity: 1; white-space: pre;">500</text></g></g><g class="overaxes-above"/></g></g><g class="polarlayer"/><g class="ternarylayer"/><g class="geolayer"/><g class="funnelarealayer"/><g class="pielayer"/><g class="treemaplayer"/><g class="sunburstlayer"/><g class="glimages"/><defs id="topdefs-5623a4"><g class="clips"/><clipPath id="legend5623a4"><rect width="117" height="140" x="0" y="0"/></clipPath></defs><g class="layer-above"><g class="imagelayer"/><g class="shapelayer"/></g><g class="infolayer"><g class="legend" pointer-events="all" transform="translate(90.95, 46.750000000000014)"><rect class="bg" shape-rendering="crispEdges" style="stroke: rgb(68, 68, 68); stroke-opacity: 1; fill: rgb(226, 226, 226); fill-opacity: 1; stroke-width: 0px;" width="117" height="140" x="0" y="0"/><g class="scrollbox" transform="translate(0, 0)" clip-path="url('#legend5623a4')"><text class="legendtitletext user-select-none" text-anchor="start" x="2" y="15.600000000000001" style="font-family: 'Open Sans', verdana, arial, sans-serif; font-size: 12px; fill: rgb(68, 68, 68); fill-opacity: 1; white-space: pre;"><tspan style="font-weight:bold"> Identification Time </tspan></text><g class="groups"><g class="traces" transform="translate(0, 30.1)" style="opacity: 1;"><text class="legendtext user-select-none" text-anchor="start" x="40" y="4.680000000000001" style="font-family: 'Open Sans', verdana, arial, sans-serif; font-size: 12px; fill: rgb(68, 68, 68); fill-opacity: 1; white-space: pre;">0 Months</text><g class="layers" style="opacity: 1;"><g class="legendfill"/><g class="legendlines"><path class="js-line" d="M5,0h30" style="fill: none; stroke: rgb(31, 119, 180); stroke-opacity: 1; stroke-width: 2px;"/></g><g class="legendsymbols"><g class="legendpoints"/></g></g><rect class="legendtoggle" pointer-events="all" x="0" y="-9.5" width="98.046875" height="19" style="cursor: pointer; fill: rgb(0, 0, 0); fill-opacity: 0;"/></g><g class="traces" transform="translate(0, 49.1)" style="opacity: 1;"><text class="legendtext user-select-none" text-anchor="start" x="40" y="4.680000000000001" style="font-family: 'Open Sans', verdana, arial, sans-serif; font-size: 12px; fill: rgb(68, 68, 68); fill-opacity: 1; white-space: pre;">3 Months</text><g class="layers" style="opacity: 1;"><g class="legendfill"/><g class="legendlines"><path class="js-line" d="M5,0h30" style="fill: none; stroke: rgb(255, 127, 14); stroke-opacity: 1; stroke-width: 2px;"/></g><g class="legendsymbols"><g class="legendpoints"/></g></g><rect class="legendtoggle" pointer-events="all" x="0" y="-9.5" width="98.046875" height="19" style="cursor: pointer; fill: rgb(0, 0, 0); fill-opacity: 0;"/></g><g class="traces" transform="translate(0, 68.1)" style="opacity: 1;"><text class="legendtext user-select-none" text-anchor="start" x="40" y="4.680000000000001" style="font-family: 'Open Sans', verdana, arial, sans-serif; font-size: 12px; fill: rgb(68, 68, 68); fill-opacity: 1; white-space: pre;">6 Months</text><g class="layers" style="opacity: 1;"><g class="legendfill"/><g class="legendlines"><path class="js-line" d="M5,0h30" style="fill: none; stroke: rgb(44, 160, 44); stroke-opacity: 1; stroke-width: 2px;"/></g><g class="legendsymbols"><g class="legendpoints"/></g></g><rect class="legendtoggle" pointer-events="all" x="0" y="-9.5" width="98.046875" height="19" style="cursor: pointer; fill: rgb(0, 0, 0); fill-opacity: 0;"/></g><g class="traces" transform="translate(0, 87.1)" style="opacity: 1;"><text class="legendtext user-select-none" text-anchor="start" x="40" y="4.680000000000001" style="font-family: 'Open Sans', verdana, arial, sans-serif; font-size: 12px; fill: rgb(68, 68, 68); fill-opacity: 1; white-space: pre;">12 Months</text><g class="layers" style="opacity: 1;"><g class="legendfill"/><g class="legendlines"><path class="js-line" d="M5,0h30" style="fill: none; stroke: rgb(214, 39, 40); stroke-opacity: 1; stroke-width: 2px;"/></g><g class="legendsymbols"><g class="legendpoints"/></g></g><rect class="legendtoggle" pointer-events="all" x="0" y="-9.5" width="98.046875" height="19" style="cursor: pointer; fill: rgb(0, 0, 0); fill-opacity: 0;"/></g><g class="traces" transform="translate(0, 106.1)" style="opacity: 1;"><text class="legendtext user-select-none" text-anchor="start" x="40" y="4.680000000000001" style="font-family: 'Open Sans', verdana, arial, sans-serif; font-size: 12px; fill: rgb(68, 68, 68); fill-opacity: 1; white-space: pre;">24 Months</text><g class="layers" style="opacity: 1;"><g class="legendfill"/><g class="legendlines"><path class="js-line" d="M5,0h30" style="fill: none; stroke: rgb(148, 103, 189); stroke-opacity: 1; stroke-width: 2px;"/></g><g class="legendsymbols"><g class="legendpoints"/></g></g><rect class="legendtoggle" pointer-events="all" x="0" y="-9.5" width="98.046875" height="19" style="cursor: pointer; fill: rgb(0, 0, 0); fill-opacity: 0;"/></g><g class="traces" transform="translate(0, 125.1)" style="opacity: 1;"><text class="legendtext user-select-none" text-anchor="start" x="40" y="4.680000000000001" style="font-family: 'Open Sans', verdana, arial, sans-serif; font-size: 12px; fill: rgb(68, 68, 68); fill-opacity: 1; white-space: pre;">36 Months</text><g class="layers" style="opacity: 1;"><g class="legendfill"/><g class="legendlines"><path class="js-line" d="M5,0h30" style="fill: none; stroke: rgb(140, 86, 75); stroke-opacity: 1; stroke-width: 2px;"/></g><g class="legendsymbols"><g class="legendpoints"/></g></g><rect class="legendtoggle" pointer-events="all" x="0" y="-9.5" width="98.046875" height="19" style="cursor: pointer; fill: rgb(0, 0, 0); fill-opacity: 0;"/></g></g></g><rect class="scrollbar" rx="20" ry="3" width="0" height="0" style="fill: rgb(128, 139, 164); fill-opacity: 1;" x="0" y="0"/></g><g class="g-gtitle"><text class="gtitle" x="350" y="12.5" text-anchor="middle" dy="0em" style="font-family: 'Open Sans', verdana, arial, sans-serif; font-size: 17px; fill: rgb(68, 68, 68); opacity: 1; font-weight: normal; white-space: pre;"><tspan style="font-weight:bold"> Leprosy Incidence MB - Immunity Vaccine 0.0, Treatment 25% </tspan></text></g><g class="g-xtitle" transform="translate(0,-15)"><text class="xtitle" x="369.5" y="512" text-anchor="middle" style="font-family: 'Open Sans', verdana, arial, sans-serif; font-size: 14px; fill: rgb(68, 68, 68); opacity: 1; font-weight: normal; white-space: pre;">Time(Years)</text></g><g class="g-ytitle"><text class="ytitle" transform="rotate(-90,22,242.5)" x="22" y="242.5" text-anchor="middle" style="font-family: 'Open Sans', verdana, arial, sans-serif; font-size: 14px; fill: rgb(68, 68, 68); opacity: 1; font-weight: normal; white-space: pre;">Number of new infectiuos individuals</text></g></g></svg>