<svg class="main-svg" xmlns="http://www.w3.org/2000/svg" xmlns:xlink="http://www.w3.org/1999/xlink" width="700" height="500" style="" viewBox="0 0 700 500"><rect x="0" y="0" width="700" height="500" style="fill: rgb(255, 255, 255); fill-opacity: 1;"/><defs id="defs-a33170"><g class="clips"><clipPath id="clipa33170xyplot" class="plotclip"><rect width="619" height="435"/></clipPath><clipPath class="axesclip" id="clipa33170x"><rect x="60" y="0" width="619" height="500"/></clipPath><clipPath class="axesclip" id="clipa33170y"><rect x="0" y="25" width="700" height="435"/></clipPath><clipPath class="axesclip" id="clipa33170xy"><rect x="60" y="25" width="619" height="435"/></clipPath></g><g class="gradients"/></defs><g class="bglayer"/><g class="layer-below"><g class="imagelayer"/><g class="shapelayer"/></g><g class="cartesianlayer"><g class="subplot xy"><g class="layer-subplot"><g class="shapelayer"/><g class="imagelayer"/></g><g class="gridlayer"><g class="x"><path class="xgrid crisp" transform="translate(212.42,0)" d="M0,25v435" style="stroke: rgb(238, 238, 238); stroke-opacity: 1; stroke-width: 1px;"/><path class="xgrid crisp" transform="translate(367.94,0)" d="M0,25v435" style="stroke: rgb(238, 238, 238); stroke-opacity: 1; stroke-width: 1px;"/><path class="xgrid crisp" transform="translate(523.47,0)" d="M0,25v435" style="stroke: rgb(238, 238, 238); stroke-opacity: 1; stroke-width: 1px;"/></g><g class="y"><path class="ygrid crisp" transform="translate(0,363.36)" d="M60,0h619" style="stroke: rgb(238, 238, 238); stroke-opacity: 1; stroke-width: 1px;"/><path class="ygrid crisp" transform="translate(0,288.47)" d="M60,0h619" style="stroke: rgb(238, 238, 238); stroke-opacity: 1; stroke-width: 1px;"/><path class="ygrid crisp" transform="translate(0,213.57)" d="M60,0h619" style="stroke: rgb(238, 238, 238); stroke-opacity: 1; stroke-width: 1px;"/><path class="ygrid crisp" transform="translate(0,138.68)" d="M60,0h619" style="stroke: rgb(238, 238, 238); stroke-opacity: 1; stroke-width: 1px;"/><path class="ygrid crisp" transform="translate(0,63.79)" d="M60,0h619" style="stroke: rgb(238, 238, 238); stroke-opacity: 1; stroke-width: 1px;"/></g></g><g class="zerolinelayer"><path class="yzl zl crisp" transform="translate(0,438.25)" d="M60,0h619" style="stroke: rgb(68, 68, 68); stroke-opacity: 1; stroke-width: 1px;"/></g><path class="xlines-below"/><path class="ylines-below"/><g class="overlines-below"/><g class="xaxislayer-below"/><g class="yaxislayer-below"/><g class="overaxes-below"/><g class="plot" transform="translate(60, 25)" clip-path="url('#clipa33170xyplot')"><g class="scatterlayer mlayer"><g class="trace scatter trace937683" style="stroke-miterlimit: 2; opacity: 1;"><g class="fills"/><g class="errorbars"/><g class="lines"><path class="js-line" d="M0,409.02L3.11,413.25L6.22,413.25L9.33,407.22L12.44,410.24L34.22,405.93L37.33,404.79L43.55,403.01L46.66,401.79L55.99,399.15L59.1,397.58L68.43,393.91L71.54,392.79L74.65,391.18L77.76,390.93L80.87,387.97L83.98,386.7L87.1,386.85L90.21,383.33L93.32,380.45L96.43,380.33L108.87,371.31L111.98,371.7L115.09,369.59L118.2,364.72L124.42,361.16L127.53,358.67L130.64,357.83L133.75,354.33L139.97,347.57L143.09,347.85L146.2,344.59L149.31,338.08L155.53,334.29L158.64,331.19L161.75,328.6L164.86,322.41L167.97,322.33L171.08,315.27L174.19,314.11L177.3,309.71L180.41,302.45L183.52,300.8L186.63,297.93L189.74,296.49L195.96,286.72L199.08,279.77L202.19,277.81L205.3,272.49L208.41,268.91L211.52,262.81L214.63,257.92L217.74,249.63L220.85,250.27L223.96,239.74L230.18,234.67L233.29,225.49L236.4,220.68L239.51,211.23L242.62,210.5L245.73,200.76L248.84,198.03L251.95,188.46L261.29,169.79L264.4,160.68L270.62,144.22L273.73,136.77L276.84,131.97L279.95,123.98L283.06,108.61L286.17,103.74L295.5,73.33L298.61,67.51L301.72,58.97L304.83,46.8L307.94,37.37L311.06,41.07L314.17,48.86L317.28,62.68L320.39,71.55L323.5,101.44L329.72,142.93L332.83,147.89L335.94,163.73L339.05,174.94L342.16,189.86L345.27,200.29L348.38,209.9L351.49,211.08L354.6,216.9L357.71,213.53L360.82,214.82L363.93,214.37L373.27,220.07L376.38,220.5L379.49,224.78L382.6,226.75L385.71,232.25L388.82,232.12L391.93,231.06L395.04,234.89L398.15,235.72L401.26,229.58L404.37,235.34L407.48,238.02L410.59,237.35L413.7,238.9L416.81,239.67L419.92,238.92L423.04,237.48L426.15,239.74L429.26,243.53L432.37,240.6L435.48,242.27L438.59,242.1L441.7,245.96L444.81,243.11L451.03,246.48L454.14,250.38L457.25,248.84L460.36,248.51L463.47,248.21L466.58,251.73L469.69,252.96L472.8,250.71L475.91,253.92L479.03,254.76L482.14,250.49L485.25,252.34L491.47,254.78L494.58,253.84L497.69,255.32L500.8,254.18L503.91,254.16L507.02,253.11L510.13,257.06L513.24,258.54L516.35,259.66L519.46,263.47L522.57,262.72L525.68,258.07L528.79,261.39L531.9,261.14L535.02,262.15L538.13,261.84L541.24,259.68L544.35,263.91L547.46,260.24L550.57,264.63L556.79,266.16L559.9,264.12L563.01,264.23L566.12,265.73L569.23,263.67L572.34,266.7L575.45,267.06L578.56,265.58L581.67,269.38L584.78,265.92L587.89,267.36L591.01,265.04L594.12,266.65L597.23,265.45L600.34,266.18L603.45,266.07L606.56,268.8L609.67,268.8L612.78,270.6L615.89,269.89L619,269.94" style="vector-effect: non-scaling-stroke; fill: none; stroke: rgb(31, 119, 180); stroke-opacity: 1; stroke-width: 2px; opacity: 1;"/></g><g class="points"/><g class="text"/></g><g class="trace scatter trace1a4bb0" style="stroke-miterlimit: 2; opacity: 1;"><g class="fills"/><g class="errorbars"/><g class="lines"><path class="js-line" d="M0,409.19L3.11,413.25L6.22,413.25L9.33,407.22L12.44,410.24L34.22,405.93L37.33,404.79L43.55,403.01L46.66,401.79L55.99,399.15L59.1,397.58L68.43,393.91L71.54,392.79L74.65,391.18L77.76,390.93L80.87,387.97L83.98,386.7L87.1,386.85L90.21,383.33L93.32,380.45L96.43,380.33L108.87,371.31L111.98,371.7L115.09,369.59L118.2,364.72L124.42,361.16L127.53,358.67L130.64,357.83L133.75,354.33L139.97,347.57L143.09,347.85L146.2,344.59L149.31,338.08L155.53,334.29L158.64,331.19L161.75,328.6L164.86,322.41L167.97,322.33L171.08,315.27L174.19,314.11L177.3,309.71L180.41,302.45L183.52,300.8L186.63,297.93L189.74,296.49L195.96,286.72L199.08,279.77L202.19,277.81L205.3,272.49L208.41,268.91L211.52,262.81L214.63,257.92L217.74,249.63L220.85,250.27L223.96,239.74L230.18,234.67L233.29,225.49L236.4,220.68L239.51,211.23L242.62,210.5L245.73,200.76L248.84,198.03L251.95,188.46L261.29,169.79L264.4,160.68L270.62,144.22L273.73,136.77L276.84,131.97L279.95,123.98L283.06,108.61L286.17,103.74L295.5,73.33L298.61,67.51L301.72,58.97L304.83,46.8L307.94,37.37L311.06,35.92L314.17,44.76L317.28,57.04L320.39,68.71L323.5,100.14L335.94,158.65L339.05,170.79L342.16,181.98L345.27,196.87L348.38,206.14L351.49,207.5L354.6,208.06L357.71,206.88L363.93,210.12L367.05,209.32L373.27,212.73L376.38,216.73L379.49,216.53L382.6,219.37L385.71,222.09L388.82,225.93L391.93,224.93L395.04,226.22L398.15,224.22L401.26,226.11L404.37,221.09L407.48,231.39L410.59,222.99L413.7,230.66L416.81,229.22L419.92,230.64L426.15,230.7L429.26,226.49L432.37,232.7L435.48,237.1L438.59,232.78L441.7,232.4L444.81,235.29L447.92,236.47L451.03,235.77L454.14,238.25L457.25,237.1L460.36,239.14L463.47,236.93L466.58,237.55L469.69,240.72L472.8,240.62L475.91,240.04L479.03,242.74L482.14,242.2L485.25,243.43L488.36,240.66L491.47,242.01L497.69,246.11L500.8,243.64L510.13,245.49L513.24,246.91L519.46,249.31L522.57,246.58L525.68,249.69L528.79,249.89L531.9,250.28L535.02,246.99L538.13,248.3L541.24,251.73L544.35,252.12L547.46,251.11L556.79,253.19L559.9,252.08L563.01,251.97L566.12,250.38L569.23,253.19L572.34,253.9L575.45,251.31L578.56,251.84L581.67,252.98L584.78,252.66L587.89,258.24L591.01,252.77L594.12,251.93L597.23,253.22L600.34,255.7L603.45,253.9L609.67,253.62L612.78,254.85L615.89,257.74L619,254.35" style="vector-effect: non-scaling-stroke; fill: none; stroke: rgb(255, 127, 14); stroke-opacity: 1; stroke-width: 2px; opacity: 1;"/></g><g class="points"/><g class="text"/></g><g class="trace scatter trace369471" style="stroke-miterlimit: 2; opacity: 1;"><g class="fills"/><g class="errorbars"/><g class="lines"><path class="js-line" d="M0,409.02L3.11,413.25L6.22,413.25L9.33,407.22L12.44,410.24L34.22,405.93L37.33,404.79L43.55,403.01L46.66,401.79L55.99,399.15L59.1,397.58L68.43,393.91L71.54,392.79L74.65,391.18L77.76,390.93L80.87,387.97L83.98,386.7L87.1,386.85L90.21,383.33L93.32,380.45L96.43,380.33L108.87,371.31L111.98,371.7L115.09,369.59L118.2,364.72L124.42,361.16L127.53,358.67L130.64,357.83L133.75,354.33L139.97,347.57L143.09,347.85L146.2,344.59L149.31,338.08L155.53,334.29L158.64,331.19L161.75,328.6L164.86,322.41L167.97,322.33L171.08,315.27L174.19,314.11L177.3,309.71L180.41,302.45L183.52,300.8L186.63,297.93L189.74,296.49L195.96,286.72L199.08,279.77L202.19,277.81L205.3,272.49L208.41,268.91L211.52,262.81L214.63,257.92L217.74,249.63L220.85,250.27L223.96,239.74L230.18,234.67L233.29,225.49L236.4,220.68L239.51,211.23L242.62,210.5L245.73,200.76L248.84,198.03L251.95,188.46L261.29,169.79L264.4,160.68L270.62,144.22L273.73,136.77L276.84,131.97L279.95,123.98L283.06,108.61L286.17,103.74L295.5,73.33L298.61,67.51L301.72,58.97L304.83,46.8L307.94,37.37L311.06,31.86L317.28,56.56L320.39,63.47L323.5,93.25L326.61,111.1L332.83,140.32L335.94,154.27L339.05,170.56L342.16,182L345.27,187.43L348.38,199.49L351.49,203.46L354.6,204.04L360.82,199.69L363.93,208.57L367.05,204.84L370.16,208.1L373.27,206.68L376.38,212.24L379.49,212.28L382.6,215.8L385.71,217.07L388.82,220.96L391.93,220.36L395.04,221.77L398.15,219.8L401.26,222.12L404.37,219.33L407.48,217.91L410.59,224.3L413.7,223.66L416.81,220.61L419.92,219.92L423.04,224.33L426.15,222.35L432.37,228.27L435.48,227.03L438.59,228.92L441.7,224.91L444.81,225.16L447.92,227.35L451.03,229.67L454.14,230.49L463.47,228.13L466.58,228.9L469.69,231.71L472.8,228.42L475.91,231L479.03,232.09L482.14,230.79L485.25,232.27L488.36,235.81L491.47,234.76L494.58,233.25L497.69,234.97L500.8,232.5L503.91,235.32L510.13,234.97L513.24,238.43L516.35,234.31L519.46,234.73L522.57,236.04L525.68,239.03L528.79,232.95L531.9,235.62L535.02,236.22L538.13,238.1L541.24,239.35L544.35,237.05L553.68,241L556.79,238.1L559.9,239.18L563.01,237.83L566.12,242.81L569.23,240.19L572.34,241.05L575.45,238.6L578.56,237.14L581.67,239.93L587.89,241.03L591.01,239.56L594.12,239.59L597.23,242.53L600.34,240.6L603.45,243.82L606.56,244.2L609.67,240.3L612.78,242.46L615.89,241.5L619,240.7" style="vector-effect: non-scaling-stroke; fill: none; stroke: rgb(44, 160, 44); stroke-opacity: 1; stroke-width: 2px; opacity: 1;"/></g><g class="points"/><g class="text"/></g><g class="trace scatter trace0feafd" style="stroke-miterlimit: 2; opacity: 1;"><g class="fills"/><g class="errorbars"/><g class="lines"><path class="js-line" d="M0,408.96L3.11,413.25L6.22,413.25L9.33,407.22L12.44,410.24L34.22,405.93L37.33,404.79L43.55,403.01L46.66,401.79L55.99,399.15L59.1,397.58L68.43,393.91L71.54,392.79L74.65,391.18L77.76,390.93L80.87,387.97L83.98,386.7L87.1,386.85L90.21,383.33L93.32,380.45L96.43,380.33L108.87,371.31L111.98,371.7L115.09,369.59L118.2,364.72L124.42,361.16L127.53,358.67L130.64,357.83L133.75,354.33L139.97,347.57L143.09,347.85L146.2,344.59L149.31,338.08L155.53,334.29L158.64,331.19L161.75,328.6L164.86,322.41L167.97,322.33L171.08,315.27L174.19,314.11L177.3,309.71L180.41,302.45L183.52,300.8L186.63,297.93L189.74,296.49L195.96,286.72L199.08,279.77L202.19,277.81L205.3,272.49L208.41,268.91L211.52,262.81L214.63,257.92L217.74,249.63L220.85,250.27L223.96,239.74L230.18,234.67L233.29,225.49L236.4,220.68L239.51,211.23L242.62,210.5L245.73,200.76L248.84,198.03L251.95,188.46L261.29,169.79L264.4,160.68L270.62,144.22L273.73,136.77L276.84,131.97L279.95,123.98L283.06,108.61L286.17,103.74L295.5,73.33L298.61,67.51L301.72,58.97L304.83,46.8L307.94,37.37L311.06,33.73L314.17,34.84L317.28,47.01L320.39,53.71L323.5,84.14L329.72,111.13L332.83,133.25L335.94,143.28L339.05,156.82L342.16,168.03L345.27,176.31L351.49,195.84L354.6,194.25L357.71,193.98L360.82,194.55L367.05,193.38L370.16,192.06L373.27,193.67L376.38,193.48L379.49,198.5L382.6,197.13L385.71,201.77L388.82,203.18L391.93,201.64L395.04,205.37L398.15,203.29L401.26,203.33L404.37,202.88L407.48,208.76L410.59,205.76L413.7,205.84L416.81,206.88L419.92,206.62L423.04,206.08L426.15,209.64L429.26,206.1L432.37,205.37L435.48,207.78L438.59,207.86L441.7,210.1L444.81,208.42L447.92,209.07L451.03,206.64L454.14,209.79L457.25,208.83L460.36,210.25L463.47,209.8L466.58,210.78L469.69,208.63L475.91,209.49L479.03,209.36L482.14,213.21L485.25,212.95L491.47,208.29L494.58,210.65L497.69,209.24L500.8,211.34L503.91,209.24L507.02,209.41L510.13,215.37L513.24,209.41L516.35,209.51L519.46,206.62L522.57,209.11L525.68,207.35L528.79,210.33L531.9,205.12L541.24,207.05L544.35,208.98L547.46,205.57L550.57,206.02L553.68,203.1L556.79,207.58L559.9,207.26L563.01,205.99L566.12,207.65L569.23,203.29L572.34,204.26L575.45,200.89L578.56,205.97L581.67,204L584.78,207.37L587.89,205.8L591.01,206.43L594.12,200.27L597.23,205.03L600.34,202.93L603.45,198.51L606.56,205.16L609.67,203.2L612.78,199.08L615.89,199.45L619,204.32" style="vector-effect: non-scaling-stroke; fill: none; stroke: rgb(214, 39, 40); stroke-opacity: 1; stroke-width: 2px; opacity: 1;"/></g><g class="points"/><g class="text"/></g><g class="trace scatter trace5b310c" style="stroke-miterlimit: 2; opacity: 1;"><g class="fills"/><g class="errorbars"/><g class="lines"><path class="js-line" d="M0,408.76L3.11,413.25L6.22,413.25L9.33,407.22L12.44,410.24L34.22,405.93L37.33,404.79L43.55,403.01L46.66,401.79L55.99,399.15L59.1,397.58L68.43,393.91L71.54,392.79L74.65,391.18L77.76,390.93L80.87,387.97L83.98,386.7L87.1,386.85L90.21,383.33L93.32,380.45L96.43,380.33L108.87,371.31L111.98,371.7L115.09,369.59L118.2,364.72L124.42,361.16L127.53,358.67L130.64,357.83L133.75,354.33L139.97,347.57L143.09,347.85L146.2,344.59L149.31,338.08L155.53,334.29L158.64,331.19L161.75,328.6L164.86,322.41L167.97,322.33L171.08,315.27L174.19,314.11L177.3,309.71L180.41,302.45L183.52,300.8L186.63,297.93L189.74,296.49L195.96,286.72L199.08,279.77L202.19,277.81L205.3,272.49L208.41,268.91L211.52,262.81L214.63,257.92L217.74,249.63L220.85,250.27L223.96,239.74L230.18,234.67L233.29,225.49L236.4,220.68L239.51,211.23L242.62,210.5L245.73,200.76L248.84,198.03L251.95,188.46L261.29,169.79L264.4,160.68L270.62,144.22L273.73,136.77L276.84,131.97L279.95,123.98L283.06,108.61L286.17,103.74L295.5,73.33L298.61,67.51L301.72,58.97L304.83,46.8L311.06,28.86L314.17,27.48L317.28,32.38L320.39,44.39L326.61,82.23L329.72,94.45L335.94,125.42L339.05,135.72L345.27,157.38L348.38,167.21L354.6,176.68L357.71,172.21L360.82,172.19L363.93,171.05L367.05,171.46L370.16,165.39L373.27,169.64L376.38,170.32L379.49,172.36L382.6,169.18L385.71,173.33L388.82,174.21L395.04,179.32L398.15,176.05L401.26,177L404.37,172.3L407.48,173.28L410.59,169.1L413.7,167.51L416.81,171.42L419.92,170.43L423.04,170.67L426.15,170L429.26,168.56L432.37,170.99L435.48,168.46L438.59,170.36L441.7,168.46L444.81,168.93L447.92,164.01L451.03,165.04L454.14,168.54L457.25,166.69L460.36,166.89L463.47,164.72L466.58,157.55L469.69,160.97L472.8,166.57L475.91,161.33L479.03,159.61L482.14,160.58L485.25,163.26L488.36,157.31L491.47,160.81L497.69,155.56L500.8,157.38L503.91,157.68L507.02,159.66L510.13,156.67L513.24,154.74L516.35,159.22L519.46,153.13L522.57,150.06L525.68,152.01L528.79,147.33L531.9,148L535.02,148.69L538.13,147.74L541.24,147.23L544.35,148.07L547.46,152.42L550.57,145.73L553.68,146.31L556.79,142.51L559.9,143.99L563.01,136.8L566.12,137.83L569.23,142.42L572.34,138.84L575.45,137.85L578.56,138.71L581.67,134.87L584.78,136.04L587.89,133.55L591.01,129.58L594.12,128.88L597.23,127.31L600.34,130.03L603.45,125.98L606.56,125.64L609.67,125.68L612.78,120.89L615.89,120.94L619,126.36" style="vector-effect: non-scaling-stroke; fill: none; stroke: rgb(148, 103, 189); stroke-opacity: 1; stroke-width: 2px; opacity: 1;"/></g><g class="points"/><g class="text"/></g><g class="trace scatter trace2c6bfb" style="stroke-miterlimit: 2; opacity: 1;"><g class="fills"/><g class="errorbars"/><g class="lines"><path class="js-line" d="M0,408.53L3.11,413.25L6.22,413.25L9.33,407.22L12.44,410.24L34.22,405.93L37.33,404.79L43.55,403.01L46.66,401.79L55.99,399.15L59.1,397.58L68.43,393.91L71.54,392.79L74.65,391.18L77.76,390.93L80.87,387.97L83.98,386.7L87.1,386.85L90.21,383.33L93.32,380.45L96.43,380.33L108.87,371.31L111.98,371.7L115.09,369.59L118.2,364.72L124.42,361.16L127.53,358.67L130.64,357.83L133.75,354.33L139.97,347.57L143.09,347.85L146.2,344.59L149.31,338.08L155.53,334.29L158.64,331.19L161.75,328.6L164.86,322.41L167.97,322.33L171.08,315.27L174.19,314.11L177.3,309.71L180.41,302.45L183.52,300.8L186.63,297.93L189.74,296.49L195.96,286.72L199.08,279.77L202.19,277.81L205.3,272.49L208.41,268.91L211.52,262.81L214.63,257.92L217.74,249.63L220.85,250.27L223.96,239.74L230.18,234.67L233.29,225.49L236.4,220.68L239.51,211.23L242.62,210.5L245.73,200.76L248.84,198.03L251.95,188.46L261.29,169.79L264.4,160.68L270.62,144.22L273.73,136.77L276.84,131.97L279.95,123.98L283.06,108.61L286.17,103.74L295.5,73.33L298.61,67.51L301.72,58.97L304.83,46.8L311.06,27.93L314.17,24.93L317.28,21.75L320.39,29.63L323.5,49.85L326.61,63.67L332.83,90.71L335.94,104.99L339.05,114.9L342.16,127.4L348.38,146.52L351.49,150.9L354.6,157.62L357.71,154.01L360.82,157.77L363.93,151.56L367.05,150.7L370.16,148.37L373.27,142.4L376.38,145.12L382.6,143.75L385.71,146.65L388.82,145.04L391.93,145.72L395.04,144.37L398.15,144.85L401.26,142.25L404.37,141.88L407.48,143.69L410.59,136.82L413.7,139.22L416.81,135.7L419.92,138.6L423.04,140.32L426.15,137.1L429.26,132.03L432.37,136.02L435.48,132.87L438.59,129.78L441.7,131.6L444.81,128.92L447.92,129.95L451.03,119.8L454.14,125.59L457.25,122.85L460.36,124.24L463.47,120.35L466.58,118.89L469.69,114.02L472.8,111.15L475.91,112.44L479.03,116.23L482.14,114.99L485.25,109.54L488.36,109.69L491.47,108.29L494.58,108.49L497.69,106.38L500.8,105.4L503.91,106.27L507.02,104.39L510.13,95.67L513.24,95.8L516.35,97.95L519.46,98.48L522.57,96.32L525.68,89.66L528.79,93.22L531.9,85.95L535.02,85.67L538.13,86.34L541.24,80.09L544.35,81.18L547.46,80.78L553.68,81.01L556.79,74.06L559.9,74.74L563.01,74.06L566.12,71.27L569.23,71.91L572.34,70.99L575.45,68.63L581.67,59.03L584.78,56.35L587.89,52.61L591.01,53.06L594.12,52.25L597.23,47.87L603.45,42.63L606.56,42.63L609.67,36.5L612.78,41L615.89,34.89L619,39.29" style="vector-effect: non-scaling-stroke; fill: none; stroke: rgb(140, 86, 75); stroke-opacity: 1; stroke-width: 2px; opacity: 1;"/></g><g class="points"/><g class="text"/></g></g></g><g class="overplot"/><path class="xlines-above crisp" style="fill: none;" d="M0,0"/><path class="ylines-above crisp" style="fill: none;" d="M0,0"/><g class="overlines-above"/><g class="xaxislayer-above"><g class="xtick"><text text-anchor="middle" x="0" y="473" transform="translate(212.42,0)" style="font-family: 'Open Sans', verdana, arial, sans-serif; font-size: 12px; fill: rgb(68, 68, 68); fill-opacity: 1; white-space: pre;">50</text></g><g class="xtick"><text text-anchor="middle" x="0" y="473" transform="translate(367.94,0)" style="font-family: 'Open Sans', verdana, arial, sans-serif; font-size: 12px; fill: rgb(68, 68, 68); fill-opacity: 1; white-space: pre;">100</text></g><g class="xtick"><text text-anchor="middle" x="0" y="473" transform="translate(523.47,0)" style="font-family: 'Open Sans', verdana, arial, sans-serif; font-size: 12px; fill: rgb(68, 68, 68); fill-opacity: 1; white-space: pre;">150</text></g><g class="xtick"><text text-anchor="middle" x="0" y="473" transform="translate(679,0)" style="font-family: 'Open Sans', verdana, arial, sans-serif; font-size: 12px; fill: rgb(68, 68, 68); fill-opacity: 1; white-space: pre;">200</text></g></g><g class="yaxislayer-above"><g class="ytick"><text text-anchor="end" x="59" y="4.199999999999999" transform="translate(0,438.25)" style="font-family: 'Open Sans', verdana, arial, sans-serif; font-size: 12px; fill: rgb(68, 68, 68); fill-opacity: 1; white-space: pre;">0</text></g><g class="ytick"><text text-anchor="end" x="59" y="4.199999999999999" transform="translate(0,363.36)" style="font-family: 'Open Sans', verdana, arial, sans-serif; font-size: 12px; fill: rgb(68, 68, 68); fill-opacity: 1; white-space: pre;">20</text></g><g class="ytick"><text text-anchor="end" x="59" y="4.199999999999999" transform="translate(0,288.47)" style="font-family: 'Open Sans', verdana, arial, sans-serif; font-size: 12px; fill: rgb(68, 68, 68); fill-opacity: 1; white-space: pre;">40</text></g><g class="ytick"><text text-anchor="end" x="59" y="4.199999999999999" transform="translate(0,213.57)" style="font-family: 'Open Sans', verdana, arial, sans-serif; font-size: 12px; fill: rgb(68, 68, 68); fill-opacity: 1; white-space: pre;">60</text></g><g class="ytick"><text text-anchor="end" x="59" y="4.199999999999999" transform="translate(0,138.68)" style="font-family: 'Open Sans', verdana, arial, sans-serif; font-size: 12px; fill: rgb(68, 68, 68); fill-opacity: 1; white-space: pre;">80</text></g><g class="ytick"><text text-anchor="end" x="59" y="4.199999999999999" transform="translate(0,63.79)" style="font-family: 'Open Sans', verdana, arial, sans-serif; font-size: 12px; fill: rgb(68, 68, 68); fill-opacity: 1; white-space: pre;">100</text></g></g><g class="overaxes-above"/></g></g><g class="polarlayer"/><g class="ternarylayer"/><g class="geolayer"/><g class="funnelarealayer"/><g class="pielayer"/><g class="treemaplayer"/><g class="sunburstlayer"/><g class="glimages"/><defs id="topdefs-a33170"><g class="clips"/><clipPath id="legenda33170"><rect width="117" height="140" x="0" y="0"/></clipPath></defs><g class="layer-above"><g class="imagelayer"/><g class="shapelayer"/></g><g class="infolayer"><g class="legend" pointer-events="all" transform="translate(90.95, 46.750000000000014)"><rect class="bg" shape-rendering="crispEdges" style="stroke: rgb(68, 68, 68); stroke-opacity: 1; fill: rgb(226, 226, 226); fill-opacity: 1; stroke-width: 0px;" width="117" height="140" x="0" y="0"/><g class="scrollbox" transform="translate(0, 0)" clip-path="url('#legenda33170')"><text class="legendtitletext user-select-none" text-anchor="start" x="2" y="15.600000000000001" style="font-family: 'Open Sans', verdana, arial, sans-serif; font-size: 12px; fill: rgb(68, 68, 68); fill-opacity: 1; white-space: pre;"><tspan style="font-weight:bold"> Identification Time </tspan></text><g class="groups"><g class="traces" transform="translate(0, 30.1)" style="opacity: 1;"><text class="legendtext user-select-none" text-anchor="start" x="40" y="4.680000000000001" style="font-family: 'Open Sans', verdana, arial, sans-serif; font-size: 12px; fill: rgb(68, 68, 68); fill-opacity: 1; white-space: pre;">0 Months</text><g class="layers" style="opacity: 1;"><g class="legendfill"/><g class="legendlines"><path class="js-line" d="M5,0h30" style="fill: none; stroke: rgb(31, 119, 180); stroke-opacity: 1; stroke-width: 2px;"/></g><g class="legendsymbols"><g class="legendpoints"/></g></g><rect class="legendtoggle" pointer-events="all" x="0" y="-9.5" width="98.046875" height="19" style="cursor: pointer; fill: rgb(0, 0, 0); fill-opacity: 0;"/></g><g class="traces" transform="translate(0, 49.1)" style="opacity: 1;"><text class="legendtext user-select-none" text-anchor="start" x="40" y="4.680000000000001" style="font-family: 'Open Sans', verdana, arial, sans-serif; font-size: 12px; fill: rgb(68, 68, 68); fill-opacity: 1; white-space: pre;">3 Months</text><g class="layers" style="opacity: 1;"><g class="legendfill"/><g class="legendlines"><path class="js-line" d="M5,0h30" style="fill: none; stroke: rgb(255, 127, 14); stroke-opacity: 1; stroke-width: 2px;"/></g><g class="legendsymbols"><g class="legendpoints"/></g></g><rect class="legendtoggle" pointer-events="all" x="0" y="-9.5" width="98.046875" height="19" style="cursor: pointer; fill: rgb(0, 0, 0); fill-opacity: 0;"/></g><g class="traces" transform="translate(0, 68.1)" style="opacity: 1;"><text class="legendtext user-select-none" text-anchor="start" x="40" y="4.680000000000001" style="font-family: 'Open Sans', verdana, arial, sans-serif; font-size: 12px; fill: rgb(68, 68, 68); fill-opacity: 1; white-space: pre;">6 Months</text><g class="layers" style="opacity: 1;"><g class="legendfill"/><g class="legendlines"><path class="js-line" d="M5,0h30" style="fill: none; stroke: rgb(44, 160, 44); stroke-opacity: 1; stroke-width: 2px;"/></g><g class="legendsymbols"><g class="legendpoints"/></g></g><rect class="legendtoggle" pointer-events="all" x="0" y="-9.5" width="98.046875" height="19" style="cursor: pointer; fill: rgb(0, 0, 0); fill-opacity: 0;"/></g><g class="traces" transform="translate(0, 87.1)" style="opacity: 1;"><text class="legendtext user-select-none" text-anchor="start" x="40" y="4.680000000000001" style="font-family: 'Open Sans', verdana, arial, sans-serif; font-size: 12px; fill: rgb(68, 68, 68); fill-opacity: 1; white-space: pre;">12 Months</text><g class="layers" style="opacity: 1;"><g class="legendfill"/><g class="legendlines"><path class="js-line" d="M5,0h30" style="fill: none; stroke: rgb(214, 39, 40); stroke-opacity: 1; stroke-width: 2px;"/></g><g class="legendsymbols"><g class="legendpoints"/></g></g><rect class="legendtoggle" pointer-events="all" x="0" y="-9.5" width="98.046875" height="19" style="cursor: pointer; fill: rgb(0, 0, 0); fill-opacity: 0;"/></g><g class="traces" transform="translate(0, 106.1)" style="opacity: 1;"><text class="legendtext user-select-none" text-anchor="start" x="40" y="4.680000000000001" style="font-family: 'Open Sans', verdana, arial, sans-serif; font-size: 12px; fill: rgb(68, 68, 68); fill-opacity: 1; white-space: pre;">24 Months</text><g class="layers" style="opacity: 1;"><g class="legendfill"/><g class="legendlines"><path class="js-line" d="M5,0h30" style="fill: none; stroke: rgb(148, 103, 189); stroke-opacity: 1; stroke-width: 2px;"/></g><g class="legendsymbols"><g class="legendpoints"/></g></g><rect class="legendtoggle" pointer-events="all" x="0" y="-9.5" width="98.046875" height="19" style="cursor: pointer; fill: rgb(0, 0, 0); fill-opacity: 0;"/></g><g class="traces" transform="translate(0, 125.1)" style="opacity: 1;"><text class="legendtext user-select-none" text-anchor="start" x="40" y="4.680000000000001" style="font-family: 'Open Sans', verdana, arial, sans-serif; font-size: 12px; fill: rgb(68, 68, 68); fill-opacity: 1; white-space: pre;">36 Months</text><g class="layers" style="opacity: 1;"><g class="legendfill"/><g class="legendlines"><path class="js-line" d="M5,0h30" style="fill: none; stroke: rgb(140, 86, 75); stroke-opacity: 1; stroke-width: 2px;"/></g><g class="legendsymbols"><g class="legendpoints"/></g></g><rect class="legendtoggle" pointer-events="all" x="0" y="-9.5" width="98.046875" height="19" style="cursor: pointer; fill: rgb(0, 0, 0); fill-opacity: 0;"/></g></g></g><rect class="scrollbar" rx="20" ry="3" width="0" height="0" style="fill: rgb(128, 139, 164); fill-opacity: 1;" x="0" y="0"/></g><g class="g-gtitle"><text class="gtitle" x="350" y="12.5" text-anchor="middle" dy="0em" style="font-family: 'Open Sans', verdana, arial, sans-serif; font-size: 17px; fill: rgb(68, 68, 68); opacity: 1; font-weight: normal; white-space: pre;"><tspan style="font-weight:bold"> Leprosy Incidence MB - Immunity Vaccine 0.5, Treatment 50% </tspan></text></g><g class="g-xtitle" transform="translate(0,-15)"><text class="xtitle" x="369.5" y="512" text-anchor="middle" style="font-family: 'Open Sans', verdana, arial, sans-serif; font-size: 14px; fill: rgb(68, 68, 68); opacity: 1; font-weight: normal; white-space: pre;">Time(Years)</text></g><g class="g-ytitle"><text class="ytitle" transform="rotate(-90,22,242.5)" x="22" y="242.5" text-anchor="middle" style="font-family: 'Open Sans', verdana, arial, sans-serif; font-size: 14px; fill: rgb(68, 68, 68); opacity: 1; font-weight: normal; white-space: pre;">Number of new infectiuos individuals</text></g></g></svg>