<svg class="main-svg" xmlns="http://www.w3.org/2000/svg" xmlns:xlink="http://www.w3.org/1999/xlink" width="700" height="500" style="" viewBox="0 0 700 500"><rect x="0" y="0" width="700" height="500" style="fill: rgb(255, 255, 255); fill-opacity: 1;"/><defs id="defs-859af3"><g class="clips"><clipPath id="clip859af3xyplot" class="plotclip"><rect width="619" height="435"/></clipPath><clipPath class="axesclip" id="clip859af3x"><rect x="60" y="0" width="619" height="500"/></clipPath><clipPath class="axesclip" id="clip859af3y"><rect x="0" y="25" width="700" height="435"/></clipPath><clipPath class="axesclip" id="clip859af3xy"><rect x="60" y="25" width="619" height="435"/></clipPath></g><g class="gradients"/></defs><g class="bglayer"/><g class="layer-below"><g class="imagelayer"/><g class="shapelayer"/></g><g class="cartesianlayer"><g class="subplot xy"><g class="layer-subplot"><g class="shapelayer"/><g class="imagelayer"/></g><g class="gridlayer"><g class="x"><path class="xgrid crisp" transform="translate(212.42,0)" d="M0,25v435" style="stroke: rgb(238, 238, 238); stroke-opacity: 1; stroke-width: 1px;"/><path class="xgrid crisp" transform="translate(367.94,0)" d="M0,25v435" style="stroke: rgb(238, 238, 238); stroke-opacity: 1; stroke-width: 1px;"/><path class="xgrid crisp" transform="translate(523.47,0)" d="M0,25v435" style="stroke: rgb(238, 238, 238); stroke-opacity: 1; stroke-width: 1px;"/></g><g class="y"><path class="ygrid crisp" transform="translate(0,364.94)" d="M60,0h619" style="stroke: rgb(238, 238, 238); stroke-opacity: 1; stroke-width: 1px;"/><path class="ygrid crisp" transform="translate(0,291.63)" d="M60,0h619" style="stroke: rgb(238, 238, 238); stroke-opacity: 1; stroke-width: 1px;"/><path class="ygrid crisp" transform="translate(0,218.32)" d="M60,0h619" style="stroke: rgb(238, 238, 238); stroke-opacity: 1; stroke-width: 1px;"/><path class="ygrid crisp" transform="translate(0,145.01)" d="M60,0h619" style="stroke: rgb(238, 238, 238); stroke-opacity: 1; stroke-width: 1px;"/><path class="ygrid crisp" transform="translate(0,71.69)" d="M60,0h619" style="stroke: rgb(238, 238, 238); stroke-opacity: 1; stroke-width: 1px;"/></g></g><g class="zerolinelayer"><path class="yzl zl crisp" transform="translate(0,438.25)" d="M60,0h619" style="stroke: rgb(68, 68, 68); stroke-opacity: 1; stroke-width: 1px;"/></g><path class="xlines-below"/><path class="ylines-below"/><g class="overlines-below"/><g class="xaxislayer-below"/><g class="yaxislayer-below"/><g class="overaxes-below"/><g class="plot" transform="translate(60, 25)" clip-path="url('#clip859af3xyplot')"><g class="scatterlayer mlayer"><g class="trace scatter trace96fe26" style="stroke-miterlimit: 2; opacity: 1;"><g class="fills"/><g class="errorbars"/><g class="lines"><path class="js-line" d="M0,409.29L3.11,413.25L6.22,413.25L9.33,407.35L12.44,410.3L27.99,407.4L31.11,406.23L34.22,406.08L37.33,404.97L43.55,403.22L46.66,402.03L55.99,399.45L59.1,397.91L68.43,394.32L71.54,393.22L74.65,391.64L77.76,391.4L80.87,388.51L83.98,387.26L87.1,387.41L90.21,383.96L93.32,381.14L96.43,381.03L108.87,372.2L111.98,372.58L115.09,370.51L118.2,365.74L124.42,362.26L127.53,359.82L130.64,359L133.75,355.57L139.97,348.96L143.09,349.23L146.2,346.04L149.31,339.66L155.53,335.96L158.64,332.92L161.75,330.39L164.86,324.32L167.97,324.25L171.08,317.34L174.19,316.2L177.3,311.9L180.41,304.79L183.52,303.17L186.63,300.37L189.74,298.96L195.96,289.39L199.08,282.59L202.19,280.67L205.3,275.46L208.41,271.96L211.52,265.99L214.63,261.2L217.74,253.08L220.85,253.71L223.96,243.41L230.18,238.44L233.29,229.46L236.4,224.75L239.51,215.49L242.62,214.78L245.73,205.25L248.84,202.57L251.95,193.21L261.29,174.93L264.4,166.01L270.62,149.9L273.73,142.6L276.84,137.91L279.95,130.09L283.06,115.04L286.17,110.27L295.5,80.51L298.61,74.81L301.72,66.45L304.83,54.54L307.94,45.3L311.06,39.75L314.17,43.41L317.28,39.71L320.39,41.54L323.5,77.52L329.72,101.55L332.83,109.56L335.94,118.37L339.05,124.57L345.27,140.48L348.38,153.49L351.49,152.37L354.6,155.84L357.71,158.26L360.82,158.22L363.93,158.22L367.05,164.45L370.16,165.64L373.27,168.17L376.38,173.32L379.49,172.11L382.6,172.31L385.71,177.22L391.93,181.79L395.04,183.16L404.37,190.02L407.48,194.95L410.59,189.82L413.7,191.1L416.81,194.6L419.92,199.47L423.04,196.4L426.15,201.84L429.26,202.54L432.37,201.14L435.48,209.46L438.59,205.78L441.7,208.95L444.81,210.69L447.92,208.62L451.03,211.02L457.25,213.97L460.36,213.77L466.58,221.25L469.69,216.5L472.8,216.17L475.91,221.08L479.03,222.55L482.14,221.34L485.25,223.54L488.36,224.03L491.47,224.11L494.58,226.84L500.8,229.75L503.91,226.73L507.02,229.66L510.13,227.09L513.24,232.61L516.35,228.01L519.46,232.5L522.57,229.4L525.68,232.35L528.79,231.95L535.02,234.54L538.13,232.02L541.24,234.28L544.35,234.21L547.46,237.43L550.57,236.81L553.68,234.68L556.79,234.43L559.9,237.01L563.01,236.06L566.12,240.27L569.23,239.36L575.45,239.21L578.56,235.75L581.67,240.09L584.78,242.23L587.89,237.8L591.01,239.81L594.12,237.28L597.23,237.41L600.34,239.87L603.45,239.26L606.56,240.86L609.67,240.38L612.78,243.31L615.89,244.4L619,240.93" style="vector-effect: non-scaling-stroke; fill: none; stroke: rgb(31, 119, 180); stroke-opacity: 1; stroke-width: 2px; opacity: 1;"/></g><g class="points"/><g class="text"/></g><g class="trace scatter traced217c9" style="stroke-miterlimit: 2; opacity: 1;"><g class="fills"/><g class="errorbars"/><g class="lines"><path class="js-line" d="M0,409.05L3.11,413.25L6.22,413.25L9.33,407.35L12.44,410.3L27.99,407.4L31.11,406.23L34.22,406.08L37.33,404.97L43.55,403.22L46.66,402.03L55.99,399.45L59.1,397.91L68.43,394.32L71.54,393.22L74.65,391.64L77.76,391.4L80.87,388.51L83.98,387.26L87.1,387.41L90.21,383.96L93.32,381.14L96.43,381.03L108.87,372.2L111.98,372.58L115.09,370.51L118.2,365.74L124.42,362.26L127.53,359.82L130.64,359L133.75,355.57L139.97,348.96L143.09,349.23L146.2,346.04L149.31,339.66L155.53,335.96L158.64,332.92L161.75,330.39L164.86,324.32L167.97,324.25L171.08,317.34L174.19,316.2L177.3,311.9L180.41,304.79L183.52,303.17L186.63,300.37L189.74,298.96L195.96,289.39L199.08,282.59L202.19,280.67L205.3,275.46L208.41,271.96L211.52,265.99L214.63,261.2L217.74,253.08L220.85,253.71L223.96,243.41L230.18,238.44L233.29,229.46L236.4,224.75L239.51,215.49L242.62,214.78L245.73,205.25L248.84,202.57L251.95,193.21L261.29,174.93L264.4,166.01L270.62,149.9L273.73,142.6L276.84,137.91L279.95,130.09L283.06,115.04L286.17,110.27L295.5,80.51L298.61,74.81L301.72,66.45L304.83,54.54L311.06,36.43L314.17,42.44L317.28,37.68L320.39,38.72L323.5,79.37L326.61,86.54L329.72,98.65L332.83,106.42L342.16,128.93L345.27,139.51L348.38,149.29L351.49,149.66L354.6,152.04L357.71,157.82L360.82,157.21L363.93,158.62L367.05,157.94L370.16,164.25L373.27,161.32L376.38,164.96L379.49,168.59L382.6,168.76L385.71,175.72L388.82,172.28L391.93,182.28L395.04,180.16L398.15,181.68L401.26,180.43L404.37,186.48L407.48,190.49L410.59,192.29L413.7,190.93L416.81,192.84L419.92,193.76L423.04,197.64L426.15,199.53L429.26,196.78L432.37,200.12L438.59,203.45L441.7,207.83L451.03,207.89L454.14,210.27L457.25,209.85L460.36,212.78L463.47,211.46L466.58,213.42L469.69,217.75L472.8,218.3L475.91,217.12L479.03,218.65L482.14,220.39L485.25,219.05L488.36,222.95L491.47,221.19L494.58,224.82L497.69,221.96L500.8,221.94L503.91,223.63L510.13,226.69L513.24,224.97L516.35,223.21L519.46,223.8L522.57,226.16L525.68,226.47L528.79,226.42L531.9,229.28L535.02,227.3L538.13,231.18L544.35,230.38L547.46,233.51L550.57,230.28L553.68,230.06L556.79,230.76L559.9,228.27L563.01,228.07L566.12,229.22L569.23,229.04L572.34,229.99L575.45,228.6L578.56,229.46L581.67,229.84L584.78,233.03L587.89,236.77L591.01,230.76L594.12,230.72L597.23,232.15L600.34,230.8L603.45,236.33L606.56,233.53L609.67,232.61L612.78,229.66L615.89,234.22L619,234.68" style="vector-effect: non-scaling-stroke; fill: none; stroke: rgb(255, 127, 14); stroke-opacity: 1; stroke-width: 2px; opacity: 1;"/></g><g class="points"/><g class="text"/></g><g class="trace scatter trace7c953f" style="stroke-miterlimit: 2; opacity: 1;"><g class="fills"/><g class="errorbars"/><g class="lines"><path class="js-line" d="M0,408.89L3.11,413.25L6.22,413.25L9.33,407.35L12.44,410.3L27.99,407.4L31.11,406.23L34.22,406.08L37.33,404.97L43.55,403.22L46.66,402.03L55.99,399.45L59.1,397.91L68.43,394.32L71.54,393.22L74.65,391.64L77.76,391.4L80.87,388.51L83.98,387.26L87.1,387.41L90.21,383.96L93.32,381.14L96.43,381.03L108.87,372.2L111.98,372.58L115.09,370.51L118.2,365.74L124.42,362.26L127.53,359.82L130.64,359L133.75,355.57L139.97,348.96L143.09,349.23L146.2,346.04L149.31,339.66L155.53,335.96L158.64,332.92L161.75,330.39L164.86,324.32L167.97,324.25L171.08,317.34L174.19,316.2L177.3,311.9L180.41,304.79L183.52,303.17L186.63,300.37L189.74,298.96L195.96,289.39L199.08,282.59L202.19,280.67L205.3,275.46L208.41,271.96L211.52,265.99L214.63,261.2L217.74,253.08L220.85,253.71L223.96,243.41L230.18,238.44L233.29,229.46L236.4,224.75L239.51,215.49L242.62,214.78L245.73,205.25L248.84,202.57L251.95,193.21L261.29,174.93L264.4,166.01L270.62,149.9L273.73,142.6L276.84,137.91L279.95,130.09L283.06,115.04L286.17,110.27L295.5,80.51L298.61,74.81L301.72,66.45L304.83,54.54L307.94,45.3L311.06,39.34L314.17,39.25L317.28,37.7L320.39,35.42L323.5,74.02L332.83,102.72L335.94,109.6L342.16,127.08L345.27,137.44L351.49,147.52L354.6,148.36L357.71,154.44L360.82,151.33L367.05,157.05L370.16,155.58L373.27,154.75L376.38,159.89L379.49,166.83L382.6,167.29L385.71,172.48L388.82,169.77L391.93,173.27L395.04,179.08L398.15,174.59L401.26,180.41L404.37,181.37L407.48,179.55L410.59,181.7L413.7,189.82L416.81,187.49L419.92,191.01L423.04,189.87L426.15,193.3L429.26,194.25L432.37,199.91L435.48,198.05L438.59,197.83L441.7,198.26L444.81,203.76L447.92,206.09L451.03,206.2L454.14,203.16L457.25,209.7L460.36,204.95L463.47,208.38L466.58,208.02L469.69,211.85L472.8,215.38L475.91,209.87L479.03,214.34L482.14,211.72L485.25,213.9L488.36,214.81L491.47,213.62L494.58,216.92L497.69,219.2L500.8,217.38L503.91,220.33L507.02,218.57L510.13,223.34L513.24,219.89L516.35,220.51L519.46,222.35L525.68,223.28L528.79,228.18L531.9,222.82L535.02,224.68L538.13,228.89L541.24,227.06L544.35,228.3L547.46,222.68L550.57,226.47L553.68,223.3L556.79,228.03L559.9,230.85L563.01,231.11L566.12,226.29L572.34,228.25L575.45,231L578.56,227.26L581.67,226.49L584.78,230.17L587.89,230.49L591.01,231.05L594.12,226.12L597.23,230.36L600.34,229.2L603.45,229.86L606.56,229.07L609.67,227.42L612.78,231.79L615.89,226.32L619,232.67" style="vector-effect: non-scaling-stroke; fill: none; stroke: rgb(44, 160, 44); stroke-opacity: 1; stroke-width: 2px; opacity: 1;"/></g><g class="points"/><g class="text"/></g><g class="trace scatter tracebea34a" style="stroke-miterlimit: 2; opacity: 1;"><g class="fills"/><g class="errorbars"/><g class="lines"><path class="js-line" d="M0,409.14L3.11,413.25L6.22,413.25L9.33,407.35L12.44,410.3L27.99,407.4L31.11,406.23L34.22,406.08L37.33,404.97L43.55,403.22L46.66,402.03L55.99,399.45L59.1,397.91L68.43,394.32L71.54,393.22L74.65,391.64L77.76,391.4L80.87,388.51L83.98,387.26L87.1,387.41L90.21,383.96L93.32,381.14L96.43,381.03L108.87,372.2L111.98,372.58L115.09,370.51L118.2,365.74L124.42,362.26L127.53,359.82L130.64,359L133.75,355.57L139.97,348.96L143.09,349.23L146.2,346.04L149.31,339.66L155.53,335.96L158.64,332.92L161.75,330.39L164.86,324.32L167.97,324.25L171.08,317.34L174.19,316.2L177.3,311.9L180.41,304.79L183.52,303.17L186.63,300.37L189.74,298.96L195.96,289.39L199.08,282.59L202.19,280.67L205.3,275.46L208.41,271.96L211.52,265.99L214.63,261.2L217.74,253.08L220.85,253.71L223.96,243.41L230.18,238.44L233.29,229.46L236.4,224.75L239.51,215.49L242.62,214.78L245.73,205.25L248.84,202.57L251.95,193.21L261.29,174.93L264.4,166.01L270.62,149.9L273.73,142.6L276.84,137.91L279.95,130.09L283.06,115.04L286.17,110.27L295.5,80.51L298.61,74.81L301.72,66.45L304.83,54.54L311.06,35.66L314.17,36.25L317.28,32.47L320.39,33.59L323.5,73.25L326.61,77.17L329.72,85.81L332.83,98.73L335.94,102.61L339.05,111.59L342.16,122.26L345.27,127.85L348.38,135.99L351.49,138.79L354.6,141.12L357.71,141.27L360.82,146.87L363.93,148.25L367.05,148.12L370.16,150.63L376.38,154.17L379.49,159.34L382.6,158.38L385.71,164.16L388.82,165.16L391.93,169.82L395.04,166.87L398.15,165.09L401.26,170.3L404.37,171.85L410.59,175.98L413.7,174.24L416.81,180.98L419.92,179.41L423.04,182.15L426.15,185.89L429.26,181.82L432.37,188.37L435.48,184.34L438.59,186.44L441.7,189.69L444.81,191.41L451.03,192.68L454.14,193.96L460.36,194.87L463.47,196.52L469.69,197.68L472.8,195.7L475.91,200.3L479.03,198.39L482.14,198.19L485.25,200.04L491.47,200.48L494.58,202.46L497.69,200.63L500.8,202.88L503.91,202.9L507.02,205.43L510.13,206.42L513.24,206.11L516.35,209.06L519.46,208.93L522.57,204.04L525.68,206.22L528.79,208.07L531.9,209.04L538.13,205.36L541.24,209.12L544.35,207.5L547.46,212.01L550.57,207.63L553.68,210.95L556.79,209.04L559.9,210.34L569.23,214.71L572.34,209.1L575.45,213.22L578.56,209.59L581.67,212.27L584.78,209.01L587.89,209.08L591.01,211.11L597.23,206.99L600.34,212.38L603.45,213.06L606.56,211.3L609.67,212.91L612.78,210.97L619,209.98" style="vector-effect: non-scaling-stroke; fill: none; stroke: rgb(214, 39, 40); stroke-opacity: 1; stroke-width: 2px; opacity: 1;"/></g><g class="points"/><g class="text"/></g><g class="trace scatter trace5dd1c9" style="stroke-miterlimit: 2; opacity: 1;"><g class="fills"/><g class="errorbars"/><g class="lines"><path class="js-line" d="M0,408.81L3.11,413.25L6.22,413.25L9.33,407.35L12.44,410.3L27.99,407.4L31.11,406.23L34.22,406.08L37.33,404.97L43.55,403.22L46.66,402.03L55.99,399.45L59.1,397.91L68.43,394.32L71.54,393.22L74.65,391.64L77.76,391.4L80.87,388.51L83.98,387.26L87.1,387.41L90.21,383.96L93.32,381.14L96.43,381.03L108.87,372.2L111.98,372.58L115.09,370.51L118.2,365.74L124.42,362.26L127.53,359.82L130.64,359L133.75,355.57L139.97,348.96L143.09,349.23L146.2,346.04L149.31,339.66L155.53,335.96L158.64,332.92L161.75,330.39L164.86,324.32L167.97,324.25L171.08,317.34L174.19,316.2L177.3,311.9L180.41,304.79L183.52,303.17L186.63,300.37L189.74,298.96L195.96,289.39L199.08,282.59L202.19,280.67L205.3,275.46L208.41,271.96L211.52,265.99L214.63,261.2L217.74,253.08L220.85,253.71L223.96,243.41L230.18,238.44L233.29,229.46L236.4,224.75L239.51,215.49L242.62,214.78L245.73,205.25L248.84,202.57L251.95,193.21L261.29,174.93L264.4,166.01L270.62,149.9L273.73,142.6L276.84,137.91L279.95,130.09L283.06,115.04L286.17,110.27L295.5,80.51L298.61,74.81L301.72,66.45L304.83,54.54L307.94,45.3L311.06,33.3L314.17,26.81L317.28,27.69L320.39,28L323.5,61.96L326.61,65.06L329.72,80.03L332.83,82.18L335.94,88.19L339.05,103.69L342.16,107.56L345.27,111.23L348.38,118.41L351.49,121.78L354.6,132.08L357.71,130.16L360.82,129.79L363.93,135.71L367.05,134.72L370.16,135.82L373.27,142.04L376.38,142.95L379.49,141.38L382.6,146.12L385.71,145.24L388.82,150.14L391.93,151.13L395.04,151.33L398.15,157.52L401.26,156.53L404.37,161.26L407.48,158.37L410.59,164.67L413.7,164.69L416.81,168.04L419.92,163.96L423.04,166.94L429.26,169.67L432.37,166.32L435.48,172.77L438.59,170.79L444.81,174.49L447.92,179.5L451.03,177.17L454.14,181.79L457.25,178.78L460.36,180.23L463.47,180.49L466.58,178.53L469.69,184.32L472.8,183.47L475.91,185.36L479.03,182.14L482.14,180.18L485.25,182.1L488.36,184.9L491.47,184.28L497.69,184.78L500.8,187.74L503.91,183.18L507.02,185.44L510.13,186.61L513.24,184.46L522.57,189.36L525.68,188.28L528.79,187.16L531.9,187.29L535.02,187.34L538.13,188.88L541.24,186.5L544.35,188.73L547.46,188.81L550.57,187.95L553.68,185.2L556.79,184.65L559.9,185.56L563.01,190.81L566.12,186.32L569.23,189.63L572.34,189.38L575.45,188L578.56,186.66L581.67,186.74L584.78,185.73L587.89,189.91L591.01,189.06L594.12,187.09L597.23,183.13L600.34,184.68L603.45,188.68L606.56,188.79L609.67,187.3L612.78,184.34L615.89,183.68L619,184.92" style="vector-effect: non-scaling-stroke; fill: none; stroke: rgb(148, 103, 189); stroke-opacity: 1; stroke-width: 2px; opacity: 1;"/></g><g class="points"/><g class="text"/></g><g class="trace scatter trace7143e7" style="stroke-miterlimit: 2; opacity: 1;"><g class="fills"/><g class="errorbars"/><g class="lines"><path class="js-line" d="M0,408.89L3.11,413.25L6.22,413.25L9.33,407.35L12.44,410.3L27.99,407.4L31.11,406.23L34.22,406.08L37.33,404.97L43.55,403.22L46.66,402.03L55.99,399.45L59.1,397.91L68.43,394.32L71.54,393.22L74.65,391.64L77.76,391.4L80.87,388.51L83.98,387.26L87.1,387.41L90.21,383.96L93.32,381.14L96.43,381.03L108.87,372.2L111.98,372.58L115.09,370.51L118.2,365.74L124.42,362.26L127.53,359.82L130.64,359L133.75,355.57L139.97,348.96L143.09,349.23L146.2,346.04L149.31,339.66L155.53,335.96L158.64,332.92L161.75,330.39L164.86,324.32L167.97,324.25L171.08,317.34L174.19,316.2L177.3,311.9L180.41,304.79L183.52,303.17L186.63,300.37L189.74,298.96L195.96,289.39L199.08,282.59L202.19,280.67L205.3,275.46L208.41,271.96L211.52,265.99L214.63,261.2L217.74,253.08L220.85,253.71L223.96,243.41L230.18,238.44L233.29,229.46L236.4,224.75L239.51,215.49L242.62,214.78L245.73,205.25L248.84,202.57L251.95,193.21L261.29,174.93L264.4,166.01L270.62,149.9L273.73,142.6L276.84,137.91L279.95,130.09L283.06,115.04L286.17,110.27L295.5,80.51L298.61,74.81L301.72,66.45L304.83,54.54L311.06,36.1L314.17,29.65L317.28,21.75L320.39,22.94L323.5,57.07L326.61,62.75L329.72,70.01L332.83,73.93L335.94,84.72L339.05,90.3L348.38,110.14L351.49,115.19L354.6,115.7L357.71,122.33L360.82,126.49L363.93,122.72L367.05,127.89L370.16,124.46L373.27,127.76L376.38,129.06L379.49,131.92L382.6,133.51L385.71,131.92L388.82,139.18L391.93,136.81L395.04,142.66L398.15,138.37L401.26,143.89L404.37,146.07L407.48,144.45L410.59,146.86L413.7,143.72L416.81,146.65L419.92,147.46L426.15,152.65L429.26,152.41L432.37,148.91L435.48,153.34L438.59,154.77L441.7,158.51L444.81,154.85L447.92,157.47L451.03,154.5L454.14,160.22L457.25,164.85L460.36,162.56L463.47,161.74L466.58,161.94L469.69,161.52L472.8,164.29L475.91,159.37L479.03,161.32L482.14,166.59L485.25,159.61L488.36,163.72L491.47,164.93L497.69,166.03L500.8,162.49L503.91,164.62L507.02,162.76L516.35,167.68L519.46,169.23L522.57,165.49L525.68,167.66L528.79,163.61L531.9,166.3L535.02,164.67L538.13,164.16L541.24,164.56L544.35,166.32L547.46,164.07L550.57,164.52L553.68,166.06L556.79,162.07L559.9,159.12L563.01,162.01L566.12,162.29L569.23,164.63L572.34,163.08L575.45,160.05L578.56,158.57L581.67,161.57L584.78,157.67L587.89,157.96L591.01,158.15L594.12,155.18L597.23,157.78L600.34,154.11L603.45,158.77L606.56,159.61L612.78,153.91L615.89,156.37L619,151.38" style="vector-effect: non-scaling-stroke; fill: none; stroke: rgb(140, 86, 75); stroke-opacity: 1; stroke-width: 2px; opacity: 1;"/></g><g class="points"/><g class="text"/></g></g></g><g class="overplot"/><path class="xlines-above crisp" style="fill: none;" d="M0,0"/><path class="ylines-above crisp" style="fill: none;" d="M0,0"/><g class="overlines-above"/><g class="xaxislayer-above"><g class="xtick"><text text-anchor="middle" x="0" y="473" transform="translate(212.42,0)" style="font-family: 'Open Sans', verdana, arial, sans-serif; font-size: 12px; fill: rgb(68, 68, 68); fill-opacity: 1; white-space: pre;">50</text></g><g class="xtick"><text text-anchor="middle" x="0" y="473" transform="translate(367.94,0)" style="font-family: 'Open Sans', verdana, arial, sans-serif; font-size: 12px; fill: rgb(68, 68, 68); fill-opacity: 1; white-space: pre;">100</text></g><g class="xtick"><text text-anchor="middle" x="0" y="473" transform="translate(523.47,0)" style="font-family: 'Open Sans', verdana, arial, sans-serif; font-size: 12px; fill: rgb(68, 68, 68); fill-opacity: 1; white-space: pre;">150</text></g><g class="xtick"><text text-anchor="middle" x="0" y="473" transform="translate(679,0)" style="font-family: 'Open Sans', verdana, arial, sans-serif; font-size: 12px; fill: rgb(68, 68, 68); fill-opacity: 1; white-space: pre;">200</text></g></g><g class="yaxislayer-above"><g class="ytick"><text text-anchor="end" x="59" y="4.199999999999999" transform="translate(0,438.25)" style="font-family: 'Open Sans', verdana, arial, sans-serif; font-size: 12px; fill: rgb(68, 68, 68); fill-opacity: 1; white-space: pre;">0</text></g><g class="ytick"><text text-anchor="end" x="59" y="4.199999999999999" transform="translate(0,364.94)" style="font-family: 'Open Sans', verdana, arial, sans-serif; font-size: 12px; fill: rgb(68, 68, 68); fill-opacity: 1; white-space: pre;">20</text></g><g class="ytick"><text text-anchor="end" x="59" y="4.199999999999999" transform="translate(0,291.63)" style="font-family: 'Open Sans', verdana, arial, sans-serif; font-size: 12px; fill: rgb(68, 68, 68); fill-opacity: 1; white-space: pre;">40</text></g><g class="ytick"><text text-anchor="end" x="59" y="4.199999999999999" transform="translate(0,218.32)" style="font-family: 'Open Sans', verdana, arial, sans-serif; font-size: 12px; fill: rgb(68, 68, 68); fill-opacity: 1; white-space: pre;">60</text></g><g class="ytick"><text text-anchor="end" x="59" y="4.199999999999999" transform="translate(0,145.01)" style="font-family: 'Open Sans', verdana, arial, sans-serif; font-size: 12px; fill: rgb(68, 68, 68); fill-opacity: 1; white-space: pre;">80</text></g><g class="ytick"><text text-anchor="end" x="59" y="4.199999999999999" transform="translate(0,71.69)" style="font-family: 'Open Sans', verdana, arial, sans-serif; font-size: 12px; fill: rgb(68, 68, 68); fill-opacity: 1; white-space: pre;">100</text></g></g><g class="overaxes-above"/></g></g><g class="polarlayer"/><g class="ternarylayer"/><g class="geolayer"/><g class="funnelarealayer"/><g class="pielayer"/><g class="treemaplayer"/><g class="sunburstlayer"/><g class="glimages"/><defs id="topdefs-859af3"><g class="clips"/><clipPath id="legend859af3"><rect width="117" height="140" x="0" y="0"/></clipPath></defs><g class="layer-above"><g class="imagelayer"/><g class="shapelayer"/></g><g class="infolayer"><g class="legend" pointer-events="all" transform="translate(90.95, 46.750000000000014)"><rect class="bg" shape-rendering="crispEdges" style="stroke: rgb(68, 68, 68); stroke-opacity: 1; fill: rgb(226, 226, 226); fill-opacity: 1; stroke-width: 0px;" width="117" height="140" x="0" y="0"/><g class="scrollbox" transform="translate(0, 0)" clip-path="url('#legend859af3')"><text class="legendtitletext user-select-none" text-anchor="start" x="2" y="15.600000000000001" style="font-family: 'Open Sans', verdana, arial, sans-serif; font-size: 12px; fill: rgb(68, 68, 68); fill-opacity: 1; white-space: pre;"><tspan style="font-weight:bold"> Identification Time </tspan></text><g class="groups"><g class="traces" transform="translate(0, 30.1)" style="opacity: 1;"><text class="legendtext user-select-none" text-anchor="start" x="40" y="4.680000000000001" style="font-family: 'Open Sans', verdana, arial, sans-serif; font-size: 12px; fill: rgb(68, 68, 68); fill-opacity: 1; white-space: pre;">0 Months</text><g class="layers" style="opacity: 1;"><g class="legendfill"/><g class="legendlines"><path class="js-line" d="M5,0h30" style="fill: none; stroke: rgb(31, 119, 180); stroke-opacity: 1; stroke-width: 2px;"/></g><g class="legendsymbols"><g class="legendpoints"/></g></g><rect class="legendtoggle" pointer-events="all" x="0" y="-9.5" width="98.046875" height="19" style="cursor: pointer; fill: rgb(0, 0, 0); fill-opacity: 0;"/></g><g class="traces" transform="translate(0, 49.1)" style="opacity: 1;"><text class="legendtext user-select-none" text-anchor="start" x="40" y="4.680000000000001" style="font-family: 'Open Sans', verdana, arial, sans-serif; font-size: 12px; fill: rgb(68, 68, 68); fill-opacity: 1; white-space: pre;">3 Months</text><g class="layers" style="opacity: 1;"><g class="legendfill"/><g class="legendlines"><path class="js-line" d="M5,0h30" style="fill: none; stroke: rgb(255, 127, 14); stroke-opacity: 1; stroke-width: 2px;"/></g><g class="legendsymbols"><g class="legendpoints"/></g></g><rect class="legendtoggle" pointer-events="all" x="0" y="-9.5" width="98.046875" height="19" style="cursor: pointer; fill: rgb(0, 0, 0); fill-opacity: 0;"/></g><g class="traces" transform="translate(0, 68.1)" style="opacity: 1;"><text class="legendtext user-select-none" text-anchor="start" x="40" y="4.680000000000001" style="font-family: 'Open Sans', verdana, arial, sans-serif; font-size: 12px; fill: rgb(68, 68, 68); fill-opacity: 1; white-space: pre;">6 Months</text><g class="layers" style="opacity: 1;"><g class="legendfill"/><g class="legendlines"><path class="js-line" d="M5,0h30" style="fill: none; stroke: rgb(44, 160, 44); stroke-opacity: 1; stroke-width: 2px;"/></g><g class="legendsymbols"><g class="legendpoints"/></g></g><rect class="legendtoggle" pointer-events="all" x="0" y="-9.5" width="98.046875" height="19" style="cursor: pointer; fill: rgb(0, 0, 0); fill-opacity: 0;"/></g><g class="traces" transform="translate(0, 87.1)" style="opacity: 1;"><text class="legendtext user-select-none" text-anchor="start" x="40" y="4.680000000000001" style="font-family: 'Open Sans', verdana, arial, sans-serif; font-size: 12px; fill: rgb(68, 68, 68); fill-opacity: 1; white-space: pre;">12 Months</text><g class="layers" style="opacity: 1;"><g class="legendfill"/><g class="legendlines"><path class="js-line" d="M5,0h30" style="fill: none; stroke: rgb(214, 39, 40); stroke-opacity: 1; stroke-width: 2px;"/></g><g class="legendsymbols"><g class="legendpoints"/></g></g><rect class="legendtoggle" pointer-events="all" x="0" y="-9.5" width="98.046875" height="19" style="cursor: pointer; fill: rgb(0, 0, 0); fill-opacity: 0;"/></g><g class="traces" transform="translate(0, 106.1)" style="opacity: 1;"><text class="legendtext user-select-none" text-anchor="start" x="40" y="4.680000000000001" style="font-family: 'Open Sans', verdana, arial, sans-serif; font-size: 12px; fill: rgb(68, 68, 68); fill-opacity: 1; white-space: pre;">24 Months</text><g class="layers" style="opacity: 1;"><g class="legendfill"/><g class="legendlines"><path class="js-line" d="M5,0h30" style="fill: none; stroke: rgb(148, 103, 189); stroke-opacity: 1; stroke-width: 2px;"/></g><g class="legendsymbols"><g class="legendpoints"/></g></g><rect class="legendtoggle" pointer-events="all" x="0" y="-9.5" width="98.046875" height="19" style="cursor: pointer; fill: rgb(0, 0, 0); fill-opacity: 0;"/></g><g class="traces" transform="translate(0, 125.1)" style="opacity: 1;"><text class="legendtext user-select-none" text-anchor="start" x="40" y="4.680000000000001" style="font-family: 'Open Sans', verdana, arial, sans-serif; font-size: 12px; fill: rgb(68, 68, 68); fill-opacity: 1; white-space: pre;">36 Months</text><g class="layers" style="opacity: 1;"><g class="legendfill"/><g class="legendlines"><path class="js-line" d="M5,0h30" style="fill: none; stroke: rgb(140, 86, 75); stroke-opacity: 1; stroke-width: 2px;"/></g><g class="legendsymbols"><g class="legendpoints"/></g></g><rect class="legendtoggle" pointer-events="all" x="0" y="-9.5" width="98.046875" height="19" style="cursor: pointer; fill: rgb(0, 0, 0); fill-opacity: 0;"/></g></g></g><rect class="scrollbar" rx="20" ry="3" width="0" height="0" style="fill: rgb(128, 139, 164); fill-opacity: 1;" x="0" y="0"/></g><g class="g-gtitle"><text class="gtitle" x="350" y="12.5" text-anchor="middle" dy="0em" style="font-family: 'Open Sans', verdana, arial, sans-serif; font-size: 17px; fill: rgb(68, 68, 68); opacity: 1; font-weight: normal; white-space: pre;"><tspan style="font-weight:bold"> Leprosy Incidence MB - Immunity Vaccine 0.99, Treatment 25% </tspan></text></g><g class="g-xtitle" transform="translate(0,-15)"><text class="xtitle" x="369.5" y="512" text-anchor="middle" style="font-family: 'Open Sans', verdana, arial, sans-serif; font-size: 14px; fill: rgb(68, 68, 68); opacity: 1; font-weight: normal; white-space: pre;">Time(Years)</text></g><g class="g-ytitle"><text class="ytitle" transform="rotate(-90,22,242.5)" x="22" y="242.5" text-anchor="middle" style="font-family: 'Open Sans', verdana, arial, sans-serif; font-size: 14px; fill: rgb(68, 68, 68); opacity: 1; font-weight: normal; white-space: pre;">Number of new infectiuos individuals</text></g></g></svg>