<svg class="main-svg" xmlns="http://www.w3.org/2000/svg" xmlns:xlink="http://www.w3.org/1999/xlink" width="700" height="500" style="" viewBox="0 0 700 500"><rect x="0" y="0" width="700" height="500" style="fill: rgb(255, 255, 255); fill-opacity: 1;"/><defs id="defs-dbccff"><g class="clips"><clipPath id="clipdbccffxyplot" class="plotclip"><rect width="619" height="435"/></clipPath><clipPath class="axesclip" id="clipdbccffx"><rect x="60" y="0" width="619" height="500"/></clipPath><clipPath class="axesclip" id="clipdbccffy"><rect x="0" y="25" width="700" height="435"/></clipPath><clipPath class="axesclip" id="clipdbccffxy"><rect x="60" y="25" width="619" height="435"/></clipPath></g><g class="gradients"/></defs><g class="bglayer"/><g class="layer-below"><g class="imagelayer"/><g class="shapelayer"/></g><g class="cartesianlayer"><g class="subplot xy"><g class="layer-subplot"><g class="shapelayer"/><g class="imagelayer"/></g><g class="gridlayer"><g class="x"><path class="xgrid crisp" transform="translate(212.42,0)" d="M0,25v435" style="stroke: rgb(238, 238, 238); stroke-opacity: 1; stroke-width: 1px;"/><path class="xgrid crisp" transform="translate(367.94,0)" d="M0,25v435" style="stroke: rgb(238, 238, 238); stroke-opacity: 1; stroke-width: 1px;"/><path class="xgrid crisp" transform="translate(523.47,0)" d="M0,25v435" style="stroke: rgb(238, 238, 238); stroke-opacity: 1; stroke-width: 1px;"/></g><g class="y"><path class="ygrid crisp" transform="translate(0,390.98)" d="M60,0h619" style="stroke: rgb(238, 238, 238); stroke-opacity: 1; stroke-width: 1px;"/><path class="ygrid crisp" transform="translate(0,343.72)" d="M60,0h619" style="stroke: rgb(238, 238, 238); stroke-opacity: 1; stroke-width: 1px;"/><path class="ygrid crisp" transform="translate(0,296.45)" d="M60,0h619" style="stroke: rgb(238, 238, 238); stroke-opacity: 1; stroke-width: 1px;"/><path class="ygrid crisp" transform="translate(0,249.19)" d="M60,0h619" style="stroke: rgb(238, 238, 238); stroke-opacity: 1; stroke-width: 1px;"/><path class="ygrid crisp" transform="translate(0,201.92)" d="M60,0h619" style="stroke: rgb(238, 238, 238); stroke-opacity: 1; stroke-width: 1px;"/><path class="ygrid crisp" transform="translate(0,154.66)" d="M60,0h619" style="stroke: rgb(238, 238, 238); stroke-opacity: 1; stroke-width: 1px;"/><path class="ygrid crisp" transform="translate(0,107.39)" d="M60,0h619" style="stroke: rgb(238, 238, 238); stroke-opacity: 1; stroke-width: 1px;"/><path class="ygrid crisp" transform="translate(0,60.13)" d="M60,0h619" style="stroke: rgb(238, 238, 238); stroke-opacity: 1; stroke-width: 1px;"/></g></g><g class="zerolinelayer"><path class="yzl zl crisp" transform="translate(0,438.25)" d="M60,0h619" style="stroke: rgb(68, 68, 68); stroke-opacity: 1; stroke-width: 1px;"/></g><path class="xlines-below"/><path class="ylines-below"/><g class="overlines-below"/><g class="xaxislayer-below"/><g class="yaxislayer-below"/><g class="overaxes-below"/><g class="plot" transform="translate(60, 25)" clip-path="url('#clipdbccffxyplot')"><g class="scatterlayer mlayer"><g class="trace scatter tracec8b68e" style="stroke-miterlimit: 2; opacity: 1;"><g class="fills"/><g class="errorbars"/><g class="lines"><path class="js-line" d="M0,410.53L3.11,413.25L6.22,413.25L9.33,409.45L12.44,411.35L40.44,407.53L43.55,406.79L74.65,399.32L77.76,399.16L80.87,397.3L83.98,396.49L87.1,396.59L90.21,394.37L93.32,392.55L96.43,392.48L108.87,386.78L111.98,387.03L115.09,385.69L118.2,382.62L124.42,380.38L127.53,378.81L130.64,378.27L133.75,376.06L139.97,371.8L143.09,371.98L146.2,369.92L149.31,365.81L155.53,363.42L158.64,361.46L161.75,359.83L164.86,355.92L167.97,355.87L171.08,351.41L174.19,350.68L177.3,347.91L180.41,343.32L183.52,342.28L186.63,340.47L189.74,339.56L195.96,333.39L199.08,329.01L202.19,327.77L205.3,324.41L208.41,322.16L211.52,318.31L214.63,315.22L217.74,309.99L220.85,310.39L223.96,303.75L230.18,300.55L233.29,294.76L236.4,291.72L239.51,285.75L242.62,285.29L245.73,279.15L248.84,277.42L251.95,271.38L261.29,259.6L264.4,253.85L273.73,238.76L276.84,235.73L279.95,230.69L283.06,220.99L286.17,217.91L289.28,211.06L295.5,198.72L298.61,195.05L301.72,189.66L304.83,181.98L307.94,176.02L311.06,178.36L314.17,183.02L317.28,190.23L320.39,196.59L323.5,207.52L326.61,222.37L329.72,229.4L332.83,239.82L335.94,246.47L339.05,253.2L342.16,264.72L345.27,268.89L348.38,274.36L351.49,276.61L354.6,275.06L357.71,275.9L360.82,275.09L363.93,274.32L367.05,276.14L370.16,275.35L373.27,276.82L376.38,276.14L379.49,276.94L382.6,282.04L385.71,279.96L391.93,280.06L395.04,278.8L398.15,283.1L401.26,278.28L404.37,281.54L407.48,277.8L410.59,278.45L413.7,277.09L419.92,278.64L423.04,276.95L426.15,279.04L429.26,277.74L432.37,279.74L435.48,276.65L441.7,278.83L444.81,277.46L447.92,278.96L451.03,278.43L454.14,277.33L457.25,272.54L460.36,276.04L463.47,278.21L466.58,276.75L469.69,276.98L472.8,276.58L475.91,276.98L485.25,274.09L488.36,274.81L491.47,274.93L494.58,276.43L497.69,273.49L500.8,273.63L503.91,273.45L507.02,274.66L510.13,271.84L513.24,272.84L519.46,273.34L522.57,274.56L525.68,270.89L528.79,270.43L538.13,271.09L541.24,268.51L544.35,267.5L547.46,268.96L550.57,270.01L553.68,268.32L556.79,268.3L559.9,265.7L566.12,266.75L569.23,266.28L572.34,266.37L575.45,265.37L578.56,263.45L581.67,263.39L584.78,265.24L587.89,263L591.01,261.67L594.12,263.12L597.23,261.27L600.34,261.17L603.45,261.67L606.56,259.9L609.67,262.87L612.78,260.07L615.89,259.28L619,262.89" style="vector-effect: non-scaling-stroke; fill: none; stroke: rgb(31, 119, 180); stroke-opacity: 1; stroke-width: 2px; opacity: 1;"/></g><g class="points"/><g class="text"/></g><g class="trace scatter trace7266d7" style="stroke-miterlimit: 2; opacity: 1;"><g class="fills"/><g class="errorbars"/><g class="lines"><path class="js-line" d="M0,410.4L3.11,413.25L6.22,413.25L9.33,409.45L12.44,411.35L40.44,407.53L43.55,406.79L74.65,399.32L77.76,399.16L80.87,397.3L83.98,396.49L87.1,396.59L90.21,394.37L93.32,392.55L96.43,392.48L108.87,386.78L111.98,387.03L115.09,385.69L118.2,382.62L124.42,380.38L127.53,378.81L130.64,378.27L133.75,376.06L139.97,371.8L143.09,371.98L146.2,369.92L149.31,365.81L155.53,363.42L158.64,361.46L161.75,359.83L164.86,355.92L167.97,355.87L171.08,351.41L174.19,350.68L177.3,347.91L180.41,343.32L183.52,342.28L186.63,340.47L189.74,339.56L195.96,333.39L199.08,329.01L202.19,327.77L205.3,324.41L208.41,322.16L211.52,318.31L214.63,315.22L217.74,309.99L220.85,310.39L223.96,303.75L230.18,300.55L233.29,294.76L236.4,291.72L239.51,285.75L242.62,285.29L245.73,279.15L248.84,277.42L251.95,271.38L261.29,259.6L264.4,253.85L273.73,238.76L276.84,235.73L279.95,230.69L283.06,220.99L286.17,217.91L289.28,211.06L295.5,198.72L298.61,195.05L301.72,189.66L304.83,181.98L307.94,176.02L311.06,175.11L314.17,180.22L317.28,188.36L320.39,195L323.5,208.78L332.83,233.94L335.94,245.28L339.05,249.13L342.16,259.42L348.38,270.89L351.49,273.23L360.82,270.96L363.93,271.77L370.16,270.09L373.27,269.69L376.38,270.9L379.49,274.15L385.71,271.37L388.82,274.15L391.93,274.01L395.04,272.71L398.15,273.95L401.26,271.51L404.37,272.47L407.48,272.03L410.59,273.23L413.7,272.3L416.81,272.13L419.92,269.83L423.04,272.1L426.15,271.86L432.37,270.93L435.48,270.22L438.59,272.25L441.7,271.83L444.81,269.36L447.92,269.49L451.03,267.96L454.14,270.83L457.25,267.42L460.36,268.27L463.47,266.81L466.58,267.18L469.69,268.29L472.8,264.9L475.91,267.35L479.03,265.58L482.14,263.18L485.25,264.61L488.36,263.29L491.47,263.87L494.58,264.53L497.69,262.8L500.8,263.75L503.91,262.05L507.02,261L510.13,262.22L513.24,258.82L516.35,261.88L519.46,258.75L522.57,260.03L525.68,260.61L528.79,258.35L531.9,256.09L535.02,258.75L538.13,255.97L541.24,256.66L544.35,255.25L547.46,256.58L550.57,253.46L553.68,255.92L556.79,255.54L559.9,253.16L563.01,252.57L566.12,254.85L569.23,254.46L572.34,253.03L575.45,252.05L578.56,251.89L584.78,248.34L587.89,250.01L591.01,249.74L594.12,246.17L597.23,248.91L600.34,249.01L603.45,248.47L606.56,245.8L609.67,245.6L612.78,243.89L619,241.71" style="vector-effect: non-scaling-stroke; fill: none; stroke: rgb(255, 127, 14); stroke-opacity: 1; stroke-width: 2px; opacity: 1;"/></g><g class="points"/><g class="text"/></g><g class="trace scatter tracea0b6ec" style="stroke-miterlimit: 2; opacity: 1;"><g class="fills"/><g class="errorbars"/><g class="lines"><path class="js-line" d="M0,410.4L3.11,413.25L6.22,413.25L9.33,409.45L12.44,411.35L40.44,407.53L43.55,406.79L74.65,399.32L77.76,399.16L80.87,397.3L83.98,396.49L87.1,396.59L90.21,394.37L93.32,392.55L96.43,392.48L108.87,386.78L111.98,387.03L115.09,385.69L118.2,382.62L124.42,380.38L127.53,378.81L130.64,378.27L133.75,376.06L139.97,371.8L143.09,371.98L146.2,369.92L149.31,365.81L155.53,363.42L158.64,361.46L161.75,359.83L164.86,355.92L167.97,355.87L171.08,351.41L174.19,350.68L177.3,347.91L180.41,343.32L183.52,342.28L186.63,340.47L189.74,339.56L195.96,333.39L199.08,329.01L202.19,327.77L205.3,324.41L208.41,322.16L211.52,318.31L214.63,315.22L217.74,309.99L220.85,310.39L223.96,303.75L230.18,300.55L233.29,294.76L236.4,291.72L239.51,285.75L242.62,285.29L245.73,279.15L248.84,277.42L251.95,271.38L261.29,259.6L264.4,253.85L273.73,238.76L276.84,235.73L279.95,230.69L283.06,220.99L286.17,217.91L289.28,211.06L295.5,198.72L298.61,195.05L301.72,189.66L304.83,181.98L307.94,176.02L311.06,172.55L314.17,178.39L317.28,186.39L320.39,192.7L323.5,203L329.72,225.18L332.83,232.19L335.94,238.3L339.05,246.38L348.38,266.7L351.49,268.65L354.6,265.7L357.71,267.72L360.82,266.93L363.93,271.74L367.05,266.83L370.16,266.54L376.38,265.2L379.49,265.82L385.71,271.17L388.82,270.27L395.04,267.61L398.15,269.37L401.26,266.66L404.37,268.42L407.48,265.53L410.59,267.15L413.7,263.58L416.81,265.89L419.92,264.01L423.04,263.88L426.15,264.81L429.26,263.75L432.37,261.91L435.48,262.52L438.59,262.6L441.7,263.73L451.03,259.92L454.14,260.74L460.36,257.3L463.47,258.77L466.58,256.67L469.69,257.43L472.8,255.25L475.91,256.07L479.03,256.14L482.14,254.02L485.25,253.53L488.36,255.29L491.47,256.8L494.58,252.52L497.69,250.94L500.8,253.54L503.91,249.12L507.02,249.3L510.13,248.44L513.24,250.56L516.35,248.84L519.46,249.45L522.57,250.2L525.68,246.65L528.79,242.43L531.9,243.95L535.02,245.87L538.13,244.23L541.24,244.06L544.35,245.1L547.46,241.53L550.57,242.79L553.68,242.52L556.79,240.78L563.01,240.19L566.12,237.36L569.23,237.64L572.34,239.41L575.45,235.96L578.56,238.33L581.67,231.93L584.78,234.4L587.89,232.83L591.01,233.39L594.12,233.48L597.23,228.81L600.34,230.81L603.45,226.78L609.67,226.86L612.78,225.94L619,224.6" style="vector-effect: non-scaling-stroke; fill: none; stroke: rgb(44, 160, 44); stroke-opacity: 1; stroke-width: 2px; opacity: 1;"/></g><g class="points"/><g class="text"/></g><g class="trace scatter tracecc397f" style="stroke-miterlimit: 2; opacity: 1;"><g class="fills"/><g class="errorbars"/><g class="lines"><path class="js-line" d="M0,410.31L3.11,413.25L6.22,413.25L9.33,409.45L12.44,411.35L40.44,407.53L43.55,406.79L74.65,399.32L77.76,399.16L80.87,397.3L83.98,396.49L87.1,396.59L90.21,394.37L93.32,392.55L96.43,392.48L108.87,386.78L111.98,387.03L115.09,385.69L118.2,382.62L124.42,380.38L127.53,378.81L130.64,378.27L133.75,376.06L139.97,371.8L143.09,371.98L146.2,369.92L149.31,365.81L155.53,363.42L158.64,361.46L161.75,359.83L164.86,355.92L167.97,355.87L171.08,351.41L174.19,350.68L177.3,347.91L180.41,343.32L183.52,342.28L186.63,340.47L189.74,339.56L195.96,333.39L199.08,329.01L202.19,327.77L205.3,324.41L208.41,322.16L211.52,318.31L214.63,315.22L217.74,309.99L220.85,310.39L223.96,303.75L230.18,300.55L233.29,294.76L236.4,291.72L239.51,285.75L242.62,285.29L245.73,279.15L248.84,277.42L251.95,271.38L261.29,259.6L264.4,253.85L273.73,238.76L276.84,235.73L279.95,230.69L283.06,220.99L286.17,217.91L289.28,211.06L295.5,198.72L298.61,195.05L301.72,189.66L304.83,181.98L307.94,176.02L311.06,173.73L314.17,176.96L317.28,181.41L320.39,187.49L323.5,200.96L329.72,215.16L332.83,226.85L335.94,233.68L339.05,237.79L342.16,249.01L345.27,256.52L351.49,262.18L354.6,262.89L357.71,261.79L360.82,261.54L363.93,258.46L367.05,257.36L373.27,259.25L376.38,255.28L379.49,258.02L382.6,256.19L385.71,256.88L388.82,259.16L395.04,258.53L398.15,254.95L401.26,257.29L404.37,257.57L407.48,255.76L410.59,251.48L413.7,252.06L416.81,253.75L419.92,250.47L423.04,250.43L426.15,251.01L429.26,252.96L432.37,249.87L435.48,248.72L441.7,248.67L444.81,248.51L447.92,249.76L451.03,245.69L460.36,245.89L463.47,243.37L466.58,241.83L469.69,244.03L472.8,242.95L475.91,239.02L479.03,236.6L482.14,236.81L485.25,237.14L488.36,234.5L491.47,231.56L494.58,233.92L497.69,231.98L500.8,232.22L507.02,228.83L510.13,229.53L513.24,227.57L516.35,226.72L519.46,226.4L522.57,224.05L525.68,222.58L528.79,222.83L531.9,220.84L535.02,217.15L538.13,216.99L541.24,215.48L544.35,215.29L547.46,213.07L550.57,214.27L553.68,210.65L556.79,213.52L559.9,211.46L566.12,210L569.23,206.61L575.45,204.95L578.56,206.97L581.67,201.88L584.78,201.17L587.89,200.14L591.01,200.26L594.12,200.98L597.23,193.36L600.34,196.53L603.45,196.24L606.56,193L609.67,192.07L612.78,192.13L615.89,186.72L619,188.66" style="vector-effect: non-scaling-stroke; fill: none; stroke: rgb(214, 39, 40); stroke-opacity: 1; stroke-width: 2px; opacity: 1;"/></g><g class="points"/><g class="text"/></g><g class="trace scatter trace2ab8fb" style="stroke-miterlimit: 2; opacity: 1;"><g class="fills"/><g class="errorbars"/><g class="lines"><path class="js-line" d="M0,409.92L3.11,413.25L6.22,413.25L9.33,409.45L12.44,411.35L40.44,407.53L43.55,406.79L74.65,399.32L77.76,399.16L80.87,397.3L83.98,396.49L87.1,396.59L90.21,394.37L93.32,392.55L96.43,392.48L108.87,386.78L111.98,387.03L115.09,385.69L118.2,382.62L124.42,380.38L127.53,378.81L130.64,378.27L133.75,376.06L139.97,371.8L143.09,371.98L146.2,369.92L149.31,365.81L155.53,363.42L158.64,361.46L161.75,359.83L164.86,355.92L167.97,355.87L171.08,351.41L174.19,350.68L177.3,347.91L180.41,343.32L183.52,342.28L186.63,340.47L189.74,339.56L195.96,333.39L199.08,329.01L202.19,327.77L205.3,324.41L208.41,322.16L211.52,318.31L214.63,315.22L217.74,309.99L220.85,310.39L223.96,303.75L230.18,300.55L233.29,294.76L236.4,291.72L239.51,285.75L242.62,285.29L245.73,279.15L248.84,277.42L251.95,271.38L261.29,259.6L264.4,253.85L273.73,238.76L276.84,235.73L279.95,230.69L283.06,220.99L286.17,217.91L289.28,211.06L295.5,198.72L298.61,195.05L301.72,189.66L304.83,181.98L311.06,170.66L314.17,168.33L317.28,169.97L320.39,177.97L323.5,179.92L326.61,194.61L332.83,213.64L335.94,216.13L339.05,227.69L342.16,234.33L345.27,241.79L348.38,243.15L351.49,247.58L354.6,250L357.71,246.84L360.82,244.85L373.27,236.32L376.38,236.45L382.6,238.34L385.71,237.13L388.82,234.93L391.93,236.75L398.15,235.26L401.26,232.14L404.37,231.92L407.48,229.6L410.59,226.8L413.7,229.04L416.81,224.74L419.92,223.64L423.04,220.69L426.15,219.9L435.48,218.2L438.59,212.31L441.7,215.36L444.81,209.44L447.92,212.87L451.03,206.68L454.14,208.98L457.25,204.67L460.36,206.48L463.47,201.83L466.58,203.95L469.69,200.77L472.8,197.16L475.91,195.71L479.03,195.91L482.14,192.22L491.47,186.78L494.58,184.08L497.69,184.64L500.8,182L503.91,181.6L507.02,177.25L510.13,176.76L513.24,175.24L516.35,174.76L519.46,167.33L525.68,169.11L528.79,167.02L531.9,163.72L535.02,162.21L538.13,162.7L541.24,157.96L547.46,152.49L550.57,153.01L553.68,150.54L556.79,150.26L563.01,146.12L566.12,144.34L572.34,136.77L575.45,136.95L578.56,133.38L581.67,128.43L584.78,130.82L587.89,130.97L594.12,121.67L597.23,121.54L606.56,112.62L609.67,111.57L612.78,108.68L615.89,108.68L619,105.74" style="vector-effect: non-scaling-stroke; fill: none; stroke: rgb(148, 103, 189); stroke-opacity: 1; stroke-width: 2px; opacity: 1;"/></g><g class="points"/><g class="text"/></g><g class="trace scatter trace63121a" style="stroke-miterlimit: 2; opacity: 1;"><g class="fills"/><g class="errorbars"/><g class="lines"><path class="js-line" d="M0,409.87L3.11,413.25L6.22,413.25L9.33,409.45L12.44,411.35L40.44,407.53L43.55,406.79L74.65,399.32L77.76,399.16L80.87,397.3L83.98,396.49L87.1,396.59L90.21,394.37L93.32,392.55L96.43,392.48L108.87,386.78L111.98,387.03L115.09,385.69L118.2,382.62L124.42,380.38L127.53,378.81L130.64,378.27L133.75,376.06L139.97,371.8L143.09,371.98L146.2,369.92L149.31,365.81L155.53,363.42L158.64,361.46L161.75,359.83L164.86,355.92L167.97,355.87L171.08,351.41L174.19,350.68L177.3,347.91L180.41,343.32L183.52,342.28L186.63,340.47L189.74,339.56L195.96,333.39L199.08,329.01L202.19,327.77L205.3,324.41L208.41,322.16L211.52,318.31L214.63,315.22L217.74,309.99L220.85,310.39L223.96,303.75L230.18,300.55L233.29,294.76L236.4,291.72L239.51,285.75L242.62,285.29L245.73,279.15L248.84,277.42L251.95,271.38L261.29,259.6L264.4,253.85L273.73,238.76L276.84,235.73L279.95,230.69L283.06,220.99L286.17,217.91L289.28,211.06L295.5,198.72L298.61,195.05L301.72,189.66L304.83,181.98L311.06,170.07L314.17,168.23L317.28,167.81L320.39,173.31L323.5,179.86L326.61,182.98L329.72,189.37L332.83,198.35L335.94,207.94L339.05,214.46L345.27,223.04L348.38,230.47L351.49,234.67L354.6,233.87L360.82,230.81L363.93,227.01L367.05,228.03L370.16,226.48L373.27,221.29L376.38,218.85L379.49,217.24L382.6,216.61L385.71,213.9L388.82,216.22L391.93,212.74L395.04,214.12L398.15,213.65L401.26,207.3L404.37,209.23L407.48,205.26L413.7,204.06L416.81,194.47L419.92,195.14L423.04,194.51L432.37,187.85L435.48,187.92L438.59,184.67L441.7,183.29L444.81,176.39L447.92,176.78L451.03,173.86L454.14,173.34L460.36,168.77L463.47,167.19L466.58,164.75L469.69,164.95L472.8,161.51L475.91,155.11L479.03,157.19L482.14,151.39L485.25,150.38L488.36,144.85L491.47,145.05L494.58,141.31L497.69,138.2L500.8,137.03L503.91,131.83L507.02,135.77L510.13,125.7L513.24,122.92L516.35,121.91L519.46,119.9L522.57,121.27L525.68,112.19L528.79,111.85L531.9,109.57L535.02,106.28L538.13,104.81L544.35,99.58L547.46,91.57L550.57,90.28L553.68,85.7L556.79,85.48L559.9,83.68L563.01,77.57L566.12,74.82L569.23,70.93L572.34,71.7L575.45,65.8L578.56,63.67L581.67,58.83L584.78,49.94L591.01,51.92L594.12,50.27L597.23,43.01L600.34,44.5L603.45,34.81L606.56,32.63L609.67,30.06L612.78,25.19L615.89,28.67L619,21.75" style="vector-effect: non-scaling-stroke; fill: none; stroke: rgb(140, 86, 75); stroke-opacity: 1; stroke-width: 2px; opacity: 1;"/></g><g class="points"/><g class="text"/></g></g></g><g class="overplot"/><path class="xlines-above crisp" style="fill: none;" d="M0,0"/><path class="ylines-above crisp" style="fill: none;" d="M0,0"/><g class="overlines-above"/><g class="xaxislayer-above"><g class="xtick"><text text-anchor="middle" x="0" y="473" transform="translate(212.42,0)" style="font-family: 'Open Sans', verdana, arial, sans-serif; font-size: 12px; fill: rgb(68, 68, 68); fill-opacity: 1; white-space: pre;">50</text></g><g class="xtick"><text text-anchor="middle" x="0" y="473" transform="translate(367.94,0)" style="font-family: 'Open Sans', verdana, arial, sans-serif; font-size: 12px; fill: rgb(68, 68, 68); fill-opacity: 1; white-space: pre;">100</text></g><g class="xtick"><text text-anchor="middle" x="0" y="473" transform="translate(523.47,0)" style="font-family: 'Open Sans', verdana, arial, sans-serif; font-size: 12px; fill: rgb(68, 68, 68); fill-opacity: 1; white-space: pre;">150</text></g><g class="xtick"><text text-anchor="middle" x="0" y="473" transform="translate(679,0)" style="font-family: 'Open Sans', verdana, arial, sans-serif; font-size: 12px; fill: rgb(68, 68, 68); fill-opacity: 1; white-space: pre;">200</text></g></g><g class="yaxislayer-above"><g class="ytick"><text text-anchor="end" x="59" y="4.199999999999999" transform="translate(0,438.25)" style="font-family: 'Open Sans', verdana, arial, sans-serif; font-size: 12px; fill: rgb(68, 68, 68); fill-opacity: 1; white-space: pre;">0</text></g><g class="ytick"><text text-anchor="end" x="59" y="4.199999999999999" transform="translate(0,390.98)" style="font-family: 'Open Sans', verdana, arial, sans-serif; font-size: 12px; fill: rgb(68, 68, 68); fill-opacity: 1; white-space: pre;">20</text></g><g class="ytick"><text text-anchor="end" x="59" y="4.199999999999999" transform="translate(0,343.72)" style="font-family: 'Open Sans', verdana, arial, sans-serif; font-size: 12px; fill: rgb(68, 68, 68); fill-opacity: 1; white-space: pre;">40</text></g><g class="ytick"><text text-anchor="end" x="59" y="4.199999999999999" transform="translate(0,296.45)" style="font-family: 'Open Sans', verdana, arial, sans-serif; font-size: 12px; fill: rgb(68, 68, 68); fill-opacity: 1; white-space: pre;">60</text></g><g class="ytick"><text text-anchor="end" x="59" y="4.199999999999999" transform="translate(0,249.19)" style="font-family: 'Open Sans', verdana, arial, sans-serif; font-size: 12px; fill: rgb(68, 68, 68); fill-opacity: 1; white-space: pre;">80</text></g><g class="ytick"><text text-anchor="end" x="59" y="4.199999999999999" transform="translate(0,201.92)" style="font-family: 'Open Sans', verdana, arial, sans-serif; font-size: 12px; fill: rgb(68, 68, 68); fill-opacity: 1; white-space: pre;">100</text></g><g class="ytick"><text text-anchor="end" x="59" y="4.199999999999999" transform="translate(0,154.66)" style="font-family: 'Open Sans', verdana, arial, sans-serif; font-size: 12px; fill: rgb(68, 68, 68); fill-opacity: 1; white-space: pre;">120</text></g><g class="ytick"><text text-anchor="end" x="59" y="4.199999999999999" transform="translate(0,107.39)" style="font-family: 'Open Sans', verdana, arial, sans-serif; font-size: 12px; fill: rgb(68, 68, 68); fill-opacity: 1; white-space: pre;">140</text></g><g class="ytick"><text text-anchor="end" x="59" y="4.199999999999999" transform="translate(0,60.13)" style="font-family: 'Open Sans', verdana, arial, sans-serif; font-size: 12px; fill: rgb(68, 68, 68); fill-opacity: 1; white-space: pre;">160</text></g></g><g class="overaxes-above"/></g></g><g class="polarlayer"/><g class="ternarylayer"/><g class="geolayer"/><g class="funnelarealayer"/><g class="pielayer"/><g class="treemaplayer"/><g class="sunburstlayer"/><g class="glimages"/><defs id="topdefs-dbccff"><g class="clips"/><clipPath id="legenddbccff"><rect width="117" height="140" x="0" y="0"/></clipPath></defs><g class="layer-above"><g class="imagelayer"/><g class="shapelayer"/></g><g class="infolayer"><g class="legend" pointer-events="all" transform="translate(90.95, 46.750000000000014)"><rect class="bg" shape-rendering="crispEdges" style="stroke: rgb(68, 68, 68); stroke-opacity: 1; fill: rgb(226, 226, 226); fill-opacity: 1; stroke-width: 0px;" width="117" height="140" x="0" y="0"/><g class="scrollbox" transform="translate(0, 0)" clip-path="url('#legenddbccff')"><text class="legendtitletext user-select-none" text-anchor="start" x="2" y="15.600000000000001" style="font-family: 'Open Sans', verdana, arial, sans-serif; font-size: 12px; fill: rgb(68, 68, 68); fill-opacity: 1; white-space: pre;"><tspan style="font-weight:bold"> Identification Time </tspan></text><g class="groups"><g class="traces" transform="translate(0, 30.1)" style="opacity: 1;"><text class="legendtext user-select-none" text-anchor="start" x="40" y="4.680000000000001" style="font-family: 'Open Sans', verdana, arial, sans-serif; font-size: 12px; fill: rgb(68, 68, 68); fill-opacity: 1; white-space: pre;">0 Months</text><g class="layers" style="opacity: 1;"><g class="legendfill"/><g class="legendlines"><path class="js-line" d="M5,0h30" style="fill: none; stroke: rgb(31, 119, 180); stroke-opacity: 1; stroke-width: 2px;"/></g><g class="legendsymbols"><g class="legendpoints"/></g></g><rect class="legendtoggle" pointer-events="all" x="0" y="-9.5" width="98.046875" height="19" style="cursor: pointer; fill: rgb(0, 0, 0); fill-opacity: 0;"/></g><g class="traces" transform="translate(0, 49.1)" style="opacity: 1;"><text class="legendtext user-select-none" text-anchor="start" x="40" y="4.680000000000001" style="font-family: 'Open Sans', verdana, arial, sans-serif; font-size: 12px; fill: rgb(68, 68, 68); fill-opacity: 1; white-space: pre;">3 Months</text><g class="layers" style="opacity: 1;"><g class="legendfill"/><g class="legendlines"><path class="js-line" d="M5,0h30" style="fill: none; stroke: rgb(255, 127, 14); stroke-opacity: 1; stroke-width: 2px;"/></g><g class="legendsymbols"><g class="legendpoints"/></g></g><rect class="legendtoggle" pointer-events="all" x="0" y="-9.5" width="98.046875" height="19" style="cursor: pointer; fill: rgb(0, 0, 0); fill-opacity: 0;"/></g><g class="traces" transform="translate(0, 68.1)" style="opacity: 1;"><text class="legendtext user-select-none" text-anchor="start" x="40" y="4.680000000000001" style="font-family: 'Open Sans', verdana, arial, sans-serif; font-size: 12px; fill: rgb(68, 68, 68); fill-opacity: 1; white-space: pre;">6 Months</text><g class="layers" style="opacity: 1;"><g class="legendfill"/><g class="legendlines"><path class="js-line" d="M5,0h30" style="fill: none; stroke: rgb(44, 160, 44); stroke-opacity: 1; stroke-width: 2px;"/></g><g class="legendsymbols"><g class="legendpoints"/></g></g><rect class="legendtoggle" pointer-events="all" x="0" y="-9.5" width="98.046875" height="19" style="cursor: pointer; fill: rgb(0, 0, 0); fill-opacity: 0;"/></g><g class="traces" transform="translate(0, 87.1)" style="opacity: 1;"><text class="legendtext user-select-none" text-anchor="start" x="40" y="4.680000000000001" style="font-family: 'Open Sans', verdana, arial, sans-serif; font-size: 12px; fill: rgb(68, 68, 68); fill-opacity: 1; white-space: pre;">12 Months</text><g class="layers" style="opacity: 1;"><g class="legendfill"/><g class="legendlines"><path class="js-line" d="M5,0h30" style="fill: none; stroke: rgb(214, 39, 40); stroke-opacity: 1; stroke-width: 2px;"/></g><g class="legendsymbols"><g class="legendpoints"/></g></g><rect class="legendtoggle" pointer-events="all" x="0" y="-9.5" width="98.046875" height="19" style="cursor: pointer; fill: rgb(0, 0, 0); fill-opacity: 0;"/></g><g class="traces" transform="translate(0, 106.1)" style="opacity: 1;"><text class="legendtext user-select-none" text-anchor="start" x="40" y="4.680000000000001" style="font-family: 'Open Sans', verdana, arial, sans-serif; font-size: 12px; fill: rgb(68, 68, 68); fill-opacity: 1; white-space: pre;">24 Months</text><g class="layers" style="opacity: 1;"><g class="legendfill"/><g class="legendlines"><path class="js-line" d="M5,0h30" style="fill: none; stroke: rgb(148, 103, 189); stroke-opacity: 1; stroke-width: 2px;"/></g><g class="legendsymbols"><g class="legendpoints"/></g></g><rect class="legendtoggle" pointer-events="all" x="0" y="-9.5" width="98.046875" height="19" style="cursor: pointer; fill: rgb(0, 0, 0); fill-opacity: 0;"/></g><g class="traces" transform="translate(0, 125.1)" style="opacity: 1;"><text class="legendtext user-select-none" text-anchor="start" x="40" y="4.680000000000001" style="font-family: 'Open Sans', verdana, arial, sans-serif; font-size: 12px; fill: rgb(68, 68, 68); fill-opacity: 1; white-space: pre;">36 Months</text><g class="layers" style="opacity: 1;"><g class="legendfill"/><g class="legendlines"><path class="js-line" d="M5,0h30" style="fill: none; stroke: rgb(140, 86, 75); stroke-opacity: 1; stroke-width: 2px;"/></g><g class="legendsymbols"><g class="legendpoints"/></g></g><rect class="legendtoggle" pointer-events="all" x="0" y="-9.5" width="98.046875" height="19" style="cursor: pointer; fill: rgb(0, 0, 0); fill-opacity: 0;"/></g></g></g><rect class="scrollbar" rx="20" ry="3" width="0" height="0" style="fill: rgb(128, 139, 164); fill-opacity: 1;" x="0" y="0"/></g><g class="g-gtitle"><text class="gtitle" x="350" y="12.5" text-anchor="middle" dy="0em" style="font-family: 'Open Sans', verdana, arial, sans-serif; font-size: 17px; fill: rgb(68, 68, 68); opacity: 1; font-weight: normal; white-space: pre;"><tspan style="font-weight:bold"> Leprosy Incidence MB - Immunity Vaccine 0.0, Treatment 50% </tspan></text></g><g class="g-xtitle" transform="translate(0,-15)"><text class="xtitle" x="369.5" y="512" text-anchor="middle" style="font-family: 'Open Sans', verdana, arial, sans-serif; font-size: 14px; fill: rgb(68, 68, 68); opacity: 1; font-weight: normal; white-space: pre;">Time(Years)</text></g><g class="g-ytitle"><text class="ytitle" transform="rotate(-90,22,242.5)" x="22" y="242.5" text-anchor="middle" style="font-family: 'Open Sans', verdana, arial, sans-serif; font-size: 14px; fill: rgb(68, 68, 68); opacity: 1; font-weight: normal; white-space: pre;">Number of new infectiuos individuals</text></g></g></svg>