<svg class="main-svg" xmlns="http://www.w3.org/2000/svg" xmlns:xlink="http://www.w3.org/1999/xlink" width="700" height="500" style="" viewBox="0 0 700 500"><rect x="0" y="0" width="700" height="500" style="fill: rgb(255, 255, 255); fill-opacity: 1;"/><defs id="defs-65f73d"><g class="clips"><clipPath id="clip65f73dxyplot" class="plotclip"><rect width="619" height="435"/></clipPath><clipPath class="axesclip" id="clip65f73dx"><rect x="60" y="0" width="619" height="500"/></clipPath><clipPath class="axesclip" id="clip65f73dy"><rect x="0" y="25" width="700" height="435"/></clipPath><clipPath class="axesclip" id="clip65f73dxy"><rect x="60" y="25" width="619" height="435"/></clipPath></g><g class="gradients"/></defs><g class="bglayer"/><g class="layer-below"><g class="imagelayer"/><g class="shapelayer"/></g><g class="cartesianlayer"><g class="subplot xy"><g class="layer-subplot"><g class="shapelayer"/><g class="imagelayer"/></g><g class="gridlayer"><g class="x"><path class="xgrid crisp" transform="translate(212.42,0)" d="M0,25v435" style="stroke: rgb(238, 238, 238); stroke-opacity: 1; stroke-width: 1px;"/><path class="xgrid crisp" transform="translate(367.94,0)" d="M0,25v435" style="stroke: rgb(238, 238, 238); stroke-opacity: 1; stroke-width: 1px;"/><path class="xgrid crisp" transform="translate(523.47,0)" d="M0,25v435" style="stroke: rgb(238, 238, 238); stroke-opacity: 1; stroke-width: 1px;"/></g><g class="y"><path class="ygrid crisp" transform="translate(0,362.37)" d="M60,0h619" style="stroke: rgb(238, 238, 238); stroke-opacity: 1; stroke-width: 1px;"/><path class="ygrid crisp" transform="translate(0,286.49)" d="M60,0h619" style="stroke: rgb(238, 238, 238); stroke-opacity: 1; stroke-width: 1px;"/><path class="ygrid crisp" transform="translate(0,210.61)" d="M60,0h619" style="stroke: rgb(238, 238, 238); stroke-opacity: 1; stroke-width: 1px;"/><path class="ygrid crisp" transform="translate(0,134.73000000000002)" d="M60,0h619" style="stroke: rgb(238, 238, 238); stroke-opacity: 1; stroke-width: 1px;"/><path class="ygrid crisp" transform="translate(0,58.85)" d="M60,0h619" style="stroke: rgb(238, 238, 238); stroke-opacity: 1; stroke-width: 1px;"/></g></g><g class="zerolinelayer"><path class="yzl zl crisp" transform="translate(0,438.25)" d="M60,0h619" style="stroke: rgb(68, 68, 68); stroke-opacity: 1; stroke-width: 1px;"/></g><path class="xlines-below"/><path class="ylines-below"/><g class="overlines-below"/><g class="xaxislayer-below"/><g class="yaxislayer-below"/><g class="overaxes-below"/><g class="plot" transform="translate(60, 25)" clip-path="url('#clip65f73dxyplot')"><g class="scatterlayer mlayer"><g class="trace scatter trace73dfc7" style="stroke-miterlimit: 2; opacity: 1;"><g class="fills"/><g class="errorbars"/><g class="lines"><path class="js-line" d="M0,409.46L3.11,413.25L6.22,413.25L9.33,407.14L12.44,410.2L27.99,407.2L31.11,405.98L34.22,405.83L37.33,404.68L43.55,402.87L46.66,401.64L55.99,398.97L59.1,397.37L68.43,393.65L71.54,392.52L74.65,390.88L77.76,390.64L80.87,387.64L83.98,386.35L87.1,386.5L90.21,382.94L93.32,380.01L96.43,379.9L108.87,370.76L111.98,371.16L115.09,369.01L118.2,364.08L124.42,360.48L127.53,357.95L130.64,357.1L133.75,353.55L139.97,346.7L143.09,346.99L146.2,343.69L149.31,337.09L155.53,333.25L158.64,330.11L161.75,327.49L164.86,321.21L167.97,321.13L171.08,313.98L174.19,312.8L177.3,308.35L180.41,300.99L183.52,299.32L186.63,296.41L189.74,294.95L195.96,285.05L199.08,278.01L202.19,276.02L205.3,270.63L208.41,267.01L211.52,260.83L214.63,255.88L217.74,247.47L220.85,248.12L223.96,237.46L230.18,232.32L233.29,223.02L236.4,218.14L239.51,208.57L242.62,207.83L245.73,197.96L248.84,195.19L251.95,185.5L261.29,166.58L264.4,157.35L270.62,140.67L273.73,133.12L276.84,128.27L279.95,120.17L283.06,104.59L286.17,99.66L295.5,68.85L298.61,62.95L301.72,54.3L304.83,41.97L307.94,32.41L311.06,42.12L314.17,58.25L317.28,81.13L320.39,98.58L323.5,160.4L332.83,234.86L335.94,250.89L342.16,281.56L345.27,295.58L348.38,307.3L351.49,315.12L354.6,316.45L357.71,320.54L363.93,323.85L367.05,330.24L370.16,333.56L373.27,341.37L376.38,344.88L379.49,346.31L382.6,353.1L385.71,355.24L388.82,359.24L391.93,361.08L395.04,361.01L398.15,360.08L401.26,363.04L404.37,362.54L419.92,374.48L423.04,375.86L429.26,378.8L432.37,378.97L438.59,381.4L441.7,382.2L454.14,385.99L457.25,388.19L463.47,390.58L466.58,391.83L469.69,392.17L472.8,393.73L475.91,394.13L479.03,393.22L482.14,395.68L485.25,395.4L488.36,395.36L491.47,397.16L497.69,399.02L500.8,398.93L510.13,401.45L513.24,401.26L519.46,402.7L522.57,402.53L525.68,402.59L528.79,403.67L531.9,403.33L535.02,404.11L544.35,406.1L547.46,405.66L553.68,406.1L556.79,406.82L566.12,406.76L569.23,407.1L575.45,408.2L578.56,407.56L581.67,408.64L584.78,408.09L587.89,408.87L591.01,408.36L597.23,408.81L600.34,409.08L603.45,409.95L606.56,409.74L609.67,409.49L612.78,410.04L619,410.16" style="vector-effect: non-scaling-stroke; fill: none; stroke: rgb(31, 119, 180); stroke-opacity: 1; stroke-width: 2px; opacity: 1;"/></g><g class="points"/><g class="text"/></g><g class="trace scatter trace67fb12" style="stroke-miterlimit: 2; opacity: 1;"><g class="fills"/><g class="errorbars"/><g class="lines"><path class="js-line" d="M0,409.46L3.11,413.25L6.22,413.25L9.33,407.14L12.44,410.2L27.99,407.2L31.11,405.98L34.22,405.83L37.33,404.68L43.55,402.87L46.66,401.64L55.99,398.97L59.1,397.37L68.43,393.65L71.54,392.52L74.65,390.88L77.76,390.64L80.87,387.64L83.98,386.35L87.1,386.5L90.21,382.94L93.32,380.01L96.43,379.9L108.87,370.76L111.98,371.16L115.09,369.01L118.2,364.08L124.42,360.48L127.53,357.95L130.64,357.1L133.75,353.55L139.97,346.7L143.09,346.99L146.2,343.69L149.31,337.09L155.53,333.25L158.64,330.11L161.75,327.49L164.86,321.21L167.97,321.13L171.08,313.98L174.19,312.8L177.3,308.35L180.41,300.99L183.52,299.32L186.63,296.41L189.74,294.95L195.96,285.05L199.08,278.01L202.19,276.02L205.3,270.63L208.41,267.01L211.52,260.83L214.63,255.88L217.74,247.47L220.85,248.12L223.96,237.46L230.18,232.32L233.29,223.02L236.4,218.14L239.51,208.57L242.62,207.83L245.73,197.96L248.84,195.19L251.95,185.5L261.29,166.58L264.4,157.35L270.62,140.67L273.73,133.12L276.84,128.27L279.95,120.17L283.06,104.59L286.17,99.66L295.5,68.85L298.61,62.95L301.72,54.3L304.83,41.97L307.94,32.41L311.06,32.92L314.17,58.19L317.28,75.68L320.39,95.75L323.5,154.01L326.61,184.8L329.72,207.1L332.83,231.16L335.94,248.72L345.27,294.35L348.38,302.71L354.6,313.41L357.71,316.31L360.82,319.39L363.93,319.48L367.05,325.93L370.16,328.49L373.27,334.85L376.38,338.15L379.49,343.95L382.6,346.59L385.71,354.22L388.82,354.52L391.93,354.77L395.04,356.32L398.15,357.35L401.26,360L404.37,360.34L407.48,363.3L410.59,365.31L413.7,365.45L419.92,368.99L423.04,372.62L426.15,374.93L429.26,373.75L435.48,377.15L438.59,377.23L441.7,379.62L444.81,380.47L447.92,380.55L451.03,382.56L454.14,383.32L457.25,386.03L460.36,385.59L463.47,387.56L466.58,388.13L469.69,389.97L472.8,391.3L475.91,391.06L482.14,392.72L485.25,393.77L491.47,396.1L494.58,396.37L497.69,397.13L500.8,397.05L503.91,398.95L507.02,398.21L513.24,400.56L516.35,399.67L519.46,400.14L522.57,402L525.68,402.7L528.79,401.83L531.9,403.48L535.02,403.29L547.46,404.56L550.57,404.77L569.23,407.07L572.34,407.08L587.89,407.69L591.01,408.09L597.23,408.17L600.34,408.49L609.67,408.32L612.78,409.3L619,409.51" style="vector-effect: non-scaling-stroke; fill: none; stroke: rgb(255, 127, 14); stroke-opacity: 1; stroke-width: 2px; opacity: 1;"/></g><g class="points"/><g class="text"/></g><g class="trace scatter tracee81f71" style="stroke-miterlimit: 2; opacity: 1;"><g class="fills"/><g class="errorbars"/><g class="lines"><path class="js-line" d="M0,409.42L3.11,413.25L6.22,413.25L9.33,407.14L12.44,410.2L27.99,407.2L31.11,405.98L34.22,405.83L37.33,404.68L43.55,402.87L46.66,401.64L55.99,398.97L59.1,397.37L68.43,393.65L71.54,392.52L74.65,390.88L77.76,390.64L80.87,387.64L83.98,386.35L87.1,386.5L90.21,382.94L93.32,380.01L96.43,379.9L108.87,370.76L111.98,371.16L115.09,369.01L118.2,364.08L124.42,360.48L127.53,357.95L130.64,357.1L133.75,353.55L139.97,346.7L143.09,346.99L146.2,343.69L149.31,337.09L155.53,333.25L158.64,330.11L161.75,327.49L164.86,321.21L167.97,321.13L171.08,313.98L174.19,312.8L177.3,308.35L180.41,300.99L183.52,299.32L186.63,296.41L189.74,294.95L195.96,285.05L199.08,278.01L202.19,276.02L205.3,270.63L208.41,267.01L211.52,260.83L214.63,255.88L217.74,247.47L220.85,248.12L223.96,237.46L230.18,232.32L233.29,223.02L236.4,218.14L239.51,208.57L242.62,207.83L245.73,197.96L248.84,195.19L251.95,185.5L261.29,166.58L264.4,157.35L270.62,140.67L273.73,133.12L276.84,128.27L279.95,120.17L283.06,104.59L286.17,99.66L295.5,68.85L298.61,62.95L301.72,54.3L304.83,41.97L307.94,32.41L311.06,31.96L314.17,48.73L317.28,69.63L320.39,93.49L323.5,149.89L326.61,178.86L329.72,199.71L335.94,244.66L339.05,260.58L345.27,290.44L348.38,298.52L354.6,309.28L357.71,310.64L360.82,311.89L363.93,317L367.05,321.57L370.16,324.55L376.38,334.96L379.49,338.72L385.71,348.45L388.82,350.97L391.93,349.32L395.04,351.98L398.15,352.45L401.26,354.88L404.37,356.3L407.48,356.53L413.7,361.71L416.81,365.03L419.92,365.54L423.04,368.88L429.26,372.39L432.37,372.58L441.7,374.95L444.81,376.77L447.92,376.28L451.03,378.02L454.14,379.65L457.25,382.33L463.47,383.96L466.58,384.97L469.69,387.72L472.8,387.93L475.91,389.08L479.03,389.25L482.14,390.9L485.25,390.43L491.47,393.07L494.58,393.24L510.13,397.52L513.24,397.6L519.46,399.14L522.57,398.47L525.68,399.9L528.79,399.29L531.9,400.77L535.02,401.09L538.13,400.94L541.24,402L547.46,402.21L550.57,402.99L559.9,404.43L563.01,404.33L566.12,405.17L569.23,404.49L575.45,406.02L578.56,405.79L603.45,407.84L606.56,407.65L615.89,408.13L619,408.75" style="vector-effect: non-scaling-stroke; fill: none; stroke: rgb(44, 160, 44); stroke-opacity: 1; stroke-width: 2px; opacity: 1;"/></g><g class="points"/><g class="text"/></g><g class="trace scatter trace2e1fb9" style="stroke-miterlimit: 2; opacity: 1;"><g class="fills"/><g class="errorbars"/><g class="lines"><path class="js-line" d="M0,409.46L3.11,413.25L6.22,413.25L9.33,407.14L12.44,410.2L27.99,407.2L31.11,405.98L34.22,405.83L37.33,404.68L43.55,402.87L46.66,401.64L55.99,398.97L59.1,397.37L68.43,393.65L71.54,392.52L74.65,390.88L77.76,390.64L80.87,387.64L83.98,386.35L87.1,386.5L90.21,382.94L93.32,380.01L96.43,379.9L108.87,370.76L111.98,371.16L115.09,369.01L118.2,364.08L124.42,360.48L127.53,357.95L130.64,357.1L133.75,353.55L139.97,346.7L143.09,346.99L146.2,343.69L149.31,337.09L155.53,333.25L158.64,330.11L161.75,327.49L164.86,321.21L167.97,321.13L171.08,313.98L174.19,312.8L177.3,308.35L180.41,300.99L183.52,299.32L186.63,296.41L189.74,294.95L195.96,285.05L199.08,278.01L202.19,276.02L205.3,270.63L208.41,267.01L211.52,260.83L214.63,255.88L217.74,247.47L220.85,248.12L223.96,237.46L230.18,232.32L233.29,223.02L236.4,218.14L239.51,208.57L242.62,207.83L245.73,197.96L248.84,195.19L251.95,185.5L261.29,166.58L264.4,157.35L270.62,140.67L273.73,133.12L276.84,128.27L279.95,120.17L283.06,104.59L286.17,99.66L295.5,68.85L298.61,62.95L301.72,54.3L304.83,41.97L307.94,32.41L311.06,27.4L314.17,40.87L317.28,65.06L320.39,77.56L323.5,141.91L326.61,163.49L329.72,191.81L332.83,218.83L335.94,233.93L345.27,287.52L348.38,296.49L351.49,299.11L354.6,299.3L357.71,304.29L360.82,304.04L363.93,305.82L367.05,309.41L379.49,331.83L382.6,337.92L385.71,339.87L388.82,345.09L391.93,345.45L395.04,346.84L398.15,344.39L401.26,344.84L404.37,347.35L407.48,348.52L410.59,350.97L413.7,351.9L426.15,364.82L429.26,366.09L432.37,367.76L435.48,368.54L438.59,367.08L441.7,370.32L444.81,370.17L447.92,372.37L451.03,370.68L454.14,373.89L457.25,374.49L460.36,376.68L466.58,379.07L469.69,382.48L475.91,383.98L479.03,383.45L482.14,383.73L485.25,385.08L488.36,385.93L491.47,387.81L494.58,387.81L497.69,388.84L507.02,391.04L510.13,391.87L516.35,394.01L519.46,394.03L522.57,394.79L525.68,396.46L531.9,396.35L535.02,398.11L538.13,397.85L541.24,398.51L544.35,399.8L547.46,398.38L553.68,399.71L556.79,400.67L566.12,400.94L569.23,401.51L572.34,402.15L575.45,401.98L578.56,403.4L581.67,403.06L587.89,404.03L591.01,403.06L594.12,404.11L597.23,404.11L603.45,405L606.56,404.9L619,406.25" style="vector-effect: non-scaling-stroke; fill: none; stroke: rgb(214, 39, 40); stroke-opacity: 1; stroke-width: 2px; opacity: 1;"/></g><g class="points"/><g class="text"/></g><g class="trace scatter trace9d18cb" style="stroke-miterlimit: 2; opacity: 1;"><g class="fills"/><g class="errorbars"/><g class="lines"><path class="js-line" d="M0,409.42L3.11,413.25L6.22,413.25L9.33,407.14L12.44,410.2L27.99,407.2L31.11,405.98L34.22,405.83L37.33,404.68L43.55,402.87L46.66,401.64L55.99,398.97L59.1,397.37L68.43,393.65L71.54,392.52L74.65,390.88L77.76,390.64L80.87,387.64L83.98,386.35L87.1,386.5L90.21,382.94L93.32,380.01L96.43,379.9L108.87,370.76L111.98,371.16L115.09,369.01L118.2,364.08L124.42,360.48L127.53,357.95L130.64,357.1L133.75,353.55L139.97,346.7L143.09,346.99L146.2,343.69L149.31,337.09L155.53,333.25L158.64,330.11L161.75,327.49L164.86,321.21L167.97,321.13L171.08,313.98L174.19,312.8L177.3,308.35L180.41,300.99L183.52,299.32L186.63,296.41L189.74,294.95L195.96,285.05L199.08,278.01L202.19,276.02L205.3,270.63L208.41,267.01L211.52,260.83L214.63,255.88L217.74,247.47L220.85,248.12L223.96,237.46L230.18,232.32L233.29,223.02L236.4,218.14L239.51,208.57L242.62,207.83L245.73,197.96L248.84,195.19L251.95,185.5L261.29,166.58L264.4,157.35L270.62,140.67L273.73,133.12L276.84,128.27L279.95,120.17L283.06,104.59L286.17,99.66L295.5,68.85L298.61,62.95L301.72,54.3L304.83,41.97L311.06,21.75L314.17,27.88L317.28,43.03L320.39,65.87L323.5,113.05L326.61,146.08L332.83,198.89L335.94,213.35L339.05,239.96L342.16,253.13L348.38,282.79L351.49,288.88L354.6,288.09L357.71,288.66L360.82,289.57L363.93,292.87L367.05,292.37L370.16,294.1L373.27,299.32L376.38,306.37L379.49,312.58L382.6,315.1L388.82,327.96L391.93,331.15L395.04,332.34L398.15,332.08L401.26,333.16L404.37,332.82L407.48,334.2L410.59,334.56L413.7,335.45L416.81,337.98L419.92,342.13L423.04,342.76L429.26,349.59L432.37,351.79L435.48,356.64L438.59,354.46L441.7,354.56L444.81,356.32L447.92,355.45L451.03,359.11L454.14,362.22L457.25,361.54L460.36,363.32L463.47,364.23L469.69,369.49L472.8,369.11L479.03,373.49L482.14,373.07L485.25,375.03L488.36,374.32L491.47,376.52L494.58,376.58L497.69,376.47L500.8,379.37L507.02,380.32L510.13,383.11L513.24,383.62L516.35,382.1L519.46,385.5L522.57,385.33L525.68,386.1L528.79,385.42L531.9,388.23L535.02,387.83L538.13,387.53L541.24,388.99L544.35,388.82L547.46,390.05L550.57,391.78L553.68,391.07L559.9,393.45L563.01,392.48L566.12,393.37L569.23,393.43L575.45,394.66L578.56,394.15L581.67,395.8L584.78,395.1L587.89,396.42L591.01,396.69L594.12,396.48L597.23,397.75L603.45,398.62L606.56,398.61L609.67,399.57L612.78,399.74L615.89,400.77L619,400.45" style="vector-effect: non-scaling-stroke; fill: none; stroke: rgb(148, 103, 189); stroke-opacity: 1; stroke-width: 2px; opacity: 1;"/></g><g class="points"/><g class="text"/></g><g class="trace scatter trace865e03" style="stroke-miterlimit: 2; opacity: 1;"><g class="fills"/><g class="errorbars"/><g class="lines"><path class="js-line" d="M0,409.42L3.11,413.25L6.22,413.25L9.33,407.14L12.44,410.2L27.99,407.2L31.11,405.98L34.22,405.83L37.33,404.68L43.55,402.87L46.66,401.64L55.99,398.97L59.1,397.37L68.43,393.65L71.54,392.52L74.65,390.88L77.76,390.64L80.87,387.64L83.98,386.35L87.1,386.5L90.21,382.94L93.32,380.01L96.43,379.9L108.87,370.76L111.98,371.16L115.09,369.01L118.2,364.08L124.42,360.48L127.53,357.95L130.64,357.1L133.75,353.55L139.97,346.7L143.09,346.99L146.2,343.69L149.31,337.09L155.53,333.25L158.64,330.11L161.75,327.49L164.86,321.21L167.97,321.13L171.08,313.98L174.19,312.8L177.3,308.35L180.41,300.99L183.52,299.32L186.63,296.41L189.74,294.95L195.96,285.05L199.08,278.01L202.19,276.02L205.3,270.63L208.41,267.01L211.52,260.83L214.63,255.88L217.74,247.47L220.85,248.12L223.96,237.46L230.18,232.32L233.29,223.02L236.4,218.14L239.51,208.57L242.62,207.83L245.73,197.96L248.84,195.19L251.95,185.5L261.29,166.58L264.4,157.35L270.62,140.67L273.73,133.12L276.84,128.27L279.95,120.17L283.06,104.59L286.17,99.66L295.5,68.85L298.61,62.95L301.72,54.3L304.83,41.97L311.06,22.93L314.17,24.73L317.28,32.01L320.39,43.02L323.5,97.27L326.61,120.3L329.72,151.85L332.83,171.06L339.05,219.62L342.16,235.18L348.38,266.76L351.49,275.53L354.6,278.98L357.71,277.6L363.93,274.5L367.05,278.37L370.16,278.75L373.27,281.3L382.6,300.36L385.71,302.75L388.82,311.48L391.93,315.12L395.04,320.96L398.15,323.12L401.26,325.06L404.37,321.42L410.59,323.48L413.7,321.74L419.92,325.4L423.04,328.42L426.15,330.94L429.26,335.04L432.37,336.93L435.48,340.77L438.59,341.51L441.7,343.46L444.81,344.33L447.92,347.31L451.03,346.65L454.14,348.75L457.25,347.9L460.36,348.71L466.58,353.17L469.69,353.63L475.91,355.7L479.03,359.79L485.25,359.74L488.36,360.86L491.47,361.92L494.58,363.89L497.69,365.29L500.8,364.02L503.91,367.12L507.02,367.48L513.24,370.38L516.35,371.06L519.46,371.99L522.57,373.83L525.68,374.53L528.79,373.68L535.02,377.38L538.13,376.56L544.35,378.35L547.46,378.31L553.68,381.19L556.79,381.76L559.9,381.55L563.01,384.11L566.12,383.2L569.23,383.73L584.78,385.82L587.89,388.11L591.01,387.49L594.12,388.48L603.45,391.7L606.56,391.24L612.78,392.29L615.89,391.85L619,393.5" style="vector-effect: non-scaling-stroke; fill: none; stroke: rgb(140, 86, 75); stroke-opacity: 1; stroke-width: 2px; opacity: 1;"/></g><g class="points"/><g class="text"/></g></g></g><g class="overplot"/><path class="xlines-above crisp" style="fill: none;" d="M0,0"/><path class="ylines-above crisp" style="fill: none;" d="M0,0"/><g class="overlines-above"/><g class="xaxislayer-above"><g class="xtick"><text text-anchor="middle" x="0" y="473" transform="translate(212.42,0)" style="font-family: 'Open Sans', verdana, arial, sans-serif; font-size: 12px; fill: rgb(68, 68, 68); fill-opacity: 1; white-space: pre;">50</text></g><g class="xtick"><text text-anchor="middle" x="0" y="473" transform="translate(367.94,0)" style="font-family: 'Open Sans', verdana, arial, sans-serif; font-size: 12px; fill: rgb(68, 68, 68); fill-opacity: 1; white-space: pre;">100</text></g><g class="xtick"><text text-anchor="middle" x="0" y="473" transform="translate(523.47,0)" style="font-family: 'Open Sans', verdana, arial, sans-serif; font-size: 12px; fill: rgb(68, 68, 68); fill-opacity: 1; white-space: pre;">150</text></g><g class="xtick"><text text-anchor="middle" x="0" y="473" transform="translate(679,0)" style="font-family: 'Open Sans', verdana, arial, sans-serif; font-size: 12px; fill: rgb(68, 68, 68); fill-opacity: 1; white-space: pre;">200</text></g></g><g class="yaxislayer-above"><g class="ytick"><text text-anchor="end" x="59" y="4.199999999999999" transform="translate(0,438.25)" style="font-family: 'Open Sans', verdana, arial, sans-serif; font-size: 12px; fill: rgb(68, 68, 68); fill-opacity: 1; white-space: pre;">0</text></g><g class="ytick"><text text-anchor="end" x="59" y="4.199999999999999" transform="translate(0,362.37)" style="font-family: 'Open Sans', verdana, arial, sans-serif; font-size: 12px; fill: rgb(68, 68, 68); fill-opacity: 1; white-space: pre;">20</text></g><g class="ytick"><text text-anchor="end" x="59" y="4.199999999999999" transform="translate(0,286.49)" style="font-family: 'Open Sans', verdana, arial, sans-serif; font-size: 12px; fill: rgb(68, 68, 68); fill-opacity: 1; white-space: pre;">40</text></g><g class="ytick"><text text-anchor="end" x="59" y="4.199999999999999" transform="translate(0,210.61)" style="font-family: 'Open Sans', verdana, arial, sans-serif; font-size: 12px; fill: rgb(68, 68, 68); fill-opacity: 1; white-space: pre;">60</text></g><g class="ytick"><text text-anchor="end" x="59" y="4.199999999999999" transform="translate(0,134.73000000000002)" style="font-family: 'Open Sans', verdana, arial, sans-serif; font-size: 12px; fill: rgb(68, 68, 68); fill-opacity: 1; white-space: pre;">80</text></g><g class="ytick"><text text-anchor="end" x="59" y="4.199999999999999" transform="translate(0,58.85)" style="font-family: 'Open Sans', verdana, arial, sans-serif; font-size: 12px; fill: rgb(68, 68, 68); fill-opacity: 1; white-space: pre;">100</text></g></g><g class="overaxes-above"/></g></g><g class="polarlayer"/><g class="ternarylayer"/><g class="geolayer"/><g class="funnelarealayer"/><g class="pielayer"/><g class="treemaplayer"/><g class="sunburstlayer"/><g class="glimages"/><defs id="topdefs-65f73d"><g class="clips"/><clipPath id="legend65f73d"><rect width="117" height="140" x="0" y="0"/></clipPath></defs><g class="layer-above"><g class="imagelayer"/><g class="shapelayer"/></g><g class="infolayer"><g class="legend" pointer-events="all" transform="translate(90.95, 46.750000000000014)"><rect class="bg" shape-rendering="crispEdges" style="stroke: rgb(68, 68, 68); stroke-opacity: 1; fill: rgb(226, 226, 226); fill-opacity: 1; stroke-width: 0px;" width="117" height="140" x="0" y="0"/><g class="scrollbox" transform="translate(0, 0)" clip-path="url('#legend65f73d')"><text class="legendtitletext user-select-none" text-anchor="start" x="2" y="15.600000000000001" style="font-family: 'Open Sans', verdana, arial, sans-serif; font-size: 12px; fill: rgb(68, 68, 68); fill-opacity: 1; white-space: pre;"><tspan style="font-weight:bold"> Identification Time </tspan></text><g class="groups"><g class="traces" transform="translate(0, 30.1)" style="opacity: 1;"><text class="legendtext user-select-none" text-anchor="start" x="40" y="4.680000000000001" style="font-family: 'Open Sans', verdana, arial, sans-serif; font-size: 12px; fill: rgb(68, 68, 68); fill-opacity: 1; white-space: pre;">0 Months</text><g class="layers" style="opacity: 1;"><g class="legendfill"/><g class="legendlines"><path class="js-line" d="M5,0h30" style="fill: none; stroke: rgb(31, 119, 180); stroke-opacity: 1; stroke-width: 2px;"/></g><g class="legendsymbols"><g class="legendpoints"/></g></g><rect class="legendtoggle" pointer-events="all" x="0" y="-9.5" width="98.046875" height="19" style="cursor: pointer; fill: rgb(0, 0, 0); fill-opacity: 0;"/></g><g class="traces" transform="translate(0, 49.1)" style="opacity: 1;"><text class="legendtext user-select-none" text-anchor="start" x="40" y="4.680000000000001" style="font-family: 'Open Sans', verdana, arial, sans-serif; font-size: 12px; fill: rgb(68, 68, 68); fill-opacity: 1; white-space: pre;">3 Months</text><g class="layers" style="opacity: 1;"><g class="legendfill"/><g class="legendlines"><path class="js-line" d="M5,0h30" style="fill: none; stroke: rgb(255, 127, 14); stroke-opacity: 1; stroke-width: 2px;"/></g><g class="legendsymbols"><g class="legendpoints"/></g></g><rect class="legendtoggle" pointer-events="all" x="0" y="-9.5" width="98.046875" height="19" style="cursor: pointer; fill: rgb(0, 0, 0); fill-opacity: 0;"/></g><g class="traces" transform="translate(0, 68.1)" style="opacity: 1;"><text class="legendtext user-select-none" text-anchor="start" x="40" y="4.680000000000001" style="font-family: 'Open Sans', verdana, arial, sans-serif; font-size: 12px; fill: rgb(68, 68, 68); fill-opacity: 1; white-space: pre;">6 Months</text><g class="layers" style="opacity: 1;"><g class="legendfill"/><g class="legendlines"><path class="js-line" d="M5,0h30" style="fill: none; stroke: rgb(44, 160, 44); stroke-opacity: 1; stroke-width: 2px;"/></g><g class="legendsymbols"><g class="legendpoints"/></g></g><rect class="legendtoggle" pointer-events="all" x="0" y="-9.5" width="98.046875" height="19" style="cursor: pointer; fill: rgb(0, 0, 0); fill-opacity: 0;"/></g><g class="traces" transform="translate(0, 87.1)" style="opacity: 1;"><text class="legendtext user-select-none" text-anchor="start" x="40" y="4.680000000000001" style="font-family: 'Open Sans', verdana, arial, sans-serif; font-size: 12px; fill: rgb(68, 68, 68); fill-opacity: 1; white-space: pre;">12 Months</text><g class="layers" style="opacity: 1;"><g class="legendfill"/><g class="legendlines"><path class="js-line" d="M5,0h30" style="fill: none; stroke: rgb(214, 39, 40); stroke-opacity: 1; stroke-width: 2px;"/></g><g class="legendsymbols"><g class="legendpoints"/></g></g><rect class="legendtoggle" pointer-events="all" x="0" y="-9.5" width="98.046875" height="19" style="cursor: pointer; fill: rgb(0, 0, 0); fill-opacity: 0;"/></g><g class="traces" transform="translate(0, 106.1)" style="opacity: 1;"><text class="legendtext user-select-none" text-anchor="start" x="40" y="4.680000000000001" style="font-family: 'Open Sans', verdana, arial, sans-serif; font-size: 12px; fill: rgb(68, 68, 68); fill-opacity: 1; white-space: pre;">24 Months</text><g class="layers" style="opacity: 1;"><g class="legendfill"/><g class="legendlines"><path class="js-line" d="M5,0h30" style="fill: none; stroke: rgb(148, 103, 189); stroke-opacity: 1; stroke-width: 2px;"/></g><g class="legendsymbols"><g class="legendpoints"/></g></g><rect class="legendtoggle" pointer-events="all" x="0" y="-9.5" width="98.046875" height="19" style="cursor: pointer; fill: rgb(0, 0, 0); fill-opacity: 0;"/></g><g class="traces" transform="translate(0, 125.1)" style="opacity: 1;"><text class="legendtext user-select-none" text-anchor="start" x="40" y="4.680000000000001" style="font-family: 'Open Sans', verdana, arial, sans-serif; font-size: 12px; fill: rgb(68, 68, 68); fill-opacity: 1; white-space: pre;">36 Months</text><g class="layers" style="opacity: 1;"><g class="legendfill"/><g class="legendlines"><path class="js-line" d="M5,0h30" style="fill: none; stroke: rgb(140, 86, 75); stroke-opacity: 1; stroke-width: 2px;"/></g><g class="legendsymbols"><g class="legendpoints"/></g></g><rect class="legendtoggle" pointer-events="all" x="0" y="-9.5" width="98.046875" height="19" style="cursor: pointer; fill: rgb(0, 0, 0); fill-opacity: 0;"/></g></g></g><rect class="scrollbar" rx="20" ry="3" width="0" height="0" style="fill: rgb(128, 139, 164); fill-opacity: 1;" x="0" y="0"/></g><g class="g-gtitle"><text class="gtitle" x="350" y="12.5" text-anchor="middle" dy="0em" style="font-family: 'Open Sans', verdana, arial, sans-serif; font-size: 17px; fill: rgb(68, 68, 68); opacity: 1; font-weight: normal; white-space: pre;"><tspan style="font-weight:bold"> Leprosy Incidence MB - Immunity Vaccine 0.99, Treatment 75% </tspan></text></g><g class="g-xtitle" transform="translate(0,-15)"><text class="xtitle" x="369.5" y="512" text-anchor="middle" style="font-family: 'Open Sans', verdana, arial, sans-serif; font-size: 14px; fill: rgb(68, 68, 68); opacity: 1; font-weight: normal; white-space: pre;">Time(Years)</text></g><g class="g-ytitle"><text class="ytitle" transform="rotate(-90,22,242.5)" x="22" y="242.5" text-anchor="middle" style="font-family: 'Open Sans', verdana, arial, sans-serif; font-size: 14px; fill: rgb(68, 68, 68); opacity: 1; font-weight: normal; white-space: pre;">Number of new infectiuos individuals</text></g></g></svg>