<svg class="main-svg" xmlns="http://www.w3.org/2000/svg" xmlns:xlink="http://www.w3.org/1999/xlink" width="700" height="500" style="" viewBox="0 0 700 500"><rect x="0" y="0" width="700" height="500" style="fill: rgb(255, 255, 255); fill-opacity: 1;"/><defs id="defs-3367d7"><g class="clips"><clipPath id="clip3367d7xyplot" class="plotclip"><rect width="619" height="435"/></clipPath><clipPath class="axesclip" id="clip3367d7x"><rect x="60" y="0" width="619" height="500"/></clipPath><clipPath class="axesclip" id="clip3367d7y"><rect x="0" y="25" width="700" height="435"/></clipPath><clipPath class="axesclip" id="clip3367d7xy"><rect x="60" y="25" width="619" height="435"/></clipPath></g><g class="gradients"/></defs><g class="bglayer"/><g class="layer-below"><g class="imagelayer"/><g class="shapelayer"/></g><g class="cartesianlayer"><g class="subplot xy"><g class="layer-subplot"><g class="shapelayer"/><g class="imagelayer"/></g><g class="gridlayer"><g class="x"><path class="xgrid crisp" transform="translate(212.42,0)" d="M0,25v435" style="stroke: rgb(238, 238, 238); stroke-opacity: 1; stroke-width: 1px;"/><path class="xgrid crisp" transform="translate(367.94,0)" d="M0,25v435" style="stroke: rgb(238, 238, 238); stroke-opacity: 1; stroke-width: 1px;"/><path class="xgrid crisp" transform="translate(523.47,0)" d="M0,25v435" style="stroke: rgb(238, 238, 238); stroke-opacity: 1; stroke-width: 1px;"/></g><g class="y"><path class="ygrid crisp" transform="translate(0,362.37)" d="M60,0h619" style="stroke: rgb(238, 238, 238); stroke-opacity: 1; stroke-width: 1px;"/><path class="ygrid crisp" transform="translate(0,286.49)" d="M60,0h619" style="stroke: rgb(238, 238, 238); stroke-opacity: 1; stroke-width: 1px;"/><path class="ygrid crisp" transform="translate(0,210.61)" d="M60,0h619" style="stroke: rgb(238, 238, 238); stroke-opacity: 1; stroke-width: 1px;"/><path class="ygrid crisp" transform="translate(0,134.73000000000002)" d="M60,0h619" style="stroke: rgb(238, 238, 238); stroke-opacity: 1; stroke-width: 1px;"/><path class="ygrid crisp" transform="translate(0,58.85)" d="M60,0h619" style="stroke: rgb(238, 238, 238); stroke-opacity: 1; stroke-width: 1px;"/></g></g><g class="zerolinelayer"><path class="yzl zl crisp" transform="translate(0,438.25)" d="M60,0h619" style="stroke: rgb(68, 68, 68); stroke-opacity: 1; stroke-width: 1px;"/></g><path class="xlines-below"/><path class="ylines-below"/><g class="overlines-below"/><g class="xaxislayer-below"/><g class="yaxislayer-below"/><g class="overaxes-below"/><g class="plot" transform="translate(60, 25)" clip-path="url('#clip3367d7xyplot')"><g class="scatterlayer mlayer"><g class="trace scatter tracee290ad" style="stroke-miterlimit: 2; opacity: 1;"><g class="fills"/><g class="errorbars"/><g class="lines"><path class="js-line" d="M0,409.44L3.11,413.25L6.22,413.25L9.33,407.14L12.44,410.2L27.99,407.2L31.11,405.98L34.22,405.83L37.33,404.68L43.55,402.87L46.66,401.64L55.99,398.97L59.1,397.37L68.43,393.65L71.54,392.52L74.65,390.88L77.76,390.64L80.87,387.64L83.98,386.35L87.1,386.5L90.21,382.94L93.32,380.01L96.43,379.9L108.87,370.76L111.98,371.16L115.09,369.01L118.2,364.08L124.42,360.48L127.53,357.95L130.64,357.1L133.75,353.55L139.97,346.7L143.09,346.99L146.2,343.69L149.31,337.09L155.53,333.25L158.64,330.11L161.75,327.49L164.86,321.21L167.97,321.13L171.08,313.98L174.19,312.8L177.3,308.35L180.41,300.99L183.52,299.32L186.63,296.41L189.74,294.95L195.96,285.05L199.08,278.01L202.19,276.02L205.3,270.63L208.41,267.01L211.52,260.83L214.63,255.88L217.74,247.47L220.85,248.12L223.96,237.46L230.18,232.32L233.29,223.02L236.4,218.14L239.51,208.57L242.62,207.83L245.73,197.96L248.84,195.19L251.95,185.5L261.29,166.58L264.4,157.35L270.62,140.67L273.73,133.12L276.84,128.27L279.95,120.17L283.06,104.59L286.17,99.66L295.5,68.85L298.61,62.95L301.72,54.3L304.83,41.97L307.94,32.41L311.06,42.12L320.39,101.65L323.5,144.41L329.72,196.33L332.83,211.73L335.94,234.91L339.05,252.1L342.16,270.6L345.27,278.62L348.38,292.05L351.49,298.14L354.6,298.63L357.71,306.43L360.82,305.46L363.93,307.87L367.05,310.13L370.16,319.2L373.27,320.64L376.38,323.45L379.49,326.9L382.6,333.31L385.71,337.14L388.82,338.22L391.93,341.66L395.04,342.51L404.37,344.2L407.48,345.53L410.59,348.68L413.7,348.6L416.81,350.21L419.92,354.71L423.04,353.91L426.15,356.76L432.37,359.58L435.48,362.92L438.59,364.04L441.7,363.95L444.81,365.86L447.92,366.39L451.03,368.86L454.14,368.75L457.25,369.77L460.36,371.65L466.58,373.47L469.69,374.02L472.8,374.72L475.91,376.54L482.14,378.65L485.25,377.83L488.36,380.01L491.47,380.75L494.58,381.3L497.69,382.9L503.91,383.11L507.02,385.48L513.24,387.03L516.35,386.46L522.57,389.42L525.68,390.18L531.9,390.56L535.02,392.02L538.13,392.29L541.24,393.45L547.46,393.62L550.57,394.94L553.68,396.46L556.79,394.45L559.9,397.56L563.01,396.82L566.12,396.71L569.23,397.41L572.34,397.3L575.45,398.79L584.78,399.08L587.89,400.64L591.01,400.07L594.12,400.81L600.34,401.3L603.45,400.77L606.56,401.11L609.67,402.44L615.89,401.96L619,402.87" style="vector-effect: non-scaling-stroke; fill: none; stroke: rgb(31, 119, 180); stroke-opacity: 1; stroke-width: 2px; opacity: 1;"/></g><g class="points"/><g class="text"/></g><g class="trace scatter trace94c4ff" style="stroke-miterlimit: 2; opacity: 1;"><g class="fills"/><g class="errorbars"/><g class="lines"><path class="js-line" d="M0,409.36L3.11,413.25L6.22,413.25L9.33,407.14L12.44,410.2L27.99,407.2L31.11,405.98L34.22,405.83L37.33,404.68L43.55,402.87L46.66,401.64L55.99,398.97L59.1,397.37L68.43,393.65L71.54,392.52L74.65,390.88L77.76,390.64L80.87,387.64L83.98,386.35L87.1,386.5L90.21,382.94L93.32,380.01L96.43,379.9L108.87,370.76L111.98,371.16L115.09,369.01L118.2,364.08L124.42,360.48L127.53,357.95L130.64,357.1L133.75,353.55L139.97,346.7L143.09,346.99L146.2,343.69L149.31,337.09L155.53,333.25L158.64,330.11L161.75,327.49L164.86,321.21L167.97,321.13L171.08,313.98L174.19,312.8L177.3,308.35L180.41,300.99L183.52,299.32L186.63,296.41L189.74,294.95L195.96,285.05L199.08,278.01L202.19,276.02L205.3,270.63L208.41,267.01L211.52,260.83L214.63,255.88L217.74,247.47L220.85,248.12L223.96,237.46L230.18,232.32L233.29,223.02L236.4,218.14L239.51,208.57L242.62,207.83L245.73,197.96L248.84,195.19L251.95,185.5L261.29,166.58L264.4,157.35L270.62,140.67L273.73,133.12L276.84,128.27L279.95,120.17L283.06,104.59L286.17,99.66L295.5,68.85L298.61,62.95L301.72,54.3L304.83,41.97L307.94,32.41L311.06,32.92L314.17,57.89L317.28,74.88L320.39,97.12L323.5,135.65L326.61,168.82L329.72,189.75L335.94,232.33L339.05,245.99L342.16,264.68L345.27,277.43L348.38,288.37L351.49,290.42L354.6,296.02L357.71,294.5L360.82,301.84L363.93,300.55L367.05,306.3L370.16,306.68L373.27,313.54L376.38,317.98L379.49,322.61L382.6,325.86L385.71,331.11L388.82,333.8L391.93,336.18L395.04,335.4L398.15,335.85L401.26,337.56L404.37,336.37L407.48,342.11L410.59,341.15L413.7,342.02L416.81,343.92L419.92,346.84L429.26,354.67L432.37,357.14L435.48,356.04L438.59,357.08L441.7,356.99L444.81,359.03L447.92,360.53L451.03,363.07L457.25,364.02L460.36,365.35L463.47,365.2L466.58,367.7L475.91,373.77L479.03,373.68L482.14,373.75L485.25,374.89L488.36,375.39L491.47,376.94L494.58,376.85L497.69,378.65L500.8,380.13L503.91,378.35L507.02,380.94L510.13,381.57L516.35,382.77L519.46,384.76L522.57,385.82L525.68,385.33L531.9,387.74L535.02,387.3L538.13,388.93L541.24,388.27L544.35,390.33L547.46,390.37L550.57,392.71L553.68,391.89L559.9,392.84L563.01,394.51L566.12,393.41L569.23,394.81L572.34,394.68L575.45,395.72L581.67,395.74L584.78,396.77L587.89,396.39L591.01,397.56L594.12,397.33L597.23,397.96L615.89,400.5L619,399.52" style="vector-effect: non-scaling-stroke; fill: none; stroke: rgb(255, 127, 14); stroke-opacity: 1; stroke-width: 2px; opacity: 1;"/></g><g class="points"/><g class="text"/></g><g class="trace scatter traced509ee" style="stroke-miterlimit: 2; opacity: 1;"><g class="fills"/><g class="errorbars"/><g class="lines"><path class="js-line" d="M0,409.4L3.11,413.25L6.22,413.25L9.33,407.14L12.44,410.2L27.99,407.2L31.11,405.98L34.22,405.83L37.33,404.68L43.55,402.87L46.66,401.64L55.99,398.97L59.1,397.37L68.43,393.65L71.54,392.52L74.65,390.88L77.76,390.64L80.87,387.64L83.98,386.35L87.1,386.5L90.21,382.94L93.32,380.01L96.43,379.9L108.87,370.76L111.98,371.16L115.09,369.01L118.2,364.08L124.42,360.48L127.53,357.95L130.64,357.1L133.75,353.55L139.97,346.7L143.09,346.99L146.2,343.69L149.31,337.09L155.53,333.25L158.64,330.11L161.75,327.49L164.86,321.21L167.97,321.13L171.08,313.98L174.19,312.8L177.3,308.35L180.41,300.99L183.52,299.32L186.63,296.41L189.74,294.95L195.96,285.05L199.08,278.01L202.19,276.02L205.3,270.63L208.41,267.01L211.52,260.83L214.63,255.88L217.74,247.47L220.85,248.12L223.96,237.46L230.18,232.32L233.29,223.02L236.4,218.14L239.51,208.57L242.62,207.83L245.73,197.96L248.84,195.19L251.95,185.5L261.29,166.58L264.4,157.35L270.62,140.67L273.73,133.12L276.84,128.27L279.95,120.17L283.06,104.59L286.17,99.66L295.5,68.85L298.61,62.95L301.72,54.3L304.83,41.97L307.94,32.41L311.06,31.96L320.39,93.46L323.5,130.88L329.72,183.13L332.83,204.71L335.94,227.33L339.05,243.11L345.27,274.69L348.38,283.53L351.49,286.91L354.6,289.13L360.82,293.38L363.93,296.13L367.05,297.88L370.16,304.74L373.27,307.7L376.38,315.84L379.49,314.09L382.6,320.68L385.71,328.91L388.82,330.33L395.04,329.65L398.15,332.4L401.26,331.41L404.37,333.77L407.48,332.1L410.59,334.54L413.7,336.14L416.81,340.86L419.92,344.16L423.04,344.43L426.15,347.41L429.26,347.69L432.37,349L435.48,352.45L438.59,349.81L441.7,354.61L444.81,354.1L447.92,354.65L457.25,361.27L460.36,361.14L463.47,361.73L466.58,364.35L469.69,364.44L472.8,365.83L475.91,367.44L479.03,368.01L485.25,368.56L488.36,370.97L494.58,373.93L497.69,372.71L500.8,373.45L503.91,375.37L507.02,377.57L510.13,376.18L516.35,378.12L519.46,380.75L528.79,381.76L531.9,383.35L535.02,383.6L538.13,385.14L541.24,386.5L544.35,385.9L550.57,387.15L553.68,387.79L556.79,388.99L559.9,389.14L563.01,388.68L566.12,390.32L569.23,390.03L572.34,391.17L581.67,392.67L584.78,391.85L587.89,394.32L591.01,392L594.12,394.28L597.23,394.81L600.34,394.98L603.45,396.18L606.56,395.53L609.67,397.43L612.78,395.66L615.89,397.88L619,397.98" style="vector-effect: non-scaling-stroke; fill: none; stroke: rgb(44, 160, 44); stroke-opacity: 1; stroke-width: 2px; opacity: 1;"/></g><g class="points"/><g class="text"/></g><g class="trace scatter trace8bbef9" style="stroke-miterlimit: 2; opacity: 1;"><g class="fills"/><g class="errorbars"/><g class="lines"><path class="js-line" d="M0,409.34L3.11,413.25L6.22,413.25L9.33,407.14L12.44,410.2L27.99,407.2L31.11,405.98L34.22,405.83L37.33,404.68L43.55,402.87L46.66,401.64L55.99,398.97L59.1,397.37L68.43,393.65L71.54,392.52L74.65,390.88L77.76,390.64L80.87,387.64L83.98,386.35L87.1,386.5L90.21,382.94L93.32,380.01L96.43,379.9L108.87,370.76L111.98,371.16L115.09,369.01L118.2,364.08L124.42,360.48L127.53,357.95L130.64,357.1L133.75,353.55L139.97,346.7L143.09,346.99L146.2,343.69L149.31,337.09L155.53,333.25L158.64,330.11L161.75,327.49L164.86,321.21L167.97,321.13L171.08,313.98L174.19,312.8L177.3,308.35L180.41,300.99L183.52,299.32L186.63,296.41L189.74,294.95L195.96,285.05L199.08,278.01L202.19,276.02L205.3,270.63L208.41,267.01L211.52,260.83L214.63,255.88L217.74,247.47L220.85,248.12L223.96,237.46L230.18,232.32L233.29,223.02L236.4,218.14L239.51,208.57L242.62,207.83L245.73,197.96L248.84,195.19L251.95,185.5L261.29,166.58L264.4,157.35L270.62,140.67L273.73,133.12L276.84,128.27L279.95,120.17L283.06,104.59L286.17,99.66L295.5,68.85L298.61,62.95L301.72,54.3L304.83,41.97L307.94,32.41L311.06,27.4L317.28,61.68L320.39,83.61L329.72,176.51L332.83,189.52L335.94,215.26L339.05,232.73L342.16,251.84L345.27,265.66L351.49,281.3L354.6,280.56L357.71,281.37L360.82,283.12L363.93,282.62L367.05,284.31L379.49,302.96L382.6,311.21L385.71,313.94L388.82,317.93L395.04,320.98L398.15,318.32L401.26,319.08L404.37,320.79L407.48,323.11L410.59,320.7L419.92,330.98L423.04,332.76L426.15,334.01L429.26,336.18L435.48,337.81L438.59,339.84L441.7,340.5L444.81,338.22L447.92,341.62L451.03,341.89L454.14,345.07L457.25,346.4L460.36,349.72L463.47,349.15L466.58,353.04L469.69,353.57L472.8,353.49L475.91,354.61L479.03,356.78L482.14,357.59L485.25,356.42L488.36,359.53L494.58,362.62L497.69,361.41L507.02,364L510.13,366.13L516.35,366.22L519.46,367.44L525.68,370.44L528.79,370.93L535.02,371.59L538.13,371.08L541.24,370.8L544.35,373.43L547.46,375.46L550.57,376.3L553.68,375.58L556.79,376.98L559.9,376.68L563.01,377.99L569.23,380.2L572.34,380.62L584.78,382.69L587.89,384.78L594.12,384.26L597.23,386.31L609.67,385.35L612.78,386.92L615.89,388.49L619,388.48" style="vector-effect: non-scaling-stroke; fill: none; stroke: rgb(214, 39, 40); stroke-opacity: 1; stroke-width: 2px; opacity: 1;"/></g><g class="points"/><g class="text"/></g><g class="trace scatter trace074ee0" style="stroke-miterlimit: 2; opacity: 1;"><g class="fills"/><g class="errorbars"/><g class="lines"><path class="js-line" d="M0,409.34L3.11,413.25L6.22,413.25L9.33,407.14L12.44,410.2L27.99,407.2L31.11,405.98L34.22,405.83L37.33,404.68L43.55,402.87L46.66,401.64L55.99,398.97L59.1,397.37L68.43,393.65L71.54,392.52L74.65,390.88L77.76,390.64L80.87,387.64L83.98,386.35L87.1,386.5L90.21,382.94L93.32,380.01L96.43,379.9L108.87,370.76L111.98,371.16L115.09,369.01L118.2,364.08L124.42,360.48L127.53,357.95L130.64,357.1L133.75,353.55L139.97,346.7L143.09,346.99L146.2,343.69L149.31,337.09L155.53,333.25L158.64,330.11L161.75,327.49L164.86,321.21L167.97,321.13L171.08,313.98L174.19,312.8L177.3,308.35L180.41,300.99L183.52,299.32L186.63,296.41L189.74,294.95L195.96,285.05L199.08,278.01L202.19,276.02L205.3,270.63L208.41,267.01L211.52,260.83L214.63,255.88L217.74,247.47L220.85,248.12L223.96,237.46L230.18,232.32L233.29,223.02L236.4,218.14L239.51,208.57L242.62,207.83L245.73,197.96L248.84,195.19L251.95,185.5L261.29,166.58L264.4,157.35L270.62,140.67L273.73,133.12L276.84,128.27L279.95,120.17L283.06,104.59L286.17,99.66L295.5,68.85L298.61,62.95L301.72,54.3L304.83,41.97L311.06,21.75L314.17,28.9L317.28,40.36L320.39,61.81L326.61,124.15L329.72,146.23L339.05,214.29L342.16,226.4L348.38,260.58L351.49,261.51L354.6,262.38L357.71,264.11L360.82,260.73L363.93,259.59L367.05,265.46L370.16,265.84L373.27,266.76L376.38,271.64L379.49,275.04L382.6,284.27L385.71,287.2L388.82,294.54L391.93,295.79L395.04,299.98L398.15,298.79L401.26,294.2L404.37,295.94L407.48,293.47L413.7,296.47L416.81,298.56L419.92,296.89L423.04,301.57L426.15,303.64L429.26,308.31L432.37,311.12L435.48,310.45L438.59,314.42L441.7,312.08L444.81,316.43L447.92,317.41L454.14,318.42L457.25,316.5L460.36,319.35L463.47,320.37L466.58,320.15L469.69,321.68L475.91,327.87L479.03,328.17L482.14,330.47L485.25,331.77L488.36,330.14L491.47,329.38L494.58,329.61L497.69,332.42L500.8,334.94L503.91,334.51L507.02,337.33L510.13,335.66L513.24,336.86L516.35,339.46L519.46,338.26L522.57,341.56L525.68,339.93L528.79,341.85L531.9,342.93L535.02,342.13L538.13,346.63L541.24,343.82L547.46,347.06L550.57,347.75L553.68,351.65L556.79,350.76L559.9,349.51L563.01,354.44L566.12,353.4L569.23,354.06L572.34,354.29L575.45,353.08L578.56,355.24L581.67,356.26L584.78,358.16L587.89,358.96L591.01,359.11L594.12,358.41L606.56,360.38L609.67,361.6L612.78,360.86L615.89,362.62L619,362.71" style="vector-effect: non-scaling-stroke; fill: none; stroke: rgb(148, 103, 189); stroke-opacity: 1; stroke-width: 2px; opacity: 1;"/></g><g class="points"/><g class="text"/></g><g class="trace scatter tracecad413" style="stroke-miterlimit: 2; opacity: 1;"><g class="fills"/><g class="errorbars"/><g class="lines"><path class="js-line" d="M0,409.17L3.11,413.25L6.22,413.25L9.33,407.14L12.44,410.2L27.99,407.2L31.11,405.98L34.22,405.83L37.33,404.68L43.55,402.87L46.66,401.64L55.99,398.97L59.1,397.37L68.43,393.65L71.54,392.52L74.65,390.88L77.76,390.64L80.87,387.64L83.98,386.35L87.1,386.5L90.21,382.94L93.32,380.01L96.43,379.9L108.87,370.76L111.98,371.16L115.09,369.01L118.2,364.08L124.42,360.48L127.53,357.95L130.64,357.1L133.75,353.55L139.97,346.7L143.09,346.99L146.2,343.69L149.31,337.09L155.53,333.25L158.64,330.11L161.75,327.49L164.86,321.21L167.97,321.13L171.08,313.98L174.19,312.8L177.3,308.35L180.41,300.99L183.52,299.32L186.63,296.41L189.74,294.95L195.96,285.05L199.08,278.01L202.19,276.02L205.3,270.63L208.41,267.01L211.52,260.83L214.63,255.88L217.74,247.47L220.85,248.12L223.96,237.46L230.18,232.32L233.29,223.02L236.4,218.14L239.51,208.57L242.62,207.83L245.73,197.96L248.84,195.19L251.95,185.5L261.29,166.58L264.4,157.35L270.62,140.67L273.73,133.12L276.84,128.27L279.95,120.17L283.06,104.59L286.17,99.66L295.5,68.85L298.61,62.95L301.72,54.3L304.83,41.97L311.06,22.93L314.17,23.48L317.28,36.58L320.39,41.91L329.72,122.61L332.83,149.76L345.27,225.11L348.38,236.72L351.49,248.8L354.6,252.88L363.93,242.69L367.05,240.4L370.16,240.26L373.27,243.07L376.38,245.63L379.49,252.63L382.6,255.1L385.71,261.47L388.82,263.84L391.93,267.75L395.04,272.99L398.15,275.6L401.26,272.8L404.37,274.62L407.48,271.51L410.59,271.2L413.7,274.37L416.81,273.46L419.92,274.09L423.04,277.35L426.15,273.27L429.26,277.84L432.37,278.85L435.48,281.22L438.59,284.52L441.7,286L447.92,286.82L451.03,286.34L454.14,284.67L457.25,289.7L460.36,288.24L463.47,291.35L469.69,292.79L472.8,291.98L475.91,291.14L479.03,291.8L482.14,294.56L485.25,299.2L488.36,296.38L491.47,299.41L494.58,298.92L497.69,299.91L503.91,298.71L507.02,306.66L510.13,303.72L513.24,303.15L519.46,304.48L522.57,307.63L525.68,307.95L528.79,310.89L531.9,308.08L535.02,312.33L538.13,309.39L541.24,314.42L544.35,311.99L547.46,311.55L550.57,312.88L553.68,312.63L556.79,314.04L559.9,313.35L566.12,316.5L569.23,317.79L578.56,319.63L581.67,321.93L584.78,319.99L587.89,321.04L591.01,322.69L594.12,322.27L600.34,326.61L603.45,322.78L609.67,327.7L612.78,323.88L615.89,326.61L619,328.17" style="vector-effect: non-scaling-stroke; fill: none; stroke: rgb(140, 86, 75); stroke-opacity: 1; stroke-width: 2px; opacity: 1;"/></g><g class="points"/><g class="text"/></g></g></g><g class="overplot"/><path class="xlines-above crisp" style="fill: none;" d="M0,0"/><path class="ylines-above crisp" style="fill: none;" d="M0,0"/><g class="overlines-above"/><g class="xaxislayer-above"><g class="xtick"><text text-anchor="middle" x="0" y="473" transform="translate(212.42,0)" style="font-family: 'Open Sans', verdana, arial, sans-serif; font-size: 12px; fill: rgb(68, 68, 68); fill-opacity: 1; white-space: pre;">50</text></g><g class="xtick"><text text-anchor="middle" x="0" y="473" transform="translate(367.94,0)" style="font-family: 'Open Sans', verdana, arial, sans-serif; font-size: 12px; fill: rgb(68, 68, 68); fill-opacity: 1; white-space: pre;">100</text></g><g class="xtick"><text text-anchor="middle" x="0" y="473" transform="translate(523.47,0)" style="font-family: 'Open Sans', verdana, arial, sans-serif; font-size: 12px; fill: rgb(68, 68, 68); fill-opacity: 1; white-space: pre;">150</text></g><g class="xtick"><text text-anchor="middle" x="0" y="473" transform="translate(679,0)" style="font-family: 'Open Sans', verdana, arial, sans-serif; font-size: 12px; fill: rgb(68, 68, 68); fill-opacity: 1; white-space: pre;">200</text></g></g><g class="yaxislayer-above"><g class="ytick"><text text-anchor="end" x="59" y="4.199999999999999" transform="translate(0,438.25)" style="font-family: 'Open Sans', verdana, arial, sans-serif; font-size: 12px; fill: rgb(68, 68, 68); fill-opacity: 1; white-space: pre;">0</text></g><g class="ytick"><text text-anchor="end" x="59" y="4.199999999999999" transform="translate(0,362.37)" style="font-family: 'Open Sans', verdana, arial, sans-serif; font-size: 12px; fill: rgb(68, 68, 68); fill-opacity: 1; white-space: pre;">20</text></g><g class="ytick"><text text-anchor="end" x="59" y="4.199999999999999" transform="translate(0,286.49)" style="font-family: 'Open Sans', verdana, arial, sans-serif; font-size: 12px; fill: rgb(68, 68, 68); fill-opacity: 1; white-space: pre;">40</text></g><g class="ytick"><text text-anchor="end" x="59" y="4.199999999999999" transform="translate(0,210.61)" style="font-family: 'Open Sans', verdana, arial, sans-serif; font-size: 12px; fill: rgb(68, 68, 68); fill-opacity: 1; white-space: pre;">60</text></g><g class="ytick"><text text-anchor="end" x="59" y="4.199999999999999" transform="translate(0,134.73000000000002)" style="font-family: 'Open Sans', verdana, arial, sans-serif; font-size: 12px; fill: rgb(68, 68, 68); fill-opacity: 1; white-space: pre;">80</text></g><g class="ytick"><text text-anchor="end" x="59" y="4.199999999999999" transform="translate(0,58.85)" style="font-family: 'Open Sans', verdana, arial, sans-serif; font-size: 12px; fill: rgb(68, 68, 68); fill-opacity: 1; white-space: pre;">100</text></g></g><g class="overaxes-above"/></g></g><g class="polarlayer"/><g class="ternarylayer"/><g class="geolayer"/><g class="funnelarealayer"/><g class="pielayer"/><g class="treemaplayer"/><g class="sunburstlayer"/><g class="glimages"/><defs id="topdefs-3367d7"><g class="clips"/><clipPath id="legend3367d7"><rect width="117" height="140" x="0" y="0"/></clipPath></defs><g class="layer-above"><g class="imagelayer"/><g class="shapelayer"/></g><g class="infolayer"><g class="legend" pointer-events="all" transform="translate(90.95, 46.750000000000014)"><rect class="bg" shape-rendering="crispEdges" style="stroke: rgb(68, 68, 68); stroke-opacity: 1; fill: rgb(226, 226, 226); fill-opacity: 1; stroke-width: 0px;" width="117" height="140" x="0" y="0"/><g class="scrollbox" transform="translate(0, 0)" clip-path="url('#legend3367d7')"><text class="legendtitletext user-select-none" text-anchor="start" x="2" y="15.600000000000001" style="font-family: 'Open Sans', verdana, arial, sans-serif; font-size: 12px; fill: rgb(68, 68, 68); fill-opacity: 1; white-space: pre;"><tspan style="font-weight:bold"> Identification Time </tspan></text><g class="groups"><g class="traces" transform="translate(0, 30.1)" style="opacity: 1;"><text class="legendtext user-select-none" text-anchor="start" x="40" y="4.680000000000001" style="font-family: 'Open Sans', verdana, arial, sans-serif; font-size: 12px; fill: rgb(68, 68, 68); fill-opacity: 1; white-space: pre;">0 Months</text><g class="layers" style="opacity: 1;"><g class="legendfill"/><g class="legendlines"><path class="js-line" d="M5,0h30" style="fill: none; stroke: rgb(31, 119, 180); stroke-opacity: 1; stroke-width: 2px;"/></g><g class="legendsymbols"><g class="legendpoints"/></g></g><rect class="legendtoggle" pointer-events="all" x="0" y="-9.5" width="98.046875" height="19" style="cursor: pointer; fill: rgb(0, 0, 0); fill-opacity: 0;"/></g><g class="traces" transform="translate(0, 49.1)" style="opacity: 1;"><text class="legendtext user-select-none" text-anchor="start" x="40" y="4.680000000000001" style="font-family: 'Open Sans', verdana, arial, sans-serif; font-size: 12px; fill: rgb(68, 68, 68); fill-opacity: 1; white-space: pre;">3 Months</text><g class="layers" style="opacity: 1;"><g class="legendfill"/><g class="legendlines"><path class="js-line" d="M5,0h30" style="fill: none; stroke: rgb(255, 127, 14); stroke-opacity: 1; stroke-width: 2px;"/></g><g class="legendsymbols"><g class="legendpoints"/></g></g><rect class="legendtoggle" pointer-events="all" x="0" y="-9.5" width="98.046875" height="19" style="cursor: pointer; fill: rgb(0, 0, 0); fill-opacity: 0;"/></g><g class="traces" transform="translate(0, 68.1)" style="opacity: 1;"><text class="legendtext user-select-none" text-anchor="start" x="40" y="4.680000000000001" style="font-family: 'Open Sans', verdana, arial, sans-serif; font-size: 12px; fill: rgb(68, 68, 68); fill-opacity: 1; white-space: pre;">6 Months</text><g class="layers" style="opacity: 1;"><g class="legendfill"/><g class="legendlines"><path class="js-line" d="M5,0h30" style="fill: none; stroke: rgb(44, 160, 44); stroke-opacity: 1; stroke-width: 2px;"/></g><g class="legendsymbols"><g class="legendpoints"/></g></g><rect class="legendtoggle" pointer-events="all" x="0" y="-9.5" width="98.046875" height="19" style="cursor: pointer; fill: rgb(0, 0, 0); fill-opacity: 0;"/></g><g class="traces" transform="translate(0, 87.1)" style="opacity: 1;"><text class="legendtext user-select-none" text-anchor="start" x="40" y="4.680000000000001" style="font-family: 'Open Sans', verdana, arial, sans-serif; font-size: 12px; fill: rgb(68, 68, 68); fill-opacity: 1; white-space: pre;">12 Months</text><g class="layers" style="opacity: 1;"><g class="legendfill"/><g class="legendlines"><path class="js-line" d="M5,0h30" style="fill: none; stroke: rgb(214, 39, 40); stroke-opacity: 1; stroke-width: 2px;"/></g><g class="legendsymbols"><g class="legendpoints"/></g></g><rect class="legendtoggle" pointer-events="all" x="0" y="-9.5" width="98.046875" height="19" style="cursor: pointer; fill: rgb(0, 0, 0); fill-opacity: 0;"/></g><g class="traces" transform="translate(0, 106.1)" style="opacity: 1;"><text class="legendtext user-select-none" text-anchor="start" x="40" y="4.680000000000001" style="font-family: 'Open Sans', verdana, arial, sans-serif; font-size: 12px; fill: rgb(68, 68, 68); fill-opacity: 1; white-space: pre;">24 Months</text><g class="layers" style="opacity: 1;"><g class="legendfill"/><g class="legendlines"><path class="js-line" d="M5,0h30" style="fill: none; stroke: rgb(148, 103, 189); stroke-opacity: 1; stroke-width: 2px;"/></g><g class="legendsymbols"><g class="legendpoints"/></g></g><rect class="legendtoggle" pointer-events="all" x="0" y="-9.5" width="98.046875" height="19" style="cursor: pointer; fill: rgb(0, 0, 0); fill-opacity: 0;"/></g><g class="traces" transform="translate(0, 125.1)" style="opacity: 1;"><text class="legendtext user-select-none" text-anchor="start" x="40" y="4.680000000000001" style="font-family: 'Open Sans', verdana, arial, sans-serif; font-size: 12px; fill: rgb(68, 68, 68); fill-opacity: 1; white-space: pre;">36 Months</text><g class="layers" style="opacity: 1;"><g class="legendfill"/><g class="legendlines"><path class="js-line" d="M5,0h30" style="fill: none; stroke: rgb(140, 86, 75); stroke-opacity: 1; stroke-width: 2px;"/></g><g class="legendsymbols"><g class="legendpoints"/></g></g><rect class="legendtoggle" pointer-events="all" x="0" y="-9.5" width="98.046875" height="19" style="cursor: pointer; fill: rgb(0, 0, 0); fill-opacity: 0;"/></g></g></g><rect class="scrollbar" rx="20" ry="3" width="0" height="0" style="fill: rgb(128, 139, 164); fill-opacity: 1;" x="0" y="0"/></g><g class="g-gtitle"><text class="gtitle" x="350" y="12.5" text-anchor="middle" dy="0em" style="font-family: 'Open Sans', verdana, arial, sans-serif; font-size: 17px; fill: rgb(68, 68, 68); opacity: 1; font-weight: normal; white-space: pre;"><tspan style="font-weight:bold"> Leprosy Incidence MB - Immunity Vaccine 0.5, Treatment 75% </tspan></text></g><g class="g-xtitle" transform="translate(0,-15)"><text class="xtitle" x="369.5" y="512" text-anchor="middle" style="font-family: 'Open Sans', verdana, arial, sans-serif; font-size: 14px; fill: rgb(68, 68, 68); opacity: 1; font-weight: normal; white-space: pre;">Time(Years)</text></g><g class="g-ytitle"><text class="ytitle" transform="rotate(-90,22,242.5)" x="22" y="242.5" text-anchor="middle" style="font-family: 'Open Sans', verdana, arial, sans-serif; font-size: 14px; fill: rgb(68, 68, 68); opacity: 1; font-weight: normal; white-space: pre;">Number of new infectiuos individuals</text></g></g></svg>