<svg class="main-svg" xmlns="http://www.w3.org/2000/svg" xmlns:xlink="http://www.w3.org/1999/xlink" width="700" height="500" style="" viewBox="0 0 700 500"><rect x="0" y="0" width="700" height="500" style="fill: rgb(255, 255, 255); fill-opacity: 1;"/><defs id="defs-6a86d0"><g class="clips"><clipPath id="clip6a86d0xyplot" class="plotclip"><rect width="619" height="435"/></clipPath><clipPath class="axesclip" id="clip6a86d0x"><rect x="60" y="0" width="619" height="500"/></clipPath><clipPath class="axesclip" id="clip6a86d0y"><rect x="0" y="25" width="700" height="435"/></clipPath><clipPath class="axesclip" id="clip6a86d0xy"><rect x="60" y="25" width="619" height="435"/></clipPath></g><g class="gradients"/></defs><g class="bglayer"/><g class="layer-below"><g class="imagelayer"/><g class="shapelayer"/></g><g class="cartesianlayer"><g class="subplot xy"><g class="layer-subplot"><g class="shapelayer"/><g class="imagelayer"/></g><g class="gridlayer"><g class="x"><path class="xgrid crisp" transform="translate(212.42,0)" d="M0,25v435" style="stroke: rgb(238, 238, 238); stroke-opacity: 1; stroke-width: 1px;"/><path class="xgrid crisp" transform="translate(367.94,0)" d="M0,25v435" style="stroke: rgb(238, 238, 238); stroke-opacity: 1; stroke-width: 1px;"/><path class="xgrid crisp" transform="translate(523.47,0)" d="M0,25v435" style="stroke: rgb(238, 238, 238); stroke-opacity: 1; stroke-width: 1px;"/></g><g class="y"><path class="ygrid crisp" transform="translate(0,362.37)" d="M60,0h619" style="stroke: rgb(238, 238, 238); stroke-opacity: 1; stroke-width: 1px;"/><path class="ygrid crisp" transform="translate(0,286.49)" d="M60,0h619" style="stroke: rgb(238, 238, 238); stroke-opacity: 1; stroke-width: 1px;"/><path class="ygrid crisp" transform="translate(0,210.61)" d="M60,0h619" style="stroke: rgb(238, 238, 238); stroke-opacity: 1; stroke-width: 1px;"/><path class="ygrid crisp" transform="translate(0,134.73000000000002)" d="M60,0h619" style="stroke: rgb(238, 238, 238); stroke-opacity: 1; stroke-width: 1px;"/><path class="ygrid crisp" transform="translate(0,58.85)" d="M60,0h619" style="stroke: rgb(238, 238, 238); stroke-opacity: 1; stroke-width: 1px;"/></g></g><g class="zerolinelayer"><path class="yzl zl crisp" transform="translate(0,438.25)" d="M60,0h619" style="stroke: rgb(68, 68, 68); stroke-opacity: 1; stroke-width: 1px;"/></g><path class="xlines-below"/><path class="ylines-below"/><g class="overlines-below"/><g class="xaxislayer-below"/><g class="yaxislayer-below"/><g class="overaxes-below"/><g class="plot" transform="translate(60, 25)" clip-path="url('#clip6a86d0xyplot')"><g class="scatterlayer mlayer"><g class="trace scatter trace2f5f50" style="stroke-miterlimit: 2; opacity: 1;"><g class="fills"/><g class="errorbars"/><g class="lines"><path class="js-line" d="M0,409.38L3.11,413.25L6.22,413.25L9.33,407.14L12.44,410.2L27.99,407.2L31.11,405.98L34.22,405.83L37.33,404.68L43.55,402.87L46.66,401.64L55.99,398.97L59.1,397.37L68.43,393.65L71.54,392.52L74.65,390.88L77.76,390.64L80.87,387.64L83.98,386.35L87.1,386.5L90.21,382.94L93.32,380.01L96.43,379.9L108.87,370.76L111.98,371.16L115.09,369.01L118.2,364.08L124.42,360.48L127.53,357.95L130.64,357.1L133.75,353.55L139.97,346.7L143.09,346.99L146.2,343.69L149.31,337.09L155.53,333.25L158.64,330.11L161.75,327.49L164.86,321.21L167.97,321.13L171.08,313.98L174.19,312.8L177.3,308.35L180.41,300.99L183.52,299.32L186.63,296.41L189.74,294.95L195.96,285.05L199.08,278.01L202.19,276.02L205.3,270.63L208.41,267.01L211.52,260.83L214.63,255.88L217.74,247.47L220.85,248.12L223.96,237.46L230.18,232.32L233.29,223.02L236.4,218.14L239.51,208.57L242.62,207.83L245.73,197.96L248.84,195.19L251.95,185.5L261.29,166.58L264.4,157.35L270.62,140.67L273.73,133.12L276.84,128.27L279.95,120.17L283.06,104.59L286.17,99.66L295.5,68.85L298.61,62.95L301.72,54.3L304.83,41.97L307.94,32.41L311.06,42.12L314.17,56.98L317.28,77.43L320.39,100.95L323.5,131.26L326.61,160.17L329.72,181.95L335.94,226.23L339.05,241.9L342.16,256.07L345.27,274.31L348.38,281.14L351.49,283.57L354.6,289.7L357.71,293.49L360.82,295.58L363.93,295.64L367.05,300.82L370.16,303.22L373.27,307.17L376.38,308.69L379.49,317.02L382.6,319.98L385.71,327.01L388.82,327.58L391.93,328.4L395.04,330.62L398.15,329.25L401.26,333.39L407.48,333.24L410.59,334.26L413.7,336.44L416.81,341.09L419.92,339.12L423.04,341.49L426.15,343.35L429.26,346.91L435.48,348.35L438.59,349.09L444.81,349.7L447.92,351.29L451.03,354.03L454.14,354.18L457.25,356.47L460.36,357.1L463.47,360.7L466.58,359.7L469.69,359.53L472.8,362.52L475.91,362.28L479.03,364.46L485.25,366.24L488.36,365.2L491.47,369.18L494.58,369.33L497.69,369.05L500.8,370.81L507.02,374.48L510.13,374.3L513.24,375.52L516.35,374.06L519.46,376.56L522.57,376.6L525.68,376.3L528.79,379.45L531.9,380.64L535.02,380.24L538.13,380.36L541.24,381.85L544.35,382.04L547.46,383.11L550.57,382.92L553.68,384.07L556.79,383.87L559.9,386.09L563.01,386.62L566.12,385.76L569.23,388.11L572.34,388.13L575.45,388.61L578.56,388.11L581.67,390.13L584.78,388.99L587.89,390.79L591.01,391.28L594.12,390.22L597.23,391.13L600.34,392.91L603.45,390.69L606.56,393.12L609.67,393.75L612.78,393.64L615.89,394.51L619,393.39" style="vector-effect: non-scaling-stroke; fill: none; stroke: rgb(31, 119, 180); stroke-opacity: 1; stroke-width: 2px; opacity: 1;"/></g><g class="points"/><g class="text"/></g><g class="trace scatter trace4e3778" style="stroke-miterlimit: 2; opacity: 1;"><g class="fills"/><g class="errorbars"/><g class="lines"><path class="js-line" d="M0,409.4L3.11,413.25L6.22,413.25L9.33,407.14L12.44,410.2L27.99,407.2L31.11,405.98L34.22,405.83L37.33,404.68L43.55,402.87L46.66,401.64L55.99,398.97L59.1,397.37L68.43,393.65L71.54,392.52L74.65,390.88L77.76,390.64L80.87,387.64L83.98,386.35L87.1,386.5L90.21,382.94L93.32,380.01L96.43,379.9L108.87,370.76L111.98,371.16L115.09,369.01L118.2,364.08L124.42,360.48L127.53,357.95L130.64,357.1L133.75,353.55L139.97,346.7L143.09,346.99L146.2,343.69L149.31,337.09L155.53,333.25L158.64,330.11L161.75,327.49L164.86,321.21L167.97,321.13L171.08,313.98L174.19,312.8L177.3,308.35L180.41,300.99L183.52,299.32L186.63,296.41L189.74,294.95L195.96,285.05L199.08,278.01L202.19,276.02L205.3,270.63L208.41,267.01L211.52,260.83L214.63,255.88L217.74,247.47L220.85,248.12L223.96,237.46L230.18,232.32L233.29,223.02L236.4,218.14L239.51,208.57L242.62,207.83L245.73,197.96L248.84,195.19L251.95,185.5L261.29,166.58L264.4,157.35L270.62,140.67L273.73,133.12L276.84,128.27L279.95,120.17L283.06,104.59L286.17,99.66L295.5,68.85L298.61,62.95L301.72,54.3L304.83,41.97L307.94,32.41L311.06,32.92L314.17,60.49L317.28,75.4L323.5,120.91L326.61,157.71L332.83,199.91L335.94,218.49L342.16,253.49L345.27,269.34L348.38,280.01L351.49,283.46L354.6,284.33L357.71,292.26L360.82,289.93L363.93,292.91L367.05,292.96L370.16,297.57L373.27,303.83L376.38,305.58L379.49,313.47L382.6,314.82L385.71,319.14L388.82,321.87L391.93,323.75L395.04,323.64L398.15,325.57L401.26,324.6L404.37,325.76L407.48,325.86L413.7,331.76L416.81,333.22L419.92,333.39L423.04,334.54L429.26,340.22L432.37,340.8L435.48,341.75L438.59,340.94L441.7,343.97L444.81,344.12L447.92,346.32L451.03,345.68L457.25,349.83L460.36,349.21L463.47,350.19L466.58,354.16L469.69,355.35L472.8,355.62L475.91,356.83L479.03,356.64L482.14,361.29L485.25,359.93L488.36,360.34L491.47,363.4L494.58,362.89L497.69,364.08L500.8,362.6L503.91,365.54L507.02,364.88L510.13,367.91L513.24,369.81L516.35,368.63L519.46,371.35L522.57,370.38L525.68,371.21L528.79,373.34L531.9,372.75L535.02,373.36L538.13,373.17L541.24,375.71L544.35,376.6L547.46,375.56L550.57,378.74L553.68,375.27L556.79,379.46L559.9,379.84L563.01,379.94L566.12,379.12L572.34,380.7L575.45,381.91L578.56,383.35L581.67,383.01L584.78,382.5L587.89,383.92L591.01,384.09L594.12,385.38L597.23,385.27L600.34,386.67L603.45,386.31L606.56,386.94L612.78,386.52L615.89,387.89L619,389.86" style="vector-effect: non-scaling-stroke; fill: none; stroke: rgb(255, 127, 14); stroke-opacity: 1; stroke-width: 2px; opacity: 1;"/></g><g class="points"/><g class="text"/></g><g class="trace scatter trace7057d4" style="stroke-miterlimit: 2; opacity: 1;"><g class="fills"/><g class="errorbars"/><g class="lines"><path class="js-line" d="M0,409.42L3.11,413.25L6.22,413.25L9.33,407.14L12.44,410.2L27.99,407.2L31.11,405.98L34.22,405.83L37.33,404.68L43.55,402.87L46.66,401.64L55.99,398.97L59.1,397.37L68.43,393.65L71.54,392.52L74.65,390.88L77.76,390.64L80.87,387.64L83.98,386.35L87.1,386.5L90.21,382.94L93.32,380.01L96.43,379.9L108.87,370.76L111.98,371.16L115.09,369.01L118.2,364.08L124.42,360.48L127.53,357.95L130.64,357.1L133.75,353.55L139.97,346.7L143.09,346.99L146.2,343.69L149.31,337.09L155.53,333.25L158.64,330.11L161.75,327.49L164.86,321.21L167.97,321.13L171.08,313.98L174.19,312.8L177.3,308.35L180.41,300.99L183.52,299.32L186.63,296.41L189.74,294.95L195.96,285.05L199.08,278.01L202.19,276.02L205.3,270.63L208.41,267.01L211.52,260.83L214.63,255.88L217.74,247.47L220.85,248.12L223.96,237.46L230.18,232.32L233.29,223.02L236.4,218.14L239.51,208.57L242.62,207.83L245.73,197.96L248.84,195.19L251.95,185.5L261.29,166.58L264.4,157.35L270.62,140.67L273.73,133.12L276.84,128.27L279.95,120.17L283.06,104.59L286.17,99.66L295.5,68.85L298.61,62.95L301.72,54.3L304.83,41.97L307.94,32.41L311.06,31.96L320.39,92.28L323.5,117.93L332.83,195.17L335.94,216.76L339.05,229.75L342.16,250.45L345.27,263.6L348.38,270.31L351.49,276.95L354.6,276.72L357.71,281.75L360.82,282.23L363.93,285.37L367.05,286.51L370.16,293.19L373.27,291.31L379.49,306.13L382.6,308.46L385.71,311.02L388.82,315.4L391.93,315.16L395.04,317.3L398.15,317.64L401.26,315.71L404.37,316.31L407.48,322.73L410.59,320.77L413.7,322.73L416.81,321.64L419.92,326.73L426.15,331.49L429.26,332L438.59,335.49L441.7,337.96L444.81,335.93L447.92,338.24L451.03,335.25L454.14,339.25L457.25,341.7L460.36,342.17L463.47,345.28L466.58,346.74L469.69,348.47L472.8,347.12L475.91,350.69L479.03,350.8L482.14,349.42L485.25,353.15L488.36,351.48L491.47,352.17L494.58,352.68L497.69,354.8L500.8,357.16L503.91,357.76L510.13,358.84L513.24,361.39L516.35,360.59L519.46,363.44L522.57,365.12L525.68,362.41L528.79,365.79L531.9,365.48L535.02,367.4L538.13,366.24L541.24,368.63L544.35,367.3L547.46,371.42L550.57,369.05L553.68,371.04L556.79,370.34L559.9,371.99L563.01,371.91L566.12,372.33L569.23,374.53L572.34,374.74L575.45,376.39L578.56,375.2L581.67,376.51L594.12,378.52L597.23,377.7L600.34,379.71L603.45,380.55L609.67,380.85L612.78,382.06L615.89,382.99L619,382.71" style="vector-effect: non-scaling-stroke; fill: none; stroke: rgb(44, 160, 44); stroke-opacity: 1; stroke-width: 2px; opacity: 1;"/></g><g class="points"/><g class="text"/></g><g class="trace scatter traceba0da3" style="stroke-miterlimit: 2; opacity: 1;"><g class="fills"/><g class="errorbars"/><g class="lines"><path class="js-line" d="M0,409.3L3.11,413.25L6.22,413.25L9.33,407.14L12.44,410.2L27.99,407.2L31.11,405.98L34.22,405.83L37.33,404.68L43.55,402.87L46.66,401.64L55.99,398.97L59.1,397.37L68.43,393.65L71.54,392.52L74.65,390.88L77.76,390.64L80.87,387.64L83.98,386.35L87.1,386.5L90.21,382.94L93.32,380.01L96.43,379.9L108.87,370.76L111.98,371.16L115.09,369.01L118.2,364.08L124.42,360.48L127.53,357.95L130.64,357.1L133.75,353.55L139.97,346.7L143.09,346.99L146.2,343.69L149.31,337.09L155.53,333.25L158.64,330.11L161.75,327.49L164.86,321.21L167.97,321.13L171.08,313.98L174.19,312.8L177.3,308.35L180.41,300.99L183.52,299.32L186.63,296.41L189.74,294.95L195.96,285.05L199.08,278.01L202.19,276.02L205.3,270.63L208.41,267.01L211.52,260.83L214.63,255.88L217.74,247.47L220.85,248.12L223.96,237.46L230.18,232.32L233.29,223.02L236.4,218.14L239.51,208.57L242.62,207.83L245.73,197.96L248.84,195.19L251.95,185.5L261.29,166.58L264.4,157.35L270.62,140.67L273.73,133.12L276.84,128.27L279.95,120.17L283.06,104.59L286.17,99.66L295.5,68.85L298.61,62.95L301.72,54.3L304.83,41.97L307.94,32.41L311.06,27.4L314.17,41.19L317.28,63.29L323.5,106.07L326.61,135.53L329.72,162.68L332.83,182.24L339.05,222.94L342.16,234.55L345.27,253.33L348.38,262.86L351.49,269L354.6,271.11L357.71,269.57L360.82,266.58L363.93,271.39L367.05,272.84L370.16,277.29L373.27,280.06L376.38,286.65L379.49,288.62L382.6,294.38L385.71,296.15L388.82,303.07L391.93,305.67L395.04,303.36L398.15,302.22L404.37,300.78L407.48,302.07L410.59,304.65L413.7,308.93L416.81,305.58L419.92,311.44L423.04,314.63L426.15,314.89L429.26,315.56L432.37,317.6L435.48,318.91L438.59,319.33L441.7,321.36L444.81,321.38L447.92,321.21L451.03,325.34L454.14,320.56L457.25,325.04L460.36,324.15L463.47,324.43L466.58,328.8L469.69,330.01L475.91,331.38L479.03,332.44L482.14,332.97L485.25,331.58L488.36,334.45L491.47,334.03L494.58,337.03L497.69,335.8L500.8,338.62L503.91,337.41L510.13,342.89L513.24,341.45L522.57,345.43L525.68,343.54L528.79,347.9L531.9,348.22L535.02,345.11L538.13,347.9L541.24,348.22L544.35,349.3L547.46,350.74L550.57,351.07L553.68,352.51L556.79,353.06L559.9,352.36L563.01,353.4L566.12,354.92L569.23,355.22L572.34,356.64L575.45,356.64L578.56,355.64L581.67,357.21L584.78,359.19L587.89,359.94L591.01,361.29L594.12,360.89L597.23,362.15L600.34,361.97L603.45,362.56L606.56,364.19L612.78,362.64L615.89,366.17L619,364.19" style="vector-effect: non-scaling-stroke; fill: none; stroke: rgb(214, 39, 40); stroke-opacity: 1; stroke-width: 2px; opacity: 1;"/></g><g class="points"/><g class="text"/></g><g class="trace scatter trace8843a4" style="stroke-miterlimit: 2; opacity: 1;"><g class="fills"/><g class="errorbars"/><g class="lines"><path class="js-line" d="M0,409.21L3.11,413.25L6.22,413.25L9.33,407.14L12.44,410.2L27.99,407.2L31.11,405.98L34.22,405.83L37.33,404.68L43.55,402.87L46.66,401.64L55.99,398.97L59.1,397.37L68.43,393.65L71.54,392.52L74.65,390.88L77.76,390.64L80.87,387.64L83.98,386.35L87.1,386.5L90.21,382.94L93.32,380.01L96.43,379.9L108.87,370.76L111.98,371.16L115.09,369.01L118.2,364.08L124.42,360.48L127.53,357.95L130.64,357.1L133.75,353.55L139.97,346.7L143.09,346.99L146.2,343.69L149.31,337.09L155.53,333.25L158.64,330.11L161.75,327.49L164.86,321.21L167.97,321.13L171.08,313.98L174.19,312.8L177.3,308.35L180.41,300.99L183.52,299.32L186.63,296.41L189.74,294.95L195.96,285.05L199.08,278.01L202.19,276.02L205.3,270.63L208.41,267.01L211.52,260.83L214.63,255.88L217.74,247.47L220.85,248.12L223.96,237.46L230.18,232.32L233.29,223.02L236.4,218.14L239.51,208.57L242.62,207.83L245.73,197.96L248.84,195.19L251.95,185.5L261.29,166.58L264.4,157.35L270.62,140.67L273.73,133.12L276.84,128.27L279.95,120.17L283.06,104.59L286.17,99.66L295.5,68.85L298.61,62.95L301.72,54.3L304.83,41.97L311.06,21.75L314.17,23.31L320.39,64.53L323.5,77.67L329.72,133.08L332.83,159.21L335.94,181.25L339.05,194.34L345.27,230.17L348.38,246.83L351.49,254.53L354.6,252.69L360.82,245.5L363.93,245.82L367.05,242.73L370.16,246.26L373.27,247.26L376.38,251.06L382.6,263.45L385.71,267.9L391.93,278.09L395.04,278.17L398.15,277.99L401.26,273.33L404.37,276.33L407.48,275.76L410.59,273.78L413.7,273.1L416.81,276.63L419.92,277.08L423.04,273.92L426.15,277.6L429.26,278.75L432.37,282.21L435.48,284.79L438.59,284.12L444.81,287.33L447.92,285.94L454.14,286.8L457.25,287.76L460.36,287.99L463.47,289.55L466.58,289.49L469.69,287.99L475.91,291.96L479.03,294.18L482.14,292.91L485.25,294.4L488.36,297.1L491.47,296.93L494.58,298.52L497.69,299.13L500.8,297.57L503.91,299.05L510.13,300.66L513.24,297.65L516.35,294.25L519.46,302.05L522.57,299.43L525.68,303.62L531.9,303.89L535.02,306.24L538.13,303.79L541.24,305.92L544.35,306.2L547.46,305.58L550.57,307.8L553.68,308.78L556.79,307.3L559.9,309.56L563.01,306.6L566.12,310.55L569.23,312.75L572.34,309.64L575.45,311.82L578.56,312.22L581.67,311.95L584.78,313.79L591.01,314.91L594.12,311.38L597.23,311.61L600.34,315.48L603.45,315.99L606.56,314.15L609.67,315.42L612.78,314.32L619,317.66" style="vector-effect: non-scaling-stroke; fill: none; stroke: rgb(148, 103, 189); stroke-opacity: 1; stroke-width: 2px; opacity: 1;"/></g><g class="points"/><g class="text"/></g><g class="trace scatter trace8d6334" style="stroke-miterlimit: 2; opacity: 1;"><g class="fills"/><g class="errorbars"/><g class="lines"><path class="js-line" d="M0,409.15L3.11,413.25L6.22,413.25L9.33,407.14L12.44,410.2L27.99,407.2L31.11,405.98L34.22,405.83L37.33,404.68L43.55,402.87L46.66,401.64L55.99,398.97L59.1,397.37L68.43,393.65L71.54,392.52L74.65,390.88L77.76,390.64L80.87,387.64L83.98,386.35L87.1,386.5L90.21,382.94L93.32,380.01L96.43,379.9L108.87,370.76L111.98,371.16L115.09,369.01L118.2,364.08L124.42,360.48L127.53,357.95L130.64,357.1L133.75,353.55L139.97,346.7L143.09,346.99L146.2,343.69L149.31,337.09L155.53,333.25L158.64,330.11L161.75,327.49L164.86,321.21L167.97,321.13L171.08,313.98L174.19,312.8L177.3,308.35L180.41,300.99L183.52,299.32L186.63,296.41L189.74,294.95L195.96,285.05L199.08,278.01L202.19,276.02L205.3,270.63L208.41,267.01L211.52,260.83L214.63,255.88L217.74,247.47L220.85,248.12L223.96,237.46L230.18,232.32L233.29,223.02L236.4,218.14L239.51,208.57L242.62,207.83L245.73,197.96L248.84,195.19L251.95,185.5L261.29,166.58L264.4,157.35L270.62,140.67L273.73,133.12L276.84,128.27L279.95,120.17L283.06,104.59L286.17,99.66L295.5,68.85L298.61,62.95L301.72,54.3L304.83,41.97L311.06,22.93L314.17,24.05L320.39,42.86L323.5,57.53L335.94,154.43L339.05,171.37L342.16,193.6L345.27,206.4L351.49,232.03L354.6,233.21L357.71,230.17L360.82,228.5L363.93,220.55L367.05,220.38L370.16,216.99L373.27,220.5L376.38,219.81L379.49,222.56L382.6,230.55L385.71,232.83L388.82,239.51L391.93,240.85L395.04,242.07L398.15,245.29L401.26,241.02L404.37,241.84L407.48,243.56L410.59,242.52L413.7,237.08L416.81,234.59L419.92,237.48L423.04,236.19L426.15,240.95L429.26,243.7L432.37,238.52L435.48,242.81L438.59,244.61L441.7,241.57L444.81,249.26L447.92,246.85L451.03,247.91L454.14,245.4L457.25,246.2L460.36,243.66L463.47,239.51L466.58,243.75L469.69,244.13L472.8,241.93L482.14,242.92L485.25,247.17L488.36,243.11L491.47,245.27L494.58,244.76L497.69,246.13L500.8,246.56L503.91,245.14L507.02,247.32L510.13,248.08L513.24,247.64L516.35,249.75L519.46,247.06L522.57,249.18L525.68,246.79L528.79,248.27L531.9,251.44L535.02,250.81L538.13,249.84L541.24,247.79L544.35,247.68L547.46,246.26L550.57,248.17L553.68,246.54L556.79,246.14L559.9,244.85L563.01,248.42L566.12,246.49L569.23,250.87L572.34,246.79L575.45,245.12L578.56,250.45L581.67,249.79L584.78,250.6L587.89,250.13L591.01,247.47L594.12,245.94L597.23,248.86L600.34,245.52L603.45,248.14L609.67,245.86L612.78,246.41L615.89,245.1L619,245.78" style="vector-effect: non-scaling-stroke; fill: none; stroke: rgb(140, 86, 75); stroke-opacity: 1; stroke-width: 2px; opacity: 1;"/></g><g class="points"/><g class="text"/></g></g></g><g class="overplot"/><path class="xlines-above crisp" style="fill: none;" d="M0,0"/><path class="ylines-above crisp" style="fill: none;" d="M0,0"/><g class="overlines-above"/><g class="xaxislayer-above"><g class="xtick"><text text-anchor="middle" x="0" y="473" transform="translate(212.42,0)" style="font-family: 'Open Sans', verdana, arial, sans-serif; font-size: 12px; fill: rgb(68, 68, 68); fill-opacity: 1; white-space: pre;">50</text></g><g class="xtick"><text text-anchor="middle" x="0" y="473" transform="translate(367.94,0)" style="font-family: 'Open Sans', verdana, arial, sans-serif; font-size: 12px; fill: rgb(68, 68, 68); fill-opacity: 1; white-space: pre;">100</text></g><g class="xtick"><text text-anchor="middle" x="0" y="473" transform="translate(523.47,0)" style="font-family: 'Open Sans', verdana, arial, sans-serif; font-size: 12px; fill: rgb(68, 68, 68); fill-opacity: 1; white-space: pre;">150</text></g><g class="xtick"><text text-anchor="middle" x="0" y="473" transform="translate(679,0)" style="font-family: 'Open Sans', verdana, arial, sans-serif; font-size: 12px; fill: rgb(68, 68, 68); fill-opacity: 1; white-space: pre;">200</text></g></g><g class="yaxislayer-above"><g class="ytick"><text text-anchor="end" x="59" y="4.199999999999999" transform="translate(0,438.25)" style="font-family: 'Open Sans', verdana, arial, sans-serif; font-size: 12px; fill: rgb(68, 68, 68); fill-opacity: 1; white-space: pre;">0</text></g><g class="ytick"><text text-anchor="end" x="59" y="4.199999999999999" transform="translate(0,362.37)" style="font-family: 'Open Sans', verdana, arial, sans-serif; font-size: 12px; fill: rgb(68, 68, 68); fill-opacity: 1; white-space: pre;">20</text></g><g class="ytick"><text text-anchor="end" x="59" y="4.199999999999999" transform="translate(0,286.49)" style="font-family: 'Open Sans', verdana, arial, sans-serif; font-size: 12px; fill: rgb(68, 68, 68); fill-opacity: 1; white-space: pre;">40</text></g><g class="ytick"><text text-anchor="end" x="59" y="4.199999999999999" transform="translate(0,210.61)" style="font-family: 'Open Sans', verdana, arial, sans-serif; font-size: 12px; fill: rgb(68, 68, 68); fill-opacity: 1; white-space: pre;">60</text></g><g class="ytick"><text text-anchor="end" x="59" y="4.199999999999999" transform="translate(0,134.73000000000002)" style="font-family: 'Open Sans', verdana, arial, sans-serif; font-size: 12px; fill: rgb(68, 68, 68); fill-opacity: 1; white-space: pre;">80</text></g><g class="ytick"><text text-anchor="end" x="59" y="4.199999999999999" transform="translate(0,58.85)" style="font-family: 'Open Sans', verdana, arial, sans-serif; font-size: 12px; fill: rgb(68, 68, 68); fill-opacity: 1; white-space: pre;">100</text></g></g><g class="overaxes-above"/></g></g><g class="polarlayer"/><g class="ternarylayer"/><g class="geolayer"/><g class="funnelarealayer"/><g class="pielayer"/><g class="treemaplayer"/><g class="sunburstlayer"/><g class="glimages"/><defs id="topdefs-6a86d0"><g class="clips"/><clipPath id="legend6a86d0"><rect width="117" height="140" x="0" y="0"/></clipPath></defs><g class="layer-above"><g class="imagelayer"/><g class="shapelayer"/></g><g class="infolayer"><g class="legend" pointer-events="all" transform="translate(90.95, 46.750000000000014)"><rect class="bg" shape-rendering="crispEdges" style="stroke: rgb(68, 68, 68); stroke-opacity: 1; fill: rgb(226, 226, 226); fill-opacity: 1; stroke-width: 0px;" width="117" height="140" x="0" y="0"/><g class="scrollbox" transform="translate(0, 0)" clip-path="url('#legend6a86d0')"><text class="legendtitletext user-select-none" text-anchor="start" x="2" y="15.600000000000001" style="font-family: 'Open Sans', verdana, arial, sans-serif; font-size: 12px; fill: rgb(68, 68, 68); fill-opacity: 1; white-space: pre;"><tspan style="font-weight:bold"> Identification Time </tspan></text><g class="groups"><g class="traces" transform="translate(0, 30.1)" style="opacity: 1;"><text class="legendtext user-select-none" text-anchor="start" x="40" y="4.680000000000001" style="font-family: 'Open Sans', verdana, arial, sans-serif; font-size: 12px; fill: rgb(68, 68, 68); fill-opacity: 1; white-space: pre;">0 Months</text><g class="layers" style="opacity: 1;"><g class="legendfill"/><g class="legendlines"><path class="js-line" d="M5,0h30" style="fill: none; stroke: rgb(31, 119, 180); stroke-opacity: 1; stroke-width: 2px;"/></g><g class="legendsymbols"><g class="legendpoints"/></g></g><rect class="legendtoggle" pointer-events="all" x="0" y="-9.5" width="98.046875" height="19" style="cursor: pointer; fill: rgb(0, 0, 0); fill-opacity: 0;"/></g><g class="traces" transform="translate(0, 49.1)" style="opacity: 1;"><text class="legendtext user-select-none" text-anchor="start" x="40" y="4.680000000000001" style="font-family: 'Open Sans', verdana, arial, sans-serif; font-size: 12px; fill: rgb(68, 68, 68); fill-opacity: 1; white-space: pre;">3 Months</text><g class="layers" style="opacity: 1;"><g class="legendfill"/><g class="legendlines"><path class="js-line" d="M5,0h30" style="fill: none; stroke: rgb(255, 127, 14); stroke-opacity: 1; stroke-width: 2px;"/></g><g class="legendsymbols"><g class="legendpoints"/></g></g><rect class="legendtoggle" pointer-events="all" x="0" y="-9.5" width="98.046875" height="19" style="cursor: pointer; fill: rgb(0, 0, 0); fill-opacity: 0;"/></g><g class="traces" transform="translate(0, 68.1)" style="opacity: 1;"><text class="legendtext user-select-none" text-anchor="start" x="40" y="4.680000000000001" style="font-family: 'Open Sans', verdana, arial, sans-serif; font-size: 12px; fill: rgb(68, 68, 68); fill-opacity: 1; white-space: pre;">6 Months</text><g class="layers" style="opacity: 1;"><g class="legendfill"/><g class="legendlines"><path class="js-line" d="M5,0h30" style="fill: none; stroke: rgb(44, 160, 44); stroke-opacity: 1; stroke-width: 2px;"/></g><g class="legendsymbols"><g class="legendpoints"/></g></g><rect class="legendtoggle" pointer-events="all" x="0" y="-9.5" width="98.046875" height="19" style="cursor: pointer; fill: rgb(0, 0, 0); fill-opacity: 0;"/></g><g class="traces" transform="translate(0, 87.1)" style="opacity: 1;"><text class="legendtext user-select-none" text-anchor="start" x="40" y="4.680000000000001" style="font-family: 'Open Sans', verdana, arial, sans-serif; font-size: 12px; fill: rgb(68, 68, 68); fill-opacity: 1; white-space: pre;">12 Months</text><g class="layers" style="opacity: 1;"><g class="legendfill"/><g class="legendlines"><path class="js-line" d="M5,0h30" style="fill: none; stroke: rgb(214, 39, 40); stroke-opacity: 1; stroke-width: 2px;"/></g><g class="legendsymbols"><g class="legendpoints"/></g></g><rect class="legendtoggle" pointer-events="all" x="0" y="-9.5" width="98.046875" height="19" style="cursor: pointer; fill: rgb(0, 0, 0); fill-opacity: 0;"/></g><g class="traces" transform="translate(0, 106.1)" style="opacity: 1;"><text class="legendtext user-select-none" text-anchor="start" x="40" y="4.680000000000001" style="font-family: 'Open Sans', verdana, arial, sans-serif; font-size: 12px; fill: rgb(68, 68, 68); fill-opacity: 1; white-space: pre;">24 Months</text><g class="layers" style="opacity: 1;"><g class="legendfill"/><g class="legendlines"><path class="js-line" d="M5,0h30" style="fill: none; stroke: rgb(148, 103, 189); stroke-opacity: 1; stroke-width: 2px;"/></g><g class="legendsymbols"><g class="legendpoints"/></g></g><rect class="legendtoggle" pointer-events="all" x="0" y="-9.5" width="98.046875" height="19" style="cursor: pointer; fill: rgb(0, 0, 0); fill-opacity: 0;"/></g><g class="traces" transform="translate(0, 125.1)" style="opacity: 1;"><text class="legendtext user-select-none" text-anchor="start" x="40" y="4.680000000000001" style="font-family: 'Open Sans', verdana, arial, sans-serif; font-size: 12px; fill: rgb(68, 68, 68); fill-opacity: 1; white-space: pre;">36 Months</text><g class="layers" style="opacity: 1;"><g class="legendfill"/><g class="legendlines"><path class="js-line" d="M5,0h30" style="fill: none; stroke: rgb(140, 86, 75); stroke-opacity: 1; stroke-width: 2px;"/></g><g class="legendsymbols"><g class="legendpoints"/></g></g><rect class="legendtoggle" pointer-events="all" x="0" y="-9.5" width="98.046875" height="19" style="cursor: pointer; fill: rgb(0, 0, 0); fill-opacity: 0;"/></g></g></g><rect class="scrollbar" rx="20" ry="3" width="0" height="0" style="fill: rgb(128, 139, 164); fill-opacity: 1;" x="0" y="0"/></g><g class="g-gtitle"><text class="gtitle" x="350" y="12.5" text-anchor="middle" dy="0em" style="font-family: 'Open Sans', verdana, arial, sans-serif; font-size: 17px; fill: rgb(68, 68, 68); opacity: 1; font-weight: normal; white-space: pre;"><tspan style="font-weight:bold"> Leprosy Incidence MB - Immunity Vaccine 0.0, Treatment 75% </tspan></text></g><g class="g-xtitle" transform="translate(0,-15)"><text class="xtitle" x="369.5" y="512" text-anchor="middle" style="font-family: 'Open Sans', verdana, arial, sans-serif; font-size: 14px; fill: rgb(68, 68, 68); opacity: 1; font-weight: normal; white-space: pre;">Time(Years)</text></g><g class="g-ytitle"><text class="ytitle" transform="rotate(-90,22,242.5)" x="22" y="242.5" text-anchor="middle" style="font-family: 'Open Sans', verdana, arial, sans-serif; font-size: 14px; fill: rgb(68, 68, 68); opacity: 1; font-weight: normal; white-space: pre;">Number of new infectiuos individuals</text></g></g></svg>