<svg class="main-svg" xmlns="http://www.w3.org/2000/svg" xmlns:xlink="http://www.w3.org/1999/xlink" width="700" height="500" style="" viewBox="0 0 700 500"><rect x="0" y="0" width="700" height="500" style="fill: rgb(255, 255, 255); fill-opacity: 1;"/><defs id="defs-5e029c"><g class="clips"><clipPath id="clip5e029cxyplot" class="plotclip"><rect width="619" height="435"/></clipPath><clipPath class="axesclip" id="clip5e029cx"><rect x="60" y="0" width="619" height="500"/></clipPath><clipPath class="axesclip" id="clip5e029cy"><rect x="0" y="25" width="700" height="435"/></clipPath><clipPath class="axesclip" id="clip5e029cxy"><rect x="60" y="25" width="619" height="435"/></clipPath></g><g class="gradients"/></defs><g class="bglayer"/><g class="layer-below"><g class="imagelayer"/><g class="shapelayer"/></g><g class="cartesianlayer"><g class="subplot xy"><g class="layer-subplot"><g class="shapelayer"/><g class="imagelayer"/></g><g class="gridlayer"><g class="x"><path class="xgrid crisp" transform="translate(212.42,0)" d="M0,25v435" style="stroke: rgb(238, 238, 238); stroke-opacity: 1; stroke-width: 1px;"/><path class="xgrid crisp" transform="translate(367.94,0)" d="M0,25v435" style="stroke: rgb(238, 238, 238); stroke-opacity: 1; stroke-width: 1px;"/><path class="xgrid crisp" transform="translate(523.47,0)" d="M0,25v435" style="stroke: rgb(238, 238, 238); stroke-opacity: 1; stroke-width: 1px;"/></g><g class="y"><path class="ygrid crisp" transform="translate(0,391.18)" d="M60,0h619" style="stroke: rgb(238, 238, 238); stroke-opacity: 1; stroke-width: 1px;"/><path class="ygrid crisp" transform="translate(0,343.65)" d="M60,0h619" style="stroke: rgb(238, 238, 238); stroke-opacity: 1; stroke-width: 1px;"/><path class="ygrid crisp" transform="translate(0,296.13)" d="M60,0h619" style="stroke: rgb(238, 238, 238); stroke-opacity: 1; stroke-width: 1px;"/><path class="ygrid crisp" transform="translate(0,248.61)" d="M60,0h619" style="stroke: rgb(238, 238, 238); stroke-opacity: 1; stroke-width: 1px;"/><path class="ygrid crisp" transform="translate(0,201.09)" d="M60,0h619" style="stroke: rgb(238, 238, 238); stroke-opacity: 1; stroke-width: 1px;"/><path class="ygrid crisp" transform="translate(0,153.56)" d="M60,0h619" style="stroke: rgb(238, 238, 238); stroke-opacity: 1; stroke-width: 1px;"/><path class="ygrid crisp" transform="translate(0,106.04)" d="M60,0h619" style="stroke: rgb(238, 238, 238); stroke-opacity: 1; stroke-width: 1px;"/><path class="ygrid crisp" transform="translate(0,58.52)" d="M60,0h619" style="stroke: rgb(238, 238, 238); stroke-opacity: 1; stroke-width: 1px;"/></g></g><g class="zerolinelayer"><path class="yzl zl crisp" transform="translate(0,438.7)" d="M60,0h619" style="stroke: rgb(68, 68, 68); stroke-opacity: 1; stroke-width: 1px;"/></g><path class="xlines-below"/><path class="ylines-below"/><g class="overlines-below"/><g class="xaxislayer-below"/><g class="yaxislayer-below"/><g class="overaxes-below"/><g class="plot" transform="translate(60, 25)" clip-path="url('#clip5e029cxyplot')"><g class="scatterlayer mlayer"><g class="trace scatter tracee4c312" style="stroke-miterlimit: 2; opacity: 1;"><g class="fills"/><g class="errorbars"/><g class="lines"><path class="js-line" d="M0,351.51L6.22,365.59L9.33,324.41L31.11,279.65L34.22,273.95L40.44,263.86L43.55,260.63L62.21,239.61L65.32,236.67L74.65,227.19L77.76,224.36L96.43,206.3L99.54,203.7L136.86,171.38L139.97,169.38L146.2,163.62L149.31,161.91L158.64,154.79L161.75,152.12L174.19,140.94L177.3,138.92L183.52,134.95L186.63,131.45L189.74,129.62L192.85,126.7L199.08,119.69L202.19,116.26L205.3,114.17L208.41,111.02L211.52,107.54L214.63,105.37L258.18,65.84L261.29,63.48L267.51,58L270.62,56.15L304.83,25.66L307.94,21.75L314.17,121.51L317.28,161.78L323.5,226.97L326.61,252.68L332.83,295.11L335.94,311.94L342.16,339.12L345.27,350.01L351.49,365.12L354.6,370.87L360.82,380.38L363.93,384.21L370.16,391.01L373.27,393.73L382.6,399.95L385.71,401.57L395.04,404.54L398.15,405.25L426.15,409.86L429.26,410.17L454.14,411.72L457.25,411.81L485.25,412.63L488.36,412.67L619,413.24" style="vector-effect: non-scaling-stroke; fill: none; stroke: rgb(31, 119, 180); stroke-opacity: 1; stroke-width: 2px; opacity: 1;"/></g><g class="points"/><g class="text"/></g><g class="trace scatter trace281b5d" style="stroke-miterlimit: 2; opacity: 1;"><g class="fills"/><g class="errorbars"/><g class="lines"><path class="js-line" d="M0,351.51L6.22,365.59L9.33,324.41L31.11,279.65L34.22,273.95L40.44,263.86L43.55,260.63L62.21,239.61L65.32,236.67L74.65,227.19L77.76,224.36L96.43,206.3L99.54,203.7L136.86,171.38L139.97,169.38L146.2,163.62L149.31,161.91L158.64,154.79L161.75,152.12L174.19,140.94L177.3,138.92L183.52,134.95L186.63,131.45L189.74,129.62L192.85,126.7L199.08,119.69L202.19,116.26L205.3,114.17L208.41,111.02L211.52,107.54L214.63,105.37L258.18,65.84L261.29,63.48L267.51,58L270.62,56.15L304.83,25.66L307.94,21.75L317.28,156.3L320.39,191.56L326.61,249.59L329.72,272.5L335.94,309.95L339.05,324.79L345.27,348.95L348.38,356.6L354.6,368.58L357.71,373.45L363.93,382.03L367.05,385.42L376.38,394.55L379.49,396.67L385.71,400.28L388.82,401.67L401.26,404.56L404.37,405.19L429.26,409.42L432.37,409.74L497.69,412.64L500.8,412.67L553.68,413.15L556.79,413.15L619,413.23" style="vector-effect: non-scaling-stroke; fill: none; stroke: rgb(255, 127, 14); stroke-opacity: 1; stroke-width: 2px; opacity: 1;"/></g><g class="points"/><g class="text"/></g><g class="trace scatter traceb95fd7" style="stroke-miterlimit: 2; opacity: 1;"><g class="fills"/><g class="errorbars"/><g class="lines"><path class="js-line" d="M0,351.51L6.22,365.59L9.33,324.41L31.11,279.65L34.22,273.95L40.44,263.86L43.55,260.63L62.21,239.61L65.32,236.67L74.65,227.19L77.76,224.36L96.43,206.3L99.54,203.7L136.86,171.38L139.97,169.38L146.2,163.62L149.31,161.91L158.64,154.79L161.75,152.12L174.19,140.94L177.3,138.92L183.52,134.95L186.63,131.45L189.74,129.62L192.85,126.7L199.08,119.69L202.19,116.26L205.3,114.17L208.41,111.02L211.52,107.54L214.63,105.37L258.18,65.84L261.29,63.48L267.51,58L270.62,56.15L304.83,25.66L307.94,21.75L314.17,108.1L317.28,149.23L323.5,217.35L326.61,244.27L332.83,288.9L335.94,307.03L342.16,335.58L345.27,347.06L351.49,360.52L354.6,365.68L363.93,379.22L367.05,383.23L376.38,392.64L379.49,395.09L385.71,399.39L388.82,400.57L395.04,402.17L398.15,402.82L435.48,409.61L438.59,409.89L488.36,412.31L491.47,412.34L544.35,413.01L547.46,413.02L619,413.21" style="vector-effect: non-scaling-stroke; fill: none; stroke: rgb(44, 160, 44); stroke-opacity: 1; stroke-width: 2px; opacity: 1;"/></g><g class="points"/><g class="text"/></g><g class="trace scatter trace100998" style="stroke-miterlimit: 2; opacity: 1;"><g class="fills"/><g class="errorbars"/><g class="lines"><path class="js-line" d="M0,351.51L6.22,365.59L9.33,324.41L31.11,279.65L34.22,273.95L40.44,263.86L43.55,260.63L62.21,239.61L65.32,236.67L74.65,227.19L77.76,224.36L96.43,206.3L99.54,203.7L136.86,171.38L139.97,169.38L146.2,163.62L149.31,161.91L158.64,154.79L161.75,152.12L174.19,140.94L177.3,138.92L183.52,134.95L186.63,131.45L189.74,129.62L192.85,126.7L199.08,119.69L202.19,116.26L205.3,114.17L208.41,111.02L211.52,107.54L214.63,105.37L258.18,65.84L261.29,63.48L267.51,58L270.62,56.15L304.83,25.66L307.94,21.75L311.06,46.53L314.17,95.17L320.39,174.86L323.5,208.66L329.72,262.09L332.83,283.88L339.05,317.96L342.16,332.21L345.27,344.1L348.38,352.56L357.71,364.55L360.82,368.98L373.27,385.58L376.38,388.72L385.71,397.09L388.82,398.35L391.93,399.6L395.04,399.99L413.7,403.46L416.81,404.4L429.26,407.27L432.37,407.78L485.25,411.63L488.36,411.56L510.13,412.3L513.24,412.41L550.57,412.91L553.68,412.94L619,413.16" style="vector-effect: non-scaling-stroke; fill: none; stroke: rgb(214, 39, 40); stroke-opacity: 1; stroke-width: 2px; opacity: 1;"/></g><g class="points"/><g class="text"/></g><g class="trace scatter trace7f4495" style="stroke-miterlimit: 2; opacity: 1;"><g class="fills"/><g class="errorbars"/><g class="lines"><path class="js-line" d="M0,351.51L6.22,365.59L9.33,324.41L31.11,279.65L34.22,273.95L40.44,263.86L43.55,260.63L62.21,239.61L65.32,236.67L74.65,227.19L77.76,224.36L96.43,206.3L99.54,203.7L136.86,171.38L139.97,169.38L146.2,163.62L149.31,161.91L158.64,154.79L161.75,152.12L174.19,140.94L177.3,138.92L183.52,134.95L186.63,131.45L189.74,129.62L192.85,126.7L199.08,119.69L202.19,116.26L205.3,114.17L208.41,111.02L211.52,107.54L214.63,105.37L258.18,65.84L261.29,63.48L267.51,58L270.62,56.15L304.83,25.66L307.94,21.75L311.06,34.04L314.17,69.59L320.39,152.94L323.5,188.08L329.72,246.64L332.83,270.18L339.05,308.95L342.16,324.22L348.38,347.5L351.49,352.42L357.71,355.12L360.82,357.84L367.05,365.79L370.16,370.22L385.71,389.83L388.82,392.65L391.93,394.79L395.04,395.9L401.26,396.51L404.37,396.32L410.59,397.48L413.7,398.37L423.04,400.91L426.15,402.05L438.59,405.91L441.7,406.26L494.58,410.64L497.69,410.74L538.13,412.29L541.24,412.3L587.89,412.79L591.01,412.91L619,412.97" style="vector-effect: non-scaling-stroke; fill: none; stroke: rgb(148, 103, 189); stroke-opacity: 1; stroke-width: 2px; opacity: 1;"/></g><g class="points"/><g class="text"/></g><g class="trace scatter trace21d44a" style="stroke-miterlimit: 2; opacity: 1;"><g class="fills"/><g class="errorbars"/><g class="lines"><path class="js-line" d="M0,351.51L6.22,365.59L9.33,324.41L31.11,279.65L34.22,273.95L40.44,263.86L43.55,260.63L62.21,239.61L65.32,236.67L74.65,227.19L77.76,224.36L96.43,206.3L99.54,203.7L136.86,171.38L139.97,169.38L146.2,163.62L149.31,161.91L158.64,154.79L161.75,152.12L174.19,140.94L177.3,138.92L183.52,134.95L186.63,131.45L189.74,129.62L192.85,126.7L199.08,119.69L202.19,116.26L205.3,114.17L208.41,111.02L211.52,107.54L214.63,105.37L258.18,65.84L261.29,63.48L267.51,58L270.62,56.15L304.83,25.66L307.94,21.75L311.06,27.93L314.17,50.88L329.72,227.58L332.83,253.53L339.05,295.53L342.16,312.67L348.38,339.84L351.49,347.05L354.6,349.49L357.71,350.09L360.82,350.03L363.93,351.24L370.16,357.6L373.27,361.72L388.82,384L391.93,387.19L398.15,391.35L401.26,391.67L410.59,392.53L413.7,392.79L423.04,395.11L426.15,396.37L444.81,403.15L447.92,403.68L507.02,410.11L510.13,410.32L606.56,412.61L609.67,412.58L619,412.71" style="vector-effect: non-scaling-stroke; fill: none; stroke: rgb(140, 86, 75); stroke-opacity: 1; stroke-width: 2px; opacity: 1;"/></g><g class="points"/><g class="text"/></g></g></g><g class="overplot"/><path class="xlines-above crisp" style="fill: none;" d="M0,0"/><path class="ylines-above crisp" style="fill: none;" d="M0,0"/><g class="overlines-above"/><g class="xaxislayer-above"><g class="xtick"><text text-anchor="middle" x="0" y="473" transform="translate(212.42,0)" style="font-family: 'Open Sans', verdana, arial, sans-serif; font-size: 12px; fill: rgb(68, 68, 68); fill-opacity: 1; white-space: pre;">50</text></g><g class="xtick"><text text-anchor="middle" x="0" y="473" transform="translate(367.94,0)" style="font-family: 'Open Sans', verdana, arial, sans-serif; font-size: 12px; fill: rgb(68, 68, 68); fill-opacity: 1; white-space: pre;">100</text></g><g class="xtick"><text text-anchor="middle" x="0" y="473" transform="translate(523.47,0)" style="font-family: 'Open Sans', verdana, arial, sans-serif; font-size: 12px; fill: rgb(68, 68, 68); fill-opacity: 1; white-space: pre;">150</text></g><g class="xtick"><text text-anchor="middle" x="0" y="473" transform="translate(679,0)" style="font-family: 'Open Sans', verdana, arial, sans-serif; font-size: 12px; fill: rgb(68, 68, 68); fill-opacity: 1; white-space: pre;">200</text></g></g><g class="yaxislayer-above"><g class="ytick"><text text-anchor="end" x="59" y="4.199999999999999" transform="translate(0,438.7)" style="font-family: 'Open Sans', verdana, arial, sans-serif; font-size: 12px; fill: rgb(68, 68, 68); fill-opacity: 1; white-space: pre;">0</text></g><g class="ytick"><text text-anchor="end" x="59" y="4.199999999999999" transform="translate(0,391.18)" style="font-family: 'Open Sans', verdana, arial, sans-serif; font-size: 12px; fill: rgb(68, 68, 68); fill-opacity: 1; white-space: pre;">100</text></g><g class="ytick"><text text-anchor="end" x="59" y="4.199999999999999" transform="translate(0,343.65)" style="font-family: 'Open Sans', verdana, arial, sans-serif; font-size: 12px; fill: rgb(68, 68, 68); fill-opacity: 1; white-space: pre;">200</text></g><g class="ytick"><text text-anchor="end" x="59" y="4.199999999999999" transform="translate(0,296.13)" style="font-family: 'Open Sans', verdana, arial, sans-serif; font-size: 12px; fill: rgb(68, 68, 68); fill-opacity: 1; white-space: pre;">300</text></g><g class="ytick"><text text-anchor="end" x="59" y="4.199999999999999" transform="translate(0,248.61)" style="font-family: 'Open Sans', verdana, arial, sans-serif; font-size: 12px; fill: rgb(68, 68, 68); fill-opacity: 1; white-space: pre;">400</text></g><g class="ytick"><text text-anchor="end" x="59" y="4.199999999999999" transform="translate(0,201.09)" style="font-family: 'Open Sans', verdana, arial, sans-serif; font-size: 12px; fill: rgb(68, 68, 68); fill-opacity: 1; white-space: pre;">500</text></g><g class="ytick"><text text-anchor="end" x="59" y="4.199999999999999" transform="translate(0,153.56)" style="font-family: 'Open Sans', verdana, arial, sans-serif; font-size: 12px; fill: rgb(68, 68, 68); fill-opacity: 1; white-space: pre;">600</text></g><g class="ytick"><text text-anchor="end" x="59" y="4.199999999999999" transform="translate(0,106.04)" style="font-family: 'Open Sans', verdana, arial, sans-serif; font-size: 12px; fill: rgb(68, 68, 68); fill-opacity: 1; white-space: pre;">700</text></g><g class="ytick"><text text-anchor="end" x="59" y="4.199999999999999" transform="translate(0,58.52)" style="font-family: 'Open Sans', verdana, arial, sans-serif; font-size: 12px; fill: rgb(68, 68, 68); fill-opacity: 1; white-space: pre;">800</text></g></g><g class="overaxes-above"/></g></g><g class="polarlayer"/><g class="ternarylayer"/><g class="geolayer"/><g class="funnelarealayer"/><g class="pielayer"/><g class="treemaplayer"/><g class="sunburstlayer"/><g class="glimages"/><defs id="topdefs-5e029c"><g class="clips"/><clipPath id="legend5e029c"><rect width="117" height="140" x="0" y="0"/></clipPath></defs><g class="layer-above"><g class="imagelayer"/><g class="shapelayer"/></g><g class="infolayer"><g class="legend" pointer-events="all" transform="translate(90.95, 46.750000000000014)"><rect class="bg" shape-rendering="crispEdges" style="stroke: rgb(68, 68, 68); stroke-opacity: 1; fill: rgb(226, 226, 226); fill-opacity: 1; stroke-width: 0px;" width="117" height="140" x="0" y="0"/><g class="scrollbox" transform="translate(0, 0)" clip-path="url('#legend5e029c')"><text class="legendtitletext user-select-none" text-anchor="start" x="2" y="15.600000000000001" style="font-family: 'Open Sans', verdana, arial, sans-serif; font-size: 12px; fill: rgb(68, 68, 68); fill-opacity: 1; white-space: pre;"><tspan style="font-weight:bold"> Identification Time </tspan></text><g class="groups"><g class="traces" transform="translate(0, 30.1)" style="opacity: 1;"><text class="legendtext user-select-none" text-anchor="start" x="40" y="4.680000000000001" style="font-family: 'Open Sans', verdana, arial, sans-serif; font-size: 12px; fill: rgb(68, 68, 68); fill-opacity: 1; white-space: pre;">0 Months</text><g class="layers" style="opacity: 1;"><g class="legendfill"/><g class="legendlines"><path class="js-line" d="M5,0h30" style="fill: none; stroke: rgb(31, 119, 180); stroke-opacity: 1; stroke-width: 2px;"/></g><g class="legendsymbols"><g class="legendpoints"/></g></g><rect class="legendtoggle" pointer-events="all" x="0" y="-9.5" width="98.046875" height="19" style="cursor: pointer; fill: rgb(0, 0, 0); fill-opacity: 0;"/></g><g class="traces" transform="translate(0, 49.1)" style="opacity: 1;"><text class="legendtext user-select-none" text-anchor="start" x="40" y="4.680000000000001" style="font-family: 'Open Sans', verdana, arial, sans-serif; font-size: 12px; fill: rgb(68, 68, 68); fill-opacity: 1; white-space: pre;">3 Months</text><g class="layers" style="opacity: 1;"><g class="legendfill"/><g class="legendlines"><path class="js-line" d="M5,0h30" style="fill: none; stroke: rgb(255, 127, 14); stroke-opacity: 1; stroke-width: 2px;"/></g><g class="legendsymbols"><g class="legendpoints"/></g></g><rect class="legendtoggle" pointer-events="all" x="0" y="-9.5" width="98.046875" height="19" style="cursor: pointer; fill: rgb(0, 0, 0); fill-opacity: 0;"/></g><g class="traces" transform="translate(0, 68.1)" style="opacity: 1;"><text class="legendtext user-select-none" text-anchor="start" x="40" y="4.680000000000001" style="font-family: 'Open Sans', verdana, arial, sans-serif; font-size: 12px; fill: rgb(68, 68, 68); fill-opacity: 1; white-space: pre;">6 Months</text><g class="layers" style="opacity: 1;"><g class="legendfill"/><g class="legendlines"><path class="js-line" d="M5,0h30" style="fill: none; stroke: rgb(44, 160, 44); stroke-opacity: 1; stroke-width: 2px;"/></g><g class="legendsymbols"><g class="legendpoints"/></g></g><rect class="legendtoggle" pointer-events="all" x="0" y="-9.5" width="98.046875" height="19" style="cursor: pointer; fill: rgb(0, 0, 0); fill-opacity: 0;"/></g><g class="traces" transform="translate(0, 87.1)" style="opacity: 1;"><text class="legendtext user-select-none" text-anchor="start" x="40" y="4.680000000000001" style="font-family: 'Open Sans', verdana, arial, sans-serif; font-size: 12px; fill: rgb(68, 68, 68); fill-opacity: 1; white-space: pre;">12 Months</text><g class="layers" style="opacity: 1;"><g class="legendfill"/><g class="legendlines"><path class="js-line" d="M5,0h30" style="fill: none; stroke: rgb(214, 39, 40); stroke-opacity: 1; stroke-width: 2px;"/></g><g class="legendsymbols"><g class="legendpoints"/></g></g><rect class="legendtoggle" pointer-events="all" x="0" y="-9.5" width="98.046875" height="19" style="cursor: pointer; fill: rgb(0, 0, 0); fill-opacity: 0;"/></g><g class="traces" transform="translate(0, 106.1)" style="opacity: 1;"><text class="legendtext user-select-none" text-anchor="start" x="40" y="4.680000000000001" style="font-family: 'Open Sans', verdana, arial, sans-serif; font-size: 12px; fill: rgb(68, 68, 68); fill-opacity: 1; white-space: pre;">24 Months</text><g class="layers" style="opacity: 1;"><g class="legendfill"/><g class="legendlines"><path class="js-line" d="M5,0h30" style="fill: none; stroke: rgb(148, 103, 189); stroke-opacity: 1; stroke-width: 2px;"/></g><g class="legendsymbols"><g class="legendpoints"/></g></g><rect class="legendtoggle" pointer-events="all" x="0" y="-9.5" width="98.046875" height="19" style="cursor: pointer; fill: rgb(0, 0, 0); fill-opacity: 0;"/></g><g class="traces" transform="translate(0, 125.1)" style="opacity: 1;"><text class="legendtext user-select-none" text-anchor="start" x="40" y="4.680000000000001" style="font-family: 'Open Sans', verdana, arial, sans-serif; font-size: 12px; fill: rgb(68, 68, 68); fill-opacity: 1; white-space: pre;">36 Months</text><g class="layers" style="opacity: 1;"><g class="legendfill"/><g class="legendlines"><path class="js-line" d="M5,0h30" style="fill: none; stroke: rgb(140, 86, 75); stroke-opacity: 1; stroke-width: 2px;"/></g><g class="legendsymbols"><g class="legendpoints"/></g></g><rect class="legendtoggle" pointer-events="all" x="0" y="-9.5" width="98.046875" height="19" style="cursor: pointer; fill: rgb(0, 0, 0); fill-opacity: 0;"/></g></g></g><rect class="scrollbar" rx="20" ry="3" width="0" height="0" style="fill: rgb(128, 139, 164); fill-opacity: 1;" x="0" y="0"/></g><g class="g-gtitle"><text class="gtitle" x="350" y="12.5" text-anchor="middle" dy="0em" style="font-family: 'Open Sans', verdana, arial, sans-serif; font-size: 17px; fill: rgb(68, 68, 68); opacity: 1; font-weight: normal; white-space: pre;"><tspan style="font-weight:bold"> Leprosy Prevalence PB - Immunity Vaccine 0.5, Treatment 95% </tspan></text></g><g class="g-xtitle" transform="translate(0,-15)"><text class="xtitle" x="369.5" y="512" text-anchor="middle" style="font-family: 'Open Sans', verdana, arial, sans-serif; font-size: 14px; fill: rgb(68, 68, 68); opacity: 1; font-weight: normal; white-space: pre;">Time(Years)</text></g><g class="g-ytitle"><text class="ytitle" transform="rotate(-90,22,242.5)" x="22" y="242.5" text-anchor="middle" style="font-family: 'Open Sans', verdana, arial, sans-serif; font-size: 14px; fill: rgb(68, 68, 68); opacity: 1; font-weight: normal; white-space: pre;">Number of infectiuos individuals</text></g></g></svg>