<svg class="main-svg" xmlns="http://www.w3.org/2000/svg" xmlns:xlink="http://www.w3.org/1999/xlink" width="700" height="500" style="" viewBox="0 0 700 500"><rect x="0" y="0" width="700" height="500" style="fill: rgb(255, 255, 255); fill-opacity: 1;"/><defs id="defs-63dc5c"><g class="clips"><clipPath id="clip63dc5cxyplot" class="plotclip"><rect width="619" height="435"/></clipPath><clipPath class="axesclip" id="clip63dc5cx"><rect x="60" y="0" width="619" height="500"/></clipPath><clipPath class="axesclip" id="clip63dc5cy"><rect x="0" y="25" width="700" height="435"/></clipPath><clipPath class="axesclip" id="clip63dc5cxy"><rect x="60" y="25" width="619" height="435"/></clipPath></g><g class="gradients"/></defs><g class="bglayer"/><g class="layer-below"><g class="imagelayer"/><g class="shapelayer"/></g><g class="cartesianlayer"><g class="subplot xy"><g class="layer-subplot"><g class="shapelayer"/><g class="imagelayer"/></g><g class="gridlayer"><g class="x"><path class="xgrid crisp" transform="translate(212.42,0)" d="M0,25v435" style="stroke: rgb(238, 238, 238); stroke-opacity: 1; stroke-width: 1px;"/><path class="xgrid crisp" transform="translate(367.94,0)" d="M0,25v435" style="stroke: rgb(238, 238, 238); stroke-opacity: 1; stroke-width: 1px;"/><path class="xgrid crisp" transform="translate(523.47,0)" d="M0,25v435" style="stroke: rgb(238, 238, 238); stroke-opacity: 1; stroke-width: 1px;"/></g><g class="y"><path class="ygrid crisp" transform="translate(0,391.96)" d="M60,0h619" style="stroke: rgb(238, 238, 238); stroke-opacity: 1; stroke-width: 1px;"/><path class="ygrid crisp" transform="translate(0,344.33)" d="M60,0h619" style="stroke: rgb(238, 238, 238); stroke-opacity: 1; stroke-width: 1px;"/><path class="ygrid crisp" transform="translate(0,296.7)" d="M60,0h619" style="stroke: rgb(238, 238, 238); stroke-opacity: 1; stroke-width: 1px;"/><path class="ygrid crisp" transform="translate(0,249.07)" d="M60,0h619" style="stroke: rgb(238, 238, 238); stroke-opacity: 1; stroke-width: 1px;"/><path class="ygrid crisp" transform="translate(0,201.44)" d="M60,0h619" style="stroke: rgb(238, 238, 238); stroke-opacity: 1; stroke-width: 1px;"/><path class="ygrid crisp" transform="translate(0,153.81)" d="M60,0h619" style="stroke: rgb(238, 238, 238); stroke-opacity: 1; stroke-width: 1px;"/><path class="ygrid crisp" transform="translate(0,106.17)" d="M60,0h619" style="stroke: rgb(238, 238, 238); stroke-opacity: 1; stroke-width: 1px;"/><path class="ygrid crisp" transform="translate(0,58.54)" d="M60,0h619" style="stroke: rgb(238, 238, 238); stroke-opacity: 1; stroke-width: 1px;"/></g></g><g class="zerolinelayer"><path class="yzl zl crisp" transform="translate(0,439.59)" d="M60,0h619" style="stroke: rgb(68, 68, 68); stroke-opacity: 1; stroke-width: 1px;"/></g><path class="xlines-below"/><path class="ylines-below"/><g class="overlines-below"/><g class="xaxislayer-below"/><g class="yaxislayer-below"/><g class="overaxes-below"/><g class="plot" transform="translate(60, 25)" clip-path="url('#clip63dc5cxyplot')"><g class="scatterlayer mlayer"><g class="trace scatter trace940dea" style="stroke-miterlimit: 2; opacity: 1;"><g class="fills"/><g class="errorbars"/><g class="lines"><path class="js-line" d="M0,352.27L6.22,366.38L9.33,325.1L31.11,280.24L34.22,274.53L40.44,264.41L43.55,261.18L62.21,240.1L65.32,237.16L74.65,227.66L77.76,224.83L96.43,206.72L99.54,204.12L136.86,171.72L139.97,169.71L146.2,163.95L149.31,162.23L158.64,155.09L161.75,152.42L174.19,141.21L177.3,139.19L183.52,135.21L186.63,131.7L189.74,129.87L192.85,126.94L199.08,119.91L202.19,116.47L205.3,114.38L208.41,111.23L211.52,107.74L214.63,105.56L233.29,88.3L236.4,84.86L261.29,63.57L264.4,60.32L276.84,50.86L279.95,47.28L292.39,36.9L295.5,33.27L304.83,25.67L307.94,21.75L314.17,100.97L317.28,134.59L323.5,191.01L326.61,214.42L335.94,272.91L339.05,288.45L345.27,314.67L348.38,324.38L354.6,337.16L357.71,341.76L370.16,357.57L373.27,361.28L385.71,374.24L388.82,377.03L398.15,382.95L401.26,384.54L429.26,395.61L432.37,396.56L451.03,401.46L454.14,402L469.69,404.75L472.8,405.18L510.13,409.24L513.24,409.5L544.35,411.41L547.46,411.55L591.01,412.78L594.12,412.81L619,413.25" style="vector-effect: non-scaling-stroke; fill: none; stroke: rgb(31, 119, 180); stroke-opacity: 1; stroke-width: 2px; opacity: 1;"/></g><g class="points"/><g class="text"/></g><g class="trace scatter trace97c35b" style="stroke-miterlimit: 2; opacity: 1;"><g class="fills"/><g class="errorbars"/><g class="lines"><path class="js-line" d="M0,352.27L6.22,366.38L9.33,325.1L31.11,280.24L34.22,274.53L40.44,264.41L43.55,261.18L62.21,240.1L65.32,237.16L74.65,227.66L77.76,224.83L96.43,206.72L99.54,204.12L136.86,171.72L139.97,169.71L146.2,163.95L149.31,162.23L158.64,155.09L161.75,152.42L174.19,141.21L177.3,139.19L183.52,135.21L186.63,131.7L189.74,129.87L192.85,126.94L199.08,119.91L202.19,116.47L205.3,114.38L208.41,111.23L211.52,107.74L214.63,105.56L233.29,88.3L236.4,84.86L261.29,63.57L264.4,60.32L276.84,50.86L279.95,47.28L292.39,36.9L295.5,33.27L304.83,25.67L307.94,21.75L317.28,128.75L320.39,159.04L326.61,210.06L329.72,231.95L335.94,270.05L339.05,285.7L345.27,312.9L348.38,322.25L354.6,334.66L357.71,339.16L370.16,355.9L373.27,359.17L382.6,369.85L385.71,373.2L395.04,379.99L398.15,381.42L426.15,393.24L429.26,394.23L435.48,396.41L438.59,397.32L454.14,401.03L457.25,401.64L475.91,404.87L479.03,405.36L510.13,408.87L513.24,409.15L528.79,410.29L531.9,410.49L575.45,412.16L578.56,412.19L619,412.94" style="vector-effect: non-scaling-stroke; fill: none; stroke: rgb(255, 127, 14); stroke-opacity: 1; stroke-width: 2px; opacity: 1;"/></g><g class="points"/><g class="text"/></g><g class="trace scatter trace77427c" style="stroke-miterlimit: 2; opacity: 1;"><g class="fills"/><g class="errorbars"/><g class="lines"><path class="js-line" d="M0,352.27L6.22,366.38L9.33,325.1L31.11,280.24L34.22,274.53L40.44,264.41L43.55,261.18L62.21,240.1L65.32,237.16L74.65,227.66L77.76,224.83L96.43,206.72L99.54,204.12L136.86,171.72L139.97,169.71L146.2,163.95L149.31,162.23L158.64,155.09L161.75,152.42L174.19,141.21L177.3,139.19L183.52,135.21L186.63,131.7L189.74,129.87L192.85,126.94L199.08,119.91L202.19,116.47L205.3,114.38L208.41,111.23L211.52,107.74L214.63,105.56L233.29,88.3L236.4,84.86L261.29,63.57L264.4,60.32L276.84,50.86L279.95,47.28L292.39,36.9L295.5,33.27L304.83,25.67L307.94,21.75L314.17,89.97L317.28,123.98L326.61,206.52L329.72,228.79L335.94,266.78L339.05,282.94L345.27,310.44L348.38,320.23L354.6,331.91L357.71,336.54L367.05,348.75L370.16,352.38L385.71,370.15L388.82,372.59L395.04,377.07L398.15,378.7L407.48,382.68L410.59,384.05L432.37,393.35L435.48,394.46L454.14,399.64L457.25,400.15L500.8,407.12L503.91,407.4L516.35,408.67L519.46,408.83L538.13,410.33L541.24,410.53L572.34,411.78L575.45,411.81L600.34,412.51L603.45,412.58L619,412.92" style="vector-effect: non-scaling-stroke; fill: none; stroke: rgb(44, 160, 44); stroke-opacity: 1; stroke-width: 2px; opacity: 1;"/></g><g class="points"/><g class="text"/></g><g class="trace scatter tracebd6c39" style="stroke-miterlimit: 2; opacity: 1;"><g class="fills"/><g class="errorbars"/><g class="lines"><path class="js-line" d="M0,352.27L6.22,366.38L9.33,325.1L31.11,280.24L34.22,274.53L40.44,264.41L43.55,261.18L62.21,240.1L65.32,237.16L74.65,227.66L77.76,224.83L96.43,206.72L99.54,204.12L136.86,171.72L139.97,169.71L146.2,163.95L149.31,162.23L158.64,155.09L161.75,152.42L174.19,141.21L177.3,139.19L183.52,135.21L186.63,131.7L189.74,129.87L192.85,126.94L199.08,119.91L202.19,116.47L205.3,114.38L208.41,111.23L211.52,107.74L214.63,105.56L233.29,88.3L236.4,84.86L261.29,63.57L264.4,60.32L276.84,50.86L279.95,47.28L292.39,36.9L295.5,33.27L304.83,25.67L307.94,21.75L311.06,41.04L314.17,80.44L323.5,172.4L326.61,197.74L332.83,241.59L335.94,259.6L342.16,291.77L345.27,305.36L348.38,315.83L351.49,321.95L357.71,330.48L360.82,334.49L388.82,368.26L391.93,370.6L398.15,374.64L401.26,375.95L435.48,390.95L438.59,391.94L451.03,395.66L454.14,396.31L469.69,400.19L472.8,400.71L491.47,404.29L494.58,404.54L544.35,409.65L547.46,409.83L572.34,411.14L575.45,411.23L609.67,412.24L612.78,412.26L619,412.39" style="vector-effect: non-scaling-stroke; fill: none; stroke: rgb(214, 39, 40); stroke-opacity: 1; stroke-width: 2px; opacity: 1;"/></g><g class="points"/><g class="text"/></g><g class="trace scatter tracec652fc" style="stroke-miterlimit: 2; opacity: 1;"><g class="fills"/><g class="errorbars"/><g class="lines"><path class="js-line" d="M0,352.27L6.22,366.38L9.33,325.1L31.11,280.24L34.22,274.53L40.44,264.41L43.55,261.18L62.21,240.1L65.32,237.16L74.65,227.66L77.76,224.83L96.43,206.72L99.54,204.12L136.86,171.72L139.97,169.71L146.2,163.95L149.31,162.23L158.64,155.09L161.75,152.42L174.19,141.21L177.3,139.19L183.52,135.21L186.63,131.7L189.74,129.87L192.85,126.94L199.08,119.91L202.19,116.47L205.3,114.38L208.41,111.23L211.52,107.74L214.63,105.56L233.29,88.3L236.4,84.86L261.29,63.57L264.4,60.32L276.84,50.86L279.95,47.28L292.39,36.9L295.5,33.27L304.83,25.67L307.94,21.75L311.06,30.38L314.17,58.01L323.5,153.69L326.61,180.08L332.83,226.09L335.94,245.25L342.16,279.55L345.27,293.96L348.38,305.76L351.49,313.41L357.71,320.06L360.82,322.71L370.16,333.31L373.27,337.53L388.82,357.73L391.93,361.64L398.15,366.59L401.26,368.34L407.48,370.73L410.59,372.01L423.04,377.68L426.15,379.24L447.92,389.13L451.03,390.17L491.47,400.22L494.58,400.81L547.46,407.36L550.57,407.76L563.01,408.66L566.12,409.02L619,411.18" style="vector-effect: non-scaling-stroke; fill: none; stroke: rgb(148, 103, 189); stroke-opacity: 1; stroke-width: 2px; opacity: 1;"/></g><g class="points"/><g class="text"/></g><g class="trace scatter trace3cacea" style="stroke-miterlimit: 2; opacity: 1;"><g class="fills"/><g class="errorbars"/><g class="lines"><path class="js-line" d="M0,352.27L6.22,366.38L9.33,325.1L31.11,280.24L34.22,274.53L40.44,264.41L43.55,261.18L62.21,240.1L65.32,237.16L74.65,227.66L77.76,224.83L96.43,206.72L99.54,204.12L136.86,171.72L139.97,169.71L146.2,163.95L149.31,162.23L158.64,155.09L161.75,152.42L174.19,141.21L177.3,139.19L183.52,135.21L186.63,131.7L189.74,129.87L192.85,126.94L199.08,119.91L202.19,116.47L205.3,114.38L208.41,111.23L211.52,107.74L214.63,105.56L233.29,88.3L236.4,84.86L261.29,63.57L264.4,60.32L276.84,50.86L279.95,47.28L292.39,36.9L295.5,33.27L304.83,25.67L307.94,21.75L311.06,26.18L314.17,43.37L329.72,184.64L332.83,207.2L339.05,247.15L342.16,264.35L348.38,292.95L351.49,302.35L354.6,307.97L357.71,311.36L360.82,312.87L363.93,315.27L370.16,320.76L373.27,324.16L382.6,336.71L385.71,340.97L395.04,353.13L398.15,355.86L407.48,361.41L410.59,362.63L416.81,365.45L419.92,366.66L426.15,370.47L429.26,371.89L444.81,380.02L447.92,380.96L457.25,384.86L460.36,385.6L479.03,391.29L482.14,392.02L503.91,397.29L507.02,397.93L528.79,401.58L531.9,401.8L578.56,406.9L581.67,407.19L619,409.53" style="vector-effect: non-scaling-stroke; fill: none; stroke: rgb(140, 86, 75); stroke-opacity: 1; stroke-width: 2px; opacity: 1;"/></g><g class="points"/><g class="text"/></g></g></g><g class="overplot"/><path class="xlines-above crisp" style="fill: none;" d="M0,0"/><path class="ylines-above crisp" style="fill: none;" d="M0,0"/><g class="overlines-above"/><g class="xaxislayer-above"><g class="xtick"><text text-anchor="middle" x="0" y="473" transform="translate(212.42,0)" style="font-family: 'Open Sans', verdana, arial, sans-serif; font-size: 12px; fill: rgb(68, 68, 68); fill-opacity: 1; white-space: pre;">50</text></g><g class="xtick"><text text-anchor="middle" x="0" y="473" transform="translate(367.94,0)" style="font-family: 'Open Sans', verdana, arial, sans-serif; font-size: 12px; fill: rgb(68, 68, 68); fill-opacity: 1; white-space: pre;">100</text></g><g class="xtick"><text text-anchor="middle" x="0" y="473" transform="translate(523.47,0)" style="font-family: 'Open Sans', verdana, arial, sans-serif; font-size: 12px; fill: rgb(68, 68, 68); fill-opacity: 1; white-space: pre;">150</text></g><g class="xtick"><text text-anchor="middle" x="0" y="473" transform="translate(679,0)" style="font-family: 'Open Sans', verdana, arial, sans-serif; font-size: 12px; fill: rgb(68, 68, 68); fill-opacity: 1; white-space: pre;">200</text></g></g><g class="yaxislayer-above"><g class="ytick"><text text-anchor="end" x="59" y="4.199999999999999" transform="translate(0,439.59)" style="font-family: 'Open Sans', verdana, arial, sans-serif; font-size: 12px; fill: rgb(68, 68, 68); fill-opacity: 1; white-space: pre;">0</text></g><g class="ytick"><text text-anchor="end" x="59" y="4.199999999999999" transform="translate(0,391.96)" style="font-family: 'Open Sans', verdana, arial, sans-serif; font-size: 12px; fill: rgb(68, 68, 68); fill-opacity: 1; white-space: pre;">100</text></g><g class="ytick"><text text-anchor="end" x="59" y="4.199999999999999" transform="translate(0,344.33)" style="font-family: 'Open Sans', verdana, arial, sans-serif; font-size: 12px; fill: rgb(68, 68, 68); fill-opacity: 1; white-space: pre;">200</text></g><g class="ytick"><text text-anchor="end" x="59" y="4.199999999999999" transform="translate(0,296.7)" style="font-family: 'Open Sans', verdana, arial, sans-serif; font-size: 12px; fill: rgb(68, 68, 68); fill-opacity: 1; white-space: pre;">300</text></g><g class="ytick"><text text-anchor="end" x="59" y="4.199999999999999" transform="translate(0,249.07)" style="font-family: 'Open Sans', verdana, arial, sans-serif; font-size: 12px; fill: rgb(68, 68, 68); fill-opacity: 1; white-space: pre;">400</text></g><g class="ytick"><text text-anchor="end" x="59" y="4.199999999999999" transform="translate(0,201.44)" style="font-family: 'Open Sans', verdana, arial, sans-serif; font-size: 12px; fill: rgb(68, 68, 68); fill-opacity: 1; white-space: pre;">500</text></g><g class="ytick"><text text-anchor="end" x="59" y="4.199999999999999" transform="translate(0,153.81)" style="font-family: 'Open Sans', verdana, arial, sans-serif; font-size: 12px; fill: rgb(68, 68, 68); fill-opacity: 1; white-space: pre;">600</text></g><g class="ytick"><text text-anchor="end" x="59" y="4.199999999999999" transform="translate(0,106.17)" style="font-family: 'Open Sans', verdana, arial, sans-serif; font-size: 12px; fill: rgb(68, 68, 68); fill-opacity: 1; white-space: pre;">700</text></g><g class="ytick"><text text-anchor="end" x="59" y="4.199999999999999" transform="translate(0,58.54)" style="font-family: 'Open Sans', verdana, arial, sans-serif; font-size: 12px; fill: rgb(68, 68, 68); fill-opacity: 1; white-space: pre;">800</text></g></g><g class="overaxes-above"/></g></g><g class="polarlayer"/><g class="ternarylayer"/><g class="geolayer"/><g class="funnelarealayer"/><g class="pielayer"/><g class="treemaplayer"/><g class="sunburstlayer"/><g class="glimages"/><defs id="topdefs-63dc5c"><g class="clips"/><clipPath id="legend63dc5c"><rect width="117" height="140" x="0" y="0"/></clipPath></defs><g class="layer-above"><g class="imagelayer"/><g class="shapelayer"/></g><g class="infolayer"><g class="legend" pointer-events="all" transform="translate(90.95, 46.750000000000014)"><rect class="bg" shape-rendering="crispEdges" style="stroke: rgb(68, 68, 68); stroke-opacity: 1; fill: rgb(226, 226, 226); fill-opacity: 1; stroke-width: 0px;" width="117" height="140" x="0" y="0"/><g class="scrollbox" transform="translate(0, 0)" clip-path="url('#legend63dc5c')"><text class="legendtitletext user-select-none" text-anchor="start" x="2" y="15.600000000000001" style="font-family: 'Open Sans', verdana, arial, sans-serif; font-size: 12px; fill: rgb(68, 68, 68); fill-opacity: 1; white-space: pre;"><tspan style="font-weight:bold"> Identification Time </tspan></text><g class="groups"><g class="traces" transform="translate(0, 30.1)" style="opacity: 1;"><text class="legendtext user-select-none" text-anchor="start" x="40" y="4.680000000000001" style="font-family: 'Open Sans', verdana, arial, sans-serif; font-size: 12px; fill: rgb(68, 68, 68); fill-opacity: 1; white-space: pre;">0 Months</text><g class="layers" style="opacity: 1;"><g class="legendfill"/><g class="legendlines"><path class="js-line" d="M5,0h30" style="fill: none; stroke: rgb(31, 119, 180); stroke-opacity: 1; stroke-width: 2px;"/></g><g class="legendsymbols"><g class="legendpoints"/></g></g><rect class="legendtoggle" pointer-events="all" x="0" y="-9.5" width="98.046875" height="19" style="cursor: pointer; fill: rgb(0, 0, 0); fill-opacity: 0;"/></g><g class="traces" transform="translate(0, 49.1)" style="opacity: 1;"><text class="legendtext user-select-none" text-anchor="start" x="40" y="4.680000000000001" style="font-family: 'Open Sans', verdana, arial, sans-serif; font-size: 12px; fill: rgb(68, 68, 68); fill-opacity: 1; white-space: pre;">3 Months</text><g class="layers" style="opacity: 1;"><g class="legendfill"/><g class="legendlines"><path class="js-line" d="M5,0h30" style="fill: none; stroke: rgb(255, 127, 14); stroke-opacity: 1; stroke-width: 2px;"/></g><g class="legendsymbols"><g class="legendpoints"/></g></g><rect class="legendtoggle" pointer-events="all" x="0" y="-9.5" width="98.046875" height="19" style="cursor: pointer; fill: rgb(0, 0, 0); fill-opacity: 0;"/></g><g class="traces" transform="translate(0, 68.1)" style="opacity: 1;"><text class="legendtext user-select-none" text-anchor="start" x="40" y="4.680000000000001" style="font-family: 'Open Sans', verdana, arial, sans-serif; font-size: 12px; fill: rgb(68, 68, 68); fill-opacity: 1; white-space: pre;">6 Months</text><g class="layers" style="opacity: 1;"><g class="legendfill"/><g class="legendlines"><path class="js-line" d="M5,0h30" style="fill: none; stroke: rgb(44, 160, 44); stroke-opacity: 1; stroke-width: 2px;"/></g><g class="legendsymbols"><g class="legendpoints"/></g></g><rect class="legendtoggle" pointer-events="all" x="0" y="-9.5" width="98.046875" height="19" style="cursor: pointer; fill: rgb(0, 0, 0); fill-opacity: 0;"/></g><g class="traces" transform="translate(0, 87.1)" style="opacity: 1;"><text class="legendtext user-select-none" text-anchor="start" x="40" y="4.680000000000001" style="font-family: 'Open Sans', verdana, arial, sans-serif; font-size: 12px; fill: rgb(68, 68, 68); fill-opacity: 1; white-space: pre;">12 Months</text><g class="layers" style="opacity: 1;"><g class="legendfill"/><g class="legendlines"><path class="js-line" d="M5,0h30" style="fill: none; stroke: rgb(214, 39, 40); stroke-opacity: 1; stroke-width: 2px;"/></g><g class="legendsymbols"><g class="legendpoints"/></g></g><rect class="legendtoggle" pointer-events="all" x="0" y="-9.5" width="98.046875" height="19" style="cursor: pointer; fill: rgb(0, 0, 0); fill-opacity: 0;"/></g><g class="traces" transform="translate(0, 106.1)" style="opacity: 1;"><text class="legendtext user-select-none" text-anchor="start" x="40" y="4.680000000000001" style="font-family: 'Open Sans', verdana, arial, sans-serif; font-size: 12px; fill: rgb(68, 68, 68); fill-opacity: 1; white-space: pre;">24 Months</text><g class="layers" style="opacity: 1;"><g class="legendfill"/><g class="legendlines"><path class="js-line" d="M5,0h30" style="fill: none; stroke: rgb(148, 103, 189); stroke-opacity: 1; stroke-width: 2px;"/></g><g class="legendsymbols"><g class="legendpoints"/></g></g><rect class="legendtoggle" pointer-events="all" x="0" y="-9.5" width="98.046875" height="19" style="cursor: pointer; fill: rgb(0, 0, 0); fill-opacity: 0;"/></g><g class="traces" transform="translate(0, 125.1)" style="opacity: 1;"><text class="legendtext user-select-none" text-anchor="start" x="40" y="4.680000000000001" style="font-family: 'Open Sans', verdana, arial, sans-serif; font-size: 12px; fill: rgb(68, 68, 68); fill-opacity: 1; white-space: pre;">36 Months</text><g class="layers" style="opacity: 1;"><g class="legendfill"/><g class="legendlines"><path class="js-line" d="M5,0h30" style="fill: none; stroke: rgb(140, 86, 75); stroke-opacity: 1; stroke-width: 2px;"/></g><g class="legendsymbols"><g class="legendpoints"/></g></g><rect class="legendtoggle" pointer-events="all" x="0" y="-9.5" width="98.046875" height="19" style="cursor: pointer; fill: rgb(0, 0, 0); fill-opacity: 0;"/></g></g></g><rect class="scrollbar" rx="20" ry="3" width="0" height="0" style="fill: rgb(128, 139, 164); fill-opacity: 1;" x="0" y="0"/></g><g class="g-gtitle"><text class="gtitle" x="350" y="12.5" text-anchor="middle" dy="0em" style="font-family: 'Open Sans', verdana, arial, sans-serif; font-size: 17px; fill: rgb(68, 68, 68); opacity: 1; font-weight: normal; white-space: pre;"><tspan style="font-weight:bold"> Leprosy Prevalence PB - Immunity Vaccine 0.0, Treatment 75% </tspan></text></g><g class="g-xtitle" transform="translate(0,-15)"><text class="xtitle" x="369.5" y="512" text-anchor="middle" style="font-family: 'Open Sans', verdana, arial, sans-serif; font-size: 14px; fill: rgb(68, 68, 68); opacity: 1; font-weight: normal; white-space: pre;">Time(Years)</text></g><g class="g-ytitle"><text class="ytitle" transform="rotate(-90,22,242.5)" x="22" y="242.5" text-anchor="middle" style="font-family: 'Open Sans', verdana, arial, sans-serif; font-size: 14px; fill: rgb(68, 68, 68); opacity: 1; font-weight: normal; white-space: pre;">Number of infectiuos individuals</text></g></g></svg>