<svg class="main-svg" xmlns="http://www.w3.org/2000/svg" xmlns:xlink="http://www.w3.org/1999/xlink" width="700" height="500" style="" viewBox="0 0 700 500"><rect x="0" y="0" width="700" height="500" style="fill: rgb(255, 255, 255); fill-opacity: 1;"/><defs id="defs-400bda"><g class="clips"><clipPath id="clip400bdaxyplot" class="plotclip"><rect width="619" height="435"/></clipPath><clipPath class="axesclip" id="clip400bdax"><rect x="60" y="0" width="619" height="500"/></clipPath><clipPath class="axesclip" id="clip400bday"><rect x="0" y="25" width="700" height="435"/></clipPath><clipPath class="axesclip" id="clip400bdaxy"><rect x="60" y="25" width="619" height="435"/></clipPath></g><g class="gradients"/></defs><g class="bglayer"/><g class="layer-below"><g class="imagelayer"/><g class="shapelayer"/></g><g class="cartesianlayer"><g class="subplot xy"><g class="layer-subplot"><g class="shapelayer"/><g class="imagelayer"/></g><g class="gridlayer"><g class="x"><path class="xgrid crisp" transform="translate(212.42,0)" d="M0,25v435" style="stroke: rgb(238, 238, 238); stroke-opacity: 1; stroke-width: 1px;"/><path class="xgrid crisp" transform="translate(367.94,0)" d="M0,25v435" style="stroke: rgb(238, 238, 238); stroke-opacity: 1; stroke-width: 1px;"/><path class="xgrid crisp" transform="translate(523.47,0)" d="M0,25v435" style="stroke: rgb(238, 238, 238); stroke-opacity: 1; stroke-width: 1px;"/></g><g class="y"><path class="ygrid crisp" transform="translate(0,422.75)" d="M60,0h619" style="stroke: rgb(238, 238, 238); stroke-opacity: 1; stroke-width: 1px;"/><path class="ygrid crisp" transform="translate(0,370.94)" d="M60,0h619" style="stroke: rgb(238, 238, 238); stroke-opacity: 1; stroke-width: 1px;"/><path class="ygrid crisp" transform="translate(0,319.13)" d="M60,0h619" style="stroke: rgb(238, 238, 238); stroke-opacity: 1; stroke-width: 1px;"/><path class="ygrid crisp" transform="translate(0,267.32)" d="M60,0h619" style="stroke: rgb(238, 238, 238); stroke-opacity: 1; stroke-width: 1px;"/><path class="ygrid crisp" transform="translate(0,215.5)" d="M60,0h619" style="stroke: rgb(238, 238, 238); stroke-opacity: 1; stroke-width: 1px;"/><path class="ygrid crisp" transform="translate(0,163.69)" d="M60,0h619" style="stroke: rgb(238, 238, 238); stroke-opacity: 1; stroke-width: 1px;"/><path class="ygrid crisp" transform="translate(0,111.88)" d="M60,0h619" style="stroke: rgb(238, 238, 238); stroke-opacity: 1; stroke-width: 1px;"/><path class="ygrid crisp" transform="translate(0,60.07)" d="M60,0h619" style="stroke: rgb(238, 238, 238); stroke-opacity: 1; stroke-width: 1px;"/></g></g><g class="zerolinelayer"/><path class="xlines-below"/><path class="ylines-below"/><g class="overlines-below"/><g class="xaxislayer-below"/><g class="yaxislayer-below"/><g class="overaxes-below"/><g class="plot" transform="translate(60, 25)" clip-path="url('#clip400bdaxyplot')"><g class="scatterlayer mlayer"><g class="trace scatter trace3d756e" style="stroke-miterlimit: 2; opacity: 1;"><g class="fills"/><g class="errorbars"/><g class="lines"><path class="js-line" d="M0,381.76L6.22,397.12L9.33,352.22L31.11,303.41L34.22,297.2L40.44,286.2L43.55,282.68L62.21,259.76L65.32,256.56L74.65,246.22L77.76,243.14L96.43,223.45L99.54,220.61L136.86,185.37L139.97,183.19L146.2,176.92L149.31,175.05L158.64,167.29L161.75,164.38L174.19,152.19L177.3,149.98L183.52,145.66L186.63,141.84L189.74,139.85L192.85,136.66L199.08,129.01L202.19,125.28L205.3,123L208.41,119.57L211.52,115.77L214.63,113.41L233.29,94.63L236.4,90.89L255.07,73.19L258.18,70.31L276.84,53.9L279.95,50.01L292.39,38.72L295.5,34.78L304.83,26.5L307.94,22.24L314.17,49.23L317.28,61.27L345.27,170.79L348.38,180.29L354.6,195.14L357.71,200.95L376.38,233.28L379.49,237.79L395.04,261.79L398.15,266.31L404.37,274.65L407.48,278.2L413.7,285.83L416.81,289.76L426.15,301.21L429.26,304.81L435.48,311.85L438.59,314.9L472.8,345.02L475.91,347.12L494.58,360.6L497.69,362.31L516.35,373.7L519.46,375.66L544.35,387.59L547.46,388.94L556.79,393.06L559.9,394.01L566.12,396.61L569.23,397.49L603.45,408.98L606.56,409.68L619,413.25" style="vector-effect: non-scaling-stroke; fill: none; stroke: rgb(31, 119, 180); stroke-opacity: 1; stroke-width: 2px; opacity: 1;"/></g><g class="points"/><g class="text"/></g><g class="trace scatter trace410091" style="stroke-miterlimit: 2; opacity: 1;"><g class="fills"/><g class="errorbars"/><g class="lines"><path class="js-line" d="M0,381.76L6.22,397.12L9.33,352.22L31.11,303.41L34.22,297.2L40.44,286.2L43.55,282.68L62.21,259.76L65.32,256.56L74.65,246.22L77.76,243.14L96.43,223.45L99.54,220.61L136.86,185.37L139.97,183.19L146.2,176.92L149.31,175.05L158.64,167.29L161.75,164.38L174.19,152.19L177.3,149.98L183.52,145.66L186.63,141.84L189.74,139.85L192.85,136.66L199.08,129.01L202.19,125.28L205.3,123L208.41,119.57L211.52,115.77L214.63,113.41L233.29,94.63L236.4,90.89L255.07,73.19L258.18,70.31L276.84,53.9L279.95,50.01L292.39,38.72L295.5,34.78L304.83,26.5L307.94,22.24L314.17,46.13L317.28,58.15L323.5,81.45L326.61,93.27L348.38,176.66L351.49,184.71L357.71,197.73L360.82,203.15L373.27,224.49L376.38,228.93L391.93,253.3L395.04,257.8L410.59,279.84L413.7,284.08L432.37,305.9L435.48,308.94L463.47,334.69L466.58,336.87L475.91,344.43L479.03,346.79L494.58,358.01L497.69,359.86L507.02,366.4L510.13,367.8L525.68,377.2L528.79,378.86L538.13,383.87L541.24,385.36L553.68,390.34L556.79,391.89L584.78,402.07L587.89,403L609.67,409.22L612.78,410.51L619,412.43" style="vector-effect: non-scaling-stroke; fill: none; stroke: rgb(255, 127, 14); stroke-opacity: 1; stroke-width: 2px; opacity: 1;"/></g><g class="points"/><g class="text"/></g><g class="trace scatter tracebe1c8e" style="stroke-miterlimit: 2; opacity: 1;"><g class="fills"/><g class="errorbars"/><g class="lines"><path class="js-line" d="M0,381.76L6.22,397.12L9.33,352.22L31.11,303.41L34.22,297.2L40.44,286.2L43.55,282.68L62.21,259.76L65.32,256.56L74.65,246.22L77.76,243.14L96.43,223.45L99.54,220.61L136.86,185.37L139.97,183.19L146.2,176.92L149.31,175.05L158.64,167.29L161.75,164.38L174.19,152.19L177.3,149.98L183.52,145.66L186.63,141.84L189.74,139.85L192.85,136.66L199.08,129.01L202.19,125.28L205.3,123L208.41,119.57L211.52,115.77L214.63,113.41L233.29,94.63L236.4,90.89L255.07,73.19L258.18,70.31L276.84,53.9L279.95,50.01L292.39,38.72L295.5,34.78L304.83,26.5L307.94,22.24L311.06,31.88L314.17,44.46L332.83,117.42L335.94,130.33L348.38,176.37L351.49,184.85L354.6,192.53L357.71,198L376.38,229.43L379.49,234.35L391.93,254.25L395.04,258.6L404.37,272.58L407.48,276.49L419.92,290.29L423.04,293.54L438.59,311.16L441.7,314.66L472.8,342.22L475.91,344.63L485.25,351.56L488.36,353.44L494.58,357.23L497.69,359.71L503.91,363.53L507.02,365.84L513.24,369.86L516.35,371.82L528.79,378.89L531.9,379.64L535.02,381.6L538.13,382.47L547.46,386.84L550.57,388.15L572.34,396.82L575.45,397.92L597.23,405.14L600.34,405.99L615.89,410.35L619,411.28" style="vector-effect: non-scaling-stroke; fill: none; stroke: rgb(44, 160, 44); stroke-opacity: 1; stroke-width: 2px; opacity: 1;"/></g><g class="points"/><g class="text"/></g><g class="trace scatter tracea72582" style="stroke-miterlimit: 2; opacity: 1;"><g class="fills"/><g class="errorbars"/><g class="lines"><path class="js-line" d="M0,381.76L6.22,397.12L9.33,352.22L31.11,303.41L34.22,297.2L40.44,286.2L43.55,282.68L62.21,259.76L65.32,256.56L74.65,246.22L77.76,243.14L96.43,223.45L99.54,220.61L136.86,185.37L139.97,183.19L146.2,176.92L149.31,175.05L158.64,167.29L161.75,164.38L174.19,152.19L177.3,149.98L183.52,145.66L186.63,141.84L189.74,139.85L192.85,136.66L199.08,129.01L202.19,125.28L205.3,123L208.41,119.57L211.52,115.77L214.63,113.41L233.29,94.63L236.4,90.89L255.07,73.19L258.18,70.31L276.84,53.9L279.95,50.01L292.39,38.72L295.5,34.78L304.83,26.5L307.94,22.24L311.06,27.26L314.17,39.98L329.72,100.67L332.83,113.66L348.38,170.6L351.49,179.15L360.82,197.48L363.93,203.27L373.27,219.91L376.38,224.92L391.93,248.64L395.04,253.54L416.81,282.08L419.92,285.59L426.15,292.57L429.26,296.12L441.7,308.3L444.81,311.71L451.03,317.27L454.14,320.01L457.25,323.82L460.36,326.15L466.58,332.01L469.69,334.7L482.14,343.99L485.25,346.13L507.02,361.97L510.13,363.64L535.02,377.12L538.13,378.3L544.35,380.35L547.46,382.09L559.9,387.53L563.01,388.92L591.01,399.42L594.12,400.34L606.56,404.11L609.67,405.18L619,407.78" style="vector-effect: non-scaling-stroke; fill: none; stroke: rgb(214, 39, 40); stroke-opacity: 1; stroke-width: 2px; opacity: 1;"/></g><g class="points"/><g class="text"/></g><g class="trace scatter tracea54474" style="stroke-miterlimit: 2; opacity: 1;"><g class="fills"/><g class="errorbars"/><g class="lines"><path class="js-line" d="M0,381.76L6.22,397.12L9.33,352.22L31.11,303.41L34.22,297.2L40.44,286.2L43.55,282.68L62.21,259.76L65.32,256.56L74.65,246.22L77.76,243.14L96.43,223.45L99.54,220.61L136.86,185.37L139.97,183.19L146.2,176.92L149.31,175.05L158.64,167.29L161.75,164.38L174.19,152.19L177.3,149.98L183.52,145.66L186.63,141.84L189.74,139.85L192.85,136.66L199.08,129.01L202.19,125.28L205.3,123L208.41,119.57L211.52,115.77L214.63,113.41L233.29,94.63L236.4,90.89L255.07,73.19L258.18,70.31L276.84,53.9L279.95,50.01L292.39,38.72L295.5,34.78L304.83,26.5L307.94,22.24L311.06,22.51L314.17,31.16L326.61,77.18L329.72,88.71L348.38,156.77L351.49,165.99L357.71,180.48L360.82,185.87L379.49,218.97L382.6,222.88L388.82,232.43L391.93,237L407.48,258.14L410.59,262.44L416.81,271.1L419.92,274.58L426.15,280.79L429.26,284.12L444.81,301.06L447.92,304.34L479.03,333.35L482.14,335.33L491.47,342.38L494.58,344.29L500.8,347.92L503.91,350.17L519.46,359.96L522.57,361.45L538.13,370.67L541.24,371.97L547.46,375.67L550.57,377.44L581.67,391.25L584.78,392.11L606.56,399.62L609.67,400.46L619,403.17" style="vector-effect: non-scaling-stroke; fill: none; stroke: rgb(148, 103, 189); stroke-opacity: 1; stroke-width: 2px; opacity: 1;"/></g><g class="points"/><g class="text"/></g><g class="trace scatter tracef68374" style="stroke-miterlimit: 2; opacity: 1;"><g class="fills"/><g class="errorbars"/><g class="lines"><path class="js-line" d="M0,381.76L6.22,397.12L9.33,352.22L31.11,303.41L34.22,297.2L40.44,286.2L43.55,282.68L62.21,259.76L65.32,256.56L74.65,246.22L77.76,243.14L96.43,223.45L99.54,220.61L136.86,185.37L139.97,183.19L146.2,176.92L149.31,175.05L158.64,167.29L161.75,164.38L174.19,152.19L177.3,149.98L183.52,145.66L186.63,141.84L189.74,139.85L192.85,136.66L199.08,129.01L202.19,125.28L205.3,123L208.41,119.57L211.52,115.77L214.63,113.41L233.29,94.63L236.4,90.89L255.07,73.19L258.18,70.31L276.84,53.9L279.95,50.01L292.39,38.72L295.5,34.78L304.83,26.5L307.94,22.24L311.06,21.75L314.17,25.81L320.39,43.39L323.5,54.76L348.38,146.89L351.49,156.69L354.6,165.26L357.71,171.4L367.05,187.76L370.16,192.26L385.71,217.97L388.82,222.3L401.26,241.47L404.37,244.77L423.04,268.39L426.15,272.08L441.7,289.94L444.81,293.16L460.36,308.28L463.47,310.52L469.69,316.93L472.8,318.96L479.03,323.58L482.14,325.89L497.69,339.77L500.8,340.87L516.35,351.36L519.46,352.95L528.79,358.79L531.9,360.76L547.46,368.6L550.57,369.68L556.79,372.33L559.9,373.71L566.12,376.86L569.23,378.03L606.56,394.05L609.67,394.65L619,397.75" style="vector-effect: non-scaling-stroke; fill: none; stroke: rgb(140, 86, 75); stroke-opacity: 1; stroke-width: 2px; opacity: 1;"/></g><g class="points"/><g class="text"/></g></g></g><g class="overplot"/><path class="xlines-above crisp" style="fill: none;" d="M0,0"/><path class="ylines-above crisp" style="fill: none;" d="M0,0"/><g class="overlines-above"/><g class="xaxislayer-above"><g class="xtick"><text text-anchor="middle" x="0" y="473" transform="translate(212.42,0)" style="font-family: 'Open Sans', verdana, arial, sans-serif; font-size: 12px; fill: rgb(68, 68, 68); fill-opacity: 1; white-space: pre;">50</text></g><g class="xtick"><text text-anchor="middle" x="0" y="473" transform="translate(367.94,0)" style="font-family: 'Open Sans', verdana, arial, sans-serif; font-size: 12px; fill: rgb(68, 68, 68); fill-opacity: 1; white-space: pre;">100</text></g><g class="xtick"><text text-anchor="middle" x="0" y="473" transform="translate(523.47,0)" style="font-family: 'Open Sans', verdana, arial, sans-serif; font-size: 12px; fill: rgb(68, 68, 68); fill-opacity: 1; white-space: pre;">150</text></g><g class="xtick"><text text-anchor="middle" x="0" y="473" transform="translate(679,0)" style="font-family: 'Open Sans', verdana, arial, sans-serif; font-size: 12px; fill: rgb(68, 68, 68); fill-opacity: 1; white-space: pre;">200</text></g></g><g class="yaxislayer-above"><g class="ytick"><text text-anchor="end" x="59" y="4.199999999999999" transform="translate(0,422.75)" style="font-family: 'Open Sans', verdana, arial, sans-serif; font-size: 12px; fill: rgb(68, 68, 68); fill-opacity: 1; white-space: pre;">100</text></g><g class="ytick"><text text-anchor="end" x="59" y="4.199999999999999" transform="translate(0,370.94)" style="font-family: 'Open Sans', verdana, arial, sans-serif; font-size: 12px; fill: rgb(68, 68, 68); fill-opacity: 1; white-space: pre;">200</text></g><g class="ytick"><text text-anchor="end" x="59" y="4.199999999999999" transform="translate(0,319.13)" style="font-family: 'Open Sans', verdana, arial, sans-serif; font-size: 12px; fill: rgb(68, 68, 68); fill-opacity: 1; white-space: pre;">300</text></g><g class="ytick"><text text-anchor="end" x="59" y="4.199999999999999" transform="translate(0,267.32)" style="font-family: 'Open Sans', verdana, arial, sans-serif; font-size: 12px; fill: rgb(68, 68, 68); fill-opacity: 1; white-space: pre;">400</text></g><g class="ytick"><text text-anchor="end" x="59" y="4.199999999999999" transform="translate(0,215.5)" style="font-family: 'Open Sans', verdana, arial, sans-serif; font-size: 12px; fill: rgb(68, 68, 68); fill-opacity: 1; white-space: pre;">500</text></g><g class="ytick"><text text-anchor="end" x="59" y="4.199999999999999" transform="translate(0,163.69)" style="font-family: 'Open Sans', verdana, arial, sans-serif; font-size: 12px; fill: rgb(68, 68, 68); fill-opacity: 1; white-space: pre;">600</text></g><g class="ytick"><text text-anchor="end" x="59" y="4.199999999999999" transform="translate(0,111.88)" style="font-family: 'Open Sans', verdana, arial, sans-serif; font-size: 12px; fill: rgb(68, 68, 68); fill-opacity: 1; white-space: pre;">700</text></g><g class="ytick"><text text-anchor="end" x="59" y="4.199999999999999" transform="translate(0,60.07)" style="font-family: 'Open Sans', verdana, arial, sans-serif; font-size: 12px; fill: rgb(68, 68, 68); fill-opacity: 1; white-space: pre;">800</text></g></g><g class="overaxes-above"/></g></g><g class="polarlayer"/><g class="ternarylayer"/><g class="geolayer"/><g class="funnelarealayer"/><g class="pielayer"/><g class="treemaplayer"/><g class="sunburstlayer"/><g class="glimages"/><defs id="topdefs-400bda"><g class="clips"/><clipPath id="legend400bda"><rect width="117" height="140" x="0" y="0"/></clipPath></defs><g class="layer-above"><g class="imagelayer"/><g class="shapelayer"/></g><g class="infolayer"><g class="legend" pointer-events="all" transform="translate(90.95, 46.750000000000014)"><rect class="bg" shape-rendering="crispEdges" style="stroke: rgb(68, 68, 68); stroke-opacity: 1; fill: rgb(226, 226, 226); fill-opacity: 1; stroke-width: 0px;" width="117" height="140" x="0" y="0"/><g class="scrollbox" transform="translate(0, 0)" clip-path="url('#legend400bda')"><text class="legendtitletext user-select-none" text-anchor="start" x="2" y="15.600000000000001" style="font-family: 'Open Sans', verdana, arial, sans-serif; font-size: 12px; fill: rgb(68, 68, 68); fill-opacity: 1; white-space: pre;"><tspan style="font-weight:bold"> Identification Time </tspan></text><g class="groups"><g class="traces" transform="translate(0, 30.1)" style="opacity: 1;"><text class="legendtext user-select-none" text-anchor="start" x="40" y="4.680000000000001" style="font-family: 'Open Sans', verdana, arial, sans-serif; font-size: 12px; fill: rgb(68, 68, 68); fill-opacity: 1; white-space: pre;">0 Months</text><g class="layers" style="opacity: 1;"><g class="legendfill"/><g class="legendlines"><path class="js-line" d="M5,0h30" style="fill: none; stroke: rgb(31, 119, 180); stroke-opacity: 1; stroke-width: 2px;"/></g><g class="legendsymbols"><g class="legendpoints"/></g></g><rect class="legendtoggle" pointer-events="all" x="0" y="-9.5" width="98.046875" height="19" style="cursor: pointer; fill: rgb(0, 0, 0); fill-opacity: 0;"/></g><g class="traces" transform="translate(0, 49.1)" style="opacity: 1;"><text class="legendtext user-select-none" text-anchor="start" x="40" y="4.680000000000001" style="font-family: 'Open Sans', verdana, arial, sans-serif; font-size: 12px; fill: rgb(68, 68, 68); fill-opacity: 1; white-space: pre;">3 Months</text><g class="layers" style="opacity: 1;"><g class="legendfill"/><g class="legendlines"><path class="js-line" d="M5,0h30" style="fill: none; stroke: rgb(255, 127, 14); stroke-opacity: 1; stroke-width: 2px;"/></g><g class="legendsymbols"><g class="legendpoints"/></g></g><rect class="legendtoggle" pointer-events="all" x="0" y="-9.5" width="98.046875" height="19" style="cursor: pointer; fill: rgb(0, 0, 0); fill-opacity: 0;"/></g><g class="traces" transform="translate(0, 68.1)" style="opacity: 1;"><text class="legendtext user-select-none" text-anchor="start" x="40" y="4.680000000000001" style="font-family: 'Open Sans', verdana, arial, sans-serif; font-size: 12px; fill: rgb(68, 68, 68); fill-opacity: 1; white-space: pre;">6 Months</text><g class="layers" style="opacity: 1;"><g class="legendfill"/><g class="legendlines"><path class="js-line" d="M5,0h30" style="fill: none; stroke: rgb(44, 160, 44); stroke-opacity: 1; stroke-width: 2px;"/></g><g class="legendsymbols"><g class="legendpoints"/></g></g><rect class="legendtoggle" pointer-events="all" x="0" y="-9.5" width="98.046875" height="19" style="cursor: pointer; fill: rgb(0, 0, 0); fill-opacity: 0;"/></g><g class="traces" transform="translate(0, 87.1)" style="opacity: 1;"><text class="legendtext user-select-none" text-anchor="start" x="40" y="4.680000000000001" style="font-family: 'Open Sans', verdana, arial, sans-serif; font-size: 12px; fill: rgb(68, 68, 68); fill-opacity: 1; white-space: pre;">12 Months</text><g class="layers" style="opacity: 1;"><g class="legendfill"/><g class="legendlines"><path class="js-line" d="M5,0h30" style="fill: none; stroke: rgb(214, 39, 40); stroke-opacity: 1; stroke-width: 2px;"/></g><g class="legendsymbols"><g class="legendpoints"/></g></g><rect class="legendtoggle" pointer-events="all" x="0" y="-9.5" width="98.046875" height="19" style="cursor: pointer; fill: rgb(0, 0, 0); fill-opacity: 0;"/></g><g class="traces" transform="translate(0, 106.1)" style="opacity: 1;"><text class="legendtext user-select-none" text-anchor="start" x="40" y="4.680000000000001" style="font-family: 'Open Sans', verdana, arial, sans-serif; font-size: 12px; fill: rgb(68, 68, 68); fill-opacity: 1; white-space: pre;">24 Months</text><g class="layers" style="opacity: 1;"><g class="legendfill"/><g class="legendlines"><path class="js-line" d="M5,0h30" style="fill: none; stroke: rgb(148, 103, 189); stroke-opacity: 1; stroke-width: 2px;"/></g><g class="legendsymbols"><g class="legendpoints"/></g></g><rect class="legendtoggle" pointer-events="all" x="0" y="-9.5" width="98.046875" height="19" style="cursor: pointer; fill: rgb(0, 0, 0); fill-opacity: 0;"/></g><g class="traces" transform="translate(0, 125.1)" style="opacity: 1;"><text class="legendtext user-select-none" text-anchor="start" x="40" y="4.680000000000001" style="font-family: 'Open Sans', verdana, arial, sans-serif; font-size: 12px; fill: rgb(68, 68, 68); fill-opacity: 1; white-space: pre;">36 Months</text><g class="layers" style="opacity: 1;"><g class="legendfill"/><g class="legendlines"><path class="js-line" d="M5,0h30" style="fill: none; stroke: rgb(140, 86, 75); stroke-opacity: 1; stroke-width: 2px;"/></g><g class="legendsymbols"><g class="legendpoints"/></g></g><rect class="legendtoggle" pointer-events="all" x="0" y="-9.5" width="98.046875" height="19" style="cursor: pointer; fill: rgb(0, 0, 0); fill-opacity: 0;"/></g></g></g><rect class="scrollbar" rx="20" ry="3" width="0" height="0" style="fill: rgb(128, 139, 164); fill-opacity: 1;" x="0" y="0"/></g><g class="g-gtitle"><text class="gtitle" x="350" y="12.5" text-anchor="middle" dy="0em" style="font-family: 'Open Sans', verdana, arial, sans-serif; font-size: 17px; fill: rgb(68, 68, 68); opacity: 1; font-weight: normal; white-space: pre;"><tspan style="font-weight:bold"> Leprosy Prevalence PB - Immunity Vaccine 0.5, Treatment 25% </tspan></text></g><g class="g-xtitle" transform="translate(0,-15)"><text class="xtitle" x="369.5" y="512" text-anchor="middle" style="font-family: 'Open Sans', verdana, arial, sans-serif; font-size: 14px; fill: rgb(68, 68, 68); opacity: 1; font-weight: normal; white-space: pre;">Time(Years)</text></g><g class="g-ytitle"><text class="ytitle" transform="rotate(-90,22,242.5)" x="22" y="242.5" text-anchor="middle" style="font-family: 'Open Sans', verdana, arial, sans-serif; font-size: 14px; fill: rgb(68, 68, 68); opacity: 1; font-weight: normal; white-space: pre;">Number of infectiuos individuals</text></g></g></svg>