<svg class="main-svg" xmlns="http://www.w3.org/2000/svg" xmlns:xlink="http://www.w3.org/1999/xlink" width="700" height="500" style="" viewBox="0 0 700 500"><rect x="0" y="0" width="700" height="500" style="fill: rgb(255, 255, 255); fill-opacity: 1;"/><defs id="defs-00b5db"><g class="clips"><clipPath id="clip00b5dbxyplot" class="plotclip"><rect width="619" height="435"/></clipPath><clipPath class="axesclip" id="clip00b5dbx"><rect x="60" y="0" width="619" height="500"/></clipPath><clipPath class="axesclip" id="clip00b5dby"><rect x="0" y="25" width="700" height="435"/></clipPath><clipPath class="axesclip" id="clip00b5dbxy"><rect x="60" y="25" width="619" height="435"/></clipPath></g><g class="gradients"/></defs><g class="bglayer"/><g class="layer-below"><g class="imagelayer"/><g class="shapelayer"/></g><g class="cartesianlayer"><g class="subplot xy"><g class="layer-subplot"><g class="shapelayer"/><g class="imagelayer"/></g><g class="gridlayer"><g class="x"><path class="xgrid crisp" transform="translate(212.42,0)" d="M0,25v435" style="stroke: rgb(238, 238, 238); stroke-opacity: 1; stroke-width: 1px;"/><path class="xgrid crisp" transform="translate(367.94,0)" d="M0,25v435" style="stroke: rgb(238, 238, 238); stroke-opacity: 1; stroke-width: 1px;"/><path class="xgrid crisp" transform="translate(523.47,0)" d="M0,25v435" style="stroke: rgb(238, 238, 238); stroke-opacity: 1; stroke-width: 1px;"/></g><g class="y"><path class="ygrid crisp" transform="translate(0,396.63)" d="M60,0h619" style="stroke: rgb(238, 238, 238); stroke-opacity: 1; stroke-width: 1px;"/><path class="ygrid crisp" transform="translate(0,348.41)" d="M60,0h619" style="stroke: rgb(238, 238, 238); stroke-opacity: 1; stroke-width: 1px;"/><path class="ygrid crisp" transform="translate(0,300.2)" d="M60,0h619" style="stroke: rgb(238, 238, 238); stroke-opacity: 1; stroke-width: 1px;"/><path class="ygrid crisp" transform="translate(0,251.99)" d="M60,0h619" style="stroke: rgb(238, 238, 238); stroke-opacity: 1; stroke-width: 1px;"/><path class="ygrid crisp" transform="translate(0,203.78)" d="M60,0h619" style="stroke: rgb(238, 238, 238); stroke-opacity: 1; stroke-width: 1px;"/><path class="ygrid crisp" transform="translate(0,155.57)" d="M60,0h619" style="stroke: rgb(238, 238, 238); stroke-opacity: 1; stroke-width: 1px;"/><path class="ygrid crisp" transform="translate(0,107.35)" d="M60,0h619" style="stroke: rgb(238, 238, 238); stroke-opacity: 1; stroke-width: 1px;"/><path class="ygrid crisp" transform="translate(0,59.14)" d="M60,0h619" style="stroke: rgb(238, 238, 238); stroke-opacity: 1; stroke-width: 1px;"/></g></g><g class="zerolinelayer"><path class="yzl zl crisp" transform="translate(0,444.84)" d="M60,0h619" style="stroke: rgb(68, 68, 68); stroke-opacity: 1; stroke-width: 1px;"/></g><path class="xlines-below"/><path class="ylines-below"/><g class="overlines-below"/><g class="xaxislayer-below"/><g class="yaxislayer-below"/><g class="overaxes-below"/><g class="plot" transform="translate(60, 25)" clip-path="url('#clip00b5dbxyplot')"><g class="scatterlayer mlayer"><g class="trace scatter trace2a8aea" style="stroke-miterlimit: 2; opacity: 1;"><g class="fills"/><g class="errorbars"/><g class="lines"><path class="js-line" d="M0,356.75L6.22,371.04L9.33,329.26L31.11,283.84L34.22,278.06L40.44,267.83L43.55,264.55L62.21,243.22L65.32,240.25L74.65,230.63L77.76,227.76L96.43,209.43L99.54,206.8L136.86,174L139.97,171.97L146.2,166.14L149.31,164.39L158.64,157.17L161.75,154.47L174.19,143.13L177.3,141.07L183.52,137.05L186.63,133.5L189.74,131.64L192.85,128.68L199.08,121.56L202.19,118.08L205.3,115.97L208.41,112.77L211.52,109.24L214.63,107.04L258.18,66.94L261.29,64.54L267.51,58.98L270.62,57.11L304.83,26.17L307.94,22.21L317.28,59.58L320.39,70.37L345.27,179.55L348.38,191.23L354.6,209.69L357.71,217.24L379.49,265.39L382.6,270.84L398.15,300.28L401.26,305.11L410.59,318.26L413.7,322.39L426.15,337.96L429.26,341.45L447.92,360.26L451.03,362.81L457.25,367.96L460.36,369.96L472.8,378.1L475.91,379.7L485.25,384.87L488.36,386.38L500.8,391.66L503.91,392.83L519.46,398.09L522.57,398.99L559.9,406.9L563.01,407.25L600.34,411.79L603.45,412.11L619,413.12" style="vector-effect: non-scaling-stroke; fill: none; stroke: rgb(31, 119, 180); stroke-opacity: 1; stroke-width: 2px; opacity: 1;"/></g><g class="points"/><g class="text"/></g><g class="trace scatter trace13be0f" style="stroke-miterlimit: 2; opacity: 1;"><g class="fills"/><g class="errorbars"/><g class="lines"><path class="js-line" d="M0,356.75L6.22,371.04L9.33,329.26L31.11,283.84L34.22,278.06L40.44,267.83L43.55,264.55L62.21,243.22L65.32,240.25L74.65,230.63L77.76,227.76L96.43,209.43L99.54,206.8L136.86,174L139.97,171.97L146.2,166.14L149.31,164.39L158.64,157.17L161.75,154.47L174.19,143.13L177.3,141.07L183.52,137.05L186.63,133.5L189.74,131.64L192.85,128.68L199.08,121.56L202.19,118.08L205.3,115.97L208.41,112.77L211.52,109.24L214.63,107.04L258.18,66.94L261.29,64.54L267.51,58.98L270.62,57.11L304.83,26.17L307.94,22.21L317.28,54.95L320.39,65.97L335.94,132.77L339.05,147.08L348.38,185.56L351.49,195.22L360.82,219.78L363.93,227.21L376.38,254.56L379.49,260.66L391.93,285.17L395.04,289.95L404.37,305.33L407.48,310.02L419.92,328L423.04,331.31L441.7,352.07L444.81,354.97L451.03,360.6L454.14,363.03L469.69,374.31L472.8,376.38L491.47,386.67L494.58,387.93L519.46,397.36L522.57,398.34L535.02,401.45L538.13,402.15L559.9,406.7L563.01,407.29L591.01,410.92L594.12,411.09L619,413.03" style="vector-effect: non-scaling-stroke; fill: none; stroke: rgb(255, 127, 14); stroke-opacity: 1; stroke-width: 2px; opacity: 1;"/></g><g class="points"/><g class="text"/></g><g class="trace scatter trace240c8d" style="stroke-miterlimit: 2; opacity: 1;"><g class="fills"/><g class="errorbars"/><g class="lines"><path class="js-line" d="M0,356.75L6.22,371.04L9.33,329.26L31.11,283.84L34.22,278.06L40.44,267.83L43.55,264.55L62.21,243.22L65.32,240.25L74.65,230.63L77.76,227.76L96.43,209.43L99.54,206.8L136.86,174L139.97,171.97L146.2,166.14L149.31,164.39L158.64,157.17L161.75,154.47L174.19,143.13L177.3,141.07L183.52,137.05L186.63,133.5L189.74,131.64L192.85,128.68L199.08,121.56L202.19,118.08L205.3,115.97L208.41,112.77L211.52,109.24L214.63,107.04L258.18,66.94L261.29,64.54L267.51,58.98L270.62,57.11L304.83,26.17L307.94,22.21L311.06,31.18L314.17,44.29L323.5,79.13L326.61,91.98L348.38,185.94L351.49,196.17L360.82,221.64L363.93,228.53L376.38,255.85L379.49,261.79L391.93,286.89L395.04,292.5L410.59,316.4L413.7,320.55L423.04,332.06L426.15,335.29L432.37,342.91L435.48,346.1L444.81,355.28L447.92,357.72L457.25,365.39L460.36,367.59L475.91,377.4L479.03,379.24L491.47,385.93L494.58,387.05L525.68,398.77L528.79,399.56L559.9,406.47L563.01,406.98L575.45,409.11L578.56,409.62L597.23,411.47L600.34,411.71L619,413.25" style="vector-effect: non-scaling-stroke; fill: none; stroke: rgb(44, 160, 44); stroke-opacity: 1; stroke-width: 2px; opacity: 1;"/></g><g class="points"/><g class="text"/></g><g class="trace scatter trace0410a9" style="stroke-miterlimit: 2; opacity: 1;"><g class="fills"/><g class="errorbars"/><g class="lines"><path class="js-line" d="M0,356.75L6.22,371.04L9.33,329.26L31.11,283.84L34.22,278.06L40.44,267.83L43.55,264.55L62.21,243.22L65.32,240.25L74.65,230.63L77.76,227.76L96.43,209.43L99.54,206.8L136.86,174L139.97,171.97L146.2,166.14L149.31,164.39L158.64,157.17L161.75,154.47L174.19,143.13L177.3,141.07L183.52,137.05L186.63,133.5L189.74,131.64L192.85,128.68L199.08,121.56L202.19,118.08L205.3,115.97L208.41,112.77L211.52,109.24L214.63,107.04L258.18,66.94L261.29,64.54L267.51,58.98L270.62,57.11L304.83,26.17L307.94,22.21L311.06,26.87L314.17,38.36L323.5,72.89L326.61,85.52L348.38,180.88L351.49,191.35L360.82,215.68L363.93,223.35L373.27,244.13L376.38,250.56L395.04,287.62L398.15,293.05L407.48,307.85L410.59,311.96L432.37,339.44L435.48,342.55L444.81,352.09L447.92,355.08L454.14,360.69L457.25,362.9L472.8,374.09L475.91,375.97L500.8,389.48L503.91,390.59L516.35,395.39L519.46,396.24L531.9,399.82L535.02,400.53L553.68,404.64L556.79,405.24L597.23,410.88L600.34,411.25L619,412.84" style="vector-effect: non-scaling-stroke; fill: none; stroke: rgb(214, 39, 40); stroke-opacity: 1; stroke-width: 2px; opacity: 1;"/></g><g class="points"/><g class="text"/></g><g class="trace scatter trace962a55" style="stroke-miterlimit: 2; opacity: 1;"><g class="fills"/><g class="errorbars"/><g class="lines"><path class="js-line" d="M0,356.75L6.22,371.04L9.33,329.26L31.11,283.84L34.22,278.06L40.44,267.83L43.55,264.55L62.21,243.22L65.32,240.25L74.65,230.63L77.76,227.76L96.43,209.43L99.54,206.8L136.86,174L139.97,171.97L146.2,166.14L149.31,164.39L158.64,157.17L161.75,154.47L174.19,143.13L177.3,141.07L183.52,137.05L186.63,133.5L189.74,131.64L192.85,128.68L199.08,121.56L202.19,118.08L205.3,115.97L208.41,112.77L211.52,109.24L214.63,107.04L258.18,66.94L261.29,64.54L267.51,58.98L270.62,57.11L304.83,26.17L307.94,22.21L311.06,22.46L314.17,30.61L323.5,64.72L326.61,77.91L342.16,144.98L345.27,159L351.49,183.37L354.6,193.03L363.93,216.55L367.05,223.97L382.6,256.77L385.71,262.8L401.26,292.59L404.37,298.24L429.26,333.43L432.37,336.9L438.59,343.65L441.7,346.95L451.03,356.29L454.14,358.4L472.8,372.79L475.91,374.44L488.36,381.66L491.47,383.27L500.8,387.81L503.91,389.05L522.57,395.75L525.68,396.52L538.13,400.03L541.24,400.85L553.68,404L556.79,404.74L597.23,410.55L600.34,410.76L619,412.54" style="vector-effect: non-scaling-stroke; fill: none; stroke: rgb(148, 103, 189); stroke-opacity: 1; stroke-width: 2px; opacity: 1;"/></g><g class="points"/><g class="text"/></g><g class="trace scatter tracee8ed20" style="stroke-miterlimit: 2; opacity: 1;"><g class="fills"/><g class="errorbars"/><g class="lines"><path class="js-line" d="M0,356.75L6.22,371.04L9.33,329.26L31.11,283.84L34.22,278.06L40.44,267.83L43.55,264.55L62.21,243.22L65.32,240.25L74.65,230.63L77.76,227.76L96.43,209.43L99.54,206.8L136.86,174L139.97,171.97L146.2,166.14L149.31,164.39L158.64,157.17L161.75,154.47L174.19,143.13L177.3,141.07L183.52,137.05L186.63,133.5L189.74,131.64L192.85,128.68L199.08,121.56L202.19,118.08L205.3,115.97L208.41,112.77L211.52,109.24L214.63,107.04L258.18,66.94L261.29,64.54L267.51,58.98L270.62,57.11L304.83,26.17L307.94,22.21L311.06,21.75L314.17,26.65L320.39,43.6L323.5,55.65L342.16,134.67L345.27,148.48L354.6,184.15L357.71,192.98L363.93,208.37L367.05,214.65L385.71,256.15L388.82,262.35L404.37,291.52L407.48,296.8L426.15,323.19L429.26,327.13L451.03,350.5L454.14,353.64L463.47,361.99L466.58,364.4L482.14,374.53L485.25,376.76L503.91,386.16L507.02,387.31L528.79,395.56L531.9,396.51L541.24,399.27L544.35,400.24L572.34,406.3L575.45,406.76L600.34,410.12L603.45,410.39L619,411.88" style="vector-effect: non-scaling-stroke; fill: none; stroke: rgb(140, 86, 75); stroke-opacity: 1; stroke-width: 2px; opacity: 1;"/></g><g class="points"/><g class="text"/></g></g></g><g class="overplot"/><path class="xlines-above crisp" style="fill: none;" d="M0,0"/><path class="ylines-above crisp" style="fill: none;" d="M0,0"/><g class="overlines-above"/><g class="xaxislayer-above"><g class="xtick"><text text-anchor="middle" x="0" y="473" transform="translate(212.42,0)" style="font-family: 'Open Sans', verdana, arial, sans-serif; font-size: 12px; fill: rgb(68, 68, 68); fill-opacity: 1; white-space: pre;">50</text></g><g class="xtick"><text text-anchor="middle" x="0" y="473" transform="translate(367.94,0)" style="font-family: 'Open Sans', verdana, arial, sans-serif; font-size: 12px; fill: rgb(68, 68, 68); fill-opacity: 1; white-space: pre;">100</text></g><g class="xtick"><text text-anchor="middle" x="0" y="473" transform="translate(523.47,0)" style="font-family: 'Open Sans', verdana, arial, sans-serif; font-size: 12px; fill: rgb(68, 68, 68); fill-opacity: 1; white-space: pre;">150</text></g><g class="xtick"><text text-anchor="middle" x="0" y="473" transform="translate(679,0)" style="font-family: 'Open Sans', verdana, arial, sans-serif; font-size: 12px; fill: rgb(68, 68, 68); fill-opacity: 1; white-space: pre;">200</text></g></g><g class="yaxislayer-above"><g class="ytick"><text text-anchor="end" x="59" y="4.199999999999999" transform="translate(0,444.84)" style="font-family: 'Open Sans', verdana, arial, sans-serif; font-size: 12px; fill: rgb(68, 68, 68); fill-opacity: 1; white-space: pre;">0</text></g><g class="ytick"><text text-anchor="end" x="59" y="4.199999999999999" transform="translate(0,396.63)" style="font-family: 'Open Sans', verdana, arial, sans-serif; font-size: 12px; fill: rgb(68, 68, 68); fill-opacity: 1; white-space: pre;">100</text></g><g class="ytick"><text text-anchor="end" x="59" y="4.199999999999999" transform="translate(0,348.41)" style="font-family: 'Open Sans', verdana, arial, sans-serif; font-size: 12px; fill: rgb(68, 68, 68); fill-opacity: 1; white-space: pre;">200</text></g><g class="ytick"><text text-anchor="end" x="59" y="4.199999999999999" transform="translate(0,300.2)" style="font-family: 'Open Sans', verdana, arial, sans-serif; font-size: 12px; fill: rgb(68, 68, 68); fill-opacity: 1; white-space: pre;">300</text></g><g class="ytick"><text text-anchor="end" x="59" y="4.199999999999999" transform="translate(0,251.99)" style="font-family: 'Open Sans', verdana, arial, sans-serif; font-size: 12px; fill: rgb(68, 68, 68); fill-opacity: 1; white-space: pre;">400</text></g><g class="ytick"><text text-anchor="end" x="59" y="4.199999999999999" transform="translate(0,203.78)" style="font-family: 'Open Sans', verdana, arial, sans-serif; font-size: 12px; fill: rgb(68, 68, 68); fill-opacity: 1; white-space: pre;">500</text></g><g class="ytick"><text text-anchor="end" x="59" y="4.199999999999999" transform="translate(0,155.57)" style="font-family: 'Open Sans', verdana, arial, sans-serif; font-size: 12px; fill: rgb(68, 68, 68); fill-opacity: 1; white-space: pre;">600</text></g><g class="ytick"><text text-anchor="end" x="59" y="4.199999999999999" transform="translate(0,107.35)" style="font-family: 'Open Sans', verdana, arial, sans-serif; font-size: 12px; fill: rgb(68, 68, 68); fill-opacity: 1; white-space: pre;">700</text></g><g class="ytick"><text text-anchor="end" x="59" y="4.199999999999999" transform="translate(0,59.14)" style="font-family: 'Open Sans', verdana, arial, sans-serif; font-size: 12px; fill: rgb(68, 68, 68); fill-opacity: 1; white-space: pre;">800</text></g></g><g class="overaxes-above"/></g></g><g class="polarlayer"/><g class="ternarylayer"/><g class="geolayer"/><g class="funnelarealayer"/><g class="pielayer"/><g class="treemaplayer"/><g class="sunburstlayer"/><g class="glimages"/><defs id="topdefs-00b5db"><g class="clips"/><clipPath id="legend00b5db"><rect width="117" height="140" x="0" y="0"/></clipPath></defs><g class="layer-above"><g class="imagelayer"/><g class="shapelayer"/></g><g class="infolayer"><g class="legend" pointer-events="all" transform="translate(90.95, 46.750000000000014)"><rect class="bg" shape-rendering="crispEdges" style="stroke: rgb(68, 68, 68); stroke-opacity: 1; fill: rgb(226, 226, 226); fill-opacity: 1; stroke-width: 0px;" width="117" height="140" x="0" y="0"/><g class="scrollbox" transform="translate(0, 0)" clip-path="url('#legend00b5db')"><text class="legendtitletext user-select-none" text-anchor="start" x="2" y="15.600000000000001" style="font-family: 'Open Sans', verdana, arial, sans-serif; font-size: 12px; fill: rgb(68, 68, 68); fill-opacity: 1; white-space: pre;"><tspan style="font-weight:bold"> Identification Time </tspan></text><g class="groups"><g class="traces" transform="translate(0, 30.1)" style="opacity: 1;"><text class="legendtext user-select-none" text-anchor="start" x="40" y="4.680000000000001" style="font-family: 'Open Sans', verdana, arial, sans-serif; font-size: 12px; fill: rgb(68, 68, 68); fill-opacity: 1; white-space: pre;">0 Months</text><g class="layers" style="opacity: 1;"><g class="legendfill"/><g class="legendlines"><path class="js-line" d="M5,0h30" style="fill: none; stroke: rgb(31, 119, 180); stroke-opacity: 1; stroke-width: 2px;"/></g><g class="legendsymbols"><g class="legendpoints"/></g></g><rect class="legendtoggle" pointer-events="all" x="0" y="-9.5" width="98.046875" height="19" style="cursor: pointer; fill: rgb(0, 0, 0); fill-opacity: 0;"/></g><g class="traces" transform="translate(0, 49.1)" style="opacity: 1;"><text class="legendtext user-select-none" text-anchor="start" x="40" y="4.680000000000001" style="font-family: 'Open Sans', verdana, arial, sans-serif; font-size: 12px; fill: rgb(68, 68, 68); fill-opacity: 1; white-space: pre;">3 Months</text><g class="layers" style="opacity: 1;"><g class="legendfill"/><g class="legendlines"><path class="js-line" d="M5,0h30" style="fill: none; stroke: rgb(255, 127, 14); stroke-opacity: 1; stroke-width: 2px;"/></g><g class="legendsymbols"><g class="legendpoints"/></g></g><rect class="legendtoggle" pointer-events="all" x="0" y="-9.5" width="98.046875" height="19" style="cursor: pointer; fill: rgb(0, 0, 0); fill-opacity: 0;"/></g><g class="traces" transform="translate(0, 68.1)" style="opacity: 1;"><text class="legendtext user-select-none" text-anchor="start" x="40" y="4.680000000000001" style="font-family: 'Open Sans', verdana, arial, sans-serif; font-size: 12px; fill: rgb(68, 68, 68); fill-opacity: 1; white-space: pre;">6 Months</text><g class="layers" style="opacity: 1;"><g class="legendfill"/><g class="legendlines"><path class="js-line" d="M5,0h30" style="fill: none; stroke: rgb(44, 160, 44); stroke-opacity: 1; stroke-width: 2px;"/></g><g class="legendsymbols"><g class="legendpoints"/></g></g><rect class="legendtoggle" pointer-events="all" x="0" y="-9.5" width="98.046875" height="19" style="cursor: pointer; fill: rgb(0, 0, 0); fill-opacity: 0;"/></g><g class="traces" transform="translate(0, 87.1)" style="opacity: 1;"><text class="legendtext user-select-none" text-anchor="start" x="40" y="4.680000000000001" style="font-family: 'Open Sans', verdana, arial, sans-serif; font-size: 12px; fill: rgb(68, 68, 68); fill-opacity: 1; white-space: pre;">12 Months</text><g class="layers" style="opacity: 1;"><g class="legendfill"/><g class="legendlines"><path class="js-line" d="M5,0h30" style="fill: none; stroke: rgb(214, 39, 40); stroke-opacity: 1; stroke-width: 2px;"/></g><g class="legendsymbols"><g class="legendpoints"/></g></g><rect class="legendtoggle" pointer-events="all" x="0" y="-9.5" width="98.046875" height="19" style="cursor: pointer; fill: rgb(0, 0, 0); fill-opacity: 0;"/></g><g class="traces" transform="translate(0, 106.1)" style="opacity: 1;"><text class="legendtext user-select-none" text-anchor="start" x="40" y="4.680000000000001" style="font-family: 'Open Sans', verdana, arial, sans-serif; font-size: 12px; fill: rgb(68, 68, 68); fill-opacity: 1; white-space: pre;">24 Months</text><g class="layers" style="opacity: 1;"><g class="legendfill"/><g class="legendlines"><path class="js-line" d="M5,0h30" style="fill: none; stroke: rgb(148, 103, 189); stroke-opacity: 1; stroke-width: 2px;"/></g><g class="legendsymbols"><g class="legendpoints"/></g></g><rect class="legendtoggle" pointer-events="all" x="0" y="-9.5" width="98.046875" height="19" style="cursor: pointer; fill: rgb(0, 0, 0); fill-opacity: 0;"/></g><g class="traces" transform="translate(0, 125.1)" style="opacity: 1;"><text class="legendtext user-select-none" text-anchor="start" x="40" y="4.680000000000001" style="font-family: 'Open Sans', verdana, arial, sans-serif; font-size: 12px; fill: rgb(68, 68, 68); fill-opacity: 1; white-space: pre;">36 Months</text><g class="layers" style="opacity: 1;"><g class="legendfill"/><g class="legendlines"><path class="js-line" d="M5,0h30" style="fill: none; stroke: rgb(140, 86, 75); stroke-opacity: 1; stroke-width: 2px;"/></g><g class="legendsymbols"><g class="legendpoints"/></g></g><rect class="legendtoggle" pointer-events="all" x="0" y="-9.5" width="98.046875" height="19" style="cursor: pointer; fill: rgb(0, 0, 0); fill-opacity: 0;"/></g></g></g><rect class="scrollbar" rx="20" ry="3" width="0" height="0" style="fill: rgb(128, 139, 164); fill-opacity: 1;" x="0" y="0"/></g><g class="g-gtitle"><text class="gtitle" x="350" y="12.5" text-anchor="middle" dy="0em" style="font-family: 'Open Sans', verdana, arial, sans-serif; font-size: 17px; fill: rgb(68, 68, 68); opacity: 1; font-weight: normal; white-space: pre;"><tspan style="font-weight:bold"> Leprosy Prevalence PB - Immunity Vaccine 0.99, Treatment 25% </tspan></text></g><g class="g-xtitle" transform="translate(0,-15)"><text class="xtitle" x="369.5" y="512" text-anchor="middle" style="font-family: 'Open Sans', verdana, arial, sans-serif; font-size: 14px; fill: rgb(68, 68, 68); opacity: 1; font-weight: normal; white-space: pre;">Time(Years)</text></g><g class="g-ytitle"><text class="ytitle" transform="rotate(-90,22,242.5)" x="22" y="242.5" text-anchor="middle" style="font-family: 'Open Sans', verdana, arial, sans-serif; font-size: 14px; fill: rgb(68, 68, 68); opacity: 1; font-weight: normal; white-space: pre;">Number of infectiuos individuals</text></g></g></svg>