<svg class="main-svg" xmlns="http://www.w3.org/2000/svg" xmlns:xlink="http://www.w3.org/1999/xlink" width="700" height="500" style="" viewBox="0 0 700 500"><rect x="0" y="0" width="700" height="500" style="fill: rgb(255, 255, 255); fill-opacity: 1;"/><defs id="defs-0147d7"><g class="clips"><clipPath id="clip0147d7xyplot" class="plotclip"><rect width="619" height="435"/></clipPath><clipPath class="axesclip" id="clip0147d7x"><rect x="60" y="0" width="619" height="500"/></clipPath><clipPath class="axesclip" id="clip0147d7y"><rect x="0" y="25" width="700" height="435"/></clipPath><clipPath class="axesclip" id="clip0147d7xy"><rect x="60" y="25" width="619" height="435"/></clipPath></g><g class="gradients"/></defs><g class="bglayer"/><g class="layer-below"><g class="imagelayer"/><g class="shapelayer"/></g><g class="cartesianlayer"><g class="subplot xy"><g class="layer-subplot"><g class="shapelayer"/><g class="imagelayer"/></g><g class="gridlayer"><g class="x"><path class="xgrid crisp" transform="translate(212.42,0)" d="M0,25v435" style="stroke: rgb(238, 238, 238); stroke-opacity: 1; stroke-width: 1px;"/><path class="xgrid crisp" transform="translate(367.94,0)" d="M0,25v435" style="stroke: rgb(238, 238, 238); stroke-opacity: 1; stroke-width: 1px;"/><path class="xgrid crisp" transform="translate(523.47,0)" d="M0,25v435" style="stroke: rgb(238, 238, 238); stroke-opacity: 1; stroke-width: 1px;"/></g><g class="y"><path class="ygrid crisp" transform="translate(0,391.69)" d="M60,0h619" style="stroke: rgb(238, 238, 238); stroke-opacity: 1; stroke-width: 1px;"/><path class="ygrid crisp" transform="translate(0,344.09)" d="M60,0h619" style="stroke: rgb(238, 238, 238); stroke-opacity: 1; stroke-width: 1px;"/><path class="ygrid crisp" transform="translate(0,296.5)" d="M60,0h619" style="stroke: rgb(238, 238, 238); stroke-opacity: 1; stroke-width: 1px;"/><path class="ygrid crisp" transform="translate(0,248.91)" d="M60,0h619" style="stroke: rgb(238, 238, 238); stroke-opacity: 1; stroke-width: 1px;"/><path class="ygrid crisp" transform="translate(0,201.31)" d="M60,0h619" style="stroke: rgb(238, 238, 238); stroke-opacity: 1; stroke-width: 1px;"/><path class="ygrid crisp" transform="translate(0,153.72)" d="M60,0h619" style="stroke: rgb(238, 238, 238); stroke-opacity: 1; stroke-width: 1px;"/><path class="ygrid crisp" transform="translate(0,106.13)" d="M60,0h619" style="stroke: rgb(238, 238, 238); stroke-opacity: 1; stroke-width: 1px;"/><path class="ygrid crisp" transform="translate(0,58.53)" d="M60,0h619" style="stroke: rgb(238, 238, 238); stroke-opacity: 1; stroke-width: 1px;"/></g></g><g class="zerolinelayer"><path class="yzl zl crisp" transform="translate(0,439.28)" d="M60,0h619" style="stroke: rgb(68, 68, 68); stroke-opacity: 1; stroke-width: 1px;"/></g><path class="xlines-below"/><path class="ylines-below"/><g class="overlines-below"/><g class="xaxislayer-below"/><g class="yaxislayer-below"/><g class="overaxes-below"/><g class="plot" transform="translate(60, 25)" clip-path="url('#clip0147d7xyplot')"><g class="scatterlayer mlayer"><g class="trace scatter trace02f62e" style="stroke-miterlimit: 2; opacity: 1;"><g class="fills"/><g class="errorbars"/><g class="lines"><path class="js-line" d="M0,352L6.22,366.1L9.33,324.86L31.11,280.03L34.22,274.33L40.44,264.22L43.55,260.99L62.21,239.93L65.32,236.99L74.65,227.5L77.76,224.66L96.43,206.57L99.54,203.97L136.86,171.6L139.97,169.6L146.2,163.84L149.31,162.11L158.64,154.99L161.75,152.32L174.19,141.12L177.3,139.09L183.52,135.12L186.63,131.61L189.74,129.78L192.85,126.86L199.08,119.83L202.19,116.4L205.3,114.31L208.41,111.15L211.52,107.67L214.63,105.5L258.18,65.91L261.29,63.54L267.51,58.05L270.62,56.21L304.83,25.66L307.94,21.75L314.17,100.55L317.28,134.33L323.5,191.76L326.61,215.95L332.83,257.36L335.94,275.27L342.16,305.29L345.27,318.01L348.38,327.48L351.49,334.5L357.71,344.94L360.82,349.34L370.16,361.38L373.27,365.01L382.6,375.06L385.71,377.93L395.04,384.91L398.15,386.4L410.59,391.74L413.7,392.87L435.48,400.3L438.59,401.07L457.25,404.93L460.36,405.49L507.02,410.36L510.13,410.53L544.35,412.02L547.46,412.08L572.34,412.78L575.45,412.82L603.45,413.15L606.56,413.14L619,413.25" style="vector-effect: non-scaling-stroke; fill: none; stroke: rgb(31, 119, 180); stroke-opacity: 1; stroke-width: 2px; opacity: 1;"/></g><g class="points"/><g class="text"/></g><g class="trace scatter trace032507" style="stroke-miterlimit: 2; opacity: 1;"><g class="fills"/><g class="errorbars"/><g class="lines"><path class="js-line" d="M0,352L6.22,366.1L9.33,324.86L31.11,280.03L34.22,274.33L40.44,264.22L43.55,260.99L62.21,239.93L65.32,236.99L74.65,227.5L77.76,224.66L96.43,206.57L99.54,203.97L136.86,171.6L139.97,169.6L146.2,163.84L149.31,162.11L158.64,154.99L161.75,152.32L174.19,141.12L177.3,139.09L183.52,135.12L186.63,131.61L189.74,129.78L192.85,126.86L199.08,119.83L202.19,116.4L205.3,114.31L208.41,111.15L211.52,107.67L214.63,105.5L258.18,65.91L261.29,63.54L267.51,58.05L270.62,56.21L304.83,25.66L307.94,21.75L317.28,128.86L320.39,158.19L326.61,211.77L329.72,233.96L335.94,271.78L339.05,287.6L345.27,315.46L348.38,324.92L354.6,337.76L357.71,342.04L370.16,358.68L373.27,362.55L388.82,378.74L391.93,380.83L401.26,385.51L404.37,386.73L426.15,395.31L429.26,396.65L444.81,401.09L447.92,401.98L482.14,407.46L485.25,407.8L503.91,409.57L507.02,409.92L528.79,411.28L531.9,411.35L563.01,412.43L566.12,412.45L619,413.2" style="vector-effect: non-scaling-stroke; fill: none; stroke: rgb(255, 127, 14); stroke-opacity: 1; stroke-width: 2px; opacity: 1;"/></g><g class="points"/><g class="text"/></g><g class="trace scatter traceaad599" style="stroke-miterlimit: 2; opacity: 1;"><g class="fills"/><g class="errorbars"/><g class="lines"><path class="js-line" d="M0,352L6.22,366.1L9.33,324.86L31.11,280.03L34.22,274.33L40.44,264.22L43.55,260.99L62.21,239.93L65.32,236.99L74.65,227.5L77.76,224.66L96.43,206.57L99.54,203.97L136.86,171.6L139.97,169.6L146.2,163.84L149.31,162.11L158.64,154.99L161.75,152.32L174.19,141.12L177.3,139.09L183.52,135.12L186.63,131.61L189.74,129.78L192.85,126.86L199.08,119.83L202.19,116.4L205.3,114.31L208.41,111.15L211.52,107.67L214.63,105.5L258.18,65.91L261.29,63.54L267.51,58.05L270.62,56.21L304.83,25.66L307.94,21.75L311.06,52.41L314.17,91.17L323.5,182.86L326.61,208.15L332.83,250.7L335.94,268.28L342.16,299.69L345.27,313.16L348.38,322.72L351.49,329.11L357.71,338.86L360.82,343.28L376.38,362.65L379.49,366.42L388.82,376.52L391.93,378.66L401.26,383.9L404.37,385.32L419.92,391.41L423.04,392.95L438.59,398.63L441.7,399.33L469.69,404.9L472.8,405.35L488.36,407.52L491.47,408.01L525.68,410.61L528.79,410.8L600.34,412.87L603.45,412.95L619,413.11" style="vector-effect: non-scaling-stroke; fill: none; stroke: rgb(44, 160, 44); stroke-opacity: 1; stroke-width: 2px; opacity: 1;"/></g><g class="points"/><g class="text"/></g><g class="trace scatter tracef1eccf" style="stroke-miterlimit: 2; opacity: 1;"><g class="fills"/><g class="errorbars"/><g class="lines"><path class="js-line" d="M0,352L6.22,366.1L9.33,324.86L31.11,280.03L34.22,274.33L40.44,264.22L43.55,260.99L62.21,239.93L65.32,236.99L74.65,227.5L77.76,224.66L96.43,206.57L99.54,203.97L136.86,171.6L139.97,169.6L146.2,163.84L149.31,162.11L158.64,154.99L161.75,152.32L174.19,141.12L177.3,139.09L183.52,135.12L186.63,131.61L189.74,129.78L192.85,126.86L199.08,119.83L202.19,116.4L205.3,114.31L208.41,111.15L211.52,107.67L214.63,105.5L258.18,65.91L261.29,63.54L267.51,58.05L270.62,56.21L304.83,25.66L307.94,21.75L311.06,41.02L314.17,79.34L323.5,173.2L326.61,198.77L332.83,243.18L335.94,261.95L342.16,294.06L345.27,307.88L348.38,318.76L351.49,324.64L363.93,342.09L367.05,346.03L379.49,362.13L382.6,365.8L391.93,375.02L395.04,377.13L413.7,386.15L416.81,387.32L432.37,394.34L435.48,395.31L463.47,402.32L466.58,402.9L482.14,405.91L485.25,406.28L500.8,407.91L503.91,408.23L538.13,410.66L541.24,410.8L619,412.91" style="vector-effect: non-scaling-stroke; fill: none; stroke: rgb(214, 39, 40); stroke-opacity: 1; stroke-width: 2px; opacity: 1;"/></g><g class="points"/><g class="text"/></g><g class="trace scatter trace3bcdda" style="stroke-miterlimit: 2; opacity: 1;"><g class="fills"/><g class="errorbars"/><g class="lines"><path class="js-line" d="M0,352L6.22,366.1L9.33,324.86L31.11,280.03L34.22,274.33L40.44,264.22L43.55,260.99L62.21,239.93L65.32,236.99L74.65,227.5L77.76,224.66L96.43,206.57L99.54,203.97L136.86,171.6L139.97,169.6L146.2,163.84L149.31,162.11L158.64,154.99L161.75,152.32L174.19,141.12L177.3,139.09L183.52,135.12L186.63,131.61L189.74,129.78L192.85,126.86L199.08,119.83L202.19,116.4L205.3,114.31L208.41,111.15L211.52,107.67L214.63,105.5L258.18,65.91L261.29,63.54L267.51,58.05L270.62,56.21L304.83,25.66L307.94,21.75L311.06,30.37L314.17,57.88L323.5,154.33L326.61,181.45L332.83,228.27L335.94,248.4L342.16,282.68L345.27,297.08L348.38,309.35L351.49,317.22L357.71,324.3L360.82,327.04L367.05,334.03L370.16,337.88L388.82,364.05L391.93,367.16L398.15,371.87L401.26,373.66L423.04,383.49L426.15,385.23L441.7,392.15L444.81,393.38L466.58,398.99L469.69,399.64L479.03,401.78L482.14,402.57L494.58,404.56L497.69,404.91L507.02,406.2L510.13,406.54L525.68,408.11L528.79,408.33L572.34,411.03L575.45,411.16L600.34,411.89L603.45,412.05L619,412.32" style="vector-effect: non-scaling-stroke; fill: none; stroke: rgb(148, 103, 189); stroke-opacity: 1; stroke-width: 2px; opacity: 1;"/></g><g class="points"/><g class="text"/></g><g class="trace scatter trace4f2e3d" style="stroke-miterlimit: 2; opacity: 1;"><g class="fills"/><g class="errorbars"/><g class="lines"><path class="js-line" d="M0,352L6.22,366.1L9.33,324.86L31.11,280.03L34.22,274.33L40.44,264.22L43.55,260.99L62.21,239.93L65.32,236.99L74.65,227.5L77.76,224.66L96.43,206.57L99.54,203.97L136.86,171.6L139.97,169.6L146.2,163.84L149.31,162.11L158.64,154.99L161.75,152.32L174.19,141.12L177.3,139.09L183.52,135.12L186.63,131.61L189.74,129.78L192.85,126.86L199.08,119.83L202.19,116.4L205.3,114.31L208.41,111.15L211.52,107.67L214.63,105.5L258.18,65.91L261.29,63.54L267.51,58.05L270.62,56.21L304.83,25.66L307.94,21.75L311.06,26.18L314.17,43.11L332.83,210.04L335.94,232.04L342.16,268L345.27,283.91L348.38,297.52L351.49,307.18L354.6,313.35L357.71,316.8L363.93,321.56L367.05,325.08L376.38,336.46L379.49,340.84L391.93,358.15L395.04,361.65L401.26,367.01L404.37,368.36L407.48,370.32L410.59,371.33L413.7,372.37L416.81,374.21L454.14,391.7L457.25,392.72L472.8,396.69L475.91,397.41L500.8,402.96L503.91,403.3L553.68,408.89L556.79,409.04L594.12,410.88L597.23,411L619,411.66" style="vector-effect: non-scaling-stroke; fill: none; stroke: rgb(140, 86, 75); stroke-opacity: 1; stroke-width: 2px; opacity: 1;"/></g><g class="points"/><g class="text"/></g></g></g><g class="overplot"/><path class="xlines-above crisp" style="fill: none;" d="M0,0"/><path class="ylines-above crisp" style="fill: none;" d="M0,0"/><g class="overlines-above"/><g class="xaxislayer-above"><g class="xtick"><text text-anchor="middle" x="0" y="473" transform="translate(212.42,0)" style="font-family: 'Open Sans', verdana, arial, sans-serif; font-size: 12px; fill: rgb(68, 68, 68); fill-opacity: 1; white-space: pre;">50</text></g><g class="xtick"><text text-anchor="middle" x="0" y="473" transform="translate(367.94,0)" style="font-family: 'Open Sans', verdana, arial, sans-serif; font-size: 12px; fill: rgb(68, 68, 68); fill-opacity: 1; white-space: pre;">100</text></g><g class="xtick"><text text-anchor="middle" x="0" y="473" transform="translate(523.47,0)" style="font-family: 'Open Sans', verdana, arial, sans-serif; font-size: 12px; fill: rgb(68, 68, 68); fill-opacity: 1; white-space: pre;">150</text></g><g class="xtick"><text text-anchor="middle" x="0" y="473" transform="translate(679,0)" style="font-family: 'Open Sans', verdana, arial, sans-serif; font-size: 12px; fill: rgb(68, 68, 68); fill-opacity: 1; white-space: pre;">200</text></g></g><g class="yaxislayer-above"><g class="ytick"><text text-anchor="end" x="59" y="4.199999999999999" transform="translate(0,439.28)" style="font-family: 'Open Sans', verdana, arial, sans-serif; font-size: 12px; fill: rgb(68, 68, 68); fill-opacity: 1; white-space: pre;">0</text></g><g class="ytick"><text text-anchor="end" x="59" y="4.199999999999999" transform="translate(0,391.69)" style="font-family: 'Open Sans', verdana, arial, sans-serif; font-size: 12px; fill: rgb(68, 68, 68); fill-opacity: 1; white-space: pre;">100</text></g><g class="ytick"><text text-anchor="end" x="59" y="4.199999999999999" transform="translate(0,344.09)" style="font-family: 'Open Sans', verdana, arial, sans-serif; font-size: 12px; fill: rgb(68, 68, 68); fill-opacity: 1; white-space: pre;">200</text></g><g class="ytick"><text text-anchor="end" x="59" y="4.199999999999999" transform="translate(0,296.5)" style="font-family: 'Open Sans', verdana, arial, sans-serif; font-size: 12px; fill: rgb(68, 68, 68); fill-opacity: 1; white-space: pre;">300</text></g><g class="ytick"><text text-anchor="end" x="59" y="4.199999999999999" transform="translate(0,248.91)" style="font-family: 'Open Sans', verdana, arial, sans-serif; font-size: 12px; fill: rgb(68, 68, 68); fill-opacity: 1; white-space: pre;">400</text></g><g class="ytick"><text text-anchor="end" x="59" y="4.199999999999999" transform="translate(0,201.31)" style="font-family: 'Open Sans', verdana, arial, sans-serif; font-size: 12px; fill: rgb(68, 68, 68); fill-opacity: 1; white-space: pre;">500</text></g><g class="ytick"><text text-anchor="end" x="59" y="4.199999999999999" transform="translate(0,153.72)" style="font-family: 'Open Sans', verdana, arial, sans-serif; font-size: 12px; fill: rgb(68, 68, 68); fill-opacity: 1; white-space: pre;">600</text></g><g class="ytick"><text text-anchor="end" x="59" y="4.199999999999999" transform="translate(0,106.13)" style="font-family: 'Open Sans', verdana, arial, sans-serif; font-size: 12px; fill: rgb(68, 68, 68); fill-opacity: 1; white-space: pre;">700</text></g><g class="ytick"><text text-anchor="end" x="59" y="4.199999999999999" transform="translate(0,58.53)" style="font-family: 'Open Sans', verdana, arial, sans-serif; font-size: 12px; fill: rgb(68, 68, 68); fill-opacity: 1; white-space: pre;">800</text></g></g><g class="overaxes-above"/></g></g><g class="polarlayer"/><g class="ternarylayer"/><g class="geolayer"/><g class="funnelarealayer"/><g class="pielayer"/><g class="treemaplayer"/><g class="sunburstlayer"/><g class="glimages"/><defs id="topdefs-0147d7"><g class="clips"/><clipPath id="legend0147d7"><rect width="117" height="140" x="0" y="0"/></clipPath></defs><g class="layer-above"><g class="imagelayer"/><g class="shapelayer"/></g><g class="infolayer"><g class="legend" pointer-events="all" transform="translate(90.95, 46.750000000000014)"><rect class="bg" shape-rendering="crispEdges" style="stroke: rgb(68, 68, 68); stroke-opacity: 1; fill: rgb(226, 226, 226); fill-opacity: 1; stroke-width: 0px;" width="117" height="140" x="0" y="0"/><g class="scrollbox" transform="translate(0, 0)" clip-path="url('#legend0147d7')"><text class="legendtitletext user-select-none" text-anchor="start" x="2" y="15.600000000000001" style="font-family: 'Open Sans', verdana, arial, sans-serif; font-size: 12px; fill: rgb(68, 68, 68); fill-opacity: 1; white-space: pre;"><tspan style="font-weight:bold"> Identification Time </tspan></text><g class="groups"><g class="traces" transform="translate(0, 30.1)" style="opacity: 1;"><text class="legendtext user-select-none" text-anchor="start" x="40" y="4.680000000000001" style="font-family: 'Open Sans', verdana, arial, sans-serif; font-size: 12px; fill: rgb(68, 68, 68); fill-opacity: 1; white-space: pre;">0 Months</text><g class="layers" style="opacity: 1;"><g class="legendfill"/><g class="legendlines"><path class="js-line" d="M5,0h30" style="fill: none; stroke: rgb(31, 119, 180); stroke-opacity: 1; stroke-width: 2px;"/></g><g class="legendsymbols"><g class="legendpoints"/></g></g><rect class="legendtoggle" pointer-events="all" x="0" y="-9.5" width="98.046875" height="19" style="cursor: pointer; fill: rgb(0, 0, 0); fill-opacity: 0;"/></g><g class="traces" transform="translate(0, 49.1)" style="opacity: 1;"><text class="legendtext user-select-none" text-anchor="start" x="40" y="4.680000000000001" style="font-family: 'Open Sans', verdana, arial, sans-serif; font-size: 12px; fill: rgb(68, 68, 68); fill-opacity: 1; white-space: pre;">3 Months</text><g class="layers" style="opacity: 1;"><g class="legendfill"/><g class="legendlines"><path class="js-line" d="M5,0h30" style="fill: none; stroke: rgb(255, 127, 14); stroke-opacity: 1; stroke-width: 2px;"/></g><g class="legendsymbols"><g class="legendpoints"/></g></g><rect class="legendtoggle" pointer-events="all" x="0" y="-9.5" width="98.046875" height="19" style="cursor: pointer; fill: rgb(0, 0, 0); fill-opacity: 0;"/></g><g class="traces" transform="translate(0, 68.1)" style="opacity: 1;"><text class="legendtext user-select-none" text-anchor="start" x="40" y="4.680000000000001" style="font-family: 'Open Sans', verdana, arial, sans-serif; font-size: 12px; fill: rgb(68, 68, 68); fill-opacity: 1; white-space: pre;">6 Months</text><g class="layers" style="opacity: 1;"><g class="legendfill"/><g class="legendlines"><path class="js-line" d="M5,0h30" style="fill: none; stroke: rgb(44, 160, 44); stroke-opacity: 1; stroke-width: 2px;"/></g><g class="legendsymbols"><g class="legendpoints"/></g></g><rect class="legendtoggle" pointer-events="all" x="0" y="-9.5" width="98.046875" height="19" style="cursor: pointer; fill: rgb(0, 0, 0); fill-opacity: 0;"/></g><g class="traces" transform="translate(0, 87.1)" style="opacity: 1;"><text class="legendtext user-select-none" text-anchor="start" x="40" y="4.680000000000001" style="font-family: 'Open Sans', verdana, arial, sans-serif; font-size: 12px; fill: rgb(68, 68, 68); fill-opacity: 1; white-space: pre;">12 Months</text><g class="layers" style="opacity: 1;"><g class="legendfill"/><g class="legendlines"><path class="js-line" d="M5,0h30" style="fill: none; stroke: rgb(214, 39, 40); stroke-opacity: 1; stroke-width: 2px;"/></g><g class="legendsymbols"><g class="legendpoints"/></g></g><rect class="legendtoggle" pointer-events="all" x="0" y="-9.5" width="98.046875" height="19" style="cursor: pointer; fill: rgb(0, 0, 0); fill-opacity: 0;"/></g><g class="traces" transform="translate(0, 106.1)" style="opacity: 1;"><text class="legendtext user-select-none" text-anchor="start" x="40" y="4.680000000000001" style="font-family: 'Open Sans', verdana, arial, sans-serif; font-size: 12px; fill: rgb(68, 68, 68); fill-opacity: 1; white-space: pre;">24 Months</text><g class="layers" style="opacity: 1;"><g class="legendfill"/><g class="legendlines"><path class="js-line" d="M5,0h30" style="fill: none; stroke: rgb(148, 103, 189); stroke-opacity: 1; stroke-width: 2px;"/></g><g class="legendsymbols"><g class="legendpoints"/></g></g><rect class="legendtoggle" pointer-events="all" x="0" y="-9.5" width="98.046875" height="19" style="cursor: pointer; fill: rgb(0, 0, 0); fill-opacity: 0;"/></g><g class="traces" transform="translate(0, 125.1)" style="opacity: 1;"><text class="legendtext user-select-none" text-anchor="start" x="40" y="4.680000000000001" style="font-family: 'Open Sans', verdana, arial, sans-serif; font-size: 12px; fill: rgb(68, 68, 68); fill-opacity: 1; white-space: pre;">36 Months</text><g class="layers" style="opacity: 1;"><g class="legendfill"/><g class="legendlines"><path class="js-line" d="M5,0h30" style="fill: none; stroke: rgb(140, 86, 75); stroke-opacity: 1; stroke-width: 2px;"/></g><g class="legendsymbols"><g class="legendpoints"/></g></g><rect class="legendtoggle" pointer-events="all" x="0" y="-9.5" width="98.046875" height="19" style="cursor: pointer; fill: rgb(0, 0, 0); fill-opacity: 0;"/></g></g></g><rect class="scrollbar" rx="20" ry="3" width="0" height="0" style="fill: rgb(128, 139, 164); fill-opacity: 1;" x="0" y="0"/></g><g class="g-gtitle"><text class="gtitle" x="350" y="12.5" text-anchor="middle" dy="0em" style="font-family: 'Open Sans', verdana, arial, sans-serif; font-size: 17px; fill: rgb(68, 68, 68); opacity: 1; font-weight: normal; white-space: pre;"><tspan style="font-weight:bold"> Leprosy Prevalence PB - Immunity Vaccine 0.5, Treatment 75% </tspan></text></g><g class="g-xtitle" transform="translate(0,-15)"><text class="xtitle" x="369.5" y="512" text-anchor="middle" style="font-family: 'Open Sans', verdana, arial, sans-serif; font-size: 14px; fill: rgb(68, 68, 68); opacity: 1; font-weight: normal; white-space: pre;">Time(Years)</text></g><g class="g-ytitle"><text class="ytitle" transform="rotate(-90,22,242.5)" x="22" y="242.5" text-anchor="middle" style="font-family: 'Open Sans', verdana, arial, sans-serif; font-size: 14px; fill: rgb(68, 68, 68); opacity: 1; font-weight: normal; white-space: pre;">Number of infectiuos individuals</text></g></g></svg>