<svg class="main-svg" xmlns="http://www.w3.org/2000/svg" xmlns:xlink="http://www.w3.org/1999/xlink" width="700" height="500" style="" viewBox="0 0 700 500"><rect x="0" y="0" width="700" height="500" style="fill: rgb(255, 255, 255); fill-opacity: 1;"/><defs id="defs-26c562"><g class="clips"><clipPath id="clip26c562xyplot" class="plotclip"><rect width="619" height="435"/></clipPath><clipPath class="axesclip" id="clip26c562x"><rect x="60" y="0" width="619" height="500"/></clipPath><clipPath class="axesclip" id="clip26c562y"><rect x="0" y="25" width="700" height="435"/></clipPath><clipPath class="axesclip" id="clip26c562xy"><rect x="60" y="25" width="619" height="435"/></clipPath></g><g class="gradients"/></defs><g class="bglayer"/><g class="layer-below"><g class="imagelayer"/><g class="shapelayer"/></g><g class="cartesianlayer"><g class="subplot xy"><g class="layer-subplot"><g class="shapelayer"/><g class="imagelayer"/></g><g class="gridlayer"><g class="x"><path class="xgrid crisp" transform="translate(212.42,0)" d="M0,25v435" style="stroke: rgb(238, 238, 238); stroke-opacity: 1; stroke-width: 1px;"/><path class="xgrid crisp" transform="translate(367.94,0)" d="M0,25v435" style="stroke: rgb(238, 238, 238); stroke-opacity: 1; stroke-width: 1px;"/><path class="xgrid crisp" transform="translate(523.47,0)" d="M0,25v435" style="stroke: rgb(238, 238, 238); stroke-opacity: 1; stroke-width: 1px;"/></g><g class="y"><path class="ygrid crisp" transform="translate(0,391.19)" d="M60,0h619" style="stroke: rgb(238, 238, 238); stroke-opacity: 1; stroke-width: 1px;"/><path class="ygrid crisp" transform="translate(0,343.66)" d="M60,0h619" style="stroke: rgb(238, 238, 238); stroke-opacity: 1; stroke-width: 1px;"/><path class="ygrid crisp" transform="translate(0,296.14)" d="M60,0h619" style="stroke: rgb(238, 238, 238); stroke-opacity: 1; stroke-width: 1px;"/><path class="ygrid crisp" transform="translate(0,248.62)" d="M60,0h619" style="stroke: rgb(238, 238, 238); stroke-opacity: 1; stroke-width: 1px;"/><path class="ygrid crisp" transform="translate(0,201.09)" d="M60,0h619" style="stroke: rgb(238, 238, 238); stroke-opacity: 1; stroke-width: 1px;"/><path class="ygrid crisp" transform="translate(0,153.57)" d="M60,0h619" style="stroke: rgb(238, 238, 238); stroke-opacity: 1; stroke-width: 1px;"/><path class="ygrid crisp" transform="translate(0,106.04)" d="M60,0h619" style="stroke: rgb(238, 238, 238); stroke-opacity: 1; stroke-width: 1px;"/><path class="ygrid crisp" transform="translate(0,58.52)" d="M60,0h619" style="stroke: rgb(238, 238, 238); stroke-opacity: 1; stroke-width: 1px;"/></g></g><g class="zerolinelayer"><path class="yzl zl crisp" transform="translate(0,438.71)" d="M60,0h619" style="stroke: rgb(68, 68, 68); stroke-opacity: 1; stroke-width: 1px;"/></g><path class="xlines-below"/><path class="ylines-below"/><g class="overlines-below"/><g class="xaxislayer-below"/><g class="yaxislayer-below"/><g class="overaxes-below"/><g class="plot" transform="translate(60, 25)" clip-path="url('#clip26c562xyplot')"><g class="scatterlayer mlayer"><g class="trace scatter trace9d858b" style="stroke-miterlimit: 2; opacity: 1;"><g class="fills"/><g class="errorbars"/><g class="lines"><path class="js-line" d="M0,351.53L6.22,365.61L9.33,324.42L31.11,279.66L34.22,273.96L40.44,263.87L43.55,260.64L62.21,239.61L65.32,236.68L74.65,227.2L77.76,224.37L96.43,206.31L99.54,203.71L136.86,171.38L139.97,169.38L146.2,163.63L149.31,161.91L158.64,154.79L161.75,152.13L174.19,140.95L177.3,138.92L183.52,134.95L186.63,131.46L189.74,129.63L192.85,126.71L199.08,119.69L202.19,116.26L205.3,114.18L208.41,111.02L211.52,107.54L214.63,105.37L233.29,88.15L236.4,84.72L261.29,63.48L264.4,60.24L276.84,50.79L279.95,47.22L292.39,36.87L295.5,33.25L304.83,25.66L307.94,21.75L314.17,121.78L317.28,161.5L323.5,226.01L326.61,252.05L332.83,294.2L335.94,311.29L342.16,338.93L345.27,349.98L351.49,365.33L354.6,371.23L360.82,380.4L363.93,384.25L373.27,393.14L376.38,395.48L385.71,401.16L388.82,402.41L398.15,405.03L401.26,405.56L426.15,409.4L429.26,409.71L444.81,410.83L447.92,410.98L497.69,412.69L500.8,412.73L619,413.25" style="vector-effect: non-scaling-stroke; fill: none; stroke: rgb(31, 119, 180); stroke-opacity: 1; stroke-width: 2px; opacity: 1;"/></g><g class="points"/><g class="text"/></g><g class="trace scatter trace8847fa" style="stroke-miterlimit: 2; opacity: 1;"><g class="fills"/><g class="errorbars"/><g class="lines"><path class="js-line" d="M0,351.53L6.22,365.61L9.33,324.42L31.11,279.66L34.22,273.96L40.44,263.87L43.55,260.64L62.21,239.61L65.32,236.68L74.65,227.2L77.76,224.37L96.43,206.31L99.54,203.71L136.86,171.38L139.97,169.38L146.2,163.63L149.31,161.91L158.64,154.79L161.75,152.13L174.19,140.95L177.3,138.92L183.52,134.95L186.63,131.46L189.74,129.63L192.85,126.71L199.08,119.69L202.19,116.26L205.3,114.18L208.41,111.02L211.52,107.54L214.63,105.37L233.29,88.15L236.4,84.72L261.29,63.48L264.4,60.24L276.84,50.79L279.95,47.22L292.39,36.87L295.5,33.25L304.83,25.66L307.94,21.75L317.28,156.33L320.39,191.06L326.61,248.44L329.72,272L335.94,309.25L339.05,324.19L345.27,348.36L348.38,356.14L354.6,367.91L357.71,373.18L363.93,381.71L367.05,385.3L376.38,394L379.49,396.16L385.71,399.9L388.82,401.22L398.15,403.6L401.26,404.01L423.04,408.3L426.15,408.89L457.25,411.09L460.36,411.25L494.58,412.38L497.69,412.45L584.78,413.19L587.89,413.18L619,413.2" style="vector-effect: non-scaling-stroke; fill: none; stroke: rgb(255, 127, 14); stroke-opacity: 1; stroke-width: 2px; opacity: 1;"/></g><g class="points"/><g class="text"/></g><g class="trace scatter trace4c77ca" style="stroke-miterlimit: 2; opacity: 1;"><g class="fills"/><g class="errorbars"/><g class="lines"><path class="js-line" d="M0,351.53L6.22,365.61L9.33,324.42L31.11,279.66L34.22,273.96L40.44,263.87L43.55,260.64L62.21,239.61L65.32,236.68L74.65,227.2L77.76,224.37L96.43,206.31L99.54,203.71L136.86,171.38L139.97,169.38L146.2,163.63L149.31,161.91L158.64,154.79L161.75,152.13L174.19,140.95L177.3,138.92L183.52,134.95L186.63,131.46L189.74,129.63L192.85,126.71L199.08,119.69L202.19,116.26L205.3,114.18L208.41,111.02L211.52,107.54L214.63,105.37L233.29,88.15L236.4,84.72L261.29,63.48L264.4,60.24L276.84,50.79L279.95,47.22L292.39,36.87L295.5,33.25L304.83,25.66L307.94,21.75L314.17,108.96L317.28,150.47L323.5,218.26L326.61,245.66L332.83,289.62L335.94,307.15L342.16,336.14L345.27,347.22L351.49,360.47L354.6,366.02L363.93,379.24L367.05,382.87L376.38,392.28L379.49,394.84L385.71,398.86L388.82,400.22L404.37,403.76L407.48,404.2L423.04,407.67L426.15,408.17L435.48,409.38L438.59,409.47L491.47,412.07L494.58,412.07L575.45,413.17L578.56,413.16L619,413.22" style="vector-effect: non-scaling-stroke; fill: none; stroke: rgb(44, 160, 44); stroke-opacity: 1; stroke-width: 2px; opacity: 1;"/></g><g class="points"/><g class="text"/></g><g class="trace scatter trace3f63a4" style="stroke-miterlimit: 2; opacity: 1;"><g class="fills"/><g class="errorbars"/><g class="lines"><path class="js-line" d="M0,351.53L6.22,365.61L9.33,324.42L31.11,279.66L34.22,273.96L40.44,263.87L43.55,260.64L62.21,239.61L65.32,236.68L74.65,227.2L77.76,224.37L96.43,206.31L99.54,203.71L136.86,171.38L139.97,169.38L146.2,163.63L149.31,161.91L158.64,154.79L161.75,152.13L174.19,140.95L177.3,138.92L183.52,134.95L186.63,131.46L189.74,129.63L192.85,126.71L199.08,119.69L202.19,116.26L205.3,114.18L208.41,111.02L211.52,107.54L214.63,105.37L233.29,88.15L236.4,84.72L261.29,63.48L264.4,60.24L276.84,50.79L279.95,47.22L292.39,36.87L295.5,33.25L304.83,25.66L307.94,21.75L311.06,46.53L314.17,95.58L320.39,174.6L323.5,207.59L329.72,260.64L332.83,282.3L339.05,317.75L342.16,331.64L345.27,343.93L348.38,352.07L376.38,387.26L379.49,390.34L385.71,395.39L388.82,397.36L395.04,399.03L398.15,399.68L416.81,403.19L419.92,404.25L438.59,407.88L441.7,408.06L482.14,411.08L485.25,411.17L563.01,412.87L566.12,412.88L619,413.09" style="vector-effect: non-scaling-stroke; fill: none; stroke: rgb(214, 39, 40); stroke-opacity: 1; stroke-width: 2px; opacity: 1;"/></g><g class="points"/><g class="text"/></g><g class="trace scatter tracefcb41a" style="stroke-miterlimit: 2; opacity: 1;"><g class="fills"/><g class="errorbars"/><g class="lines"><path class="js-line" d="M0,351.53L6.22,365.61L9.33,324.42L31.11,279.66L34.22,273.96L40.44,263.87L43.55,260.64L62.21,239.61L65.32,236.68L74.65,227.2L77.76,224.37L96.43,206.31L99.54,203.71L136.86,171.38L139.97,169.38L146.2,163.63L149.31,161.91L158.64,154.79L161.75,152.13L174.19,140.95L177.3,138.92L183.52,134.95L186.63,131.46L189.74,129.63L192.85,126.71L199.08,119.69L202.19,116.26L205.3,114.18L208.41,111.02L211.52,107.54L214.63,105.37L233.29,88.15L236.4,84.72L261.29,63.48L264.4,60.24L276.84,50.79L279.95,47.22L292.39,36.87L295.5,33.25L304.83,25.66L307.94,21.75L311.06,34.04L314.17,69.36L320.39,152.59L323.5,187.85L329.72,244.64L332.83,268.51L339.05,306.65L342.16,321.98L348.38,345.67L351.49,351.21L360.82,356.23L363.93,360.05L382.6,384.57L385.71,387.79L391.93,393.06L395.04,394.13L410.59,395.88L413.7,396.84L419.92,398.28L423.04,399.41L435.48,403.4L438.59,403.89L447.92,405.05L451.03,405.28L463.47,406.74L466.58,407.08L494.58,409.82L497.69,409.98L544.35,411.81L547.46,411.85L569.23,412.35L572.34,412.39L619,412.88" style="vector-effect: non-scaling-stroke; fill: none; stroke: rgb(148, 103, 189); stroke-opacity: 1; stroke-width: 2px; opacity: 1;"/></g><g class="points"/><g class="text"/></g><g class="trace scatter trace0c37a9" style="stroke-miterlimit: 2; opacity: 1;"><g class="fills"/><g class="errorbars"/><g class="lines"><path class="js-line" d="M0,351.53L6.22,365.61L9.33,324.42L31.11,279.66L34.22,273.96L40.44,263.87L43.55,260.64L62.21,239.61L65.32,236.68L74.65,227.2L77.76,224.37L96.43,206.31L99.54,203.71L136.86,171.38L139.97,169.38L146.2,163.63L149.31,161.91L158.64,154.79L161.75,152.13L174.19,140.95L177.3,138.92L183.52,134.95L186.63,131.46L189.74,129.63L192.85,126.71L199.08,119.69L202.19,116.26L205.3,114.18L208.41,111.02L211.52,107.54L214.63,105.37L233.29,88.15L236.4,84.72L261.29,63.48L264.4,60.24L276.84,50.79L279.95,47.22L292.39,36.87L295.5,33.25L304.83,25.66L307.94,21.75L311.06,27.93L314.17,51.16L326.61,196.17L329.72,225.63L335.94,273.88L339.05,293.86L345.27,324.76L348.38,336.97L351.49,344.59L354.6,347.48L360.82,348.01L363.93,349.65L370.16,355.67L373.27,359.15L388.82,381.67L391.93,384.56L398.15,389.22L401.26,389.94L410.59,390.13L413.7,390.33L423.04,392.46L426.15,393.63L444.81,401.24L447.92,401.85L469.69,404.01L472.8,404.39L491.47,407.22L494.58,407.51L522.57,409.34L525.68,409.55L541.24,410.73L544.35,410.79L619,412.38" style="vector-effect: non-scaling-stroke; fill: none; stroke: rgb(140, 86, 75); stroke-opacity: 1; stroke-width: 2px; opacity: 1;"/></g><g class="points"/><g class="text"/></g></g></g><g class="overplot"/><path class="xlines-above crisp" style="fill: none;" d="M0,0"/><path class="ylines-above crisp" style="fill: none;" d="M0,0"/><g class="overlines-above"/><g class="xaxislayer-above"><g class="xtick"><text text-anchor="middle" x="0" y="473" transform="translate(212.42,0)" style="font-family: 'Open Sans', verdana, arial, sans-serif; font-size: 12px; fill: rgb(68, 68, 68); fill-opacity: 1; white-space: pre;">50</text></g><g class="xtick"><text text-anchor="middle" x="0" y="473" transform="translate(367.94,0)" style="font-family: 'Open Sans', verdana, arial, sans-serif; font-size: 12px; fill: rgb(68, 68, 68); fill-opacity: 1; white-space: pre;">100</text></g><g class="xtick"><text text-anchor="middle" x="0" y="473" transform="translate(523.47,0)" style="font-family: 'Open Sans', verdana, arial, sans-serif; font-size: 12px; fill: rgb(68, 68, 68); fill-opacity: 1; white-space: pre;">150</text></g><g class="xtick"><text text-anchor="middle" x="0" y="473" transform="translate(679,0)" style="font-family: 'Open Sans', verdana, arial, sans-serif; font-size: 12px; fill: rgb(68, 68, 68); fill-opacity: 1; white-space: pre;">200</text></g></g><g class="yaxislayer-above"><g class="ytick"><text text-anchor="end" x="59" y="4.199999999999999" transform="translate(0,438.71)" style="font-family: 'Open Sans', verdana, arial, sans-serif; font-size: 12px; fill: rgb(68, 68, 68); fill-opacity: 1; white-space: pre;">0</text></g><g class="ytick"><text text-anchor="end" x="59" y="4.199999999999999" transform="translate(0,391.19)" style="font-family: 'Open Sans', verdana, arial, sans-serif; font-size: 12px; fill: rgb(68, 68, 68); fill-opacity: 1; white-space: pre;">100</text></g><g class="ytick"><text text-anchor="end" x="59" y="4.199999999999999" transform="translate(0,343.66)" style="font-family: 'Open Sans', verdana, arial, sans-serif; font-size: 12px; fill: rgb(68, 68, 68); fill-opacity: 1; white-space: pre;">200</text></g><g class="ytick"><text text-anchor="end" x="59" y="4.199999999999999" transform="translate(0,296.14)" style="font-family: 'Open Sans', verdana, arial, sans-serif; font-size: 12px; fill: rgb(68, 68, 68); fill-opacity: 1; white-space: pre;">300</text></g><g class="ytick"><text text-anchor="end" x="59" y="4.199999999999999" transform="translate(0,248.62)" style="font-family: 'Open Sans', verdana, arial, sans-serif; font-size: 12px; fill: rgb(68, 68, 68); fill-opacity: 1; white-space: pre;">400</text></g><g class="ytick"><text text-anchor="end" x="59" y="4.199999999999999" transform="translate(0,201.09)" style="font-family: 'Open Sans', verdana, arial, sans-serif; font-size: 12px; fill: rgb(68, 68, 68); fill-opacity: 1; white-space: pre;">500</text></g><g class="ytick"><text text-anchor="end" x="59" y="4.199999999999999" transform="translate(0,153.57)" style="font-family: 'Open Sans', verdana, arial, sans-serif; font-size: 12px; fill: rgb(68, 68, 68); fill-opacity: 1; white-space: pre;">600</text></g><g class="ytick"><text text-anchor="end" x="59" y="4.199999999999999" transform="translate(0,106.04)" style="font-family: 'Open Sans', verdana, arial, sans-serif; font-size: 12px; fill: rgb(68, 68, 68); fill-opacity: 1; white-space: pre;">700</text></g><g class="ytick"><text text-anchor="end" x="59" y="4.199999999999999" transform="translate(0,58.52)" style="font-family: 'Open Sans', verdana, arial, sans-serif; font-size: 12px; fill: rgb(68, 68, 68); fill-opacity: 1; white-space: pre;">800</text></g></g><g class="overaxes-above"/></g></g><g class="polarlayer"/><g class="ternarylayer"/><g class="geolayer"/><g class="funnelarealayer"/><g class="pielayer"/><g class="treemaplayer"/><g class="sunburstlayer"/><g class="glimages"/><defs id="topdefs-26c562"><g class="clips"/><clipPath id="legend26c562"><rect width="117" height="140" x="0" y="0"/></clipPath></defs><g class="layer-above"><g class="imagelayer"/><g class="shapelayer"/></g><g class="infolayer"><g class="legend" pointer-events="all" transform="translate(90.95, 46.750000000000014)"><rect class="bg" shape-rendering="crispEdges" style="stroke: rgb(68, 68, 68); stroke-opacity: 1; fill: rgb(226, 226, 226); fill-opacity: 1; stroke-width: 0px;" width="117" height="140" x="0" y="0"/><g class="scrollbox" transform="translate(0, 0)" clip-path="url('#legend26c562')"><text class="legendtitletext user-select-none" text-anchor="start" x="2" y="15.600000000000001" style="font-family: 'Open Sans', verdana, arial, sans-serif; font-size: 12px; fill: rgb(68, 68, 68); fill-opacity: 1; white-space: pre;"><tspan style="font-weight:bold"> Identification Time </tspan></text><g class="groups"><g class="traces" transform="translate(0, 30.1)" style="opacity: 1;"><text class="legendtext user-select-none" text-anchor="start" x="40" y="4.680000000000001" style="font-family: 'Open Sans', verdana, arial, sans-serif; font-size: 12px; fill: rgb(68, 68, 68); fill-opacity: 1; white-space: pre;">0 Months</text><g class="layers" style="opacity: 1;"><g class="legendfill"/><g class="legendlines"><path class="js-line" d="M5,0h30" style="fill: none; stroke: rgb(31, 119, 180); stroke-opacity: 1; stroke-width: 2px;"/></g><g class="legendsymbols"><g class="legendpoints"/></g></g><rect class="legendtoggle" pointer-events="all" x="0" y="-9.5" width="98.046875" height="19" style="cursor: pointer; fill: rgb(0, 0, 0); fill-opacity: 0;"/></g><g class="traces" transform="translate(0, 49.1)" style="opacity: 1;"><text class="legendtext user-select-none" text-anchor="start" x="40" y="4.680000000000001" style="font-family: 'Open Sans', verdana, arial, sans-serif; font-size: 12px; fill: rgb(68, 68, 68); fill-opacity: 1; white-space: pre;">3 Months</text><g class="layers" style="opacity: 1;"><g class="legendfill"/><g class="legendlines"><path class="js-line" d="M5,0h30" style="fill: none; stroke: rgb(255, 127, 14); stroke-opacity: 1; stroke-width: 2px;"/></g><g class="legendsymbols"><g class="legendpoints"/></g></g><rect class="legendtoggle" pointer-events="all" x="0" y="-9.5" width="98.046875" height="19" style="cursor: pointer; fill: rgb(0, 0, 0); fill-opacity: 0;"/></g><g class="traces" transform="translate(0, 68.1)" style="opacity: 1;"><text class="legendtext user-select-none" text-anchor="start" x="40" y="4.680000000000001" style="font-family: 'Open Sans', verdana, arial, sans-serif; font-size: 12px; fill: rgb(68, 68, 68); fill-opacity: 1; white-space: pre;">6 Months</text><g class="layers" style="opacity: 1;"><g class="legendfill"/><g class="legendlines"><path class="js-line" d="M5,0h30" style="fill: none; stroke: rgb(44, 160, 44); stroke-opacity: 1; stroke-width: 2px;"/></g><g class="legendsymbols"><g class="legendpoints"/></g></g><rect class="legendtoggle" pointer-events="all" x="0" y="-9.5" width="98.046875" height="19" style="cursor: pointer; fill: rgb(0, 0, 0); fill-opacity: 0;"/></g><g class="traces" transform="translate(0, 87.1)" style="opacity: 1;"><text class="legendtext user-select-none" text-anchor="start" x="40" y="4.680000000000001" style="font-family: 'Open Sans', verdana, arial, sans-serif; font-size: 12px; fill: rgb(68, 68, 68); fill-opacity: 1; white-space: pre;">12 Months</text><g class="layers" style="opacity: 1;"><g class="legendfill"/><g class="legendlines"><path class="js-line" d="M5,0h30" style="fill: none; stroke: rgb(214, 39, 40); stroke-opacity: 1; stroke-width: 2px;"/></g><g class="legendsymbols"><g class="legendpoints"/></g></g><rect class="legendtoggle" pointer-events="all" x="0" y="-9.5" width="98.046875" height="19" style="cursor: pointer; fill: rgb(0, 0, 0); fill-opacity: 0;"/></g><g class="traces" transform="translate(0, 106.1)" style="opacity: 1;"><text class="legendtext user-select-none" text-anchor="start" x="40" y="4.680000000000001" style="font-family: 'Open Sans', verdana, arial, sans-serif; font-size: 12px; fill: rgb(68, 68, 68); fill-opacity: 1; white-space: pre;">24 Months</text><g class="layers" style="opacity: 1;"><g class="legendfill"/><g class="legendlines"><path class="js-line" d="M5,0h30" style="fill: none; stroke: rgb(148, 103, 189); stroke-opacity: 1; stroke-width: 2px;"/></g><g class="legendsymbols"><g class="legendpoints"/></g></g><rect class="legendtoggle" pointer-events="all" x="0" y="-9.5" width="98.046875" height="19" style="cursor: pointer; fill: rgb(0, 0, 0); fill-opacity: 0;"/></g><g class="traces" transform="translate(0, 125.1)" style="opacity: 1;"><text class="legendtext user-select-none" text-anchor="start" x="40" y="4.680000000000001" style="font-family: 'Open Sans', verdana, arial, sans-serif; font-size: 12px; fill: rgb(68, 68, 68); fill-opacity: 1; white-space: pre;">36 Months</text><g class="layers" style="opacity: 1;"><g class="legendfill"/><g class="legendlines"><path class="js-line" d="M5,0h30" style="fill: none; stroke: rgb(140, 86, 75); stroke-opacity: 1; stroke-width: 2px;"/></g><g class="legendsymbols"><g class="legendpoints"/></g></g><rect class="legendtoggle" pointer-events="all" x="0" y="-9.5" width="98.046875" height="19" style="cursor: pointer; fill: rgb(0, 0, 0); fill-opacity: 0;"/></g></g></g><rect class="scrollbar" rx="20" ry="3" width="0" height="0" style="fill: rgb(128, 139, 164); fill-opacity: 1;" x="0" y="0"/></g><g class="g-gtitle"><text class="gtitle" x="350" y="12.5" text-anchor="middle" dy="0em" style="font-family: 'Open Sans', verdana, arial, sans-serif; font-size: 17px; fill: rgb(68, 68, 68); opacity: 1; font-weight: normal; white-space: pre;"><tspan style="font-weight:bold"> Leprosy Prevalence PB - Immunity Vaccine 0.0, Treatment 95% </tspan></text></g><g class="g-xtitle" transform="translate(0,-15)"><text class="xtitle" x="369.5" y="512" text-anchor="middle" style="font-family: 'Open Sans', verdana, arial, sans-serif; font-size: 14px; fill: rgb(68, 68, 68); opacity: 1; font-weight: normal; white-space: pre;">Time(Years)</text></g><g class="g-ytitle"><text class="ytitle" transform="rotate(-90,22,242.5)" x="22" y="242.5" text-anchor="middle" style="font-family: 'Open Sans', verdana, arial, sans-serif; font-size: 14px; fill: rgb(68, 68, 68); opacity: 1; font-weight: normal; white-space: pre;">Number of infectiuos individuals</text></g></g></svg>