<svg class="main-svg" xmlns="http://www.w3.org/2000/svg" xmlns:xlink="http://www.w3.org/1999/xlink" width="700" height="500" style="" viewBox="0 0 700 500"><rect x="0" y="0" width="700" height="500" style="fill: rgb(255, 255, 255); fill-opacity: 1;"/><defs id="defs-8299ea"><g class="clips"><clipPath id="clip8299eaxyplot" class="plotclip"><rect width="619" height="435"/></clipPath><clipPath class="axesclip" id="clip8299eax"><rect x="60" y="0" width="619" height="500"/></clipPath><clipPath class="axesclip" id="clip8299eay"><rect x="0" y="25" width="700" height="435"/></clipPath><clipPath class="axesclip" id="clip8299eaxy"><rect x="60" y="25" width="619" height="435"/></clipPath></g><g class="gradients"/></defs><g class="bglayer"/><g class="layer-below"><g class="imagelayer"/><g class="shapelayer"/></g><g class="cartesianlayer"><g class="subplot xy"><g class="layer-subplot"><g class="shapelayer"/><g class="imagelayer"/></g><g class="gridlayer"><g class="x"><path class="xgrid crisp" transform="translate(212.42,0)" d="M0,25v435" style="stroke: rgb(238, 238, 238); stroke-opacity: 1; stroke-width: 1px;"/><path class="xgrid crisp" transform="translate(367.94,0)" d="M0,25v435" style="stroke: rgb(238, 238, 238); stroke-opacity: 1; stroke-width: 1px;"/><path class="xgrid crisp" transform="translate(523.47,0)" d="M0,25v435" style="stroke: rgb(238, 238, 238); stroke-opacity: 1; stroke-width: 1px;"/></g><g class="y"><path class="ygrid crisp" transform="translate(0,401.15)" d="M60,0h619" style="stroke: rgb(238, 238, 238); stroke-opacity: 1; stroke-width: 1px;"/><path class="ygrid crisp" transform="translate(0,352.25)" d="M60,0h619" style="stroke: rgb(238, 238, 238); stroke-opacity: 1; stroke-width: 1px;"/><path class="ygrid crisp" transform="translate(0,303.35)" d="M60,0h619" style="stroke: rgb(238, 238, 238); stroke-opacity: 1; stroke-width: 1px;"/><path class="ygrid crisp" transform="translate(0,254.45)" d="M60,0h619" style="stroke: rgb(238, 238, 238); stroke-opacity: 1; stroke-width: 1px;"/><path class="ygrid crisp" transform="translate(0,205.55)" d="M60,0h619" style="stroke: rgb(238, 238, 238); stroke-opacity: 1; stroke-width: 1px;"/><path class="ygrid crisp" transform="translate(0,156.66)" d="M60,0h619" style="stroke: rgb(238, 238, 238); stroke-opacity: 1; stroke-width: 1px;"/><path class="ygrid crisp" transform="translate(0,107.76)" d="M60,0h619" style="stroke: rgb(238, 238, 238); stroke-opacity: 1; stroke-width: 1px;"/><path class="ygrid crisp" transform="translate(0,58.86)" d="M60,0h619" style="stroke: rgb(238, 238, 238); stroke-opacity: 1; stroke-width: 1px;"/></g></g><g class="zerolinelayer"><path class="yzl zl crisp" transform="translate(0,450.05)" d="M60,0h619" style="stroke: rgb(68, 68, 68); stroke-opacity: 1; stroke-width: 1px;"/></g><path class="xlines-below"/><path class="ylines-below"/><g class="overlines-below"/><g class="xaxislayer-below"/><g class="yaxislayer-below"/><g class="overaxes-below"/><g class="plot" transform="translate(60, 25)" clip-path="url('#clip8299eaxyplot')"><g class="scatterlayer mlayer"><g class="trace scatter traced958df" style="stroke-miterlimit: 2; opacity: 1;"><g class="fills"/><g class="errorbars"/><g class="lines"><path class="js-line" d="M0,361.06L6.22,375.55L9.33,333.18L31.11,287.12L34.22,281.25L40.44,270.87L43.55,267.55L62.21,245.92L65.32,242.9L74.65,233.14L77.76,230.23L96.43,211.64L99.54,208.97L136.86,175.71L139.97,173.65L146.2,167.73L149.31,165.97L158.64,158.64L161.75,155.9L174.19,144.39L177.3,142.31L183.52,138.23L186.63,134.63L189.74,132.75L192.85,129.74L199.08,122.52L202.19,118.99L205.3,116.85L208.41,113.61L211.52,110.02L214.63,107.79L233.29,90.07L236.4,86.54L255.07,69.84L258.18,67.12L276.84,51.63L279.95,47.96L292.39,37.31L295.5,33.58L304.83,25.77L307.94,21.75L317.28,99.57L320.39,121.89L329.72,180.47L332.83,197.66L342.16,242.27L345.27,254.42L348.38,264.8L351.49,272.21L357.71,282.66L360.82,287.15L391.93,328.56L395.04,331.46L401.26,336.98L404.37,339.27L423.04,353.02L426.15,355.19L457.25,373.03L460.36,374.38L472.8,380.79L475.91,382.03L482.14,384.71L485.25,385.54L497.69,389.82L500.8,390.64L541.24,401.39L544.35,401.81L587.89,409.58L591.01,410.04L619,413.25" style="vector-effect: non-scaling-stroke; fill: none; stroke: rgb(31, 119, 180); stroke-opacity: 1; stroke-width: 2px; opacity: 1;"/></g><g class="points"/><g class="text"/></g><g class="trace scatter trace091de9" style="stroke-miterlimit: 2; opacity: 1;"><g class="fills"/><g class="errorbars"/><g class="lines"><path class="js-line" d="M0,361.06L6.22,375.55L9.33,333.18L31.11,287.12L34.22,281.25L40.44,270.87L43.55,267.55L62.21,245.92L65.32,242.9L74.65,233.14L77.76,230.23L96.43,211.64L99.54,208.97L136.86,175.71L139.97,173.65L146.2,167.73L149.31,165.97L158.64,158.64L161.75,155.9L174.19,144.39L177.3,142.31L183.52,138.23L186.63,134.63L189.74,132.75L192.85,129.74L199.08,122.52L202.19,118.99L205.3,116.85L208.41,113.61L211.52,110.02L214.63,107.79L233.29,90.07L236.4,86.54L255.07,69.84L258.18,67.12L276.84,51.63L279.95,47.96L292.39,37.31L295.5,33.58L304.83,25.77L307.94,21.75L323.5,138.8L326.61,158.21L335.94,209.4L339.05,224.16L345.27,250.84L348.38,261.07L354.6,274.6L357.71,279.58L388.82,321.45L391.93,324.75L398.15,330.77L401.26,333.06L410.59,341.39L413.7,343.97L438.59,360.67L441.7,362.66L451.03,367.93L454.14,369.58L472.8,378.62L475.91,379.28L488.36,384.63L491.47,385.96L503.91,390.18L507.02,390.99L541.24,399.76L544.35,400.35L563.01,404.11L566.12,404.54L594.12,408.89L597.23,409.12L609.67,410.77L612.78,411.01L619,411.64" style="vector-effect: non-scaling-stroke; fill: none; stroke: rgb(255, 127, 14); stroke-opacity: 1; stroke-width: 2px; opacity: 1;"/></g><g class="points"/><g class="text"/></g><g class="trace scatter tracebeeb94" style="stroke-miterlimit: 2; opacity: 1;"><g class="fills"/><g class="errorbars"/><g class="lines"><path class="js-line" d="M0,361.06L6.22,375.55L9.33,333.18L31.11,287.12L34.22,281.25L40.44,270.87L43.55,267.55L62.21,245.92L65.32,242.9L74.65,233.14L77.76,230.23L96.43,211.64L99.54,208.97L136.86,175.71L139.97,173.65L146.2,167.73L149.31,165.97L158.64,158.64L161.75,155.9L174.19,144.39L177.3,142.31L183.52,138.23L186.63,134.63L189.74,132.75L192.85,129.74L199.08,122.52L202.19,118.99L205.3,116.85L208.41,113.61L211.52,110.02L214.63,107.79L233.29,90.07L236.4,86.54L255.07,69.84L258.18,67.12L276.84,51.63L279.95,47.96L292.39,37.31L295.5,33.58L304.83,25.77L307.94,21.75L311.06,42.01L314.17,67.61L323.5,133.45L326.61,152.43L335.94,204.37L339.05,220.19L345.27,247.19L348.38,257.57L354.6,271.35L357.71,276.04L367.05,288.73L370.16,293.3L388.82,317.07L391.93,320.57L401.26,330.16L404.37,332.65L413.7,340.27L416.81,342.68L429.26,351.27L432.37,353.45L466.58,372.76L469.69,374.2L479.03,378.68L482.14,379.8L494.58,384.28L497.69,385.15L525.68,394.62L528.79,395.34L541.24,398.05L544.35,398.98L609.67,409.36L612.78,409.68L619,410.46" style="vector-effect: non-scaling-stroke; fill: none; stroke: rgb(44, 160, 44); stroke-opacity: 1; stroke-width: 2px; opacity: 1;"/></g><g class="points"/><g class="text"/></g><g class="trace scatter tracea3fd46" style="stroke-miterlimit: 2; opacity: 1;"><g class="fills"/><g class="errorbars"/><g class="lines"><path class="js-line" d="M0,361.06L6.22,375.55L9.33,333.18L31.11,287.12L34.22,281.25L40.44,270.87L43.55,267.55L62.21,245.92L65.32,242.9L74.65,233.14L77.76,230.23L96.43,211.64L99.54,208.97L136.86,175.71L139.97,173.65L146.2,167.73L149.31,165.97L158.64,158.64L161.75,155.9L174.19,144.39L177.3,142.31L183.52,138.23L186.63,134.63L189.74,132.75L192.85,129.74L199.08,122.52L202.19,118.99L205.3,116.85L208.41,113.61L211.52,110.02L214.63,107.79L233.29,90.07L236.4,86.54L255.07,69.84L258.18,67.12L276.84,51.63L279.95,47.96L292.39,37.31L295.5,33.58L304.83,25.77L307.94,21.75L311.06,34.54L314.17,60.59L320.39,106.63L323.5,127.32L332.83,181.71L335.94,197.58L345.27,240.11L348.38,252L354.6,265.39L357.71,270.79L376.38,294.72L379.49,299.55L395.04,318.74L398.15,322.2L404.37,327.75L407.48,329.9L410.59,332.93L413.7,334.85L426.15,344.72L429.26,346.31L435.48,350.86L438.59,352.67L451.03,360.1L454.14,361.63L457.25,363.91L460.36,365.06L482.14,374.69L485.25,375.9L507.02,384.34L510.13,385.38L528.79,390.97L531.9,391.69L572.34,400.8L575.45,401.32L591.01,403.96L594.12,404.28L609.67,406.54L612.78,406.84L619,407.67" style="vector-effect: non-scaling-stroke; fill: none; stroke: rgb(214, 39, 40); stroke-opacity: 1; stroke-width: 2px; opacity: 1;"/></g><g class="points"/><g class="text"/></g><g class="trace scatter trace6455a5" style="stroke-miterlimit: 2; opacity: 1;"><g class="fills"/><g class="errorbars"/><g class="lines"><path class="js-line" d="M0,361.06L6.22,375.55L9.33,333.18L31.11,287.12L34.22,281.25L40.44,270.87L43.55,267.55L62.21,245.92L65.32,242.9L74.65,233.14L77.76,230.23L96.43,211.64L99.54,208.97L136.86,175.71L139.97,173.65L146.2,167.73L149.31,165.97L158.64,158.64L161.75,155.9L174.19,144.39L177.3,142.31L183.52,138.23L186.63,134.63L189.74,132.75L192.85,129.74L199.08,122.52L202.19,118.99L205.3,116.85L208.41,113.61L211.52,110.02L214.63,107.79L233.29,90.07L236.4,86.54L255.07,69.84L258.18,67.12L276.84,51.63L279.95,47.96L292.39,37.31L295.5,33.58L304.83,25.77L307.94,21.75L311.06,26.47L314.17,44.69L323.5,109.53L326.61,129.03L339.05,197.02L342.16,211.32L348.38,237.55L351.49,246.67L357.71,257.81L360.82,261.78L367.05,269.13L370.16,272.13L379.49,283.74L382.6,287.4L395.04,304.05L398.15,306.82L410.59,318.05L413.7,320.21L429.26,332.2L432.37,334.8L454.14,348.68L457.25,350.29L472.8,357.96L475.91,359.77L494.58,368.97L497.69,370.2L510.13,375.9L513.24,376.76L528.79,382.39L531.9,383L575.45,394.53L578.56,395.13L600.34,399.97L603.45,400.59L619,403.04" style="vector-effect: non-scaling-stroke; fill: none; stroke: rgb(148, 103, 189); stroke-opacity: 1; stroke-width: 2px; opacity: 1;"/></g><g class="points"/><g class="text"/></g><g class="trace scatter trace6f7aa0" style="stroke-miterlimit: 2; opacity: 1;"><g class="fills"/><g class="errorbars"/><g class="lines"><path class="js-line" d="M0,361.06L6.22,375.55L9.33,333.18L31.11,287.12L34.22,281.25L40.44,270.87L43.55,267.55L62.21,245.92L65.32,242.9L74.65,233.14L77.76,230.23L96.43,211.64L99.54,208.97L136.86,175.71L139.97,173.65L146.2,167.73L149.31,165.97L158.64,158.64L161.75,155.9L174.19,144.39L177.3,142.31L183.52,138.23L186.63,134.63L189.74,132.75L192.85,129.74L199.08,122.52L202.19,118.99L205.3,116.85L208.41,113.61L211.52,110.02L214.63,107.79L233.29,90.07L236.4,86.54L255.07,69.84L258.18,67.12L276.84,51.63L279.95,47.96L292.39,37.31L295.5,33.58L304.83,25.77L307.94,21.75L311.06,24.01L314.17,34.5L323.5,94.31L326.61,114.02L335.94,165.69L339.05,181.01L348.38,222.14L351.49,232.73L354.6,240.62L357.71,245.19L363.93,251.35L367.05,255.63L385.71,278.88L388.82,282.51L404.37,300.22L407.48,302.14L432.37,321.44L435.48,323.32L460.36,340.82L463.47,342.47L475.91,349.51L479.03,351.18L485.25,354.3L488.36,356.4L535.02,375.03L538.13,375.78L578.56,386.31L581.67,386.91L619,395.23" style="vector-effect: non-scaling-stroke; fill: none; stroke: rgb(140, 86, 75); stroke-opacity: 1; stroke-width: 2px; opacity: 1;"/></g><g class="points"/><g class="text"/></g></g></g><g class="overplot"/><path class="xlines-above crisp" style="fill: none;" d="M0,0"/><path class="ylines-above crisp" style="fill: none;" d="M0,0"/><g class="overlines-above"/><g class="xaxislayer-above"><g class="xtick"><text text-anchor="middle" x="0" y="473" transform="translate(212.42,0)" style="font-family: 'Open Sans', verdana, arial, sans-serif; font-size: 12px; fill: rgb(68, 68, 68); fill-opacity: 1; white-space: pre;">50</text></g><g class="xtick"><text text-anchor="middle" x="0" y="473" transform="translate(367.94,0)" style="font-family: 'Open Sans', verdana, arial, sans-serif; font-size: 12px; fill: rgb(68, 68, 68); fill-opacity: 1; white-space: pre;">100</text></g><g class="xtick"><text text-anchor="middle" x="0" y="473" transform="translate(523.47,0)" style="font-family: 'Open Sans', verdana, arial, sans-serif; font-size: 12px; fill: rgb(68, 68, 68); fill-opacity: 1; white-space: pre;">150</text></g><g class="xtick"><text text-anchor="middle" x="0" y="473" transform="translate(679,0)" style="font-family: 'Open Sans', verdana, arial, sans-serif; font-size: 12px; fill: rgb(68, 68, 68); fill-opacity: 1; white-space: pre;">200</text></g></g><g class="yaxislayer-above"><g class="ytick"><text text-anchor="end" x="59" y="4.199999999999999" transform="translate(0,450.05)" style="font-family: 'Open Sans', verdana, arial, sans-serif; font-size: 12px; fill: rgb(68, 68, 68); fill-opacity: 1; white-space: pre;">0</text></g><g class="ytick"><text text-anchor="end" x="59" y="4.199999999999999" transform="translate(0,401.15)" style="font-family: 'Open Sans', verdana, arial, sans-serif; font-size: 12px; fill: rgb(68, 68, 68); fill-opacity: 1; white-space: pre;">100</text></g><g class="ytick"><text text-anchor="end" x="59" y="4.199999999999999" transform="translate(0,352.25)" style="font-family: 'Open Sans', verdana, arial, sans-serif; font-size: 12px; fill: rgb(68, 68, 68); fill-opacity: 1; white-space: pre;">200</text></g><g class="ytick"><text text-anchor="end" x="59" y="4.199999999999999" transform="translate(0,303.35)" style="font-family: 'Open Sans', verdana, arial, sans-serif; font-size: 12px; fill: rgb(68, 68, 68); fill-opacity: 1; white-space: pre;">300</text></g><g class="ytick"><text text-anchor="end" x="59" y="4.199999999999999" transform="translate(0,254.45)" style="font-family: 'Open Sans', verdana, arial, sans-serif; font-size: 12px; fill: rgb(68, 68, 68); fill-opacity: 1; white-space: pre;">400</text></g><g class="ytick"><text text-anchor="end" x="59" y="4.199999999999999" transform="translate(0,205.55)" style="font-family: 'Open Sans', verdana, arial, sans-serif; font-size: 12px; fill: rgb(68, 68, 68); fill-opacity: 1; white-space: pre;">500</text></g><g class="ytick"><text text-anchor="end" x="59" y="4.199999999999999" transform="translate(0,156.66)" style="font-family: 'Open Sans', verdana, arial, sans-serif; font-size: 12px; fill: rgb(68, 68, 68); fill-opacity: 1; white-space: pre;">600</text></g><g class="ytick"><text text-anchor="end" x="59" y="4.199999999999999" transform="translate(0,107.76)" style="font-family: 'Open Sans', verdana, arial, sans-serif; font-size: 12px; fill: rgb(68, 68, 68); fill-opacity: 1; white-space: pre;">700</text></g><g class="ytick"><text text-anchor="end" x="59" y="4.199999999999999" transform="translate(0,58.86)" style="font-family: 'Open Sans', verdana, arial, sans-serif; font-size: 12px; fill: rgb(68, 68, 68); fill-opacity: 1; white-space: pre;">800</text></g></g><g class="overaxes-above"/></g></g><g class="polarlayer"/><g class="ternarylayer"/><g class="geolayer"/><g class="funnelarealayer"/><g class="pielayer"/><g class="treemaplayer"/><g class="sunburstlayer"/><g class="glimages"/><defs id="topdefs-8299ea"><g class="clips"/><clipPath id="legend8299ea"><rect width="117" height="140" x="0" y="0"/></clipPath></defs><g class="layer-above"><g class="imagelayer"/><g class="shapelayer"/></g><g class="infolayer"><g class="legend" pointer-events="all" transform="translate(90.95, 46.750000000000014)"><rect class="bg" shape-rendering="crispEdges" style="stroke: rgb(68, 68, 68); stroke-opacity: 1; fill: rgb(226, 226, 226); fill-opacity: 1; stroke-width: 0px;" width="117" height="140" x="0" y="0"/><g class="scrollbox" transform="translate(0, 0)" clip-path="url('#legend8299ea')"><text class="legendtitletext user-select-none" text-anchor="start" x="2" y="15.600000000000001" style="font-family: 'Open Sans', verdana, arial, sans-serif; font-size: 12px; fill: rgb(68, 68, 68); fill-opacity: 1; white-space: pre;"><tspan style="font-weight:bold"> Identification Time </tspan></text><g class="groups"><g class="traces" transform="translate(0, 30.1)" style="opacity: 1;"><text class="legendtext user-select-none" text-anchor="start" x="40" y="4.680000000000001" style="font-family: 'Open Sans', verdana, arial, sans-serif; font-size: 12px; fill: rgb(68, 68, 68); fill-opacity: 1; white-space: pre;">0 Months</text><g class="layers" style="opacity: 1;"><g class="legendfill"/><g class="legendlines"><path class="js-line" d="M5,0h30" style="fill: none; stroke: rgb(31, 119, 180); stroke-opacity: 1; stroke-width: 2px;"/></g><g class="legendsymbols"><g class="legendpoints"/></g></g><rect class="legendtoggle" pointer-events="all" x="0" y="-9.5" width="98.046875" height="19" style="cursor: pointer; fill: rgb(0, 0, 0); fill-opacity: 0;"/></g><g class="traces" transform="translate(0, 49.1)" style="opacity: 1;"><text class="legendtext user-select-none" text-anchor="start" x="40" y="4.680000000000001" style="font-family: 'Open Sans', verdana, arial, sans-serif; font-size: 12px; fill: rgb(68, 68, 68); fill-opacity: 1; white-space: pre;">3 Months</text><g class="layers" style="opacity: 1;"><g class="legendfill"/><g class="legendlines"><path class="js-line" d="M5,0h30" style="fill: none; stroke: rgb(255, 127, 14); stroke-opacity: 1; stroke-width: 2px;"/></g><g class="legendsymbols"><g class="legendpoints"/></g></g><rect class="legendtoggle" pointer-events="all" x="0" y="-9.5" width="98.046875" height="19" style="cursor: pointer; fill: rgb(0, 0, 0); fill-opacity: 0;"/></g><g class="traces" transform="translate(0, 68.1)" style="opacity: 1;"><text class="legendtext user-select-none" text-anchor="start" x="40" y="4.680000000000001" style="font-family: 'Open Sans', verdana, arial, sans-serif; font-size: 12px; fill: rgb(68, 68, 68); fill-opacity: 1; white-space: pre;">6 Months</text><g class="layers" style="opacity: 1;"><g class="legendfill"/><g class="legendlines"><path class="js-line" d="M5,0h30" style="fill: none; stroke: rgb(44, 160, 44); stroke-opacity: 1; stroke-width: 2px;"/></g><g class="legendsymbols"><g class="legendpoints"/></g></g><rect class="legendtoggle" pointer-events="all" x="0" y="-9.5" width="98.046875" height="19" style="cursor: pointer; fill: rgb(0, 0, 0); fill-opacity: 0;"/></g><g class="traces" transform="translate(0, 87.1)" style="opacity: 1;"><text class="legendtext user-select-none" text-anchor="start" x="40" y="4.680000000000001" style="font-family: 'Open Sans', verdana, arial, sans-serif; font-size: 12px; fill: rgb(68, 68, 68); fill-opacity: 1; white-space: pre;">12 Months</text><g class="layers" style="opacity: 1;"><g class="legendfill"/><g class="legendlines"><path class="js-line" d="M5,0h30" style="fill: none; stroke: rgb(214, 39, 40); stroke-opacity: 1; stroke-width: 2px;"/></g><g class="legendsymbols"><g class="legendpoints"/></g></g><rect class="legendtoggle" pointer-events="all" x="0" y="-9.5" width="98.046875" height="19" style="cursor: pointer; fill: rgb(0, 0, 0); fill-opacity: 0;"/></g><g class="traces" transform="translate(0, 106.1)" style="opacity: 1;"><text class="legendtext user-select-none" text-anchor="start" x="40" y="4.680000000000001" style="font-family: 'Open Sans', verdana, arial, sans-serif; font-size: 12px; fill: rgb(68, 68, 68); fill-opacity: 1; white-space: pre;">24 Months</text><g class="layers" style="opacity: 1;"><g class="legendfill"/><g class="legendlines"><path class="js-line" d="M5,0h30" style="fill: none; stroke: rgb(148, 103, 189); stroke-opacity: 1; stroke-width: 2px;"/></g><g class="legendsymbols"><g class="legendpoints"/></g></g><rect class="legendtoggle" pointer-events="all" x="0" y="-9.5" width="98.046875" height="19" style="cursor: pointer; fill: rgb(0, 0, 0); fill-opacity: 0;"/></g><g class="traces" transform="translate(0, 125.1)" style="opacity: 1;"><text class="legendtext user-select-none" text-anchor="start" x="40" y="4.680000000000001" style="font-family: 'Open Sans', verdana, arial, sans-serif; font-size: 12px; fill: rgb(68, 68, 68); fill-opacity: 1; white-space: pre;">36 Months</text><g class="layers" style="opacity: 1;"><g class="legendfill"/><g class="legendlines"><path class="js-line" d="M5,0h30" style="fill: none; stroke: rgb(140, 86, 75); stroke-opacity: 1; stroke-width: 2px;"/></g><g class="legendsymbols"><g class="legendpoints"/></g></g><rect class="legendtoggle" pointer-events="all" x="0" y="-9.5" width="98.046875" height="19" style="cursor: pointer; fill: rgb(0, 0, 0); fill-opacity: 0;"/></g></g></g><rect class="scrollbar" rx="20" ry="3" width="0" height="0" style="fill: rgb(128, 139, 164); fill-opacity: 1;" x="0" y="0"/></g><g class="g-gtitle"><text class="gtitle" x="350" y="12.5" text-anchor="middle" dy="0em" style="font-family: 'Open Sans', verdana, arial, sans-serif; font-size: 17px; fill: rgb(68, 68, 68); opacity: 1; font-weight: normal; white-space: pre;"><tspan style="font-weight:bold"> Leprosy Prevalence PB - Immunity Vaccine 0.0, Treatment 50% </tspan></text></g><g class="g-xtitle" transform="translate(0,-15)"><text class="xtitle" x="369.5" y="512" text-anchor="middle" style="font-family: 'Open Sans', verdana, arial, sans-serif; font-size: 14px; fill: rgb(68, 68, 68); opacity: 1; font-weight: normal; white-space: pre;">Time(Years)</text></g><g class="g-ytitle"><text class="ytitle" transform="rotate(-90,22,242.5)" x="22" y="242.5" text-anchor="middle" style="font-family: 'Open Sans', verdana, arial, sans-serif; font-size: 14px; fill: rgb(68, 68, 68); opacity: 1; font-weight: normal; white-space: pre;">Number of infectiuos individuals</text></g></g></svg>