<svg class="main-svg" xmlns="http://www.w3.org/2000/svg" xmlns:xlink="http://www.w3.org/1999/xlink" width="700" height="500" style="" viewBox="0 0 700 500"><rect x="0" y="0" width="700" height="500" style="fill: rgb(255, 255, 255); fill-opacity: 1;"/><defs id="defs-c714af"><g class="clips"><clipPath id="clipc714afxyplot" class="plotclip"><rect width="619" height="435"/></clipPath><clipPath class="axesclip" id="clipc714afx"><rect x="60" y="0" width="619" height="500"/></clipPath><clipPath class="axesclip" id="clipc714afy"><rect x="0" y="25" width="700" height="435"/></clipPath><clipPath class="axesclip" id="clipc714afxy"><rect x="60" y="25" width="619" height="435"/></clipPath></g><g class="gradients"/></defs><g class="bglayer"/><g class="layer-below"><g class="imagelayer"/><g class="shapelayer"/></g><g class="cartesianlayer"><g class="subplot xy"><g class="layer-subplot"><g class="shapelayer"/><g class="imagelayer"/></g><g class="gridlayer"><g class="x"><path class="xgrid crisp" transform="translate(212.42,0)" d="M0,25v435" style="stroke: rgb(238, 238, 238); stroke-opacity: 1; stroke-width: 1px;"/><path class="xgrid crisp" transform="translate(367.94,0)" d="M0,25v435" style="stroke: rgb(238, 238, 238); stroke-opacity: 1; stroke-width: 1px;"/><path class="xgrid crisp" transform="translate(523.47,0)" d="M0,25v435" style="stroke: rgb(238, 238, 238); stroke-opacity: 1; stroke-width: 1px;"/></g><g class="y"><path class="ygrid crisp" transform="translate(0,392.56)" d="M60,0h619" style="stroke: rgb(238, 238, 238); stroke-opacity: 1; stroke-width: 1px;"/><path class="ygrid crisp" transform="translate(0,344.85)" d="M60,0h619" style="stroke: rgb(238, 238, 238); stroke-opacity: 1; stroke-width: 1px;"/><path class="ygrid crisp" transform="translate(0,297.14)" d="M60,0h619" style="stroke: rgb(238, 238, 238); stroke-opacity: 1; stroke-width: 1px;"/><path class="ygrid crisp" transform="translate(0,249.42)" d="M60,0h619" style="stroke: rgb(238, 238, 238); stroke-opacity: 1; stroke-width: 1px;"/><path class="ygrid crisp" transform="translate(0,201.71)" d="M60,0h619" style="stroke: rgb(238, 238, 238); stroke-opacity: 1; stroke-width: 1px;"/><path class="ygrid crisp" transform="translate(0,153.99)" d="M60,0h619" style="stroke: rgb(238, 238, 238); stroke-opacity: 1; stroke-width: 1px;"/><path class="ygrid crisp" transform="translate(0,106.28)" d="M60,0h619" style="stroke: rgb(238, 238, 238); stroke-opacity: 1; stroke-width: 1px;"/><path class="ygrid crisp" transform="translate(0,58.56)" d="M60,0h619" style="stroke: rgb(238, 238, 238); stroke-opacity: 1; stroke-width: 1px;"/></g></g><g class="zerolinelayer"><path class="yzl zl crisp" transform="translate(0,440.28)" d="M60,0h619" style="stroke: rgb(68, 68, 68); stroke-opacity: 1; stroke-width: 1px;"/></g><path class="xlines-below"/><path class="ylines-below"/><g class="overlines-below"/><g class="xaxislayer-below"/><g class="yaxislayer-below"/><g class="overaxes-below"/><g class="plot" transform="translate(60, 25)" clip-path="url('#clipc714afxyplot')"><g class="scatterlayer mlayer"><g class="trace scatter trace3d1472" style="stroke-miterlimit: 2; opacity: 1;"><g class="fills"/><g class="errorbars"/><g class="lines"><path class="js-line" d="M0,352.84L6.22,366.98L9.33,325.63L31.11,280.69L34.22,274.97L40.44,264.84L43.55,261.6L62.21,240.48L65.32,237.54L74.65,228.02L77.76,225.18L96.43,207.04L99.54,204.44L136.86,171.98L139.97,169.97L146.2,164.2L149.31,162.47L158.64,155.33L161.75,152.65L174.19,141.42L177.3,139.39L183.52,135.41L186.63,131.89L189.74,130.06L192.85,127.12L199.08,120.08L202.19,116.64L205.3,114.54L208.41,111.38L211.52,107.89L214.63,105.71L258.18,66.02L261.29,63.64L267.51,58.14L270.62,56.29L304.83,25.67L307.94,21.75L317.28,96.56L320.39,117.98L329.72,180.06L332.83,198.58L342.16,247.97L345.27,262.03L348.38,273.87L351.49,282.41L357.71,295.43L360.82,300.79L376.38,325.79L379.49,330.54L385.71,340.49L388.82,344.76L398.15,355.01L401.26,358.06L413.7,368.67L416.81,371.14L438.59,385.48L441.7,387.07L454.14,392.44L457.25,393.47L479.03,400.54L482.14,401.47L497.69,404.65L500.8,405.22L522.57,408.4L525.68,408.65L566.12,411.7L569.23,411.75L600.34,412.82L603.45,412.93L619,413.14" style="vector-effect: non-scaling-stroke; fill: none; stroke: rgb(31, 119, 180); stroke-opacity: 1; stroke-width: 2px; opacity: 1;"/></g><g class="points"/><g class="text"/></g><g class="trace scatter traceeb5295" style="stroke-miterlimit: 2; opacity: 1;"><g class="fills"/><g class="errorbars"/><g class="lines"><path class="js-line" d="M0,352.84L6.22,366.98L9.33,325.63L31.11,280.69L34.22,274.97L40.44,264.84L43.55,261.6L62.21,240.48L65.32,237.54L74.65,228.02L77.76,225.18L96.43,207.04L99.54,204.44L136.86,171.98L139.97,169.97L146.2,164.2L149.31,162.47L158.64,155.33L161.75,152.65L174.19,141.42L177.3,139.39L183.52,135.41L186.63,131.89L189.74,130.06L192.85,127.12L199.08,120.08L202.19,116.64L205.3,114.54L208.41,111.38L211.52,107.89L214.63,105.71L258.18,66.02L261.29,63.64L267.51,58.14L270.62,56.29L304.83,25.67L307.94,21.75L320.39,115.01L323.5,136.2L332.83,195.84L335.94,213.46L345.27,260.5L348.38,271.76L354.6,288.06L357.71,293.99L376.38,325.34L379.49,330.5L388.82,344.31L391.93,348.11L404.37,360.31L407.48,362.46L419.92,371.97L423.04,374.32L435.48,382.4L438.59,383.92L460.36,393.42L463.47,394.57L485.25,401.52L488.36,402.29L503.91,405.4L507.02,405.8L541.24,409.81L544.35,409.96L569.23,411.61L572.34,411.69L619,413.25" style="vector-effect: non-scaling-stroke; fill: none; stroke: rgb(255, 127, 14); stroke-opacity: 1; stroke-width: 2px; opacity: 1;"/></g><g class="points"/><g class="text"/></g><g class="trace scatter trace1957c1" style="stroke-miterlimit: 2; opacity: 1;"><g class="fills"/><g class="errorbars"/><g class="lines"><path class="js-line" d="M0,352.84L6.22,366.98L9.33,325.63L31.11,280.69L34.22,274.97L40.44,264.84L43.55,261.6L62.21,240.48L65.32,237.54L74.65,228.02L77.76,225.18L96.43,207.04L99.54,204.44L136.86,171.98L139.97,169.97L146.2,164.2L149.31,162.47L158.64,155.33L161.75,152.65L174.19,141.42L177.3,139.39L183.52,135.41L186.63,131.89L189.74,130.06L192.85,127.12L199.08,120.08L202.19,116.64L205.3,114.54L208.41,111.38L211.52,107.89L214.63,105.71L258.18,66.02L261.29,63.64L267.51,58.14L270.62,56.29L304.83,25.67L307.94,21.75L311.06,41.52L314.17,66.75L326.61,154.57L329.72,174.09L339.05,226.41L342.16,242.39L348.38,269.71L351.49,278.28L360.82,297.69L363.93,303.05L382.6,332.39L385.71,336.84L391.93,345.69L395.04,348.66L404.37,357.8L407.48,360.28L429.26,377.13L432.37,378.9L444.81,386.11L447.92,387.64L460.36,393.19L463.47,394.29L485.25,400.7L488.36,401.34L500.8,404.2L503.91,404.65L528.79,408.08L531.9,408.39L547.46,409.9L550.57,410.09L581.67,411.94L584.78,412.03L619,413.13" style="vector-effect: non-scaling-stroke; fill: none; stroke: rgb(44, 160, 44); stroke-opacity: 1; stroke-width: 2px; opacity: 1;"/></g><g class="points"/><g class="text"/></g><g class="trace scatter trace4916b1" style="stroke-miterlimit: 2; opacity: 1;"><g class="fills"/><g class="errorbars"/><g class="lines"><path class="js-line" d="M0,352.84L6.22,366.98L9.33,325.63L31.11,280.69L34.22,274.97L40.44,264.84L43.55,261.6L62.21,240.48L65.32,237.54L74.65,228.02L77.76,225.18L96.43,207.04L99.54,204.44L136.86,171.98L139.97,169.97L146.2,164.2L149.31,162.47L158.64,155.33L161.75,152.65L174.19,141.42L177.3,139.39L183.52,135.41L186.63,131.89L189.74,130.06L192.85,127.12L199.08,120.08L202.19,116.64L205.3,114.54L208.41,111.38L211.52,107.89L214.63,105.71L258.18,66.02L261.29,63.64L267.51,58.14L270.62,56.29L304.83,25.67L307.94,21.75L311.06,34.23L314.17,59.7L326.61,147.87L329.72,167.35L339.05,221.03L342.16,237.24L348.38,264.39L351.49,273.84L360.82,292.2L363.93,297.41L379.49,322.92L382.6,327.53L395.04,344.61L398.15,347.98L404.37,354.24L407.48,356.66L416.81,364.98L419.92,367.37L435.48,378.65L438.59,380.72L451.03,387.71L454.14,388.88L463.47,392.53L466.58,393.69L479.03,397.99L482.14,398.76L503.91,403.93L507.02,404.7L544.35,409.48L547.46,409.66L619,412.97" style="vector-effect: non-scaling-stroke; fill: none; stroke: rgb(214, 39, 40); stroke-opacity: 1; stroke-width: 2px; opacity: 1;"/></g><g class="points"/><g class="text"/></g><g class="trace scatter trace32864a" style="stroke-miterlimit: 2; opacity: 1;"><g class="fills"/><g class="errorbars"/><g class="lines"><path class="js-line" d="M0,352.84L6.22,366.98L9.33,325.63L31.11,280.69L34.22,274.97L40.44,264.84L43.55,261.6L62.21,240.48L65.32,237.54L74.65,228.02L77.76,225.18L96.43,207.04L99.54,204.44L136.86,171.98L139.97,169.97L146.2,164.2L149.31,162.47L158.64,155.33L161.75,152.65L174.19,141.42L177.3,139.39L183.52,135.41L186.63,131.89L189.74,130.06L192.85,127.12L199.08,120.08L202.19,116.64L205.3,114.54L208.41,111.38L211.52,107.89L214.63,105.71L258.18,66.02L261.29,63.64L267.51,58.14L270.62,56.29L304.83,25.67L307.94,21.75L311.06,26.36L314.17,43.25L329.72,152.06L332.83,171.7L342.16,224.09L345.27,239.38L348.38,253.45L351.49,263.84L357.71,277.55L360.82,282.82L373.27,304.18L376.38,309.91L391.93,333.92L395.04,338.01L404.37,348.67L407.48,351.67L416.81,360.39L419.92,362.61L438.59,376.67L441.7,378.72L447.92,382.75L451.03,384.3L463.47,389.97L466.58,391.06L485.25,397.84L488.36,398.6L516.35,404.48L519.46,405.04L544.35,408.21L547.46,408.38L563.01,409.94L566.12,410.01L609.67,412.29L612.78,412.42L619,412.54" style="vector-effect: non-scaling-stroke; fill: none; stroke: rgb(148, 103, 189); stroke-opacity: 1; stroke-width: 2px; opacity: 1;"/></g><g class="points"/><g class="text"/></g><g class="trace scatter trace99830c" style="stroke-miterlimit: 2; opacity: 1;"><g class="fills"/><g class="errorbars"/><g class="lines"><path class="js-line" d="M0,352.84L6.22,366.98L9.33,325.63L31.11,280.69L34.22,274.97L40.44,264.84L43.55,261.6L62.21,240.48L65.32,237.54L74.65,228.02L77.76,225.18L96.43,207.04L99.54,204.44L136.86,171.98L139.97,169.97L146.2,164.2L149.31,162.47L158.64,155.33L161.75,152.65L174.19,141.42L177.3,139.39L183.52,135.41L186.63,131.89L189.74,130.06L192.85,127.12L199.08,120.08L202.19,116.64L205.3,114.54L208.41,111.38L211.52,107.89L214.63,105.71L258.18,66.02L261.29,63.64L267.51,58.14L270.62,56.29L304.83,25.67L307.94,21.75L311.06,23.96L314.17,35L320.39,74.06L323.5,96.63L332.83,159.62L335.94,178.21L348.38,243.45L351.49,255.08L354.6,264.25L357.71,270.7L376.38,301.01L379.49,306.77L391.93,327.57L395.04,331.6L401.26,339.97L404.37,343.66L413.7,352.82L416.81,355.11L429.26,365.57L432.37,367.83L444.81,377.04L447.92,378.94L457.25,384L460.36,385.26L475.91,392.06L479.03,393.11L491.47,397.16L494.58,397.94L503.91,400.57L507.02,401.28L535.02,405.63L538.13,406L563.01,408.81L566.12,409.21L619,411.91" style="vector-effect: non-scaling-stroke; fill: none; stroke: rgb(140, 86, 75); stroke-opacity: 1; stroke-width: 2px; opacity: 1;"/></g><g class="points"/><g class="text"/></g></g></g><g class="overplot"/><path class="xlines-above crisp" style="fill: none;" d="M0,0"/><path class="ylines-above crisp" style="fill: none;" d="M0,0"/><g class="overlines-above"/><g class="xaxislayer-above"><g class="xtick"><text text-anchor="middle" x="0" y="473" transform="translate(212.42,0)" style="font-family: 'Open Sans', verdana, arial, sans-serif; font-size: 12px; fill: rgb(68, 68, 68); fill-opacity: 1; white-space: pre;">50</text></g><g class="xtick"><text text-anchor="middle" x="0" y="473" transform="translate(367.94,0)" style="font-family: 'Open Sans', verdana, arial, sans-serif; font-size: 12px; fill: rgb(68, 68, 68); fill-opacity: 1; white-space: pre;">100</text></g><g class="xtick"><text text-anchor="middle" x="0" y="473" transform="translate(523.47,0)" style="font-family: 'Open Sans', verdana, arial, sans-serif; font-size: 12px; fill: rgb(68, 68, 68); fill-opacity: 1; white-space: pre;">150</text></g><g class="xtick"><text text-anchor="middle" x="0" y="473" transform="translate(679,0)" style="font-family: 'Open Sans', verdana, arial, sans-serif; font-size: 12px; fill: rgb(68, 68, 68); fill-opacity: 1; white-space: pre;">200</text></g></g><g class="yaxislayer-above"><g class="ytick"><text text-anchor="end" x="59" y="4.199999999999999" transform="translate(0,440.28)" style="font-family: 'Open Sans', verdana, arial, sans-serif; font-size: 12px; fill: rgb(68, 68, 68); fill-opacity: 1; white-space: pre;">0</text></g><g class="ytick"><text text-anchor="end" x="59" y="4.199999999999999" transform="translate(0,392.56)" style="font-family: 'Open Sans', verdana, arial, sans-serif; font-size: 12px; fill: rgb(68, 68, 68); fill-opacity: 1; white-space: pre;">100</text></g><g class="ytick"><text text-anchor="end" x="59" y="4.199999999999999" transform="translate(0,344.85)" style="font-family: 'Open Sans', verdana, arial, sans-serif; font-size: 12px; fill: rgb(68, 68, 68); fill-opacity: 1; white-space: pre;">200</text></g><g class="ytick"><text text-anchor="end" x="59" y="4.199999999999999" transform="translate(0,297.14)" style="font-family: 'Open Sans', verdana, arial, sans-serif; font-size: 12px; fill: rgb(68, 68, 68); fill-opacity: 1; white-space: pre;">300</text></g><g class="ytick"><text text-anchor="end" x="59" y="4.199999999999999" transform="translate(0,249.42)" style="font-family: 'Open Sans', verdana, arial, sans-serif; font-size: 12px; fill: rgb(68, 68, 68); fill-opacity: 1; white-space: pre;">400</text></g><g class="ytick"><text text-anchor="end" x="59" y="4.199999999999999" transform="translate(0,201.71)" style="font-family: 'Open Sans', verdana, arial, sans-serif; font-size: 12px; fill: rgb(68, 68, 68); fill-opacity: 1; white-space: pre;">500</text></g><g class="ytick"><text text-anchor="end" x="59" y="4.199999999999999" transform="translate(0,153.99)" style="font-family: 'Open Sans', verdana, arial, sans-serif; font-size: 12px; fill: rgb(68, 68, 68); fill-opacity: 1; white-space: pre;">600</text></g><g class="ytick"><text text-anchor="end" x="59" y="4.199999999999999" transform="translate(0,106.28)" style="font-family: 'Open Sans', verdana, arial, sans-serif; font-size: 12px; fill: rgb(68, 68, 68); fill-opacity: 1; white-space: pre;">700</text></g><g class="ytick"><text text-anchor="end" x="59" y="4.199999999999999" transform="translate(0,58.56)" style="font-family: 'Open Sans', verdana, arial, sans-serif; font-size: 12px; fill: rgb(68, 68, 68); fill-opacity: 1; white-space: pre;">800</text></g></g><g class="overaxes-above"/></g></g><g class="polarlayer"/><g class="ternarylayer"/><g class="geolayer"/><g class="funnelarealayer"/><g class="pielayer"/><g class="treemaplayer"/><g class="sunburstlayer"/><g class="glimages"/><defs id="topdefs-c714af"><g class="clips"/><clipPath id="legendc714af"><rect width="117" height="140" x="0" y="0"/></clipPath></defs><g class="layer-above"><g class="imagelayer"/><g class="shapelayer"/></g><g class="infolayer"><g class="legend" pointer-events="all" transform="translate(90.95, 46.750000000000014)"><rect class="bg" shape-rendering="crispEdges" style="stroke: rgb(68, 68, 68); stroke-opacity: 1; fill: rgb(226, 226, 226); fill-opacity: 1; stroke-width: 0px;" width="117" height="140" x="0" y="0"/><g class="scrollbox" transform="translate(0, 0)" clip-path="url('#legendc714af')"><text class="legendtitletext user-select-none" text-anchor="start" x="2" y="15.600000000000001" style="font-family: 'Open Sans', verdana, arial, sans-serif; font-size: 12px; fill: rgb(68, 68, 68); fill-opacity: 1; white-space: pre;"><tspan style="font-weight:bold"> Identification Time </tspan></text><g class="groups"><g class="traces" transform="translate(0, 30.1)" style="opacity: 1;"><text class="legendtext user-select-none" text-anchor="start" x="40" y="4.680000000000001" style="font-family: 'Open Sans', verdana, arial, sans-serif; font-size: 12px; fill: rgb(68, 68, 68); fill-opacity: 1; white-space: pre;">0 Months</text><g class="layers" style="opacity: 1;"><g class="legendfill"/><g class="legendlines"><path class="js-line" d="M5,0h30" style="fill: none; stroke: rgb(31, 119, 180); stroke-opacity: 1; stroke-width: 2px;"/></g><g class="legendsymbols"><g class="legendpoints"/></g></g><rect class="legendtoggle" pointer-events="all" x="0" y="-9.5" width="98.046875" height="19" style="cursor: pointer; fill: rgb(0, 0, 0); fill-opacity: 0;"/></g><g class="traces" transform="translate(0, 49.1)" style="opacity: 1;"><text class="legendtext user-select-none" text-anchor="start" x="40" y="4.680000000000001" style="font-family: 'Open Sans', verdana, arial, sans-serif; font-size: 12px; fill: rgb(68, 68, 68); fill-opacity: 1; white-space: pre;">3 Months</text><g class="layers" style="opacity: 1;"><g class="legendfill"/><g class="legendlines"><path class="js-line" d="M5,0h30" style="fill: none; stroke: rgb(255, 127, 14); stroke-opacity: 1; stroke-width: 2px;"/></g><g class="legendsymbols"><g class="legendpoints"/></g></g><rect class="legendtoggle" pointer-events="all" x="0" y="-9.5" width="98.046875" height="19" style="cursor: pointer; fill: rgb(0, 0, 0); fill-opacity: 0;"/></g><g class="traces" transform="translate(0, 68.1)" style="opacity: 1;"><text class="legendtext user-select-none" text-anchor="start" x="40" y="4.680000000000001" style="font-family: 'Open Sans', verdana, arial, sans-serif; font-size: 12px; fill: rgb(68, 68, 68); fill-opacity: 1; white-space: pre;">6 Months</text><g class="layers" style="opacity: 1;"><g class="legendfill"/><g class="legendlines"><path class="js-line" d="M5,0h30" style="fill: none; stroke: rgb(44, 160, 44); stroke-opacity: 1; stroke-width: 2px;"/></g><g class="legendsymbols"><g class="legendpoints"/></g></g><rect class="legendtoggle" pointer-events="all" x="0" y="-9.5" width="98.046875" height="19" style="cursor: pointer; fill: rgb(0, 0, 0); fill-opacity: 0;"/></g><g class="traces" transform="translate(0, 87.1)" style="opacity: 1;"><text class="legendtext user-select-none" text-anchor="start" x="40" y="4.680000000000001" style="font-family: 'Open Sans', verdana, arial, sans-serif; font-size: 12px; fill: rgb(68, 68, 68); fill-opacity: 1; white-space: pre;">12 Months</text><g class="layers" style="opacity: 1;"><g class="legendfill"/><g class="legendlines"><path class="js-line" d="M5,0h30" style="fill: none; stroke: rgb(214, 39, 40); stroke-opacity: 1; stroke-width: 2px;"/></g><g class="legendsymbols"><g class="legendpoints"/></g></g><rect class="legendtoggle" pointer-events="all" x="0" y="-9.5" width="98.046875" height="19" style="cursor: pointer; fill: rgb(0, 0, 0); fill-opacity: 0;"/></g><g class="traces" transform="translate(0, 106.1)" style="opacity: 1;"><text class="legendtext user-select-none" text-anchor="start" x="40" y="4.680000000000001" style="font-family: 'Open Sans', verdana, arial, sans-serif; font-size: 12px; fill: rgb(68, 68, 68); fill-opacity: 1; white-space: pre;">24 Months</text><g class="layers" style="opacity: 1;"><g class="legendfill"/><g class="legendlines"><path class="js-line" d="M5,0h30" style="fill: none; stroke: rgb(148, 103, 189); stroke-opacity: 1; stroke-width: 2px;"/></g><g class="legendsymbols"><g class="legendpoints"/></g></g><rect class="legendtoggle" pointer-events="all" x="0" y="-9.5" width="98.046875" height="19" style="cursor: pointer; fill: rgb(0, 0, 0); fill-opacity: 0;"/></g><g class="traces" transform="translate(0, 125.1)" style="opacity: 1;"><text class="legendtext user-select-none" text-anchor="start" x="40" y="4.680000000000001" style="font-family: 'Open Sans', verdana, arial, sans-serif; font-size: 12px; fill: rgb(68, 68, 68); fill-opacity: 1; white-space: pre;">36 Months</text><g class="layers" style="opacity: 1;"><g class="legendfill"/><g class="legendlines"><path class="js-line" d="M5,0h30" style="fill: none; stroke: rgb(140, 86, 75); stroke-opacity: 1; stroke-width: 2px;"/></g><g class="legendsymbols"><g class="legendpoints"/></g></g><rect class="legendtoggle" pointer-events="all" x="0" y="-9.5" width="98.046875" height="19" style="cursor: pointer; fill: rgb(0, 0, 0); fill-opacity: 0;"/></g></g></g><rect class="scrollbar" rx="20" ry="3" width="0" height="0" style="fill: rgb(128, 139, 164); fill-opacity: 1;" x="0" y="0"/></g><g class="g-gtitle"><text class="gtitle" x="350" y="12.5" text-anchor="middle" dy="0em" style="font-family: 'Open Sans', verdana, arial, sans-serif; font-size: 17px; fill: rgb(68, 68, 68); opacity: 1; font-weight: normal; white-space: pre;"><tspan style="font-weight:bold"> Leprosy Prevalence PB - Immunity Vaccine 0.5, Treatment 50% </tspan></text></g><g class="g-xtitle" transform="translate(0,-15)"><text class="xtitle" x="369.5" y="512" text-anchor="middle" style="font-family: 'Open Sans', verdana, arial, sans-serif; font-size: 14px; fill: rgb(68, 68, 68); opacity: 1; font-weight: normal; white-space: pre;">Time(Years)</text></g><g class="g-ytitle"><text class="ytitle" transform="rotate(-90,22,242.5)" x="22" y="242.5" text-anchor="middle" style="font-family: 'Open Sans', verdana, arial, sans-serif; font-size: 14px; fill: rgb(68, 68, 68); opacity: 1; font-weight: normal; white-space: pre;">Number of infectiuos individuals</text></g></g></svg>