<svg class="main-svg" xmlns="http://www.w3.org/2000/svg" xmlns:xlink="http://www.w3.org/1999/xlink" width="700" height="500" style="" viewBox="0 0 700 500"><rect x="0" y="0" width="700" height="500" style="fill: rgb(255, 255, 255); fill-opacity: 1;"/><defs id="defs-1a8111"><g class="clips"><clipPath id="clip1a8111xyplot" class="plotclip"><rect width="619" height="435"/></clipPath><clipPath class="axesclip" id="clip1a8111x"><rect x="60" y="0" width="619" height="500"/></clipPath><clipPath class="axesclip" id="clip1a8111y"><rect x="0" y="25" width="700" height="435"/></clipPath><clipPath class="axesclip" id="clip1a8111xy"><rect x="60" y="25" width="619" height="435"/></clipPath></g><g class="gradients"/></defs><g class="bglayer"/><g class="layer-below"><g class="imagelayer"/><g class="shapelayer"/></g><g class="cartesianlayer"><g class="subplot xy"><g class="layer-subplot"><g class="shapelayer"/><g class="imagelayer"/></g><g class="gridlayer"><g class="x"><path class="xgrid crisp" transform="translate(212.42,0)" d="M0,25v435" style="stroke: rgb(238, 238, 238); stroke-opacity: 1; stroke-width: 1px;"/><path class="xgrid crisp" transform="translate(367.94,0)" d="M0,25v435" style="stroke: rgb(238, 238, 238); stroke-opacity: 1; stroke-width: 1px;"/><path class="xgrid crisp" transform="translate(523.47,0)" d="M0,25v435" style="stroke: rgb(238, 238, 238); stroke-opacity: 1; stroke-width: 1px;"/></g><g class="y"><path class="ygrid crisp" transform="translate(0,391.46)" d="M60,0h619" style="stroke: rgb(238, 238, 238); stroke-opacity: 1; stroke-width: 1px;"/><path class="ygrid crisp" transform="translate(0,343.9)" d="M60,0h619" style="stroke: rgb(238, 238, 238); stroke-opacity: 1; stroke-width: 1px;"/><path class="ygrid crisp" transform="translate(0,296.34)" d="M60,0h619" style="stroke: rgb(238, 238, 238); stroke-opacity: 1; stroke-width: 1px;"/><path class="ygrid crisp" transform="translate(0,248.77)" d="M60,0h619" style="stroke: rgb(238, 238, 238); stroke-opacity: 1; stroke-width: 1px;"/><path class="ygrid crisp" transform="translate(0,201.21)" d="M60,0h619" style="stroke: rgb(238, 238, 238); stroke-opacity: 1; stroke-width: 1px;"/><path class="ygrid crisp" transform="translate(0,153.65)" d="M60,0h619" style="stroke: rgb(238, 238, 238); stroke-opacity: 1; stroke-width: 1px;"/><path class="ygrid crisp" transform="translate(0,106.09)" d="M60,0h619" style="stroke: rgb(238, 238, 238); stroke-opacity: 1; stroke-width: 1px;"/><path class="ygrid crisp" transform="translate(0,58.53)" d="M60,0h619" style="stroke: rgb(238, 238, 238); stroke-opacity: 1; stroke-width: 1px;"/></g></g><g class="zerolinelayer"><path class="yzl zl crisp" transform="translate(0,439.02)" d="M60,0h619" style="stroke: rgb(68, 68, 68); stroke-opacity: 1; stroke-width: 1px;"/></g><path class="xlines-below"/><path class="ylines-below"/><g class="overlines-below"/><g class="xaxislayer-below"/><g class="yaxislayer-below"/><g class="overaxes-below"/><g class="plot" transform="translate(60, 25)" clip-path="url('#clip1a8111xyplot')"><g class="scatterlayer mlayer"><g class="trace scatter trace54a181" style="stroke-miterlimit: 2; opacity: 1;"><g class="fills"/><g class="errorbars"/><g class="lines"><path class="js-line" d="M0,351.79L6.22,365.88L9.33,324.66L31.11,279.86L34.22,274.16L40.44,264.06L43.55,260.83L62.21,239.79L65.32,236.85L74.65,227.36L77.76,224.53L96.43,206.45L99.54,203.85L136.86,171.5L139.97,169.5L146.2,163.74L149.31,162.02L158.64,154.9L161.75,152.23L174.19,141.04L177.3,139.02L183.52,135.04L186.63,131.54L189.74,129.71L192.85,126.79L199.08,119.77L202.19,116.33L205.3,114.25L208.41,111.1L211.52,107.61L214.63,105.44L258.18,65.88L261.29,63.51L267.51,58.03L270.62,56.18L304.83,25.66L307.94,21.75L314.17,100.58L317.28,133.55L323.5,190.78L326.61,214.85L332.83,257.29L335.94,275.49L342.16,306L345.27,319L348.38,329.05L351.49,336.35L357.71,347.33L360.82,352.09L373.27,368.09L376.38,371.82L385.71,381.48L388.82,383.98L398.15,389.27L401.26,390.68L429.26,400.98L432.37,401.9L457.25,406.93L460.36,407.39L479.03,409.54L482.14,409.86L516.35,411.89L519.46,412.01L566.12,412.95L569.23,412.96L619,413.25" style="vector-effect: non-scaling-stroke; fill: none; stroke: rgb(31, 119, 180); stroke-opacity: 1; stroke-width: 2px; opacity: 1;"/></g><g class="points"/><g class="text"/></g><g class="trace scatter trace5886d8" style="stroke-miterlimit: 2; opacity: 1;"><g class="fills"/><g class="errorbars"/><g class="lines"><path class="js-line" d="M0,351.79L6.22,365.88L9.33,324.66L31.11,279.86L34.22,274.16L40.44,264.06L43.55,260.83L62.21,239.79L65.32,236.85L74.65,227.36L77.76,224.53L96.43,206.45L99.54,203.85L136.86,171.5L139.97,169.5L146.2,163.74L149.31,162.02L158.64,154.9L161.75,152.23L174.19,141.04L177.3,139.02L183.52,135.04L186.63,131.54L189.74,129.71L192.85,126.79L199.08,119.77L202.19,116.33L205.3,114.25L208.41,111.1L211.52,107.61L214.63,105.44L258.18,65.88L261.29,63.51L267.51,58.03L270.62,56.18L304.83,25.66L307.94,21.75L317.28,129.55L320.39,159.56L326.61,212.68L329.72,234.69L335.94,273.72L339.05,289.62L345.27,317.47L348.38,327.38L354.6,340.61L357.71,345.39L367.05,358.45L370.16,362.59L379.49,374.21L382.6,377.45L388.82,382.82L391.93,385.02L398.15,388.35L401.26,389.59L419.92,396.72L423.04,397.84L432.37,400.98L435.48,401.69L447.92,404.52L451.03,405.12L469.69,407.98L472.8,408.4L500.8,410.85L503.91,411.02L525.68,412.02L528.79,412.13L603.45,413.14L606.56,413.13L619,413.19" style="vector-effect: non-scaling-stroke; fill: none; stroke: rgb(255, 127, 14); stroke-opacity: 1; stroke-width: 2px; opacity: 1;"/></g><g class="points"/><g class="text"/></g><g class="trace scatter tracedeb408" style="stroke-miterlimit: 2; opacity: 1;"><g class="fills"/><g class="errorbars"/><g class="lines"><path class="js-line" d="M0,351.79L6.22,365.88L9.33,324.66L31.11,279.86L34.22,274.16L40.44,264.06L43.55,260.83L62.21,239.79L65.32,236.85L74.65,227.36L77.76,224.53L96.43,206.45L99.54,203.85L136.86,171.5L139.97,169.5L146.2,163.74L149.31,162.02L158.64,154.9L161.75,152.23L174.19,141.04L177.3,139.02L183.52,135.04L186.63,131.54L189.74,129.71L192.85,126.79L199.08,119.77L202.19,116.33L205.3,114.25L208.41,111.1L211.52,107.61L214.63,105.44L258.18,65.88L261.29,63.51L267.51,58.03L270.62,56.18L304.83,25.66L307.94,21.75L314.17,90.16L317.28,123.25L326.61,207.52L329.72,230.74L335.94,270.44L339.05,287.22L345.27,315.17L348.38,325.01L354.6,337.64L357.71,342.47L370.16,359.85L373.27,364.19L388.82,380.8L391.93,383.16L401.26,388.13L404.37,389.35L432.37,400.23L435.48,401.27L466.58,407.22L469.69,407.54L503.91,410.72L507.02,410.95L528.79,411.93L531.9,412.06L575.45,412.89L578.56,412.9L619,413.18" style="vector-effect: non-scaling-stroke; fill: none; stroke: rgb(44, 160, 44); stroke-opacity: 1; stroke-width: 2px; opacity: 1;"/></g><g class="points"/><g class="text"/></g><g class="trace scatter tracedeaeaa" style="stroke-miterlimit: 2; opacity: 1;"><g class="fills"/><g class="errorbars"/><g class="lines"><path class="js-line" d="M0,351.79L6.22,365.88L9.33,324.66L31.11,279.86L34.22,274.16L40.44,264.06L43.55,260.83L62.21,239.79L65.32,236.85L74.65,227.36L77.76,224.53L96.43,206.45L99.54,203.85L136.86,171.5L139.97,169.5L146.2,163.74L149.31,162.02L158.64,154.9L161.75,152.23L174.19,141.04L177.3,139.02L183.52,135.04L186.63,131.54L189.74,129.71L192.85,126.79L199.08,119.77L202.19,116.33L205.3,114.25L208.41,111.1L211.52,107.61L214.63,105.44L258.18,65.88L261.29,63.51L267.51,58.03L270.62,56.18L304.83,25.66L307.94,21.75L311.06,41.01L314.17,79.05L323.5,174.75L326.61,200.73L332.83,246.25L335.94,265.46L342.16,298.2L345.27,311.47L348.38,322.56L351.49,328.9L357.71,337.91L360.82,342.56L367.05,351.35L370.16,355.72L385.71,374.97L388.82,378.32L398.15,384.6L401.26,385.87L438.59,400.68L441.7,401.63L479.03,407.92L482.14,408.32L497.69,409.82L500.8,410.04L522.57,411.27L525.68,411.4L581.67,412.77L584.78,412.77L619,413.1" style="vector-effect: non-scaling-stroke; fill: none; stroke: rgb(214, 39, 40); stroke-opacity: 1; stroke-width: 2px; opacity: 1;"/></g><g class="points"/><g class="text"/></g><g class="trace scatter traced1adb0" style="stroke-miterlimit: 2; opacity: 1;"><g class="fills"/><g class="errorbars"/><g class="lines"><path class="js-line" d="M0,351.79L6.22,365.88L9.33,324.66L31.11,279.86L34.22,274.16L40.44,264.06L43.55,260.83L62.21,239.79L65.32,236.85L74.65,227.36L77.76,224.53L96.43,206.45L99.54,203.85L136.86,171.5L139.97,169.5L146.2,163.74L149.31,162.02L158.64,154.9L161.75,152.23L174.19,141.04L177.3,139.02L183.52,135.04L186.63,131.54L189.74,129.71L192.85,126.79L199.08,119.77L202.19,116.33L205.3,114.25L208.41,111.1L211.52,107.61L214.63,105.44L258.18,65.88L261.29,63.51L267.51,58.03L270.62,56.18L304.83,25.66L307.94,21.75L311.06,30.37L314.17,57.31L323.5,155.24L326.61,183.5L332.83,231.38L335.94,252.11L342.16,287.08L345.27,301.74L348.38,313.9L351.49,322.03L357.71,329.23L360.82,332.4L367.05,340.3L370.16,345.12L385.71,367.56L388.82,371.52L391.93,374.83L395.04,376.86L401.26,380.34L404.37,381.42L413.7,385.31L416.81,386.43L432.37,394.58L435.48,395.89L447.92,399.85L451.03,400.57L463.47,403.52L466.58,403.99L482.14,406.81L485.25,407.13L497.69,408.45L500.8,408.68L513.24,409.75L516.35,409.98L559.9,412L563.01,412.12L603.45,412.73L606.56,412.79L619,412.93" style="vector-effect: non-scaling-stroke; fill: none; stroke: rgb(148, 103, 189); stroke-opacity: 1; stroke-width: 2px; opacity: 1;"/></g><g class="points"/><g class="text"/></g><g class="trace scatter tracee73db0" style="stroke-miterlimit: 2; opacity: 1;"><g class="fills"/><g class="errorbars"/><g class="lines"><path class="js-line" d="M0,351.79L6.22,365.88L9.33,324.66L31.11,279.86L34.22,274.16L40.44,264.06L43.55,260.83L62.21,239.79L65.32,236.85L74.65,227.36L77.76,224.53L96.43,206.45L99.54,203.85L136.86,171.5L139.97,169.5L146.2,163.74L149.31,162.02L158.64,154.9L161.75,152.23L174.19,141.04L177.3,139.02L183.52,135.04L186.63,131.54L189.74,129.71L192.85,126.79L199.08,119.77L202.19,116.33L205.3,114.25L208.41,111.1L211.52,107.61L214.63,105.44L258.18,65.88L261.29,63.51L267.51,58.03L270.62,56.18L304.83,25.66L307.94,21.75L311.06,26.17L314.17,44.09L320.39,101.97L323.5,134.26L329.72,190.78L332.83,214.79L339.05,256.48L342.16,273.88L348.38,304.1L351.49,314.03L354.6,319.34L357.71,322.7L367.05,331.18L370.16,334.92L391.93,366.9L395.04,369.9L401.26,375.18L404.37,377.02L410.59,379.98L413.7,381.2L419.92,383.56L423.04,385.36L441.7,394.5L444.81,395.67L460.36,400.14L463.47,400.83L475.91,403.76L479.03,404.17L513.24,408.58L516.35,408.86L556.79,411.32L559.9,411.34L587.89,412.19L591.01,412.26L619,412.63" style="vector-effect: non-scaling-stroke; fill: none; stroke: rgb(140, 86, 75); stroke-opacity: 1; stroke-width: 2px; opacity: 1;"/></g><g class="points"/><g class="text"/></g></g></g><g class="overplot"/><path class="xlines-above crisp" style="fill: none;" d="M0,0"/><path class="ylines-above crisp" style="fill: none;" d="M0,0"/><g class="overlines-above"/><g class="xaxislayer-above"><g class="xtick"><text text-anchor="middle" x="0" y="473" transform="translate(212.42,0)" style="font-family: 'Open Sans', verdana, arial, sans-serif; font-size: 12px; fill: rgb(68, 68, 68); fill-opacity: 1; white-space: pre;">50</text></g><g class="xtick"><text text-anchor="middle" x="0" y="473" transform="translate(367.94,0)" style="font-family: 'Open Sans', verdana, arial, sans-serif; font-size: 12px; fill: rgb(68, 68, 68); fill-opacity: 1; white-space: pre;">100</text></g><g class="xtick"><text text-anchor="middle" x="0" y="473" transform="translate(523.47,0)" style="font-family: 'Open Sans', verdana, arial, sans-serif; font-size: 12px; fill: rgb(68, 68, 68); fill-opacity: 1; white-space: pre;">150</text></g><g class="xtick"><text text-anchor="middle" x="0" y="473" transform="translate(679,0)" style="font-family: 'Open Sans', verdana, arial, sans-serif; font-size: 12px; fill: rgb(68, 68, 68); fill-opacity: 1; white-space: pre;">200</text></g></g><g class="yaxislayer-above"><g class="ytick"><text text-anchor="end" x="59" y="4.199999999999999" transform="translate(0,439.02)" style="font-family: 'Open Sans', verdana, arial, sans-serif; font-size: 12px; fill: rgb(68, 68, 68); fill-opacity: 1; white-space: pre;">0</text></g><g class="ytick"><text text-anchor="end" x="59" y="4.199999999999999" transform="translate(0,391.46)" style="font-family: 'Open Sans', verdana, arial, sans-serif; font-size: 12px; fill: rgb(68, 68, 68); fill-opacity: 1; white-space: pre;">100</text></g><g class="ytick"><text text-anchor="end" x="59" y="4.199999999999999" transform="translate(0,343.9)" style="font-family: 'Open Sans', verdana, arial, sans-serif; font-size: 12px; fill: rgb(68, 68, 68); fill-opacity: 1; white-space: pre;">200</text></g><g class="ytick"><text text-anchor="end" x="59" y="4.199999999999999" transform="translate(0,296.34)" style="font-family: 'Open Sans', verdana, arial, sans-serif; font-size: 12px; fill: rgb(68, 68, 68); fill-opacity: 1; white-space: pre;">300</text></g><g class="ytick"><text text-anchor="end" x="59" y="4.199999999999999" transform="translate(0,248.77)" style="font-family: 'Open Sans', verdana, arial, sans-serif; font-size: 12px; fill: rgb(68, 68, 68); fill-opacity: 1; white-space: pre;">400</text></g><g class="ytick"><text text-anchor="end" x="59" y="4.199999999999999" transform="translate(0,201.21)" style="font-family: 'Open Sans', verdana, arial, sans-serif; font-size: 12px; fill: rgb(68, 68, 68); fill-opacity: 1; white-space: pre;">500</text></g><g class="ytick"><text text-anchor="end" x="59" y="4.199999999999999" transform="translate(0,153.65)" style="font-family: 'Open Sans', verdana, arial, sans-serif; font-size: 12px; fill: rgb(68, 68, 68); fill-opacity: 1; white-space: pre;">600</text></g><g class="ytick"><text text-anchor="end" x="59" y="4.199999999999999" transform="translate(0,106.09)" style="font-family: 'Open Sans', verdana, arial, sans-serif; font-size: 12px; fill: rgb(68, 68, 68); fill-opacity: 1; white-space: pre;">700</text></g><g class="ytick"><text text-anchor="end" x="59" y="4.199999999999999" transform="translate(0,58.53)" style="font-family: 'Open Sans', verdana, arial, sans-serif; font-size: 12px; fill: rgb(68, 68, 68); fill-opacity: 1; white-space: pre;">800</text></g></g><g class="overaxes-above"/></g></g><g class="polarlayer"/><g class="ternarylayer"/><g class="geolayer"/><g class="funnelarealayer"/><g class="pielayer"/><g class="treemaplayer"/><g class="sunburstlayer"/><g class="glimages"/><defs id="topdefs-1a8111"><g class="clips"/><clipPath id="legend1a8111"><rect width="117" height="140" x="0" y="0"/></clipPath></defs><g class="layer-above"><g class="imagelayer"/><g class="shapelayer"/></g><g class="infolayer"><g class="legend" pointer-events="all" transform="translate(90.95, 46.750000000000014)"><rect class="bg" shape-rendering="crispEdges" style="stroke: rgb(68, 68, 68); stroke-opacity: 1; fill: rgb(226, 226, 226); fill-opacity: 1; stroke-width: 0px;" width="117" height="140" x="0" y="0"/><g class="scrollbox" transform="translate(0, 0)" clip-path="url('#legend1a8111')"><text class="legendtitletext user-select-none" text-anchor="start" x="2" y="15.600000000000001" style="font-family: 'Open Sans', verdana, arial, sans-serif; font-size: 12px; fill: rgb(68, 68, 68); fill-opacity: 1; white-space: pre;"><tspan style="font-weight:bold"> Identification Time </tspan></text><g class="groups"><g class="traces" transform="translate(0, 30.1)" style="opacity: 1;"><text class="legendtext user-select-none" text-anchor="start" x="40" y="4.680000000000001" style="font-family: 'Open Sans', verdana, arial, sans-serif; font-size: 12px; fill: rgb(68, 68, 68); fill-opacity: 1; white-space: pre;">0 Months</text><g class="layers" style="opacity: 1;"><g class="legendfill"/><g class="legendlines"><path class="js-line" d="M5,0h30" style="fill: none; stroke: rgb(31, 119, 180); stroke-opacity: 1; stroke-width: 2px;"/></g><g class="legendsymbols"><g class="legendpoints"/></g></g><rect class="legendtoggle" pointer-events="all" x="0" y="-9.5" width="98.046875" height="19" style="cursor: pointer; fill: rgb(0, 0, 0); fill-opacity: 0;"/></g><g class="traces" transform="translate(0, 49.1)" style="opacity: 1;"><text class="legendtext user-select-none" text-anchor="start" x="40" y="4.680000000000001" style="font-family: 'Open Sans', verdana, arial, sans-serif; font-size: 12px; fill: rgb(68, 68, 68); fill-opacity: 1; white-space: pre;">3 Months</text><g class="layers" style="opacity: 1;"><g class="legendfill"/><g class="legendlines"><path class="js-line" d="M5,0h30" style="fill: none; stroke: rgb(255, 127, 14); stroke-opacity: 1; stroke-width: 2px;"/></g><g class="legendsymbols"><g class="legendpoints"/></g></g><rect class="legendtoggle" pointer-events="all" x="0" y="-9.5" width="98.046875" height="19" style="cursor: pointer; fill: rgb(0, 0, 0); fill-opacity: 0;"/></g><g class="traces" transform="translate(0, 68.1)" style="opacity: 1;"><text class="legendtext user-select-none" text-anchor="start" x="40" y="4.680000000000001" style="font-family: 'Open Sans', verdana, arial, sans-serif; font-size: 12px; fill: rgb(68, 68, 68); fill-opacity: 1; white-space: pre;">6 Months</text><g class="layers" style="opacity: 1;"><g class="legendfill"/><g class="legendlines"><path class="js-line" d="M5,0h30" style="fill: none; stroke: rgb(44, 160, 44); stroke-opacity: 1; stroke-width: 2px;"/></g><g class="legendsymbols"><g class="legendpoints"/></g></g><rect class="legendtoggle" pointer-events="all" x="0" y="-9.5" width="98.046875" height="19" style="cursor: pointer; fill: rgb(0, 0, 0); fill-opacity: 0;"/></g><g class="traces" transform="translate(0, 87.1)" style="opacity: 1;"><text class="legendtext user-select-none" text-anchor="start" x="40" y="4.680000000000001" style="font-family: 'Open Sans', verdana, arial, sans-serif; font-size: 12px; fill: rgb(68, 68, 68); fill-opacity: 1; white-space: pre;">12 Months</text><g class="layers" style="opacity: 1;"><g class="legendfill"/><g class="legendlines"><path class="js-line" d="M5,0h30" style="fill: none; stroke: rgb(214, 39, 40); stroke-opacity: 1; stroke-width: 2px;"/></g><g class="legendsymbols"><g class="legendpoints"/></g></g><rect class="legendtoggle" pointer-events="all" x="0" y="-9.5" width="98.046875" height="19" style="cursor: pointer; fill: rgb(0, 0, 0); fill-opacity: 0;"/></g><g class="traces" transform="translate(0, 106.1)" style="opacity: 1;"><text class="legendtext user-select-none" text-anchor="start" x="40" y="4.680000000000001" style="font-family: 'Open Sans', verdana, arial, sans-serif; font-size: 12px; fill: rgb(68, 68, 68); fill-opacity: 1; white-space: pre;">24 Months</text><g class="layers" style="opacity: 1;"><g class="legendfill"/><g class="legendlines"><path class="js-line" d="M5,0h30" style="fill: none; stroke: rgb(148, 103, 189); stroke-opacity: 1; stroke-width: 2px;"/></g><g class="legendsymbols"><g class="legendpoints"/></g></g><rect class="legendtoggle" pointer-events="all" x="0" y="-9.5" width="98.046875" height="19" style="cursor: pointer; fill: rgb(0, 0, 0); fill-opacity: 0;"/></g><g class="traces" transform="translate(0, 125.1)" style="opacity: 1;"><text class="legendtext user-select-none" text-anchor="start" x="40" y="4.680000000000001" style="font-family: 'Open Sans', verdana, arial, sans-serif; font-size: 12px; fill: rgb(68, 68, 68); fill-opacity: 1; white-space: pre;">36 Months</text><g class="layers" style="opacity: 1;"><g class="legendfill"/><g class="legendlines"><path class="js-line" d="M5,0h30" style="fill: none; stroke: rgb(140, 86, 75); stroke-opacity: 1; stroke-width: 2px;"/></g><g class="legendsymbols"><g class="legendpoints"/></g></g><rect class="legendtoggle" pointer-events="all" x="0" y="-9.5" width="98.046875" height="19" style="cursor: pointer; fill: rgb(0, 0, 0); fill-opacity: 0;"/></g></g></g><rect class="scrollbar" rx="20" ry="3" width="0" height="0" style="fill: rgb(128, 139, 164); fill-opacity: 1;" x="0" y="0"/></g><g class="g-gtitle"><text class="gtitle" x="350" y="12.5" text-anchor="middle" dy="0em" style="font-family: 'Open Sans', verdana, arial, sans-serif; font-size: 17px; fill: rgb(68, 68, 68); opacity: 1; font-weight: normal; white-space: pre;"><tspan style="font-weight:bold"> Leprosy Prevalence PB - Immunity Vaccine 0.99, Treatment 75% </tspan></text></g><g class="g-xtitle" transform="translate(0,-15)"><text class="xtitle" x="369.5" y="512" text-anchor="middle" style="font-family: 'Open Sans', verdana, arial, sans-serif; font-size: 14px; fill: rgb(68, 68, 68); opacity: 1; font-weight: normal; white-space: pre;">Time(Years)</text></g><g class="g-ytitle"><text class="ytitle" transform="rotate(-90,22,242.5)" x="22" y="242.5" text-anchor="middle" style="font-family: 'Open Sans', verdana, arial, sans-serif; font-size: 14px; fill: rgb(68, 68, 68); opacity: 1; font-weight: normal; white-space: pre;">Number of infectiuos individuals</text></g></g></svg>