<svg class="main-svg" xmlns="http://www.w3.org/2000/svg" xmlns:xlink="http://www.w3.org/1999/xlink" width="700" height="500" style="" viewBox="0 0 700 500"><rect x="0" y="0" width="700" height="500" style="fill: rgb(255, 255, 255); fill-opacity: 1;"/><defs id="defs-edc594"><g class="clips"><clipPath id="clipedc594xyplot" class="plotclip"><rect width="619" height="435"/></clipPath><clipPath class="axesclip" id="clipedc594x"><rect x="60" y="0" width="619" height="500"/></clipPath><clipPath class="axesclip" id="clipedc594y"><rect x="0" y="25" width="700" height="435"/></clipPath><clipPath class="axesclip" id="clipedc594xy"><rect x="60" y="25" width="619" height="435"/></clipPath></g><g class="gradients"/></defs><g class="bglayer"/><g class="layer-below"><g class="imagelayer"/><g class="shapelayer"/></g><g class="cartesianlayer"><g class="subplot xy"><g class="layer-subplot"><g class="shapelayer"/><g class="imagelayer"/></g><g class="gridlayer"><g class="x"><path class="xgrid crisp" transform="translate(212.42,0)" d="M0,25v435" style="stroke: rgb(238, 238, 238); stroke-opacity: 1; stroke-width: 1px;"/><path class="xgrid crisp" transform="translate(367.94,0)" d="M0,25v435" style="stroke: rgb(238, 238, 238); stroke-opacity: 1; stroke-width: 1px;"/><path class="xgrid crisp" transform="translate(523.47,0)" d="M0,25v435" style="stroke: rgb(238, 238, 238); stroke-opacity: 1; stroke-width: 1px;"/></g><g class="y"><path class="ygrid crisp" transform="translate(0,438.91)" d="M60,0h619" style="stroke: rgb(238, 238, 238); stroke-opacity: 1; stroke-width: 1px;"/><path class="ygrid crisp" transform="translate(0,384.87)" d="M60,0h619" style="stroke: rgb(238, 238, 238); stroke-opacity: 1; stroke-width: 1px;"/><path class="ygrid crisp" transform="translate(0,330.83)" d="M60,0h619" style="stroke: rgb(238, 238, 238); stroke-opacity: 1; stroke-width: 1px;"/><path class="ygrid crisp" transform="translate(0,276.8)" d="M60,0h619" style="stroke: rgb(238, 238, 238); stroke-opacity: 1; stroke-width: 1px;"/><path class="ygrid crisp" transform="translate(0,222.76)" d="M60,0h619" style="stroke: rgb(238, 238, 238); stroke-opacity: 1; stroke-width: 1px;"/><path class="ygrid crisp" transform="translate(0,168.72)" d="M60,0h619" style="stroke: rgb(238, 238, 238); stroke-opacity: 1; stroke-width: 1px;"/><path class="ygrid crisp" transform="translate(0,114.68)" d="M60,0h619" style="stroke: rgb(238, 238, 238); stroke-opacity: 1; stroke-width: 1px;"/><path class="ygrid crisp" transform="translate(0,60.64)" d="M60,0h619" style="stroke: rgb(238, 238, 238); stroke-opacity: 1; stroke-width: 1px;"/></g></g><g class="zerolinelayer"/><path class="xlines-below"/><path class="ylines-below"/><g class="overlines-below"/><g class="xaxislayer-below"/><g class="yaxislayer-below"/><g class="overaxes-below"/><g class="plot" transform="translate(60, 25)" clip-path="url('#clipedc594xyplot')"><g class="scatterlayer mlayer"><g class="trace scatter traced15c83" style="stroke-miterlimit: 2; opacity: 1;"><g class="fills"/><g class="errorbars"/><g class="lines"><path class="js-line" d="M0,397.24L6.22,413.25L9.33,366.42L31.11,315.52L34.22,309.04L40.44,297.57L43.55,293.9L62.21,269.99L65.32,266.65L74.65,255.87L77.76,252.65L96.43,232.11L99.54,229.16L136.86,192.4L139.97,190.13L146.2,183.59L149.31,181.63L158.64,173.54L161.75,170.51L174.19,157.8L177.3,155.5L183.52,150.98L186.63,147L189.74,144.92L192.85,141.6L199.08,133.62L202.19,129.72L205.3,127.36L208.41,123.77L211.52,119.81L214.63,117.35L233.29,97.76L236.4,93.86L255.07,75.41L258.18,72.4L261.29,69.71L264.4,66.02L273.73,58.21L276.84,55.28L283.06,48.24L286.17,45.32L292.39,39.45L295.5,35.34L304.83,26.7L307.94,22.26L314.17,50.57L317.28,63.48L329.72,112.07L332.83,122.61L345.27,163.78L348.38,172.17L354.6,183.59L357.71,186.88L367.05,198.28L370.16,201.35L379.49,210.49L382.6,214.48L398.15,231.14L401.26,233.4L410.59,241.22L413.7,244.42L416.81,246.56L419.92,249.82L435.48,261.64L438.59,264.31L454.14,276.19L457.25,278.68L469.69,287.44L472.8,288.73L475.91,291.15L479.03,292.57L485.25,296.39L488.36,298.77L494.58,303.05L497.69,304.25L503.91,308.19L507.02,309.69L516.35,315.39L519.46,316.61L525.68,319.43L528.79,321.15L538.13,326.94L541.24,328.26L544.35,329.49L547.46,331.62L556.79,335.54L559.9,337.37L569.23,341.95L572.34,342.94L587.89,348.85L591.01,350.31L612.78,359.2L615.89,359.94L619,361.09" style="vector-effect: non-scaling-stroke; fill: none; stroke: rgb(31, 119, 180); stroke-opacity: 1; stroke-width: 2px; opacity: 1;"/></g><g class="points"/><g class="text"/></g><g class="trace scatter trace0ad883" style="stroke-miterlimit: 2; opacity: 1;"><g class="fills"/><g class="errorbars"/><g class="lines"><path class="js-line" d="M0,397.24L6.22,413.25L9.33,366.42L31.11,315.52L34.22,309.04L40.44,297.57L43.55,293.9L62.21,269.99L65.32,266.65L74.65,255.87L77.76,252.65L96.43,232.11L99.54,229.16L136.86,192.4L139.97,190.13L146.2,183.59L149.31,181.63L158.64,173.54L161.75,170.51L174.19,157.8L177.3,155.5L183.52,150.98L186.63,147L189.74,144.92L192.85,141.6L199.08,133.62L202.19,129.72L205.3,127.36L208.41,123.77L211.52,119.81L214.63,117.35L233.29,97.76L236.4,93.86L255.07,75.41L258.18,72.4L261.29,69.71L264.4,66.02L273.73,58.21L276.84,55.28L283.06,48.24L286.17,45.32L292.39,39.45L295.5,35.34L304.83,26.7L307.94,22.26L342.16,148L345.27,157.86L351.49,172.48L354.6,177.37L391.93,220.16L395.04,222.64L404.37,231.39L407.48,233.75L413.7,238.95L416.81,241.45L444.81,264.36L447.92,266.07L469.69,280.13L472.8,283.11L491.47,293.61L494.58,295.87L503.91,300.74L507.02,302.59L522.57,309.14L525.68,311.52L538.13,318.25L541.24,319.46L575.45,336.3L578.56,337.39L612.78,351.1L615.89,353.2L619,354.05" style="vector-effect: non-scaling-stroke; fill: none; stroke: rgb(255, 127, 14); stroke-opacity: 1; stroke-width: 2px; opacity: 1;"/></g><g class="points"/><g class="text"/></g><g class="trace scatter trace35c9bf" style="stroke-miterlimit: 2; opacity: 1;"><g class="fills"/><g class="errorbars"/><g class="lines"><path class="js-line" d="M0,397.24L6.22,413.25L9.33,366.42L31.11,315.52L34.22,309.04L40.44,297.57L43.55,293.9L62.21,269.99L65.32,266.65L74.65,255.87L77.76,252.65L96.43,232.11L99.54,229.16L136.86,192.4L139.97,190.13L146.2,183.59L149.31,181.63L158.64,173.54L161.75,170.51L174.19,157.8L177.3,155.5L183.52,150.98L186.63,147L189.74,144.92L192.85,141.6L199.08,133.62L202.19,129.72L205.3,127.36L208.41,123.77L211.52,119.81L214.63,117.35L233.29,97.76L236.4,93.86L255.07,75.41L258.18,72.4L261.29,69.71L264.4,66.02L273.73,58.21L276.84,55.28L283.06,48.24L286.17,45.32L292.39,39.45L295.5,35.34L304.83,26.7L307.94,22.26L311.06,32.32L314.17,45.57L326.61,93.27L329.72,103.81L348.38,163.73L351.49,170.97L360.82,183.59L363.93,187.11L367.05,190.1L370.16,194.13L401.26,225.09L404.37,227.65L419.92,240.72L423.04,243.6L435.48,253.3L438.59,255.1L444.81,259.98L447.92,262.46L454.14,267.16L457.25,269.43L472.8,279.86L475.91,281.14L503.91,298.06L507.02,300.14L510.13,301.72L513.24,304.18L519.46,306.73L522.57,308.81L531.9,312.48L535.02,314.67L553.68,325.28L556.79,326.19L566.12,330.66L569.23,331.69L575.45,334.12L578.56,335.02L597.23,342.52L600.34,343.99L609.67,348.31L612.78,349.22L619,351.35" style="vector-effect: non-scaling-stroke; fill: none; stroke: rgb(44, 160, 44); stroke-opacity: 1; stroke-width: 2px; opacity: 1;"/></g><g class="points"/><g class="text"/></g><g class="trace scatter traceef2d85" style="stroke-miterlimit: 2; opacity: 1;"><g class="fills"/><g class="errorbars"/><g class="lines"><path class="js-line" d="M0,397.24L6.22,413.25L9.33,366.42L31.11,315.52L34.22,309.04L40.44,297.57L43.55,293.9L62.21,269.99L65.32,266.65L74.65,255.87L77.76,252.65L96.43,232.11L99.54,229.16L136.86,192.4L139.97,190.13L146.2,183.59L149.31,181.63L158.64,173.54L161.75,170.51L174.19,157.8L177.3,155.5L183.52,150.98L186.63,147L189.74,144.92L192.85,141.6L199.08,133.62L202.19,129.72L205.3,127.36L208.41,123.77L211.52,119.81L214.63,117.35L233.29,97.76L236.4,93.86L255.07,75.41L258.18,72.4L261.29,69.71L264.4,66.02L273.73,58.21L276.84,55.28L283.06,48.24L286.17,45.32L292.39,39.45L295.5,35.34L304.83,26.7L307.94,22.26L311.06,27.49L314.17,40.8L326.61,87.24L329.72,97.36L339.05,128.65L342.16,137.75L348.38,157.46L351.49,164.07L354.6,168.73L357.71,172.03L363.93,180.37L367.05,182.71L395.04,211.88L398.15,214.61L404.37,218.83L407.48,221.81L416.81,228.3L419.92,231.56L432.37,242.32L435.48,244.82L447.92,253.84L451.03,255.19L466.58,266.79L469.69,268.68L479.03,274.95L482.14,276.62L485.25,277.53L488.36,279.32L494.58,282.55L497.69,284.29L500.8,287.23L503.91,288.33L516.35,295.27L519.46,296.35L522.57,298.78L525.68,299.92L531.9,302.89L535.02,304.49L544.35,309.53L547.46,310.9L553.68,314.35L556.79,316.17L569.23,322.18L572.34,323.63L578.56,326.3L581.67,327.18L584.78,328.29L587.89,330.29L591.01,331.49L594.12,333.69L600.34,335.51L603.45,337.25L619,343.93" style="vector-effect: non-scaling-stroke; fill: none; stroke: rgb(214, 39, 40); stroke-opacity: 1; stroke-width: 2px; opacity: 1;"/></g><g class="points"/><g class="text"/></g><g class="trace scatter trace14a420" style="stroke-miterlimit: 2; opacity: 1;"><g class="fills"/><g class="errorbars"/><g class="lines"><path class="js-line" d="M0,397.24L6.22,413.25L9.33,366.42L31.11,315.52L34.22,309.04L40.44,297.57L43.55,293.9L62.21,269.99L65.32,266.65L74.65,255.87L77.76,252.65L96.43,232.11L99.54,229.16L136.86,192.4L139.97,190.13L146.2,183.59L149.31,181.63L158.64,173.54L161.75,170.51L174.19,157.8L177.3,155.5L183.52,150.98L186.63,147L189.74,144.92L192.85,141.6L199.08,133.62L202.19,129.72L205.3,127.36L208.41,123.77L211.52,119.81L214.63,117.35L233.29,97.76L236.4,93.86L255.07,75.41L258.18,72.4L261.29,69.71L264.4,66.02L273.73,58.21L276.84,55.28L283.06,48.24L286.17,45.32L292.39,39.45L295.5,35.34L304.83,26.7L307.94,22.26L311.06,22.54L314.17,31.64L332.83,95.58L335.94,105.31L348.38,142.22L351.49,148.99L357.71,159.03L360.82,162.87L370.16,172.14L373.27,174.88L382.6,184.45L385.71,186.8L391.93,192.51L395.04,196.32L404.37,204.4L407.48,207.23L413.7,212.1L416.81,214.82L429.26,224.22L432.37,225.76L438.59,229.86L441.7,232.4L447.92,236.5L451.03,238.59L460.36,245.3L463.47,247.2L466.58,248.76L469.69,251.24L472.8,253.77L475.91,255.28L479.03,256.96L482.14,259.77L485.25,261.29L488.36,263.68L503.91,270.03L507.02,271.84L513.24,275.36L516.35,277.76L519.46,279.71L522.57,280.42L535.02,287.89L538.13,289.24L541.24,291.15L544.35,291.66L550.57,294.58L553.68,296.29L559.9,299.59L563.01,300.84L572.34,305.59L575.45,306.49L581.67,309.8L584.78,311.57L597.23,317.54L600.34,318.91L619,327.77" style="vector-effect: non-scaling-stroke; fill: none; stroke: rgb(148, 103, 189); stroke-opacity: 1; stroke-width: 2px; opacity: 1;"/></g><g class="points"/><g class="text"/></g><g class="trace scatter tracedfe80f" style="stroke-miterlimit: 2; opacity: 1;"><g class="fills"/><g class="errorbars"/><g class="lines"><path class="js-line" d="M0,397.24L6.22,413.25L9.33,366.42L31.11,315.52L34.22,309.04L40.44,297.57L43.55,293.9L62.21,269.99L65.32,266.65L74.65,255.87L77.76,252.65L96.43,232.11L99.54,229.16L136.86,192.4L139.97,190.13L146.2,183.59L149.31,181.63L158.64,173.54L161.75,170.51L174.19,157.8L177.3,155.5L183.52,150.98L186.63,147L189.74,144.92L192.85,141.6L199.08,133.62L202.19,129.72L205.3,127.36L208.41,123.77L211.52,119.81L214.63,117.35L233.29,97.76L236.4,93.86L255.07,75.41L258.18,72.4L261.29,69.71L264.4,66.02L273.73,58.21L276.84,55.28L283.06,48.24L286.17,45.32L292.39,39.45L295.5,35.34L304.83,26.7L307.94,22.26L311.06,21.75L314.17,26.57L317.28,34.17L320.39,45.46L339.05,102.54L342.16,110.56L348.38,126.63L351.49,134.17L354.6,140.33L357.71,144.37L376.38,162.93L379.49,164.72L385.71,169.32L388.82,172.76L391.93,174.92L395.04,178.08L401.26,183.64L404.37,185.86L413.7,193.27L416.81,195.55L423.04,200.42L426.15,202.77L435.48,208.38L438.59,211.28L447.92,216.52L451.03,218.7L482.14,239.53L485.25,241.35L503.91,250.35L507.02,251.5L513.24,255.45L516.35,257.18L519.46,258.24L522.57,260.17L528.79,263.45L531.9,264.61L544.35,272.35L547.46,273.85L550.57,275.19L553.68,277.67L566.12,283.69L569.23,285.52L572.34,286.55L575.45,288.46L597.23,298.1L600.34,299.68L606.56,303.12L609.67,304.53L619,307.82" style="vector-effect: non-scaling-stroke; fill: none; stroke: rgb(140, 86, 75); stroke-opacity: 1; stroke-width: 2px; opacity: 1;"/></g><g class="points"/><g class="text"/></g></g></g><g class="overplot"/><path class="xlines-above crisp" style="fill: none;" d="M0,0"/><path class="ylines-above crisp" style="fill: none;" d="M0,0"/><g class="overlines-above"/><g class="xaxislayer-above"><g class="xtick"><text text-anchor="middle" x="0" y="473" transform="translate(212.42,0)" style="font-family: 'Open Sans', verdana, arial, sans-serif; font-size: 12px; fill: rgb(68, 68, 68); fill-opacity: 1; white-space: pre;">50</text></g><g class="xtick"><text text-anchor="middle" x="0" y="473" transform="translate(367.94,0)" style="font-family: 'Open Sans', verdana, arial, sans-serif; font-size: 12px; fill: rgb(68, 68, 68); fill-opacity: 1; white-space: pre;">100</text></g><g class="xtick"><text text-anchor="middle" x="0" y="473" transform="translate(523.47,0)" style="font-family: 'Open Sans', verdana, arial, sans-serif; font-size: 12px; fill: rgb(68, 68, 68); fill-opacity: 1; white-space: pre;">150</text></g><g class="xtick"><text text-anchor="middle" x="0" y="473" transform="translate(679,0)" style="font-family: 'Open Sans', verdana, arial, sans-serif; font-size: 12px; fill: rgb(68, 68, 68); fill-opacity: 1; white-space: pre;">200</text></g></g><g class="yaxislayer-above"><g class="ytick"><text text-anchor="end" x="59" y="4.199999999999999" transform="translate(0,438.91)" style="font-family: 'Open Sans', verdana, arial, sans-serif; font-size: 12px; fill: rgb(68, 68, 68); fill-opacity: 1; white-space: pre;">100</text></g><g class="ytick"><text text-anchor="end" x="59" y="4.199999999999999" transform="translate(0,384.87)" style="font-family: 'Open Sans', verdana, arial, sans-serif; font-size: 12px; fill: rgb(68, 68, 68); fill-opacity: 1; white-space: pre;">200</text></g><g class="ytick"><text text-anchor="end" x="59" y="4.199999999999999" transform="translate(0,330.83)" style="font-family: 'Open Sans', verdana, arial, sans-serif; font-size: 12px; fill: rgb(68, 68, 68); fill-opacity: 1; white-space: pre;">300</text></g><g class="ytick"><text text-anchor="end" x="59" y="4.199999999999999" transform="translate(0,276.8)" style="font-family: 'Open Sans', verdana, arial, sans-serif; font-size: 12px; fill: rgb(68, 68, 68); fill-opacity: 1; white-space: pre;">400</text></g><g class="ytick"><text text-anchor="end" x="59" y="4.199999999999999" transform="translate(0,222.76)" style="font-family: 'Open Sans', verdana, arial, sans-serif; font-size: 12px; fill: rgb(68, 68, 68); fill-opacity: 1; white-space: pre;">500</text></g><g class="ytick"><text text-anchor="end" x="59" y="4.199999999999999" transform="translate(0,168.72)" style="font-family: 'Open Sans', verdana, arial, sans-serif; font-size: 12px; fill: rgb(68, 68, 68); fill-opacity: 1; white-space: pre;">600</text></g><g class="ytick"><text text-anchor="end" x="59" y="4.199999999999999" transform="translate(0,114.68)" style="font-family: 'Open Sans', verdana, arial, sans-serif; font-size: 12px; fill: rgb(68, 68, 68); fill-opacity: 1; white-space: pre;">700</text></g><g class="ytick"><text text-anchor="end" x="59" y="4.199999999999999" transform="translate(0,60.64)" style="font-family: 'Open Sans', verdana, arial, sans-serif; font-size: 12px; fill: rgb(68, 68, 68); fill-opacity: 1; white-space: pre;">800</text></g></g><g class="overaxes-above"/></g></g><g class="polarlayer"/><g class="ternarylayer"/><g class="geolayer"/><g class="funnelarealayer"/><g class="pielayer"/><g class="treemaplayer"/><g class="sunburstlayer"/><g class="glimages"/><defs id="topdefs-edc594"><g class="clips"/><clipPath id="legendedc594"><rect width="117" height="140" x="0" y="0"/></clipPath></defs><g class="layer-above"><g class="imagelayer"/><g class="shapelayer"/></g><g class="infolayer"><g class="legend" pointer-events="all" transform="translate(90.95, 46.750000000000014)"><rect class="bg" shape-rendering="crispEdges" style="stroke: rgb(68, 68, 68); stroke-opacity: 1; fill: rgb(226, 226, 226); fill-opacity: 1; stroke-width: 0px;" width="117" height="140" x="0" y="0"/><g class="scrollbox" transform="translate(0, 0)" clip-path="url('#legendedc594')"><text class="legendtitletext user-select-none" text-anchor="start" x="2" y="15.600000000000001" style="font-family: 'Open Sans', verdana, arial, sans-serif; font-size: 12px; fill: rgb(68, 68, 68); fill-opacity: 1; white-space: pre;"><tspan style="font-weight:bold"> Identification Time </tspan></text><g class="groups"><g class="traces" transform="translate(0, 30.1)" style="opacity: 1;"><text class="legendtext user-select-none" text-anchor="start" x="40" y="4.680000000000001" style="font-family: 'Open Sans', verdana, arial, sans-serif; font-size: 12px; fill: rgb(68, 68, 68); fill-opacity: 1; white-space: pre;">0 Months</text><g class="layers" style="opacity: 1;"><g class="legendfill"/><g class="legendlines"><path class="js-line" d="M5,0h30" style="fill: none; stroke: rgb(31, 119, 180); stroke-opacity: 1; stroke-width: 2px;"/></g><g class="legendsymbols"><g class="legendpoints"/></g></g><rect class="legendtoggle" pointer-events="all" x="0" y="-9.5" width="98.046875" height="19" style="cursor: pointer; fill: rgb(0, 0, 0); fill-opacity: 0;"/></g><g class="traces" transform="translate(0, 49.1)" style="opacity: 1;"><text class="legendtext user-select-none" text-anchor="start" x="40" y="4.680000000000001" style="font-family: 'Open Sans', verdana, arial, sans-serif; font-size: 12px; fill: rgb(68, 68, 68); fill-opacity: 1; white-space: pre;">3 Months</text><g class="layers" style="opacity: 1;"><g class="legendfill"/><g class="legendlines"><path class="js-line" d="M5,0h30" style="fill: none; stroke: rgb(255, 127, 14); stroke-opacity: 1; stroke-width: 2px;"/></g><g class="legendsymbols"><g class="legendpoints"/></g></g><rect class="legendtoggle" pointer-events="all" x="0" y="-9.5" width="98.046875" height="19" style="cursor: pointer; fill: rgb(0, 0, 0); fill-opacity: 0;"/></g><g class="traces" transform="translate(0, 68.1)" style="opacity: 1;"><text class="legendtext user-select-none" text-anchor="start" x="40" y="4.680000000000001" style="font-family: 'Open Sans', verdana, arial, sans-serif; font-size: 12px; fill: rgb(68, 68, 68); fill-opacity: 1; white-space: pre;">6 Months</text><g class="layers" style="opacity: 1;"><g class="legendfill"/><g class="legendlines"><path class="js-line" d="M5,0h30" style="fill: none; stroke: rgb(44, 160, 44); stroke-opacity: 1; stroke-width: 2px;"/></g><g class="legendsymbols"><g class="legendpoints"/></g></g><rect class="legendtoggle" pointer-events="all" x="0" y="-9.5" width="98.046875" height="19" style="cursor: pointer; fill: rgb(0, 0, 0); fill-opacity: 0;"/></g><g class="traces" transform="translate(0, 87.1)" style="opacity: 1;"><text class="legendtext user-select-none" text-anchor="start" x="40" y="4.680000000000001" style="font-family: 'Open Sans', verdana, arial, sans-serif; font-size: 12px; fill: rgb(68, 68, 68); fill-opacity: 1; white-space: pre;">12 Months</text><g class="layers" style="opacity: 1;"><g class="legendfill"/><g class="legendlines"><path class="js-line" d="M5,0h30" style="fill: none; stroke: rgb(214, 39, 40); stroke-opacity: 1; stroke-width: 2px;"/></g><g class="legendsymbols"><g class="legendpoints"/></g></g><rect class="legendtoggle" pointer-events="all" x="0" y="-9.5" width="98.046875" height="19" style="cursor: pointer; fill: rgb(0, 0, 0); fill-opacity: 0;"/></g><g class="traces" transform="translate(0, 106.1)" style="opacity: 1;"><text class="legendtext user-select-none" text-anchor="start" x="40" y="4.680000000000001" style="font-family: 'Open Sans', verdana, arial, sans-serif; font-size: 12px; fill: rgb(68, 68, 68); fill-opacity: 1; white-space: pre;">24 Months</text><g class="layers" style="opacity: 1;"><g class="legendfill"/><g class="legendlines"><path class="js-line" d="M5,0h30" style="fill: none; stroke: rgb(148, 103, 189); stroke-opacity: 1; stroke-width: 2px;"/></g><g class="legendsymbols"><g class="legendpoints"/></g></g><rect class="legendtoggle" pointer-events="all" x="0" y="-9.5" width="98.046875" height="19" style="cursor: pointer; fill: rgb(0, 0, 0); fill-opacity: 0;"/></g><g class="traces" transform="translate(0, 125.1)" style="opacity: 1;"><text class="legendtext user-select-none" text-anchor="start" x="40" y="4.680000000000001" style="font-family: 'Open Sans', verdana, arial, sans-serif; font-size: 12px; fill: rgb(68, 68, 68); fill-opacity: 1; white-space: pre;">36 Months</text><g class="layers" style="opacity: 1;"><g class="legendfill"/><g class="legendlines"><path class="js-line" d="M5,0h30" style="fill: none; stroke: rgb(140, 86, 75); stroke-opacity: 1; stroke-width: 2px;"/></g><g class="legendsymbols"><g class="legendpoints"/></g></g><rect class="legendtoggle" pointer-events="all" x="0" y="-9.5" width="98.046875" height="19" style="cursor: pointer; fill: rgb(0, 0, 0); fill-opacity: 0;"/></g></g></g><rect class="scrollbar" rx="20" ry="3" width="0" height="0" style="fill: rgb(128, 139, 164); fill-opacity: 1;" x="0" y="0"/></g><g class="g-gtitle"><text class="gtitle" x="350" y="12.5" text-anchor="middle" dy="0em" style="font-family: 'Open Sans', verdana, arial, sans-serif; font-size: 17px; fill: rgb(68, 68, 68); opacity: 1; font-weight: normal; white-space: pre;"><tspan style="font-weight:bold"> Leprosy Prevalence PB - Immunity Vaccine 0.0, Treatment 25% </tspan></text></g><g class="g-xtitle" transform="translate(0,-15)"><text class="xtitle" x="369.5" y="512" text-anchor="middle" style="font-family: 'Open Sans', verdana, arial, sans-serif; font-size: 14px; fill: rgb(68, 68, 68); opacity: 1; font-weight: normal; white-space: pre;">Time(Years)</text></g><g class="g-ytitle"><text class="ytitle" transform="rotate(-90,22,242.5)" x="22" y="242.5" text-anchor="middle" style="font-family: 'Open Sans', verdana, arial, sans-serif; font-size: 14px; fill: rgb(68, 68, 68); opacity: 1; font-weight: normal; white-space: pre;">Number of infectiuos individuals</text></g></g></svg>