<svg class="main-svg" xmlns="http://www.w3.org/2000/svg" xmlns:xlink="http://www.w3.org/1999/xlink" width="700" height="500" style="" viewBox="0 0 700 500"><rect x="0" y="0" width="700" height="500" style="fill: rgb(255, 255, 255); fill-opacity: 1;"/><defs id="defs-fceda3"><g class="clips"><clipPath id="clipfceda3xyplot" class="plotclip"><rect width="619" height="435"/></clipPath><clipPath class="axesclip" id="clipfceda3x"><rect x="60" y="0" width="619" height="500"/></clipPath><clipPath class="axesclip" id="clipfceda3y"><rect x="0" y="25" width="700" height="435"/></clipPath><clipPath class="axesclip" id="clipfceda3xy"><rect x="60" y="25" width="619" height="435"/></clipPath></g><g class="gradients"/></defs><g class="bglayer"/><g class="layer-below"><g class="imagelayer"/><g class="shapelayer"/></g><g class="cartesianlayer"><g class="subplot xy"><g class="layer-subplot"><g class="shapelayer"/><g class="imagelayer"/></g><g class="gridlayer"><g class="x"><path class="xgrid crisp" transform="translate(212.42,0)" d="M0,25v435" style="stroke: rgb(238, 238, 238); stroke-opacity: 1; stroke-width: 1px;"/><path class="xgrid crisp" transform="translate(367.94,0)" d="M0,25v435" style="stroke: rgb(238, 238, 238); stroke-opacity: 1; stroke-width: 1px;"/><path class="xgrid crisp" transform="translate(523.47,0)" d="M0,25v435" style="stroke: rgb(238, 238, 238); stroke-opacity: 1; stroke-width: 1px;"/></g><g class="y"><path class="ygrid crisp" transform="translate(0,391.17)" d="M60,0h619" style="stroke: rgb(238, 238, 238); stroke-opacity: 1; stroke-width: 1px;"/><path class="ygrid crisp" transform="translate(0,343.65)" d="M60,0h619" style="stroke: rgb(238, 238, 238); stroke-opacity: 1; stroke-width: 1px;"/><path class="ygrid crisp" transform="translate(0,296.12)" d="M60,0h619" style="stroke: rgb(238, 238, 238); stroke-opacity: 1; stroke-width: 1px;"/><path class="ygrid crisp" transform="translate(0,248.6)" d="M60,0h619" style="stroke: rgb(238, 238, 238); stroke-opacity: 1; stroke-width: 1px;"/><path class="ygrid crisp" transform="translate(0,201.08)" d="M60,0h619" style="stroke: rgb(238, 238, 238); stroke-opacity: 1; stroke-width: 1px;"/><path class="ygrid crisp" transform="translate(0,153.56)" d="M60,0h619" style="stroke: rgb(238, 238, 238); stroke-opacity: 1; stroke-width: 1px;"/><path class="ygrid crisp" transform="translate(0,106.04)" d="M60,0h619" style="stroke: rgb(238, 238, 238); stroke-opacity: 1; stroke-width: 1px;"/><path class="ygrid crisp" transform="translate(0,58.52)" d="M60,0h619" style="stroke: rgb(238, 238, 238); stroke-opacity: 1; stroke-width: 1px;"/></g></g><g class="zerolinelayer"><path class="yzl zl crisp" transform="translate(0,438.69)" d="M60,0h619" style="stroke: rgb(68, 68, 68); stroke-opacity: 1; stroke-width: 1px;"/></g><path class="xlines-below"/><path class="ylines-below"/><g class="overlines-below"/><g class="xaxislayer-below"/><g class="yaxislayer-below"/><g class="overaxes-below"/><g class="plot" transform="translate(60, 25)" clip-path="url('#clipfceda3xyplot')"><g class="scatterlayer mlayer"><g class="trace scatter trace80cf36" style="stroke-miterlimit: 2; opacity: 1;"><g class="fills"/><g class="errorbars"/><g class="lines"><path class="js-line" d="M0,351.51L6.22,365.59L9.33,324.4L31.11,279.64L34.22,273.95L40.44,263.86L43.55,260.63L62.21,239.6L65.32,236.67L74.65,227.19L77.76,224.36L96.43,206.3L99.54,203.7L136.86,171.37L139.97,169.37L146.2,163.62L149.31,161.9L158.64,154.79L161.75,152.12L174.19,140.94L177.3,138.92L183.52,134.95L186.63,131.45L189.74,129.62L192.85,126.7L199.08,119.68L202.19,116.25L205.3,114.17L208.41,111.02L211.52,107.54L214.63,105.37L258.18,65.84L261.29,63.47L267.51,57.99L270.62,56.15L304.83,25.66L307.94,21.75L314.17,121.85L317.28,160.92L323.5,226.24L326.61,252.51L332.83,295.22L335.94,312.27L342.16,339.55L345.27,350.36L351.49,365.82L354.6,371.67L363.93,384.93L367.05,388.34L376.38,396.46L379.49,398.52L385.71,402.1L388.82,403.35L401.26,406.57L404.37,407.13L435.48,410.89L438.59,411.14L469.69,412.46L472.8,412.52L516.35,413.11L519.46,413.12L619,413.25" style="vector-effect: non-scaling-stroke; fill: none; stroke: rgb(31, 119, 180); stroke-opacity: 1; stroke-width: 2px; opacity: 1;"/></g><g class="points"/><g class="text"/></g><g class="trace scatter trace8417bd" style="stroke-miterlimit: 2; opacity: 1;"><g class="fills"/><g class="errorbars"/><g class="lines"><path class="js-line" d="M0,351.51L6.22,365.59L9.33,324.4L31.11,279.64L34.22,273.95L40.44,263.86L43.55,260.63L62.21,239.6L65.32,236.67L74.65,227.19L77.76,224.36L96.43,206.3L99.54,203.7L136.86,171.37L139.97,169.37L146.2,163.62L149.31,161.9L158.64,154.79L161.75,152.12L174.19,140.94L177.3,138.92L183.52,134.95L186.63,131.45L189.74,129.62L192.85,126.7L199.08,119.68L202.19,116.25L205.3,114.17L208.41,111.02L211.52,107.54L214.63,105.37L258.18,65.84L261.29,63.47L267.51,57.99L270.62,56.15L304.83,25.66L307.94,21.75L317.28,156.36L320.39,191.48L326.61,248.89L329.72,272.13L335.94,310.01L339.05,324.96L345.27,349.16L348.38,356.75L354.6,368.82L357.71,373.88L363.93,382.7L367.05,386.23L376.38,395.21L379.49,397.47L385.71,401.27L388.82,402.6L404.37,406L407.48,406.57L432.37,410.31L435.48,410.54L475.91,412.4L479.03,412.47L522.57,413.07L525.68,413.11L619,413.2" style="vector-effect: non-scaling-stroke; fill: none; stroke: rgb(255, 127, 14); stroke-opacity: 1; stroke-width: 2px; opacity: 1;"/></g><g class="points"/><g class="text"/></g><g class="trace scatter tracea9994b" style="stroke-miterlimit: 2; opacity: 1;"><g class="fills"/><g class="errorbars"/><g class="lines"><path class="js-line" d="M0,351.51L6.22,365.59L9.33,324.4L31.11,279.64L34.22,273.95L40.44,263.86L43.55,260.63L62.21,239.6L65.32,236.67L74.65,227.19L77.76,224.36L96.43,206.3L99.54,203.7L136.86,171.37L139.97,169.37L146.2,163.62L149.31,161.9L158.64,154.79L161.75,152.12L174.19,140.94L177.3,138.92L183.52,134.95L186.63,131.45L189.74,129.62L192.85,126.7L199.08,119.68L202.19,116.25L205.3,114.17L208.41,111.02L211.52,107.54L214.63,105.37L258.18,65.84L261.29,63.47L267.51,57.99L270.62,56.15L304.83,25.66L307.94,21.75L314.17,109.31L317.28,150.14L323.5,217.8L326.61,245.16L332.83,289.12L335.94,307.2L342.16,335.34L345.27,346.98L348.38,354.8L351.49,360.2L360.82,375.4L363.93,379.37L370.16,387.37L373.27,390.21L382.6,397.86L385.71,399.81L391.93,402.17L395.04,402.74L432.37,409.64L435.48,409.98L463.47,411.59L466.58,411.82L541.24,413.13L544.35,413.16L619,413.21" style="vector-effect: non-scaling-stroke; fill: none; stroke: rgb(44, 160, 44); stroke-opacity: 1; stroke-width: 2px; opacity: 1;"/></g><g class="points"/><g class="text"/></g><g class="trace scatter traced3314a" style="stroke-miterlimit: 2; opacity: 1;"><g class="fills"/><g class="errorbars"/><g class="lines"><path class="js-line" d="M0,351.51L6.22,365.59L9.33,324.4L31.11,279.64L34.22,273.95L40.44,263.86L43.55,260.63L62.21,239.6L65.32,236.67L74.65,227.19L77.76,224.36L96.43,206.3L99.54,203.7L136.86,171.37L139.97,169.37L146.2,163.62L149.31,161.9L158.64,154.79L161.75,152.12L174.19,140.94L177.3,138.92L183.52,134.95L186.63,131.45L189.74,129.62L192.85,126.7L199.08,119.68L202.19,116.25L205.3,114.17L208.41,111.02L211.52,107.54L214.63,105.37L258.18,65.84L261.29,63.47L267.51,57.99L270.62,56.15L304.83,25.66L307.94,21.75L311.06,46.53L314.17,95.15L320.39,174.74L323.5,209.17L329.72,262.61L332.83,284.01L339.05,318.64L342.16,332.82L345.27,344.74L348.38,353.18L363.93,374.14L367.05,378.58L373.27,386.3L376.38,389.69L385.71,397.43L388.82,399.34L395.04,400.53L398.15,400.95L419.92,405.76L423.04,406.61L432.37,408.57L435.48,408.73L444.81,409.48L447.92,409.63L460.36,410.41L463.47,410.79L497.69,412.13L500.8,412.2L519.46,412.69L522.57,412.74L619,413.17" style="vector-effect: non-scaling-stroke; fill: none; stroke: rgb(214, 39, 40); stroke-opacity: 1; stroke-width: 2px; opacity: 1;"/></g><g class="points"/><g class="text"/></g><g class="trace scatter tracec2c852" style="stroke-miterlimit: 2; opacity: 1;"><g class="fills"/><g class="errorbars"/><g class="lines"><path class="js-line" d="M0,351.51L6.22,365.59L9.33,324.4L31.11,279.64L34.22,273.95L40.44,263.86L43.55,260.63L62.21,239.6L65.32,236.67L74.65,227.19L77.76,224.36L96.43,206.3L99.54,203.7L136.86,171.37L139.97,169.37L146.2,163.62L149.31,161.9L158.64,154.79L161.75,152.12L174.19,140.94L177.3,138.92L183.52,134.95L186.63,131.45L189.74,129.62L192.85,126.7L199.08,119.68L202.19,116.25L205.3,114.17L208.41,111.02L211.52,107.54L214.63,105.37L258.18,65.84L261.29,63.47L267.51,57.99L270.62,56.15L304.83,25.66L307.94,21.75L311.06,34.04L314.17,69.53L323.5,189.44L326.61,221.07L332.83,272.79L335.94,292.9L342.16,325.35L345.27,338.47L348.38,348.53L351.49,353.49L357.71,356.22L360.82,359.26L367.05,367.52L370.16,372.1L379.49,385.16L382.6,388.59L388.82,394.68L391.93,396.47L398.15,397.81L401.26,398L407.48,398.15L410.59,398.68L413.7,399.06L416.81,400.24L432.37,405.65L435.48,406.43L444.81,407.55L447.92,407.95L466.58,409.22L469.69,409.47L485.25,411.1L488.36,411.23L525.68,412.38L528.79,412.38L556.79,412.91L559.9,412.89L619,413.11" style="vector-effect: non-scaling-stroke; fill: none; stroke: rgb(148, 103, 189); stroke-opacity: 1; stroke-width: 2px; opacity: 1;"/></g><g class="points"/><g class="text"/></g><g class="trace scatter tracef09853" style="stroke-miterlimit: 2; opacity: 1;"><g class="fills"/><g class="errorbars"/><g class="lines"><path class="js-line" d="M0,351.51L6.22,365.59L9.33,324.4L31.11,279.64L34.22,273.95L40.44,263.86L43.55,260.63L62.21,239.6L65.32,236.67L74.65,227.19L77.76,224.36L96.43,206.3L99.54,203.7L136.86,171.37L139.97,169.37L146.2,163.62L149.31,161.9L158.64,154.79L161.75,152.12L174.19,140.94L177.3,138.92L183.52,134.95L186.63,131.45L189.74,129.62L192.85,126.7L199.08,119.68L202.19,116.25L205.3,114.17L208.41,111.02L211.52,107.54L214.63,105.37L258.18,65.84L261.29,63.47L267.51,57.99L270.62,56.15L304.83,25.66L307.94,21.75L311.06,27.93L314.17,51.18L320.39,126.78L323.5,166.57L329.72,231.41L332.83,257.24L339.05,299.57L342.16,316.53L348.38,342.3L351.49,349.44L354.6,352.09L357.71,352.55L360.82,352.63L363.93,353.52L367.05,356.23L370.16,360.88L382.6,379.75L385.71,383.69L388.82,387.94L391.93,390.78L395.04,393.3L398.15,394.57L404.37,394.74L407.48,394.83L413.7,395.27L416.81,396.09L441.7,405.05L444.81,405.87L475.91,408.73L479.03,409.13L494.58,410.54L497.69,410.79L581.67,412.8L584.78,412.79L619,412.97" style="vector-effect: non-scaling-stroke; fill: none; stroke: rgb(140, 86, 75); stroke-opacity: 1; stroke-width: 2px; opacity: 1;"/></g><g class="points"/><g class="text"/></g></g></g><g class="overplot"/><path class="xlines-above crisp" style="fill: none;" d="M0,0"/><path class="ylines-above crisp" style="fill: none;" d="M0,0"/><g class="overlines-above"/><g class="xaxislayer-above"><g class="xtick"><text text-anchor="middle" x="0" y="473" transform="translate(212.42,0)" style="font-family: 'Open Sans', verdana, arial, sans-serif; font-size: 12px; fill: rgb(68, 68, 68); fill-opacity: 1; white-space: pre;">50</text></g><g class="xtick"><text text-anchor="middle" x="0" y="473" transform="translate(367.94,0)" style="font-family: 'Open Sans', verdana, arial, sans-serif; font-size: 12px; fill: rgb(68, 68, 68); fill-opacity: 1; white-space: pre;">100</text></g><g class="xtick"><text text-anchor="middle" x="0" y="473" transform="translate(523.47,0)" style="font-family: 'Open Sans', verdana, arial, sans-serif; font-size: 12px; fill: rgb(68, 68, 68); fill-opacity: 1; white-space: pre;">150</text></g><g class="xtick"><text text-anchor="middle" x="0" y="473" transform="translate(679,0)" style="font-family: 'Open Sans', verdana, arial, sans-serif; font-size: 12px; fill: rgb(68, 68, 68); fill-opacity: 1; white-space: pre;">200</text></g></g><g class="yaxislayer-above"><g class="ytick"><text text-anchor="end" x="59" y="4.199999999999999" transform="translate(0,438.69)" style="font-family: 'Open Sans', verdana, arial, sans-serif; font-size: 12px; fill: rgb(68, 68, 68); fill-opacity: 1; white-space: pre;">0</text></g><g class="ytick"><text text-anchor="end" x="59" y="4.199999999999999" transform="translate(0,391.17)" style="font-family: 'Open Sans', verdana, arial, sans-serif; font-size: 12px; fill: rgb(68, 68, 68); fill-opacity: 1; white-space: pre;">100</text></g><g class="ytick"><text text-anchor="end" x="59" y="4.199999999999999" transform="translate(0,343.65)" style="font-family: 'Open Sans', verdana, arial, sans-serif; font-size: 12px; fill: rgb(68, 68, 68); fill-opacity: 1; white-space: pre;">200</text></g><g class="ytick"><text text-anchor="end" x="59" y="4.199999999999999" transform="translate(0,296.12)" style="font-family: 'Open Sans', verdana, arial, sans-serif; font-size: 12px; fill: rgb(68, 68, 68); fill-opacity: 1; white-space: pre;">300</text></g><g class="ytick"><text text-anchor="end" x="59" y="4.199999999999999" transform="translate(0,248.6)" style="font-family: 'Open Sans', verdana, arial, sans-serif; font-size: 12px; fill: rgb(68, 68, 68); fill-opacity: 1; white-space: pre;">400</text></g><g class="ytick"><text text-anchor="end" x="59" y="4.199999999999999" transform="translate(0,201.08)" style="font-family: 'Open Sans', verdana, arial, sans-serif; font-size: 12px; fill: rgb(68, 68, 68); fill-opacity: 1; white-space: pre;">500</text></g><g class="ytick"><text text-anchor="end" x="59" y="4.199999999999999" transform="translate(0,153.56)" style="font-family: 'Open Sans', verdana, arial, sans-serif; font-size: 12px; fill: rgb(68, 68, 68); fill-opacity: 1; white-space: pre;">600</text></g><g class="ytick"><text text-anchor="end" x="59" y="4.199999999999999" transform="translate(0,106.04)" style="font-family: 'Open Sans', verdana, arial, sans-serif; font-size: 12px; fill: rgb(68, 68, 68); fill-opacity: 1; white-space: pre;">700</text></g><g class="ytick"><text text-anchor="end" x="59" y="4.199999999999999" transform="translate(0,58.52)" style="font-family: 'Open Sans', verdana, arial, sans-serif; font-size: 12px; fill: rgb(68, 68, 68); fill-opacity: 1; white-space: pre;">800</text></g></g><g class="overaxes-above"/></g></g><g class="polarlayer"/><g class="ternarylayer"/><g class="geolayer"/><g class="funnelarealayer"/><g class="pielayer"/><g class="treemaplayer"/><g class="sunburstlayer"/><g class="glimages"/><defs id="topdefs-fceda3"><g class="clips"/><clipPath id="legendfceda3"><rect width="117" height="140" x="0" y="0"/></clipPath></defs><g class="layer-above"><g class="imagelayer"/><g class="shapelayer"/></g><g class="infolayer"><g class="legend" pointer-events="all" transform="translate(90.95, 46.750000000000014)"><rect class="bg" shape-rendering="crispEdges" style="stroke: rgb(68, 68, 68); stroke-opacity: 1; fill: rgb(226, 226, 226); fill-opacity: 1; stroke-width: 0px;" width="117" height="140" x="0" y="0"/><g class="scrollbox" transform="translate(0, 0)" clip-path="url('#legendfceda3')"><text class="legendtitletext user-select-none" text-anchor="start" x="2" y="15.600000000000001" style="font-family: 'Open Sans', verdana, arial, sans-serif; font-size: 12px; fill: rgb(68, 68, 68); fill-opacity: 1; white-space: pre;"><tspan style="font-weight:bold"> Identification Time </tspan></text><g class="groups"><g class="traces" transform="translate(0, 30.1)" style="opacity: 1;"><text class="legendtext user-select-none" text-anchor="start" x="40" y="4.680000000000001" style="font-family: 'Open Sans', verdana, arial, sans-serif; font-size: 12px; fill: rgb(68, 68, 68); fill-opacity: 1; white-space: pre;">0 Months</text><g class="layers" style="opacity: 1;"><g class="legendfill"/><g class="legendlines"><path class="js-line" d="M5,0h30" style="fill: none; stroke: rgb(31, 119, 180); stroke-opacity: 1; stroke-width: 2px;"/></g><g class="legendsymbols"><g class="legendpoints"/></g></g><rect class="legendtoggle" pointer-events="all" x="0" y="-9.5" width="98.046875" height="19" style="cursor: pointer; fill: rgb(0, 0, 0); fill-opacity: 0;"/></g><g class="traces" transform="translate(0, 49.1)" style="opacity: 1;"><text class="legendtext user-select-none" text-anchor="start" x="40" y="4.680000000000001" style="font-family: 'Open Sans', verdana, arial, sans-serif; font-size: 12px; fill: rgb(68, 68, 68); fill-opacity: 1; white-space: pre;">3 Months</text><g class="layers" style="opacity: 1;"><g class="legendfill"/><g class="legendlines"><path class="js-line" d="M5,0h30" style="fill: none; stroke: rgb(255, 127, 14); stroke-opacity: 1; stroke-width: 2px;"/></g><g class="legendsymbols"><g class="legendpoints"/></g></g><rect class="legendtoggle" pointer-events="all" x="0" y="-9.5" width="98.046875" height="19" style="cursor: pointer; fill: rgb(0, 0, 0); fill-opacity: 0;"/></g><g class="traces" transform="translate(0, 68.1)" style="opacity: 1;"><text class="legendtext user-select-none" text-anchor="start" x="40" y="4.680000000000001" style="font-family: 'Open Sans', verdana, arial, sans-serif; font-size: 12px; fill: rgb(68, 68, 68); fill-opacity: 1; white-space: pre;">6 Months</text><g class="layers" style="opacity: 1;"><g class="legendfill"/><g class="legendlines"><path class="js-line" d="M5,0h30" style="fill: none; stroke: rgb(44, 160, 44); stroke-opacity: 1; stroke-width: 2px;"/></g><g class="legendsymbols"><g class="legendpoints"/></g></g><rect class="legendtoggle" pointer-events="all" x="0" y="-9.5" width="98.046875" height="19" style="cursor: pointer; fill: rgb(0, 0, 0); fill-opacity: 0;"/></g><g class="traces" transform="translate(0, 87.1)" style="opacity: 1;"><text class="legendtext user-select-none" text-anchor="start" x="40" y="4.680000000000001" style="font-family: 'Open Sans', verdana, arial, sans-serif; font-size: 12px; fill: rgb(68, 68, 68); fill-opacity: 1; white-space: pre;">12 Months</text><g class="layers" style="opacity: 1;"><g class="legendfill"/><g class="legendlines"><path class="js-line" d="M5,0h30" style="fill: none; stroke: rgb(214, 39, 40); stroke-opacity: 1; stroke-width: 2px;"/></g><g class="legendsymbols"><g class="legendpoints"/></g></g><rect class="legendtoggle" pointer-events="all" x="0" y="-9.5" width="98.046875" height="19" style="cursor: pointer; fill: rgb(0, 0, 0); fill-opacity: 0;"/></g><g class="traces" transform="translate(0, 106.1)" style="opacity: 1;"><text class="legendtext user-select-none" text-anchor="start" x="40" y="4.680000000000001" style="font-family: 'Open Sans', verdana, arial, sans-serif; font-size: 12px; fill: rgb(68, 68, 68); fill-opacity: 1; white-space: pre;">24 Months</text><g class="layers" style="opacity: 1;"><g class="legendfill"/><g class="legendlines"><path class="js-line" d="M5,0h30" style="fill: none; stroke: rgb(148, 103, 189); stroke-opacity: 1; stroke-width: 2px;"/></g><g class="legendsymbols"><g class="legendpoints"/></g></g><rect class="legendtoggle" pointer-events="all" x="0" y="-9.5" width="98.046875" height="19" style="cursor: pointer; fill: rgb(0, 0, 0); fill-opacity: 0;"/></g><g class="traces" transform="translate(0, 125.1)" style="opacity: 1;"><text class="legendtext user-select-none" text-anchor="start" x="40" y="4.680000000000001" style="font-family: 'Open Sans', verdana, arial, sans-serif; font-size: 12px; fill: rgb(68, 68, 68); fill-opacity: 1; white-space: pre;">36 Months</text><g class="layers" style="opacity: 1;"><g class="legendfill"/><g class="legendlines"><path class="js-line" d="M5,0h30" style="fill: none; stroke: rgb(140, 86, 75); stroke-opacity: 1; stroke-width: 2px;"/></g><g class="legendsymbols"><g class="legendpoints"/></g></g><rect class="legendtoggle" pointer-events="all" x="0" y="-9.5" width="98.046875" height="19" style="cursor: pointer; fill: rgb(0, 0, 0); fill-opacity: 0;"/></g></g></g><rect class="scrollbar" rx="20" ry="3" width="0" height="0" style="fill: rgb(128, 139, 164); fill-opacity: 1;" x="0" y="0"/></g><g class="g-gtitle"><text class="gtitle" x="350" y="12.5" text-anchor="middle" dy="0em" style="font-family: 'Open Sans', verdana, arial, sans-serif; font-size: 17px; fill: rgb(68, 68, 68); opacity: 1; font-weight: normal; white-space: pre;"><tspan style="font-weight:bold"> Leprosy Prevalence PB - Immunity Vaccine 0.99, Treatment 95% </tspan></text></g><g class="g-xtitle" transform="translate(0,-15)"><text class="xtitle" x="369.5" y="512" text-anchor="middle" style="font-family: 'Open Sans', verdana, arial, sans-serif; font-size: 14px; fill: rgb(68, 68, 68); opacity: 1; font-weight: normal; white-space: pre;">Time(Years)</text></g><g class="g-ytitle"><text class="ytitle" transform="rotate(-90,22,242.5)" x="22" y="242.5" text-anchor="middle" style="font-family: 'Open Sans', verdana, arial, sans-serif; font-size: 14px; fill: rgb(68, 68, 68); opacity: 1; font-weight: normal; white-space: pre;">Number of infectiuos individuals</text></g></g></svg>