<svg class="main-svg" xmlns="http://www.w3.org/2000/svg" xmlns:xlink="http://www.w3.org/1999/xlink" width="700" height="500" style="" viewBox="0 0 700 500"><rect x="0" y="0" width="700" height="500" style="fill: rgb(255, 255, 255); fill-opacity: 1;"/><defs id="defs-165c15"><g class="clips"><clipPath id="clip165c15xyplot" class="plotclip"><rect width="619" height="435"/></clipPath><clipPath class="axesclip" id="clip165c15x"><rect x="60" y="0" width="619" height="500"/></clipPath><clipPath class="axesclip" id="clip165c15y"><rect x="0" y="25" width="700" height="435"/></clipPath><clipPath class="axesclip" id="clip165c15xy"><rect x="60" y="25" width="619" height="435"/></clipPath></g><g class="gradients"/></defs><g class="bglayer"/><g class="layer-below"><g class="imagelayer"/><g class="shapelayer"/></g><g class="cartesianlayer"><g class="subplot xy"><g class="layer-subplot"><g class="shapelayer"/><g class="imagelayer"/></g><g class="gridlayer"><g class="x"><path class="xgrid crisp" transform="translate(212.42,0)" d="M0,25v435" style="stroke: rgb(238, 238, 238); stroke-opacity: 1; stroke-width: 1px;"/><path class="xgrid crisp" transform="translate(367.94,0)" d="M0,25v435" style="stroke: rgb(238, 238, 238); stroke-opacity: 1; stroke-width: 1px;"/><path class="xgrid crisp" transform="translate(523.47,0)" d="M0,25v435" style="stroke: rgb(238, 238, 238); stroke-opacity: 1; stroke-width: 1px;"/></g><g class="y"><path class="ygrid crisp" transform="translate(0,395.38)" d="M60,0h619" style="stroke: rgb(238, 238, 238); stroke-opacity: 1; stroke-width: 1px;"/><path class="ygrid crisp" transform="translate(0,347.28)" d="M60,0h619" style="stroke: rgb(238, 238, 238); stroke-opacity: 1; stroke-width: 1px;"/><path class="ygrid crisp" transform="translate(0,299.17)" d="M60,0h619" style="stroke: rgb(238, 238, 238); stroke-opacity: 1; stroke-width: 1px;"/><path class="ygrid crisp" transform="translate(0,251.07)" d="M60,0h619" style="stroke: rgb(238, 238, 238); stroke-opacity: 1; stroke-width: 1px;"/><path class="ygrid crisp" transform="translate(0,202.97)" d="M60,0h619" style="stroke: rgb(238, 238, 238); stroke-opacity: 1; stroke-width: 1px;"/><path class="ygrid crisp" transform="translate(0,154.87)" d="M60,0h619" style="stroke: rgb(238, 238, 238); stroke-opacity: 1; stroke-width: 1px;"/><path class="ygrid crisp" transform="translate(0,106.76)" d="M60,0h619" style="stroke: rgb(238, 238, 238); stroke-opacity: 1; stroke-width: 1px;"/><path class="ygrid crisp" transform="translate(0,58.66)" d="M60,0h619" style="stroke: rgb(238, 238, 238); stroke-opacity: 1; stroke-width: 1px;"/></g></g><g class="zerolinelayer"><path class="yzl zl crisp" transform="translate(0,443.48)" d="M60,0h619" style="stroke: rgb(68, 68, 68); stroke-opacity: 1; stroke-width: 1px;"/></g><path class="xlines-below"/><path class="ylines-below"/><g class="overlines-below"/><g class="xaxislayer-below"/><g class="yaxislayer-below"/><g class="overaxes-below"/><g class="plot" transform="translate(60, 25)" clip-path="url('#clip165c15xyplot')"><g class="scatterlayer mlayer"><g class="trace scatter trace0c6603" style="stroke-miterlimit: 2; opacity: 1;"><g class="fills"/><g class="errorbars"/><g class="lines"><path class="js-line" d="M0,355.54L6.22,369.79L9.33,328.1L31.11,282.79L34.22,277.03L40.44,266.82L43.55,263.55L62.21,242.26L65.32,239.3L74.65,229.7L77.76,226.84L96.43,208.55L99.54,205.92L136.86,173.2L139.97,171.18L146.2,165.36L149.31,163.62L158.64,156.41L161.75,153.71L174.19,142.4L177.3,140.35L183.52,136.33L186.63,132.79L189.74,130.94L192.85,127.98L199.08,120.88L202.19,117.41L205.3,115.3L208.41,112.11L211.52,108.59L214.63,106.39L233.29,88.96L236.4,85.49L261.29,63.98L264.4,60.7L276.84,51.14L279.95,47.53L292.39,37.05L295.5,33.39L304.83,25.7L307.94,21.75L317.28,99.43L320.39,120.41L329.72,181.06L332.83,198.41L339.05,230.79L342.16,245.24L348.38,269.26L351.49,277L357.71,289.25L360.82,294.43L385.71,330.63L388.82,334.07L407.48,352L410.59,354.29L416.81,359.24L419.92,361.82L429.26,368.27L432.37,370.4L447.92,379.27L451.03,380.55L463.47,385.81L466.58,386.99L485.25,393.62L488.36,394.51L503.91,399.26L507.02,400.04L516.35,401.85L519.46,402.44L531.9,404.83L535.02,405.24L563.01,408.91L566.12,409.32L600.34,412.23L603.45,412.57L619,413.25" style="vector-effect: non-scaling-stroke; fill: none; stroke: rgb(31, 119, 180); stroke-opacity: 1; stroke-width: 2px; opacity: 1;"/></g><g class="points"/><g class="text"/></g><g class="trace scatter trace46e954" style="stroke-miterlimit: 2; opacity: 1;"><g class="fills"/><g class="errorbars"/><g class="lines"><path class="js-line" d="M0,355.54L6.22,369.79L9.33,328.1L31.11,282.79L34.22,277.03L40.44,266.82L43.55,263.55L62.21,242.26L65.32,239.3L74.65,229.7L77.76,226.84L96.43,208.55L99.54,205.92L136.86,173.2L139.97,171.18L146.2,165.36L149.31,163.62L158.64,156.41L161.75,153.71L174.19,142.4L177.3,140.35L183.52,136.33L186.63,132.79L189.74,130.94L192.85,127.98L199.08,120.88L202.19,117.41L205.3,115.3L208.41,112.11L211.52,108.59L214.63,106.39L233.29,88.96L236.4,85.49L261.29,63.98L264.4,60.7L276.84,51.14L279.95,47.53L292.39,37.05L295.5,33.39L304.83,25.7L307.94,21.75L320.39,115.07L323.5,136.25L329.72,175.74L332.83,193.48L342.16,240.01L345.27,253.67L348.38,264.62L351.49,272.8L357.71,285L360.82,290.11L373.27,309.31L376.38,314.02L388.82,331.68L391.93,335.56L404.37,346.68L407.48,349.38L432.37,368.14L435.48,369.84L451.03,378.9L454.14,380.39L475.91,389.43L479.03,390.31L491.47,394.18L494.58,394.95L510.13,399.24L513.24,399.79L528.79,403.27L531.9,403.78L581.67,409.93L584.78,410.26L619,412.83" style="vector-effect: non-scaling-stroke; fill: none; stroke: rgb(255, 127, 14); stroke-opacity: 1; stroke-width: 2px; opacity: 1;"/></g><g class="points"/><g class="text"/></g><g class="trace scatter trace4dd707" style="stroke-miterlimit: 2; opacity: 1;"><g class="fills"/><g class="errorbars"/><g class="lines"><path class="js-line" d="M0,355.54L6.22,369.79L9.33,328.1L31.11,282.79L34.22,277.03L40.44,266.82L43.55,263.55L62.21,242.26L65.32,239.3L74.65,229.7L77.76,226.84L96.43,208.55L99.54,205.92L136.86,173.2L139.97,171.18L146.2,165.36L149.31,163.62L158.64,156.41L161.75,153.71L174.19,142.4L177.3,140.35L183.52,136.33L186.63,132.79L189.74,130.94L192.85,127.98L199.08,120.88L202.19,117.41L205.3,115.3L208.41,112.11L211.52,108.59L214.63,106.39L233.29,88.96L236.4,85.49L261.29,63.98L264.4,60.7L276.84,51.14L279.95,47.53L292.39,37.05L295.5,33.39L304.83,25.7L307.94,21.75L311.06,41.68L314.17,67.19L323.5,132.74L326.61,152.5L335.94,206.64L339.05,222.76L345.27,250.73L348.38,261.9L354.6,276.53L357.71,282.05L367.05,296.02L370.16,300.31L379.49,314.73L382.6,318.84L395.04,334.69L398.15,337.68L404.37,343.76L407.48,346.44L416.81,353.6L419.92,355.87L426.15,360.37L429.26,362.41L441.7,370.35L444.81,372.24L460.36,380.43L463.47,381.72L488.36,391.16L491.47,392.24L522.57,400.36L525.68,400.98L544.35,404.38L547.46,404.99L563.01,407.1L566.12,407.48L581.67,409.2L584.78,409.57L619,412.11" style="vector-effect: non-scaling-stroke; fill: none; stroke: rgb(44, 160, 44); stroke-opacity: 1; stroke-width: 2px; opacity: 1;"/></g><g class="points"/><g class="text"/></g><g class="trace scatter trace84d928" style="stroke-miterlimit: 2; opacity: 1;"><g class="fills"/><g class="errorbars"/><g class="lines"><path class="js-line" d="M0,355.54L6.22,369.79L9.33,328.1L31.11,282.79L34.22,277.03L40.44,266.82L43.55,263.55L62.21,242.26L65.32,239.3L74.65,229.7L77.76,226.84L96.43,208.55L99.54,205.92L136.86,173.2L139.97,171.18L146.2,165.36L149.31,163.62L158.64,156.41L161.75,153.71L174.19,142.4L177.3,140.35L183.52,136.33L186.63,132.79L189.74,130.94L192.85,127.98L199.08,120.88L202.19,117.41L205.3,115.3L208.41,112.11L211.52,108.59L214.63,106.39L233.29,88.96L236.4,85.49L261.29,63.98L264.4,60.7L276.84,51.14L279.95,47.53L292.39,37.05L295.5,33.39L304.83,25.7L307.94,21.75L311.06,34.33L314.17,59.45L323.5,127.3L326.61,146.48L335.94,200.36L339.05,216.37L345.27,245.24L348.38,256.86L354.6,271.55L357.71,277.3L382.6,314.09L385.71,318.19L395.04,329.79L398.15,333.28L410.59,345.35L413.7,347.36L423.04,354.67L426.15,357.3L435.48,364.12L438.59,366.24L444.81,370.02L447.92,372.05L485.25,388.8L488.36,389.81L494.58,391.98L497.69,392.76L519.46,398.1L522.57,398.7L541.24,402.51L544.35,403.12L572.34,407.26L575.45,407.68L619,411.65" style="vector-effect: non-scaling-stroke; fill: none; stroke: rgb(214, 39, 40); stroke-opacity: 1; stroke-width: 2px; opacity: 1;"/></g><g class="points"/><g class="text"/></g><g class="trace scatter trace679482" style="stroke-miterlimit: 2; opacity: 1;"><g class="fills"/><g class="errorbars"/><g class="lines"><path class="js-line" d="M0,355.54L6.22,369.79L9.33,328.1L31.11,282.79L34.22,277.03L40.44,266.82L43.55,263.55L62.21,242.26L65.32,239.3L74.65,229.7L77.76,226.84L96.43,208.55L99.54,205.92L136.86,173.2L139.97,171.18L146.2,165.36L149.31,163.62L158.64,156.41L161.75,153.71L174.19,142.4L177.3,140.35L183.52,136.33L186.63,132.79L189.74,130.94L192.85,127.98L199.08,120.88L202.19,117.41L205.3,115.3L208.41,112.11L211.52,108.59L214.63,106.39L233.29,88.96L236.4,85.49L261.29,63.98L264.4,60.7L276.84,51.14L279.95,47.53L292.39,37.05L295.5,33.39L304.83,25.7L307.94,21.75L311.06,26.39L314.17,43.52L329.72,149.06L332.83,167.86L342.16,216.33L345.27,231.74L348.38,245.12L351.49,255.15L357.71,266.32L360.82,271.33L370.16,283.36L373.27,288.17L379.49,296.68L382.6,301.58L391.93,315.39L395.04,319.36L407.48,332.76L410.59,335.39L438.59,357.15L441.7,359.23L451.03,364.57L454.14,366.72L466.58,373.55L469.69,375.03L491.47,384.03L494.58,384.97L516.35,392.27L519.46,393.14L528.79,395.56L531.9,396.31L553.68,400.87L556.79,401.27L566.12,403.15L569.23,403.51L597.23,407.17L600.34,407.35L619,409.04" style="vector-effect: non-scaling-stroke; fill: none; stroke: rgb(148, 103, 189); stroke-opacity: 1; stroke-width: 2px; opacity: 1;"/></g><g class="points"/><g class="text"/></g><g class="trace scatter trace4d5e7b" style="stroke-miterlimit: 2; opacity: 1;"><g class="fills"/><g class="errorbars"/><g class="lines"><path class="js-line" d="M0,355.54L6.22,369.79L9.33,328.1L31.11,282.79L34.22,277.03L40.44,266.82L43.55,263.55L62.21,242.26L65.32,239.3L74.65,229.7L77.76,226.84L96.43,208.55L99.54,205.92L136.86,173.2L139.97,171.18L146.2,165.36L149.31,163.62L158.64,156.41L161.75,153.71L174.19,142.4L177.3,140.35L183.52,136.33L186.63,132.79L189.74,130.94L192.85,127.98L199.08,120.88L202.19,117.41L205.3,115.3L208.41,112.11L211.52,108.59L214.63,106.39L233.29,88.96L236.4,85.49L261.29,63.98L264.4,60.7L276.84,51.14L279.95,47.53L292.39,37.05L295.5,33.39L304.83,25.7L307.94,21.75L311.06,23.98L314.17,34.32L320.39,73.72L323.5,95.03L332.83,152.91L335.94,170.44L345.27,216.94L348.38,229.95L354.6,249.28L357.71,255.66L373.27,276.03L376.38,280.56L395.04,306.83L398.15,310.86L401.26,314.89L404.37,317.69L410.59,323.83L413.7,326.17L429.26,339.39L432.37,341.38L454.14,358.14L457.25,360.04L469.69,367.95L472.8,369.45L500.8,381.54L503.91,382.73L519.46,387.81L522.57,388.26L538.13,392.76L541.24,393.67L556.79,397.31L559.9,397.92L572.34,400.36L575.45,400.91L619,406.93" style="vector-effect: non-scaling-stroke; fill: none; stroke: rgb(140, 86, 75); stroke-opacity: 1; stroke-width: 2px; opacity: 1;"/></g><g class="points"/><g class="text"/></g></g></g><g class="overplot"/><path class="xlines-above crisp" style="fill: none;" d="M0,0"/><path class="ylines-above crisp" style="fill: none;" d="M0,0"/><g class="overlines-above"/><g class="xaxislayer-above"><g class="xtick"><text text-anchor="middle" x="0" y="473" transform="translate(212.42,0)" style="font-family: 'Open Sans', verdana, arial, sans-serif; font-size: 12px; fill: rgb(68, 68, 68); fill-opacity: 1; white-space: pre;">50</text></g><g class="xtick"><text text-anchor="middle" x="0" y="473" transform="translate(367.94,0)" style="font-family: 'Open Sans', verdana, arial, sans-serif; font-size: 12px; fill: rgb(68, 68, 68); fill-opacity: 1; white-space: pre;">100</text></g><g class="xtick"><text text-anchor="middle" x="0" y="473" transform="translate(523.47,0)" style="font-family: 'Open Sans', verdana, arial, sans-serif; font-size: 12px; fill: rgb(68, 68, 68); fill-opacity: 1; white-space: pre;">150</text></g><g class="xtick"><text text-anchor="middle" x="0" y="473" transform="translate(679,0)" style="font-family: 'Open Sans', verdana, arial, sans-serif; font-size: 12px; fill: rgb(68, 68, 68); fill-opacity: 1; white-space: pre;">200</text></g></g><g class="yaxislayer-above"><g class="ytick"><text text-anchor="end" x="59" y="4.199999999999999" transform="translate(0,443.48)" style="font-family: 'Open Sans', verdana, arial, sans-serif; font-size: 12px; fill: rgb(68, 68, 68); fill-opacity: 1; white-space: pre;">0</text></g><g class="ytick"><text text-anchor="end" x="59" y="4.199999999999999" transform="translate(0,395.38)" style="font-family: 'Open Sans', verdana, arial, sans-serif; font-size: 12px; fill: rgb(68, 68, 68); fill-opacity: 1; white-space: pre;">100</text></g><g class="ytick"><text text-anchor="end" x="59" y="4.199999999999999" transform="translate(0,347.28)" style="font-family: 'Open Sans', verdana, arial, sans-serif; font-size: 12px; fill: rgb(68, 68, 68); fill-opacity: 1; white-space: pre;">200</text></g><g class="ytick"><text text-anchor="end" x="59" y="4.199999999999999" transform="translate(0,299.17)" style="font-family: 'Open Sans', verdana, arial, sans-serif; font-size: 12px; fill: rgb(68, 68, 68); fill-opacity: 1; white-space: pre;">300</text></g><g class="ytick"><text text-anchor="end" x="59" y="4.199999999999999" transform="translate(0,251.07)" style="font-family: 'Open Sans', verdana, arial, sans-serif; font-size: 12px; fill: rgb(68, 68, 68); fill-opacity: 1; white-space: pre;">400</text></g><g class="ytick"><text text-anchor="end" x="59" y="4.199999999999999" transform="translate(0,202.97)" style="font-family: 'Open Sans', verdana, arial, sans-serif; font-size: 12px; fill: rgb(68, 68, 68); fill-opacity: 1; white-space: pre;">500</text></g><g class="ytick"><text text-anchor="end" x="59" y="4.199999999999999" transform="translate(0,154.87)" style="font-family: 'Open Sans', verdana, arial, sans-serif; font-size: 12px; fill: rgb(68, 68, 68); fill-opacity: 1; white-space: pre;">600</text></g><g class="ytick"><text text-anchor="end" x="59" y="4.199999999999999" transform="translate(0,106.76)" style="font-family: 'Open Sans', verdana, arial, sans-serif; font-size: 12px; fill: rgb(68, 68, 68); fill-opacity: 1; white-space: pre;">700</text></g><g class="ytick"><text text-anchor="end" x="59" y="4.199999999999999" transform="translate(0,58.66)" style="font-family: 'Open Sans', verdana, arial, sans-serif; font-size: 12px; fill: rgb(68, 68, 68); fill-opacity: 1; white-space: pre;">800</text></g></g><g class="overaxes-above"/></g></g><g class="polarlayer"/><g class="ternarylayer"/><g class="geolayer"/><g class="funnelarealayer"/><g class="pielayer"/><g class="treemaplayer"/><g class="sunburstlayer"/><g class="glimages"/><defs id="topdefs-165c15"><g class="clips"/><clipPath id="legend165c15"><rect width="117" height="140" x="0" y="0"/></clipPath></defs><g class="layer-above"><g class="imagelayer"/><g class="shapelayer"/></g><g class="infolayer"><g class="legend" pointer-events="all" transform="translate(90.95, 46.750000000000014)"><rect class="bg" shape-rendering="crispEdges" style="stroke: rgb(68, 68, 68); stroke-opacity: 1; fill: rgb(226, 226, 226); fill-opacity: 1; stroke-width: 0px;" width="117" height="140" x="0" y="0"/><g class="scrollbox" transform="translate(0, 0)" clip-path="url('#legend165c15')"><text class="legendtitletext user-select-none" text-anchor="start" x="2" y="15.600000000000001" style="font-family: 'Open Sans', verdana, arial, sans-serif; font-size: 12px; fill: rgb(68, 68, 68); fill-opacity: 1; white-space: pre;"><tspan style="font-weight:bold"> Identification Time </tspan></text><g class="groups"><g class="traces" transform="translate(0, 30.1)" style="opacity: 1;"><text class="legendtext user-select-none" text-anchor="start" x="40" y="4.680000000000001" style="font-family: 'Open Sans', verdana, arial, sans-serif; font-size: 12px; fill: rgb(68, 68, 68); fill-opacity: 1; white-space: pre;">0 Months</text><g class="layers" style="opacity: 1;"><g class="legendfill"/><g class="legendlines"><path class="js-line" d="M5,0h30" style="fill: none; stroke: rgb(31, 119, 180); stroke-opacity: 1; stroke-width: 2px;"/></g><g class="legendsymbols"><g class="legendpoints"/></g></g><rect class="legendtoggle" pointer-events="all" x="0" y="-9.5" width="98.046875" height="19" style="cursor: pointer; fill: rgb(0, 0, 0); fill-opacity: 0;"/></g><g class="traces" transform="translate(0, 49.1)" style="opacity: 1;"><text class="legendtext user-select-none" text-anchor="start" x="40" y="4.680000000000001" style="font-family: 'Open Sans', verdana, arial, sans-serif; font-size: 12px; fill: rgb(68, 68, 68); fill-opacity: 1; white-space: pre;">3 Months</text><g class="layers" style="opacity: 1;"><g class="legendfill"/><g class="legendlines"><path class="js-line" d="M5,0h30" style="fill: none; stroke: rgb(255, 127, 14); stroke-opacity: 1; stroke-width: 2px;"/></g><g class="legendsymbols"><g class="legendpoints"/></g></g><rect class="legendtoggle" pointer-events="all" x="0" y="-9.5" width="98.046875" height="19" style="cursor: pointer; fill: rgb(0, 0, 0); fill-opacity: 0;"/></g><g class="traces" transform="translate(0, 68.1)" style="opacity: 1;"><text class="legendtext user-select-none" text-anchor="start" x="40" y="4.680000000000001" style="font-family: 'Open Sans', verdana, arial, sans-serif; font-size: 12px; fill: rgb(68, 68, 68); fill-opacity: 1; white-space: pre;">6 Months</text><g class="layers" style="opacity: 1;"><g class="legendfill"/><g class="legendlines"><path class="js-line" d="M5,0h30" style="fill: none; stroke: rgb(44, 160, 44); stroke-opacity: 1; stroke-width: 2px;"/></g><g class="legendsymbols"><g class="legendpoints"/></g></g><rect class="legendtoggle" pointer-events="all" x="0" y="-9.5" width="98.046875" height="19" style="cursor: pointer; fill: rgb(0, 0, 0); fill-opacity: 0;"/></g><g class="traces" transform="translate(0, 87.1)" style="opacity: 1;"><text class="legendtext user-select-none" text-anchor="start" x="40" y="4.680000000000001" style="font-family: 'Open Sans', verdana, arial, sans-serif; font-size: 12px; fill: rgb(68, 68, 68); fill-opacity: 1; white-space: pre;">12 Months</text><g class="layers" style="opacity: 1;"><g class="legendfill"/><g class="legendlines"><path class="js-line" d="M5,0h30" style="fill: none; stroke: rgb(214, 39, 40); stroke-opacity: 1; stroke-width: 2px;"/></g><g class="legendsymbols"><g class="legendpoints"/></g></g><rect class="legendtoggle" pointer-events="all" x="0" y="-9.5" width="98.046875" height="19" style="cursor: pointer; fill: rgb(0, 0, 0); fill-opacity: 0;"/></g><g class="traces" transform="translate(0, 106.1)" style="opacity: 1;"><text class="legendtext user-select-none" text-anchor="start" x="40" y="4.680000000000001" style="font-family: 'Open Sans', verdana, arial, sans-serif; font-size: 12px; fill: rgb(68, 68, 68); fill-opacity: 1; white-space: pre;">24 Months</text><g class="layers" style="opacity: 1;"><g class="legendfill"/><g class="legendlines"><path class="js-line" d="M5,0h30" style="fill: none; stroke: rgb(148, 103, 189); stroke-opacity: 1; stroke-width: 2px;"/></g><g class="legendsymbols"><g class="legendpoints"/></g></g><rect class="legendtoggle" pointer-events="all" x="0" y="-9.5" width="98.046875" height="19" style="cursor: pointer; fill: rgb(0, 0, 0); fill-opacity: 0;"/></g><g class="traces" transform="translate(0, 125.1)" style="opacity: 1;"><text class="legendtext user-select-none" text-anchor="start" x="40" y="4.680000000000001" style="font-family: 'Open Sans', verdana, arial, sans-serif; font-size: 12px; fill: rgb(68, 68, 68); fill-opacity: 1; white-space: pre;">36 Months</text><g class="layers" style="opacity: 1;"><g class="legendfill"/><g class="legendlines"><path class="js-line" d="M5,0h30" style="fill: none; stroke: rgb(140, 86, 75); stroke-opacity: 1; stroke-width: 2px;"/></g><g class="legendsymbols"><g class="legendpoints"/></g></g><rect class="legendtoggle" pointer-events="all" x="0" y="-9.5" width="98.046875" height="19" style="cursor: pointer; fill: rgb(0, 0, 0); fill-opacity: 0;"/></g></g></g><rect class="scrollbar" rx="20" ry="3" width="0" height="0" style="fill: rgb(128, 139, 164); fill-opacity: 1;" x="0" y="0"/></g><g class="g-gtitle"><text class="gtitle" x="350" y="12.5" text-anchor="middle" dy="0em" style="font-family: 'Open Sans', verdana, arial, sans-serif; font-size: 17px; fill: rgb(68, 68, 68); opacity: 1; font-weight: normal; white-space: pre;"><tspan style="font-weight:bold"> Leprosy Prevalence PB - Immunity Vaccine 0.5, Treatment 50% </tspan></text></g><g class="g-xtitle" transform="translate(0,-15)"><text class="xtitle" x="369.5" y="512" text-anchor="middle" style="font-family: 'Open Sans', verdana, arial, sans-serif; font-size: 14px; fill: rgb(68, 68, 68); opacity: 1; font-weight: normal; white-space: pre;">Time(Years)</text></g><g class="g-ytitle"><text class="ytitle" transform="rotate(-90,22,242.5)" x="22" y="242.5" text-anchor="middle" style="font-family: 'Open Sans', verdana, arial, sans-serif; font-size: 14px; fill: rgb(68, 68, 68); opacity: 1; font-weight: normal; white-space: pre;">Number of infectiuos individuals</text></g></g></svg>