<svg class="main-svg" xmlns="http://www.w3.org/2000/svg" xmlns:xlink="http://www.w3.org/1999/xlink" width="700" height="500" style="" viewBox="0 0 700 500"><rect x="0" y="0" width="700" height="500" style="fill: rgb(255, 255, 255); fill-opacity: 1;"/><defs id="defs-d22a15"><g class="clips"><clipPath id="clipd22a15xyplot" class="plotclip"><rect width="619" height="435"/></clipPath><clipPath class="axesclip" id="clipd22a15x"><rect x="60" y="0" width="619" height="500"/></clipPath><clipPath class="axesclip" id="clipd22a15y"><rect x="0" y="25" width="700" height="435"/></clipPath><clipPath class="axesclip" id="clipd22a15xy"><rect x="60" y="25" width="619" height="435"/></clipPath></g><g class="gradients"/></defs><g class="bglayer"/><g class="layer-below"><g class="imagelayer"/><g class="shapelayer"/></g><g class="cartesianlayer"><g class="subplot xy"><g class="layer-subplot"><g class="shapelayer"/><g class="imagelayer"/></g><g class="gridlayer"><g class="x"><path class="xgrid crisp" transform="translate(212.42,0)" d="M0,25v435" style="stroke: rgb(238, 238, 238); stroke-opacity: 1; stroke-width: 1px;"/><path class="xgrid crisp" transform="translate(367.94,0)" d="M0,25v435" style="stroke: rgb(238, 238, 238); stroke-opacity: 1; stroke-width: 1px;"/><path class="xgrid crisp" transform="translate(523.47,0)" d="M0,25v435" style="stroke: rgb(238, 238, 238); stroke-opacity: 1; stroke-width: 1px;"/></g><g class="y"><path class="ygrid crisp" transform="translate(0,385.43)" d="M60,0h619" style="stroke: rgb(238, 238, 238); stroke-opacity: 1; stroke-width: 1px;"/><path class="ygrid crisp" transform="translate(0,332.43)" d="M60,0h619" style="stroke: rgb(238, 238, 238); stroke-opacity: 1; stroke-width: 1px;"/><path class="ygrid crisp" transform="translate(0,279.41999999999996)" d="M60,0h619" style="stroke: rgb(238, 238, 238); stroke-opacity: 1; stroke-width: 1px;"/><path class="ygrid crisp" transform="translate(0,226.42)" d="M60,0h619" style="stroke: rgb(238, 238, 238); stroke-opacity: 1; stroke-width: 1px;"/><path class="ygrid crisp" transform="translate(0,173.42)" d="M60,0h619" style="stroke: rgb(238, 238, 238); stroke-opacity: 1; stroke-width: 1px;"/><path class="ygrid crisp" transform="translate(0,120.41)" d="M60,0h619" style="stroke: rgb(238, 238, 238); stroke-opacity: 1; stroke-width: 1px;"/><path class="ygrid crisp" transform="translate(0,67.41)" d="M60,0h619" style="stroke: rgb(238, 238, 238); stroke-opacity: 1; stroke-width: 1px;"/></g></g><g class="zerolinelayer"><path class="yzl zl crisp" transform="translate(0,438.43)" d="M60,0h619" style="stroke: rgb(68, 68, 68); stroke-opacity: 1; stroke-width: 1px;"/></g><path class="xlines-below"/><path class="ylines-below"/><g class="overlines-below"/><g class="xaxislayer-below"/><g class="yaxislayer-below"/><g class="overaxes-below"/><g class="plot" transform="translate(60, 25)" clip-path="url('#clipd22a15xyplot')"><g class="scatterlayer mlayer"><g class="trace scatter trace7a064b" style="stroke-miterlimit: 2; opacity: 1;"><g class="fills"/><g class="errorbars"/><g class="lines"><path class="js-line" d="M0,413.21L15.55,412.62L18.66,412.44L52.88,409.71L55.99,409.4L90.21,404.25L93.32,403.53L108.87,400.15L111.98,399.56L124.42,396.22L127.53,395.42L149.31,388.51L152.42,387.4L164.86,382.43L167.97,381.16L192.85,369.29L195.96,367.64L214.63,357.48L217.74,355.05L236.4,342.62L239.51,340.02L251.95,330.34L255.07,327.68L267.51,315.9L270.62,312.88L283.06,300.66L286.17,297.24L298.61,282.64L301.72,278.94L307.94,270.84L311.06,272.88L317.28,276.42L320.39,278.05L345.27,294.87L348.38,295.45L367.05,292.91L370.16,292.77L385.71,289.46L388.82,288.71L398.15,286.06L401.26,285.51L413.7,281.92L416.81,280.93L441.7,272.39L444.81,270.86L454.14,266.21L457.25,264.1L466.58,260.26L469.69,258.71L482.14,253.57L485.25,251.98L491.47,248.84L494.58,247.68L510.13,240.3L513.24,238.47L519.46,234.46L522.57,233L531.9,228.29L535.02,226.68L547.46,219.35L550.57,217.02L556.79,213.04L559.9,211.53L594.12,188.69L597.23,186.98L619,170.39" style="vector-effect: non-scaling-stroke; fill: none; stroke: rgb(31, 119, 180); stroke-opacity: 1; stroke-width: 2px; opacity: 1;"/></g><g class="points"/><g class="text"/></g><g class="trace scatter tracec869f3" style="stroke-miterlimit: 2; opacity: 1;"><g class="fills"/><g class="errorbars"/><g class="lines"><path class="js-line" d="M0,413.21L15.55,412.62L18.66,412.44L52.88,409.71L55.99,409.4L90.21,404.25L93.32,403.53L108.87,400.15L111.98,399.56L124.42,396.22L127.53,395.42L149.31,388.51L152.42,387.4L164.86,382.43L167.97,381.16L192.85,369.29L195.96,367.64L214.63,357.48L217.74,355.05L236.4,342.62L239.51,340.02L251.95,330.34L255.07,327.68L267.51,315.9L270.62,312.88L283.06,300.66L286.17,297.24L298.61,282.64L301.72,278.94L307.94,270.84L311.06,271.75L326.61,280.56L329.72,282.54L345.27,293.37L348.38,294.42L357.71,292.61L360.82,291.78L373.27,290.49L376.38,290.15L388.82,287.77L391.93,286.63L423.04,275.72L426.15,274.51L444.81,267.61L447.92,265.83L503.91,237.19L507.02,235.33L513.24,230.95L516.35,229.39L528.79,221.66L531.9,219.36L547.46,209.54L550.57,206.85L566.12,197.91L569.23,195.47L591.01,179.83L594.12,176.88L597.23,174.99L600.34,172.2L619,158.32" style="vector-effect: non-scaling-stroke; fill: none; stroke: rgb(255, 127, 14); stroke-opacity: 1; stroke-width: 2px; opacity: 1;"/></g><g class="points"/><g class="text"/></g><g class="trace scatter trace78fb64" style="stroke-miterlimit: 2; opacity: 1;"><g class="fills"/><g class="errorbars"/><g class="lines"><path class="js-line" d="M0,413.21L15.55,412.62L18.66,412.44L52.88,409.71L55.99,409.4L90.21,404.25L93.32,403.53L108.87,400.15L111.98,399.56L124.42,396.22L127.53,395.42L149.31,388.51L152.42,387.4L164.86,382.43L167.97,381.16L192.85,369.29L195.96,367.64L214.63,357.48L217.74,355.05L236.4,342.62L239.51,340.02L251.95,330.34L255.07,327.68L267.51,315.9L270.62,312.88L283.06,300.66L286.17,297.24L298.61,282.64L301.72,278.94L307.94,270.84L311.06,271.33L329.72,281.7L332.83,283.9L339.05,287.98L342.16,289.82L345.27,291.74L348.38,292.7L357.71,290.98L360.82,290.13L367.05,289.19L370.16,288.55L376.38,286.91L379.49,286.74L382.6,286.5L385.71,285.39L404.37,279.3L407.48,277.54L416.81,274.2L419.92,272.88L432.37,268.46L435.48,266.67L463.47,252.56L466.58,250.94L485.25,241.01L488.36,239.3L510.13,226.07L513.24,223.9L522.57,218.17L525.68,216.81L538.13,208.15L541.24,206.63L572.34,183.9L575.45,181.51L612.78,151.93L615.89,149.24L619,146.28" style="vector-effect: non-scaling-stroke; fill: none; stroke: rgb(44, 160, 44); stroke-opacity: 1; stroke-width: 2px; opacity: 1;"/></g><g class="points"/><g class="text"/></g><g class="trace scatter trace426c87" style="stroke-miterlimit: 2; opacity: 1;"><g class="fills"/><g class="errorbars"/><g class="lines"><path class="js-line" d="M0,413.21L15.55,412.62L18.66,412.44L52.88,409.71L55.99,409.4L90.21,404.25L93.32,403.53L108.87,400.15L111.98,399.56L124.42,396.22L127.53,395.42L149.31,388.51L152.42,387.4L164.86,382.43L167.97,381.16L192.85,369.29L195.96,367.64L214.63,357.48L217.74,355.05L236.4,342.62L239.51,340.02L251.95,330.34L255.07,327.68L267.51,315.9L270.62,312.88L283.06,300.66L286.17,297.24L298.61,282.64L301.72,278.94L307.94,270.84L311.06,269.71L323.5,276.28L326.61,278.39L345.27,288.84L348.38,289.71L363.93,286.1L367.05,285.19L370.16,284.08L373.27,283.79L388.82,279.38L391.93,278.2L404.37,272.64L407.48,271.65L419.92,265.88L423.04,264.65L432.37,260.52L435.48,258.54L451.03,250.28L454.14,249L463.47,243.35L466.58,241.01L472.8,237.13L475.91,235.64L503.91,216.45L507.02,214.01L519.46,206.28L522.57,203.61L531.9,197.2L535.02,194.84L559.9,174.29L563.01,172.26L572.34,164.06L575.45,160.72L594.12,144.73L597.23,141.7L619,121.11" style="vector-effect: non-scaling-stroke; fill: none; stroke: rgb(214, 39, 40); stroke-opacity: 1; stroke-width: 2px; opacity: 1;"/></g><g class="points"/><g class="text"/></g><g class="trace scatter tracec8435e" style="stroke-miterlimit: 2; opacity: 1;"><g class="fills"/><g class="errorbars"/><g class="lines"><path class="js-line" d="M0,413.21L15.55,412.62L18.66,412.44L52.88,409.71L55.99,409.4L90.21,404.25L93.32,403.53L108.87,400.15L111.98,399.56L124.42,396.22L127.53,395.42L149.31,388.51L152.42,387.4L164.86,382.43L167.97,381.16L192.85,369.29L195.96,367.64L214.63,357.48L217.74,355.05L236.4,342.62L239.51,340.02L251.95,330.34L255.07,327.68L267.51,315.9L270.62,312.88L283.06,300.66L286.17,297.24L298.61,282.64L301.72,278.94L311.06,268.05L314.17,268.04L320.39,269.85L323.5,271.31L329.72,274.6L332.83,275.89L339.05,278.96L342.16,280.46L348.38,282.6L351.49,281.93L357.71,279.93L360.82,278.78L376.38,272.67L379.49,271.15L388.82,268.16L391.93,266.54L419.92,251.96L423.04,249.95L435.48,242.4L438.59,240.05L457.25,227.35L460.36,224.92L472.8,216.24L475.91,213.78L485.25,207.87L488.36,204.75L497.69,197.7L500.8,195.24L507.02,189.82L510.13,187.46L535.02,163.8L538.13,161.09L559.9,139.75L563.01,135.85L597.23,99.16L600.34,94.75L619,72.91" style="vector-effect: non-scaling-stroke; fill: none; stroke: rgb(148, 103, 189); stroke-opacity: 1; stroke-width: 2px; opacity: 1;"/></g><g class="points"/><g class="text"/></g><g class="trace scatter trace3591b6" style="stroke-miterlimit: 2; opacity: 1;"><g class="fills"/><g class="errorbars"/><g class="lines"><path class="js-line" d="M0,413.21L15.55,412.62L18.66,412.44L52.88,409.71L55.99,409.4L90.21,404.25L93.32,403.53L108.87,400.15L111.98,399.56L124.42,396.22L127.53,395.42L149.31,388.51L152.42,387.4L164.86,382.43L167.97,381.16L192.85,369.29L195.96,367.64L214.63,357.48L217.74,355.05L236.4,342.62L239.51,340.02L251.95,330.34L255.07,327.68L267.51,315.9L270.62,312.88L283.06,300.66L286.17,297.24L298.61,282.64L301.72,278.94L311.06,267.73L314.17,266.53L320.39,267.11L323.5,268.5L332.83,272.58L335.94,273.26L345.27,276.19L348.38,277.33L351.49,277.71L354.6,276.93L367.05,271L370.16,269.48L385.71,262.17L388.82,260.63L401.26,253.32L404.37,251.37L416.81,243.46L419.92,241.33L438.59,226.77L441.7,224.5L454.14,215.4L457.25,212.63L472.8,198.93L475.91,195.56L494.58,178.5L497.69,175.68L510.13,162.22L513.24,159.48L525.68,145.79L528.79,142.64L550.57,117.32L553.68,113.2L563.01,102.18L566.12,98.19L587.89,68.25L591.01,62.81L619,21.75" style="vector-effect: non-scaling-stroke; fill: none; stroke: rgb(140, 86, 75); stroke-opacity: 1; stroke-width: 2px; opacity: 1;"/></g><g class="points"/><g class="text"/></g></g></g><g class="overplot"/><path class="xlines-above crisp" style="fill: none;" d="M0,0"/><path class="ylines-above crisp" style="fill: none;" d="M0,0"/><g class="overlines-above"/><g class="xaxislayer-above"><g class="xtick"><text text-anchor="middle" x="0" y="473" transform="translate(212.42,0)" style="font-family: 'Open Sans', verdana, arial, sans-serif; font-size: 12px; fill: rgb(68, 68, 68); fill-opacity: 1; white-space: pre;">50</text></g><g class="xtick"><text text-anchor="middle" x="0" y="473" transform="translate(367.94,0)" style="font-family: 'Open Sans', verdana, arial, sans-serif; font-size: 12px; fill: rgb(68, 68, 68); fill-opacity: 1; white-space: pre;">100</text></g><g class="xtick"><text text-anchor="middle" x="0" y="473" transform="translate(523.47,0)" style="font-family: 'Open Sans', verdana, arial, sans-serif; font-size: 12px; fill: rgb(68, 68, 68); fill-opacity: 1; white-space: pre;">150</text></g><g class="xtick"><text text-anchor="middle" x="0" y="473" transform="translate(679,0)" style="font-family: 'Open Sans', verdana, arial, sans-serif; font-size: 12px; fill: rgb(68, 68, 68); fill-opacity: 1; white-space: pre;">200</text></g></g><g class="yaxislayer-above"><g class="ytick"><text text-anchor="end" x="59" y="4.199999999999999" transform="translate(0,438.43)" style="font-family: 'Open Sans', verdana, arial, sans-serif; font-size: 12px; fill: rgb(68, 68, 68); fill-opacity: 1; white-space: pre;">0</text></g><g class="ytick"><text text-anchor="end" x="59" y="4.199999999999999" transform="translate(0,385.43)" style="font-family: 'Open Sans', verdana, arial, sans-serif; font-size: 12px; fill: rgb(68, 68, 68); fill-opacity: 1; white-space: pre;">200</text></g><g class="ytick"><text text-anchor="end" x="59" y="4.199999999999999" transform="translate(0,332.43)" style="font-family: 'Open Sans', verdana, arial, sans-serif; font-size: 12px; fill: rgb(68, 68, 68); fill-opacity: 1; white-space: pre;">400</text></g><g class="ytick"><text text-anchor="end" x="59" y="4.199999999999999" transform="translate(0,279.41999999999996)" style="font-family: 'Open Sans', verdana, arial, sans-serif; font-size: 12px; fill: rgb(68, 68, 68); fill-opacity: 1; white-space: pre;">600</text></g><g class="ytick"><text text-anchor="end" x="59" y="4.199999999999999" transform="translate(0,226.42)" style="font-family: 'Open Sans', verdana, arial, sans-serif; font-size: 12px; fill: rgb(68, 68, 68); fill-opacity: 1; white-space: pre;">800</text></g><g class="ytick"><text text-anchor="end" x="59" y="4.199999999999999" transform="translate(0,173.42)" style="font-family: 'Open Sans', verdana, arial, sans-serif; font-size: 12px; fill: rgb(68, 68, 68); fill-opacity: 1; white-space: pre;">1000</text></g><g class="ytick"><text text-anchor="end" x="59" y="4.199999999999999" transform="translate(0,120.41)" style="font-family: 'Open Sans', verdana, arial, sans-serif; font-size: 12px; fill: rgb(68, 68, 68); fill-opacity: 1; white-space: pre;">1200</text></g><g class="ytick"><text text-anchor="end" x="59" y="4.199999999999999" transform="translate(0,67.41)" style="font-family: 'Open Sans', verdana, arial, sans-serif; font-size: 12px; fill: rgb(68, 68, 68); fill-opacity: 1; white-space: pre;">1400</text></g></g><g class="overaxes-above"/></g></g><g class="polarlayer"/><g class="ternarylayer"/><g class="geolayer"/><g class="funnelarealayer"/><g class="pielayer"/><g class="treemaplayer"/><g class="sunburstlayer"/><g class="glimages"/><defs id="topdefs-d22a15"><g class="clips"/><clipPath id="legendd22a15"><rect width="117" height="140" x="0" y="0"/></clipPath></defs><g class="layer-above"><g class="imagelayer"/><g class="shapelayer"/></g><g class="infolayer"><g class="legend" pointer-events="all" transform="translate(90.95, 46.750000000000014)"><rect class="bg" shape-rendering="crispEdges" style="stroke: rgb(68, 68, 68); stroke-opacity: 1; fill: rgb(226, 226, 226); fill-opacity: 1; stroke-width: 0px;" width="117" height="140" x="0" y="0"/><g class="scrollbox" transform="translate(0, 0)" clip-path="url('#legendd22a15')"><text class="legendtitletext user-select-none" text-anchor="start" x="2" y="15.600000000000001" style="font-family: 'Open Sans', verdana, arial, sans-serif; font-size: 12px; fill: rgb(68, 68, 68); fill-opacity: 1; white-space: pre;"><tspan style="font-weight:bold"> Identification Time </tspan></text><g class="groups"><g class="traces" transform="translate(0, 30.1)" style="opacity: 1;"><text class="legendtext user-select-none" text-anchor="start" x="40" y="4.680000000000001" style="font-family: 'Open Sans', verdana, arial, sans-serif; font-size: 12px; fill: rgb(68, 68, 68); fill-opacity: 1; white-space: pre;">0 Months</text><g class="layers" style="opacity: 1;"><g class="legendfill"/><g class="legendlines"><path class="js-line" d="M5,0h30" style="fill: none; stroke: rgb(31, 119, 180); stroke-opacity: 1; stroke-width: 2px;"/></g><g class="legendsymbols"><g class="legendpoints"/></g></g><rect class="legendtoggle" pointer-events="all" x="0" y="-9.5" width="98.046875" height="19" style="cursor: pointer; fill: rgb(0, 0, 0); fill-opacity: 0;"/></g><g class="traces" transform="translate(0, 49.1)" style="opacity: 1;"><text class="legendtext user-select-none" text-anchor="start" x="40" y="4.680000000000001" style="font-family: 'Open Sans', verdana, arial, sans-serif; font-size: 12px; fill: rgb(68, 68, 68); fill-opacity: 1; white-space: pre;">3 Months</text><g class="layers" style="opacity: 1;"><g class="legendfill"/><g class="legendlines"><path class="js-line" d="M5,0h30" style="fill: none; stroke: rgb(255, 127, 14); stroke-opacity: 1; stroke-width: 2px;"/></g><g class="legendsymbols"><g class="legendpoints"/></g></g><rect class="legendtoggle" pointer-events="all" x="0" y="-9.5" width="98.046875" height="19" style="cursor: pointer; fill: rgb(0, 0, 0); fill-opacity: 0;"/></g><g class="traces" transform="translate(0, 68.1)" style="opacity: 1;"><text class="legendtext user-select-none" text-anchor="start" x="40" y="4.680000000000001" style="font-family: 'Open Sans', verdana, arial, sans-serif; font-size: 12px; fill: rgb(68, 68, 68); fill-opacity: 1; white-space: pre;">6 Months</text><g class="layers" style="opacity: 1;"><g class="legendfill"/><g class="legendlines"><path class="js-line" d="M5,0h30" style="fill: none; stroke: rgb(44, 160, 44); stroke-opacity: 1; stroke-width: 2px;"/></g><g class="legendsymbols"><g class="legendpoints"/></g></g><rect class="legendtoggle" pointer-events="all" x="0" y="-9.5" width="98.046875" height="19" style="cursor: pointer; fill: rgb(0, 0, 0); fill-opacity: 0;"/></g><g class="traces" transform="translate(0, 87.1)" style="opacity: 1;"><text class="legendtext user-select-none" text-anchor="start" x="40" y="4.680000000000001" style="font-family: 'Open Sans', verdana, arial, sans-serif; font-size: 12px; fill: rgb(68, 68, 68); fill-opacity: 1; white-space: pre;">12 Months</text><g class="layers" style="opacity: 1;"><g class="legendfill"/><g class="legendlines"><path class="js-line" d="M5,0h30" style="fill: none; stroke: rgb(214, 39, 40); stroke-opacity: 1; stroke-width: 2px;"/></g><g class="legendsymbols"><g class="legendpoints"/></g></g><rect class="legendtoggle" pointer-events="all" x="0" y="-9.5" width="98.046875" height="19" style="cursor: pointer; fill: rgb(0, 0, 0); fill-opacity: 0;"/></g><g class="traces" transform="translate(0, 106.1)" style="opacity: 1;"><text class="legendtext user-select-none" text-anchor="start" x="40" y="4.680000000000001" style="font-family: 'Open Sans', verdana, arial, sans-serif; font-size: 12px; fill: rgb(68, 68, 68); fill-opacity: 1; white-space: pre;">24 Months</text><g class="layers" style="opacity: 1;"><g class="legendfill"/><g class="legendlines"><path class="js-line" d="M5,0h30" style="fill: none; stroke: rgb(148, 103, 189); stroke-opacity: 1; stroke-width: 2px;"/></g><g class="legendsymbols"><g class="legendpoints"/></g></g><rect class="legendtoggle" pointer-events="all" x="0" y="-9.5" width="98.046875" height="19" style="cursor: pointer; fill: rgb(0, 0, 0); fill-opacity: 0;"/></g><g class="traces" transform="translate(0, 125.1)" style="opacity: 1;"><text class="legendtext user-select-none" text-anchor="start" x="40" y="4.680000000000001" style="font-family: 'Open Sans', verdana, arial, sans-serif; font-size: 12px; fill: rgb(68, 68, 68); fill-opacity: 1; white-space: pre;">36 Months</text><g class="layers" style="opacity: 1;"><g class="legendfill"/><g class="legendlines"><path class="js-line" d="M5,0h30" style="fill: none; stroke: rgb(140, 86, 75); stroke-opacity: 1; stroke-width: 2px;"/></g><g class="legendsymbols"><g class="legendpoints"/></g></g><rect class="legendtoggle" pointer-events="all" x="0" y="-9.5" width="98.046875" height="19" style="cursor: pointer; fill: rgb(0, 0, 0); fill-opacity: 0;"/></g></g></g><rect class="scrollbar" rx="20" ry="3" width="0" height="0" style="fill: rgb(128, 139, 164); fill-opacity: 1;" x="0" y="0"/></g><g class="g-gtitle"><text class="gtitle" x="350" y="12.5" text-anchor="middle" dy="0em" style="font-family: 'Open Sans', verdana, arial, sans-serif; font-size: 17px; fill: rgb(68, 68, 68); opacity: 1; font-weight: normal; white-space: pre;"><tspan style="font-weight:bold"> Leprosy Prevalence MB - Immunity Vaccine 0.5, Treatment 25% </tspan></text></g><g class="g-xtitle" transform="translate(0,-15)"><text class="xtitle" x="369.5" y="512" text-anchor="middle" style="font-family: 'Open Sans', verdana, arial, sans-serif; font-size: 14px; fill: rgb(68, 68, 68); opacity: 1; font-weight: normal; white-space: pre;">Time(Years)</text></g><g class="g-ytitle"><text class="ytitle" transform="rotate(-90,22,242.5)" x="22" y="242.5" text-anchor="middle" style="font-family: 'Open Sans', verdana, arial, sans-serif; font-size: 14px; fill: rgb(68, 68, 68); opacity: 1; font-weight: normal; white-space: pre;">Number of infectiuos individuals</text></g></g></svg>