<svg class="main-svg" xmlns="http://www.w3.org/2000/svg" xmlns:xlink="http://www.w3.org/1999/xlink" width="700" height="500" style="" viewBox="0 0 700 500"><rect x="0" y="0" width="700" height="500" style="fill: rgb(255, 255, 255); fill-opacity: 1;"/><defs id="defs-140519"><g class="clips"><clipPath id="clip140519xyplot" class="plotclip"><rect width="619" height="435"/></clipPath><clipPath class="axesclip" id="clip140519x"><rect x="60" y="0" width="619" height="500"/></clipPath><clipPath class="axesclip" id="clip140519y"><rect x="0" y="25" width="700" height="435"/></clipPath><clipPath class="axesclip" id="clip140519xy"><rect x="60" y="25" width="619" height="435"/></clipPath></g><g class="gradients"/></defs><g class="bglayer"/><g class="layer-below"><g class="imagelayer"/><g class="shapelayer"/></g><g class="cartesianlayer"><g class="subplot xy"><g class="layer-subplot"><g class="shapelayer"/><g class="imagelayer"/></g><g class="gridlayer"><g class="x"><path class="xgrid crisp" transform="translate(212.42,0)" d="M0,25v435" style="stroke: rgb(238, 238, 238); stroke-opacity: 1; stroke-width: 1px;"/><path class="xgrid crisp" transform="translate(367.94,0)" d="M0,25v435" style="stroke: rgb(238, 238, 238); stroke-opacity: 1; stroke-width: 1px;"/><path class="xgrid crisp" transform="translate(523.47,0)" d="M0,25v435" style="stroke: rgb(238, 238, 238); stroke-opacity: 1; stroke-width: 1px;"/></g><g class="y"><path class="ygrid crisp" transform="translate(0,365.89)" d="M60,0h619" style="stroke: rgb(238, 238, 238); stroke-opacity: 1; stroke-width: 1px;"/><path class="ygrid crisp" transform="translate(0,293.27)" d="M60,0h619" style="stroke: rgb(238, 238, 238); stroke-opacity: 1; stroke-width: 1px;"/><path class="ygrid crisp" transform="translate(0,220.66)" d="M60,0h619" style="stroke: rgb(238, 238, 238); stroke-opacity: 1; stroke-width: 1px;"/><path class="ygrid crisp" transform="translate(0,148.04000000000002)" d="M60,0h619" style="stroke: rgb(238, 238, 238); stroke-opacity: 1; stroke-width: 1px;"/><path class="ygrid crisp" transform="translate(0,75.43)" d="M60,0h619" style="stroke: rgb(238, 238, 238); stroke-opacity: 1; stroke-width: 1px;"/></g></g><g class="zerolinelayer"><path class="yzl zl crisp" transform="translate(0,438.5)" d="M60,0h619" style="stroke: rgb(68, 68, 68); stroke-opacity: 1; stroke-width: 1px;"/></g><path class="xlines-below"/><path class="ylines-below"/><g class="overlines-below"/><g class="xaxislayer-below"/><g class="yaxislayer-below"/><g class="overaxes-below"/><g class="plot" transform="translate(60, 25)" clip-path="url('#clip140519xyplot')"><g class="scatterlayer mlayer"><g class="trace scatter trace89c886" style="stroke-miterlimit: 2; opacity: 1;"><g class="fills"/><g class="errorbars"/><g class="lines"><path class="js-line" d="M0,412.89L6.22,413L9.33,412.04L31.11,408.58L34.22,407.95L55.99,402.43L59.1,401.26L77.76,394.16L80.87,392.73L96.43,384.91L99.54,382.9L118.2,371.16L121.31,368.8L146.2,348.5L149.31,345.21L161.75,332.91L164.86,328.55L177.3,313.64L180.41,308.93L192.85,292.54L195.96,288.01L211.52,265.24L214.63,260.18L220.85,248.16L223.96,242.59L236.4,219.46L239.51,212.35L248.84,192.72L251.95,185.83L264.4,155.42L267.51,146.25L283.06,104.51L286.17,95.14L292.39,75.99L295.5,64.96L304.83,34.08L307.94,22.79L314.17,116.16L317.28,154.64L323.5,217.83L326.61,243.85L332.83,286.95L335.94,304.56L342.16,332.76L345.27,344.36L351.49,358.22L354.6,363.64L367.05,381.48L370.16,384.79L379.49,393.41L382.6,395.84L388.82,398.53L391.93,399.14L398.15,400.48L401.26,401.38L426.15,407.71L429.26,407.94L444.81,409.16L447.92,409.66L475.91,411.58L479.03,411.65L507.02,412.53L510.13,412.56L566.12,413.13L569.23,413.14L619,413.23" style="vector-effect: non-scaling-stroke; fill: none; stroke: rgb(31, 119, 180); stroke-opacity: 1; stroke-width: 2px; opacity: 1;"/></g><g class="points"/><g class="text"/></g><g class="trace scatter trace26a1aa" style="stroke-miterlimit: 2; opacity: 1;"><g class="fills"/><g class="errorbars"/><g class="lines"><path class="js-line" d="M0,412.89L6.22,413L9.33,412.04L31.11,408.58L34.22,407.95L55.99,402.43L59.1,401.26L77.76,394.16L80.87,392.73L96.43,384.91L99.54,382.9L118.2,371.16L121.31,368.8L146.2,348.5L149.31,345.21L161.75,332.91L164.86,328.55L177.3,313.64L180.41,308.93L192.85,292.54L195.96,288.01L211.52,265.24L214.63,260.18L220.85,248.16L223.96,242.59L236.4,219.46L239.51,212.35L248.84,192.72L251.95,185.83L264.4,155.42L267.51,146.25L283.06,104.51L286.17,95.14L292.39,75.99L295.5,64.96L304.83,34.08L307.94,22.79L317.28,148.41L320.39,182.4L326.61,239.69L329.72,262.6L335.94,300.98L339.05,317.09L345.27,342.4L348.38,348.16L360.82,369.97L363.93,375.01L373.27,387.06L376.38,390.02L382.6,395.39L385.71,396.91L401.26,399.56L404.37,400.86L423.04,406.64L426.15,406.92L438.59,407.59L441.7,408.25L466.58,410.87L469.69,410.8L578.56,413.13L581.67,413.11L619,413.22" style="vector-effect: non-scaling-stroke; fill: none; stroke: rgb(255, 127, 14); stroke-opacity: 1; stroke-width: 2px; opacity: 1;"/></g><g class="points"/><g class="text"/></g><g class="trace scatter trace9282f4" style="stroke-miterlimit: 2; opacity: 1;"><g class="fills"/><g class="errorbars"/><g class="lines"><path class="js-line" d="M0,412.89L6.22,413L9.33,412.04L31.11,408.58L34.22,407.95L55.99,402.43L59.1,401.26L77.76,394.16L80.87,392.73L96.43,384.91L99.54,382.9L118.2,371.16L121.31,368.8L146.2,348.5L149.31,345.21L161.75,332.91L164.86,328.55L177.3,313.64L180.41,308.93L192.85,292.54L195.96,288.01L211.52,265.24L214.63,260.18L220.85,248.16L223.96,242.59L236.4,219.46L239.51,212.35L248.84,192.72L251.95,185.83L264.4,155.42L267.51,146.25L283.06,104.51L286.17,95.14L292.39,75.99L295.5,64.96L304.83,34.08L307.94,22.79L311.06,57.64L314.17,102.52L320.39,175.64L323.5,207.48L329.72,258.85L332.83,279.9L339.05,314L342.16,327.73L345.27,339.67L348.38,344.28L351.49,348.41L354.6,354.42L370.16,380.21L373.27,383.78L379.49,390.45L382.6,393.1L385.71,394.77L388.82,394.61L395.04,395.3L398.15,396.19L423.04,405.22L426.15,405.78L435.48,405.58L438.59,406.06L472.8,410.02L475.91,409.94L513.24,411.99L516.35,411.96L547.46,412.75L550.57,412.67L619,413.16" style="vector-effect: non-scaling-stroke; fill: none; stroke: rgb(44, 160, 44); stroke-opacity: 1; stroke-width: 2px; opacity: 1;"/></g><g class="points"/><g class="text"/></g><g class="trace scatter trace3de712" style="stroke-miterlimit: 2; opacity: 1;"><g class="fills"/><g class="errorbars"/><g class="lines"><path class="js-line" d="M0,412.89L6.22,413L9.33,412.04L31.11,408.58L34.22,407.95L55.99,402.43L59.1,401.26L77.76,394.16L80.87,392.73L96.43,384.91L99.54,382.9L118.2,371.16L121.31,368.8L146.2,348.5L149.31,345.21L161.75,332.91L164.86,328.55L177.3,313.64L180.41,308.93L192.85,292.54L195.96,288.01L211.52,265.24L214.63,260.18L220.85,248.16L223.96,242.59L236.4,219.46L239.51,212.35L248.84,192.72L251.95,185.83L264.4,155.42L267.51,146.25L283.06,104.51L286.17,95.14L292.39,75.99L295.5,64.96L304.83,34.08L307.94,22.79L311.06,41.23L314.17,87.31L323.5,197.79L326.61,226.25L332.83,272.74L335.94,292.15L342.16,323.96L345.27,336.64L348.38,342.92L351.49,341.52L354.6,345.4L357.71,351.18L363.93,362.35L367.05,368.43L373.27,378.53L376.38,382.36L382.6,389.09L385.71,392.09L388.82,392.67L391.93,390.74L395.04,390.26L398.15,390.71L401.26,391.56L404.37,393.23L419.92,401.23L423.04,402.44L429.26,403.89L432.37,403.43L438.59,403.2L441.7,403.28L454.14,406.34L457.25,406.99L463.47,408.13L466.58,408.5L472.8,409L475.91,408.87L491.47,409.55L494.58,409.97L507.02,411.12L510.13,411.19L528.79,411.53L531.9,411.69L569.23,412.51L572.34,412.52L606.56,412.91L609.67,412.87L619,412.96" style="vector-effect: non-scaling-stroke; fill: none; stroke: rgb(214, 39, 40); stroke-opacity: 1; stroke-width: 2px; opacity: 1;"/></g><g class="points"/><g class="text"/></g><g class="trace scatter trace3a5f01" style="stroke-miterlimit: 2; opacity: 1;"><g class="fills"/><g class="errorbars"/><g class="lines"><path class="js-line" d="M0,412.89L6.22,413L9.33,412.04L31.11,408.58L34.22,407.95L55.99,402.43L59.1,401.26L77.76,394.16L80.87,392.73L96.43,384.91L99.54,382.9L118.2,371.16L121.31,368.8L146.2,348.5L149.31,345.21L161.75,332.91L164.86,328.55L177.3,313.64L180.41,308.93L192.85,292.54L195.96,288.01L211.52,265.24L214.63,260.18L220.85,248.16L223.96,242.59L236.4,219.46L239.51,212.35L248.84,192.72L251.95,185.83L264.4,155.42L267.51,146.25L283.06,104.51L286.17,95.14L292.39,75.99L295.5,64.96L304.83,34.08L307.94,22.79L311.06,26.5L314.17,57.95L323.5,172.67L326.61,204.79L332.83,257.53L335.94,278.73L342.16,314L345.27,327.94L348.38,336.91L351.49,337.05L354.6,332.98L357.71,332.81L363.93,343.82L367.05,351.1L373.27,363.78L376.38,369.53L382.6,379.26L385.71,383.21L388.82,385.74L391.93,386.03L398.15,381.64L401.26,380.78L404.37,381.13L407.48,383.34L410.59,384.94L413.7,387.41L419.92,391.84L423.04,394.12L429.26,398.16L432.37,398.62L438.59,398.19L441.7,397.39L447.92,397.58L451.03,398.35L460.36,401.11L463.47,402.04L472.8,404.74L475.91,405.03L485.25,405.55L488.36,405.3L528.79,409.19L531.9,409.2L563.01,410.97L566.12,410.97L619,412.05" style="vector-effect: non-scaling-stroke; fill: none; stroke: rgb(148, 103, 189); stroke-opacity: 1; stroke-width: 2px; opacity: 1;"/></g><g class="points"/><g class="text"/></g><g class="trace scatter trace448b53" style="stroke-miterlimit: 2; opacity: 1;"><g class="fills"/><g class="errorbars"/><g class="lines"><path class="js-line" d="M0,412.89L6.22,413L9.33,412.04L31.11,408.58L34.22,407.95L55.99,402.43L59.1,401.26L77.76,394.16L80.87,392.73L96.43,384.91L99.54,382.9L118.2,371.16L121.31,368.8L146.2,348.5L149.31,345.21L161.75,332.91L164.86,328.55L177.3,313.64L180.41,308.93L192.85,292.54L195.96,288.01L211.52,265.24L214.63,260.18L220.85,248.16L223.96,242.59L236.4,219.46L239.51,212.35L248.84,192.72L251.95,185.83L264.4,155.42L267.51,146.25L283.06,104.51L286.17,95.14L292.39,75.99L295.5,64.96L304.83,34.08L307.94,22.79L311.06,21.75L314.17,39.34L320.39,106.52L323.5,145.48L329.72,211.83L332.83,239.52L339.05,282.79L342.16,301.02L348.38,328.33L351.49,331.86L354.6,329.17L357.71,324.74L360.82,323.22L363.93,325.51L370.16,337.73L373.27,345.91L382.6,364.68L385.71,369.95L388.82,375.32L391.93,377.79L395.04,378.77L398.15,377.13L404.37,372.83L407.48,372.45L413.7,375.32L416.81,377.68L429.26,387.75L432.37,389.6L435.48,391.68L438.59,392.51L444.81,392.43L447.92,391.72L454.14,391.54L457.25,392.03L463.47,393.79L466.58,394.7L472.8,397.29L475.91,398.51L485.25,401.14L488.36,401.12L494.58,401.4L497.69,401.68L510.13,402.8L513.24,403.15L519.46,404.26L522.57,404.52L538.13,406.33L541.24,406.29L550.57,406.89L553.68,407.46L559.9,407.55L563.01,407.88L594.12,409.75L597.23,409.71L619,410.08" style="vector-effect: non-scaling-stroke; fill: none; stroke: rgb(140, 86, 75); stroke-opacity: 1; stroke-width: 2px; opacity: 1;"/></g><g class="points"/><g class="text"/></g></g></g><g class="overplot"/><path class="xlines-above crisp" style="fill: none;" d="M0,0"/><path class="ylines-above crisp" style="fill: none;" d="M0,0"/><g class="overlines-above"/><g class="xaxislayer-above"><g class="xtick"><text text-anchor="middle" x="0" y="473" transform="translate(212.42,0)" style="font-family: 'Open Sans', verdana, arial, sans-serif; font-size: 12px; fill: rgb(68, 68, 68); fill-opacity: 1; white-space: pre;">50</text></g><g class="xtick"><text text-anchor="middle" x="0" y="473" transform="translate(367.94,0)" style="font-family: 'Open Sans', verdana, arial, sans-serif; font-size: 12px; fill: rgb(68, 68, 68); fill-opacity: 1; white-space: pre;">100</text></g><g class="xtick"><text text-anchor="middle" x="0" y="473" transform="translate(523.47,0)" style="font-family: 'Open Sans', verdana, arial, sans-serif; font-size: 12px; fill: rgb(68, 68, 68); fill-opacity: 1; white-space: pre;">150</text></g><g class="xtick"><text text-anchor="middle" x="0" y="473" transform="translate(679,0)" style="font-family: 'Open Sans', verdana, arial, sans-serif; font-size: 12px; fill: rgb(68, 68, 68); fill-opacity: 1; white-space: pre;">200</text></g></g><g class="yaxislayer-above"><g class="ytick"><text text-anchor="end" x="59" y="4.199999999999999" transform="translate(0,438.5)" style="font-family: 'Open Sans', verdana, arial, sans-serif; font-size: 12px; fill: rgb(68, 68, 68); fill-opacity: 1; white-space: pre;">0</text></g><g class="ytick"><text text-anchor="end" x="59" y="4.199999999999999" transform="translate(0,365.89)" style="font-family: 'Open Sans', verdana, arial, sans-serif; font-size: 12px; fill: rgb(68, 68, 68); fill-opacity: 1; white-space: pre;">100</text></g><g class="ytick"><text text-anchor="end" x="59" y="4.199999999999999" transform="translate(0,293.27)" style="font-family: 'Open Sans', verdana, arial, sans-serif; font-size: 12px; fill: rgb(68, 68, 68); fill-opacity: 1; white-space: pre;">200</text></g><g class="ytick"><text text-anchor="end" x="59" y="4.199999999999999" transform="translate(0,220.66)" style="font-family: 'Open Sans', verdana, arial, sans-serif; font-size: 12px; fill: rgb(68, 68, 68); fill-opacity: 1; white-space: pre;">300</text></g><g class="ytick"><text text-anchor="end" x="59" y="4.199999999999999" transform="translate(0,148.04000000000002)" style="font-family: 'Open Sans', verdana, arial, sans-serif; font-size: 12px; fill: rgb(68, 68, 68); fill-opacity: 1; white-space: pre;">400</text></g><g class="ytick"><text text-anchor="end" x="59" y="4.199999999999999" transform="translate(0,75.43)" style="font-family: 'Open Sans', verdana, arial, sans-serif; font-size: 12px; fill: rgb(68, 68, 68); fill-opacity: 1; white-space: pre;">500</text></g></g><g class="overaxes-above"/></g></g><g class="polarlayer"/><g class="ternarylayer"/><g class="geolayer"/><g class="funnelarealayer"/><g class="pielayer"/><g class="treemaplayer"/><g class="sunburstlayer"/><g class="glimages"/><defs id="topdefs-140519"><g class="clips"/><clipPath id="legend140519"><rect width="117" height="140" x="0" y="0"/></clipPath></defs><g class="layer-above"><g class="imagelayer"/><g class="shapelayer"/></g><g class="infolayer"><g class="legend" pointer-events="all" transform="translate(90.95, 46.750000000000014)"><rect class="bg" shape-rendering="crispEdges" style="stroke: rgb(68, 68, 68); stroke-opacity: 1; fill: rgb(226, 226, 226); fill-opacity: 1; stroke-width: 0px;" width="117" height="140" x="0" y="0"/><g class="scrollbox" transform="translate(0, 0)" clip-path="url('#legend140519')"><text class="legendtitletext user-select-none" text-anchor="start" x="2" y="15.600000000000001" style="font-family: 'Open Sans', verdana, arial, sans-serif; font-size: 12px; fill: rgb(68, 68, 68); fill-opacity: 1; white-space: pre;"><tspan style="font-weight:bold"> Identification Time </tspan></text><g class="groups"><g class="traces" transform="translate(0, 30.1)" style="opacity: 1;"><text class="legendtext user-select-none" text-anchor="start" x="40" y="4.680000000000001" style="font-family: 'Open Sans', verdana, arial, sans-serif; font-size: 12px; fill: rgb(68, 68, 68); fill-opacity: 1; white-space: pre;">0 Months</text><g class="layers" style="opacity: 1;"><g class="legendfill"/><g class="legendlines"><path class="js-line" d="M5,0h30" style="fill: none; stroke: rgb(31, 119, 180); stroke-opacity: 1; stroke-width: 2px;"/></g><g class="legendsymbols"><g class="legendpoints"/></g></g><rect class="legendtoggle" pointer-events="all" x="0" y="-9.5" width="98.046875" height="19" style="cursor: pointer; fill: rgb(0, 0, 0); fill-opacity: 0;"/></g><g class="traces" transform="translate(0, 49.1)" style="opacity: 1;"><text class="legendtext user-select-none" text-anchor="start" x="40" y="4.680000000000001" style="font-family: 'Open Sans', verdana, arial, sans-serif; font-size: 12px; fill: rgb(68, 68, 68); fill-opacity: 1; white-space: pre;">3 Months</text><g class="layers" style="opacity: 1;"><g class="legendfill"/><g class="legendlines"><path class="js-line" d="M5,0h30" style="fill: none; stroke: rgb(255, 127, 14); stroke-opacity: 1; stroke-width: 2px;"/></g><g class="legendsymbols"><g class="legendpoints"/></g></g><rect class="legendtoggle" pointer-events="all" x="0" y="-9.5" width="98.046875" height="19" style="cursor: pointer; fill: rgb(0, 0, 0); fill-opacity: 0;"/></g><g class="traces" transform="translate(0, 68.1)" style="opacity: 1;"><text class="legendtext user-select-none" text-anchor="start" x="40" y="4.680000000000001" style="font-family: 'Open Sans', verdana, arial, sans-serif; font-size: 12px; fill: rgb(68, 68, 68); fill-opacity: 1; white-space: pre;">6 Months</text><g class="layers" style="opacity: 1;"><g class="legendfill"/><g class="legendlines"><path class="js-line" d="M5,0h30" style="fill: none; stroke: rgb(44, 160, 44); stroke-opacity: 1; stroke-width: 2px;"/></g><g class="legendsymbols"><g class="legendpoints"/></g></g><rect class="legendtoggle" pointer-events="all" x="0" y="-9.5" width="98.046875" height="19" style="cursor: pointer; fill: rgb(0, 0, 0); fill-opacity: 0;"/></g><g class="traces" transform="translate(0, 87.1)" style="opacity: 1;"><text class="legendtext user-select-none" text-anchor="start" x="40" y="4.680000000000001" style="font-family: 'Open Sans', verdana, arial, sans-serif; font-size: 12px; fill: rgb(68, 68, 68); fill-opacity: 1; white-space: pre;">12 Months</text><g class="layers" style="opacity: 1;"><g class="legendfill"/><g class="legendlines"><path class="js-line" d="M5,0h30" style="fill: none; stroke: rgb(214, 39, 40); stroke-opacity: 1; stroke-width: 2px;"/></g><g class="legendsymbols"><g class="legendpoints"/></g></g><rect class="legendtoggle" pointer-events="all" x="0" y="-9.5" width="98.046875" height="19" style="cursor: pointer; fill: rgb(0, 0, 0); fill-opacity: 0;"/></g><g class="traces" transform="translate(0, 106.1)" style="opacity: 1;"><text class="legendtext user-select-none" text-anchor="start" x="40" y="4.680000000000001" style="font-family: 'Open Sans', verdana, arial, sans-serif; font-size: 12px; fill: rgb(68, 68, 68); fill-opacity: 1; white-space: pre;">24 Months</text><g class="layers" style="opacity: 1;"><g class="legendfill"/><g class="legendlines"><path class="js-line" d="M5,0h30" style="fill: none; stroke: rgb(148, 103, 189); stroke-opacity: 1; stroke-width: 2px;"/></g><g class="legendsymbols"><g class="legendpoints"/></g></g><rect class="legendtoggle" pointer-events="all" x="0" y="-9.5" width="98.046875" height="19" style="cursor: pointer; fill: rgb(0, 0, 0); fill-opacity: 0;"/></g><g class="traces" transform="translate(0, 125.1)" style="opacity: 1;"><text class="legendtext user-select-none" text-anchor="start" x="40" y="4.680000000000001" style="font-family: 'Open Sans', verdana, arial, sans-serif; font-size: 12px; fill: rgb(68, 68, 68); fill-opacity: 1; white-space: pre;">36 Months</text><g class="layers" style="opacity: 1;"><g class="legendfill"/><g class="legendlines"><path class="js-line" d="M5,0h30" style="fill: none; stroke: rgb(140, 86, 75); stroke-opacity: 1; stroke-width: 2px;"/></g><g class="legendsymbols"><g class="legendpoints"/></g></g><rect class="legendtoggle" pointer-events="all" x="0" y="-9.5" width="98.046875" height="19" style="cursor: pointer; fill: rgb(0, 0, 0); fill-opacity: 0;"/></g></g></g><rect class="scrollbar" rx="20" ry="3" width="0" height="0" style="fill: rgb(128, 139, 164); fill-opacity: 1;" x="0" y="0"/></g><g class="g-gtitle"><text class="gtitle" x="350" y="12.5" text-anchor="middle" dy="0em" style="font-family: 'Open Sans', verdana, arial, sans-serif; font-size: 17px; fill: rgb(68, 68, 68); opacity: 1; font-weight: normal; white-space: pre;"><tspan style="font-weight:bold"> Leprosy Prevalence MB - Immunity Vaccine 0.99, Treatment 95% </tspan></text></g><g class="g-xtitle" transform="translate(0,-15)"><text class="xtitle" x="369.5" y="512" text-anchor="middle" style="font-family: 'Open Sans', verdana, arial, sans-serif; font-size: 14px; fill: rgb(68, 68, 68); opacity: 1; font-weight: normal; white-space: pre;">Time(Years)</text></g><g class="g-ytitle"><text class="ytitle" transform="rotate(-90,22,242.5)" x="22" y="242.5" text-anchor="middle" style="font-family: 'Open Sans', verdana, arial, sans-serif; font-size: 14px; fill: rgb(68, 68, 68); opacity: 1; font-weight: normal; white-space: pre;">Number of infectiuos individuals</text></g></g></svg>