<svg class="main-svg" xmlns="http://www.w3.org/2000/svg" xmlns:xlink="http://www.w3.org/1999/xlink" width="700" height="500" style="" viewBox="0 0 700 500"><rect x="0" y="0" width="700" height="500" style="fill: rgb(255, 255, 255); fill-opacity: 1;"/><defs id="defs-05fb84"><g class="clips"><clipPath id="clip05fb84xyplot" class="plotclip"><rect width="619" height="435"/></clipPath><clipPath class="axesclip" id="clip05fb84x"><rect x="60" y="0" width="619" height="500"/></clipPath><clipPath class="axesclip" id="clip05fb84y"><rect x="0" y="25" width="700" height="435"/></clipPath><clipPath class="axesclip" id="clip05fb84xy"><rect x="60" y="25" width="619" height="435"/></clipPath></g><g class="gradients"/></defs><g class="bglayer"/><g class="layer-below"><g class="imagelayer"/><g class="shapelayer"/></g><g class="cartesianlayer"><g class="subplot xy"><g class="layer-subplot"><g class="shapelayer"/><g class="imagelayer"/></g><g class="gridlayer"><g class="x"><path class="xgrid crisp" transform="translate(212.42,0)" d="M0,25v435" style="stroke: rgb(238, 238, 238); stroke-opacity: 1; stroke-width: 1px;"/><path class="xgrid crisp" transform="translate(367.94,0)" d="M0,25v435" style="stroke: rgb(238, 238, 238); stroke-opacity: 1; stroke-width: 1px;"/><path class="xgrid crisp" transform="translate(523.47,0)" d="M0,25v435" style="stroke: rgb(238, 238, 238); stroke-opacity: 1; stroke-width: 1px;"/></g><g class="y"><path class="ygrid crisp" transform="translate(0,366.37)" d="M60,0h619" style="stroke: rgb(238, 238, 238); stroke-opacity: 1; stroke-width: 1px;"/><path class="ygrid crisp" transform="translate(0,293.99)" d="M60,0h619" style="stroke: rgb(238, 238, 238); stroke-opacity: 1; stroke-width: 1px;"/><path class="ygrid crisp" transform="translate(0,221.61)" d="M60,0h619" style="stroke: rgb(238, 238, 238); stroke-opacity: 1; stroke-width: 1px;"/><path class="ygrid crisp" transform="translate(0,149.24)" d="M60,0h619" style="stroke: rgb(238, 238, 238); stroke-opacity: 1; stroke-width: 1px;"/><path class="ygrid crisp" transform="translate(0,76.86)" d="M60,0h619" style="stroke: rgb(238, 238, 238); stroke-opacity: 1; stroke-width: 1px;"/></g></g><g class="zerolinelayer"><path class="yzl zl crisp" transform="translate(0,438.75)" d="M60,0h619" style="stroke: rgb(68, 68, 68); stroke-opacity: 1; stroke-width: 1px;"/></g><path class="xlines-below"/><path class="ylines-below"/><g class="overlines-below"/><g class="xaxislayer-below"/><g class="yaxislayer-below"/><g class="overaxes-below"/><g class="plot" transform="translate(60, 25)" clip-path="url('#clip05fb84xyplot')"><g class="scatterlayer mlayer"><g class="trace scatter trace849612" style="stroke-miterlimit: 2; opacity: 1;"><g class="fills"/><g class="errorbars"/><g class="lines"><path class="js-line" d="M0,413.15L6.22,413.25L9.33,412.29L27.99,409.61L31.11,408.85L49.77,404.37L52.88,403.59L65.32,399.34L68.43,398.29L90.21,388.67L93.32,386.69L99.54,383.26L102.65,381.39L118.2,371.55L121.31,369.19L146.2,348.97L149.31,345.69L161.75,333.42L164.86,329.08L177.3,314.21L180.41,309.53L192.85,293.19L195.96,288.67L211.52,265.98L214.63,260.93L220.85,248.95L223.96,243.4L236.4,220.34L239.51,213.25L248.84,193.69L251.95,186.83L264.4,156.51L267.51,147.37L283.06,105.76L286.17,96.42L292.39,77.34L295.5,66.34L304.83,35.56L307.94,24.31L314.17,94.66L317.28,123.91L326.61,199.51L329.72,220.45L335.94,257.93L339.05,273.91L345.27,300.95L348.38,308.39L357.71,321.05L360.82,325.37L370.16,337.75L373.27,341.79L382.6,354.17L385.71,356.88L391.93,360.32L395.04,361.13L407.48,366.82L410.59,368.19L423.04,375.41L426.15,376.9L454.14,385.78L457.25,386.47L482.14,392.48L485.25,392.96L528.79,400.28L531.9,400.55L541.24,401.9L544.35,402.04L566.12,404.31L569.23,404.52L619,407.72" style="vector-effect: non-scaling-stroke; fill: none; stroke: rgb(31, 119, 180); stroke-opacity: 1; stroke-width: 2px; opacity: 1;"/></g><g class="points"/><g class="text"/></g><g class="trace scatter tracec4ac5c" style="stroke-miterlimit: 2; opacity: 1;"><g class="fills"/><g class="errorbars"/><g class="lines"><path class="js-line" d="M0,413.15L6.22,413.25L9.33,412.29L27.99,409.61L31.11,408.85L49.77,404.37L52.88,403.59L65.32,399.34L68.43,398.29L90.21,388.67L93.32,386.69L99.54,383.26L102.65,381.39L118.2,371.55L121.31,369.19L146.2,348.97L149.31,345.69L161.75,333.42L164.86,329.08L177.3,314.21L180.41,309.53L192.85,293.19L195.96,288.67L211.52,265.98L214.63,260.93L220.85,248.95L223.96,243.4L236.4,220.34L239.51,213.25L248.84,193.69L251.95,186.83L264.4,156.51L267.51,147.37L283.06,105.76L286.17,96.42L292.39,77.34L295.5,66.34L304.83,35.56L307.94,24.31L317.28,121.29L320.39,147.94L326.61,195.79L329.72,216.73L339.05,270.26L342.16,284.61L345.27,298.08L348.38,304.93L357.71,315.52L360.82,319.98L382.6,349.52L385.71,352.94L416.81,367.58L419.92,369.68L429.26,374.36L432.37,375.43L451.03,381.11L454.14,382.29L491.47,391.59L494.58,392.12L516.35,395.79L519.46,396.58L556.79,401.41L559.9,401.64L619,406.13" style="vector-effect: non-scaling-stroke; fill: none; stroke: rgb(255, 127, 14); stroke-opacity: 1; stroke-width: 2px; opacity: 1;"/></g><g class="points"/><g class="text"/></g><g class="trace scatter tracee53a09" style="stroke-miterlimit: 2; opacity: 1;"><g class="fills"/><g class="errorbars"/><g class="lines"><path class="js-line" d="M0,413.15L6.22,413.25L9.33,412.29L27.99,409.61L31.11,408.85L49.77,404.37L52.88,403.59L65.32,399.34L68.43,398.29L90.21,388.67L93.32,386.69L99.54,383.26L102.65,381.39L118.2,371.55L121.31,369.19L146.2,348.97L149.31,345.69L161.75,333.42L164.86,329.08L177.3,314.21L180.41,309.53L192.85,293.19L195.96,288.67L211.52,265.98L214.63,260.93L220.85,248.95L223.96,243.4L236.4,220.34L239.51,213.25L248.84,193.69L251.95,186.83L264.4,156.51L267.51,147.37L283.06,105.76L286.17,96.42L292.39,77.34L295.5,66.34L304.83,35.56L307.94,24.31L311.06,49.71L314.17,83.98L320.39,141.95L323.5,168.22L329.72,212.9L332.83,232.08L339.05,266.21L342.16,280.56L345.27,293.96L348.38,300.43L354.6,307.23L357.71,311L360.82,314.25L363.93,318.66L385.71,348.71L388.82,350.7L398.15,354.28L401.26,355.85L410.59,360.34L413.7,362.32L426.15,369.68L429.26,370.59L435.48,372.97L438.59,373.78L447.92,376.47L451.03,377.52L463.47,381.56L466.58,382.28L475.91,385.07L479.03,385.48L485.25,386.74L488.36,387.52L541.24,397.04L544.35,397.09L584.78,401.6L587.89,401.8L619,404.13" style="vector-effect: non-scaling-stroke; fill: none; stroke: rgb(44, 160, 44); stroke-opacity: 1; stroke-width: 2px; opacity: 1;"/></g><g class="points"/><g class="text"/></g><g class="trace scatter trace438be7" style="stroke-miterlimit: 2; opacity: 1;"><g class="fills"/><g class="errorbars"/><g class="lines"><path class="js-line" d="M0,413.15L6.22,413.25L9.33,412.29L27.99,409.61L31.11,408.85L49.77,404.37L52.88,403.59L65.32,399.34L68.43,398.29L90.21,388.67L93.32,386.69L99.54,383.26L102.65,381.39L118.2,371.55L121.31,369.19L146.2,348.97L149.31,345.69L161.75,333.42L164.86,329.08L177.3,314.21L180.41,309.53L192.85,293.19L195.96,288.67L211.52,265.98L214.63,260.93L220.85,248.95L223.96,243.4L236.4,220.34L239.51,213.25L248.84,193.69L251.95,186.83L264.4,156.51L267.51,147.37L283.06,105.76L286.17,96.42L292.39,77.34L295.5,66.34L304.83,35.56L307.94,24.31L311.06,37.32L314.17,71.54L323.5,156.42L326.61,181.29L332.83,222.4L335.94,241.5L345.27,287.35L348.38,295.14L351.49,296.18L354.6,299.22L357.71,301.59L360.82,305.45L367.05,313.46L370.16,318.48L385.71,341.11L388.82,343.6L395.04,344.96L398.15,345.77L404.37,348.55L407.48,349.94L413.7,353.2L416.81,354.65L426.15,360.85L429.26,362.19L444.81,366.04L447.92,367.48L451.03,368.15L454.14,369.6L472.8,376.73L475.91,377.24L485.25,379.77L488.36,380.36L535.02,388.9L538.13,388.74L572.34,394.45L575.45,394.84L584.78,395.75L587.89,396.42L606.56,397.85L609.67,397.79L619,399.08" style="vector-effect: non-scaling-stroke; fill: none; stroke: rgb(214, 39, 40); stroke-opacity: 1; stroke-width: 2px; opacity: 1;"/></g><g class="points"/><g class="text"/></g><g class="trace scatter trace7f4ade" style="stroke-miterlimit: 2; opacity: 1;"><g class="fills"/><g class="errorbars"/><g class="lines"><path class="js-line" d="M0,413.15L6.22,413.25L9.33,412.29L27.99,409.61L31.11,408.85L49.77,404.37L52.88,403.59L65.32,399.34L68.43,398.29L90.21,388.67L93.32,386.69L99.54,383.26L102.65,381.39L118.2,371.55L121.31,369.19L146.2,348.97L149.31,345.69L161.75,333.42L164.86,329.08L177.3,314.21L180.41,309.53L192.85,293.19L195.96,288.67L211.52,265.98L214.63,260.93L220.85,248.95L223.96,243.4L236.4,220.34L239.51,213.25L248.84,193.69L251.95,186.83L264.4,156.51L267.51,147.37L283.06,105.76L286.17,96.42L292.39,77.34L295.5,66.34L304.83,35.56L307.94,24.31L311.06,26.41L314.17,48.16L323.5,132.53L326.61,157.19L332.83,200.94L335.94,219.95L342.16,255.15L345.27,269.92L348.38,281.18L351.49,283.15L354.6,281.24L357.71,282.07L363.93,287.68L367.05,293.39L376.38,305.84L379.49,310.7L388.82,324.57L391.93,326.95L401.26,327.51L404.37,327.64L413.7,331.96L416.81,333.64L419.92,335.27L423.04,337.94L438.59,346.19L441.7,346.52L451.03,349.95L454.14,350.5L457.25,350.32L460.36,351.7L466.58,353.89L469.69,355.37L472.8,356.12L475.91,357.76L479.03,359.29L482.14,359.91L485.25,360.81L488.36,360.71L525.68,368.55L528.79,368.77L550.57,372.87L553.68,374.23L559.9,374.92L563.01,375.87L575.45,377.47L578.56,377.85L581.67,377.79L584.78,378.67L597.23,380.4L600.34,380.84L615.89,382.65L619,383.32" style="vector-effect: non-scaling-stroke; fill: none; stroke: rgb(148, 103, 189); stroke-opacity: 1; stroke-width: 2px; opacity: 1;"/></g><g class="points"/><g class="text"/></g><g class="trace scatter tracee991f8" style="stroke-miterlimit: 2; opacity: 1;"><g class="fills"/><g class="errorbars"/><g class="lines"><path class="js-line" d="M0,413.15L6.22,413.25L9.33,412.29L27.99,409.61L31.11,408.85L49.77,404.37L52.88,403.59L65.32,399.34L68.43,398.29L90.21,388.67L93.32,386.69L99.54,383.26L102.65,381.39L118.2,371.55L121.31,369.19L146.2,348.97L149.31,345.69L161.75,333.42L164.86,329.08L177.3,314.21L180.41,309.53L192.85,293.19L195.96,288.67L211.52,265.98L214.63,260.93L220.85,248.95L223.96,243.4L236.4,220.34L239.51,213.25L248.84,193.69L251.95,186.83L264.4,156.51L267.51,147.37L283.06,105.76L286.17,96.42L292.39,77.34L295.5,66.34L304.83,35.56L307.94,24.31L311.06,21.75L314.17,33L323.5,107.85L326.61,134.6L335.94,200.49L339.05,218.54L345.27,251.92L348.38,264.83L351.49,271.58L354.6,271.83L357.71,269.33L360.82,268.13L363.93,269.15L367.05,271.1L376.38,283.6L379.49,288.45L388.82,302.48L391.93,305.77L395.04,308.7L398.15,310.22L401.26,309.11L404.37,309.31L407.48,309.1L410.59,309.9L416.81,312.92L419.92,314.37L441.7,325.34L444.81,326.33L454.14,327.14L457.25,328.7L463.47,330.65L466.58,331.65L469.69,331.68L472.8,332.47L479.03,333.6L482.14,334.95L491.47,338.09L494.58,338.4L516.35,342.81L519.46,343.16L525.68,345.62L528.79,345.67L531.9,345.78L535.02,346.69L553.68,349.46L556.79,350.14L559.9,349.66L563.01,350.94L566.12,352.09L569.23,351.93L581.67,354.27L584.78,354.79L591.01,355.53L594.12,355.99L606.56,356.77L609.67,357.52L619,359.37" style="vector-effect: non-scaling-stroke; fill: none; stroke: rgb(140, 86, 75); stroke-opacity: 1; stroke-width: 2px; opacity: 1;"/></g><g class="points"/><g class="text"/></g></g></g><g class="overplot"/><path class="xlines-above crisp" style="fill: none;" d="M0,0"/><path class="ylines-above crisp" style="fill: none;" d="M0,0"/><g class="overlines-above"/><g class="xaxislayer-above"><g class="xtick"><text text-anchor="middle" x="0" y="473" transform="translate(212.42,0)" style="font-family: 'Open Sans', verdana, arial, sans-serif; font-size: 12px; fill: rgb(68, 68, 68); fill-opacity: 1; white-space: pre;">50</text></g><g class="xtick"><text text-anchor="middle" x="0" y="473" transform="translate(367.94,0)" style="font-family: 'Open Sans', verdana, arial, sans-serif; font-size: 12px; fill: rgb(68, 68, 68); fill-opacity: 1; white-space: pre;">100</text></g><g class="xtick"><text text-anchor="middle" x="0" y="473" transform="translate(523.47,0)" style="font-family: 'Open Sans', verdana, arial, sans-serif; font-size: 12px; fill: rgb(68, 68, 68); fill-opacity: 1; white-space: pre;">150</text></g><g class="xtick"><text text-anchor="middle" x="0" y="473" transform="translate(679,0)" style="font-family: 'Open Sans', verdana, arial, sans-serif; font-size: 12px; fill: rgb(68, 68, 68); fill-opacity: 1; white-space: pre;">200</text></g></g><g class="yaxislayer-above"><g class="ytick"><text text-anchor="end" x="59" y="4.199999999999999" transform="translate(0,438.75)" style="font-family: 'Open Sans', verdana, arial, sans-serif; font-size: 12px; fill: rgb(68, 68, 68); fill-opacity: 1; white-space: pre;">0</text></g><g class="ytick"><text text-anchor="end" x="59" y="4.199999999999999" transform="translate(0,366.37)" style="font-family: 'Open Sans', verdana, arial, sans-serif; font-size: 12px; fill: rgb(68, 68, 68); fill-opacity: 1; white-space: pre;">100</text></g><g class="ytick"><text text-anchor="end" x="59" y="4.199999999999999" transform="translate(0,293.99)" style="font-family: 'Open Sans', verdana, arial, sans-serif; font-size: 12px; fill: rgb(68, 68, 68); fill-opacity: 1; white-space: pre;">200</text></g><g class="ytick"><text text-anchor="end" x="59" y="4.199999999999999" transform="translate(0,221.61)" style="font-family: 'Open Sans', verdana, arial, sans-serif; font-size: 12px; fill: rgb(68, 68, 68); fill-opacity: 1; white-space: pre;">300</text></g><g class="ytick"><text text-anchor="end" x="59" y="4.199999999999999" transform="translate(0,149.24)" style="font-family: 'Open Sans', verdana, arial, sans-serif; font-size: 12px; fill: rgb(68, 68, 68); fill-opacity: 1; white-space: pre;">400</text></g><g class="ytick"><text text-anchor="end" x="59" y="4.199999999999999" transform="translate(0,76.86)" style="font-family: 'Open Sans', verdana, arial, sans-serif; font-size: 12px; fill: rgb(68, 68, 68); fill-opacity: 1; white-space: pre;">500</text></g></g><g class="overaxes-above"/></g></g><g class="polarlayer"/><g class="ternarylayer"/><g class="geolayer"/><g class="funnelarealayer"/><g class="pielayer"/><g class="treemaplayer"/><g class="sunburstlayer"/><g class="glimages"/><defs id="topdefs-05fb84"><g class="clips"/><clipPath id="legend05fb84"><rect width="117" height="140" x="0" y="0"/></clipPath></defs><g class="layer-above"><g class="imagelayer"/><g class="shapelayer"/></g><g class="infolayer"><g class="legend" pointer-events="all" transform="translate(90.95, 46.750000000000014)"><rect class="bg" shape-rendering="crispEdges" style="stroke: rgb(68, 68, 68); stroke-opacity: 1; fill: rgb(226, 226, 226); fill-opacity: 1; stroke-width: 0px;" width="117" height="140" x="0" y="0"/><g class="scrollbox" transform="translate(0, 0)" clip-path="url('#legend05fb84')"><text class="legendtitletext user-select-none" text-anchor="start" x="2" y="15.600000000000001" style="font-family: 'Open Sans', verdana, arial, sans-serif; font-size: 12px; fill: rgb(68, 68, 68); fill-opacity: 1; white-space: pre;"><tspan style="font-weight:bold"> Identification Time </tspan></text><g class="groups"><g class="traces" transform="translate(0, 30.1)" style="opacity: 1;"><text class="legendtext user-select-none" text-anchor="start" x="40" y="4.680000000000001" style="font-family: 'Open Sans', verdana, arial, sans-serif; font-size: 12px; fill: rgb(68, 68, 68); fill-opacity: 1; white-space: pre;">0 Months</text><g class="layers" style="opacity: 1;"><g class="legendfill"/><g class="legendlines"><path class="js-line" d="M5,0h30" style="fill: none; stroke: rgb(31, 119, 180); stroke-opacity: 1; stroke-width: 2px;"/></g><g class="legendsymbols"><g class="legendpoints"/></g></g><rect class="legendtoggle" pointer-events="all" x="0" y="-9.5" width="98.046875" height="19" style="cursor: pointer; fill: rgb(0, 0, 0); fill-opacity: 0;"/></g><g class="traces" transform="translate(0, 49.1)" style="opacity: 1;"><text class="legendtext user-select-none" text-anchor="start" x="40" y="4.680000000000001" style="font-family: 'Open Sans', verdana, arial, sans-serif; font-size: 12px; fill: rgb(68, 68, 68); fill-opacity: 1; white-space: pre;">3 Months</text><g class="layers" style="opacity: 1;"><g class="legendfill"/><g class="legendlines"><path class="js-line" d="M5,0h30" style="fill: none; stroke: rgb(255, 127, 14); stroke-opacity: 1; stroke-width: 2px;"/></g><g class="legendsymbols"><g class="legendpoints"/></g></g><rect class="legendtoggle" pointer-events="all" x="0" y="-9.5" width="98.046875" height="19" style="cursor: pointer; fill: rgb(0, 0, 0); fill-opacity: 0;"/></g><g class="traces" transform="translate(0, 68.1)" style="opacity: 1;"><text class="legendtext user-select-none" text-anchor="start" x="40" y="4.680000000000001" style="font-family: 'Open Sans', verdana, arial, sans-serif; font-size: 12px; fill: rgb(68, 68, 68); fill-opacity: 1; white-space: pre;">6 Months</text><g class="layers" style="opacity: 1;"><g class="legendfill"/><g class="legendlines"><path class="js-line" d="M5,0h30" style="fill: none; stroke: rgb(44, 160, 44); stroke-opacity: 1; stroke-width: 2px;"/></g><g class="legendsymbols"><g class="legendpoints"/></g></g><rect class="legendtoggle" pointer-events="all" x="0" y="-9.5" width="98.046875" height="19" style="cursor: pointer; fill: rgb(0, 0, 0); fill-opacity: 0;"/></g><g class="traces" transform="translate(0, 87.1)" style="opacity: 1;"><text class="legendtext user-select-none" text-anchor="start" x="40" y="4.680000000000001" style="font-family: 'Open Sans', verdana, arial, sans-serif; font-size: 12px; fill: rgb(68, 68, 68); fill-opacity: 1; white-space: pre;">12 Months</text><g class="layers" style="opacity: 1;"><g class="legendfill"/><g class="legendlines"><path class="js-line" d="M5,0h30" style="fill: none; stroke: rgb(214, 39, 40); stroke-opacity: 1; stroke-width: 2px;"/></g><g class="legendsymbols"><g class="legendpoints"/></g></g><rect class="legendtoggle" pointer-events="all" x="0" y="-9.5" width="98.046875" height="19" style="cursor: pointer; fill: rgb(0, 0, 0); fill-opacity: 0;"/></g><g class="traces" transform="translate(0, 106.1)" style="opacity: 1;"><text class="legendtext user-select-none" text-anchor="start" x="40" y="4.680000000000001" style="font-family: 'Open Sans', verdana, arial, sans-serif; font-size: 12px; fill: rgb(68, 68, 68); fill-opacity: 1; white-space: pre;">24 Months</text><g class="layers" style="opacity: 1;"><g class="legendfill"/><g class="legendlines"><path class="js-line" d="M5,0h30" style="fill: none; stroke: rgb(148, 103, 189); stroke-opacity: 1; stroke-width: 2px;"/></g><g class="legendsymbols"><g class="legendpoints"/></g></g><rect class="legendtoggle" pointer-events="all" x="0" y="-9.5" width="98.046875" height="19" style="cursor: pointer; fill: rgb(0, 0, 0); fill-opacity: 0;"/></g><g class="traces" transform="translate(0, 125.1)" style="opacity: 1;"><text class="legendtext user-select-none" text-anchor="start" x="40" y="4.680000000000001" style="font-family: 'Open Sans', verdana, arial, sans-serif; font-size: 12px; fill: rgb(68, 68, 68); fill-opacity: 1; white-space: pre;">36 Months</text><g class="layers" style="opacity: 1;"><g class="legendfill"/><g class="legendlines"><path class="js-line" d="M5,0h30" style="fill: none; stroke: rgb(140, 86, 75); stroke-opacity: 1; stroke-width: 2px;"/></g><g class="legendsymbols"><g class="legendpoints"/></g></g><rect class="legendtoggle" pointer-events="all" x="0" y="-9.5" width="98.046875" height="19" style="cursor: pointer; fill: rgb(0, 0, 0); fill-opacity: 0;"/></g></g></g><rect class="scrollbar" rx="20" ry="3" width="0" height="0" style="fill: rgb(128, 139, 164); fill-opacity: 1;" x="0" y="0"/></g><g class="g-gtitle"><text class="gtitle" x="350" y="12.5" text-anchor="middle" dy="0em" style="font-family: 'Open Sans', verdana, arial, sans-serif; font-size: 17px; fill: rgb(68, 68, 68); opacity: 1; font-weight: normal; white-space: pre;"><tspan style="font-weight:bold"> Leprosy Prevalence MB - Immunity Vaccine 0.5, Treatment 75% </tspan></text></g><g class="g-xtitle" transform="translate(0,-15)"><text class="xtitle" x="369.5" y="512" text-anchor="middle" style="font-family: 'Open Sans', verdana, arial, sans-serif; font-size: 14px; fill: rgb(68, 68, 68); opacity: 1; font-weight: normal; white-space: pre;">Time(Years)</text></g><g class="g-ytitle"><text class="ytitle" transform="rotate(-90,22,242.5)" x="22" y="242.5" text-anchor="middle" style="font-family: 'Open Sans', verdana, arial, sans-serif; font-size: 14px; fill: rgb(68, 68, 68); opacity: 1; font-weight: normal; white-space: pre;">Number of infectiuos individuals</text></g></g></svg>