<svg class="main-svg" xmlns="http://www.w3.org/2000/svg" xmlns:xlink="http://www.w3.org/1999/xlink" width="700" height="500" style="" viewBox="0 0 700 500"><rect x="0" y="0" width="700" height="500" style="fill: rgb(255, 255, 255); fill-opacity: 1;"/><defs id="defs-4e89f4"><g class="clips"><clipPath id="clip4e89f4xyplot" class="plotclip"><rect width="619" height="435"/></clipPath><clipPath class="axesclip" id="clip4e89f4x"><rect x="60" y="0" width="619" height="500"/></clipPath><clipPath class="axesclip" id="clip4e89f4y"><rect x="0" y="25" width="700" height="435"/></clipPath><clipPath class="axesclip" id="clip4e89f4xy"><rect x="60" y="25" width="619" height="435"/></clipPath></g><g class="gradients"/></defs><g class="bglayer"/><g class="layer-below"><g class="imagelayer"/><g class="shapelayer"/></g><g class="cartesianlayer"><g class="subplot xy"><g class="layer-subplot"><g class="shapelayer"/><g class="imagelayer"/></g><g class="gridlayer"><g class="x"><path class="xgrid crisp" transform="translate(212.42,0)" d="M0,25v435" style="stroke: rgb(238, 238, 238); stroke-opacity: 1; stroke-width: 1px;"/><path class="xgrid crisp" transform="translate(367.94,0)" d="M0,25v435" style="stroke: rgb(238, 238, 238); stroke-opacity: 1; stroke-width: 1px;"/><path class="xgrid crisp" transform="translate(523.47,0)" d="M0,25v435" style="stroke: rgb(238, 238, 238); stroke-opacity: 1; stroke-width: 1px;"/></g><g class="y"><path class="ygrid crisp" transform="translate(0,366.37)" d="M60,0h619" style="stroke: rgb(238, 238, 238); stroke-opacity: 1; stroke-width: 1px;"/><path class="ygrid crisp" transform="translate(0,293.99)" d="M60,0h619" style="stroke: rgb(238, 238, 238); stroke-opacity: 1; stroke-width: 1px;"/><path class="ygrid crisp" transform="translate(0,221.61)" d="M60,0h619" style="stroke: rgb(238, 238, 238); stroke-opacity: 1; stroke-width: 1px;"/><path class="ygrid crisp" transform="translate(0,149.24)" d="M60,0h619" style="stroke: rgb(238, 238, 238); stroke-opacity: 1; stroke-width: 1px;"/><path class="ygrid crisp" transform="translate(0,76.86)" d="M60,0h619" style="stroke: rgb(238, 238, 238); stroke-opacity: 1; stroke-width: 1px;"/></g></g><g class="zerolinelayer"><path class="yzl zl crisp" transform="translate(0,438.75)" d="M60,0h619" style="stroke: rgb(68, 68, 68); stroke-opacity: 1; stroke-width: 1px;"/></g><path class="xlines-below"/><path class="ylines-below"/><g class="overlines-below"/><g class="xaxislayer-below"/><g class="yaxislayer-below"/><g class="overaxes-below"/><g class="plot" transform="translate(60, 25)" clip-path="url('#clip4e89f4xyplot')"><g class="scatterlayer mlayer"><g class="trace scatter trace1af879" style="stroke-miterlimit: 2; opacity: 1;"><g class="fills"/><g class="errorbars"/><g class="lines"><path class="js-line" d="M0,413.15L6.22,413.25L9.33,412.29L27.99,409.61L31.11,408.85L49.77,404.37L52.88,403.59L65.32,399.34L68.43,398.29L90.21,388.67L93.32,386.69L99.54,383.26L102.65,381.39L118.2,371.55L121.31,369.19L146.2,348.97L149.31,345.69L161.75,333.42L164.86,329.08L177.3,314.21L180.41,309.53L192.85,293.19L195.96,288.67L211.52,265.98L214.63,260.93L220.85,248.95L223.96,243.4L236.4,220.34L239.51,213.25L248.84,193.69L251.95,186.83L264.4,156.51L267.51,147.37L283.06,105.76L286.17,96.42L292.39,77.34L295.5,66.34L304.83,35.56L307.94,24.31L314.17,94.47L317.28,124.27L323.5,175.91L326.61,198.61L332.83,237.71L335.94,254.63L342.16,284.45L345.27,296.81L348.38,304L351.49,308.04L385.71,350.68L388.82,352.42L407.48,360.72L410.59,362.47L426.15,369.65L429.26,370.77L438.59,373.36L441.7,374.32L454.14,378.05L457.25,379.09L463.47,381.24L466.58,381.91L472.8,383.13L475.91,384.05L513.24,391.83L516.35,392.27L528.79,393.91L531.9,394.46L556.79,397.61L559.9,397.91L591.01,401.03L594.12,401.21L619,402.94" style="vector-effect: non-scaling-stroke; fill: none; stroke: rgb(31, 119, 180); stroke-opacity: 1; stroke-width: 2px; opacity: 1;"/></g><g class="points"/><g class="text"/></g><g class="trace scatter trace5cd52e" style="stroke-miterlimit: 2; opacity: 1;"><g class="fills"/><g class="errorbars"/><g class="lines"><path class="js-line" d="M0,413.15L6.22,413.25L9.33,412.29L27.99,409.61L31.11,408.85L49.77,404.37L52.88,403.59L65.32,399.34L68.43,398.29L90.21,388.67L93.32,386.69L99.54,383.26L102.65,381.39L118.2,371.55L121.31,369.19L146.2,348.97L149.31,345.69L161.75,333.42L164.86,329.08L177.3,314.21L180.41,309.53L192.85,293.19L195.96,288.67L211.52,265.98L214.63,260.93L220.85,248.95L223.96,243.4L236.4,220.34L239.51,213.25L248.84,193.69L251.95,186.83L264.4,156.51L267.51,147.37L283.06,105.76L286.17,96.42L292.39,77.34L295.5,66.34L304.83,35.56L307.94,24.31L317.28,120.42L320.39,147.26L326.61,194.86L329.72,215.6L339.05,267.13L342.16,281.44L345.27,294.64L348.38,301.41L354.6,308.86L357.71,312.45L360.82,315.88L363.93,320.49L385.71,346.81L388.82,348.72L407.48,355.79L410.59,357.57L429.26,366.78L432.37,367.82L444.81,370.57L447.92,371.45L475.91,380.38L479.03,380.86L488.36,383.22L491.47,383.62L513.24,387.94L516.35,388.04L528.79,390.43L531.9,390.78L609.67,399.24L612.78,399.36L619,400.02" style="vector-effect: non-scaling-stroke; fill: none; stroke: rgb(255, 127, 14); stroke-opacity: 1; stroke-width: 2px; opacity: 1;"/></g><g class="points"/><g class="text"/></g><g class="trace scatter trace541752" style="stroke-miterlimit: 2; opacity: 1;"><g class="fills"/><g class="errorbars"/><g class="lines"><path class="js-line" d="M0,413.15L6.22,413.25L9.33,412.29L27.99,409.61L31.11,408.85L49.77,404.37L52.88,403.59L65.32,399.34L68.43,398.29L90.21,388.67L93.32,386.69L99.54,383.26L102.65,381.39L118.2,371.55L121.31,369.19L146.2,348.97L149.31,345.69L161.75,333.42L164.86,329.08L177.3,314.21L180.41,309.53L192.85,293.19L195.96,288.67L211.52,265.98L214.63,260.93L220.85,248.95L223.96,243.4L236.4,220.34L239.51,213.25L248.84,193.69L251.95,186.83L264.4,156.51L267.51,147.37L283.06,105.76L286.17,96.42L292.39,77.34L295.5,66.34L304.83,35.56L307.94,24.31L311.06,49.71L314.17,83.94L320.39,140.89L323.5,166.53L332.83,228.73L335.94,246.6L342.16,277.15L345.27,289.92L348.38,295.55L351.49,298.73L363.93,312.8L367.05,317.16L382.6,338.62L385.71,342.09L391.93,344.77L395.04,346.13L401.26,348.42L404.37,349.83L410.59,352.65L413.7,354.18L416.81,355.26L419.92,357.97L432.37,362.53L435.48,363.46L460.36,371.22L463.47,372.76L475.91,375.59L479.03,376.35L488.36,377.67L491.47,378.04L525.68,385.83L528.79,386.23L535.02,386.57L538.13,387.24L553.68,389.43L556.79,389.68L581.67,392.87L584.78,393.36L600.34,394.84L603.45,395.12L619,396.81" style="vector-effect: non-scaling-stroke; fill: none; stroke: rgb(44, 160, 44); stroke-opacity: 1; stroke-width: 2px; opacity: 1;"/></g><g class="points"/><g class="text"/></g><g class="trace scatter trace10c937" style="stroke-miterlimit: 2; opacity: 1;"><g class="fills"/><g class="errorbars"/><g class="lines"><path class="js-line" d="M0,413.15L6.22,413.25L9.33,412.29L27.99,409.61L31.11,408.85L49.77,404.37L52.88,403.59L65.32,399.34L68.43,398.29L90.21,388.67L93.32,386.69L99.54,383.26L102.65,381.39L118.2,371.55L121.31,369.19L146.2,348.97L149.31,345.69L161.75,333.42L164.86,329.08L177.3,314.21L180.41,309.53L192.85,293.19L195.96,288.67L211.52,265.98L214.63,260.93L220.85,248.95L223.96,243.4L236.4,220.34L239.51,213.25L248.84,193.69L251.95,186.83L264.4,156.51L267.51,147.37L283.06,105.76L286.17,96.42L292.39,77.34L295.5,66.34L304.83,35.56L307.94,24.31L311.06,37.32L314.17,71.22L320.39,129.26L323.5,154.24L329.72,199.99L332.83,219L342.16,267.92L345.27,281.33L348.38,289.58L351.49,290.73L360.82,298.88L363.93,302.78L385.71,331.66L388.82,334.36L404.37,337.98L407.48,339.53L410.59,340.79L413.7,343.2L419.92,346.07L423.04,348.45L432.37,352.42L435.48,352.89L447.92,356.03L451.03,357.21L454.14,357.69L457.25,359.03L460.36,359.32L463.47,360.67L472.8,362.99L475.91,363.58L500.8,368.83L503.91,368.79L510.13,371.19L513.24,371.61L519.46,372.59L522.57,372.75L541.24,376.46L544.35,376.53L553.68,378.27L556.79,378.61L566.12,379.56L569.23,380.14L594.12,383.31L597.23,383.84L603.45,384.34L606.56,385.3L612.78,385.34L615.89,385.62L619,385.81" style="vector-effect: non-scaling-stroke; fill: none; stroke: rgb(214, 39, 40); stroke-opacity: 1; stroke-width: 2px; opacity: 1;"/></g><g class="points"/><g class="text"/></g><g class="trace scatter traced1056a" style="stroke-miterlimit: 2; opacity: 1;"><g class="fills"/><g class="errorbars"/><g class="lines"><path class="js-line" d="M0,413.15L6.22,413.25L9.33,412.29L27.99,409.61L31.11,408.85L49.77,404.37L52.88,403.59L65.32,399.34L68.43,398.29L90.21,388.67L93.32,386.69L99.54,383.26L102.65,381.39L118.2,371.55L121.31,369.19L146.2,348.97L149.31,345.69L161.75,333.42L164.86,329.08L177.3,314.21L180.41,309.53L192.85,293.19L195.96,288.67L211.52,265.98L214.63,260.93L220.85,248.95L223.96,243.4L236.4,220.34L239.51,213.25L248.84,193.69L251.95,186.83L264.4,156.51L267.51,147.37L283.06,105.76L286.17,96.42L292.39,77.34L295.5,66.34L304.83,35.56L307.94,24.31L311.06,26.41L314.17,46.82L320.39,106.32L323.5,130.98L329.72,177.67L332.83,198.68L342.16,249.93L345.27,264.22L348.38,275.26L351.49,277.87L354.6,276.4L357.71,276.11L367.05,283.67L370.16,286.8L385.71,308.82L388.82,312.49L391.93,315.19L395.04,315.38L413.7,318.31L416.81,319.67L432.37,327.64L435.48,328.81L444.81,330.72L447.92,331.62L466.58,335.59L469.69,336.39L475.91,338.13L479.03,339.18L485.25,339.96L488.36,340.78L497.69,341.59L500.8,341.8L507.02,343.84L510.13,343.7L516.35,343.3L519.46,344.51L528.79,346.86L531.9,346.81L566.12,351.11L569.23,351.88L578.56,352.34L581.67,353.08L591.01,353.92L594.12,353.57L612.78,354.93L615.89,355.54L619,356.1" style="vector-effect: non-scaling-stroke; fill: none; stroke: rgb(148, 103, 189); stroke-opacity: 1; stroke-width: 2px; opacity: 1;"/></g><g class="points"/><g class="text"/></g><g class="trace scatter trace47175b" style="stroke-miterlimit: 2; opacity: 1;"><g class="fills"/><g class="errorbars"/><g class="lines"><path class="js-line" d="M0,413.15L6.22,413.25L9.33,412.29L27.99,409.61L31.11,408.85L49.77,404.37L52.88,403.59L65.32,399.34L68.43,398.29L90.21,388.67L93.32,386.69L99.54,383.26L102.65,381.39L118.2,371.55L121.31,369.19L146.2,348.97L149.31,345.69L161.75,333.42L164.86,329.08L177.3,314.21L180.41,309.53L192.85,293.19L195.96,288.67L211.52,265.98L214.63,260.93L220.85,248.95L223.96,243.4L236.4,220.34L239.51,213.25L248.84,193.69L251.95,186.83L264.4,156.51L267.51,147.37L283.06,105.76L286.17,96.42L292.39,77.34L295.5,66.34L304.83,35.56L307.94,24.31L311.06,21.75L314.17,33.35L323.5,106.08L326.61,130.99L335.94,194.67L339.05,212.03L345.27,242.98L348.38,255.51L351.49,261.29L354.6,261.77L360.82,258.14L363.93,258.71L370.16,261.95L373.27,265.02L382.6,277.85L385.71,281.83L391.93,289.12L395.04,290.23L398.15,291.34L401.26,291.4L416.81,289.83L419.92,291L423.04,291.98L426.15,294.19L429.26,296.31L432.37,297.29L438.59,299.61L441.7,300.11L451.03,302.35L454.14,302.15L466.58,301.07L469.69,301.42L494.58,305.41L497.69,304.93L500.8,305.85L503.91,305.82L519.46,308.18L522.57,307.95L528.79,308.11L531.9,308.67L538.13,309.77L541.24,309.36L544.35,309.32L547.46,308.17L553.68,308.54L556.79,307.82L559.9,308.21L563.01,307.75L566.12,307.96L569.23,309.29L575.45,308.26L578.56,309.47L581.67,310.12L584.78,309.98L603.45,308.76L606.56,308.83L619,309.06" style="vector-effect: non-scaling-stroke; fill: none; stroke: rgb(140, 86, 75); stroke-opacity: 1; stroke-width: 2px; opacity: 1;"/></g><g class="points"/><g class="text"/></g></g></g><g class="overplot"/><path class="xlines-above crisp" style="fill: none;" d="M0,0"/><path class="ylines-above crisp" style="fill: none;" d="M0,0"/><g class="overlines-above"/><g class="xaxislayer-above"><g class="xtick"><text text-anchor="middle" x="0" y="473" transform="translate(212.42,0)" style="font-family: 'Open Sans', verdana, arial, sans-serif; font-size: 12px; fill: rgb(68, 68, 68); fill-opacity: 1; white-space: pre;">50</text></g><g class="xtick"><text text-anchor="middle" x="0" y="473" transform="translate(367.94,0)" style="font-family: 'Open Sans', verdana, arial, sans-serif; font-size: 12px; fill: rgb(68, 68, 68); fill-opacity: 1; white-space: pre;">100</text></g><g class="xtick"><text text-anchor="middle" x="0" y="473" transform="translate(523.47,0)" style="font-family: 'Open Sans', verdana, arial, sans-serif; font-size: 12px; fill: rgb(68, 68, 68); fill-opacity: 1; white-space: pre;">150</text></g><g class="xtick"><text text-anchor="middle" x="0" y="473" transform="translate(679,0)" style="font-family: 'Open Sans', verdana, arial, sans-serif; font-size: 12px; fill: rgb(68, 68, 68); fill-opacity: 1; white-space: pre;">200</text></g></g><g class="yaxislayer-above"><g class="ytick"><text text-anchor="end" x="59" y="4.199999999999999" transform="translate(0,438.75)" style="font-family: 'Open Sans', verdana, arial, sans-serif; font-size: 12px; fill: rgb(68, 68, 68); fill-opacity: 1; white-space: pre;">0</text></g><g class="ytick"><text text-anchor="end" x="59" y="4.199999999999999" transform="translate(0,366.37)" style="font-family: 'Open Sans', verdana, arial, sans-serif; font-size: 12px; fill: rgb(68, 68, 68); fill-opacity: 1; white-space: pre;">100</text></g><g class="ytick"><text text-anchor="end" x="59" y="4.199999999999999" transform="translate(0,293.99)" style="font-family: 'Open Sans', verdana, arial, sans-serif; font-size: 12px; fill: rgb(68, 68, 68); fill-opacity: 1; white-space: pre;">200</text></g><g class="ytick"><text text-anchor="end" x="59" y="4.199999999999999" transform="translate(0,221.61)" style="font-family: 'Open Sans', verdana, arial, sans-serif; font-size: 12px; fill: rgb(68, 68, 68); fill-opacity: 1; white-space: pre;">300</text></g><g class="ytick"><text text-anchor="end" x="59" y="4.199999999999999" transform="translate(0,149.24)" style="font-family: 'Open Sans', verdana, arial, sans-serif; font-size: 12px; fill: rgb(68, 68, 68); fill-opacity: 1; white-space: pre;">400</text></g><g class="ytick"><text text-anchor="end" x="59" y="4.199999999999999" transform="translate(0,76.86)" style="font-family: 'Open Sans', verdana, arial, sans-serif; font-size: 12px; fill: rgb(68, 68, 68); fill-opacity: 1; white-space: pre;">500</text></g></g><g class="overaxes-above"/></g></g><g class="polarlayer"/><g class="ternarylayer"/><g class="geolayer"/><g class="funnelarealayer"/><g class="pielayer"/><g class="treemaplayer"/><g class="sunburstlayer"/><g class="glimages"/><defs id="topdefs-4e89f4"><g class="clips"/><clipPath id="legend4e89f4"><rect width="117" height="140" x="0" y="0"/></clipPath></defs><g class="layer-above"><g class="imagelayer"/><g class="shapelayer"/></g><g class="infolayer"><g class="legend" pointer-events="all" transform="translate(90.95, 46.750000000000014)"><rect class="bg" shape-rendering="crispEdges" style="stroke: rgb(68, 68, 68); stroke-opacity: 1; fill: rgb(226, 226, 226); fill-opacity: 1; stroke-width: 0px;" width="117" height="140" x="0" y="0"/><g class="scrollbox" transform="translate(0, 0)" clip-path="url('#legend4e89f4')"><text class="legendtitletext user-select-none" text-anchor="start" x="2" y="15.600000000000001" style="font-family: 'Open Sans', verdana, arial, sans-serif; font-size: 12px; fill: rgb(68, 68, 68); fill-opacity: 1; white-space: pre;"><tspan style="font-weight:bold"> Identification Time </tspan></text><g class="groups"><g class="traces" transform="translate(0, 30.1)" style="opacity: 1;"><text class="legendtext user-select-none" text-anchor="start" x="40" y="4.680000000000001" style="font-family: 'Open Sans', verdana, arial, sans-serif; font-size: 12px; fill: rgb(68, 68, 68); fill-opacity: 1; white-space: pre;">0 Months</text><g class="layers" style="opacity: 1;"><g class="legendfill"/><g class="legendlines"><path class="js-line" d="M5,0h30" style="fill: none; stroke: rgb(31, 119, 180); stroke-opacity: 1; stroke-width: 2px;"/></g><g class="legendsymbols"><g class="legendpoints"/></g></g><rect class="legendtoggle" pointer-events="all" x="0" y="-9.5" width="98.046875" height="19" style="cursor: pointer; fill: rgb(0, 0, 0); fill-opacity: 0;"/></g><g class="traces" transform="translate(0, 49.1)" style="opacity: 1;"><text class="legendtext user-select-none" text-anchor="start" x="40" y="4.680000000000001" style="font-family: 'Open Sans', verdana, arial, sans-serif; font-size: 12px; fill: rgb(68, 68, 68); fill-opacity: 1; white-space: pre;">3 Months</text><g class="layers" style="opacity: 1;"><g class="legendfill"/><g class="legendlines"><path class="js-line" d="M5,0h30" style="fill: none; stroke: rgb(255, 127, 14); stroke-opacity: 1; stroke-width: 2px;"/></g><g class="legendsymbols"><g class="legendpoints"/></g></g><rect class="legendtoggle" pointer-events="all" x="0" y="-9.5" width="98.046875" height="19" style="cursor: pointer; fill: rgb(0, 0, 0); fill-opacity: 0;"/></g><g class="traces" transform="translate(0, 68.1)" style="opacity: 1;"><text class="legendtext user-select-none" text-anchor="start" x="40" y="4.680000000000001" style="font-family: 'Open Sans', verdana, arial, sans-serif; font-size: 12px; fill: rgb(68, 68, 68); fill-opacity: 1; white-space: pre;">6 Months</text><g class="layers" style="opacity: 1;"><g class="legendfill"/><g class="legendlines"><path class="js-line" d="M5,0h30" style="fill: none; stroke: rgb(44, 160, 44); stroke-opacity: 1; stroke-width: 2px;"/></g><g class="legendsymbols"><g class="legendpoints"/></g></g><rect class="legendtoggle" pointer-events="all" x="0" y="-9.5" width="98.046875" height="19" style="cursor: pointer; fill: rgb(0, 0, 0); fill-opacity: 0;"/></g><g class="traces" transform="translate(0, 87.1)" style="opacity: 1;"><text class="legendtext user-select-none" text-anchor="start" x="40" y="4.680000000000001" style="font-family: 'Open Sans', verdana, arial, sans-serif; font-size: 12px; fill: rgb(68, 68, 68); fill-opacity: 1; white-space: pre;">12 Months</text><g class="layers" style="opacity: 1;"><g class="legendfill"/><g class="legendlines"><path class="js-line" d="M5,0h30" style="fill: none; stroke: rgb(214, 39, 40); stroke-opacity: 1; stroke-width: 2px;"/></g><g class="legendsymbols"><g class="legendpoints"/></g></g><rect class="legendtoggle" pointer-events="all" x="0" y="-9.5" width="98.046875" height="19" style="cursor: pointer; fill: rgb(0, 0, 0); fill-opacity: 0;"/></g><g class="traces" transform="translate(0, 106.1)" style="opacity: 1;"><text class="legendtext user-select-none" text-anchor="start" x="40" y="4.680000000000001" style="font-family: 'Open Sans', verdana, arial, sans-serif; font-size: 12px; fill: rgb(68, 68, 68); fill-opacity: 1; white-space: pre;">24 Months</text><g class="layers" style="opacity: 1;"><g class="legendfill"/><g class="legendlines"><path class="js-line" d="M5,0h30" style="fill: none; stroke: rgb(148, 103, 189); stroke-opacity: 1; stroke-width: 2px;"/></g><g class="legendsymbols"><g class="legendpoints"/></g></g><rect class="legendtoggle" pointer-events="all" x="0" y="-9.5" width="98.046875" height="19" style="cursor: pointer; fill: rgb(0, 0, 0); fill-opacity: 0;"/></g><g class="traces" transform="translate(0, 125.1)" style="opacity: 1;"><text class="legendtext user-select-none" text-anchor="start" x="40" y="4.680000000000001" style="font-family: 'Open Sans', verdana, arial, sans-serif; font-size: 12px; fill: rgb(68, 68, 68); fill-opacity: 1; white-space: pre;">36 Months</text><g class="layers" style="opacity: 1;"><g class="legendfill"/><g class="legendlines"><path class="js-line" d="M5,0h30" style="fill: none; stroke: rgb(140, 86, 75); stroke-opacity: 1; stroke-width: 2px;"/></g><g class="legendsymbols"><g class="legendpoints"/></g></g><rect class="legendtoggle" pointer-events="all" x="0" y="-9.5" width="98.046875" height="19" style="cursor: pointer; fill: rgb(0, 0, 0); fill-opacity: 0;"/></g></g></g><rect class="scrollbar" rx="20" ry="3" width="0" height="0" style="fill: rgb(128, 139, 164); fill-opacity: 1;" x="0" y="0"/></g><g class="g-gtitle"><text class="gtitle" x="350" y="12.5" text-anchor="middle" dy="0em" style="font-family: 'Open Sans', verdana, arial, sans-serif; font-size: 17px; fill: rgb(68, 68, 68); opacity: 1; font-weight: normal; white-space: pre;"><tspan style="font-weight:bold"> Leprosy Prevalence MB - Immunity Vaccine 0.0, Treatment 75% </tspan></text></g><g class="g-xtitle" transform="translate(0,-15)"><text class="xtitle" x="369.5" y="512" text-anchor="middle" style="font-family: 'Open Sans', verdana, arial, sans-serif; font-size: 14px; fill: rgb(68, 68, 68); opacity: 1; font-weight: normal; white-space: pre;">Time(Years)</text></g><g class="g-ytitle"><text class="ytitle" transform="rotate(-90,22,242.5)" x="22" y="242.5" text-anchor="middle" style="font-family: 'Open Sans', verdana, arial, sans-serif; font-size: 14px; fill: rgb(68, 68, 68); opacity: 1; font-weight: normal; white-space: pre;">Number of infectiuos individuals</text></g></g></svg>