<svg class="main-svg" xmlns="http://www.w3.org/2000/svg" xmlns:xlink="http://www.w3.org/1999/xlink" width="700" height="500" style="" viewBox="0 0 700 500"><rect x="0" y="0" width="700" height="500" style="fill: rgb(255, 255, 255); fill-opacity: 1;"/><defs id="defs-896eb4"><g class="clips"><clipPath id="clip896eb4xyplot" class="plotclip"><rect width="619" height="435"/></clipPath><clipPath class="axesclip" id="clip896eb4x"><rect x="60" y="0" width="619" height="500"/></clipPath><clipPath class="axesclip" id="clip896eb4y"><rect x="0" y="25" width="700" height="435"/></clipPath><clipPath class="axesclip" id="clip896eb4xy"><rect x="60" y="25" width="619" height="435"/></clipPath></g><g class="gradients"/></defs><g class="bglayer"/><g class="layer-below"><g class="imagelayer"/><g class="shapelayer"/></g><g class="cartesianlayer"><g class="subplot xy"><g class="layer-subplot"><g class="shapelayer"/><g class="imagelayer"/></g><g class="gridlayer"><g class="x"><path class="xgrid crisp" transform="translate(212.42,0)" d="M0,25v435" style="stroke: rgb(238, 238, 238); stroke-opacity: 1; stroke-width: 1px;"/><path class="xgrid crisp" transform="translate(367.94,0)" d="M0,25v435" style="stroke: rgb(238, 238, 238); stroke-opacity: 1; stroke-width: 1px;"/><path class="xgrid crisp" transform="translate(523.47,0)" d="M0,25v435" style="stroke: rgb(238, 238, 238); stroke-opacity: 1; stroke-width: 1px;"/></g><g class="y"><path class="ygrid crisp" transform="translate(0,366.93)" d="M60,0h619" style="stroke: rgb(238, 238, 238); stroke-opacity: 1; stroke-width: 1px;"/><path class="ygrid crisp" transform="translate(0,295.11)" d="M60,0h619" style="stroke: rgb(238, 238, 238); stroke-opacity: 1; stroke-width: 1px;"/><path class="ygrid crisp" transform="translate(0,223.29)" d="M60,0h619" style="stroke: rgb(238, 238, 238); stroke-opacity: 1; stroke-width: 1px;"/><path class="ygrid crisp" transform="translate(0,151.48000000000002)" d="M60,0h619" style="stroke: rgb(238, 238, 238); stroke-opacity: 1; stroke-width: 1px;"/><path class="ygrid crisp" transform="translate(0,79.66)" d="M60,0h619" style="stroke: rgb(238, 238, 238); stroke-opacity: 1; stroke-width: 1px;"/></g></g><g class="zerolinelayer"><path class="yzl zl crisp" transform="translate(0,438.75)" d="M60,0h619" style="stroke: rgb(68, 68, 68); stroke-opacity: 1; stroke-width: 1px;"/></g><path class="xlines-below"/><path class="ylines-below"/><g class="overlines-below"/><g class="xaxislayer-below"/><g class="yaxislayer-below"/><g class="overaxes-below"/><g class="plot" transform="translate(60, 25)" clip-path="url('#clip896eb4xyplot')"><g class="scatterlayer mlayer"><g class="trace scatter trace92d72f" style="stroke-miterlimit: 2; opacity: 1;"><g class="fills"/><g class="errorbars"/><g class="lines"><path class="js-line" d="M0,413.15L6.22,413.25L9.33,412.3L27.99,409.64L31.11,408.89L49.77,404.43L52.88,403.66L62.21,400.56L65.32,399.44L77.76,394.62L80.87,393.21L96.43,385.47L99.54,383.49L118.2,371.87L121.31,369.53L146.2,349.46L149.31,346.21L161.75,334.04L164.86,329.73L177.3,314.98L180.41,310.33L192.85,294.12L195.96,289.64L211.52,267.12L214.63,262.12L220.85,250.22L223.96,244.72L236.4,221.84L239.51,214.8L248.84,195.39L251.95,188.58L264.4,158.5L267.51,149.43L283.06,108.14L286.17,98.88L292.39,79.94L295.5,69.03L304.83,38.49L307.94,27.33L314.17,68.94L317.28,86.54L332.83,166.08L335.94,180.67L345.27,218.86L348.38,225.02L354.6,230.1L357.71,232.35L373.27,247.26L376.38,250.62L388.82,262.66L391.93,264.15L401.26,267.37L404.37,269.25L413.7,273.58L416.81,274.32L419.92,275.1L423.04,276.69L429.26,279.06L432.37,279.47L447.92,284.4L451.03,284.92L466.58,289.64L469.69,290.47L475.91,291.17L479.03,291.87L485.25,292.79L488.36,293.68L494.58,295.51L497.69,295.57L507.02,296.6L510.13,297.76L516.35,299.45L519.46,300.35L522.57,301.02L525.68,300.92L531.9,301.51L535.02,301.8L538.13,302.46L541.24,302.27L547.46,303.66L550.57,303.91L553.68,304.21L556.79,305.29L572.34,306.08L575.45,306.47L581.67,307.23L584.78,307.46L594.12,306.63L597.23,307.01L603.45,307.45L606.56,307.94L612.78,308.96L615.89,309.02L619,310.08" style="vector-effect: non-scaling-stroke; fill: none; stroke: rgb(31, 119, 180); stroke-opacity: 1; stroke-width: 2px; opacity: 1;"/></g><g class="points"/><g class="text"/></g><g class="trace scatter tracec4014f" style="stroke-miterlimit: 2; opacity: 1;"><g class="fills"/><g class="errorbars"/><g class="lines"><path class="js-line" d="M0,413.15L6.22,413.25L9.33,412.3L27.99,409.64L31.11,408.89L49.77,404.43L52.88,403.66L62.21,400.56L65.32,399.44L77.76,394.62L80.87,393.21L96.43,385.47L99.54,383.49L118.2,371.87L121.31,369.53L146.2,349.46L149.31,346.21L161.75,334.04L164.86,329.73L177.3,314.98L180.41,310.33L192.85,294.12L195.96,289.64L211.52,267.12L214.63,262.12L220.85,250.22L223.96,244.72L236.4,221.84L239.51,214.8L248.84,195.39L251.95,188.58L264.4,158.5L267.51,149.43L283.06,108.14L286.17,98.88L292.39,79.94L295.5,69.03L304.83,38.49L307.94,27.33L317.28,81.43L320.39,99.01L332.83,162.92L335.94,177.23L345.27,214.75L348.38,221.24L363.93,232.79L367.05,236.04L385.71,254.68L388.82,256.75L391.93,258.34L395.04,258.96L398.15,260.57L401.26,261.26L404.37,261.6L407.48,263.37L410.59,263.42L413.7,264.3L419.92,267.63L423.04,268.21L429.26,270.81L432.37,271.55L435.48,273.48L438.59,273.9L441.7,274.44L444.81,275.76L447.92,277.05L451.03,277.5L466.58,281.33L469.69,282.16L472.8,282.79L475.91,282.58L485.25,284.65L488.36,285.56L522.57,290.16L525.68,290.77L528.79,290.99L531.9,292.04L550.57,294.99L553.68,294.79L569.23,294.71L572.34,295.35L578.56,295.47L581.67,295.37L584.78,294.86L587.89,295.72L594.12,296.21L597.23,297.04L603.45,297.33L606.56,297.29L619,299.41" style="vector-effect: non-scaling-stroke; fill: none; stroke: rgb(255, 127, 14); stroke-opacity: 1; stroke-width: 2px; opacity: 1;"/></g><g class="points"/><g class="text"/></g><g class="trace scatter trace65e396" style="stroke-miterlimit: 2; opacity: 1;"><g class="fills"/><g class="errorbars"/><g class="lines"><path class="js-line" d="M0,413.15L6.22,413.25L9.33,412.3L27.99,409.64L31.11,408.89L49.77,404.43L52.88,403.66L62.21,400.56L65.32,399.44L77.76,394.62L80.87,393.21L96.43,385.47L99.54,383.49L118.2,371.87L121.31,369.53L146.2,349.46L149.31,346.21L161.75,334.04L164.86,329.73L177.3,314.98L180.41,310.33L192.85,294.12L195.96,289.64L211.52,267.12L214.63,262.12L220.85,250.22L223.96,244.72L236.4,221.84L239.51,214.8L248.84,195.39L251.95,188.58L264.4,158.5L267.51,149.43L283.06,108.14L286.17,98.88L292.39,79.94L295.5,69.03L304.83,38.49L307.94,27.33L311.06,40.21L314.17,60.37L329.72,143.62L332.83,158.92L342.16,199.95L345.27,210.84L348.38,218.54L351.49,220L360.82,225.78L363.93,228.46L376.38,240.45L379.49,244.11L385.71,250.23L388.82,252.15L391.93,253.13L395.04,255.05L404.37,256.55L407.48,257.38L410.59,260.17L413.7,260.69L416.81,260.79L419.92,261.87L426.15,264.83L429.26,265.36L432.37,266.83L435.48,267.47L444.81,268.37L447.92,269.19L457.25,272.17L460.36,272.48L466.58,272.71L469.69,273.44L475.91,274.55L479.03,275.63L482.14,275.3L485.25,276.27L494.58,278.69L497.69,278.88L507.02,279.66L510.13,280.39L528.79,281.36L531.9,282.08L535.02,282.26L538.13,283.31L547.46,283.39L550.57,283.82L563.01,284.84L566.12,285.84L584.78,285.93L587.89,286.13L609.67,287.83L612.78,287.55L619,287.34" style="vector-effect: non-scaling-stroke; fill: none; stroke: rgb(44, 160, 44); stroke-opacity: 1; stroke-width: 2px; opacity: 1;"/></g><g class="points"/><g class="text"/></g><g class="trace scatter trace28e906" style="stroke-miterlimit: 2; opacity: 1;"><g class="fills"/><g class="errorbars"/><g class="lines"><path class="js-line" d="M0,413.15L6.22,413.25L9.33,412.3L27.99,409.64L31.11,408.89L49.77,404.43L52.88,403.66L62.21,400.56L65.32,399.44L77.76,394.62L80.87,393.21L96.43,385.47L99.54,383.49L118.2,371.87L121.31,369.53L146.2,349.46L149.31,346.21L161.75,334.04L164.86,329.73L177.3,314.98L180.41,310.33L192.85,294.12L195.96,289.64L211.52,267.12L214.63,262.12L220.85,250.22L223.96,244.72L236.4,221.84L239.51,214.8L248.84,195.39L251.95,188.58L264.4,158.5L267.51,149.43L283.06,108.14L286.17,98.88L292.39,79.94L295.5,69.03L304.83,38.49L307.94,27.33L311.06,32.39L314.17,51.46L326.61,118.36L329.72,133.32L339.05,175.43L342.16,187.96L345.27,199.47L348.38,207.64L351.49,210.29L354.6,211.79L360.82,215.57L363.93,218.66L370.16,222.09L373.27,225.32L376.38,226.88L379.49,230.43L385.71,235.1L388.82,238.17L391.93,240.28L395.04,241.24L398.15,240.94L401.26,242.03L404.37,242.46L407.48,244.3L413.7,245.32L416.81,246.88L426.15,249.77L429.26,250.14L441.7,252.93L444.81,253.16L447.92,254.13L451.03,254.29L457.25,254.9L460.36,255.99L463.47,257.07L466.58,257.04L469.69,257.32L472.8,256.26L479.03,257.71L482.14,258.76L485.25,258.93L488.36,258L491.47,257.78L494.58,258.33L500.8,258.09L503.91,258.59L510.13,260.3L513.24,260.14L522.57,258.4L525.68,258.73L531.9,258.14L535.02,257.62L559.9,258.04L563.01,258.88L575.45,256.82L578.56,257.75L597.23,257.02L600.34,256.56L606.56,255.74L609.67,256.07L615.89,254.9L619,254.79" style="vector-effect: non-scaling-stroke; fill: none; stroke: rgb(214, 39, 40); stroke-opacity: 1; stroke-width: 2px; opacity: 1;"/></g><g class="points"/><g class="text"/></g><g class="trace scatter traced09cdf" style="stroke-miterlimit: 2; opacity: 1;"><g class="fills"/><g class="errorbars"/><g class="lines"><path class="js-line" d="M0,413.15L6.22,413.25L9.33,412.3L27.99,409.64L31.11,408.89L49.77,404.43L52.88,403.66L62.21,400.56L65.32,399.44L77.76,394.62L80.87,393.21L96.43,385.47L99.54,383.49L118.2,371.87L121.31,369.53L146.2,349.46L149.31,346.21L161.75,334.04L164.86,329.73L177.3,314.98L180.41,310.33L192.85,294.12L195.96,289.64L211.52,267.12L214.63,262.12L220.85,250.22L223.96,244.72L236.4,221.84L239.51,214.8L248.84,195.39L251.95,188.58L264.4,158.5L267.51,149.43L283.06,108.14L286.17,98.88L292.39,79.94L295.5,69.03L304.83,38.49L307.94,27.33L311.06,24.89L314.17,35.72L326.61,99.94L329.72,115.69L342.16,168.88L345.27,180.62L348.38,189.99L351.49,193.68L360.82,193.3L363.93,194.99L370.16,198.46L373.27,200.39L388.82,211.63L391.93,212.99L395.04,214.59L398.15,214.61L404.37,213.87L407.48,214.72L416.81,214.38L419.92,214.97L426.15,216.05L429.26,216.52L438.59,218.4L441.7,217.9L451.03,216.7L454.14,216.77L457.25,216.8L460.36,216.04L475.91,216.4L479.03,215.79L494.58,214.29L497.69,213.6L507.02,214.72L510.13,213.45L513.24,213.15L516.35,213.98L522.57,211.42L525.68,211.63L535.02,208.49L538.13,207.99L547.46,208.61L550.57,207.59L553.68,206.38L556.79,206.01L559.9,206.09L563.01,204.25L566.12,203.54L569.23,203.95L572.34,203.77L575.45,202.26L581.67,199.62L584.78,198.48L591.01,196.55L594.12,195.35L600.34,194.39L603.45,192.95L606.56,191.65L609.67,191.41L612.78,190.7L615.89,189.18L619,189.65" style="vector-effect: non-scaling-stroke; fill: none; stroke: rgb(148, 103, 189); stroke-opacity: 1; stroke-width: 2px; opacity: 1;"/></g><g class="points"/><g class="text"/></g><g class="trace scatter trace4c25bf" style="stroke-miterlimit: 2; opacity: 1;"><g class="fills"/><g class="errorbars"/><g class="lines"><path class="js-line" d="M0,413.15L6.22,413.25L9.33,412.3L27.99,409.64L31.11,408.89L49.77,404.43L52.88,403.66L62.21,400.56L65.32,399.44L77.76,394.62L80.87,393.21L96.43,385.47L99.54,383.49L118.2,371.87L121.31,369.53L146.2,349.46L149.31,346.21L161.75,334.04L164.86,329.73L177.3,314.98L180.41,310.33L192.85,294.12L195.96,289.64L211.52,267.12L214.63,262.12L220.85,250.22L223.96,244.72L236.4,221.84L239.51,214.8L248.84,195.39L251.95,188.58L264.4,158.5L267.51,149.43L283.06,108.14L286.17,98.88L292.39,79.94L295.5,69.03L304.83,38.49L307.94,27.33L311.06,21.75L314.17,25.38L317.28,36.03L320.39,50.33L335.94,123.06L339.05,135.96L345.27,159.07L348.38,168.84L351.49,174.76L354.6,176.67L357.71,175.88L360.82,176.32L363.93,175.79L367.05,177.66L370.16,178.13L373.27,177.83L379.49,180.39L382.6,182.9L388.82,186L391.93,186.52L407.48,185.83L410.59,185.09L416.81,184.31L419.92,184.68L423.04,185.96L426.15,185.14L432.37,185.03L435.48,183.96L438.59,182.98L441.7,183.09L454.14,179.5L457.25,179.2L466.58,176.76L469.69,175.43L479.03,172.82L482.14,172.14L491.47,169.78L494.58,169.36L503.91,166.48L507.02,166.9L513.24,163.11L516.35,162.89L522.57,160.9L525.68,158.91L528.79,158.39L531.9,155.54L538.13,153.72L541.24,151.54L547.46,149.58L550.57,149.08L572.34,141.24L575.45,138.69L581.67,135.14L584.78,132.31L594.12,126.42L597.23,125.41L603.45,120.81L606.56,120.73L615.89,115.47L619,115.33" style="vector-effect: non-scaling-stroke; fill: none; stroke: rgb(140, 86, 75); stroke-opacity: 1; stroke-width: 2px; opacity: 1;"/></g><g class="points"/><g class="text"/></g></g></g><g class="overplot"/><path class="xlines-above crisp" style="fill: none;" d="M0,0"/><path class="ylines-above crisp" style="fill: none;" d="M0,0"/><g class="overlines-above"/><g class="xaxislayer-above"><g class="xtick"><text text-anchor="middle" x="0" y="473" transform="translate(212.42,0)" style="font-family: 'Open Sans', verdana, arial, sans-serif; font-size: 12px; fill: rgb(68, 68, 68); fill-opacity: 1; white-space: pre;">50</text></g><g class="xtick"><text text-anchor="middle" x="0" y="473" transform="translate(367.94,0)" style="font-family: 'Open Sans', verdana, arial, sans-serif; font-size: 12px; fill: rgb(68, 68, 68); fill-opacity: 1; white-space: pre;">100</text></g><g class="xtick"><text text-anchor="middle" x="0" y="473" transform="translate(523.47,0)" style="font-family: 'Open Sans', verdana, arial, sans-serif; font-size: 12px; fill: rgb(68, 68, 68); fill-opacity: 1; white-space: pre;">150</text></g><g class="xtick"><text text-anchor="middle" x="0" y="473" transform="translate(679,0)" style="font-family: 'Open Sans', verdana, arial, sans-serif; font-size: 12px; fill: rgb(68, 68, 68); fill-opacity: 1; white-space: pre;">200</text></g></g><g class="yaxislayer-above"><g class="ytick"><text text-anchor="end" x="59" y="4.199999999999999" transform="translate(0,438.75)" style="font-family: 'Open Sans', verdana, arial, sans-serif; font-size: 12px; fill: rgb(68, 68, 68); fill-opacity: 1; white-space: pre;">0</text></g><g class="ytick"><text text-anchor="end" x="59" y="4.199999999999999" transform="translate(0,366.93)" style="font-family: 'Open Sans', verdana, arial, sans-serif; font-size: 12px; fill: rgb(68, 68, 68); fill-opacity: 1; white-space: pre;">100</text></g><g class="ytick"><text text-anchor="end" x="59" y="4.199999999999999" transform="translate(0,295.11)" style="font-family: 'Open Sans', verdana, arial, sans-serif; font-size: 12px; fill: rgb(68, 68, 68); fill-opacity: 1; white-space: pre;">200</text></g><g class="ytick"><text text-anchor="end" x="59" y="4.199999999999999" transform="translate(0,223.29)" style="font-family: 'Open Sans', verdana, arial, sans-serif; font-size: 12px; fill: rgb(68, 68, 68); fill-opacity: 1; white-space: pre;">300</text></g><g class="ytick"><text text-anchor="end" x="59" y="4.199999999999999" transform="translate(0,151.48000000000002)" style="font-family: 'Open Sans', verdana, arial, sans-serif; font-size: 12px; fill: rgb(68, 68, 68); fill-opacity: 1; white-space: pre;">400</text></g><g class="ytick"><text text-anchor="end" x="59" y="4.199999999999999" transform="translate(0,79.66)" style="font-family: 'Open Sans', verdana, arial, sans-serif; font-size: 12px; fill: rgb(68, 68, 68); fill-opacity: 1; white-space: pre;">500</text></g></g><g class="overaxes-above"/></g></g><g class="polarlayer"/><g class="ternarylayer"/><g class="geolayer"/><g class="funnelarealayer"/><g class="pielayer"/><g class="treemaplayer"/><g class="sunburstlayer"/><g class="glimages"/><defs id="topdefs-896eb4"><g class="clips"/><clipPath id="legend896eb4"><rect width="117" height="140" x="0" y="0"/></clipPath></defs><g class="layer-above"><g class="imagelayer"/><g class="shapelayer"/></g><g class="infolayer"><g class="legend" pointer-events="all" transform="translate(90.95, 46.750000000000014)"><rect class="bg" shape-rendering="crispEdges" style="stroke: rgb(68, 68, 68); stroke-opacity: 1; fill: rgb(226, 226, 226); fill-opacity: 1; stroke-width: 0px;" width="117" height="140" x="0" y="0"/><g class="scrollbox" transform="translate(0, 0)" clip-path="url('#legend896eb4')"><text class="legendtitletext user-select-none" text-anchor="start" x="2" y="15.600000000000001" style="font-family: 'Open Sans', verdana, arial, sans-serif; font-size: 12px; fill: rgb(68, 68, 68); fill-opacity: 1; white-space: pre;"><tspan style="font-weight:bold"> Identification Time </tspan></text><g class="groups"><g class="traces" transform="translate(0, 30.1)" style="opacity: 1;"><text class="legendtext user-select-none" text-anchor="start" x="40" y="4.680000000000001" style="font-family: 'Open Sans', verdana, arial, sans-serif; font-size: 12px; fill: rgb(68, 68, 68); fill-opacity: 1; white-space: pre;">0 Months</text><g class="layers" style="opacity: 1;"><g class="legendfill"/><g class="legendlines"><path class="js-line" d="M5,0h30" style="fill: none; stroke: rgb(31, 119, 180); stroke-opacity: 1; stroke-width: 2px;"/></g><g class="legendsymbols"><g class="legendpoints"/></g></g><rect class="legendtoggle" pointer-events="all" x="0" y="-9.5" width="98.046875" height="19" style="cursor: pointer; fill: rgb(0, 0, 0); fill-opacity: 0;"/></g><g class="traces" transform="translate(0, 49.1)" style="opacity: 1;"><text class="legendtext user-select-none" text-anchor="start" x="40" y="4.680000000000001" style="font-family: 'Open Sans', verdana, arial, sans-serif; font-size: 12px; fill: rgb(68, 68, 68); fill-opacity: 1; white-space: pre;">3 Months</text><g class="layers" style="opacity: 1;"><g class="legendfill"/><g class="legendlines"><path class="js-line" d="M5,0h30" style="fill: none; stroke: rgb(255, 127, 14); stroke-opacity: 1; stroke-width: 2px;"/></g><g class="legendsymbols"><g class="legendpoints"/></g></g><rect class="legendtoggle" pointer-events="all" x="0" y="-9.5" width="98.046875" height="19" style="cursor: pointer; fill: rgb(0, 0, 0); fill-opacity: 0;"/></g><g class="traces" transform="translate(0, 68.1)" style="opacity: 1;"><text class="legendtext user-select-none" text-anchor="start" x="40" y="4.680000000000001" style="font-family: 'Open Sans', verdana, arial, sans-serif; font-size: 12px; fill: rgb(68, 68, 68); fill-opacity: 1; white-space: pre;">6 Months</text><g class="layers" style="opacity: 1;"><g class="legendfill"/><g class="legendlines"><path class="js-line" d="M5,0h30" style="fill: none; stroke: rgb(44, 160, 44); stroke-opacity: 1; stroke-width: 2px;"/></g><g class="legendsymbols"><g class="legendpoints"/></g></g><rect class="legendtoggle" pointer-events="all" x="0" y="-9.5" width="98.046875" height="19" style="cursor: pointer; fill: rgb(0, 0, 0); fill-opacity: 0;"/></g><g class="traces" transform="translate(0, 87.1)" style="opacity: 1;"><text class="legendtext user-select-none" text-anchor="start" x="40" y="4.680000000000001" style="font-family: 'Open Sans', verdana, arial, sans-serif; font-size: 12px; fill: rgb(68, 68, 68); fill-opacity: 1; white-space: pre;">12 Months</text><g class="layers" style="opacity: 1;"><g class="legendfill"/><g class="legendlines"><path class="js-line" d="M5,0h30" style="fill: none; stroke: rgb(214, 39, 40); stroke-opacity: 1; stroke-width: 2px;"/></g><g class="legendsymbols"><g class="legendpoints"/></g></g><rect class="legendtoggle" pointer-events="all" x="0" y="-9.5" width="98.046875" height="19" style="cursor: pointer; fill: rgb(0, 0, 0); fill-opacity: 0;"/></g><g class="traces" transform="translate(0, 106.1)" style="opacity: 1;"><text class="legendtext user-select-none" text-anchor="start" x="40" y="4.680000000000001" style="font-family: 'Open Sans', verdana, arial, sans-serif; font-size: 12px; fill: rgb(68, 68, 68); fill-opacity: 1; white-space: pre;">24 Months</text><g class="layers" style="opacity: 1;"><g class="legendfill"/><g class="legendlines"><path class="js-line" d="M5,0h30" style="fill: none; stroke: rgb(148, 103, 189); stroke-opacity: 1; stroke-width: 2px;"/></g><g class="legendsymbols"><g class="legendpoints"/></g></g><rect class="legendtoggle" pointer-events="all" x="0" y="-9.5" width="98.046875" height="19" style="cursor: pointer; fill: rgb(0, 0, 0); fill-opacity: 0;"/></g><g class="traces" transform="translate(0, 125.1)" style="opacity: 1;"><text class="legendtext user-select-none" text-anchor="start" x="40" y="4.680000000000001" style="font-family: 'Open Sans', verdana, arial, sans-serif; font-size: 12px; fill: rgb(68, 68, 68); fill-opacity: 1; white-space: pre;">36 Months</text><g class="layers" style="opacity: 1;"><g class="legendfill"/><g class="legendlines"><path class="js-line" d="M5,0h30" style="fill: none; stroke: rgb(140, 86, 75); stroke-opacity: 1; stroke-width: 2px;"/></g><g class="legendsymbols"><g class="legendpoints"/></g></g><rect class="legendtoggle" pointer-events="all" x="0" y="-9.5" width="98.046875" height="19" style="cursor: pointer; fill: rgb(0, 0, 0); fill-opacity: 0;"/></g></g></g><rect class="scrollbar" rx="20" ry="3" width="0" height="0" style="fill: rgb(128, 139, 164); fill-opacity: 1;" x="0" y="0"/></g><g class="g-gtitle"><text class="gtitle" x="350" y="12.5" text-anchor="middle" dy="0em" style="font-family: 'Open Sans', verdana, arial, sans-serif; font-size: 17px; fill: rgb(68, 68, 68); opacity: 1; font-weight: normal; white-space: pre;"><tspan style="font-weight:bold"> Leprosy Prevalence MB - Immunity Vaccine 0.5, Treatment 50% </tspan></text></g><g class="g-xtitle" transform="translate(0,-15)"><text class="xtitle" x="369.5" y="512" text-anchor="middle" style="font-family: 'Open Sans', verdana, arial, sans-serif; font-size: 14px; fill: rgb(68, 68, 68); opacity: 1; font-weight: normal; white-space: pre;">Time(Years)</text></g><g class="g-ytitle"><text class="ytitle" transform="rotate(-90,22,242.5)" x="22" y="242.5" text-anchor="middle" style="font-family: 'Open Sans', verdana, arial, sans-serif; font-size: 14px; fill: rgb(68, 68, 68); opacity: 1; font-weight: normal; white-space: pre;">Number of infectiuos individuals</text></g></g></svg>