<svg class="main-svg" xmlns="http://www.w3.org/2000/svg" xmlns:xlink="http://www.w3.org/1999/xlink" width="700" height="500" style="" viewBox="0 0 700 500"><rect x="0" y="0" width="700" height="500" style="fill: rgb(255, 255, 255); fill-opacity: 1;"/><defs id="defs-128de1"><g class="clips"><clipPath id="clip128de1xyplot" class="plotclip"><rect width="619" height="435"/></clipPath><clipPath class="axesclip" id="clip128de1x"><rect x="60" y="0" width="619" height="500"/></clipPath><clipPath class="axesclip" id="clip128de1y"><rect x="0" y="25" width="700" height="435"/></clipPath><clipPath class="axesclip" id="clip128de1xy"><rect x="60" y="25" width="619" height="435"/></clipPath></g><g class="gradients"/></defs><g class="bglayer"/><g class="layer-below"><g class="imagelayer"/><g class="shapelayer"/></g><g class="cartesianlayer"><g class="subplot xy"><g class="layer-subplot"><g class="shapelayer"/><g class="imagelayer"/></g><g class="gridlayer"><g class="x"><path class="xgrid crisp" transform="translate(212.42,0)" d="M0,25v435" style="stroke: rgb(238, 238, 238); stroke-opacity: 1; stroke-width: 1px;"/><path class="xgrid crisp" transform="translate(367.94,0)" d="M0,25v435" style="stroke: rgb(238, 238, 238); stroke-opacity: 1; stroke-width: 1px;"/><path class="xgrid crisp" transform="translate(523.47,0)" d="M0,25v435" style="stroke: rgb(238, 238, 238); stroke-opacity: 1; stroke-width: 1px;"/></g><g class="y"><path class="ygrid crisp" transform="translate(0,382.35)" d="M60,0h619" style="stroke: rgb(238, 238, 238); stroke-opacity: 1; stroke-width: 1px;"/><path class="ygrid crisp" transform="translate(0,326.07)" d="M60,0h619" style="stroke: rgb(238, 238, 238); stroke-opacity: 1; stroke-width: 1px;"/><path class="ygrid crisp" transform="translate(0,269.78)" d="M60,0h619" style="stroke: rgb(238, 238, 238); stroke-opacity: 1; stroke-width: 1px;"/><path class="ygrid crisp" transform="translate(0,213.49)" d="M60,0h619" style="stroke: rgb(238, 238, 238); stroke-opacity: 1; stroke-width: 1px;"/><path class="ygrid crisp" transform="translate(0,157.21)" d="M60,0h619" style="stroke: rgb(238, 238, 238); stroke-opacity: 1; stroke-width: 1px;"/><path class="ygrid crisp" transform="translate(0,100.92)" d="M60,0h619" style="stroke: rgb(238, 238, 238); stroke-opacity: 1; stroke-width: 1px;"/><path class="ygrid crisp" transform="translate(0,44.629999999999995)" d="M60,0h619" style="stroke: rgb(238, 238, 238); stroke-opacity: 1; stroke-width: 1px;"/></g></g><g class="zerolinelayer"><path class="yzl zl crisp" transform="translate(0,438.64)" d="M60,0h619" style="stroke: rgb(68, 68, 68); stroke-opacity: 1; stroke-width: 1px;"/></g><path class="xlines-below"/><path class="ylines-below"/><g class="overlines-below"/><g class="xaxislayer-below"/><g class="yaxislayer-below"/><g class="overaxes-below"/><g class="plot" transform="translate(60, 25)" clip-path="url('#clip128de1xyplot')"><g class="scatterlayer mlayer"><g class="trace scatter trace01ce5e" style="stroke-miterlimit: 2; opacity: 1;"><g class="fills"/><g class="errorbars"/><g class="lines"><path class="js-line" d="M0,413.17L6.22,413.25L9.33,412.51L31.11,409.83L34.22,409.34L55.99,405.06L59.1,404.16L80.87,397.54L83.98,396.42L90.21,394.14L93.32,392.6L102.65,388.47L105.76,386.98L121.31,378.99L124.42,377.08L136.86,369.55L139.97,367.27L146.2,363.26L149.31,360.71L161.75,351.17L164.86,347.79L177.3,336.23L180.41,332.59L192.85,319.88L195.96,316.37L211.52,298.72L214.63,294.8L220.85,285.48L223.96,281.16L236.4,263.23L239.51,257.72L248.84,242.51L251.95,237.17L264.4,213.59L267.51,206.48L283.06,174.13L286.17,166.87L295.5,143.47L298.61,135.85L307.94,110.79L311.06,128.11L320.39,170.36L323.5,182.61L332.83,217.46L335.94,227.98L345.27,254.58L348.38,259.01L351.49,260.85L354.6,261.37L360.82,263.18L363.93,264.5L379.49,274.19L382.6,277.29L385.71,278.74L388.82,279.32L398.15,279.82L401.26,279.61L419.92,282.83L423.04,283.62L451.03,284.93L454.14,284.63L457.25,284.24L460.36,284.64L463.47,285.2L466.58,284.82L488.36,285.66L491.47,285.45L516.35,284.7L519.46,284.83L525.68,283.62L528.79,283.42L531.9,282.64L535.02,282.78L553.68,281.44L556.79,281.2L566.12,279.59L569.23,279.55L575.45,279.3L578.56,278.31L606.56,275.25L609.67,275.8L619,274.81" style="vector-effect: non-scaling-stroke; fill: none; stroke: rgb(31, 119, 180); stroke-opacity: 1; stroke-width: 2px; opacity: 1;"/></g><g class="points"/><g class="text"/></g><g class="trace scatter trace56f776" style="stroke-miterlimit: 2; opacity: 1;"><g class="fills"/><g class="errorbars"/><g class="lines"><path class="js-line" d="M0,413.17L6.22,413.25L9.33,412.51L31.11,409.83L34.22,409.34L55.99,405.06L59.1,404.16L80.87,397.54L83.98,396.42L90.21,394.14L93.32,392.6L102.65,388.47L105.76,386.98L121.31,378.99L124.42,377.08L136.86,369.55L139.97,367.27L146.2,363.26L149.31,360.71L161.75,351.17L164.86,347.79L177.3,336.23L180.41,332.59L192.85,319.88L195.96,316.37L211.52,298.72L214.63,294.8L220.85,285.48L223.96,281.16L236.4,263.23L239.51,257.72L248.84,242.51L251.95,237.17L264.4,213.59L267.51,206.48L283.06,174.13L286.17,166.87L295.5,143.47L298.61,135.85L307.94,110.79L311.06,123.93L323.5,179.14L326.61,190.69L339.05,231.9L342.16,241.25L345.27,250.13L348.38,254.49L354.6,257.39L357.71,257.73L376.38,265.89L379.49,268.05L388.82,272.7L391.93,273.12L407.48,274.89L410.59,275.7L419.92,276.15L423.04,276.8L432.37,276.35L435.48,276.85L454.14,277.9L457.25,277.34L469.69,277.44L472.8,276.64L482.14,275.62L485.25,274.91L491.47,274.4L494.58,274.29L535.02,270.15L538.13,269.41L550.57,267.77L553.68,268.12L569.23,266.66L572.34,266.78L609.67,259.54L612.78,258.67L619,257.76" style="vector-effect: non-scaling-stroke; fill: none; stroke: rgb(255, 127, 14); stroke-opacity: 1; stroke-width: 2px; opacity: 1;"/></g><g class="points"/><g class="text"/></g><g class="trace scatter tracead6ad8" style="stroke-miterlimit: 2; opacity: 1;"><g class="fills"/><g class="errorbars"/><g class="lines"><path class="js-line" d="M0,413.17L6.22,413.25L9.33,412.51L31.11,409.83L34.22,409.34L55.99,405.06L59.1,404.16L80.87,397.54L83.98,396.42L90.21,394.14L93.32,392.6L102.65,388.47L105.76,386.98L121.31,378.99L124.42,377.08L136.86,369.55L139.97,367.27L146.2,363.26L149.31,360.71L161.75,351.17L164.86,347.79L177.3,336.23L180.41,332.59L192.85,319.88L195.96,316.37L211.52,298.72L214.63,294.8L220.85,285.48L223.96,281.16L236.4,263.23L239.51,257.72L248.84,242.51L251.95,237.17L264.4,213.59L267.51,206.48L283.06,174.13L286.17,166.87L295.5,143.47L298.61,135.85L307.94,110.79L311.06,120.89L317.28,149.93L320.39,162.82L332.83,209.38L335.94,219.04L345.27,245.51L348.38,250.23L351.49,251.35L354.6,251.64L360.82,253.86L363.93,256.68L373.27,260.77L376.38,262.21L379.49,264.17L382.6,265.24L385.71,267.66L388.82,268.13L398.15,268.27L401.26,267.56L429.26,269.28L432.37,269.14L435.48,268.45L438.59,268.65L447.92,268.46L451.03,267.43L466.58,266.69L469.69,266.09L494.58,263.1L497.69,262.24L507.02,261.22L510.13,260.59L516.35,259.95L519.46,259.77L525.68,259.38L528.79,258.27L535.02,257.35L538.13,257.03L544.35,255.55L547.46,254.63L559.9,253.32L563.01,252.72L569.23,250.87L572.34,250.74L575.45,249.93L578.56,250.24L581.67,248.89L584.78,248.65L597.23,245.82L600.34,245.15L606.56,242.71L609.67,242.1L619,239.4" style="vector-effect: non-scaling-stroke; fill: none; stroke: rgb(44, 160, 44); stroke-opacity: 1; stroke-width: 2px; opacity: 1;"/></g><g class="points"/><g class="text"/></g><g class="trace scatter trace04500d" style="stroke-miterlimit: 2; opacity: 1;"><g class="fills"/><g class="errorbars"/><g class="lines"><path class="js-line" d="M0,413.17L6.22,413.25L9.33,412.51L31.11,409.83L34.22,409.34L55.99,405.06L59.1,404.16L80.87,397.54L83.98,396.42L90.21,394.14L93.32,392.6L102.65,388.47L105.76,386.98L121.31,378.99L124.42,377.08L136.86,369.55L139.97,367.27L146.2,363.26L149.31,360.71L161.75,351.17L164.86,347.79L177.3,336.23L180.41,332.59L192.85,319.88L195.96,316.37L211.52,298.72L214.63,294.8L220.85,285.48L223.96,281.16L236.4,263.23L239.51,257.72L248.84,242.51L251.95,237.17L264.4,213.59L267.51,206.48L283.06,174.13L286.17,166.87L295.5,143.47L298.61,135.85L307.94,110.79L311.06,114.76L317.28,144.08L320.39,156.3L329.72,191.61L332.83,202.33L342.16,230.24L345.27,238.5L348.38,244.05L351.49,244.56L367.05,247.28L370.16,248.7L373.27,250.56L376.38,251.13L382.6,254.26L385.71,255.32L388.82,256.3L391.93,256.17L398.15,255.6L401.26,256.26L407.48,256.44L410.59,255.44L426.15,255.01L429.26,256.08L438.59,254.41L441.7,254.7L447.92,253.88L451.03,253.64L457.25,252.52L460.36,251.93L469.69,249.91L472.8,249.28L479.03,246.2L482.14,245.3L485.25,245.19L488.36,243.33L494.58,241.37L497.69,241.14L500.8,240.95L503.91,239.58L513.24,238.1L516.35,236.7L519.46,236.59L522.57,235.45L544.35,227.28L547.46,226.93L556.79,223.91L559.9,223.35L566.12,220.59L569.23,219.89L572.34,219.16L575.45,217.54L578.56,216.88L581.67,215.39L594.12,211.6L597.23,209.55L600.34,209.39L603.45,208.23L612.78,204.02L615.89,202.5L619,201.61" style="vector-effect: non-scaling-stroke; fill: none; stroke: rgb(214, 39, 40); stroke-opacity: 1; stroke-width: 2px; opacity: 1;"/></g><g class="points"/><g class="text"/></g><g class="trace scatter trace608600" style="stroke-miterlimit: 2; opacity: 1;"><g class="fills"/><g class="errorbars"/><g class="lines"><path class="js-line" d="M0,413.17L6.22,413.25L9.33,412.51L31.11,409.83L34.22,409.34L55.99,405.06L59.1,404.16L80.87,397.54L83.98,396.42L90.21,394.14L93.32,392.6L102.65,388.47L105.76,386.98L121.31,378.99L124.42,377.08L136.86,369.55L139.97,367.27L146.2,363.26L149.31,360.71L161.75,351.17L164.86,347.79L177.3,336.23L180.41,332.59L192.85,319.88L195.96,316.37L211.52,298.72L214.63,294.8L220.85,285.48L223.96,281.16L236.4,263.23L239.51,257.72L248.84,242.51L251.95,237.17L264.4,213.59L267.51,206.48L283.06,174.13L286.17,166.87L295.5,143.47L298.61,135.85L307.94,110.79L311.06,108.88L314.17,116.91L317.28,129.03L326.61,163.93L329.72,175.29L342.16,213.47L345.27,221.71L348.38,227.17L351.49,229.25L354.6,229.21L357.71,227.53L363.93,226.91L367.05,227.12L370.16,226.39L373.27,226.72L379.49,228.66L382.6,229.82L388.82,231.17L391.93,230.92L395.04,231.24L398.15,230.46L407.48,227.24L410.59,225.77L416.81,223.92L419.92,222.78L429.26,220.2L432.37,219.71L441.7,216.62L444.81,214.81L447.92,214.62L451.03,212.42L457.25,209.91L460.36,208.17L475.91,201.39L479.03,200.17L488.36,194.36L491.47,192.66L494.58,189.98L497.69,189.63L516.35,180.49L519.46,178.06L531.9,172.41L535.02,169.72L541.24,166.97L544.35,164.05L547.46,161.36L550.57,159.84L569.23,149.7L572.34,146.79L581.67,141.3L584.78,139.51L600.34,129.05L603.45,125.99L612.78,119.2L615.89,118.98L619,116.97" style="vector-effect: non-scaling-stroke; fill: none; stroke: rgb(148, 103, 189); stroke-opacity: 1; stroke-width: 2px; opacity: 1;"/></g><g class="points"/><g class="text"/></g><g class="trace scatter trace5b27dc" style="stroke-miterlimit: 2; opacity: 1;"><g class="fills"/><g class="errorbars"/><g class="lines"><path class="js-line" d="M0,413.17L6.22,413.25L9.33,412.51L31.11,409.83L34.22,409.34L55.99,405.06L59.1,404.16L80.87,397.54L83.98,396.42L90.21,394.14L93.32,392.6L102.65,388.47L105.76,386.98L121.31,378.99L124.42,377.08L136.86,369.55L139.97,367.27L146.2,363.26L149.31,360.71L161.75,351.17L164.86,347.79L177.3,336.23L180.41,332.59L192.85,319.88L195.96,316.37L211.52,298.72L214.63,294.8L220.85,285.48L223.96,281.16L236.4,263.23L239.51,257.72L248.84,242.51L251.95,237.17L264.4,213.59L267.51,206.48L283.06,174.13L286.17,166.87L295.5,143.47L298.61,135.85L307.94,110.79L311.06,106.42L314.17,109.52L317.28,118.11L326.61,150.84L329.72,160.11L342.16,196.41L345.27,204.03L348.38,210.67L351.49,214.02L354.6,213.83L357.71,211.17L363.93,208.93L367.05,208.83L370.16,208.69L373.27,207.52L376.38,206.82L379.49,207.03L382.6,207.4L385.71,206.65L388.82,206.94L391.93,205.95L395.04,205.92L398.15,205.12L404.37,201.99L407.48,200.36L413.7,197.27L416.81,194.51L426.15,188.36L429.26,186.4L438.59,183.24L441.7,181.66L447.92,176.42L451.03,173.88L466.58,164.39L469.69,163.56L472.8,161.34L475.91,158.18L485.25,150.76L488.36,147.31L494.58,142.79L497.69,140L503.91,134.84L507.02,133.32L513.24,125.19L516.35,122.68L522.57,118.54L525.68,114.85L535.02,106.86L538.13,105.03L544.35,100.62L547.46,96.5L563.01,80.87L566.12,78.31L569.23,74.05L572.34,71.35L575.45,68.75L578.56,65.05L581.67,61.71L584.78,57.26L587.89,54.4L591.01,52.81L619,21.75" style="vector-effect: non-scaling-stroke; fill: none; stroke: rgb(140, 86, 75); stroke-opacity: 1; stroke-width: 2px; opacity: 1;"/></g><g class="points"/><g class="text"/></g></g></g><g class="overplot"/><path class="xlines-above crisp" style="fill: none;" d="M0,0"/><path class="ylines-above crisp" style="fill: none;" d="M0,0"/><g class="overlines-above"/><g class="xaxislayer-above"><g class="xtick"><text text-anchor="middle" x="0" y="473" transform="translate(212.42,0)" style="font-family: 'Open Sans', verdana, arial, sans-serif; font-size: 12px; fill: rgb(68, 68, 68); fill-opacity: 1; white-space: pre;">50</text></g><g class="xtick"><text text-anchor="middle" x="0" y="473" transform="translate(367.94,0)" style="font-family: 'Open Sans', verdana, arial, sans-serif; font-size: 12px; fill: rgb(68, 68, 68); fill-opacity: 1; white-space: pre;">100</text></g><g class="xtick"><text text-anchor="middle" x="0" y="473" transform="translate(523.47,0)" style="font-family: 'Open Sans', verdana, arial, sans-serif; font-size: 12px; fill: rgb(68, 68, 68); fill-opacity: 1; white-space: pre;">150</text></g><g class="xtick"><text text-anchor="middle" x="0" y="473" transform="translate(679,0)" style="font-family: 'Open Sans', verdana, arial, sans-serif; font-size: 12px; fill: rgb(68, 68, 68); fill-opacity: 1; white-space: pre;">200</text></g></g><g class="yaxislayer-above"><g class="ytick"><text text-anchor="end" x="59" y="4.199999999999999" transform="translate(0,438.64)" style="font-family: 'Open Sans', verdana, arial, sans-serif; font-size: 12px; fill: rgb(68, 68, 68); fill-opacity: 1; white-space: pre;">0</text></g><g class="ytick"><text text-anchor="end" x="59" y="4.199999999999999" transform="translate(0,382.35)" style="font-family: 'Open Sans', verdana, arial, sans-serif; font-size: 12px; fill: rgb(68, 68, 68); fill-opacity: 1; white-space: pre;">100</text></g><g class="ytick"><text text-anchor="end" x="59" y="4.199999999999999" transform="translate(0,326.07)" style="font-family: 'Open Sans', verdana, arial, sans-serif; font-size: 12px; fill: rgb(68, 68, 68); fill-opacity: 1; white-space: pre;">200</text></g><g class="ytick"><text text-anchor="end" x="59" y="4.199999999999999" transform="translate(0,269.78)" style="font-family: 'Open Sans', verdana, arial, sans-serif; font-size: 12px; fill: rgb(68, 68, 68); fill-opacity: 1; white-space: pre;">300</text></g><g class="ytick"><text text-anchor="end" x="59" y="4.199999999999999" transform="translate(0,213.49)" style="font-family: 'Open Sans', verdana, arial, sans-serif; font-size: 12px; fill: rgb(68, 68, 68); fill-opacity: 1; white-space: pre;">400</text></g><g class="ytick"><text text-anchor="end" x="59" y="4.199999999999999" transform="translate(0,157.21)" style="font-family: 'Open Sans', verdana, arial, sans-serif; font-size: 12px; fill: rgb(68, 68, 68); fill-opacity: 1; white-space: pre;">500</text></g><g class="ytick"><text text-anchor="end" x="59" y="4.199999999999999" transform="translate(0,100.92)" style="font-family: 'Open Sans', verdana, arial, sans-serif; font-size: 12px; fill: rgb(68, 68, 68); fill-opacity: 1; white-space: pre;">600</text></g><g class="ytick"><text text-anchor="end" x="59" y="4.199999999999999" transform="translate(0,44.629999999999995)" style="font-family: 'Open Sans', verdana, arial, sans-serif; font-size: 12px; fill: rgb(68, 68, 68); fill-opacity: 1; white-space: pre;">700</text></g></g><g class="overaxes-above"/></g></g><g class="polarlayer"/><g class="ternarylayer"/><g class="geolayer"/><g class="funnelarealayer"/><g class="pielayer"/><g class="treemaplayer"/><g class="sunburstlayer"/><g class="glimages"/><defs id="topdefs-128de1"><g class="clips"/><clipPath id="legend128de1"><rect width="117" height="140" x="0" y="0"/></clipPath></defs><g class="layer-above"><g class="imagelayer"/><g class="shapelayer"/></g><g class="infolayer"><g class="legend" pointer-events="all" transform="translate(90.95, 46.750000000000014)"><rect class="bg" shape-rendering="crispEdges" style="stroke: rgb(68, 68, 68); stroke-opacity: 1; fill: rgb(226, 226, 226); fill-opacity: 1; stroke-width: 0px;" width="117" height="140" x="0" y="0"/><g class="scrollbox" transform="translate(0, 0)" clip-path="url('#legend128de1')"><text class="legendtitletext user-select-none" text-anchor="start" x="2" y="15.600000000000001" style="font-family: 'Open Sans', verdana, arial, sans-serif; font-size: 12px; fill: rgb(68, 68, 68); fill-opacity: 1; white-space: pre;"><tspan style="font-weight:bold"> Identification Time </tspan></text><g class="groups"><g class="traces" transform="translate(0, 30.1)" style="opacity: 1;"><text class="legendtext user-select-none" text-anchor="start" x="40" y="4.680000000000001" style="font-family: 'Open Sans', verdana, arial, sans-serif; font-size: 12px; fill: rgb(68, 68, 68); fill-opacity: 1; white-space: pre;">0 Months</text><g class="layers" style="opacity: 1;"><g class="legendfill"/><g class="legendlines"><path class="js-line" d="M5,0h30" style="fill: none; stroke: rgb(31, 119, 180); stroke-opacity: 1; stroke-width: 2px;"/></g><g class="legendsymbols"><g class="legendpoints"/></g></g><rect class="legendtoggle" pointer-events="all" x="0" y="-9.5" width="98.046875" height="19" style="cursor: pointer; fill: rgb(0, 0, 0); fill-opacity: 0;"/></g><g class="traces" transform="translate(0, 49.1)" style="opacity: 1;"><text class="legendtext user-select-none" text-anchor="start" x="40" y="4.680000000000001" style="font-family: 'Open Sans', verdana, arial, sans-serif; font-size: 12px; fill: rgb(68, 68, 68); fill-opacity: 1; white-space: pre;">3 Months</text><g class="layers" style="opacity: 1;"><g class="legendfill"/><g class="legendlines"><path class="js-line" d="M5,0h30" style="fill: none; stroke: rgb(255, 127, 14); stroke-opacity: 1; stroke-width: 2px;"/></g><g class="legendsymbols"><g class="legendpoints"/></g></g><rect class="legendtoggle" pointer-events="all" x="0" y="-9.5" width="98.046875" height="19" style="cursor: pointer; fill: rgb(0, 0, 0); fill-opacity: 0;"/></g><g class="traces" transform="translate(0, 68.1)" style="opacity: 1;"><text class="legendtext user-select-none" text-anchor="start" x="40" y="4.680000000000001" style="font-family: 'Open Sans', verdana, arial, sans-serif; font-size: 12px; fill: rgb(68, 68, 68); fill-opacity: 1; white-space: pre;">6 Months</text><g class="layers" style="opacity: 1;"><g class="legendfill"/><g class="legendlines"><path class="js-line" d="M5,0h30" style="fill: none; stroke: rgb(44, 160, 44); stroke-opacity: 1; stroke-width: 2px;"/></g><g class="legendsymbols"><g class="legendpoints"/></g></g><rect class="legendtoggle" pointer-events="all" x="0" y="-9.5" width="98.046875" height="19" style="cursor: pointer; fill: rgb(0, 0, 0); fill-opacity: 0;"/></g><g class="traces" transform="translate(0, 87.1)" style="opacity: 1;"><text class="legendtext user-select-none" text-anchor="start" x="40" y="4.680000000000001" style="font-family: 'Open Sans', verdana, arial, sans-serif; font-size: 12px; fill: rgb(68, 68, 68); fill-opacity: 1; white-space: pre;">12 Months</text><g class="layers" style="opacity: 1;"><g class="legendfill"/><g class="legendlines"><path class="js-line" d="M5,0h30" style="fill: none; stroke: rgb(214, 39, 40); stroke-opacity: 1; stroke-width: 2px;"/></g><g class="legendsymbols"><g class="legendpoints"/></g></g><rect class="legendtoggle" pointer-events="all" x="0" y="-9.5" width="98.046875" height="19" style="cursor: pointer; fill: rgb(0, 0, 0); fill-opacity: 0;"/></g><g class="traces" transform="translate(0, 106.1)" style="opacity: 1;"><text class="legendtext user-select-none" text-anchor="start" x="40" y="4.680000000000001" style="font-family: 'Open Sans', verdana, arial, sans-serif; font-size: 12px; fill: rgb(68, 68, 68); fill-opacity: 1; white-space: pre;">24 Months</text><g class="layers" style="opacity: 1;"><g class="legendfill"/><g class="legendlines"><path class="js-line" d="M5,0h30" style="fill: none; stroke: rgb(148, 103, 189); stroke-opacity: 1; stroke-width: 2px;"/></g><g class="legendsymbols"><g class="legendpoints"/></g></g><rect class="legendtoggle" pointer-events="all" x="0" y="-9.5" width="98.046875" height="19" style="cursor: pointer; fill: rgb(0, 0, 0); fill-opacity: 0;"/></g><g class="traces" transform="translate(0, 125.1)" style="opacity: 1;"><text class="legendtext user-select-none" text-anchor="start" x="40" y="4.680000000000001" style="font-family: 'Open Sans', verdana, arial, sans-serif; font-size: 12px; fill: rgb(68, 68, 68); fill-opacity: 1; white-space: pre;">36 Months</text><g class="layers" style="opacity: 1;"><g class="legendfill"/><g class="legendlines"><path class="js-line" d="M5,0h30" style="fill: none; stroke: rgb(140, 86, 75); stroke-opacity: 1; stroke-width: 2px;"/></g><g class="legendsymbols"><g class="legendpoints"/></g></g><rect class="legendtoggle" pointer-events="all" x="0" y="-9.5" width="98.046875" height="19" style="cursor: pointer; fill: rgb(0, 0, 0); fill-opacity: 0;"/></g></g></g><rect class="scrollbar" rx="20" ry="3" width="0" height="0" style="fill: rgb(128, 139, 164); fill-opacity: 1;" x="0" y="0"/></g><g class="g-gtitle"><text class="gtitle" x="350" y="12.5" text-anchor="middle" dy="0em" style="font-family: 'Open Sans', verdana, arial, sans-serif; font-size: 17px; fill: rgb(68, 68, 68); opacity: 1; font-weight: normal; white-space: pre;"><tspan style="font-weight:bold"> Leprosy Prevalence MB - Immunity Vaccine 0.0, Treatment 50% </tspan></text></g><g class="g-xtitle" transform="translate(0,-15)"><text class="xtitle" x="369.5" y="512" text-anchor="middle" style="font-family: 'Open Sans', verdana, arial, sans-serif; font-size: 14px; fill: rgb(68, 68, 68); opacity: 1; font-weight: normal; white-space: pre;">Time(Years)</text></g><g class="g-ytitle"><text class="ytitle" transform="rotate(-90,22,242.5)" x="22" y="242.5" text-anchor="middle" style="font-family: 'Open Sans', verdana, arial, sans-serif; font-size: 14px; fill: rgb(68, 68, 68); opacity: 1; font-weight: normal; white-space: pre;">Number of infectiuos individuals</text></g></g></svg>