<svg class="main-svg" xmlns="http://www.w3.org/2000/svg" xmlns:xlink="http://www.w3.org/1999/xlink" width="700" height="500" style="" viewBox="0 0 700 500"><rect x="0" y="0" width="700" height="500" style="fill: rgb(255, 255, 255); fill-opacity: 1;"/><defs id="defs-aaa493"><g class="clips"><clipPath id="clipaaa493xyplot" class="plotclip"><rect width="619" height="435"/></clipPath><clipPath class="axesclip" id="clipaaa493x"><rect x="60" y="0" width="619" height="500"/></clipPath><clipPath class="axesclip" id="clipaaa493y"><rect x="0" y="25" width="700" height="435"/></clipPath><clipPath class="axesclip" id="clipaaa493xy"><rect x="60" y="25" width="619" height="435"/></clipPath></g><g class="gradients"/></defs><g class="bglayer"/><g class="layer-below"><g class="imagelayer"/><g class="shapelayer"/></g><g class="cartesianlayer"><g class="subplot xy"><g class="layer-subplot"><g class="shapelayer"/><g class="imagelayer"/></g><g class="gridlayer"><g class="x"><path class="xgrid crisp" transform="translate(212.42,0)" d="M0,25v435" style="stroke: rgb(238, 238, 238); stroke-opacity: 1; stroke-width: 1px;"/><path class="xgrid crisp" transform="translate(367.94,0)" d="M0,25v435" style="stroke: rgb(238, 238, 238); stroke-opacity: 1; stroke-width: 1px;"/><path class="xgrid crisp" transform="translate(523.47,0)" d="M0,25v435" style="stroke: rgb(238, 238, 238); stroke-opacity: 1; stroke-width: 1px;"/></g><g class="y"><path class="ygrid crisp" transform="translate(0,368.07)" d="M60,0h619" style="stroke: rgb(238, 238, 238); stroke-opacity: 1; stroke-width: 1px;"/><path class="ygrid crisp" transform="translate(0,297.4)" d="M60,0h619" style="stroke: rgb(238, 238, 238); stroke-opacity: 1; stroke-width: 1px;"/><path class="ygrid crisp" transform="translate(0,226.73)" d="M60,0h619" style="stroke: rgb(238, 238, 238); stroke-opacity: 1; stroke-width: 1px;"/><path class="ygrid crisp" transform="translate(0,156.06)" d="M60,0h619" style="stroke: rgb(238, 238, 238); stroke-opacity: 1; stroke-width: 1px;"/><path class="ygrid crisp" transform="translate(0,85.39)" d="M60,0h619" style="stroke: rgb(238, 238, 238); stroke-opacity: 1; stroke-width: 1px;"/></g></g><g class="zerolinelayer"><path class="yzl zl crisp" transform="translate(0,438.74)" d="M60,0h619" style="stroke: rgb(68, 68, 68); stroke-opacity: 1; stroke-width: 1px;"/></g><path class="xlines-below"/><path class="ylines-below"/><g class="overlines-below"/><g class="xaxislayer-below"/><g class="yaxislayer-below"/><g class="overaxes-below"/><g class="plot" transform="translate(60, 25)" clip-path="url('#clipaaa493xyplot')"><g class="scatterlayer mlayer"><g class="trace scatter tracebfc687" style="stroke-miterlimit: 2; opacity: 1;"><g class="fills"/><g class="errorbars"/><g class="lines"><path class="js-line" d="M0,413.15L6.22,413.25L9.33,412.32L31.11,408.96L34.22,408.33L55.99,402.97L59.1,401.83L77.76,394.92L80.87,393.53L96.43,385.92L99.54,383.96L118.2,372.53L121.31,370.23L146.2,350.48L149.31,347.28L161.75,335.31L164.86,331.06L177.3,316.55L180.41,311.97L192.85,296.02L195.96,291.61L211.52,269.45L214.63,264.53L220.85,252.83L223.96,247.41L236.4,224.89L239.51,217.97L248.84,198.87L251.95,192.17L264.4,162.57L267.51,153.64L283.06,113.02L286.17,103.9L292.39,85.27L295.5,74.53L304.83,44.48L307.94,33.49L317.28,48.8L320.39,52.35L326.61,69.93L329.72,79.6L345.27,130.37L348.38,137.65L357.71,150.09L360.82,153.13L363.93,156.21L367.05,160.62L382.6,179.89L385.71,183.64L401.26,197.99L404.37,200.01L410.59,204.74L413.7,206.15L423.04,211.58L426.15,214.46L432.37,218.82L435.48,221.07L444.81,226.32L447.92,227.16L454.14,229.72L457.25,230.99L469.69,237.46L472.8,237.95L479.03,241.23L482.14,241.87L488.36,243L491.47,244.27L500.8,247.71L503.91,248.59L510.13,250.18L513.24,251.46L519.46,252.31L522.57,251.9L528.79,254.11L531.9,254.32L535.02,255.74L538.13,255.69L556.79,258.9L559.9,258.84L563.01,259.1L566.12,260.22L572.34,261.07L575.45,261.1L584.78,262.74L587.89,262.65L594.12,261.91L597.23,262.25L603.45,263.2L606.56,264.1L612.78,264.78L615.89,264.83L619,265.22" style="vector-effect: non-scaling-stroke; fill: none; stroke: rgb(31, 119, 180); stroke-opacity: 1; stroke-width: 2px; opacity: 1;"/></g><g class="points"/><g class="text"/></g><g class="trace scatter traced6946f" style="stroke-miterlimit: 2; opacity: 1;"><g class="fills"/><g class="errorbars"/><g class="lines"><path class="js-line" d="M0,413.15L6.22,413.25L9.33,412.32L31.11,408.96L34.22,408.33L55.99,402.97L59.1,401.83L77.76,394.92L80.87,393.53L96.43,385.92L99.54,383.96L118.2,372.53L121.31,370.23L146.2,350.48L149.31,347.28L161.75,335.31L164.86,331.06L177.3,316.55L180.41,311.97L192.85,296.02L195.96,291.61L211.52,269.45L214.63,264.53L220.85,252.83L223.96,247.41L236.4,224.89L239.51,217.97L248.84,198.87L251.95,192.17L264.4,162.57L267.51,153.64L283.06,113.02L286.17,103.9L292.39,85.27L295.5,74.53L304.83,44.48L307.94,33.49L311.06,35.93L314.17,41.36L320.39,48.95L323.5,57.74L335.94,97.51L339.05,107.84L345.27,128.59L348.38,136.29L354.6,144.29L357.71,148.13L363.93,155.71L367.05,158.86L376.38,169.9L379.49,172.57L388.82,182.54L391.93,185.47L410.59,202.37L413.7,203.89L423.04,211.18L426.15,212.91L435.48,217.83L438.59,219.92L444.81,223.43L447.92,225.02L451.03,226.07L454.14,228.04L457.25,228.69L460.36,230.4L463.47,231.25L466.58,233.05L472.8,236.36L475.91,236.81L479.03,238.5L482.14,239.05L485.25,239.72L488.36,241.25L497.69,243.96L500.8,244.05L525.68,248.11L528.79,249.06L541.24,252.89L544.35,253.18L553.68,253.5L556.79,253.16L559.9,252.76L563.01,253.54L569.23,253.42L572.34,253.22L575.45,252.99L578.56,253.84L597.23,256.78L600.34,256.58L606.56,257.64L609.67,257.54L612.78,256.78L615.89,257.45L619,257.54" style="vector-effect: non-scaling-stroke; fill: none; stroke: rgb(255, 127, 14); stroke-opacity: 1; stroke-width: 2px; opacity: 1;"/></g><g class="points"/><g class="text"/></g><g class="trace scatter trace349e86" style="stroke-miterlimit: 2; opacity: 1;"><g class="fills"/><g class="errorbars"/><g class="lines"><path class="js-line" d="M0,413.15L6.22,413.25L9.33,412.32L31.11,408.96L34.22,408.33L55.99,402.97L59.1,401.83L77.76,394.92L80.87,393.53L96.43,385.92L99.54,383.96L118.2,372.53L121.31,370.23L146.2,350.48L149.31,347.28L161.75,335.31L164.86,331.06L177.3,316.55L180.41,311.97L192.85,296.02L195.96,291.61L211.52,269.45L214.63,264.53L220.85,252.83L223.96,247.41L236.4,224.89L239.51,217.97L248.84,198.87L251.95,192.17L264.4,162.57L267.51,153.64L283.06,113.02L286.17,103.9L292.39,85.27L295.5,74.53L304.83,44.48L307.94,33.49L311.06,34.79L314.17,40.01L320.39,47.73L323.5,56.03L329.72,74.23L332.83,84.06L345.27,124.52L348.38,132.24L357.71,144.85L360.82,148.11L367.05,155.8L370.16,158.96L373.27,161.44L376.38,165.09L385.71,175.86L388.82,177.48L395.04,184.55L398.15,186.74L404.37,192.09L407.48,193.71L416.81,200.89L419.92,202.79L423.04,204.4L426.15,206.88L432.37,211.25L435.48,212.15L457.25,225.07L460.36,225.61L466.58,227.94L469.69,229.06L472.8,230.43L475.91,230.55L479.03,232.09L482.14,232.6L491.47,235.02L494.58,236.93L503.91,239.81L507.02,239.76L531.9,246.3L535.02,246.52L541.24,248.4L544.35,248.4L553.68,249.44L556.79,250.41L563.01,251.21L566.12,250.87L572.34,251.7L575.45,252.82L587.89,253.3L591.01,254L594.12,253.35L597.23,253.63L603.45,254.5L606.56,254.75L609.67,254.47L612.78,254.99L615.89,254.36L619,254.76" style="vector-effect: non-scaling-stroke; fill: none; stroke: rgb(44, 160, 44); stroke-opacity: 1; stroke-width: 2px; opacity: 1;"/></g><g class="points"/><g class="text"/></g><g class="trace scatter tracece901d" style="stroke-miterlimit: 2; opacity: 1;"><g class="fills"/><g class="errorbars"/><g class="lines"><path class="js-line" d="M0,413.15L6.22,413.25L9.33,412.32L31.11,408.96L34.22,408.33L55.99,402.97L59.1,401.83L77.76,394.92L80.87,393.53L96.43,385.92L99.54,383.96L118.2,372.53L121.31,370.23L146.2,350.48L149.31,347.28L161.75,335.31L164.86,331.06L177.3,316.55L180.41,311.97L192.85,296.02L195.96,291.61L211.52,269.45L214.63,264.53L220.85,252.83L223.96,247.41L236.4,224.89L239.51,217.97L248.84,198.87L251.95,192.17L264.4,162.57L267.51,153.64L283.06,113.02L286.17,103.9L292.39,85.27L295.5,74.53L304.83,44.48L307.94,33.49L311.06,30.48L314.17,35.24L320.39,40.57L323.5,49.56L332.83,76.44L335.94,85.71L348.38,123.96L351.49,128.63L363.93,143.23L367.05,147.31L382.6,165.27L385.71,168.83L395.04,177.44L398.15,178.85L410.59,189.11L413.7,190.47L419.92,196.22L423.04,197.78L426.15,199.9L429.26,200.99L438.59,205.19L441.7,206.67L444.81,208.66L447.92,209.31L460.36,213.25L463.47,213.96L491.47,222.39L494.58,223.6L497.69,223.72L500.8,224.87L507.02,226.76L510.13,227.86L519.46,229.98L522.57,229.56L544.35,232.1L547.46,233.94L553.68,233.84L556.79,233.99L563.01,234.68L566.12,235.17L578.56,234.98L581.67,235.67L587.89,235.22L591.01,235.49L597.23,235.08L600.34,236.16L603.45,236.29L606.56,237.65L619,237.4" style="vector-effect: non-scaling-stroke; fill: none; stroke: rgb(214, 39, 40); stroke-opacity: 1; stroke-width: 2px; opacity: 1;"/></g><g class="points"/><g class="text"/></g><g class="trace scatter trace29de96" style="stroke-miterlimit: 2; opacity: 1;"><g class="fills"/><g class="errorbars"/><g class="lines"><path class="js-line" d="M0,413.15L6.22,413.25L9.33,412.32L31.11,408.96L34.22,408.33L55.99,402.97L59.1,401.83L77.76,394.92L80.87,393.53L96.43,385.92L99.54,383.96L118.2,372.53L121.31,370.23L146.2,350.48L149.31,347.28L161.75,335.31L164.86,331.06L177.3,316.55L180.41,311.97L192.85,296.02L195.96,291.61L211.52,269.45L214.63,264.53L220.85,252.83L223.96,247.41L236.4,224.89L239.51,217.97L248.84,198.87L251.95,192.17L264.4,162.57L267.51,153.64L283.06,113.02L286.17,103.9L292.39,85.27L295.5,74.53L304.83,44.48L307.94,33.49L311.06,26.05L314.17,25.69L317.28,27.52L320.39,30.53L332.83,63.31L335.94,72.56L342.16,92.49L345.27,101.6L348.38,110.19L351.49,115.62L357.71,122.7L360.82,126.42L382.6,149.86L385.71,152.14L407.48,170.45L410.59,172.59L419.92,179.07L423.04,180.91L426.15,183.33L429.26,184.36L441.7,189.12L444.81,190.52L454.14,195.41L457.25,196.59L466.58,198.43L469.69,199.99L472.8,201.75L475.91,202.41L488.36,204.34L491.47,204.73L500.8,207.15L503.91,207.01L510.13,207.94L513.24,207.92L519.46,209.38L522.57,210.15L528.79,210.89L531.9,211.91L541.24,211.42L544.35,211.4L550.57,212.17L553.68,211.24L559.9,211.55L563.01,212.74L575.45,214.26L578.56,213.83L584.78,213.13L587.89,213.87L591.01,213.3L594.12,213.53L597.23,212.37L600.34,212.09L606.56,213.28L609.67,212.45L619,212.27" style="vector-effect: non-scaling-stroke; fill: none; stroke: rgb(148, 103, 189); stroke-opacity: 1; stroke-width: 2px; opacity: 1;"/></g><g class="points"/><g class="text"/></g><g class="trace scatter trace134476" style="stroke-miterlimit: 2; opacity: 1;"><g class="fills"/><g class="errorbars"/><g class="lines"><path class="js-line" d="M0,413.15L6.22,413.25L9.33,412.32L31.11,408.96L34.22,408.33L55.99,402.97L59.1,401.83L77.76,394.92L80.87,393.53L96.43,385.92L99.54,383.96L118.2,372.53L121.31,370.23L146.2,350.48L149.31,347.28L161.75,335.31L164.86,331.06L177.3,316.55L180.41,311.97L192.85,296.02L195.96,291.61L211.52,269.45L214.63,264.53L220.85,252.83L223.96,247.41L236.4,224.89L239.51,217.97L248.84,198.87L251.95,192.17L264.4,162.57L267.51,153.64L283.06,113.02L286.17,103.9L292.39,85.27L295.5,74.53L304.83,44.48L307.94,33.49L311.06,25.2L314.17,21.75L317.28,22.02L320.39,24.56L329.72,47.42L332.83,56.16L342.16,83.12L345.27,92.52L351.49,107.89L354.6,111.39L370.16,126.13L373.27,128.53L376.38,130.88L379.49,134.32L395.04,147.38L398.15,149.56L404.37,153.79L407.48,155.59L419.92,162.42L423.04,163.72L426.15,165.21L429.26,165.59L435.48,168.1L438.59,169.74L441.7,171.83L444.81,172.61L454.14,175.59L457.25,177.62L463.47,179.32L466.58,180.18L479.03,181.36L482.14,182.85L485.25,182.77L488.36,184.14L500.8,186.48L503.91,186.76L507.02,186.34L510.13,186.77L516.35,188.98L519.46,190.31L528.79,189.92L531.9,190.5L550.57,190.95L553.68,190.45L559.9,189.74L563.01,188.83L581.67,188.12L584.78,187.32L587.89,187.58L591.01,187.06L594.12,185.82L597.23,185.53L603.45,185.16L606.56,186.06L615.89,183.74L619,182.54" style="vector-effect: non-scaling-stroke; fill: none; stroke: rgb(140, 86, 75); stroke-opacity: 1; stroke-width: 2px; opacity: 1;"/></g><g class="points"/><g class="text"/></g></g></g><g class="overplot"/><path class="xlines-above crisp" style="fill: none;" d="M0,0"/><path class="ylines-above crisp" style="fill: none;" d="M0,0"/><g class="overlines-above"/><g class="xaxislayer-above"><g class="xtick"><text text-anchor="middle" x="0" y="473" transform="translate(212.42,0)" style="font-family: 'Open Sans', verdana, arial, sans-serif; font-size: 12px; fill: rgb(68, 68, 68); fill-opacity: 1; white-space: pre;">50</text></g><g class="xtick"><text text-anchor="middle" x="0" y="473" transform="translate(367.94,0)" style="font-family: 'Open Sans', verdana, arial, sans-serif; font-size: 12px; fill: rgb(68, 68, 68); fill-opacity: 1; white-space: pre;">100</text></g><g class="xtick"><text text-anchor="middle" x="0" y="473" transform="translate(523.47,0)" style="font-family: 'Open Sans', verdana, arial, sans-serif; font-size: 12px; fill: rgb(68, 68, 68); fill-opacity: 1; white-space: pre;">150</text></g><g class="xtick"><text text-anchor="middle" x="0" y="473" transform="translate(679,0)" style="font-family: 'Open Sans', verdana, arial, sans-serif; font-size: 12px; fill: rgb(68, 68, 68); fill-opacity: 1; white-space: pre;">200</text></g></g><g class="yaxislayer-above"><g class="ytick"><text text-anchor="end" x="59" y="4.199999999999999" transform="translate(0,438.74)" style="font-family: 'Open Sans', verdana, arial, sans-serif; font-size: 12px; fill: rgb(68, 68, 68); fill-opacity: 1; white-space: pre;">0</text></g><g class="ytick"><text text-anchor="end" x="59" y="4.199999999999999" transform="translate(0,368.07)" style="font-family: 'Open Sans', verdana, arial, sans-serif; font-size: 12px; fill: rgb(68, 68, 68); fill-opacity: 1; white-space: pre;">100</text></g><g class="ytick"><text text-anchor="end" x="59" y="4.199999999999999" transform="translate(0,297.4)" style="font-family: 'Open Sans', verdana, arial, sans-serif; font-size: 12px; fill: rgb(68, 68, 68); fill-opacity: 1; white-space: pre;">200</text></g><g class="ytick"><text text-anchor="end" x="59" y="4.199999999999999" transform="translate(0,226.73)" style="font-family: 'Open Sans', verdana, arial, sans-serif; font-size: 12px; fill: rgb(68, 68, 68); fill-opacity: 1; white-space: pre;">300</text></g><g class="ytick"><text text-anchor="end" x="59" y="4.199999999999999" transform="translate(0,156.06)" style="font-family: 'Open Sans', verdana, arial, sans-serif; font-size: 12px; fill: rgb(68, 68, 68); fill-opacity: 1; white-space: pre;">400</text></g><g class="ytick"><text text-anchor="end" x="59" y="4.199999999999999" transform="translate(0,85.39)" style="font-family: 'Open Sans', verdana, arial, sans-serif; font-size: 12px; fill: rgb(68, 68, 68); fill-opacity: 1; white-space: pre;">500</text></g></g><g class="overaxes-above"/></g></g><g class="polarlayer"/><g class="ternarylayer"/><g class="geolayer"/><g class="funnelarealayer"/><g class="pielayer"/><g class="treemaplayer"/><g class="sunburstlayer"/><g class="glimages"/><defs id="topdefs-aaa493"><g class="clips"/><clipPath id="legendaaa493"><rect width="117" height="140" x="0" y="0"/></clipPath></defs><g class="layer-above"><g class="imagelayer"/><g class="shapelayer"/></g><g class="infolayer"><g class="legend" pointer-events="all" transform="translate(90.95, 46.750000000000014)"><rect class="bg" shape-rendering="crispEdges" style="stroke: rgb(68, 68, 68); stroke-opacity: 1; fill: rgb(226, 226, 226); fill-opacity: 1; stroke-width: 0px;" width="117" height="140" x="0" y="0"/><g class="scrollbox" transform="translate(0, 0)" clip-path="url('#legendaaa493')"><text class="legendtitletext user-select-none" text-anchor="start" x="2" y="15.600000000000001" style="font-family: 'Open Sans', verdana, arial, sans-serif; font-size: 12px; fill: rgb(68, 68, 68); fill-opacity: 1; white-space: pre;"><tspan style="font-weight:bold"> Identification Time </tspan></text><g class="groups"><g class="traces" transform="translate(0, 30.1)" style="opacity: 1;"><text class="legendtext user-select-none" text-anchor="start" x="40" y="4.680000000000001" style="font-family: 'Open Sans', verdana, arial, sans-serif; font-size: 12px; fill: rgb(68, 68, 68); fill-opacity: 1; white-space: pre;">0 Months</text><g class="layers" style="opacity: 1;"><g class="legendfill"/><g class="legendlines"><path class="js-line" d="M5,0h30" style="fill: none; stroke: rgb(31, 119, 180); stroke-opacity: 1; stroke-width: 2px;"/></g><g class="legendsymbols"><g class="legendpoints"/></g></g><rect class="legendtoggle" pointer-events="all" x="0" y="-9.5" width="98.046875" height="19" style="cursor: pointer; fill: rgb(0, 0, 0); fill-opacity: 0;"/></g><g class="traces" transform="translate(0, 49.1)" style="opacity: 1;"><text class="legendtext user-select-none" text-anchor="start" x="40" y="4.680000000000001" style="font-family: 'Open Sans', verdana, arial, sans-serif; font-size: 12px; fill: rgb(68, 68, 68); fill-opacity: 1; white-space: pre;">3 Months</text><g class="layers" style="opacity: 1;"><g class="legendfill"/><g class="legendlines"><path class="js-line" d="M5,0h30" style="fill: none; stroke: rgb(255, 127, 14); stroke-opacity: 1; stroke-width: 2px;"/></g><g class="legendsymbols"><g class="legendpoints"/></g></g><rect class="legendtoggle" pointer-events="all" x="0" y="-9.5" width="98.046875" height="19" style="cursor: pointer; fill: rgb(0, 0, 0); fill-opacity: 0;"/></g><g class="traces" transform="translate(0, 68.1)" style="opacity: 1;"><text class="legendtext user-select-none" text-anchor="start" x="40" y="4.680000000000001" style="font-family: 'Open Sans', verdana, arial, sans-serif; font-size: 12px; fill: rgb(68, 68, 68); fill-opacity: 1; white-space: pre;">6 Months</text><g class="layers" style="opacity: 1;"><g class="legendfill"/><g class="legendlines"><path class="js-line" d="M5,0h30" style="fill: none; stroke: rgb(44, 160, 44); stroke-opacity: 1; stroke-width: 2px;"/></g><g class="legendsymbols"><g class="legendpoints"/></g></g><rect class="legendtoggle" pointer-events="all" x="0" y="-9.5" width="98.046875" height="19" style="cursor: pointer; fill: rgb(0, 0, 0); fill-opacity: 0;"/></g><g class="traces" transform="translate(0, 87.1)" style="opacity: 1;"><text class="legendtext user-select-none" text-anchor="start" x="40" y="4.680000000000001" style="font-family: 'Open Sans', verdana, arial, sans-serif; font-size: 12px; fill: rgb(68, 68, 68); fill-opacity: 1; white-space: pre;">12 Months</text><g class="layers" style="opacity: 1;"><g class="legendfill"/><g class="legendlines"><path class="js-line" d="M5,0h30" style="fill: none; stroke: rgb(214, 39, 40); stroke-opacity: 1; stroke-width: 2px;"/></g><g class="legendsymbols"><g class="legendpoints"/></g></g><rect class="legendtoggle" pointer-events="all" x="0" y="-9.5" width="98.046875" height="19" style="cursor: pointer; fill: rgb(0, 0, 0); fill-opacity: 0;"/></g><g class="traces" transform="translate(0, 106.1)" style="opacity: 1;"><text class="legendtext user-select-none" text-anchor="start" x="40" y="4.680000000000001" style="font-family: 'Open Sans', verdana, arial, sans-serif; font-size: 12px; fill: rgb(68, 68, 68); fill-opacity: 1; white-space: pre;">24 Months</text><g class="layers" style="opacity: 1;"><g class="legendfill"/><g class="legendlines"><path class="js-line" d="M5,0h30" style="fill: none; stroke: rgb(148, 103, 189); stroke-opacity: 1; stroke-width: 2px;"/></g><g class="legendsymbols"><g class="legendpoints"/></g></g><rect class="legendtoggle" pointer-events="all" x="0" y="-9.5" width="98.046875" height="19" style="cursor: pointer; fill: rgb(0, 0, 0); fill-opacity: 0;"/></g><g class="traces" transform="translate(0, 125.1)" style="opacity: 1;"><text class="legendtext user-select-none" text-anchor="start" x="40" y="4.680000000000001" style="font-family: 'Open Sans', verdana, arial, sans-serif; font-size: 12px; fill: rgb(68, 68, 68); fill-opacity: 1; white-space: pre;">36 Months</text><g class="layers" style="opacity: 1;"><g class="legendfill"/><g class="legendlines"><path class="js-line" d="M5,0h30" style="fill: none; stroke: rgb(140, 86, 75); stroke-opacity: 1; stroke-width: 2px;"/></g><g class="legendsymbols"><g class="legendpoints"/></g></g><rect class="legendtoggle" pointer-events="all" x="0" y="-9.5" width="98.046875" height="19" style="cursor: pointer; fill: rgb(0, 0, 0); fill-opacity: 0;"/></g></g></g><rect class="scrollbar" rx="20" ry="3" width="0" height="0" style="fill: rgb(128, 139, 164); fill-opacity: 1;" x="0" y="0"/></g><g class="g-gtitle"><text class="gtitle" x="350" y="12.5" text-anchor="middle" dy="0em" style="font-family: 'Open Sans', verdana, arial, sans-serif; font-size: 17px; fill: rgb(68, 68, 68); opacity: 1; font-weight: normal; white-space: pre;"><tspan style="font-weight:bold"> Leprosy Prevalence MB - Immunity Vaccine 0.99, Treatment 25% </tspan></text></g><g class="g-xtitle" transform="translate(0,-15)"><text class="xtitle" x="369.5" y="512" text-anchor="middle" style="font-family: 'Open Sans', verdana, arial, sans-serif; font-size: 14px; fill: rgb(68, 68, 68); opacity: 1; font-weight: normal; white-space: pre;">Time(Years)</text></g><g class="g-ytitle"><text class="ytitle" transform="rotate(-90,22,242.5)" x="22" y="242.5" text-anchor="middle" style="font-family: 'Open Sans', verdana, arial, sans-serif; font-size: 14px; fill: rgb(68, 68, 68); opacity: 1; font-weight: normal; white-space: pre;">Number of infectiuos individuals</text></g></g></svg>