<svg class="main-svg" xmlns="http://www.w3.org/2000/svg" xmlns:xlink="http://www.w3.org/1999/xlink" width="700" height="500" style="" viewBox="0 0 700 500"><rect x="0" y="0" width="700" height="500" style="fill: rgb(255, 255, 255); fill-opacity: 1;"/><defs id="defs-041ba5"><g class="clips"><clipPath id="clip041ba5xyplot" class="plotclip"><rect width="619" height="435"/></clipPath><clipPath class="axesclip" id="clip041ba5x"><rect x="60" y="0" width="619" height="500"/></clipPath><clipPath class="axesclip" id="clip041ba5y"><rect x="0" y="25" width="700" height="435"/></clipPath><clipPath class="axesclip" id="clip041ba5xy"><rect x="60" y="25" width="619" height="435"/></clipPath></g><g class="gradients"/></defs><g class="bglayer"/><g class="layer-below"><g class="imagelayer"/><g class="shapelayer"/></g><g class="cartesianlayer"><g class="subplot xy"><g class="layer-subplot"><g class="shapelayer"/><g class="imagelayer"/></g><g class="gridlayer"><g class="x"><path class="xgrid crisp" transform="translate(212.42,0)" d="M0,25v435" style="stroke: rgb(238, 238, 238); stroke-opacity: 1; stroke-width: 1px;"/><path class="xgrid crisp" transform="translate(367.94,0)" d="M0,25v435" style="stroke: rgb(238, 238, 238); stroke-opacity: 1; stroke-width: 1px;"/><path class="xgrid crisp" transform="translate(523.47,0)" d="M0,25v435" style="stroke: rgb(238, 238, 238); stroke-opacity: 1; stroke-width: 1px;"/></g><g class="y"><path class="ygrid crisp" transform="translate(0,365.97)" d="M60,0h619" style="stroke: rgb(238, 238, 238); stroke-opacity: 1; stroke-width: 1px;"/><path class="ygrid crisp" transform="translate(0,293.33)" d="M60,0h619" style="stroke: rgb(238, 238, 238); stroke-opacity: 1; stroke-width: 1px;"/><path class="ygrid crisp" transform="translate(0,220.7)" d="M60,0h619" style="stroke: rgb(238, 238, 238); stroke-opacity: 1; stroke-width: 1px;"/><path class="ygrid crisp" transform="translate(0,148.07)" d="M60,0h619" style="stroke: rgb(238, 238, 238); stroke-opacity: 1; stroke-width: 1px;"/><path class="ygrid crisp" transform="translate(0,75.43)" d="M60,0h619" style="stroke: rgb(238, 238, 238); stroke-opacity: 1; stroke-width: 1px;"/></g></g><g class="zerolinelayer"><path class="yzl zl crisp" transform="translate(0,438.6)" d="M60,0h619" style="stroke: rgb(68, 68, 68); stroke-opacity: 1; stroke-width: 1px;"/></g><path class="xlines-below"/><path class="ylines-below"/><g class="overlines-below"/><g class="xaxislayer-below"/><g class="yaxislayer-below"/><g class="overaxes-below"/><g class="plot" transform="translate(60, 25)" clip-path="url('#clip041ba5xyplot')"><g class="scatterlayer mlayer"><g class="trace scatter tracea8a4a4" style="stroke-miterlimit: 2; opacity: 1;"><g class="fills"/><g class="errorbars"/><g class="lines"><path class="js-line" d="M0,412.99L6.22,413.09L9.33,412.14L31.11,408.68L34.22,408.04L55.99,402.53L59.1,401.36L77.76,394.25L80.87,392.83L96.43,385L99.54,382.99L118.2,371.24L121.31,368.88L146.2,348.58L149.31,345.29L161.75,332.99L164.86,328.63L177.3,313.71L180.41,309.01L192.85,292.61L195.96,288.08L211.52,265.3L214.63,260.24L220.85,248.22L223.96,242.65L236.4,219.51L239.51,212.39L248.84,192.76L251.95,185.88L264.4,155.45L267.51,146.28L283.06,104.53L286.17,95.16L295.5,64.97L298.61,55.14L307.94,22.79L311.06,72.66L317.28,153.76L320.39,186.84L326.61,242.85L329.72,265.47L335.94,302.54L339.05,317.96L345.27,342.5L348.38,349.86L354.6,361.9L357.71,366.64L367.05,379.68L370.16,383.12L376.38,389.29L379.49,391.67L385.71,395.91L388.82,396.88L401.26,399.52L404.37,400.48L429.26,406.09L432.37,406.47L469.69,410.25L472.8,410.36L559.9,412.91L563.01,412.92L615.89,413.25L619,413.21" style="vector-effect: non-scaling-stroke; fill: none; stroke: rgb(31, 119, 180); stroke-opacity: 1; stroke-width: 2px; opacity: 1;"/></g><g class="points"/><g class="text"/></g><g class="trace scatter trace9a5e21" style="stroke-miterlimit: 2; opacity: 1;"><g class="fills"/><g class="errorbars"/><g class="lines"><path class="js-line" d="M0,412.99L6.22,413.09L9.33,412.14L31.11,408.68L34.22,408.04L55.99,402.53L59.1,401.36L77.76,394.25L80.87,392.83L96.43,385L99.54,382.99L118.2,371.24L121.31,368.88L146.2,348.58L149.31,345.29L161.75,332.99L164.86,328.63L177.3,313.71L180.41,309.01L192.85,292.61L195.96,288.08L211.52,265.3L214.63,260.24L220.85,248.22L223.96,242.65L236.4,219.51L239.51,212.39L248.84,192.76L251.95,185.88L264.4,155.45L267.51,146.28L283.06,104.53L286.17,95.16L295.5,64.97L298.61,55.14L307.94,22.79L311.06,65.75L317.28,148.77L320.39,183.25L326.61,238.24L329.72,261.58L335.94,299.81L339.05,315.79L345.27,340.97L348.38,346.84L363.93,372.16L367.05,376.1L373.27,383.63L376.38,386.52L382.6,392.12L385.71,393.82L395.04,395.74L398.15,396.61L416.81,402.54L419.92,403.15L423.04,404.29L426.15,404.62L441.7,405.71L444.81,406.25L469.69,409.31L472.8,409.21L510.13,411.48L513.24,411.43L563.01,412.58L566.12,412.55L619,413.13" style="vector-effect: non-scaling-stroke; fill: none; stroke: rgb(255, 127, 14); stroke-opacity: 1; stroke-width: 2px; opacity: 1;"/></g><g class="points"/><g class="text"/></g><g class="trace scatter trace6a8262" style="stroke-miterlimit: 2; opacity: 1;"><g class="fills"/><g class="errorbars"/><g class="lines"><path class="js-line" d="M0,412.99L6.22,413.09L9.33,412.14L31.11,408.68L34.22,408.04L55.99,402.53L59.1,401.36L77.76,394.25L80.87,392.83L96.43,385L99.54,382.99L118.2,371.24L121.31,368.88L146.2,348.58L149.31,345.29L161.75,332.99L164.86,328.63L177.3,313.71L180.41,309.01L192.85,292.61L195.96,288.08L211.52,265.3L214.63,260.24L220.85,248.22L223.96,242.65L236.4,219.51L239.51,212.39L248.84,192.76L251.95,185.88L264.4,155.45L267.51,146.28L283.06,104.53L286.17,95.16L295.5,64.97L298.61,55.14L307.94,22.79L311.06,57.65L317.28,141.42L320.39,175.35L326.61,233.74L329.72,257.08L335.94,296.42L339.05,312.21L345.27,338.97L348.38,344.1L351.49,347.67L354.6,352.97L370.16,376.51L373.27,379.82L379.49,386.61L382.6,389.72L385.71,391.67L388.82,391.73L395.04,392.44L398.15,393.5L407.48,396.42L410.59,397.86L426.15,402.76L429.26,402.55L438.59,403.29L441.7,403.95L469.69,407.85L472.8,408.03L494.58,409.45L497.69,409.59L516.35,410.64L519.46,410.57L553.68,411.9L556.79,411.98L619,412.81" style="vector-effect: non-scaling-stroke; fill: none; stroke: rgb(44, 160, 44); stroke-opacity: 1; stroke-width: 2px; opacity: 1;"/></g><g class="points"/><g class="text"/></g><g class="trace scatter tracee7058b" style="stroke-miterlimit: 2; opacity: 1;"><g class="fills"/><g class="errorbars"/><g class="lines"><path class="js-line" d="M0,412.99L6.22,413.09L9.33,412.14L31.11,408.68L34.22,408.04L55.99,402.53L59.1,401.36L77.76,394.25L80.87,392.83L96.43,385L99.54,382.99L118.2,371.24L121.31,368.88L146.2,348.58L149.31,345.29L161.75,332.99L164.86,328.63L177.3,313.71L180.41,309.01L192.85,292.61L195.96,288.08L211.52,265.3L214.63,260.24L220.85,248.22L223.96,242.65L236.4,219.51L239.51,212.39L248.84,192.76L251.95,185.88L264.4,155.45L267.51,146.28L283.06,104.53L286.17,95.16L295.5,64.97L298.61,55.14L307.94,22.79L311.06,41.24L317.28,126.76L320.39,162.57L326.61,222.78L329.72,247.01L335.94,289.23L339.05,306.08L345.27,333.46L348.38,339.51L351.49,338.53L354.6,342.27L370.16,367.99L373.27,372.58L382.6,384.51L385.71,387.33L388.82,387.7L391.93,386.89L395.04,385.87L398.15,386.29L404.37,388.6L407.48,389.77L419.92,395.9L423.04,397.6L429.26,399.51L432.37,399.18L441.7,398.67L444.81,399.38L457.25,402.21L460.36,403.12L466.58,404.87L469.69,405.06L479.03,405.47L482.14,405.31L525.68,409.01L528.79,408.91L553.68,410.52L556.79,410.51L566.12,410.86L569.23,410.98L600.34,411.82L603.45,411.92L619,411.99" style="vector-effect: non-scaling-stroke; fill: none; stroke: rgb(214, 39, 40); stroke-opacity: 1; stroke-width: 2px; opacity: 1;"/></g><g class="points"/><g class="text"/></g><g class="trace scatter trace99fe74" style="stroke-miterlimit: 2; opacity: 1;"><g class="fills"/><g class="errorbars"/><g class="lines"><path class="js-line" d="M0,412.99L6.22,413.09L9.33,412.14L31.11,408.68L34.22,408.04L55.99,402.53L59.1,401.36L77.76,394.25L80.87,392.83L96.43,385L99.54,382.99L118.2,371.24L121.31,368.88L146.2,348.58L149.31,345.29L161.75,332.99L164.86,328.63L177.3,313.71L180.41,309.01L192.85,292.61L195.96,288.08L211.52,265.3L214.63,260.24L220.85,248.22L223.96,242.65L236.4,219.51L239.51,212.39L248.84,192.76L251.95,185.88L264.4,155.45L267.51,146.28L283.06,104.53L286.17,95.16L295.5,64.97L298.61,55.14L307.94,22.79L311.06,26.5L314.17,57.45L317.28,97.93L323.5,168.51L326.61,198.96L332.83,251.42L335.94,273.29L342.16,309.1L345.27,322.97L348.38,332.45L351.49,331.58L354.6,327.87L357.71,328.35L360.82,332.15L363.93,337.48L370.16,347.05L373.27,353.03L382.6,369.33L385.71,373.83L388.82,376.92L391.93,377.91L398.15,373.98L401.26,372.53L404.37,372.29L407.48,373.6L413.7,375.95L416.81,378.35L432.37,389.43L435.48,389.58L441.7,388.79L444.81,388.45L447.92,387.86L451.03,388.25L457.25,389.39L460.36,390.79L479.03,397.02L482.14,396.94L491.47,397.1L494.58,396.9L507.02,398.87L510.13,399.74L516.35,400.6L519.46,401.1L525.68,402.2L528.79,402.58L535.02,402.48L538.13,402.67L541.24,403.26L544.35,403.07L566.12,404.97L569.23,405.33L612.78,407.3L615.89,407.48L619,407.8" style="vector-effect: non-scaling-stroke; fill: none; stroke: rgb(148, 103, 189); stroke-opacity: 1; stroke-width: 2px; opacity: 1;"/></g><g class="points"/><g class="text"/></g><g class="trace scatter traceeb3543" style="stroke-miterlimit: 2; opacity: 1;"><g class="fills"/><g class="errorbars"/><g class="lines"><path class="js-line" d="M0,412.99L6.22,413.09L9.33,412.14L31.11,408.68L34.22,408.04L55.99,402.53L59.1,401.36L77.76,394.25L80.87,392.83L96.43,385L99.54,382.99L118.2,371.24L121.31,368.88L146.2,348.58L149.31,345.29L161.75,332.99L164.86,328.63L177.3,313.71L180.41,309.01L192.85,292.61L195.96,288.08L211.52,265.3L214.63,260.24L220.85,248.22L223.96,242.65L236.4,219.51L239.51,212.39L248.84,192.76L251.95,185.88L264.4,155.45L267.51,146.28L283.06,104.53L286.17,95.16L295.5,64.97L298.61,55.14L307.94,22.79L311.06,21.75L314.17,39.45L317.28,71.14L326.61,171.63L329.72,201.27L335.94,251.9L339.05,272.55L345.27,306.78L348.38,318.59L351.49,322.1L354.6,320.1L357.71,315.4L360.82,313.93L363.93,315.65L367.05,318.3L373.27,329.53L376.38,336.06L388.82,359.05L391.93,362.51L395.04,363.98L398.15,362.49L404.37,358.81L407.48,357.53L410.59,356.56L413.7,356.75L419.92,359.64L423.04,362.22L432.37,371.13L435.48,373.23L438.59,375.09L441.7,375.8L444.81,376L447.92,374.94L463.47,373.1L466.58,374.13L479.03,379.73L482.14,381.15L488.36,382.91L491.47,382.94L507.02,383.52L510.13,384.33L519.46,386.09L522.57,387L531.9,388.43L535.02,388.56L541.24,389.69L544.35,389.92L550.57,390.51L553.68,390.74L556.79,390.45L559.9,391.09L566.12,392.23L569.23,392.44L578.56,393.79L581.67,394.33L584.78,394.13L587.89,394.72L619,396.76" style="vector-effect: non-scaling-stroke; fill: none; stroke: rgb(140, 86, 75); stroke-opacity: 1; stroke-width: 2px; opacity: 1;"/></g><g class="points"/><g class="text"/></g></g></g><g class="overplot"/><path class="xlines-above crisp" style="fill: none;" d="M0,0"/><path class="ylines-above crisp" style="fill: none;" d="M0,0"/><g class="overlines-above"/><g class="xaxislayer-above"><g class="xtick"><text text-anchor="middle" x="0" y="473" transform="translate(212.42,0)" style="font-family: 'Open Sans', verdana, arial, sans-serif; font-size: 12px; fill: rgb(68, 68, 68); fill-opacity: 1; white-space: pre;">50</text></g><g class="xtick"><text text-anchor="middle" x="0" y="473" transform="translate(367.94,0)" style="font-family: 'Open Sans', verdana, arial, sans-serif; font-size: 12px; fill: rgb(68, 68, 68); fill-opacity: 1; white-space: pre;">100</text></g><g class="xtick"><text text-anchor="middle" x="0" y="473" transform="translate(523.47,0)" style="font-family: 'Open Sans', verdana, arial, sans-serif; font-size: 12px; fill: rgb(68, 68, 68); fill-opacity: 1; white-space: pre;">150</text></g><g class="xtick"><text text-anchor="middle" x="0" y="473" transform="translate(679,0)" style="font-family: 'Open Sans', verdana, arial, sans-serif; font-size: 12px; fill: rgb(68, 68, 68); fill-opacity: 1; white-space: pre;">200</text></g></g><g class="yaxislayer-above"><g class="ytick"><text text-anchor="end" x="59" y="4.199999999999999" transform="translate(0,438.6)" style="font-family: 'Open Sans', verdana, arial, sans-serif; font-size: 12px; fill: rgb(68, 68, 68); fill-opacity: 1; white-space: pre;">0</text></g><g class="ytick"><text text-anchor="end" x="59" y="4.199999999999999" transform="translate(0,365.97)" style="font-family: 'Open Sans', verdana, arial, sans-serif; font-size: 12px; fill: rgb(68, 68, 68); fill-opacity: 1; white-space: pre;">100</text></g><g class="ytick"><text text-anchor="end" x="59" y="4.199999999999999" transform="translate(0,293.33)" style="font-family: 'Open Sans', verdana, arial, sans-serif; font-size: 12px; fill: rgb(68, 68, 68); fill-opacity: 1; white-space: pre;">200</text></g><g class="ytick"><text text-anchor="end" x="59" y="4.199999999999999" transform="translate(0,220.7)" style="font-family: 'Open Sans', verdana, arial, sans-serif; font-size: 12px; fill: rgb(68, 68, 68); fill-opacity: 1; white-space: pre;">300</text></g><g class="ytick"><text text-anchor="end" x="59" y="4.199999999999999" transform="translate(0,148.07)" style="font-family: 'Open Sans', verdana, arial, sans-serif; font-size: 12px; fill: rgb(68, 68, 68); fill-opacity: 1; white-space: pre;">400</text></g><g class="ytick"><text text-anchor="end" x="59" y="4.199999999999999" transform="translate(0,75.43)" style="font-family: 'Open Sans', verdana, arial, sans-serif; font-size: 12px; fill: rgb(68, 68, 68); fill-opacity: 1; white-space: pre;">500</text></g></g><g class="overaxes-above"/></g></g><g class="polarlayer"/><g class="ternarylayer"/><g class="geolayer"/><g class="funnelarealayer"/><g class="pielayer"/><g class="treemaplayer"/><g class="sunburstlayer"/><g class="glimages"/><defs id="topdefs-041ba5"><g class="clips"/><clipPath id="legend041ba5"><rect width="117" height="140" x="0" y="0"/></clipPath></defs><g class="layer-above"><g class="imagelayer"/><g class="shapelayer"/></g><g class="infolayer"><g class="legend" pointer-events="all" transform="translate(90.95, 46.750000000000014)"><rect class="bg" shape-rendering="crispEdges" style="stroke: rgb(68, 68, 68); stroke-opacity: 1; fill: rgb(226, 226, 226); fill-opacity: 1; stroke-width: 0px;" width="117" height="140" x="0" y="0"/><g class="scrollbox" transform="translate(0, 0)" clip-path="url('#legend041ba5')"><text class="legendtitletext user-select-none" text-anchor="start" x="2" y="15.600000000000001" style="font-family: 'Open Sans', verdana, arial, sans-serif; font-size: 12px; fill: rgb(68, 68, 68); fill-opacity: 1; white-space: pre;"><tspan style="font-weight:bold"> Identification Time </tspan></text><g class="groups"><g class="traces" transform="translate(0, 30.1)" style="opacity: 1;"><text class="legendtext user-select-none" text-anchor="start" x="40" y="4.680000000000001" style="font-family: 'Open Sans', verdana, arial, sans-serif; font-size: 12px; fill: rgb(68, 68, 68); fill-opacity: 1; white-space: pre;">0 Months</text><g class="layers" style="opacity: 1;"><g class="legendfill"/><g class="legendlines"><path class="js-line" d="M5,0h30" style="fill: none; stroke: rgb(31, 119, 180); stroke-opacity: 1; stroke-width: 2px;"/></g><g class="legendsymbols"><g class="legendpoints"/></g></g><rect class="legendtoggle" pointer-events="all" x="0" y="-9.5" width="98.046875" height="19" style="cursor: pointer; fill: rgb(0, 0, 0); fill-opacity: 0;"/></g><g class="traces" transform="translate(0, 49.1)" style="opacity: 1;"><text class="legendtext user-select-none" text-anchor="start" x="40" y="4.680000000000001" style="font-family: 'Open Sans', verdana, arial, sans-serif; font-size: 12px; fill: rgb(68, 68, 68); fill-opacity: 1; white-space: pre;">3 Months</text><g class="layers" style="opacity: 1;"><g class="legendfill"/><g class="legendlines"><path class="js-line" d="M5,0h30" style="fill: none; stroke: rgb(255, 127, 14); stroke-opacity: 1; stroke-width: 2px;"/></g><g class="legendsymbols"><g class="legendpoints"/></g></g><rect class="legendtoggle" pointer-events="all" x="0" y="-9.5" width="98.046875" height="19" style="cursor: pointer; fill: rgb(0, 0, 0); fill-opacity: 0;"/></g><g class="traces" transform="translate(0, 68.1)" style="opacity: 1;"><text class="legendtext user-select-none" text-anchor="start" x="40" y="4.680000000000001" style="font-family: 'Open Sans', verdana, arial, sans-serif; font-size: 12px; fill: rgb(68, 68, 68); fill-opacity: 1; white-space: pre;">6 Months</text><g class="layers" style="opacity: 1;"><g class="legendfill"/><g class="legendlines"><path class="js-line" d="M5,0h30" style="fill: none; stroke: rgb(44, 160, 44); stroke-opacity: 1; stroke-width: 2px;"/></g><g class="legendsymbols"><g class="legendpoints"/></g></g><rect class="legendtoggle" pointer-events="all" x="0" y="-9.5" width="98.046875" height="19" style="cursor: pointer; fill: rgb(0, 0, 0); fill-opacity: 0;"/></g><g class="traces" transform="translate(0, 87.1)" style="opacity: 1;"><text class="legendtext user-select-none" text-anchor="start" x="40" y="4.680000000000001" style="font-family: 'Open Sans', verdana, arial, sans-serif; font-size: 12px; fill: rgb(68, 68, 68); fill-opacity: 1; white-space: pre;">12 Months</text><g class="layers" style="opacity: 1;"><g class="legendfill"/><g class="legendlines"><path class="js-line" d="M5,0h30" style="fill: none; stroke: rgb(214, 39, 40); stroke-opacity: 1; stroke-width: 2px;"/></g><g class="legendsymbols"><g class="legendpoints"/></g></g><rect class="legendtoggle" pointer-events="all" x="0" y="-9.5" width="98.046875" height="19" style="cursor: pointer; fill: rgb(0, 0, 0); fill-opacity: 0;"/></g><g class="traces" transform="translate(0, 106.1)" style="opacity: 1;"><text class="legendtext user-select-none" text-anchor="start" x="40" y="4.680000000000001" style="font-family: 'Open Sans', verdana, arial, sans-serif; font-size: 12px; fill: rgb(68, 68, 68); fill-opacity: 1; white-space: pre;">24 Months</text><g class="layers" style="opacity: 1;"><g class="legendfill"/><g class="legendlines"><path class="js-line" d="M5,0h30" style="fill: none; stroke: rgb(148, 103, 189); stroke-opacity: 1; stroke-width: 2px;"/></g><g class="legendsymbols"><g class="legendpoints"/></g></g><rect class="legendtoggle" pointer-events="all" x="0" y="-9.5" width="98.046875" height="19" style="cursor: pointer; fill: rgb(0, 0, 0); fill-opacity: 0;"/></g><g class="traces" transform="translate(0, 125.1)" style="opacity: 1;"><text class="legendtext user-select-none" text-anchor="start" x="40" y="4.680000000000001" style="font-family: 'Open Sans', verdana, arial, sans-serif; font-size: 12px; fill: rgb(68, 68, 68); fill-opacity: 1; white-space: pre;">36 Months</text><g class="layers" style="opacity: 1;"><g class="legendfill"/><g class="legendlines"><path class="js-line" d="M5,0h30" style="fill: none; stroke: rgb(140, 86, 75); stroke-opacity: 1; stroke-width: 2px;"/></g><g class="legendsymbols"><g class="legendpoints"/></g></g><rect class="legendtoggle" pointer-events="all" x="0" y="-9.5" width="98.046875" height="19" style="cursor: pointer; fill: rgb(0, 0, 0); fill-opacity: 0;"/></g></g></g><rect class="scrollbar" rx="20" ry="3" width="0" height="0" style="fill: rgb(128, 139, 164); fill-opacity: 1;" x="0" y="0"/></g><g class="g-gtitle"><text class="gtitle" x="350" y="12.5" text-anchor="middle" dy="0em" style="font-family: 'Open Sans', verdana, arial, sans-serif; font-size: 17px; fill: rgb(68, 68, 68); opacity: 1; font-weight: normal; white-space: pre;"><tspan style="font-weight:bold"> Leprosy Prevalence MB - Immunity Vaccine 0.0, Treatment 95% </tspan></text></g><g class="g-xtitle" transform="translate(0,-15)"><text class="xtitle" x="369.5" y="512" text-anchor="middle" style="font-family: 'Open Sans', verdana, arial, sans-serif; font-size: 14px; fill: rgb(68, 68, 68); opacity: 1; font-weight: normal; white-space: pre;">Time(Years)</text></g><g class="g-ytitle"><text class="ytitle" transform="rotate(-90,22,242.5)" x="22" y="242.5" text-anchor="middle" style="font-family: 'Open Sans', verdana, arial, sans-serif; font-size: 14px; fill: rgb(68, 68, 68); opacity: 1; font-weight: normal; white-space: pre;">Number of infectiuos individuals</text></g></g></svg>