<svg class="main-svg" xmlns="http://www.w3.org/2000/svg" xmlns:xlink="http://www.w3.org/1999/xlink" width="700" height="500" style="" viewBox="0 0 700 500"><rect x="0" y="0" width="700" height="500" style="fill: rgb(255, 255, 255); fill-opacity: 1;"/><defs id="defs-dfae5e"><g class="clips"><clipPath id="clipdfae5exyplot" class="plotclip"><rect width="619" height="435"/></clipPath><clipPath class="axesclip" id="clipdfae5ex"><rect x="60" y="0" width="619" height="500"/></clipPath><clipPath class="axesclip" id="clipdfae5ey"><rect x="0" y="25" width="700" height="435"/></clipPath><clipPath class="axesclip" id="clipdfae5exy"><rect x="60" y="25" width="619" height="435"/></clipPath></g><g class="gradients"/></defs><g class="bglayer"/><g class="layer-below"><g class="imagelayer"/><g class="shapelayer"/></g><g class="cartesianlayer"><g class="subplot xy"><g class="layer-subplot"><g class="shapelayer"/><g class="imagelayer"/></g><g class="gridlayer"><g class="x"><path class="xgrid crisp" transform="translate(212.42,0)" d="M0,25v435" style="stroke: rgb(238, 238, 238); stroke-opacity: 1; stroke-width: 1px;"/><path class="xgrid crisp" transform="translate(367.94,0)" d="M0,25v435" style="stroke: rgb(238, 238, 238); stroke-opacity: 1; stroke-width: 1px;"/><path class="xgrid crisp" transform="translate(523.47,0)" d="M0,25v435" style="stroke: rgb(238, 238, 238); stroke-opacity: 1; stroke-width: 1px;"/></g><g class="y"><path class="ygrid crisp" transform="translate(0,366.37)" d="M60,0h619" style="stroke: rgb(238, 238, 238); stroke-opacity: 1; stroke-width: 1px;"/><path class="ygrid crisp" transform="translate(0,293.99)" d="M60,0h619" style="stroke: rgb(238, 238, 238); stroke-opacity: 1; stroke-width: 1px;"/><path class="ygrid crisp" transform="translate(0,221.61)" d="M60,0h619" style="stroke: rgb(238, 238, 238); stroke-opacity: 1; stroke-width: 1px;"/><path class="ygrid crisp" transform="translate(0,149.24)" d="M60,0h619" style="stroke: rgb(238, 238, 238); stroke-opacity: 1; stroke-width: 1px;"/><path class="ygrid crisp" transform="translate(0,76.86)" d="M60,0h619" style="stroke: rgb(238, 238, 238); stroke-opacity: 1; stroke-width: 1px;"/></g></g><g class="zerolinelayer"><path class="yzl zl crisp" transform="translate(0,438.75)" d="M60,0h619" style="stroke: rgb(68, 68, 68); stroke-opacity: 1; stroke-width: 1px;"/></g><path class="xlines-below"/><path class="ylines-below"/><g class="overlines-below"/><g class="xaxislayer-below"/><g class="yaxislayer-below"/><g class="overaxes-below"/><g class="plot" transform="translate(60, 25)" clip-path="url('#clipdfae5exyplot')"><g class="scatterlayer mlayer"><g class="trace scatter trace95a262" style="stroke-miterlimit: 2; opacity: 1;"><g class="fills"/><g class="errorbars"/><g class="lines"><path class="js-line" d="M0,413.15L6.22,413.25L9.33,412.29L27.99,409.61L31.11,408.85L49.77,404.37L52.88,403.59L65.32,399.34L68.43,398.29L90.21,388.67L93.32,386.69L99.54,383.26L102.65,381.39L118.2,371.55L121.31,369.19L146.2,348.97L149.31,345.69L161.75,333.42L164.86,329.08L177.3,314.21L180.41,309.53L192.85,293.19L195.96,288.67L211.52,265.98L214.63,260.93L220.85,248.95L223.96,243.4L236.4,220.34L239.51,213.25L248.84,193.69L251.95,186.83L264.4,156.51L267.51,147.37L283.06,105.76L286.17,96.42L292.39,77.34L295.5,66.34L304.83,35.56L307.94,24.31L314.17,95.25L317.28,124.76L326.61,201.26L329.72,223.68L335.94,261.16L339.05,277.55L345.27,305.36L348.38,313.59L357.71,326.45L360.82,330.85L373.27,350.35L376.38,354.92L385.71,366.75L388.82,368.35L407.48,376.79L410.59,378.74L426.15,387.54L429.26,388.39L466.58,398.8L469.69,399.53L507.02,405.21L510.13,405.79L528.79,407.23L531.9,407.52L544.35,408.81L547.46,408.79L581.67,410.38L584.78,410.58L619,411.67" style="vector-effect: non-scaling-stroke; fill: none; stroke: rgb(31, 119, 180); stroke-opacity: 1; stroke-width: 2px; opacity: 1;"/></g><g class="points"/><g class="text"/></g><g class="trace scatter trace7ada15" style="stroke-miterlimit: 2; opacity: 1;"><g class="fills"/><g class="errorbars"/><g class="lines"><path class="js-line" d="M0,413.15L6.22,413.25L9.33,412.29L27.99,409.61L31.11,408.85L49.77,404.37L52.88,403.59L65.32,399.34L68.43,398.29L90.21,388.67L93.32,386.69L99.54,383.26L102.65,381.39L118.2,371.55L121.31,369.19L146.2,348.97L149.31,345.69L161.75,333.42L164.86,329.08L177.3,314.21L180.41,309.53L192.85,293.19L195.96,288.67L211.52,265.98L214.63,260.93L220.85,248.95L223.96,243.4L236.4,220.34L239.51,213.25L248.84,193.69L251.95,186.83L264.4,156.51L267.51,147.37L283.06,105.76L286.17,96.42L292.39,77.34L295.5,66.34L304.83,35.56L307.94,24.31L317.28,120.14L320.39,147.1L326.61,198.15L329.72,219.9L335.94,257.16L339.05,273.95L345.27,302.86L348.38,310.13L385.71,364.61L388.82,366.13L398.15,369.53L401.26,371.53L419.92,381.75L423.04,383.72L429.26,385.98L432.37,386.67L472.8,398.68L475.91,399.19L488.36,401.46L491.47,402.07L497.69,402.99L500.8,403.38L547.46,408.33L550.57,408.46L587.89,410.12L591.01,410.19L619,411.2" style="vector-effect: non-scaling-stroke; fill: none; stroke: rgb(255, 127, 14); stroke-opacity: 1; stroke-width: 2px; opacity: 1;"/></g><g class="points"/><g class="text"/></g><g class="trace scatter trace43ceb5" style="stroke-miterlimit: 2; opacity: 1;"><g class="fills"/><g class="errorbars"/><g class="lines"><path class="js-line" d="M0,413.15L6.22,413.25L9.33,412.29L27.99,409.61L31.11,408.85L49.77,404.37L52.88,403.59L65.32,399.34L68.43,398.29L90.21,388.67L93.32,386.69L99.54,383.26L102.65,381.39L118.2,371.55L121.31,369.19L146.2,348.97L149.31,345.69L161.75,333.42L164.86,329.08L177.3,314.21L180.41,309.53L192.85,293.19L195.96,288.67L211.52,265.98L214.63,260.93L220.85,248.95L223.96,243.4L236.4,220.34L239.51,213.25L248.84,193.69L251.95,186.83L264.4,156.51L267.51,147.37L283.06,105.76L286.17,96.42L292.39,77.34L295.5,66.34L304.83,35.56L307.94,24.31L311.06,49.71L314.17,82.86L323.5,168.46L326.61,193.15L335.94,253.54L339.05,270.49L345.27,299.2L348.38,306.1L357.71,317.56L360.82,322.63L376.38,347.81L379.49,352.25L385.71,360.15L388.82,362.03L395.04,363.9L398.15,365.41L410.59,372.89L413.7,375.21L426.15,382.53L429.26,383.57L435.48,384.66L438.59,385.41L447.92,388.61L451.03,389.46L460.36,392.97L463.47,394.17L472.8,396.85L475.91,397.36L485.25,398.98L488.36,399.4L500.8,401.81L503.91,402.23L519.46,404.29L522.57,404.48L591.01,409.57L594.12,409.66L619,410.63" style="vector-effect: non-scaling-stroke; fill: none; stroke: rgb(44, 160, 44); stroke-opacity: 1; stroke-width: 2px; opacity: 1;"/></g><g class="points"/><g class="text"/></g><g class="trace scatter trace5b39d5" style="stroke-miterlimit: 2; opacity: 1;"><g class="fills"/><g class="errorbars"/><g class="lines"><path class="js-line" d="M0,413.15L6.22,413.25L9.33,412.29L27.99,409.61L31.11,408.85L49.77,404.37L52.88,403.59L65.32,399.34L68.43,398.29L90.21,388.67L93.32,386.69L99.54,383.26L102.65,381.39L118.2,371.55L121.31,369.19L146.2,348.97L149.31,345.69L161.75,333.42L164.86,329.08L177.3,314.21L180.41,309.53L192.85,293.19L195.96,288.67L211.52,265.98L214.63,260.93L220.85,248.95L223.96,243.4L236.4,220.34L239.51,213.25L248.84,193.69L251.95,186.83L264.4,156.51L267.51,147.37L283.06,105.76L286.17,96.42L292.39,77.34L295.5,66.34L304.83,35.56L307.94,24.31L311.06,37.32L314.17,72.29L323.5,159.65L326.61,183.88L335.94,246.61L339.05,264.54L345.27,294.84L348.38,303.41L351.49,304.19L354.6,306.79L363.93,320.05L367.05,325.28L382.6,350.71L385.71,354.99L388.82,357.81L391.93,358.21L401.26,360.68L404.37,362.66L413.7,367.93L416.81,370.41L426.15,376.94L429.26,378.44L435.48,380.72L438.59,381.18L447.92,384.41L451.03,385.33L469.69,391.97L472.8,392.63L485.25,395.25L488.36,395.77L525.68,402.35L528.79,402.33L578.56,406.96L581.67,407.05L603.45,408.4L606.56,408.59L619,409.26" style="vector-effect: non-scaling-stroke; fill: none; stroke: rgb(214, 39, 40); stroke-opacity: 1; stroke-width: 2px; opacity: 1;"/></g><g class="points"/><g class="text"/></g><g class="trace scatter trace9f3b91" style="stroke-miterlimit: 2; opacity: 1;"><g class="fills"/><g class="errorbars"/><g class="lines"><path class="js-line" d="M0,413.15L6.22,413.25L9.33,412.29L27.99,409.61L31.11,408.85L49.77,404.37L52.88,403.59L65.32,399.34L68.43,398.29L90.21,388.67L93.32,386.69L99.54,383.26L102.65,381.39L118.2,371.55L121.31,369.19L146.2,348.97L149.31,345.69L161.75,333.42L164.86,329.08L177.3,314.21L180.41,309.53L192.85,293.19L195.96,288.67L211.52,265.98L214.63,260.93L220.85,248.95L223.96,243.4L236.4,220.34L239.51,213.25L248.84,193.69L251.95,186.83L264.4,156.51L267.51,147.37L283.06,105.76L286.17,96.42L292.39,77.34L295.5,66.34L304.83,35.56L307.94,24.31L311.06,26.41L314.17,46.64L323.5,134.78L326.61,160.74L332.83,208.56L335.94,228.27L342.16,264.91L345.27,279.32L348.38,291.06L351.49,294.92L354.6,294.13L357.71,295.29L360.82,298.43L363.93,303.12L376.38,324.3L379.49,330.31L388.82,344.21L391.93,346.98L401.26,348.47L404.37,350.23L410.59,353.5L413.7,355.2L432.37,368.64L435.48,370.43L451.03,374.64L454.14,376.07L463.47,379.4L466.58,380.83L472.8,383.33L475.91,384.4L488.36,387.6L491.47,388.01L510.13,393.13L513.24,393.35L528.79,395.65L531.9,396.29L572.34,401.17L575.45,401.33L600.34,403.8L603.45,404.13L619,405.11" style="vector-effect: non-scaling-stroke; fill: none; stroke: rgb(148, 103, 189); stroke-opacity: 1; stroke-width: 2px; opacity: 1;"/></g><g class="points"/><g class="text"/></g><g class="trace scatter trace9c0a9d" style="stroke-miterlimit: 2; opacity: 1;"><g class="fills"/><g class="errorbars"/><g class="lines"><path class="js-line" d="M0,413.15L6.22,413.25L9.33,412.29L27.99,409.61L31.11,408.85L49.77,404.37L52.88,403.59L65.32,399.34L68.43,398.29L90.21,388.67L93.32,386.69L99.54,383.26L102.65,381.39L118.2,371.55L121.31,369.19L146.2,348.97L149.31,345.69L161.75,333.42L164.86,329.08L177.3,314.21L180.41,309.53L192.85,293.19L195.96,288.67L211.52,265.98L214.63,260.93L220.85,248.95L223.96,243.4L236.4,220.34L239.51,213.25L248.84,193.69L251.95,186.83L264.4,156.51L267.51,147.37L283.06,105.76L286.17,96.42L292.39,77.34L295.5,66.34L304.83,35.56L307.94,24.31L311.06,21.75L314.17,32.36L320.39,81.25L323.5,112.55L329.72,166.35L332.83,189.45L339.05,232.27L342.16,249.76L348.38,278.94L351.49,285.08L354.6,285.95L357.71,284.27L360.82,284.78L363.93,287.52L370.16,297.23L373.27,302.43L385.71,325.79L388.82,330.6L391.93,334.81L395.04,337.56L398.15,339.09L401.26,339.12L407.48,339.77L410.59,341.41L416.81,344.97L419.92,347.12L432.37,356.84L435.48,359.31L454.14,366.53L457.25,367.23L463.47,368.83L466.58,370.31L482.14,376.31L485.25,376.81L494.58,379.69L497.69,380.87L503.91,382.01L507.02,382.63L550.57,391.06L553.68,391.53L569.23,393.53L572.34,394.12L612.78,399.16L615.89,399.24L619,399.93" style="vector-effect: non-scaling-stroke; fill: none; stroke: rgb(140, 86, 75); stroke-opacity: 1; stroke-width: 2px; opacity: 1;"/></g><g class="points"/><g class="text"/></g></g></g><g class="overplot"/><path class="xlines-above crisp" style="fill: none;" d="M0,0"/><path class="ylines-above crisp" style="fill: none;" d="M0,0"/><g class="overlines-above"/><g class="xaxislayer-above"><g class="xtick"><text text-anchor="middle" x="0" y="473" transform="translate(212.42,0)" style="font-family: 'Open Sans', verdana, arial, sans-serif; font-size: 12px; fill: rgb(68, 68, 68); fill-opacity: 1; white-space: pre;">50</text></g><g class="xtick"><text text-anchor="middle" x="0" y="473" transform="translate(367.94,0)" style="font-family: 'Open Sans', verdana, arial, sans-serif; font-size: 12px; fill: rgb(68, 68, 68); fill-opacity: 1; white-space: pre;">100</text></g><g class="xtick"><text text-anchor="middle" x="0" y="473" transform="translate(523.47,0)" style="font-family: 'Open Sans', verdana, arial, sans-serif; font-size: 12px; fill: rgb(68, 68, 68); fill-opacity: 1; white-space: pre;">150</text></g><g class="xtick"><text text-anchor="middle" x="0" y="473" transform="translate(679,0)" style="font-family: 'Open Sans', verdana, arial, sans-serif; font-size: 12px; fill: rgb(68, 68, 68); fill-opacity: 1; white-space: pre;">200</text></g></g><g class="yaxislayer-above"><g class="ytick"><text text-anchor="end" x="59" y="4.199999999999999" transform="translate(0,438.75)" style="font-family: 'Open Sans', verdana, arial, sans-serif; font-size: 12px; fill: rgb(68, 68, 68); fill-opacity: 1; white-space: pre;">0</text></g><g class="ytick"><text text-anchor="end" x="59" y="4.199999999999999" transform="translate(0,366.37)" style="font-family: 'Open Sans', verdana, arial, sans-serif; font-size: 12px; fill: rgb(68, 68, 68); fill-opacity: 1; white-space: pre;">100</text></g><g class="ytick"><text text-anchor="end" x="59" y="4.199999999999999" transform="translate(0,293.99)" style="font-family: 'Open Sans', verdana, arial, sans-serif; font-size: 12px; fill: rgb(68, 68, 68); fill-opacity: 1; white-space: pre;">200</text></g><g class="ytick"><text text-anchor="end" x="59" y="4.199999999999999" transform="translate(0,221.61)" style="font-family: 'Open Sans', verdana, arial, sans-serif; font-size: 12px; fill: rgb(68, 68, 68); fill-opacity: 1; white-space: pre;">300</text></g><g class="ytick"><text text-anchor="end" x="59" y="4.199999999999999" transform="translate(0,149.24)" style="font-family: 'Open Sans', verdana, arial, sans-serif; font-size: 12px; fill: rgb(68, 68, 68); fill-opacity: 1; white-space: pre;">400</text></g><g class="ytick"><text text-anchor="end" x="59" y="4.199999999999999" transform="translate(0,76.86)" style="font-family: 'Open Sans', verdana, arial, sans-serif; font-size: 12px; fill: rgb(68, 68, 68); fill-opacity: 1; white-space: pre;">500</text></g></g><g class="overaxes-above"/></g></g><g class="polarlayer"/><g class="ternarylayer"/><g class="geolayer"/><g class="funnelarealayer"/><g class="pielayer"/><g class="treemaplayer"/><g class="sunburstlayer"/><g class="glimages"/><defs id="topdefs-dfae5e"><g class="clips"/><clipPath id="legenddfae5e"><rect width="117" height="140" x="0" y="0"/></clipPath></defs><g class="layer-above"><g class="imagelayer"/><g class="shapelayer"/></g><g class="infolayer"><g class="legend" pointer-events="all" transform="translate(90.95, 46.750000000000014)"><rect class="bg" shape-rendering="crispEdges" style="stroke: rgb(68, 68, 68); stroke-opacity: 1; fill: rgb(226, 226, 226); fill-opacity: 1; stroke-width: 0px;" width="117" height="140" x="0" y="0"/><g class="scrollbox" transform="translate(0, 0)" clip-path="url('#legenddfae5e')"><text class="legendtitletext user-select-none" text-anchor="start" x="2" y="15.600000000000001" style="font-family: 'Open Sans', verdana, arial, sans-serif; font-size: 12px; fill: rgb(68, 68, 68); fill-opacity: 1; white-space: pre;"><tspan style="font-weight:bold"> Identification Time </tspan></text><g class="groups"><g class="traces" transform="translate(0, 30.1)" style="opacity: 1;"><text class="legendtext user-select-none" text-anchor="start" x="40" y="4.680000000000001" style="font-family: 'Open Sans', verdana, arial, sans-serif; font-size: 12px; fill: rgb(68, 68, 68); fill-opacity: 1; white-space: pre;">0 Months</text><g class="layers" style="opacity: 1;"><g class="legendfill"/><g class="legendlines"><path class="js-line" d="M5,0h30" style="fill: none; stroke: rgb(31, 119, 180); stroke-opacity: 1; stroke-width: 2px;"/></g><g class="legendsymbols"><g class="legendpoints"/></g></g><rect class="legendtoggle" pointer-events="all" x="0" y="-9.5" width="98.046875" height="19" style="cursor: pointer; fill: rgb(0, 0, 0); fill-opacity: 0;"/></g><g class="traces" transform="translate(0, 49.1)" style="opacity: 1;"><text class="legendtext user-select-none" text-anchor="start" x="40" y="4.680000000000001" style="font-family: 'Open Sans', verdana, arial, sans-serif; font-size: 12px; fill: rgb(68, 68, 68); fill-opacity: 1; white-space: pre;">3 Months</text><g class="layers" style="opacity: 1;"><g class="legendfill"/><g class="legendlines"><path class="js-line" d="M5,0h30" style="fill: none; stroke: rgb(255, 127, 14); stroke-opacity: 1; stroke-width: 2px;"/></g><g class="legendsymbols"><g class="legendpoints"/></g></g><rect class="legendtoggle" pointer-events="all" x="0" y="-9.5" width="98.046875" height="19" style="cursor: pointer; fill: rgb(0, 0, 0); fill-opacity: 0;"/></g><g class="traces" transform="translate(0, 68.1)" style="opacity: 1;"><text class="legendtext user-select-none" text-anchor="start" x="40" y="4.680000000000001" style="font-family: 'Open Sans', verdana, arial, sans-serif; font-size: 12px; fill: rgb(68, 68, 68); fill-opacity: 1; white-space: pre;">6 Months</text><g class="layers" style="opacity: 1;"><g class="legendfill"/><g class="legendlines"><path class="js-line" d="M5,0h30" style="fill: none; stroke: rgb(44, 160, 44); stroke-opacity: 1; stroke-width: 2px;"/></g><g class="legendsymbols"><g class="legendpoints"/></g></g><rect class="legendtoggle" pointer-events="all" x="0" y="-9.5" width="98.046875" height="19" style="cursor: pointer; fill: rgb(0, 0, 0); fill-opacity: 0;"/></g><g class="traces" transform="translate(0, 87.1)" style="opacity: 1;"><text class="legendtext user-select-none" text-anchor="start" x="40" y="4.680000000000001" style="font-family: 'Open Sans', verdana, arial, sans-serif; font-size: 12px; fill: rgb(68, 68, 68); fill-opacity: 1; white-space: pre;">12 Months</text><g class="layers" style="opacity: 1;"><g class="legendfill"/><g class="legendlines"><path class="js-line" d="M5,0h30" style="fill: none; stroke: rgb(214, 39, 40); stroke-opacity: 1; stroke-width: 2px;"/></g><g class="legendsymbols"><g class="legendpoints"/></g></g><rect class="legendtoggle" pointer-events="all" x="0" y="-9.5" width="98.046875" height="19" style="cursor: pointer; fill: rgb(0, 0, 0); fill-opacity: 0;"/></g><g class="traces" transform="translate(0, 106.1)" style="opacity: 1;"><text class="legendtext user-select-none" text-anchor="start" x="40" y="4.680000000000001" style="font-family: 'Open Sans', verdana, arial, sans-serif; font-size: 12px; fill: rgb(68, 68, 68); fill-opacity: 1; white-space: pre;">24 Months</text><g class="layers" style="opacity: 1;"><g class="legendfill"/><g class="legendlines"><path class="js-line" d="M5,0h30" style="fill: none; stroke: rgb(148, 103, 189); stroke-opacity: 1; stroke-width: 2px;"/></g><g class="legendsymbols"><g class="legendpoints"/></g></g><rect class="legendtoggle" pointer-events="all" x="0" y="-9.5" width="98.046875" height="19" style="cursor: pointer; fill: rgb(0, 0, 0); fill-opacity: 0;"/></g><g class="traces" transform="translate(0, 125.1)" style="opacity: 1;"><text class="legendtext user-select-none" text-anchor="start" x="40" y="4.680000000000001" style="font-family: 'Open Sans', verdana, arial, sans-serif; font-size: 12px; fill: rgb(68, 68, 68); fill-opacity: 1; white-space: pre;">36 Months</text><g class="layers" style="opacity: 1;"><g class="legendfill"/><g class="legendlines"><path class="js-line" d="M5,0h30" style="fill: none; stroke: rgb(140, 86, 75); stroke-opacity: 1; stroke-width: 2px;"/></g><g class="legendsymbols"><g class="legendpoints"/></g></g><rect class="legendtoggle" pointer-events="all" x="0" y="-9.5" width="98.046875" height="19" style="cursor: pointer; fill: rgb(0, 0, 0); fill-opacity: 0;"/></g></g></g><rect class="scrollbar" rx="20" ry="3" width="0" height="0" style="fill: rgb(128, 139, 164); fill-opacity: 1;" x="0" y="0"/></g><g class="g-gtitle"><text class="gtitle" x="350" y="12.5" text-anchor="middle" dy="0em" style="font-family: 'Open Sans', verdana, arial, sans-serif; font-size: 17px; fill: rgb(68, 68, 68); opacity: 1; font-weight: normal; white-space: pre;"><tspan style="font-weight:bold"> Leprosy Prevalence MB - Immunity Vaccine 0.99, Treatment 75% </tspan></text></g><g class="g-xtitle" transform="translate(0,-15)"><text class="xtitle" x="369.5" y="512" text-anchor="middle" style="font-family: 'Open Sans', verdana, arial, sans-serif; font-size: 14px; fill: rgb(68, 68, 68); opacity: 1; font-weight: normal; white-space: pre;">Time(Years)</text></g><g class="g-ytitle"><text class="ytitle" transform="rotate(-90,22,242.5)" x="22" y="242.5" text-anchor="middle" style="font-family: 'Open Sans', verdana, arial, sans-serif; font-size: 14px; fill: rgb(68, 68, 68); opacity: 1; font-weight: normal; white-space: pre;">Number of infectiuos individuals</text></g></g></svg>