<svg class="main-svg" xmlns="http://www.w3.org/2000/svg" xmlns:xlink="http://www.w3.org/1999/xlink" width="700" height="500" style="" viewBox="0 0 700 500"><rect x="0" y="0" width="700" height="500" style="fill: rgb(255, 255, 255); fill-opacity: 1;"/><defs id="defs-032fea"><g class="clips"><clipPath id="clip032feaxyplot" class="plotclip"><rect width="619" height="435"/></clipPath><clipPath class="axesclip" id="clip032feax"><rect x="60" y="0" width="619" height="500"/></clipPath><clipPath class="axesclip" id="clip032feay"><rect x="0" y="25" width="700" height="435"/></clipPath><clipPath class="axesclip" id="clip032feaxy"><rect x="60" y="25" width="619" height="435"/></clipPath></g><g class="gradients"/></defs><g class="bglayer"/><g class="layer-below"><g class="imagelayer"/><g class="shapelayer"/></g><g class="cartesianlayer"><g class="subplot xy"><g class="layer-subplot"><g class="shapelayer"/><g class="imagelayer"/></g><g class="gridlayer"><g class="x"><path class="xgrid crisp" transform="translate(212.42,0)" d="M0,25v435" style="stroke: rgb(238, 238, 238); stroke-opacity: 1; stroke-width: 1px;"/><path class="xgrid crisp" transform="translate(367.94,0)" d="M0,25v435" style="stroke: rgb(238, 238, 238); stroke-opacity: 1; stroke-width: 1px;"/><path class="xgrid crisp" transform="translate(523.47,0)" d="M0,25v435" style="stroke: rgb(238, 238, 238); stroke-opacity: 1; stroke-width: 1px;"/></g><g class="y"><path class="ygrid crisp" transform="translate(0,366.93)" d="M60,0h619" style="stroke: rgb(238, 238, 238); stroke-opacity: 1; stroke-width: 1px;"/><path class="ygrid crisp" transform="translate(0,295.11)" d="M60,0h619" style="stroke: rgb(238, 238, 238); stroke-opacity: 1; stroke-width: 1px;"/><path class="ygrid crisp" transform="translate(0,223.29)" d="M60,0h619" style="stroke: rgb(238, 238, 238); stroke-opacity: 1; stroke-width: 1px;"/><path class="ygrid crisp" transform="translate(0,151.48000000000002)" d="M60,0h619" style="stroke: rgb(238, 238, 238); stroke-opacity: 1; stroke-width: 1px;"/><path class="ygrid crisp" transform="translate(0,79.66)" d="M60,0h619" style="stroke: rgb(238, 238, 238); stroke-opacity: 1; stroke-width: 1px;"/></g></g><g class="zerolinelayer"><path class="yzl zl crisp" transform="translate(0,438.75)" d="M60,0h619" style="stroke: rgb(68, 68, 68); stroke-opacity: 1; stroke-width: 1px;"/></g><path class="xlines-below"/><path class="ylines-below"/><g class="overlines-below"/><g class="xaxislayer-below"/><g class="yaxislayer-below"/><g class="overaxes-below"/><g class="plot" transform="translate(60, 25)" clip-path="url('#clip032feaxyplot')"><g class="scatterlayer mlayer"><g class="trace scatter tracebe79ba" style="stroke-miterlimit: 2; opacity: 1;"><g class="fills"/><g class="errorbars"/><g class="lines"><path class="js-line" d="M0,413.15L6.22,413.25L9.33,412.3L27.99,409.64L31.11,408.89L49.77,404.43L52.88,403.66L62.21,400.56L65.32,399.44L77.76,394.62L80.87,393.21L96.43,385.47L99.54,383.49L118.2,371.87L121.31,369.53L146.2,349.46L149.31,346.21L161.75,334.04L164.86,329.73L177.3,314.98L180.41,310.33L192.85,294.12L195.96,289.64L211.52,267.12L214.63,262.12L220.85,250.22L223.96,244.72L236.4,221.84L239.51,214.8L248.84,195.39L251.95,188.58L264.4,158.5L267.51,149.43L283.06,108.14L286.17,98.88L292.39,79.94L295.5,69.03L304.83,38.49L307.94,27.33L314.17,68.94L317.28,86.6L326.61,139.68L329.72,157.25L339.05,205.35L342.16,220.35L345.27,233.76L348.38,242.12L354.6,250.45L357.71,254.63L367.05,268.74L370.16,273.27L382.6,292.1L385.71,297.18L395.04,306.32L398.15,308.2L410.59,317.68L413.7,321.19L429.26,332.84L432.37,334.65L466.58,352.51L469.69,353.73L485.25,359.24L488.36,360.31L503.91,366.41L507.02,367.38L519.46,371.25L522.57,371.78L538.13,375.69L541.24,376.58L566.12,380.92L569.23,381.66L578.56,383.36L581.67,384.02L619,389.75" style="vector-effect: non-scaling-stroke; fill: none; stroke: rgb(31, 119, 180); stroke-opacity: 1; stroke-width: 2px; opacity: 1;"/></g><g class="points"/><g class="text"/></g><g class="trace scatter trace04f317" style="stroke-miterlimit: 2; opacity: 1;"><g class="fills"/><g class="errorbars"/><g class="lines"><path class="js-line" d="M0,413.15L6.22,413.25L9.33,412.3L27.99,409.64L31.11,408.89L49.77,404.43L52.88,403.66L62.21,400.56L65.32,399.44L77.76,394.62L80.87,393.21L96.43,385.47L99.54,383.49L118.2,371.87L121.31,369.53L146.2,349.46L149.31,346.21L161.75,334.04L164.86,329.73L177.3,314.98L180.41,310.33L192.85,294.12L195.96,289.64L211.52,267.12L214.63,262.12L220.85,250.22L223.96,244.72L236.4,221.84L239.51,214.8L248.84,195.39L251.95,188.58L264.4,158.5L267.51,149.43L283.06,108.14L286.17,98.88L292.39,79.94L295.5,69.03L304.83,38.49L307.94,27.33L314.17,63.81L317.28,81.66L326.61,135.85L329.72,153.68L339.05,202.74L342.16,216.91L345.27,230.7L348.38,239.68L354.6,248.64L357.71,251.74L385.71,295.86L388.82,298.83L404.37,311.8L407.48,313.54L416.81,321.23L419.92,323.41L429.26,329.56L432.37,331.09L454.14,342.63L457.25,343.57L475.91,353.37L479.03,354.33L497.69,360.41L500.8,361.2L507.02,363.53L510.13,364.43L516.35,366.13L519.46,366.88L547.46,374.05L550.57,374.96L556.79,376.6L559.9,376.93L566.12,378.17L569.23,378.26L603.45,384.69L606.56,384.65L619,385.77" style="vector-effect: non-scaling-stroke; fill: none; stroke: rgb(255, 127, 14); stroke-opacity: 1; stroke-width: 2px; opacity: 1;"/></g><g class="points"/><g class="text"/></g><g class="trace scatter trace3dda17" style="stroke-miterlimit: 2; opacity: 1;"><g class="fills"/><g class="errorbars"/><g class="lines"><path class="js-line" d="M0,413.15L6.22,413.25L9.33,412.3L27.99,409.64L31.11,408.89L49.77,404.43L52.88,403.66L62.21,400.56L65.32,399.44L77.76,394.62L80.87,393.21L96.43,385.47L99.54,383.49L118.2,371.87L121.31,369.53L146.2,349.46L149.31,346.21L161.75,334.04L164.86,329.73L177.3,314.98L180.41,310.33L192.85,294.12L195.96,289.64L211.52,267.12L214.63,262.12L220.85,250.22L223.96,244.72L236.4,221.84L239.51,214.8L248.84,195.39L251.95,188.58L264.4,158.5L267.51,149.43L283.06,108.14L286.17,98.88L292.39,79.94L295.5,69.03L304.83,38.49L307.94,27.33L311.06,40.21L314.17,59.41L326.61,130.16L329.72,148.34L339.05,197.51L342.16,212.76L345.27,227.09L348.38,236.67L354.6,244L357.71,247.47L360.82,251.08L363.93,256.37L376.38,275.66L379.49,280.71L385.71,289.85L388.82,293.65L398.15,300.15L401.26,302.53L413.7,312.72L416.81,314.8L426.15,321.9L429.26,323.45L454.14,338.97L457.25,340.25L466.58,345.25L469.69,346.88L479.03,351.36L482.14,352.61L494.58,356.7L497.69,357.31L503.91,359.79L507.02,360.94L513.24,362.82L516.35,363.86L538.13,369.49L541.24,369.68L556.79,373.26L559.9,373.57L572.34,376.55L575.45,376.92L587.89,379.51L591.01,380.4L603.45,382.14L606.56,382.38L615.89,383.68L619,384.16" style="vector-effect: non-scaling-stroke; fill: none; stroke: rgb(44, 160, 44); stroke-opacity: 1; stroke-width: 2px; opacity: 1;"/></g><g class="points"/><g class="text"/></g><g class="trace scatter traced07b0e" style="stroke-miterlimit: 2; opacity: 1;"><g class="fills"/><g class="errorbars"/><g class="lines"><path class="js-line" d="M0,413.15L6.22,413.25L9.33,412.3L27.99,409.64L31.11,408.89L49.77,404.43L52.88,403.66L62.21,400.56L65.32,399.44L77.76,394.62L80.87,393.21L96.43,385.47L99.54,383.49L118.2,371.87L121.31,369.53L146.2,349.46L149.31,346.21L161.75,334.04L164.86,329.73L177.3,314.98L180.41,310.33L192.85,294.12L195.96,289.64L211.52,267.12L214.63,262.12L220.85,250.22L223.96,244.72L236.4,221.84L239.51,214.8L248.84,195.39L251.95,188.58L264.4,158.5L267.51,149.43L283.06,108.14L286.17,98.88L292.39,79.94L295.5,69.03L304.83,38.49L307.94,27.33L311.06,32.39L314.17,51.17L329.72,139.6L332.83,158.19L342.16,204.47L345.27,218.73L348.38,229.45L351.49,232.77L360.82,243.09L363.93,247.34L367.05,251.31L370.16,256.94L388.82,286.73L391.93,289.82L395.04,291.3L398.15,293.87L435.48,320.6L438.59,322.7L460.36,334.83L463.47,336.25L469.69,339.94L472.8,340.85L479.03,342.75L482.14,344.12L488.36,346.71L491.47,347.85L494.58,348.9L497.69,350.77L503.91,353.07L507.02,353.88L513.24,356.3L516.35,356.8L556.79,367.86L559.9,368.07L566.12,369.57L569.23,369.59L587.89,373.02L591.01,374.22L612.78,376.56L615.89,377.13L619,377.54" style="vector-effect: non-scaling-stroke; fill: none; stroke: rgb(214, 39, 40); stroke-opacity: 1; stroke-width: 2px; opacity: 1;"/></g><g class="points"/><g class="text"/></g><g class="trace scatter trace753334" style="stroke-miterlimit: 2; opacity: 1;"><g class="fills"/><g class="errorbars"/><g class="lines"><path class="js-line" d="M0,413.15L6.22,413.25L9.33,412.3L27.99,409.64L31.11,408.89L49.77,404.43L52.88,403.66L62.21,400.56L65.32,399.44L77.76,394.62L80.87,393.21L96.43,385.47L99.54,383.49L118.2,371.87L121.31,369.53L146.2,349.46L149.31,346.21L161.75,334.04L164.86,329.73L177.3,314.98L180.41,310.33L192.85,294.12L195.96,289.64L211.52,267.12L214.63,262.12L220.85,250.22L223.96,244.72L236.4,221.84L239.51,214.8L248.84,195.39L251.95,188.58L264.4,158.5L267.51,149.43L283.06,108.14L286.17,98.88L292.39,79.94L295.5,69.03L304.83,38.49L307.94,27.33L311.06,24.89L314.17,36.58L320.39,66.7L323.5,86.45L335.94,157.49L339.05,173.28L348.38,213.73L351.49,220.48L357.71,224.36L360.82,227.66L363.93,230.57L367.05,236.05L379.49,254.81L382.6,258.77L388.82,268.26L391.93,272L398.15,277.74L401.26,279.97L407.48,282.73L410.59,285.29L451.03,314.26L454.14,315.63L472.8,322.4L475.91,324.61L485.25,328.55L488.36,330.04L503.91,334.22L507.02,334.84L531.9,342.48L535.02,344.42L538.13,345.63L541.24,346.01L547.46,347.09L550.57,347.86L569.23,351.86L572.34,352.58L581.67,355.36L584.78,355.34L597.23,358.01L600.34,358.62L606.56,359.79L609.67,360.02L619,361.84" style="vector-effect: non-scaling-stroke; fill: none; stroke: rgb(148, 103, 189); stroke-opacity: 1; stroke-width: 2px; opacity: 1;"/></g><g class="points"/><g class="text"/></g><g class="trace scatter trace6df25c" style="stroke-miterlimit: 2; opacity: 1;"><g class="fills"/><g class="errorbars"/><g class="lines"><path class="js-line" d="M0,413.15L6.22,413.25L9.33,412.3L27.99,409.64L31.11,408.89L49.77,404.43L52.88,403.66L62.21,400.56L65.32,399.44L77.76,394.62L80.87,393.21L96.43,385.47L99.54,383.49L118.2,371.87L121.31,369.53L146.2,349.46L149.31,346.21L161.75,334.04L164.86,329.73L177.3,314.98L180.41,310.33L192.85,294.12L195.96,289.64L211.52,267.12L214.63,262.12L220.85,250.22L223.96,244.72L236.4,221.84L239.51,214.8L248.84,195.39L251.95,188.58L264.4,158.5L267.51,149.43L283.06,108.14L286.17,98.88L292.39,79.94L295.5,69.03L304.83,38.49L307.94,27.33L311.06,21.75L314.17,25.05L317.28,36.13L320.39,52L329.72,107.77L332.83,124.31L345.27,186.67L348.38,198.72L351.49,207.01L354.6,211.15L357.71,212.88L360.82,215.5L367.05,221.8L370.16,225.89L382.6,241.59L385.71,246.74L391.93,255.17L395.04,259.45L401.26,263.35L404.37,265.4L419.92,276.67L423.04,279.31L435.48,288.83L438.59,290.33L457.25,300.07L460.36,301.2L466.58,303.13L469.69,305.25L479.03,308.67L482.14,309.36L485.25,311.25L488.36,311.71L497.69,316.9L500.8,317.82L510.13,321.98L513.24,322.81L522.57,326.59L525.68,326.83L541.24,331.29L544.35,331.76L550.57,333.72L553.68,334.43L572.34,337.51L575.45,338.87L591.01,341.23L594.12,341.59L612.78,345.41L615.89,345.8L619,346.81" style="vector-effect: non-scaling-stroke; fill: none; stroke: rgb(140, 86, 75); stroke-opacity: 1; stroke-width: 2px; opacity: 1;"/></g><g class="points"/><g class="text"/></g></g></g><g class="overplot"/><path class="xlines-above crisp" style="fill: none;" d="M0,0"/><path class="ylines-above crisp" style="fill: none;" d="M0,0"/><g class="overlines-above"/><g class="xaxislayer-above"><g class="xtick"><text text-anchor="middle" x="0" y="473" transform="translate(212.42,0)" style="font-family: 'Open Sans', verdana, arial, sans-serif; font-size: 12px; fill: rgb(68, 68, 68); fill-opacity: 1; white-space: pre;">50</text></g><g class="xtick"><text text-anchor="middle" x="0" y="473" transform="translate(367.94,0)" style="font-family: 'Open Sans', verdana, arial, sans-serif; font-size: 12px; fill: rgb(68, 68, 68); fill-opacity: 1; white-space: pre;">100</text></g><g class="xtick"><text text-anchor="middle" x="0" y="473" transform="translate(523.47,0)" style="font-family: 'Open Sans', verdana, arial, sans-serif; font-size: 12px; fill: rgb(68, 68, 68); fill-opacity: 1; white-space: pre;">150</text></g><g class="xtick"><text text-anchor="middle" x="0" y="473" transform="translate(679,0)" style="font-family: 'Open Sans', verdana, arial, sans-serif; font-size: 12px; fill: rgb(68, 68, 68); fill-opacity: 1; white-space: pre;">200</text></g></g><g class="yaxislayer-above"><g class="ytick"><text text-anchor="end" x="59" y="4.199999999999999" transform="translate(0,438.75)" style="font-family: 'Open Sans', verdana, arial, sans-serif; font-size: 12px; fill: rgb(68, 68, 68); fill-opacity: 1; white-space: pre;">0</text></g><g class="ytick"><text text-anchor="end" x="59" y="4.199999999999999" transform="translate(0,366.93)" style="font-family: 'Open Sans', verdana, arial, sans-serif; font-size: 12px; fill: rgb(68, 68, 68); fill-opacity: 1; white-space: pre;">100</text></g><g class="ytick"><text text-anchor="end" x="59" y="4.199999999999999" transform="translate(0,295.11)" style="font-family: 'Open Sans', verdana, arial, sans-serif; font-size: 12px; fill: rgb(68, 68, 68); fill-opacity: 1; white-space: pre;">200</text></g><g class="ytick"><text text-anchor="end" x="59" y="4.199999999999999" transform="translate(0,223.29)" style="font-family: 'Open Sans', verdana, arial, sans-serif; font-size: 12px; fill: rgb(68, 68, 68); fill-opacity: 1; white-space: pre;">300</text></g><g class="ytick"><text text-anchor="end" x="59" y="4.199999999999999" transform="translate(0,151.48000000000002)" style="font-family: 'Open Sans', verdana, arial, sans-serif; font-size: 12px; fill: rgb(68, 68, 68); fill-opacity: 1; white-space: pre;">400</text></g><g class="ytick"><text text-anchor="end" x="59" y="4.199999999999999" transform="translate(0,79.66)" style="font-family: 'Open Sans', verdana, arial, sans-serif; font-size: 12px; fill: rgb(68, 68, 68); fill-opacity: 1; white-space: pre;">500</text></g></g><g class="overaxes-above"/></g></g><g class="polarlayer"/><g class="ternarylayer"/><g class="geolayer"/><g class="funnelarealayer"/><g class="pielayer"/><g class="treemaplayer"/><g class="sunburstlayer"/><g class="glimages"/><defs id="topdefs-032fea"><g class="clips"/><clipPath id="legend032fea"><rect width="117" height="140" x="0" y="0"/></clipPath></defs><g class="layer-above"><g class="imagelayer"/><g class="shapelayer"/></g><g class="infolayer"><g class="legend" pointer-events="all" transform="translate(90.95, 46.750000000000014)"><rect class="bg" shape-rendering="crispEdges" style="stroke: rgb(68, 68, 68); stroke-opacity: 1; fill: rgb(226, 226, 226); fill-opacity: 1; stroke-width: 0px;" width="117" height="140" x="0" y="0"/><g class="scrollbox" transform="translate(0, 0)" clip-path="url('#legend032fea')"><text class="legendtitletext user-select-none" text-anchor="start" x="2" y="15.600000000000001" style="font-family: 'Open Sans', verdana, arial, sans-serif; font-size: 12px; fill: rgb(68, 68, 68); fill-opacity: 1; white-space: pre;"><tspan style="font-weight:bold"> Identification Time </tspan></text><g class="groups"><g class="traces" transform="translate(0, 30.1)" style="opacity: 1;"><text class="legendtext user-select-none" text-anchor="start" x="40" y="4.680000000000001" style="font-family: 'Open Sans', verdana, arial, sans-serif; font-size: 12px; fill: rgb(68, 68, 68); fill-opacity: 1; white-space: pre;">0 Months</text><g class="layers" style="opacity: 1;"><g class="legendfill"/><g class="legendlines"><path class="js-line" d="M5,0h30" style="fill: none; stroke: rgb(31, 119, 180); stroke-opacity: 1; stroke-width: 2px;"/></g><g class="legendsymbols"><g class="legendpoints"/></g></g><rect class="legendtoggle" pointer-events="all" x="0" y="-9.5" width="98.046875" height="19" style="cursor: pointer; fill: rgb(0, 0, 0); fill-opacity: 0;"/></g><g class="traces" transform="translate(0, 49.1)" style="opacity: 1;"><text class="legendtext user-select-none" text-anchor="start" x="40" y="4.680000000000001" style="font-family: 'Open Sans', verdana, arial, sans-serif; font-size: 12px; fill: rgb(68, 68, 68); fill-opacity: 1; white-space: pre;">3 Months</text><g class="layers" style="opacity: 1;"><g class="legendfill"/><g class="legendlines"><path class="js-line" d="M5,0h30" style="fill: none; stroke: rgb(255, 127, 14); stroke-opacity: 1; stroke-width: 2px;"/></g><g class="legendsymbols"><g class="legendpoints"/></g></g><rect class="legendtoggle" pointer-events="all" x="0" y="-9.5" width="98.046875" height="19" style="cursor: pointer; fill: rgb(0, 0, 0); fill-opacity: 0;"/></g><g class="traces" transform="translate(0, 68.1)" style="opacity: 1;"><text class="legendtext user-select-none" text-anchor="start" x="40" y="4.680000000000001" style="font-family: 'Open Sans', verdana, arial, sans-serif; font-size: 12px; fill: rgb(68, 68, 68); fill-opacity: 1; white-space: pre;">6 Months</text><g class="layers" style="opacity: 1;"><g class="legendfill"/><g class="legendlines"><path class="js-line" d="M5,0h30" style="fill: none; stroke: rgb(44, 160, 44); stroke-opacity: 1; stroke-width: 2px;"/></g><g class="legendsymbols"><g class="legendpoints"/></g></g><rect class="legendtoggle" pointer-events="all" x="0" y="-9.5" width="98.046875" height="19" style="cursor: pointer; fill: rgb(0, 0, 0); fill-opacity: 0;"/></g><g class="traces" transform="translate(0, 87.1)" style="opacity: 1;"><text class="legendtext user-select-none" text-anchor="start" x="40" y="4.680000000000001" style="font-family: 'Open Sans', verdana, arial, sans-serif; font-size: 12px; fill: rgb(68, 68, 68); fill-opacity: 1; white-space: pre;">12 Months</text><g class="layers" style="opacity: 1;"><g class="legendfill"/><g class="legendlines"><path class="js-line" d="M5,0h30" style="fill: none; stroke: rgb(214, 39, 40); stroke-opacity: 1; stroke-width: 2px;"/></g><g class="legendsymbols"><g class="legendpoints"/></g></g><rect class="legendtoggle" pointer-events="all" x="0" y="-9.5" width="98.046875" height="19" style="cursor: pointer; fill: rgb(0, 0, 0); fill-opacity: 0;"/></g><g class="traces" transform="translate(0, 106.1)" style="opacity: 1;"><text class="legendtext user-select-none" text-anchor="start" x="40" y="4.680000000000001" style="font-family: 'Open Sans', verdana, arial, sans-serif; font-size: 12px; fill: rgb(68, 68, 68); fill-opacity: 1; white-space: pre;">24 Months</text><g class="layers" style="opacity: 1;"><g class="legendfill"/><g class="legendlines"><path class="js-line" d="M5,0h30" style="fill: none; stroke: rgb(148, 103, 189); stroke-opacity: 1; stroke-width: 2px;"/></g><g class="legendsymbols"><g class="legendpoints"/></g></g><rect class="legendtoggle" pointer-events="all" x="0" y="-9.5" width="98.046875" height="19" style="cursor: pointer; fill: rgb(0, 0, 0); fill-opacity: 0;"/></g><g class="traces" transform="translate(0, 125.1)" style="opacity: 1;"><text class="legendtext user-select-none" text-anchor="start" x="40" y="4.680000000000001" style="font-family: 'Open Sans', verdana, arial, sans-serif; font-size: 12px; fill: rgb(68, 68, 68); fill-opacity: 1; white-space: pre;">36 Months</text><g class="layers" style="opacity: 1;"><g class="legendfill"/><g class="legendlines"><path class="js-line" d="M5,0h30" style="fill: none; stroke: rgb(140, 86, 75); stroke-opacity: 1; stroke-width: 2px;"/></g><g class="legendsymbols"><g class="legendpoints"/></g></g><rect class="legendtoggle" pointer-events="all" x="0" y="-9.5" width="98.046875" height="19" style="cursor: pointer; fill: rgb(0, 0, 0); fill-opacity: 0;"/></g></g></g><rect class="scrollbar" rx="20" ry="3" width="0" height="0" style="fill: rgb(128, 139, 164); fill-opacity: 1;" x="0" y="0"/></g><g class="g-gtitle"><text class="gtitle" x="350" y="12.5" text-anchor="middle" dy="0em" style="font-family: 'Open Sans', verdana, arial, sans-serif; font-size: 17px; fill: rgb(68, 68, 68); opacity: 1; font-weight: normal; white-space: pre;"><tspan style="font-weight:bold"> Leprosy Prevalence MB - Immunity Vaccine 0.5, Treatment 50% </tspan></text></g><g class="g-xtitle" transform="translate(0,-15)"><text class="xtitle" x="369.5" y="512" text-anchor="middle" style="font-family: 'Open Sans', verdana, arial, sans-serif; font-size: 14px; fill: rgb(68, 68, 68); opacity: 1; font-weight: normal; white-space: pre;">Time(Years)</text></g><g class="g-ytitle"><text class="ytitle" transform="rotate(-90,22,242.5)" x="22" y="242.5" text-anchor="middle" style="font-family: 'Open Sans', verdana, arial, sans-serif; font-size: 14px; fill: rgb(68, 68, 68); opacity: 1; font-weight: normal; white-space: pre;">Number of infectiuos individuals</text></g></g></svg>