<svg class="main-svg" xmlns="http://www.w3.org/2000/svg" xmlns:xlink="http://www.w3.org/1999/xlink" width="700" height="500" style="" viewBox="0 0 700 500"><rect x="0" y="0" width="700" height="500" style="fill: rgb(255, 255, 255); fill-opacity: 1;"/><defs id="defs-1e5003"><g class="clips"><clipPath id="clip1e5003xyplot" class="plotclip"><rect width="619" height="435"/></clipPath><clipPath class="axesclip" id="clip1e5003x"><rect x="60" y="0" width="619" height="500"/></clipPath><clipPath class="axesclip" id="clip1e5003y"><rect x="0" y="25" width="700" height="435"/></clipPath><clipPath class="axesclip" id="clip1e5003xy"><rect x="60" y="25" width="619" height="435"/></clipPath></g><g class="gradients"/></defs><g class="bglayer"/><g class="layer-below"><g class="imagelayer"/><g class="shapelayer"/></g><g class="cartesianlayer"><g class="subplot xy"><g class="layer-subplot"><g class="shapelayer"/><g class="imagelayer"/></g><g class="gridlayer"><g class="x"><path class="xgrid crisp" transform="translate(212.42,0)" d="M0,25v435" style="stroke: rgb(238, 238, 238); stroke-opacity: 1; stroke-width: 1px;"/><path class="xgrid crisp" transform="translate(367.94,0)" d="M0,25v435" style="stroke: rgb(238, 238, 238); stroke-opacity: 1; stroke-width: 1px;"/><path class="xgrid crisp" transform="translate(523.47,0)" d="M0,25v435" style="stroke: rgb(238, 238, 238); stroke-opacity: 1; stroke-width: 1px;"/></g><g class="y"><path class="ygrid crisp" transform="translate(0,365.94)" d="M60,0h619" style="stroke: rgb(238, 238, 238); stroke-opacity: 1; stroke-width: 1px;"/><path class="ygrid crisp" transform="translate(0,293.31)" d="M60,0h619" style="stroke: rgb(238, 238, 238); stroke-opacity: 1; stroke-width: 1px;"/><path class="ygrid crisp" transform="translate(0,220.68)" d="M60,0h619" style="stroke: rgb(238, 238, 238); stroke-opacity: 1; stroke-width: 1px;"/><path class="ygrid crisp" transform="translate(0,148.06)" d="M60,0h619" style="stroke: rgb(238, 238, 238); stroke-opacity: 1; stroke-width: 1px;"/><path class="ygrid crisp" transform="translate(0,75.43)" d="M60,0h619" style="stroke: rgb(238, 238, 238); stroke-opacity: 1; stroke-width: 1px;"/></g></g><g class="zerolinelayer"><path class="yzl zl crisp" transform="translate(0,438.56)" d="M60,0h619" style="stroke: rgb(68, 68, 68); stroke-opacity: 1; stroke-width: 1px;"/></g><path class="xlines-below"/><path class="ylines-below"/><g class="overlines-below"/><g class="xaxislayer-below"/><g class="yaxislayer-below"/><g class="overaxes-below"/><g class="plot" transform="translate(60, 25)" clip-path="url('#clip1e5003xyplot')"><g class="scatterlayer mlayer"><g class="trace scatter trace220665" style="stroke-miterlimit: 2; opacity: 1;"><g class="fills"/><g class="errorbars"/><g class="lines"><path class="js-line" d="M0,412.95L6.22,413.06L9.33,412.1L31.11,408.65L34.22,408.01L55.99,402.49L59.1,401.32L77.76,394.22L80.87,392.79L96.43,384.97L99.54,382.96L118.2,371.21L121.31,368.85L146.2,348.55L149.31,345.26L161.75,332.96L164.86,328.6L177.3,313.68L180.41,308.98L192.85,292.58L195.96,288.05L211.52,265.28L214.63,260.22L220.85,248.2L223.96,242.63L236.4,219.49L239.51,212.38L248.84,192.75L251.95,185.86L264.4,155.44L267.51,146.27L283.06,104.52L286.17,95.15L292.39,76L295.5,64.97L304.83,34.08L307.94,22.79L314.17,116.02L317.28,154.74L323.5,217.49L326.61,243.17L332.83,285.57L335.94,302.79L342.16,331.13L345.27,343.19L351.49,357.05L354.6,362.56L363.93,376.23L367.05,379.97L373.27,386.94L376.38,389.8L382.6,394.86L385.71,396.71L398.15,399.92L401.26,400.64L426.15,406.72L429.26,406.84L441.7,407.95L444.81,408.41L469.69,410.77L472.8,410.88L510.13,412.32L513.24,412.35L606.56,413.22L609.67,413.21L619,413.25" style="vector-effect: non-scaling-stroke; fill: none; stroke: rgb(31, 119, 180); stroke-opacity: 1; stroke-width: 2px; opacity: 1;"/></g><g class="points"/><g class="text"/></g><g class="trace scatter trace26fbc2" style="stroke-miterlimit: 2; opacity: 1;"><g class="fills"/><g class="errorbars"/><g class="lines"><path class="js-line" d="M0,412.95L6.22,413.06L9.33,412.1L31.11,408.65L34.22,408.01L55.99,402.49L59.1,401.32L77.76,394.22L80.87,392.79L96.43,384.97L99.54,382.96L118.2,371.21L121.31,368.85L146.2,348.55L149.31,345.26L161.75,332.96L164.86,328.6L177.3,313.68L180.41,308.98L192.85,292.58L195.96,288.05L211.52,265.28L214.63,260.22L220.85,248.2L223.96,242.63L236.4,219.49L239.51,212.38L248.84,192.75L251.95,185.86L264.4,155.44L267.51,146.27L283.06,104.52L286.17,95.15L292.39,76L295.5,64.97L304.83,34.08L307.94,22.79L317.28,148.22L320.39,181.91L326.61,239.13L329.72,262.22L335.94,300.36L339.05,316.21L345.27,341.81L348.38,347.4L357.71,363.53L360.82,368.23L370.16,381.01L373.27,384.18L382.6,393.36L385.71,394.85L398.15,396.96L401.26,397.85L419.92,404.14L423.04,405.02L444.81,407.02L447.92,407.42L488.36,410.74L491.47,410.96L535.02,412.31L538.13,412.35L612.78,413.11L615.89,413.12L619,413.13" style="vector-effect: non-scaling-stroke; fill: none; stroke: rgb(255, 127, 14); stroke-opacity: 1; stroke-width: 2px; opacity: 1;"/></g><g class="points"/><g class="text"/></g><g class="trace scatter trace05e4fc" style="stroke-miterlimit: 2; opacity: 1;"><g class="fills"/><g class="errorbars"/><g class="lines"><path class="js-line" d="M0,412.95L6.22,413.06L9.33,412.1L31.11,408.65L34.22,408.01L55.99,402.49L59.1,401.32L77.76,394.22L80.87,392.79L96.43,384.97L99.54,382.96L118.2,371.21L121.31,368.85L146.2,348.55L149.31,345.26L161.75,332.96L164.86,328.6L177.3,313.68L180.41,308.98L192.85,292.58L195.96,288.05L211.52,265.28L214.63,260.22L220.85,248.2L223.96,242.63L236.4,219.49L239.51,212.38L248.84,192.75L251.95,185.86L264.4,155.44L267.51,146.27L283.06,104.52L286.17,95.15L292.39,76L295.5,64.97L304.83,34.08L307.94,22.79L311.06,57.65L314.17,102.9L320.39,175.53L323.5,206.49L329.72,257.97L332.83,278.81L339.05,313.66L342.16,327.66L345.27,339.94L348.38,344.11L354.6,353.32L357.71,358.89L370.16,377.37L373.27,381.17L382.6,390.98L385.71,392.93L391.93,392.7L395.04,392.99L413.7,400.47L416.81,401.7L426.15,404.37L429.26,404.38L441.7,405.15L444.81,405.63L460.36,408.23L463.47,408.59L482.14,409.65L485.25,409.85L494.58,410.48L497.69,410.71L513.24,411.52L516.35,411.59L538.13,412.18L541.24,412.19L572.34,412.66L575.45,412.71L612.78,412.93L615.89,412.91L619,412.93" style="vector-effect: non-scaling-stroke; fill: none; stroke: rgb(44, 160, 44); stroke-opacity: 1; stroke-width: 2px; opacity: 1;"/></g><g class="points"/><g class="text"/></g><g class="trace scatter tracef37127" style="stroke-miterlimit: 2; opacity: 1;"><g class="fills"/><g class="errorbars"/><g class="lines"><path class="js-line" d="M0,412.95L6.22,413.06L9.33,412.1L31.11,408.65L34.22,408.01L55.99,402.49L59.1,401.32L77.76,394.22L80.87,392.79L96.43,384.97L99.54,382.96L118.2,371.21L121.31,368.85L146.2,348.55L149.31,345.26L161.75,332.96L164.86,328.6L177.3,313.68L180.41,308.98L192.85,292.58L195.96,288.05L211.52,265.28L214.63,260.22L220.85,248.2L223.96,242.63L236.4,219.49L239.51,212.38L248.84,192.75L251.95,185.86L264.4,155.44L267.51,146.27L283.06,104.52L286.17,95.15L292.39,76L295.5,64.97L304.83,34.08L307.94,22.79L311.06,41.24L314.17,87.4L320.39,162L323.5,195.93L329.72,248.78L332.83,270.76L339.05,307.61L342.16,322.25L345.27,335.15L348.38,341.33L351.49,340.14L354.6,343.31L370.16,370.25L373.27,374.99L379.49,382.52L382.6,385.92L385.71,389L388.82,390.07L391.93,388.3L395.04,387.9L398.15,388.12L401.26,389.61L413.7,395.72L416.81,397.13L423.04,399.83L426.15,401.1L429.26,401.53L432.37,401.2L438.59,400.6L441.7,400.56L457.25,404.2L460.36,404.89L469.69,406.37L472.8,406.56L482.14,406.7L485.25,406.77L503.91,409.08L507.02,409.21L522.57,410.12L525.68,410.14L544.35,410.99L547.46,411.3L619,412.59" style="vector-effect: non-scaling-stroke; fill: none; stroke: rgb(214, 39, 40); stroke-opacity: 1; stroke-width: 2px; opacity: 1;"/></g><g class="points"/><g class="text"/></g><g class="trace scatter trace729598" style="stroke-miterlimit: 2; opacity: 1;"><g class="fills"/><g class="errorbars"/><g class="lines"><path class="js-line" d="M0,412.95L6.22,413.06L9.33,412.1L31.11,408.65L34.22,408.01L55.99,402.49L59.1,401.32L77.76,394.22L80.87,392.79L96.43,384.97L99.54,382.96L118.2,371.21L121.31,368.85L146.2,348.55L149.31,345.26L161.75,332.96L164.86,328.6L177.3,313.68L180.41,308.98L192.85,292.58L195.96,288.05L211.52,265.28L214.63,260.22L220.85,248.2L223.96,242.63L236.4,219.49L239.51,212.38L248.84,192.75L251.95,185.86L264.4,155.44L267.51,146.27L283.06,104.52L286.17,95.15L292.39,76L295.5,64.97L304.83,34.08L307.94,22.79L311.06,26.5L314.17,57.52L320.39,135.78L323.5,170.59L329.72,230.89L332.83,254.87L339.05,295.17L342.16,311.01L345.27,325.42L348.38,334.67L351.49,334.78L354.6,330.42L357.71,330.86L360.82,334.19L363.93,338.96L367.05,345.53L373.27,358.07L376.38,363.46L385.71,377.98L388.82,380.71L391.93,381.68L395.04,379.63L401.26,376.18L404.37,376.75L410.59,378.89L413.7,381.91L429.26,392.48L432.37,393.49L438.59,393.38L441.7,392.62L451.03,392.33L454.14,393.3L463.47,397.24L466.58,397.95L472.8,399.71L475.91,400.43L482.14,401.13L485.25,401.22L494.58,401.08L497.69,401.89L522.57,405.52L525.68,405.68L547.46,406.54L550.57,406.76L563.01,407.99L566.12,408.26L587.89,409.15L591.01,409.1L603.45,409.89L606.56,410.11L619,410.2" style="vector-effect: non-scaling-stroke; fill: none; stroke: rgb(148, 103, 189); stroke-opacity: 1; stroke-width: 2px; opacity: 1;"/></g><g class="points"/><g class="text"/></g><g class="trace scatter tracec98c48" style="stroke-miterlimit: 2; opacity: 1;"><g class="fills"/><g class="errorbars"/><g class="lines"><path class="js-line" d="M0,412.95L6.22,413.06L9.33,412.1L31.11,408.65L34.22,408.01L55.99,402.49L59.1,401.32L77.76,394.22L80.87,392.79L96.43,384.97L99.54,382.96L118.2,371.21L121.31,368.85L146.2,348.55L149.31,345.26L161.75,332.96L164.86,328.6L177.3,313.68L180.41,308.98L192.85,292.58L195.96,288.05L211.52,265.28L214.63,260.22L220.85,248.2L223.96,242.63L236.4,219.49L239.51,212.38L248.84,192.75L251.95,185.86L264.4,155.44L267.51,146.27L283.06,104.52L286.17,95.15L292.39,76L295.5,64.97L304.83,34.08L307.94,22.79L311.06,21.75L314.17,39.1L332.83,232L335.94,255.6L342.16,294.1L345.27,309.54L348.38,322.06L351.49,326.49L354.6,323.41L357.71,318.77L360.82,316.89L363.93,318.85L370.16,328.92L373.27,335.04L385.71,361L388.82,365.15L391.93,368.12L395.04,369.65L398.15,368.85L401.26,366.48L407.48,363.22L410.59,363.23L413.7,364.06L416.81,366.37L423.04,370.85L426.15,374.38L435.48,381.6L438.59,382.54L441.7,383.05L444.81,382.31L447.92,381.76L451.03,382.12L457.25,381.76L460.36,382.6L466.58,383.88L469.69,385.48L472.8,387.28L475.91,388.18L479.03,389.06L482.14,390.72L494.58,392.31L497.69,391.88L503.91,392.89L507.02,393.48L522.57,396.14L525.68,396.93L531.9,397.93L535.02,398.3L544.35,399.06L547.46,398.82L553.68,399.38L556.79,400.01L572.34,401.96L575.45,402.05L619,405.26" style="vector-effect: non-scaling-stroke; fill: none; stroke: rgb(140, 86, 75); stroke-opacity: 1; stroke-width: 2px; opacity: 1;"/></g><g class="points"/><g class="text"/></g></g></g><g class="overplot"/><path class="xlines-above crisp" style="fill: none;" d="M0,0"/><path class="ylines-above crisp" style="fill: none;" d="M0,0"/><g class="overlines-above"/><g class="xaxislayer-above"><g class="xtick"><text text-anchor="middle" x="0" y="473" transform="translate(212.42,0)" style="font-family: 'Open Sans', verdana, arial, sans-serif; font-size: 12px; fill: rgb(68, 68, 68); fill-opacity: 1; white-space: pre;">50</text></g><g class="xtick"><text text-anchor="middle" x="0" y="473" transform="translate(367.94,0)" style="font-family: 'Open Sans', verdana, arial, sans-serif; font-size: 12px; fill: rgb(68, 68, 68); fill-opacity: 1; white-space: pre;">100</text></g><g class="xtick"><text text-anchor="middle" x="0" y="473" transform="translate(523.47,0)" style="font-family: 'Open Sans', verdana, arial, sans-serif; font-size: 12px; fill: rgb(68, 68, 68); fill-opacity: 1; white-space: pre;">150</text></g><g class="xtick"><text text-anchor="middle" x="0" y="473" transform="translate(679,0)" style="font-family: 'Open Sans', verdana, arial, sans-serif; font-size: 12px; fill: rgb(68, 68, 68); fill-opacity: 1; white-space: pre;">200</text></g></g><g class="yaxislayer-above"><g class="ytick"><text text-anchor="end" x="59" y="4.199999999999999" transform="translate(0,438.56)" style="font-family: 'Open Sans', verdana, arial, sans-serif; font-size: 12px; fill: rgb(68, 68, 68); fill-opacity: 1; white-space: pre;">0</text></g><g class="ytick"><text text-anchor="end" x="59" y="4.199999999999999" transform="translate(0,365.94)" style="font-family: 'Open Sans', verdana, arial, sans-serif; font-size: 12px; fill: rgb(68, 68, 68); fill-opacity: 1; white-space: pre;">100</text></g><g class="ytick"><text text-anchor="end" x="59" y="4.199999999999999" transform="translate(0,293.31)" style="font-family: 'Open Sans', verdana, arial, sans-serif; font-size: 12px; fill: rgb(68, 68, 68); fill-opacity: 1; white-space: pre;">200</text></g><g class="ytick"><text text-anchor="end" x="59" y="4.199999999999999" transform="translate(0,220.68)" style="font-family: 'Open Sans', verdana, arial, sans-serif; font-size: 12px; fill: rgb(68, 68, 68); fill-opacity: 1; white-space: pre;">300</text></g><g class="ytick"><text text-anchor="end" x="59" y="4.199999999999999" transform="translate(0,148.06)" style="font-family: 'Open Sans', verdana, arial, sans-serif; font-size: 12px; fill: rgb(68, 68, 68); fill-opacity: 1; white-space: pre;">400</text></g><g class="ytick"><text text-anchor="end" x="59" y="4.199999999999999" transform="translate(0,75.43)" style="font-family: 'Open Sans', verdana, arial, sans-serif; font-size: 12px; fill: rgb(68, 68, 68); fill-opacity: 1; white-space: pre;">500</text></g></g><g class="overaxes-above"/></g></g><g class="polarlayer"/><g class="ternarylayer"/><g class="geolayer"/><g class="funnelarealayer"/><g class="pielayer"/><g class="treemaplayer"/><g class="sunburstlayer"/><g class="glimages"/><defs id="topdefs-1e5003"><g class="clips"/><clipPath id="legend1e5003"><rect width="117" height="140" x="0" y="0"/></clipPath></defs><g class="layer-above"><g class="imagelayer"/><g class="shapelayer"/></g><g class="infolayer"><g class="legend" pointer-events="all" transform="translate(90.95, 46.750000000000014)"><rect class="bg" shape-rendering="crispEdges" style="stroke: rgb(68, 68, 68); stroke-opacity: 1; fill: rgb(226, 226, 226); fill-opacity: 1; stroke-width: 0px;" width="117" height="140" x="0" y="0"/><g class="scrollbox" transform="translate(0, 0)" clip-path="url('#legend1e5003')"><text class="legendtitletext user-select-none" text-anchor="start" x="2" y="15.600000000000001" style="font-family: 'Open Sans', verdana, arial, sans-serif; font-size: 12px; fill: rgb(68, 68, 68); fill-opacity: 1; white-space: pre;"><tspan style="font-weight:bold"> Identification Time </tspan></text><g class="groups"><g class="traces" transform="translate(0, 30.1)" style="opacity: 1;"><text class="legendtext user-select-none" text-anchor="start" x="40" y="4.680000000000001" style="font-family: 'Open Sans', verdana, arial, sans-serif; font-size: 12px; fill: rgb(68, 68, 68); fill-opacity: 1; white-space: pre;">0 Months</text><g class="layers" style="opacity: 1;"><g class="legendfill"/><g class="legendlines"><path class="js-line" d="M5,0h30" style="fill: none; stroke: rgb(31, 119, 180); stroke-opacity: 1; stroke-width: 2px;"/></g><g class="legendsymbols"><g class="legendpoints"/></g></g><rect class="legendtoggle" pointer-events="all" x="0" y="-9.5" width="98.046875" height="19" style="cursor: pointer; fill: rgb(0, 0, 0); fill-opacity: 0;"/></g><g class="traces" transform="translate(0, 49.1)" style="opacity: 1;"><text class="legendtext user-select-none" text-anchor="start" x="40" y="4.680000000000001" style="font-family: 'Open Sans', verdana, arial, sans-serif; font-size: 12px; fill: rgb(68, 68, 68); fill-opacity: 1; white-space: pre;">3 Months</text><g class="layers" style="opacity: 1;"><g class="legendfill"/><g class="legendlines"><path class="js-line" d="M5,0h30" style="fill: none; stroke: rgb(255, 127, 14); stroke-opacity: 1; stroke-width: 2px;"/></g><g class="legendsymbols"><g class="legendpoints"/></g></g><rect class="legendtoggle" pointer-events="all" x="0" y="-9.5" width="98.046875" height="19" style="cursor: pointer; fill: rgb(0, 0, 0); fill-opacity: 0;"/></g><g class="traces" transform="translate(0, 68.1)" style="opacity: 1;"><text class="legendtext user-select-none" text-anchor="start" x="40" y="4.680000000000001" style="font-family: 'Open Sans', verdana, arial, sans-serif; font-size: 12px; fill: rgb(68, 68, 68); fill-opacity: 1; white-space: pre;">6 Months</text><g class="layers" style="opacity: 1;"><g class="legendfill"/><g class="legendlines"><path class="js-line" d="M5,0h30" style="fill: none; stroke: rgb(44, 160, 44); stroke-opacity: 1; stroke-width: 2px;"/></g><g class="legendsymbols"><g class="legendpoints"/></g></g><rect class="legendtoggle" pointer-events="all" x="0" y="-9.5" width="98.046875" height="19" style="cursor: pointer; fill: rgb(0, 0, 0); fill-opacity: 0;"/></g><g class="traces" transform="translate(0, 87.1)" style="opacity: 1;"><text class="legendtext user-select-none" text-anchor="start" x="40" y="4.680000000000001" style="font-family: 'Open Sans', verdana, arial, sans-serif; font-size: 12px; fill: rgb(68, 68, 68); fill-opacity: 1; white-space: pre;">12 Months</text><g class="layers" style="opacity: 1;"><g class="legendfill"/><g class="legendlines"><path class="js-line" d="M5,0h30" style="fill: none; stroke: rgb(214, 39, 40); stroke-opacity: 1; stroke-width: 2px;"/></g><g class="legendsymbols"><g class="legendpoints"/></g></g><rect class="legendtoggle" pointer-events="all" x="0" y="-9.5" width="98.046875" height="19" style="cursor: pointer; fill: rgb(0, 0, 0); fill-opacity: 0;"/></g><g class="traces" transform="translate(0, 106.1)" style="opacity: 1;"><text class="legendtext user-select-none" text-anchor="start" x="40" y="4.680000000000001" style="font-family: 'Open Sans', verdana, arial, sans-serif; font-size: 12px; fill: rgb(68, 68, 68); fill-opacity: 1; white-space: pre;">24 Months</text><g class="layers" style="opacity: 1;"><g class="legendfill"/><g class="legendlines"><path class="js-line" d="M5,0h30" style="fill: none; stroke: rgb(148, 103, 189); stroke-opacity: 1; stroke-width: 2px;"/></g><g class="legendsymbols"><g class="legendpoints"/></g></g><rect class="legendtoggle" pointer-events="all" x="0" y="-9.5" width="98.046875" height="19" style="cursor: pointer; fill: rgb(0, 0, 0); fill-opacity: 0;"/></g><g class="traces" transform="translate(0, 125.1)" style="opacity: 1;"><text class="legendtext user-select-none" text-anchor="start" x="40" y="4.680000000000001" style="font-family: 'Open Sans', verdana, arial, sans-serif; font-size: 12px; fill: rgb(68, 68, 68); fill-opacity: 1; white-space: pre;">36 Months</text><g class="layers" style="opacity: 1;"><g class="legendfill"/><g class="legendlines"><path class="js-line" d="M5,0h30" style="fill: none; stroke: rgb(140, 86, 75); stroke-opacity: 1; stroke-width: 2px;"/></g><g class="legendsymbols"><g class="legendpoints"/></g></g><rect class="legendtoggle" pointer-events="all" x="0" y="-9.5" width="98.046875" height="19" style="cursor: pointer; fill: rgb(0, 0, 0); fill-opacity: 0;"/></g></g></g><rect class="scrollbar" rx="20" ry="3" width="0" height="0" style="fill: rgb(128, 139, 164); fill-opacity: 1;" x="0" y="0"/></g><g class="g-gtitle"><text class="gtitle" x="350" y="12.5" text-anchor="middle" dy="0em" style="font-family: 'Open Sans', verdana, arial, sans-serif; font-size: 17px; fill: rgb(68, 68, 68); opacity: 1; font-weight: normal; white-space: pre;"><tspan style="font-weight:bold"> Leprosy Prevalence MB - Immunity Vaccine 0.5, Treatment 95% </tspan></text></g><g class="g-xtitle" transform="translate(0,-15)"><text class="xtitle" x="369.5" y="512" text-anchor="middle" style="font-family: 'Open Sans', verdana, arial, sans-serif; font-size: 14px; fill: rgb(68, 68, 68); opacity: 1; font-weight: normal; white-space: pre;">Time(Years)</text></g><g class="g-ytitle"><text class="ytitle" transform="rotate(-90,22,242.5)" x="22" y="242.5" text-anchor="middle" style="font-family: 'Open Sans', verdana, arial, sans-serif; font-size: 14px; fill: rgb(68, 68, 68); opacity: 1; font-weight: normal; white-space: pre;">Number of infectiuos individuals</text></g></g></svg>