<svg class="main-svg" xmlns="http://www.w3.org/2000/svg" xmlns:xlink="http://www.w3.org/1999/xlink" width="700" height="500" style="" viewBox="0 0 700 500"><rect x="0" y="0" width="700" height="500" style="fill: rgb(255, 255, 255); fill-opacity: 1;"/><defs id="defs-276655"><g class="clips"><clipPath id="clip276655xyplot" class="plotclip"><rect width="619" height="435"/></clipPath><clipPath class="axesclip" id="clip276655x"><rect x="60" y="0" width="619" height="500"/></clipPath><clipPath class="axesclip" id="clip276655y"><rect x="0" y="25" width="700" height="435"/></clipPath><clipPath class="axesclip" id="clip276655xy"><rect x="60" y="25" width="619" height="435"/></clipPath></g><g class="gradients"/></defs><g class="bglayer"/><g class="layer-below"><g class="imagelayer"/><g class="shapelayer"/></g><g class="cartesianlayer"><g class="subplot xy"><g class="layer-subplot"><g class="shapelayer"/><g class="imagelayer"/></g><g class="gridlayer"><g class="x"><path class="xgrid crisp" transform="translate(212.42,0)" d="M0,25v435" style="stroke: rgb(238, 238, 238); stroke-opacity: 1; stroke-width: 1px;"/><path class="xgrid crisp" transform="translate(367.94,0)" d="M0,25v435" style="stroke: rgb(238, 238, 238); stroke-opacity: 1; stroke-width: 1px;"/><path class="xgrid crisp" transform="translate(523.47,0)" d="M0,25v435" style="stroke: rgb(238, 238, 238); stroke-opacity: 1; stroke-width: 1px;"/></g><g class="y"><path class="ygrid crisp" transform="translate(0,359.76)" d="M60,0h619" style="stroke: rgb(238, 238, 238); stroke-opacity: 1; stroke-width: 1px;"/><path class="ygrid crisp" transform="translate(0,281.26)" d="M60,0h619" style="stroke: rgb(238, 238, 238); stroke-opacity: 1; stroke-width: 1px;"/><path class="ygrid crisp" transform="translate(0,202.77)" d="M60,0h619" style="stroke: rgb(238, 238, 238); stroke-opacity: 1; stroke-width: 1px;"/><path class="ygrid crisp" transform="translate(0,124.27)" d="M60,0h619" style="stroke: rgb(238, 238, 238); stroke-opacity: 1; stroke-width: 1px;"/><path class="ygrid crisp" transform="translate(0,45.78)" d="M60,0h619" style="stroke: rgb(238, 238, 238); stroke-opacity: 1; stroke-width: 1px;"/></g></g><g class="zerolinelayer"><path class="yzl zl crisp" transform="translate(0,438.25)" d="M60,0h619" style="stroke: rgb(68, 68, 68); stroke-opacity: 1; stroke-width: 1px;"/></g><path class="xlines-below"/><path class="ylines-below"/><g class="overlines-below"/><g class="xaxislayer-below"/><g class="yaxislayer-below"/><g class="overaxes-below"/><g class="plot" transform="translate(60, 25)" clip-path="url('#clip276655xyplot')"><g class="scatterlayer mlayer"><g class="trace scatter traceb802f9" style="stroke-miterlimit: 2; opacity: 1;"><g class="fills"/><g class="errorbars"/><g class="lines"><path class="js-line" d="M0,175.98L3.11,413.25L6.22,413.25L9.33,232.57L12.44,347.16L31.11,325.43L34.22,321.86L40.44,315.8L43.55,314.48L49.77,308.88L52.88,306.14L55.99,302.62L59.1,300.74L62.21,297.86L65.32,296.06L68.43,294.24L71.54,290.97L74.65,290.15L77.76,287.96L87.1,280.44L90.21,278.36L93.32,274.82L96.43,273.8L105.76,265L108.87,263.53L111.98,262.74L115.09,260.25L118.2,255.61L121.31,254.57L124.42,250.62L127.53,249.3L130.64,248.24L133.75,243.83L143.09,236.78L146.2,233.06L152.42,227.74L155.53,226.85L161.75,220.82L164.86,215.88L174.19,208.2L177.3,206L183.52,200.24L186.63,195.96L189.74,196.26L192.85,189.49L195.96,186.22L199.08,181.06L202.19,180.22L205.3,177.13L220.85,157.99L223.96,152.77L227.07,149.66L230.18,148.67L239.51,132.71L242.62,128.69L245.73,127.87L248.84,124.99L255.07,112.83L258.18,111.06L261.29,104.59L264.4,100.74L270.62,93.02L273.73,84.19L276.84,82.08L279.95,75.88L283.06,69.91L286.17,66.34L289.28,59.9L292.39,56.72L295.5,47.24L298.61,44.93L301.72,40.17L304.83,33.32L307.94,24.64L311.06,33.94L320.39,82.23L323.5,113.89L329.72,156.81L332.83,169.34L339.05,201.61L342.16,216.83L348.38,239.67L351.49,245.73L354.6,251.02L357.71,254.45L360.82,258.4L363.93,258.93L367.05,263.11L370.16,265.61L373.27,270.22L376.38,272.06L379.49,277.12L382.6,279.74L385.71,283.21L388.82,285.3L391.93,287.03L395.04,291.96L398.15,293.15L401.26,292.06L404.37,296.4L407.48,298.77L413.7,301.37L416.81,304.68L426.15,307.27L429.26,310.99L432.37,311.27L435.48,312.59L451.03,319.72L454.14,321.48L463.47,322.6L466.58,325.56L469.69,327.89L472.8,325.62L475.91,328.59L479.03,330.08L482.14,328.75L485.25,330.26L491.47,332.68L494.58,332.38L497.69,333.88L500.8,333.7L516.35,338.1L519.46,340.51L522.57,340.77L525.68,338.97L528.79,340.34L531.9,340.84L538.13,341.71L541.24,340.66L544.35,342.97L547.46,341.86L550.57,344.09L553.68,344.42L556.79,345.12L559.9,344.1L566.12,345.57L569.23,345.02L572.34,346.7L575.45,346.51L578.56,346.28L581.67,348.19L584.78,347.17L587.89,347.6L591.01,346.98L594.12,347.5L603.45,347.76L606.56,348.89L619,350.24" style="vector-effect: non-scaling-stroke; fill: none; stroke: rgb(31, 119, 180); stroke-opacity: 1; stroke-width: 2px; opacity: 1;"/></g><g class="points"/><g class="text"/></g><g class="trace scatter trace3db6e7" style="stroke-miterlimit: 2; opacity: 1;"><g class="fills"/><g class="errorbars"/><g class="lines"><path class="js-line" d="M0,176.05L3.11,413.25L6.22,413.25L9.33,232.57L12.44,347.16L31.11,325.43L34.22,321.86L40.44,315.8L43.55,314.48L49.77,308.88L52.88,306.14L55.99,302.62L59.1,300.74L62.21,297.86L65.32,296.06L68.43,294.24L71.54,290.97L74.65,290.15L77.76,287.96L87.1,280.44L90.21,278.36L93.32,274.82L96.43,273.8L105.76,265L108.87,263.53L111.98,262.74L115.09,260.25L118.2,255.61L121.31,254.57L124.42,250.62L127.53,249.3L130.64,248.24L133.75,243.83L143.09,236.78L146.2,233.06L152.42,227.74L155.53,226.85L161.75,220.82L164.86,215.88L174.19,208.2L177.3,206L183.52,200.24L186.63,195.96L189.74,196.26L192.85,189.49L195.96,186.22L199.08,181.06L202.19,180.22L205.3,177.13L220.85,157.99L223.96,152.77L227.07,149.66L230.18,148.67L239.51,132.71L242.62,128.69L245.73,127.87L248.84,124.99L255.07,112.83L258.18,111.06L261.29,104.59L264.4,100.74L270.62,93.02L273.73,84.19L276.84,82.08L279.95,75.88L283.06,69.91L286.17,66.34L289.28,59.9L292.39,56.72L295.5,47.24L298.61,44.93L301.72,40.17L304.83,33.32L307.94,24.64L311.06,32.27L317.28,61.52L320.39,77.46L323.5,108.88L326.61,130.88L329.72,146.52L332.83,167.4L348.38,236.1L351.49,242.74L354.6,246.23L357.71,248.55L363.93,255.94L367.05,257.62L373.27,263.51L376.38,268.76L379.49,270.56L382.6,274.5L385.71,277.54L388.82,281.87L395.04,286.1L398.15,286.2L401.26,290.17L404.37,290.08L407.48,295.25L410.59,291.93L413.7,297.31L416.81,297.75L423.04,301.58L426.15,303.17L429.26,302.64L432.37,306.16L435.48,308.86L438.59,309.03L441.7,309.64L444.81,311.03L447.92,313.66L451.03,315.22L454.14,316.41L457.25,316.04L460.36,318.55L463.47,317.99L469.69,320.39L472.8,322.38L475.91,322.24L479.03,324.35L482.14,324.39L485.25,325.28L488.36,326.11L491.47,325.72L494.58,327.89L497.69,328.76L500.8,328.36L503.91,329.19L519.46,333.34L522.57,333.2L525.68,334.9L528.79,335.1L531.9,335.39L535.02,334.76L541.24,337.2L544.35,337.09L553.68,339.23L556.79,339.1L566.12,338.8L569.23,339.67L572.34,340.23L575.45,339.43L581.67,340.86L584.78,340.67L587.89,343.01L591.01,341.14L594.12,340.88L597.23,341.52L600.34,342.95L603.45,342.39L609.67,342.79L612.78,343.29L615.89,344.58L619,343.22" style="vector-effect: non-scaling-stroke; fill: none; stroke: rgb(255, 127, 14); stroke-opacity: 1; stroke-width: 2px; opacity: 1;"/></g><g class="points"/><g class="text"/></g><g class="trace scatter traceceb8dd" style="stroke-miterlimit: 2; opacity: 1;"><g class="fills"/><g class="errorbars"/><g class="lines"><path class="js-line" d="M0,175.98L3.11,413.25L6.22,413.25L9.33,232.57L12.44,347.16L31.11,325.43L34.22,321.86L40.44,315.8L43.55,314.48L49.77,308.88L52.88,306.14L55.99,302.62L59.1,300.74L62.21,297.86L65.32,296.06L68.43,294.24L71.54,290.97L74.65,290.15L77.76,287.96L87.1,280.44L90.21,278.36L93.32,274.82L96.43,273.8L105.76,265L108.87,263.53L111.98,262.74L115.09,260.25L118.2,255.61L121.31,254.57L124.42,250.62L127.53,249.3L130.64,248.24L133.75,243.83L143.09,236.78L146.2,233.06L152.42,227.74L155.53,226.85L161.75,220.82L164.86,215.88L174.19,208.2L177.3,206L183.52,200.24L186.63,195.96L189.74,196.26L192.85,189.49L195.96,186.22L199.08,181.06L202.19,180.22L205.3,177.13L220.85,157.99L223.96,152.77L227.07,149.66L230.18,148.67L239.51,132.71L242.62,128.69L245.73,127.87L248.84,124.99L255.07,112.83L258.18,111.06L261.29,104.59L264.4,100.74L270.62,93.02L273.73,84.19L276.84,82.08L279.95,75.88L283.06,69.91L286.17,66.34L289.28,59.9L292.39,56.72L295.5,47.24L298.61,44.93L301.72,40.17L304.83,33.32L307.94,24.64L311.06,27.54L320.39,75.42L323.5,105.68L332.83,160.89L335.94,177.53L342.16,209.18L345.27,218.63L348.38,231.85L351.49,237.86L357.71,246.2L360.82,247.55L363.93,253.57L367.05,253.79L373.27,259.93L376.38,263.94L382.6,269.2L385.71,273.48L391.93,279.31L395.04,282.14L398.15,283.26L401.26,286.57L407.48,287.96L410.59,290.92L416.81,292.71L419.92,294.84L423.04,296.17L426.15,298.37L429.26,298.81L432.37,302.03L447.92,307.01L451.03,310L454.14,311.28L457.25,310.86L460.36,312.25L463.47,312.71L466.58,313.61L469.69,315.43L472.8,315.13L475.91,317.34L479.03,318.27L482.14,318.1L488.36,321.43L491.47,321.55L497.69,323.11L500.8,322.04L503.91,324.69L507.02,325.22L510.13,325.38L513.24,327.26L516.35,325.77L519.46,327.14L522.57,327.5L525.68,328.88L528.79,327.26L531.9,328.63L538.13,330.15L541.24,331.17L544.35,330.74L547.46,331.45L553.68,333.22L556.79,332.04L559.9,332.97L563.01,332.53L566.12,334.94L569.23,333.94L572.34,334.58L575.45,333.44L578.56,333.31L581.67,334.71L587.89,335.53L591.01,335.09L594.12,335.4L597.23,336.94L600.34,335.98L603.45,337.57L606.56,337.57L609.67,336.22L612.78,337.31L615.89,337.36L619,337.03" style="vector-effect: non-scaling-stroke; fill: none; stroke: rgb(44, 160, 44); stroke-opacity: 1; stroke-width: 2px; opacity: 1;"/></g><g class="points"/><g class="text"/></g><g class="trace scatter trace3b122b" style="stroke-miterlimit: 2; opacity: 1;"><g class="fills"/><g class="errorbars"/><g class="lines"><path class="js-line" d="M0,175.96L3.11,413.25L6.22,413.25L9.33,232.57L12.44,347.16L31.11,325.43L34.22,321.86L40.44,315.8L43.55,314.48L49.77,308.88L52.88,306.14L55.99,302.62L59.1,300.74L62.21,297.86L65.32,296.06L68.43,294.24L71.54,290.97L74.65,290.15L77.76,287.96L87.1,280.44L90.21,278.36L93.32,274.82L96.43,273.8L105.76,265L108.87,263.53L111.98,262.74L115.09,260.25L118.2,255.61L121.31,254.57L124.42,250.62L127.53,249.3L130.64,248.24L133.75,243.83L143.09,236.78L146.2,233.06L152.42,227.74L155.53,226.85L161.75,220.82L164.86,215.88L174.19,208.2L177.3,206L183.52,200.24L186.63,195.96L189.74,196.26L192.85,189.49L195.96,186.22L199.08,181.06L202.19,180.22L205.3,177.13L220.85,157.99L223.96,152.77L227.07,149.66L230.18,148.67L239.51,132.71L242.62,128.69L245.73,127.87L248.84,124.99L255.07,112.83L258.18,111.06L261.29,104.59L264.4,100.74L270.62,93.02L273.73,84.19L276.84,82.08L279.95,75.88L283.06,69.91L286.17,66.34L289.28,59.9L292.39,56.72L295.5,47.24L298.61,44.93L301.72,40.17L304.83,33.32L307.94,24.64L311.06,27.28L314.17,34.97L317.28,54.23L320.39,69.41L323.5,96.86L332.83,154.65L335.94,169.65L342.16,199.42L345.27,210.43L348.38,223.46L351.49,231.44L357.71,238.99L360.82,241.64L363.93,244.22L367.05,245.11L370.16,246.75L373.27,250.2L376.38,252.81L379.49,257.08L388.82,267.45L391.93,270.11L395.04,272.49L398.15,273.03L404.37,276.94L407.48,280.94L413.7,282.78L416.81,284.97L423.04,286.93L426.15,290.13L429.26,289.53L432.37,290.64L435.48,293.41L438.59,294.8L444.81,297.48L447.92,299.22L451.03,298.2L454.14,301.3L457.25,301.07L460.36,302.29L466.58,304.76L469.69,304.78L479.03,307.44L482.14,310.73L488.36,310.21L491.47,310.27L494.58,311.94L497.69,310.99L503.91,313.32L507.02,312.97L510.13,316.44L513.24,314.05L525.68,314.65L528.79,316.97L531.9,315.19L535.02,315.34L544.35,317.89L547.46,317.11L550.57,317.36L553.68,316.47L556.79,318.82L559.9,318.93L563.01,318.5L566.12,319.48L569.23,317.49L572.34,318.67L575.45,317.31L578.56,320.19L581.67,319.21L584.78,320.68L591.01,320.76L594.12,318.4L597.23,320.53L600.34,320.22L603.45,318.59L606.56,321.68L615.89,318.86L619,321.47" style="vector-effect: non-scaling-stroke; fill: none; stroke: rgb(214, 39, 40); stroke-opacity: 1; stroke-width: 2px; opacity: 1;"/></g><g class="points"/><g class="text"/></g><g class="trace scatter traceb3ca46" style="stroke-miterlimit: 2; opacity: 1;"><g class="fills"/><g class="errorbars"/><g class="lines"><path class="js-line" d="M0,175.87L3.11,413.25L6.22,413.25L9.33,232.57L12.44,347.16L31.11,325.43L34.22,321.86L40.44,315.8L43.55,314.48L49.77,308.88L52.88,306.14L55.99,302.62L59.1,300.74L62.21,297.86L65.32,296.06L68.43,294.24L71.54,290.97L74.65,290.15L77.76,287.96L87.1,280.44L90.21,278.36L93.32,274.82L96.43,273.8L105.76,265L108.87,263.53L111.98,262.74L115.09,260.25L118.2,255.61L121.31,254.57L124.42,250.62L127.53,249.3L130.64,248.24L133.75,243.83L143.09,236.78L146.2,233.06L152.42,227.74L155.53,226.85L161.75,220.82L164.86,215.88L174.19,208.2L177.3,206L183.52,200.24L186.63,195.96L189.74,196.26L192.85,189.49L195.96,186.22L199.08,181.06L202.19,180.22L205.3,177.13L220.85,157.99L223.96,152.77L227.07,149.66L230.18,148.67L239.51,132.71L242.62,128.69L245.73,127.87L248.84,124.99L255.07,112.83L258.18,111.06L261.29,104.59L264.4,100.74L270.62,93.02L273.73,84.19L276.84,82.08L279.95,75.88L283.06,69.91L286.17,66.34L289.28,59.9L292.39,56.72L295.5,47.24L298.61,44.93L301.72,40.17L304.83,33.32L307.94,24.64L311.06,21.75L314.17,25.27L317.28,35.91L323.5,77.1L326.61,98.91L335.94,153.03L339.05,165.72L348.38,207.74L351.49,216.19L354.6,221.99L357.71,222.74L360.82,226.85L363.93,227.78L367.05,229.86L370.16,230.1L373.27,235.07L376.38,235L379.49,239.93L382.6,240.76L391.93,252.49L395.04,254.98L398.15,255.42L401.26,258.12L407.48,260.22L410.59,260.19L413.7,260.84L416.81,263.54L426.15,267.39L429.26,268.35L432.37,271.45L435.48,270.99L438.59,273.76L441.7,274.53L447.92,274.24L451.03,275.37L454.14,278.5L457.25,278.55L463.47,280.81L466.58,278.04L472.8,283.33L475.91,281.9L482.14,282.85L485.25,285.65L488.36,284.02L491.47,285.7L497.69,285.12L500.8,286.7L507.02,288.66L510.13,288.35L513.24,287.53L516.35,290.66L522.57,287.56L525.68,288.7L528.79,287.56L531.9,288.06L538.13,289.66L541.24,289.02L544.35,289.9L547.46,292.01L550.57,289.95L553.68,290.36L556.79,288.99L559.9,290.26L563.01,288.52L566.12,288.11L569.23,290.26L572.34,289.17L575.45,288.33L578.56,290.01L581.67,288.88L584.78,289.36L591.01,287.22L594.12,287.03L597.23,286.07L600.34,287.35L603.45,286.04L606.56,286.07L609.67,286.47L612.78,284.82L615.89,284.69L619,287.09" style="vector-effect: non-scaling-stroke; fill: none; stroke: rgb(148, 103, 189); stroke-opacity: 1; stroke-width: 2px; opacity: 1;"/></g><g class="points"/><g class="text"/></g><g class="trace scatter trace6dff93" style="stroke-miterlimit: 2; opacity: 1;"><g class="fills"/><g class="errorbars"/><g class="lines"><path class="js-line" d="M0,175.78L3.11,413.25L6.22,413.25L9.33,232.57L12.44,347.16L31.11,325.43L34.22,321.86L40.44,315.8L43.55,314.48L49.77,308.88L52.88,306.14L55.99,302.62L59.1,300.74L62.21,297.86L65.32,296.06L68.43,294.24L71.54,290.97L74.65,290.15L77.76,287.96L87.1,280.44L90.21,278.36L93.32,274.82L96.43,273.8L105.76,265L108.87,263.53L111.98,262.74L115.09,260.25L118.2,255.61L121.31,254.57L124.42,250.62L127.53,249.3L130.64,248.24L133.75,243.83L143.09,236.78L146.2,233.06L152.42,227.74L155.53,226.85L161.75,220.82L164.86,215.88L174.19,208.2L177.3,206L183.52,200.24L186.63,195.96L189.74,196.26L192.85,189.49L195.96,186.22L199.08,181.06L202.19,180.22L205.3,177.13L220.85,157.99L223.96,152.77L227.07,149.66L230.18,148.67L239.51,132.71L242.62,128.69L245.73,127.87L248.84,124.99L255.07,112.83L258.18,111.06L261.29,104.59L264.4,100.74L270.62,93.02L273.73,84.19L276.84,82.08L279.95,75.88L283.06,69.91L286.17,66.34L289.28,59.9L292.39,56.72L295.5,47.24L298.61,44.93L301.72,40.17L304.83,33.32L307.94,24.64L311.06,21.91L314.17,23.97L317.28,30.16L320.39,39.11L323.5,64.85L335.94,136.68L339.05,150.29L348.38,189.85L351.49,197.93L354.6,208.33L357.71,210.07L360.82,212.7L363.93,213.01L367.05,213.36L370.16,214.76L373.27,216.02L376.38,218.34L382.6,223.27L385.71,228.78L388.82,228.53L391.93,229.97L401.26,238.38L404.37,238.01L407.48,241.19L410.59,239.73L419.92,245.4L423.04,247.58L426.15,248.43L429.26,246.43L432.37,249.6L435.48,249.01L441.7,252.15L444.81,252.07L447.92,253.57L451.03,251.83L454.14,255.12L457.25,255.63L460.36,257.56L463.47,256.84L466.58,257.41L469.69,256.87L472.8,256L475.91,256.82L479.03,260.4L482.14,260.58L485.25,258.84L488.36,260.45L491.47,259.89L494.58,261.48L500.8,261.39L503.91,262.56L507.02,262.24L510.13,259.91L516.35,261.16L519.46,262.38L525.68,259.58L528.79,261.21L531.9,258.73L535.02,259.66L538.13,260.27L541.24,258.43L547.46,259.45L550.57,259.78L553.68,260.38L556.79,257.7L559.9,258.61L563.01,258.27L566.12,257.88L569.23,258.6L572.34,258.74L575.45,257.81L581.67,254.46L584.78,253.98L587.89,252.18L591.01,252.85L597.23,251.05L600.34,250.19L606.56,249.94L609.67,247.45L612.78,249.47L615.89,246.83L619,249.41" style="vector-effect: non-scaling-stroke; fill: none; stroke: rgb(140, 86, 75); stroke-opacity: 1; stroke-width: 2px; opacity: 1;"/></g><g class="points"/><g class="text"/></g></g></g><g class="overplot"/><path class="xlines-above crisp" style="fill: none;" d="M0,0"/><path class="ylines-above crisp" style="fill: none;" d="M0,0"/><g class="overlines-above"/><g class="xaxislayer-above"><g class="xtick"><text text-anchor="middle" x="0" y="473" transform="translate(212.42,0)" style="font-family: 'Open Sans', verdana, arial, sans-serif; font-size: 12px; fill: rgb(68, 68, 68); fill-opacity: 1; white-space: pre;">50</text></g><g class="xtick"><text text-anchor="middle" x="0" y="473" transform="translate(367.94,0)" style="font-family: 'Open Sans', verdana, arial, sans-serif; font-size: 12px; fill: rgb(68, 68, 68); fill-opacity: 1; white-space: pre;">100</text></g><g class="xtick"><text text-anchor="middle" x="0" y="473" transform="translate(523.47,0)" style="font-family: 'Open Sans', verdana, arial, sans-serif; font-size: 12px; fill: rgb(68, 68, 68); fill-opacity: 1; white-space: pre;">150</text></g><g class="xtick"><text text-anchor="middle" x="0" y="473" transform="translate(679,0)" style="font-family: 'Open Sans', verdana, arial, sans-serif; font-size: 12px; fill: rgb(68, 68, 68); fill-opacity: 1; white-space: pre;">200</text></g></g><g class="yaxislayer-above"><g class="ytick"><text text-anchor="end" x="59" y="4.199999999999999" transform="translate(0,438.25)" style="font-family: 'Open Sans', verdana, arial, sans-serif; font-size: 12px; fill: rgb(68, 68, 68); fill-opacity: 1; white-space: pre;">0</text></g><g class="ytick"><text text-anchor="end" x="59" y="4.199999999999999" transform="translate(0,359.76)" style="font-family: 'Open Sans', verdana, arial, sans-serif; font-size: 12px; fill: rgb(68, 68, 68); fill-opacity: 1; white-space: pre;">50</text></g><g class="ytick"><text text-anchor="end" x="59" y="4.199999999999999" transform="translate(0,281.26)" style="font-family: 'Open Sans', verdana, arial, sans-serif; font-size: 12px; fill: rgb(68, 68, 68); fill-opacity: 1; white-space: pre;">100</text></g><g class="ytick"><text text-anchor="end" x="59" y="4.199999999999999" transform="translate(0,202.77)" style="font-family: 'Open Sans', verdana, arial, sans-serif; font-size: 12px; fill: rgb(68, 68, 68); fill-opacity: 1; white-space: pre;">150</text></g><g class="ytick"><text text-anchor="end" x="59" y="4.199999999999999" transform="translate(0,124.27)" style="font-family: 'Open Sans', verdana, arial, sans-serif; font-size: 12px; fill: rgb(68, 68, 68); fill-opacity: 1; white-space: pre;">200</text></g><g class="ytick"><text text-anchor="end" x="59" y="4.199999999999999" transform="translate(0,45.78)" style="font-family: 'Open Sans', verdana, arial, sans-serif; font-size: 12px; fill: rgb(68, 68, 68); fill-opacity: 1; white-space: pre;">250</text></g></g><g class="overaxes-above"/></g></g><g class="polarlayer"/><g class="ternarylayer"/><g class="geolayer"/><g class="funnelarealayer"/><g class="pielayer"/><g class="treemaplayer"/><g class="sunburstlayer"/><g class="glimages"/><defs id="topdefs-276655"><g class="clips"/><clipPath id="legend276655"><rect width="117" height="140" x="0" y="0"/></clipPath></defs><g class="layer-above"><g class="imagelayer"/><g class="shapelayer"/></g><g class="infolayer"><g class="legend" pointer-events="all" transform="translate(90.95, 46.750000000000014)"><rect class="bg" shape-rendering="crispEdges" style="stroke: rgb(68, 68, 68); stroke-opacity: 1; fill: rgb(226, 226, 226); fill-opacity: 1; stroke-width: 0px;" width="117" height="140" x="0" y="0"/><g class="scrollbox" transform="translate(0, 0)" clip-path="url('#legend276655')"><text class="legendtitletext user-select-none" text-anchor="start" x="2" y="15.600000000000001" style="font-family: 'Open Sans', verdana, arial, sans-serif; font-size: 12px; fill: rgb(68, 68, 68); fill-opacity: 1; white-space: pre;"><tspan style="font-weight:bold"> Identification Time </tspan></text><g class="groups"><g class="traces" transform="translate(0, 30.1)" style="opacity: 1;"><text class="legendtext user-select-none" text-anchor="start" x="40" y="4.680000000000001" style="font-family: 'Open Sans', verdana, arial, sans-serif; font-size: 12px; fill: rgb(68, 68, 68); fill-opacity: 1; white-space: pre;">0 Months</text><g class="layers" style="opacity: 1;"><g class="legendfill"/><g class="legendlines"><path class="js-line" d="M5,0h30" style="fill: none; stroke: rgb(31, 119, 180); stroke-opacity: 1; stroke-width: 2px;"/></g><g class="legendsymbols"><g class="legendpoints"/></g></g><rect class="legendtoggle" pointer-events="all" x="0" y="-9.5" width="98.046875" height="19" style="cursor: pointer; fill: rgb(0, 0, 0); fill-opacity: 0;"/></g><g class="traces" transform="translate(0, 49.1)" style="opacity: 1;"><text class="legendtext user-select-none" text-anchor="start" x="40" y="4.680000000000001" style="font-family: 'Open Sans', verdana, arial, sans-serif; font-size: 12px; fill: rgb(68, 68, 68); fill-opacity: 1; white-space: pre;">3 Months</text><g class="layers" style="opacity: 1;"><g class="legendfill"/><g class="legendlines"><path class="js-line" d="M5,0h30" style="fill: none; stroke: rgb(255, 127, 14); stroke-opacity: 1; stroke-width: 2px;"/></g><g class="legendsymbols"><g class="legendpoints"/></g></g><rect class="legendtoggle" pointer-events="all" x="0" y="-9.5" width="98.046875" height="19" style="cursor: pointer; fill: rgb(0, 0, 0); fill-opacity: 0;"/></g><g class="traces" transform="translate(0, 68.1)" style="opacity: 1;"><text class="legendtext user-select-none" text-anchor="start" x="40" y="4.680000000000001" style="font-family: 'Open Sans', verdana, arial, sans-serif; font-size: 12px; fill: rgb(68, 68, 68); fill-opacity: 1; white-space: pre;">6 Months</text><g class="layers" style="opacity: 1;"><g class="legendfill"/><g class="legendlines"><path class="js-line" d="M5,0h30" style="fill: none; stroke: rgb(44, 160, 44); stroke-opacity: 1; stroke-width: 2px;"/></g><g class="legendsymbols"><g class="legendpoints"/></g></g><rect class="legendtoggle" pointer-events="all" x="0" y="-9.5" width="98.046875" height="19" style="cursor: pointer; fill: rgb(0, 0, 0); fill-opacity: 0;"/></g><g class="traces" transform="translate(0, 87.1)" style="opacity: 1;"><text class="legendtext user-select-none" text-anchor="start" x="40" y="4.680000000000001" style="font-family: 'Open Sans', verdana, arial, sans-serif; font-size: 12px; fill: rgb(68, 68, 68); fill-opacity: 1; white-space: pre;">12 Months</text><g class="layers" style="opacity: 1;"><g class="legendfill"/><g class="legendlines"><path class="js-line" d="M5,0h30" style="fill: none; stroke: rgb(214, 39, 40); stroke-opacity: 1; stroke-width: 2px;"/></g><g class="legendsymbols"><g class="legendpoints"/></g></g><rect class="legendtoggle" pointer-events="all" x="0" y="-9.5" width="98.046875" height="19" style="cursor: pointer; fill: rgb(0, 0, 0); fill-opacity: 0;"/></g><g class="traces" transform="translate(0, 106.1)" style="opacity: 1;"><text class="legendtext user-select-none" text-anchor="start" x="40" y="4.680000000000001" style="font-family: 'Open Sans', verdana, arial, sans-serif; font-size: 12px; fill: rgb(68, 68, 68); fill-opacity: 1; white-space: pre;">24 Months</text><g class="layers" style="opacity: 1;"><g class="legendfill"/><g class="legendlines"><path class="js-line" d="M5,0h30" style="fill: none; stroke: rgb(148, 103, 189); stroke-opacity: 1; stroke-width: 2px;"/></g><g class="legendsymbols"><g class="legendpoints"/></g></g><rect class="legendtoggle" pointer-events="all" x="0" y="-9.5" width="98.046875" height="19" style="cursor: pointer; fill: rgb(0, 0, 0); fill-opacity: 0;"/></g><g class="traces" transform="translate(0, 125.1)" style="opacity: 1;"><text class="legendtext user-select-none" text-anchor="start" x="40" y="4.680000000000001" style="font-family: 'Open Sans', verdana, arial, sans-serif; font-size: 12px; fill: rgb(68, 68, 68); fill-opacity: 1; white-space: pre;">36 Months</text><g class="layers" style="opacity: 1;"><g class="legendfill"/><g class="legendlines"><path class="js-line" d="M5,0h30" style="fill: none; stroke: rgb(140, 86, 75); stroke-opacity: 1; stroke-width: 2px;"/></g><g class="legendsymbols"><g class="legendpoints"/></g></g><rect class="legendtoggle" pointer-events="all" x="0" y="-9.5" width="98.046875" height="19" style="cursor: pointer; fill: rgb(0, 0, 0); fill-opacity: 0;"/></g></g></g><rect class="scrollbar" rx="20" ry="3" width="0" height="0" style="fill: rgb(128, 139, 164); fill-opacity: 1;" x="0" y="0"/></g><g class="g-gtitle"><text class="gtitle" x="350" y="12.5" text-anchor="middle" dy="0em" style="font-family: 'Open Sans', verdana, arial, sans-serif; font-size: 17px; fill: rgb(68, 68, 68); opacity: 1; font-weight: normal; white-space: pre;"><tspan style="font-weight:bold"> Leprosy Incidence - Immunity Vaccine 0.5, Treatment 50% </tspan></text></g><g class="g-xtitle" transform="translate(0,-15)"><text class="xtitle" x="369.5" y="512" text-anchor="middle" style="font-family: 'Open Sans', verdana, arial, sans-serif; font-size: 14px; fill: rgb(68, 68, 68); opacity: 1; font-weight: normal; white-space: pre;">Time(Years)</text></g><g class="g-ytitle"><text class="ytitle" transform="rotate(-90,22,242.5)" x="22" y="242.5" text-anchor="middle" style="font-family: 'Open Sans', verdana, arial, sans-serif; font-size: 14px; fill: rgb(68, 68, 68); opacity: 1; font-weight: normal; white-space: pre;">Number of new infectiuos individuals</text></g></g></svg>