<svg class="main-svg" xmlns="http://www.w3.org/2000/svg" xmlns:xlink="http://www.w3.org/1999/xlink" width="700" height="500" style="" viewBox="0 0 700 500"><rect x="0" y="0" width="700" height="500" style="fill: rgb(255, 255, 255); fill-opacity: 1;"/><defs id="defs-746b02"><g class="clips"><clipPath id="clip746b02xyplot" class="plotclip"><rect width="619" height="435"/></clipPath><clipPath class="axesclip" id="clip746b02x"><rect x="60" y="0" width="619" height="500"/></clipPath><clipPath class="axesclip" id="clip746b02y"><rect x="0" y="25" width="700" height="435"/></clipPath><clipPath class="axesclip" id="clip746b02xy"><rect x="60" y="25" width="619" height="435"/></clipPath></g><g class="gradients"/></defs><g class="bglayer"/><g class="layer-below"><g class="imagelayer"/><g class="shapelayer"/></g><g class="cartesianlayer"><g class="subplot xy"><g class="layer-subplot"><g class="shapelayer"/><g class="imagelayer"/></g><g class="gridlayer"><g class="x"><path class="xgrid crisp" transform="translate(212.42,0)" d="M0,25v435" style="stroke: rgb(238, 238, 238); stroke-opacity: 1; stroke-width: 1px;"/><path class="xgrid crisp" transform="translate(367.94,0)" d="M0,25v435" style="stroke: rgb(238, 238, 238); stroke-opacity: 1; stroke-width: 1px;"/><path class="xgrid crisp" transform="translate(523.47,0)" d="M0,25v435" style="stroke: rgb(238, 238, 238); stroke-opacity: 1; stroke-width: 1px;"/></g><g class="y"><path class="ygrid crisp" transform="translate(0,359.76)" d="M60,0h619" style="stroke: rgb(238, 238, 238); stroke-opacity: 1; stroke-width: 1px;"/><path class="ygrid crisp" transform="translate(0,281.26)" d="M60,0h619" style="stroke: rgb(238, 238, 238); stroke-opacity: 1; stroke-width: 1px;"/><path class="ygrid crisp" transform="translate(0,202.77)" d="M60,0h619" style="stroke: rgb(238, 238, 238); stroke-opacity: 1; stroke-width: 1px;"/><path class="ygrid crisp" transform="translate(0,124.27)" d="M60,0h619" style="stroke: rgb(238, 238, 238); stroke-opacity: 1; stroke-width: 1px;"/><path class="ygrid crisp" transform="translate(0,45.78)" d="M60,0h619" style="stroke: rgb(238, 238, 238); stroke-opacity: 1; stroke-width: 1px;"/></g></g><g class="zerolinelayer"><path class="yzl zl crisp" transform="translate(0,438.25)" d="M60,0h619" style="stroke: rgb(68, 68, 68); stroke-opacity: 1; stroke-width: 1px;"/></g><path class="xlines-below"/><path class="ylines-below"/><g class="overlines-below"/><g class="xaxislayer-below"/><g class="yaxislayer-below"/><g class="overaxes-below"/><g class="plot" transform="translate(60, 25)" clip-path="url('#clip746b02xyplot')"><g class="scatterlayer mlayer"><g class="trace scatter trace8ef5ed" style="stroke-miterlimit: 2; opacity: 1;"><g class="fills"/><g class="errorbars"/><g class="lines"><path class="js-line" d="M0,176.17L3.11,413.25L6.22,413.25L9.33,232.57L12.44,347.16L31.11,325.43L34.22,321.86L40.44,315.8L43.55,314.48L49.77,308.88L52.88,306.14L55.99,302.62L59.1,300.74L62.21,297.86L65.32,296.06L68.43,294.24L71.54,290.97L74.65,290.15L77.76,287.96L87.1,280.44L90.21,278.36L93.32,274.82L96.43,273.8L105.76,265L108.87,263.53L111.98,262.74L115.09,260.25L118.2,255.61L121.31,254.57L124.42,250.62L127.53,249.3L130.64,248.24L133.75,243.83L143.09,236.78L146.2,233.06L152.42,227.74L155.53,226.85L161.75,220.82L164.86,215.88L174.19,208.2L177.3,206L183.52,200.24L186.63,195.96L189.74,196.26L192.85,189.49L195.96,186.22L199.08,181.06L202.19,180.22L205.3,177.13L220.85,157.99L223.96,152.77L227.07,149.66L230.18,148.67L239.51,132.71L242.62,128.69L245.73,127.87L248.84,124.99L255.07,112.83L258.18,111.06L261.29,104.59L264.4,100.74L270.62,93.02L273.73,84.19L276.84,82.08L279.95,75.88L283.06,69.91L286.17,66.34L289.28,59.9L292.39,56.72L295.5,47.24L298.61,44.93L301.72,40.17L304.83,33.32L307.94,24.64L311.06,33.94L317.28,62.25L320.39,81.15L323.5,128.17L326.61,149.19L332.83,186.97L335.94,203.33L345.27,249.43L348.38,263.08L351.49,269.64L354.6,274.27L357.71,280.58L360.82,283.12L363.93,287.35L367.05,289.36L370.16,294.83L373.27,297.07L379.49,308.3L382.6,311.54L391.93,324.08L395.04,327.79L398.15,327.34L401.26,330.12L404.37,334.5L407.48,336.32L413.7,341.76L416.81,342.88L423.04,347.65L426.15,350.3L429.26,352.31L432.37,355.55L435.48,355.3L438.59,356.08L441.7,359.27L444.81,360.82L447.92,361.42L451.03,363.31L457.25,365.51L460.36,368.17L463.47,368.52L466.58,370.34L469.69,370.74L472.8,372.63L479.03,375.25L482.14,376.11L485.25,377.16L488.36,377.31L491.47,377.92L494.58,379.7L510.13,382.68L513.24,384.47L516.35,385.71L519.46,385.27L525.68,386.42L528.79,388.27L531.9,386.99L535.02,388.76L553.68,390.98L556.79,391.04L559.9,392.57L563.01,392.4L578.56,394.56L581.67,394.5L584.78,395.22L587.89,395.09L591.01,396.12L594.12,395.85L597.23,396.99L600.34,396.41L603.45,397.57L606.56,397.35L609.67,397.79L612.78,397.14L619,398.5" style="vector-effect: non-scaling-stroke; fill: none; stroke: rgb(31, 119, 180); stroke-opacity: 1; stroke-width: 2px; opacity: 1;"/></g><g class="points"/><g class="text"/></g><g class="trace scatter trace7a09cb" style="stroke-miterlimit: 2; opacity: 1;"><g class="fills"/><g class="errorbars"/><g class="lines"><path class="js-line" d="M0,176.13L3.11,413.25L6.22,413.25L9.33,232.57L12.44,347.16L31.11,325.43L34.22,321.86L40.44,315.8L43.55,314.48L49.77,308.88L52.88,306.14L55.99,302.62L59.1,300.74L62.21,297.86L65.32,296.06L68.43,294.24L71.54,290.97L74.65,290.15L77.76,287.96L87.1,280.44L90.21,278.36L93.32,274.82L96.43,273.8L105.76,265L108.87,263.53L111.98,262.74L115.09,260.25L118.2,255.61L121.31,254.57L124.42,250.62L127.53,249.3L130.64,248.24L133.75,243.83L143.09,236.78L146.2,233.06L152.42,227.74L155.53,226.85L161.75,220.82L164.86,215.88L174.19,208.2L177.3,206L183.52,200.24L186.63,195.96L189.74,196.26L192.85,189.49L195.96,186.22L199.08,181.06L202.19,180.22L205.3,177.13L220.85,157.99L223.96,152.77L227.07,149.66L230.18,148.67L239.51,132.71L242.62,128.69L245.73,127.87L248.84,124.99L255.07,112.83L258.18,111.06L261.29,104.59L264.4,100.74L270.62,93.02L273.73,84.19L276.84,82.08L279.95,75.88L283.06,69.91L286.17,66.34L289.28,59.9L292.39,56.72L295.5,47.24L298.61,44.93L301.72,40.17L304.83,33.32L307.94,24.64L311.06,32.27L320.39,76.4L323.5,122.37L329.72,165.74L332.83,185.35L342.16,232.8L345.27,245.73L351.49,267.95L354.6,273.54L360.82,283.18L363.93,285.76L370.16,291.61L373.27,297.69L385.71,315.31L388.82,319.72L391.93,322.9L395.04,323.98L401.26,330.47L404.37,331.64L407.48,333.51L410.59,338.1L413.7,340.07L416.81,343.08L419.92,342.62L423.04,345.55L426.15,349.03L429.26,349.93L432.37,352.33L435.48,352.61L444.81,358.74L447.92,359.13L451.03,360.81L454.14,361.52L460.36,364.08L463.47,366.58L466.58,366.9L469.69,369.47L472.8,370.09L475.91,372.21L479.03,371.94L482.14,373.99L485.25,374.5L488.36,376.15L494.58,377.28L497.69,379.14L500.8,379.14L503.91,380.01L507.02,381.04L510.13,380.89L513.24,381.4L516.35,383.22L519.46,383.29L522.57,384.19L528.79,384.9L531.9,386.08L538.13,386.98L541.24,387.91L544.35,388.77L547.46,388.81L550.57,389.95L553.68,389.6L556.79,390.41L559.9,389.56L563.01,391.17L566.12,390.71L575.45,392.99L578.56,392.79L584.78,393.64L587.89,392.74L594.12,395.03L597.23,395.13L603.45,395.78L606.56,395.78L609.67,395.75L612.78,396.85L619,396.55" style="vector-effect: non-scaling-stroke; fill: none; stroke: rgb(255, 127, 14); stroke-opacity: 1; stroke-width: 2px; opacity: 1;"/></g><g class="points"/><g class="text"/></g><g class="trace scatter trace068932" style="stroke-miterlimit: 2; opacity: 1;"><g class="fills"/><g class="errorbars"/><g class="lines"><path class="js-line" d="M0,176.14L3.11,413.25L6.22,413.25L9.33,232.57L12.44,347.16L31.11,325.43L34.22,321.86L40.44,315.8L43.55,314.48L49.77,308.88L52.88,306.14L55.99,302.62L59.1,300.74L62.21,297.86L65.32,296.06L68.43,294.24L71.54,290.97L74.65,290.15L77.76,287.96L87.1,280.44L90.21,278.36L93.32,274.82L96.43,273.8L105.76,265L108.87,263.53L111.98,262.74L115.09,260.25L118.2,255.61L121.31,254.57L124.42,250.62L127.53,249.3L130.64,248.24L133.75,243.83L143.09,236.78L146.2,233.06L152.42,227.74L155.53,226.85L161.75,220.82L164.86,215.88L174.19,208.2L177.3,206L183.52,200.24L186.63,195.96L189.74,196.26L192.85,189.49L195.96,186.22L199.08,181.06L202.19,180.22L205.3,177.13L220.85,157.99L223.96,152.77L227.07,149.66L230.18,148.67L239.51,132.71L242.62,128.69L245.73,127.87L248.84,124.99L255.07,112.83L258.18,111.06L261.29,104.59L264.4,100.74L270.62,93.02L273.73,84.19L276.84,82.08L279.95,75.88L283.06,69.91L286.17,66.34L289.28,59.9L292.39,56.72L295.5,47.24L298.61,44.93L301.72,40.17L304.83,33.32L307.94,24.64L311.06,27.54L320.39,75.09L323.5,120.86L335.94,197.4L339.05,213.32L345.27,243.73L348.38,257.74L354.6,268.73L357.71,274.83L367.05,284.93L370.16,290.03L376.38,298.36L379.49,301.65L382.6,306.91L385.71,310.58L388.82,315.47L391.93,317.77L395.04,321.18L398.15,322.89L410.59,333.01L413.7,336.73L416.81,337.57L419.92,340.7L423.04,341.74L426.15,344.58L438.59,352.38L441.7,352.5L444.81,355.14L447.92,356.22L451.03,358.97L454.14,359.67L457.25,361.2L460.36,363.94L482.14,371.74L485.25,373.19L488.36,373.06L491.47,374.64L494.58,375.75L497.69,375.53L510.13,380.11L513.24,381.08L519.46,382.04L522.57,381.55L525.68,383.65L528.79,383.12L535.02,385.71L538.13,386.29L541.24,385.16L544.35,385.32L547.46,387.35L550.57,387.13L553.68,389.24L556.79,388.23L566.12,389.42L569.23,390.48L572.34,391.66L575.45,390.68L584.78,391.84L587.89,392.52L591.01,393.69L594.12,392.79L597.23,394.39L600.34,394.41L606.56,394.4L609.67,395.6L615.89,395.08L619,395.95" style="vector-effect: non-scaling-stroke; fill: none; stroke: rgb(44, 160, 44); stroke-opacity: 1; stroke-width: 2px; opacity: 1;"/></g><g class="points"/><g class="text"/></g><g class="trace scatter trace6d1cd0" style="stroke-miterlimit: 2; opacity: 1;"><g class="fills"/><g class="errorbars"/><g class="lines"><path class="js-line" d="M0,176.16L3.11,413.25L6.22,413.25L9.33,232.57L12.44,347.16L31.11,325.43L34.22,321.86L40.44,315.8L43.55,314.48L49.77,308.88L52.88,306.14L55.99,302.62L59.1,300.74L62.21,297.86L65.32,296.06L68.43,294.24L71.54,290.97L74.65,290.15L77.76,287.96L87.1,280.44L90.21,278.36L93.32,274.82L96.43,273.8L105.76,265L108.87,263.53L111.98,262.74L115.09,260.25L118.2,255.61L121.31,254.57L124.42,250.62L127.53,249.3L130.64,248.24L133.75,243.83L143.09,236.78L146.2,233.06L152.42,227.74L155.53,226.85L161.75,220.82L164.86,215.88L174.19,208.2L177.3,206L183.52,200.24L186.63,195.96L189.74,196.26L192.85,189.49L195.96,186.22L199.08,181.06L202.19,180.22L205.3,177.13L220.85,157.99L223.96,152.77L227.07,149.66L230.18,148.67L239.51,132.71L242.62,128.69L245.73,127.87L248.84,124.99L255.07,112.83L258.18,111.06L261.29,104.59L264.4,100.74L270.62,93.02L273.73,84.19L276.84,82.08L279.95,75.88L283.06,69.91L286.17,66.34L289.28,59.9L292.39,56.72L295.5,47.24L298.61,44.93L301.72,40.17L304.83,33.32L307.94,24.64L311.06,27.28L314.17,35.63L317.28,50.27L320.39,68.33L323.5,109.94L326.61,133.46L329.72,150.87L332.83,173.69L335.94,189.38L345.27,237.51L348.38,248.89L351.49,259.63L354.6,263.6L357.71,266.51L360.82,273.21L367.05,277.33L370.16,283.91L376.38,291.51L379.49,297.14L385.71,303.9L388.82,309.34L391.93,315L395.04,314.79L398.15,316.99L401.26,320.89L404.37,323.9L407.48,325.05L410.59,327.91L413.7,329.62L423.04,336.44L426.15,338.48L432.37,345.04L435.48,344.96L441.7,350.1L444.81,351.49L447.92,352.08L451.03,355.08L457.25,358.08L460.36,358.82L463.47,358.97L466.58,361.24L469.69,363.77L472.8,363.22L485.25,368.23L488.36,370.02L491.47,370.14L494.58,371.24L503.91,374.56L507.02,374.47L513.24,377.29L516.35,377.38L528.79,380.59L531.9,380.2L541.24,383.16L544.35,382.99L547.46,384.12L550.57,384.1L559.9,385.78L563.01,386.91L572.34,386.48L575.45,387.57L581.67,387.56L584.78,388.67L587.89,390.1L591.01,389.79L600.34,390.32L603.45,390.5L609.67,391.19L612.78,391.72L619,392.26" style="vector-effect: non-scaling-stroke; fill: none; stroke: rgb(214, 39, 40); stroke-opacity: 1; stroke-width: 2px; opacity: 1;"/></g><g class="points"/><g class="text"/></g><g class="trace scatter traceba2372" style="stroke-miterlimit: 2; opacity: 1;"><g class="fills"/><g class="errorbars"/><g class="lines"><path class="js-line" d="M0,176.1L3.11,413.25L6.22,413.25L9.33,232.57L12.44,347.16L31.11,325.43L34.22,321.86L40.44,315.8L43.55,314.48L49.77,308.88L52.88,306.14L55.99,302.62L59.1,300.74L62.21,297.86L65.32,296.06L68.43,294.24L71.54,290.97L74.65,290.15L77.76,287.96L87.1,280.44L90.21,278.36L93.32,274.82L96.43,273.8L105.76,265L108.87,263.53L111.98,262.74L115.09,260.25L118.2,255.61L121.31,254.57L124.42,250.62L127.53,249.3L130.64,248.24L133.75,243.83L143.09,236.78L146.2,233.06L152.42,227.74L155.53,226.85L161.75,220.82L164.86,215.88L174.19,208.2L177.3,206L183.52,200.24L186.63,195.96L189.74,196.26L192.85,189.49L195.96,186.22L199.08,181.06L202.19,180.22L205.3,177.13L220.85,157.99L223.96,152.77L227.07,149.66L230.18,148.67L239.51,132.71L242.62,128.69L245.73,127.87L248.84,124.99L255.07,112.83L258.18,111.06L261.29,104.59L264.4,100.74L270.62,93.02L273.73,84.19L276.84,82.08L279.95,75.88L283.06,69.91L286.17,66.34L289.28,59.9L292.39,56.72L295.5,47.24L298.61,44.93L301.72,40.17L304.83,33.32L307.94,24.64L311.06,21.75L314.17,26.78L317.28,35.6L320.39,54.12L323.5,94.56L335.94,177.11L339.05,192.47L342.16,205.69L345.27,223.14L351.49,245.4L354.6,253.51L360.82,260.99L363.93,263.22L376.38,280.1L379.49,283.86L382.6,287.56L385.71,292.67L391.93,301.08L395.04,304.99L401.26,311.86L404.37,312.9L407.48,313.5L410.59,317.97L416.81,321.65L419.92,323.84L423.04,325.29L426.15,328.63L429.26,330.48L432.37,333.66L435.48,334.11L438.59,337.94L441.7,340.09L444.81,341.23L447.92,344.45L451.03,345.17L460.36,348.91L463.47,351.46L466.58,350.97L469.69,353.52L472.8,353.01L475.91,355.63L479.03,356.21L482.14,357.63L485.25,359.19L488.36,359.61L494.58,362.17L497.69,361.25L500.8,362.79L503.91,362.34L510.13,366.24L513.24,365.57L516.35,366.3L519.46,368.06L522.57,369.76L525.68,370.09L528.79,370.34L531.9,369.47L535.02,372.66L538.13,373.59L547.46,373.67L550.57,374.43L553.68,374.49L556.79,375.49L559.9,375.31L563.01,376.68L566.12,376.6L569.23,377.38L572.34,376.66L575.45,378.65L584.78,378.91L587.89,379.03L591.01,380.88L594.12,380.16L597.23,381.78L600.34,381.86L609.67,382.02L612.78,384.06L615.89,382.98L619,383.56" style="vector-effect: non-scaling-stroke; fill: none; stroke: rgb(148, 103, 189); stroke-opacity: 1; stroke-width: 2px; opacity: 1;"/></g><g class="points"/><g class="text"/></g><g class="trace scatter tracec1bb3a" style="stroke-miterlimit: 2; opacity: 1;"><g class="fills"/><g class="errorbars"/><g class="lines"><path class="js-line" d="M0,176.12L3.11,413.25L6.22,413.25L9.33,232.57L12.44,347.16L31.11,325.43L34.22,321.86L40.44,315.8L43.55,314.48L49.77,308.88L52.88,306.14L55.99,302.62L59.1,300.74L62.21,297.86L65.32,296.06L68.43,294.24L71.54,290.97L74.65,290.15L77.76,287.96L87.1,280.44L90.21,278.36L93.32,274.82L96.43,273.8L105.76,265L108.87,263.53L111.98,262.74L115.09,260.25L118.2,255.61L121.31,254.57L124.42,250.62L127.53,249.3L130.64,248.24L133.75,243.83L143.09,236.78L146.2,233.06L152.42,227.74L155.53,226.85L161.75,220.82L164.86,215.88L174.19,208.2L177.3,206L183.52,200.24L186.63,195.96L189.74,196.26L192.85,189.49L195.96,186.22L199.08,181.06L202.19,180.22L205.3,177.13L220.85,157.99L223.96,152.77L227.07,149.66L230.18,148.67L239.51,132.71L242.62,128.69L245.73,127.87L248.84,124.99L255.07,112.83L258.18,111.06L261.29,104.59L264.4,100.74L270.62,93.02L273.73,84.19L276.84,82.08L279.95,75.88L283.06,69.91L286.17,66.34L289.28,59.9L292.39,56.72L295.5,47.24L298.61,44.93L301.72,40.17L304.83,33.32L307.94,24.64L311.06,21.91L314.17,22.79L317.28,28.05L320.39,44.69L323.5,81.89L326.61,101.5L329.72,126.53L332.83,146.65L335.94,161.47L345.27,211.19L348.38,222.9L354.6,244.58L357.71,247.96L360.82,252.35L363.93,253.12L367.05,256.54L370.16,258.67L373.27,265.3L376.38,267.48L382.6,275.59L385.71,283.46L391.93,288.79L395.04,294.35L398.15,297.56L401.26,299.07L407.48,306.98L410.59,307.01L413.7,309.66L416.81,311.22L419.92,315.62L423.04,318L426.15,320.44L429.26,319.59L432.37,324.15L435.48,325.26L438.59,326.57L441.7,329.39L451.03,335.45L454.14,336.05L457.25,338.64L460.36,339.61L463.47,339.87L466.58,342.97L472.8,345.41L475.91,345.88L479.03,348.08L482.14,347.66L485.25,350.18L488.36,348.6L491.47,351.45L494.58,352.53L497.69,355.2L500.8,355.74L507.02,355.93L510.13,357.1L516.35,359.98L519.46,360.37L522.57,361.63L525.68,361.16L528.79,361.26L531.9,363.9L544.35,365.51L547.46,366.26L556.79,367.9L559.9,366.84L569.23,369.98L572.34,369.45L575.45,370.55L578.56,370.34L581.67,371.92L584.78,371.48L594.12,371.93L597.23,372.54L600.34,372.37L603.45,374.42L612.78,374.5L615.89,375.95L619,375.42" style="vector-effect: non-scaling-stroke; fill: none; stroke: rgb(140, 86, 75); stroke-opacity: 1; stroke-width: 2px; opacity: 1;"/></g><g class="points"/><g class="text"/></g></g></g><g class="overplot"/><path class="xlines-above crisp" style="fill: none;" d="M0,0"/><path class="ylines-above crisp" style="fill: none;" d="M0,0"/><g class="overlines-above"/><g class="xaxislayer-above"><g class="xtick"><text text-anchor="middle" x="0" y="473" transform="translate(212.42,0)" style="font-family: 'Open Sans', verdana, arial, sans-serif; font-size: 12px; fill: rgb(68, 68, 68); fill-opacity: 1; white-space: pre;">50</text></g><g class="xtick"><text text-anchor="middle" x="0" y="473" transform="translate(367.94,0)" style="font-family: 'Open Sans', verdana, arial, sans-serif; font-size: 12px; fill: rgb(68, 68, 68); fill-opacity: 1; white-space: pre;">100</text></g><g class="xtick"><text text-anchor="middle" x="0" y="473" transform="translate(523.47,0)" style="font-family: 'Open Sans', verdana, arial, sans-serif; font-size: 12px; fill: rgb(68, 68, 68); fill-opacity: 1; white-space: pre;">150</text></g><g class="xtick"><text text-anchor="middle" x="0" y="473" transform="translate(679,0)" style="font-family: 'Open Sans', verdana, arial, sans-serif; font-size: 12px; fill: rgb(68, 68, 68); fill-opacity: 1; white-space: pre;">200</text></g></g><g class="yaxislayer-above"><g class="ytick"><text text-anchor="end" x="59" y="4.199999999999999" transform="translate(0,438.25)" style="font-family: 'Open Sans', verdana, arial, sans-serif; font-size: 12px; fill: rgb(68, 68, 68); fill-opacity: 1; white-space: pre;">0</text></g><g class="ytick"><text text-anchor="end" x="59" y="4.199999999999999" transform="translate(0,359.76)" style="font-family: 'Open Sans', verdana, arial, sans-serif; font-size: 12px; fill: rgb(68, 68, 68); fill-opacity: 1; white-space: pre;">50</text></g><g class="ytick"><text text-anchor="end" x="59" y="4.199999999999999" transform="translate(0,281.26)" style="font-family: 'Open Sans', verdana, arial, sans-serif; font-size: 12px; fill: rgb(68, 68, 68); fill-opacity: 1; white-space: pre;">100</text></g><g class="ytick"><text text-anchor="end" x="59" y="4.199999999999999" transform="translate(0,202.77)" style="font-family: 'Open Sans', verdana, arial, sans-serif; font-size: 12px; fill: rgb(68, 68, 68); fill-opacity: 1; white-space: pre;">150</text></g><g class="ytick"><text text-anchor="end" x="59" y="4.199999999999999" transform="translate(0,124.27)" style="font-family: 'Open Sans', verdana, arial, sans-serif; font-size: 12px; fill: rgb(68, 68, 68); fill-opacity: 1; white-space: pre;">200</text></g><g class="ytick"><text text-anchor="end" x="59" y="4.199999999999999" transform="translate(0,45.78)" style="font-family: 'Open Sans', verdana, arial, sans-serif; font-size: 12px; fill: rgb(68, 68, 68); fill-opacity: 1; white-space: pre;">250</text></g></g><g class="overaxes-above"/></g></g><g class="polarlayer"/><g class="ternarylayer"/><g class="geolayer"/><g class="funnelarealayer"/><g class="pielayer"/><g class="treemaplayer"/><g class="sunburstlayer"/><g class="glimages"/><defs id="topdefs-746b02"><g class="clips"/><clipPath id="legend746b02"><rect width="117" height="140" x="0" y="0"/></clipPath></defs><g class="layer-above"><g class="imagelayer"/><g class="shapelayer"/></g><g class="infolayer"><g class="legend" pointer-events="all" transform="translate(90.95, 46.750000000000014)"><rect class="bg" shape-rendering="crispEdges" style="stroke: rgb(68, 68, 68); stroke-opacity: 1; fill: rgb(226, 226, 226); fill-opacity: 1; stroke-width: 0px;" width="117" height="140" x="0" y="0"/><g class="scrollbox" transform="translate(0, 0)" clip-path="url('#legend746b02')"><text class="legendtitletext user-select-none" text-anchor="start" x="2" y="15.600000000000001" style="font-family: 'Open Sans', verdana, arial, sans-serif; font-size: 12px; fill: rgb(68, 68, 68); fill-opacity: 1; white-space: pre;"><tspan style="font-weight:bold"> Identification Time </tspan></text><g class="groups"><g class="traces" transform="translate(0, 30.1)" style="opacity: 1;"><text class="legendtext user-select-none" text-anchor="start" x="40" y="4.680000000000001" style="font-family: 'Open Sans', verdana, arial, sans-serif; font-size: 12px; fill: rgb(68, 68, 68); fill-opacity: 1; white-space: pre;">0 Months</text><g class="layers" style="opacity: 1;"><g class="legendfill"/><g class="legendlines"><path class="js-line" d="M5,0h30" style="fill: none; stroke: rgb(31, 119, 180); stroke-opacity: 1; stroke-width: 2px;"/></g><g class="legendsymbols"><g class="legendpoints"/></g></g><rect class="legendtoggle" pointer-events="all" x="0" y="-9.5" width="98.046875" height="19" style="cursor: pointer; fill: rgb(0, 0, 0); fill-opacity: 0;"/></g><g class="traces" transform="translate(0, 49.1)" style="opacity: 1;"><text class="legendtext user-select-none" text-anchor="start" x="40" y="4.680000000000001" style="font-family: 'Open Sans', verdana, arial, sans-serif; font-size: 12px; fill: rgb(68, 68, 68); fill-opacity: 1; white-space: pre;">3 Months</text><g class="layers" style="opacity: 1;"><g class="legendfill"/><g class="legendlines"><path class="js-line" d="M5,0h30" style="fill: none; stroke: rgb(255, 127, 14); stroke-opacity: 1; stroke-width: 2px;"/></g><g class="legendsymbols"><g class="legendpoints"/></g></g><rect class="legendtoggle" pointer-events="all" x="0" y="-9.5" width="98.046875" height="19" style="cursor: pointer; fill: rgb(0, 0, 0); fill-opacity: 0;"/></g><g class="traces" transform="translate(0, 68.1)" style="opacity: 1;"><text class="legendtext user-select-none" text-anchor="start" x="40" y="4.680000000000001" style="font-family: 'Open Sans', verdana, arial, sans-serif; font-size: 12px; fill: rgb(68, 68, 68); fill-opacity: 1; white-space: pre;">6 Months</text><g class="layers" style="opacity: 1;"><g class="legendfill"/><g class="legendlines"><path class="js-line" d="M5,0h30" style="fill: none; stroke: rgb(44, 160, 44); stroke-opacity: 1; stroke-width: 2px;"/></g><g class="legendsymbols"><g class="legendpoints"/></g></g><rect class="legendtoggle" pointer-events="all" x="0" y="-9.5" width="98.046875" height="19" style="cursor: pointer; fill: rgb(0, 0, 0); fill-opacity: 0;"/></g><g class="traces" transform="translate(0, 87.1)" style="opacity: 1;"><text class="legendtext user-select-none" text-anchor="start" x="40" y="4.680000000000001" style="font-family: 'Open Sans', verdana, arial, sans-serif; font-size: 12px; fill: rgb(68, 68, 68); fill-opacity: 1; white-space: pre;">12 Months</text><g class="layers" style="opacity: 1;"><g class="legendfill"/><g class="legendlines"><path class="js-line" d="M5,0h30" style="fill: none; stroke: rgb(214, 39, 40); stroke-opacity: 1; stroke-width: 2px;"/></g><g class="legendsymbols"><g class="legendpoints"/></g></g><rect class="legendtoggle" pointer-events="all" x="0" y="-9.5" width="98.046875" height="19" style="cursor: pointer; fill: rgb(0, 0, 0); fill-opacity: 0;"/></g><g class="traces" transform="translate(0, 106.1)" style="opacity: 1;"><text class="legendtext user-select-none" text-anchor="start" x="40" y="4.680000000000001" style="font-family: 'Open Sans', verdana, arial, sans-serif; font-size: 12px; fill: rgb(68, 68, 68); fill-opacity: 1; white-space: pre;">24 Months</text><g class="layers" style="opacity: 1;"><g class="legendfill"/><g class="legendlines"><path class="js-line" d="M5,0h30" style="fill: none; stroke: rgb(148, 103, 189); stroke-opacity: 1; stroke-width: 2px;"/></g><g class="legendsymbols"><g class="legendpoints"/></g></g><rect class="legendtoggle" pointer-events="all" x="0" y="-9.5" width="98.046875" height="19" style="cursor: pointer; fill: rgb(0, 0, 0); fill-opacity: 0;"/></g><g class="traces" transform="translate(0, 125.1)" style="opacity: 1;"><text class="legendtext user-select-none" text-anchor="start" x="40" y="4.680000000000001" style="font-family: 'Open Sans', verdana, arial, sans-serif; font-size: 12px; fill: rgb(68, 68, 68); fill-opacity: 1; white-space: pre;">36 Months</text><g class="layers" style="opacity: 1;"><g class="legendfill"/><g class="legendlines"><path class="js-line" d="M5,0h30" style="fill: none; stroke: rgb(140, 86, 75); stroke-opacity: 1; stroke-width: 2px;"/></g><g class="legendsymbols"><g class="legendpoints"/></g></g><rect class="legendtoggle" pointer-events="all" x="0" y="-9.5" width="98.046875" height="19" style="cursor: pointer; fill: rgb(0, 0, 0); fill-opacity: 0;"/></g></g></g><rect class="scrollbar" rx="20" ry="3" width="0" height="0" style="fill: rgb(128, 139, 164); fill-opacity: 1;" x="0" y="0"/></g><g class="g-gtitle"><text class="gtitle" x="350" y="12.5" text-anchor="middle" dy="0em" style="font-family: 'Open Sans', verdana, arial, sans-serif; font-size: 17px; fill: rgb(68, 68, 68); opacity: 1; font-weight: normal; white-space: pre;"><tspan style="font-weight:bold"> Leprosy Incidence - Immunity Vaccine 0.5, Treatment 50% </tspan></text></g><g class="g-xtitle" transform="translate(0,-15)"><text class="xtitle" x="369.5" y="512" text-anchor="middle" style="font-family: 'Open Sans', verdana, arial, sans-serif; font-size: 14px; fill: rgb(68, 68, 68); opacity: 1; font-weight: normal; white-space: pre;">Time(Years)</text></g><g class="g-ytitle"><text class="ytitle" transform="rotate(-90,22,242.5)" x="22" y="242.5" text-anchor="middle" style="font-family: 'Open Sans', verdana, arial, sans-serif; font-size: 14px; fill: rgb(68, 68, 68); opacity: 1; font-weight: normal; white-space: pre;">Number of new infectiuos individuals</text></g></g></svg>