<svg class="main-svg" xmlns="http://www.w3.org/2000/svg" xmlns:xlink="http://www.w3.org/1999/xlink" width="700" height="500" style="" viewBox="0 0 700 500"><rect x="0" y="0" width="700" height="500" style="fill: rgb(255, 255, 255); fill-opacity: 1;"/><defs id="defs-cea8fc"><g class="clips"><clipPath id="clipcea8fcxyplot" class="plotclip"><rect width="619" height="435"/></clipPath><clipPath class="axesclip" id="clipcea8fcx"><rect x="60" y="0" width="619" height="500"/></clipPath><clipPath class="axesclip" id="clipcea8fcy"><rect x="0" y="25" width="700" height="435"/></clipPath><clipPath class="axesclip" id="clipcea8fcxy"><rect x="60" y="25" width="619" height="435"/></clipPath></g><g class="gradients"/></defs><g class="bglayer"/><g class="layer-below"><g class="imagelayer"/><g class="shapelayer"/></g><g class="cartesianlayer"><g class="subplot xy"><g class="layer-subplot"><g class="shapelayer"/><g class="imagelayer"/></g><g class="gridlayer"><g class="x"><path class="xgrid crisp" transform="translate(212.42,0)" d="M0,25v435" style="stroke: rgb(238, 238, 238); stroke-opacity: 1; stroke-width: 1px;"/><path class="xgrid crisp" transform="translate(367.94,0)" d="M0,25v435" style="stroke: rgb(238, 238, 238); stroke-opacity: 1; stroke-width: 1px;"/><path class="xgrid crisp" transform="translate(523.47,0)" d="M0,25v435" style="stroke: rgb(238, 238, 238); stroke-opacity: 1; stroke-width: 1px;"/></g><g class="y"><path class="ygrid crisp" transform="translate(0,359.74)" d="M60,0h619" style="stroke: rgb(238, 238, 238); stroke-opacity: 1; stroke-width: 1px;"/><path class="ygrid crisp" transform="translate(0,281.24)" d="M60,0h619" style="stroke: rgb(238, 238, 238); stroke-opacity: 1; stroke-width: 1px;"/><path class="ygrid crisp" transform="translate(0,202.73)" d="M60,0h619" style="stroke: rgb(238, 238, 238); stroke-opacity: 1; stroke-width: 1px;"/><path class="ygrid crisp" transform="translate(0,124.23)" d="M60,0h619" style="stroke: rgb(238, 238, 238); stroke-opacity: 1; stroke-width: 1px;"/><path class="ygrid crisp" transform="translate(0,45.72)" d="M60,0h619" style="stroke: rgb(238, 238, 238); stroke-opacity: 1; stroke-width: 1px;"/></g></g><g class="zerolinelayer"><path class="yzl zl crisp" transform="translate(0,438.25)" d="M60,0h619" style="stroke: rgb(68, 68, 68); stroke-opacity: 1; stroke-width: 1px;"/></g><path class="xlines-below"/><path class="ylines-below"/><g class="overlines-below"/><g class="xaxislayer-below"/><g class="yaxislayer-below"/><g class="overaxes-below"/><g class="plot" transform="translate(60, 25)" clip-path="url('#clipcea8fcxyplot')"><g class="scatterlayer mlayer"><g class="trace scatter trace6fe9ea" style="stroke-miterlimit: 2; opacity: 1;"><g class="fills"/><g class="errorbars"/><g class="lines"><path class="js-line" d="M0,176.15L3.11,413.25L6.22,413.25L9.33,232.55L12.44,347.15L31.11,325.42L34.22,321.85L40.44,315.79L43.55,314.47L49.77,308.86L52.88,306.12L55.99,302.6L59.1,300.73L62.21,297.85L65.32,296.04L68.43,294.23L71.54,290.95L74.65,290.14L77.76,287.94L87.1,280.42L90.21,278.35L93.32,274.81L96.43,273.78L105.76,264.98L108.87,263.51L111.98,262.72L115.09,260.23L118.2,255.59L121.31,254.54L124.42,250.59L127.53,249.28L130.64,248.22L133.75,243.8L143.09,236.75L146.2,233.03L152.42,227.71L155.53,226.82L161.75,220.79L164.86,215.86L174.19,208.17L177.3,205.97L183.52,200.21L186.63,195.93L189.74,196.23L192.85,189.46L195.96,186.19L199.08,181.03L202.19,180.19L205.3,177.1L220.85,157.95L223.96,152.73L227.07,149.63L230.18,148.63L239.51,132.67L242.62,128.65L245.73,127.83L248.84,124.95L255.07,112.79L258.18,111.02L261.29,104.54L264.4,100.7L270.62,92.98L273.73,84.15L276.84,82.03L279.95,75.83L283.06,69.86L286.17,66.29L289.28,59.85L292.39,56.67L295.5,47.19L298.61,44.88L301.72,40.12L304.83,33.27L307.94,24.58L311.06,39.29L320.39,117.78L323.5,159.68L332.83,230.88L335.94,251.49L342.16,287.81L345.27,297.86L348.38,309.6L351.49,316.88L357.71,326.58L360.82,328.98L367.05,336.03L370.16,340.7L373.27,344.56L376.38,347.07L379.49,350.34L382.6,355.56L388.82,360.71L391.93,363.66L401.26,367.89L404.37,368.08L407.48,369.86L410.59,370.68L419.92,376.34L423.04,377.05L429.26,380.07L432.37,380.72L435.48,383.27L438.59,384.22L441.7,384.44L444.81,385.87L447.92,386.28L451.03,388.03L454.14,387.63L457.25,389.3L463.47,391.1L466.58,391.14L469.69,392.2L472.8,392.16L475.91,393.48L479.03,393.98L488.36,395.85L491.47,396.19L503.91,397.76L507.02,399.13L541.24,403.58L544.35,403.43L553.68,405.18L556.79,404.36L559.9,405.87L563.01,405.41L572.34,405.73L575.45,406.38L600.34,407.7L603.45,407.37L612.78,407.89L615.89,407.83L619,408.36" style="vector-effect: non-scaling-stroke; fill: none; stroke: rgb(31, 119, 180); stroke-opacity: 1; stroke-width: 2px; opacity: 1;"/></g><g class="points"/><g class="text"/></g><g class="trace scatter trace7e1a3e" style="stroke-miterlimit: 2; opacity: 1;"><g class="fills"/><g class="errorbars"/><g class="lines"><path class="js-line" d="M0,176.12L3.11,413.25L6.22,413.25L9.33,232.55L12.44,347.15L31.11,325.42L34.22,321.85L40.44,315.79L43.55,314.47L49.77,308.86L52.88,306.12L55.99,302.6L59.1,300.73L62.21,297.85L65.32,296.04L68.43,294.23L71.54,290.95L74.65,290.14L77.76,287.94L87.1,280.42L90.21,278.35L93.32,274.81L96.43,273.78L105.76,264.98L108.87,263.51L111.98,262.72L115.09,260.23L118.2,255.59L121.31,254.54L124.42,250.59L127.53,249.28L130.64,248.22L133.75,243.8L143.09,236.75L146.2,233.03L152.42,227.71L155.53,226.82L161.75,220.79L164.86,215.86L174.19,208.17L177.3,205.97L183.52,200.21L186.63,195.93L189.74,196.23L192.85,189.46L195.96,186.19L199.08,181.03L202.19,180.19L205.3,177.1L220.85,157.95L223.96,152.73L227.07,149.63L230.18,148.63L239.51,132.67L242.62,128.65L245.73,127.83L248.84,124.95L255.07,112.79L258.18,111.02L261.29,104.54L264.4,100.7L270.62,92.98L273.73,84.15L276.84,82.03L279.95,75.83L283.06,69.86L286.17,66.29L289.28,59.85L292.39,56.67L295.5,47.19L298.61,44.88L301.72,40.12L304.83,33.27L307.94,24.58L311.06,34.82L320.39,111.31L323.5,151.07L329.72,206.52L332.83,227.47L335.94,250.33L339.05,263.84L345.27,296.65L348.38,307.2L354.6,318.45L357.71,321.05L360.82,325.42L363.93,327.99L373.27,339.61L376.38,342.64L382.6,351.43L385.71,354.15L391.93,360.45L395.04,360.08L398.15,362.18L401.26,363.35L404.37,364.16L407.48,366.78L413.7,368.09L416.81,369.64L423.04,373.19L426.15,375.88L438.59,380.89L441.7,380.59L447.92,383.48L451.03,384.12L457.25,385.35L460.36,386.9L463.47,386.53L466.58,388.47L475.91,391.54L479.03,391.78L482.14,392.03L485.25,393.07L488.36,393.37L491.47,394.66L497.69,395.14L500.8,396.15L503.91,395.88L507.02,396.94L522.57,399.76L525.68,399.49L528.79,400.59L531.9,400.63L535.02,400.43L538.13,401.36L541.24,401.25L544.35,402.4L547.46,402.35L550.57,403.28L556.79,403.37L559.9,403.6L563.01,404.33L566.12,403.97L575.45,405.01L578.56,404.78L591.01,405.94L594.12,405.96L619,406.86" style="vector-effect: non-scaling-stroke; fill: none; stroke: rgb(255, 127, 14); stroke-opacity: 1; stroke-width: 2px; opacity: 1;"/></g><g class="points"/><g class="text"/></g><g class="trace scatter trace4c8c56" style="stroke-miterlimit: 2; opacity: 1;"><g class="fills"/><g class="errorbars"/><g class="lines"><path class="js-line" d="M0,176.14L3.11,413.25L6.22,413.25L9.33,232.55L12.44,347.15L31.11,325.42L34.22,321.85L40.44,315.79L43.55,314.47L49.77,308.86L52.88,306.12L55.99,302.6L59.1,300.73L62.21,297.85L65.32,296.04L68.43,294.23L71.54,290.95L74.65,290.14L77.76,287.94L87.1,280.42L90.21,278.35L93.32,274.81L96.43,273.78L105.76,264.98L108.87,263.51L111.98,262.72L115.09,260.23L118.2,255.59L121.31,254.54L124.42,250.59L127.53,249.28L130.64,248.22L133.75,243.8L143.09,236.75L146.2,233.03L152.42,227.71L155.53,226.82L161.75,220.79L164.86,215.86L174.19,208.17L177.3,205.97L183.52,200.21L186.63,195.93L189.74,196.23L192.85,189.46L195.96,186.19L199.08,181.03L202.19,180.19L205.3,177.1L220.85,157.95L223.96,152.73L227.07,149.63L230.18,148.63L239.51,132.67L242.62,128.65L245.73,127.83L248.84,124.95L255.07,112.79L258.18,111.02L261.29,104.54L264.4,100.7L270.62,92.98L273.73,84.15L276.84,82.03L279.95,75.83L283.06,69.86L286.17,66.29L289.28,59.85L292.39,56.67L295.5,47.19L298.61,44.88L301.72,40.12L304.83,33.27L307.94,24.58L311.06,30.14L320.39,108.87L323.5,147.15L329.72,202.84L332.83,222.28L342.16,278.17L345.27,292.33L348.38,302.83L351.49,309.62L354.6,314.32L357.71,316.33L363.93,323.86L367.05,326.23L370.16,331.39L373.27,334.34L376.38,340.71L379.49,342.48L385.71,352.02L388.82,354.12L398.15,358.89L401.26,359.61L404.37,361.12L407.48,361.55L416.81,366.99L419.92,369.22L429.26,373.87L432.37,375.07L435.48,376.43L438.59,376.34L441.7,379.23L444.81,379.05L447.92,379.57L451.03,381.16L457.25,384.3L460.36,384.07L463.47,384.54L466.58,386.3L469.69,386.36L472.8,387.63L479.03,389.15L482.14,389.89L485.25,389.86L488.36,390.9L494.58,392.64L497.69,392.63L503.91,393.76L507.02,395.27L510.13,394.61L513.24,395.37L516.35,395.81L519.46,397.12L535.02,398.8L538.13,399.61L541.24,400.78L544.35,400.25L550.57,400.68L553.68,401.21L559.9,401.81L563.01,401.92L572.34,403.06L575.45,403.21L581.67,403.67L584.78,403.53L587.89,404.51L591.01,403.59L594.12,404.52L597.23,404.58L609.67,405.94L612.78,405.26L619,406.18" style="vector-effect: non-scaling-stroke; fill: none; stroke: rgb(44, 160, 44); stroke-opacity: 1; stroke-width: 2px; opacity: 1;"/></g><g class="points"/><g class="text"/></g><g class="trace scatter tracead311c" style="stroke-miterlimit: 2; opacity: 1;"><g class="fills"/><g class="errorbars"/><g class="lines"><path class="js-line" d="M0,176.11L3.11,413.25L6.22,413.25L9.33,232.55L12.44,347.15L31.11,325.42L34.22,321.85L40.44,315.79L43.55,314.47L49.77,308.86L52.88,306.12L55.99,302.6L59.1,300.73L62.21,297.85L65.32,296.04L68.43,294.23L71.54,290.95L74.65,290.14L77.76,287.94L87.1,280.42L90.21,278.35L93.32,274.81L96.43,273.78L105.76,264.98L108.87,263.51L111.98,262.72L115.09,260.23L118.2,255.59L121.31,254.54L124.42,250.59L127.53,249.28L130.64,248.22L133.75,243.8L143.09,236.75L146.2,233.03L152.42,227.71L155.53,226.82L161.75,220.79L164.86,215.86L174.19,208.17L177.3,205.97L183.52,200.21L186.63,195.93L189.74,196.23L192.85,189.46L195.96,186.19L199.08,181.03L202.19,180.19L205.3,177.1L220.85,157.95L223.96,152.73L227.07,149.63L230.18,148.63L239.51,132.67L242.62,128.65L245.73,127.83L248.84,124.95L255.07,112.79L258.18,111.02L261.29,104.54L264.4,100.7L270.62,92.98L273.73,84.15L276.84,82.03L279.95,75.83L283.06,69.86L286.17,66.29L289.28,59.85L292.39,56.67L295.5,47.19L298.61,44.88L301.72,40.12L304.83,33.27L307.94,24.58L311.06,26.51L317.28,72.12L320.39,99.58L326.61,167.15L329.72,191.88L339.05,255.4L342.16,270.3L348.38,297.41L351.49,305.51L354.6,306.48L357.71,309.9L360.82,313.05L363.93,314.45L370.16,321.36L373.27,326.32L385.71,342.97L388.82,346.4L391.93,349.4L395.04,351.05L398.15,351.34L401.26,352.85L407.48,355.95L410.59,356.18L416.81,359.8L419.92,362.54L429.26,367.76L432.37,367.98L438.59,371L441.7,371.59L444.81,371.2L447.92,373.42L451.03,373.71L454.14,375.67L457.25,376.07L460.36,378.2L463.47,379.01L466.58,380.76L475.91,382.85L479.03,383.93L482.14,384.62L485.25,384.1L491.47,386.82L494.58,387.91L497.69,387.45L500.8,387.85L522.57,392.13L525.68,392.81L531.9,393.34L535.02,393.58L541.24,393.41L544.35,394.41L550.57,395.88L553.68,395.65L556.79,396.53L559.9,396.24L569.23,398.17L572.34,398.15L578.56,399.1L581.67,398.77L591.01,399.87L594.12,399.86L597.23,401.03L600.34,401L609.67,400.68L612.78,401.4L619,402.26" style="vector-effect: non-scaling-stroke; fill: none; stroke: rgb(214, 39, 40); stroke-opacity: 1; stroke-width: 2px; opacity: 1;"/></g><g class="points"/><g class="text"/></g><g class="trace scatter tracedb82a5" style="stroke-miterlimit: 2; opacity: 1;"><g class="fills"/><g class="errorbars"/><g class="lines"><path class="js-line" d="M0,176.12L3.11,413.25L6.22,413.25L9.33,232.55L12.44,347.15L31.11,325.42L34.22,321.85L40.44,315.79L43.55,314.47L49.77,308.86L52.88,306.12L55.99,302.6L59.1,300.73L62.21,297.85L65.32,296.04L68.43,294.23L71.54,290.95L74.65,290.14L77.76,287.94L87.1,280.42L90.21,278.35L93.32,274.81L96.43,273.78L105.76,264.98L108.87,263.51L111.98,262.72L115.09,260.23L118.2,255.59L121.31,254.54L124.42,250.59L127.53,249.28L130.64,248.22L133.75,243.8L143.09,236.75L146.2,233.03L152.42,227.71L155.53,226.82L161.75,220.79L164.86,215.86L174.19,208.17L177.3,205.97L183.52,200.21L186.63,195.93L189.74,196.23L192.85,189.46L195.96,186.19L199.08,181.03L202.19,180.19L205.3,177.1L220.85,157.95L223.96,152.73L227.07,149.63L230.18,148.63L239.51,132.67L242.62,128.65L245.73,127.83L248.84,124.95L255.07,112.79L258.18,111.02L261.29,104.54L264.4,100.7L270.62,92.98L273.73,84.15L276.84,82.03L279.95,75.83L283.06,69.86L286.17,66.29L289.28,59.85L292.39,56.67L295.5,47.19L298.61,44.88L301.72,40.12L304.83,33.27L307.94,24.58L311.06,23.8L314.17,34.81L317.28,50.99L320.39,79.6L323.5,115.56L329.72,169.92L332.83,195.14L342.16,254.25L345.27,269.28L348.38,285.36L351.49,291.49L357.71,297.36L360.82,297.7L363.93,298.25L367.05,302.69L370.16,303.82L373.27,307.28L382.6,322.09L385.71,325.91L388.82,331.96L391.93,334.37L395.04,338.67L398.15,338.69L401.26,337.74L404.37,339.62L407.48,338.73L410.59,340.14L413.7,342.19L416.81,343.04L419.92,344.26L423.04,346.79L438.59,356.4L441.7,356.29L444.81,359.81L447.92,360.13L454.14,362.21L457.25,362.02L463.47,364.84L466.58,365L469.69,365.49L472.8,367.67L482.14,370.72L485.25,371.59L494.58,371.88L497.69,373.65L500.8,374.91L503.91,374.99L507.02,376.23L510.13,375.9L513.24,376.48L516.35,377.96L519.46,377.63L522.57,379.2L525.68,378.8L528.79,379.56L535.02,380.47L538.13,382.04L541.24,381.22L544.35,381.76L547.46,382.92L550.57,383.1L553.68,384.65L556.79,384.63L559.9,384.16L563.01,386.16L569.23,386.5L572.34,387.03L575.45,386.37L578.56,387.05L591.01,389.24L594.12,388.99L606.56,389.84L609.67,390.4L615.89,391.01L619,391.13" style="vector-effect: non-scaling-stroke; fill: none; stroke: rgb(148, 103, 189); stroke-opacity: 1; stroke-width: 2px; opacity: 1;"/></g><g class="points"/><g class="text"/></g><g class="trace scatter tracea2a617" style="stroke-miterlimit: 2; opacity: 1;"><g class="fills"/><g class="errorbars"/><g class="lines"><path class="js-line" d="M0,176.05L3.11,413.25L6.22,413.25L9.33,232.55L12.44,347.15L31.11,325.42L34.22,321.85L40.44,315.79L43.55,314.47L49.77,308.86L52.88,306.12L55.99,302.6L59.1,300.73L62.21,297.85L65.32,296.04L68.43,294.23L71.54,290.95L74.65,290.14L77.76,287.94L87.1,280.42L90.21,278.35L93.32,274.81L96.43,273.78L105.76,264.98L108.87,263.51L111.98,262.72L115.09,260.23L118.2,255.59L121.31,254.54L124.42,250.59L127.53,249.28L130.64,248.22L133.75,243.8L143.09,236.75L146.2,233.03L152.42,227.71L155.53,226.82L161.75,220.79L164.86,215.86L174.19,208.17L177.3,205.97L183.52,200.21L186.63,195.93L189.74,196.23L192.85,189.46L195.96,186.19L199.08,181.03L202.19,180.19L205.3,177.1L220.85,157.95L223.96,152.73L227.07,149.63L230.18,148.63L239.51,132.67L242.62,128.65L245.73,127.83L248.84,124.95L255.07,112.79L258.18,111.02L261.29,104.54L264.4,100.7L270.62,92.98L273.73,84.15L276.84,82.03L279.95,75.83L283.06,69.86L286.17,66.29L289.28,59.85L292.39,56.67L295.5,47.19L298.61,44.88L301.72,40.12L304.83,33.27L307.94,24.58L311.06,21.75L314.17,27.06L317.28,41.53L320.39,59.75L323.5,91.89L332.83,175.35L335.94,197.56L345.27,254.28L348.38,267.29L351.49,279.62L354.6,286.33L357.71,287.63L360.82,286.75L363.93,286.79L367.05,288.21L370.16,289.31L373.27,291.29L376.38,294.16L379.49,299.73L385.71,308.95L388.82,311.77L395.04,321.4L398.15,324.47L401.26,324.88L404.37,327.55L410.59,325.98L413.7,329L419.92,330.54L423.04,332.96L426.15,330.69L429.26,333.83L432.37,336.63L435.48,338.37L441.7,342.03L444.81,342.98L447.92,344.68L451.03,344.78L454.14,345.08L457.25,347.89L460.36,347.65L463.47,349.52L479.03,352.33L482.14,353.59L485.25,356.52L488.36,354.99L491.47,356.91L494.58,357.39L503.91,358.37L507.02,362.05L510.13,360.87L513.24,361.09L525.68,364.04L528.79,365.62L531.9,364.75L535.02,366.92L538.13,365.94L541.24,367.95L544.35,366.77L547.46,367.24L553.68,368.1L556.79,368.95L559.9,368.83L563.01,369.55L581.67,372.66L584.78,372.15L600.34,375.14L603.45,373.57L609.67,375.94L612.78,374.38L619,376.39" style="vector-effect: non-scaling-stroke; fill: none; stroke: rgb(140, 86, 75); stroke-opacity: 1; stroke-width: 2px; opacity: 1;"/></g><g class="points"/><g class="text"/></g></g></g><g class="overplot"/><path class="xlines-above crisp" style="fill: none;" d="M0,0"/><path class="ylines-above crisp" style="fill: none;" d="M0,0"/><g class="overlines-above"/><g class="xaxislayer-above"><g class="xtick"><text text-anchor="middle" x="0" y="473" transform="translate(212.42,0)" style="font-family: 'Open Sans', verdana, arial, sans-serif; font-size: 12px; fill: rgb(68, 68, 68); fill-opacity: 1; white-space: pre;">50</text></g><g class="xtick"><text text-anchor="middle" x="0" y="473" transform="translate(367.94,0)" style="font-family: 'Open Sans', verdana, arial, sans-serif; font-size: 12px; fill: rgb(68, 68, 68); fill-opacity: 1; white-space: pre;">100</text></g><g class="xtick"><text text-anchor="middle" x="0" y="473" transform="translate(523.47,0)" style="font-family: 'Open Sans', verdana, arial, sans-serif; font-size: 12px; fill: rgb(68, 68, 68); fill-opacity: 1; white-space: pre;">150</text></g><g class="xtick"><text text-anchor="middle" x="0" y="473" transform="translate(679,0)" style="font-family: 'Open Sans', verdana, arial, sans-serif; font-size: 12px; fill: rgb(68, 68, 68); fill-opacity: 1; white-space: pre;">200</text></g></g><g class="yaxislayer-above"><g class="ytick"><text text-anchor="end" x="59" y="4.199999999999999" transform="translate(0,438.25)" style="font-family: 'Open Sans', verdana, arial, sans-serif; font-size: 12px; fill: rgb(68, 68, 68); fill-opacity: 1; white-space: pre;">0</text></g><g class="ytick"><text text-anchor="end" x="59" y="4.199999999999999" transform="translate(0,359.74)" style="font-family: 'Open Sans', verdana, arial, sans-serif; font-size: 12px; fill: rgb(68, 68, 68); fill-opacity: 1; white-space: pre;">50</text></g><g class="ytick"><text text-anchor="end" x="59" y="4.199999999999999" transform="translate(0,281.24)" style="font-family: 'Open Sans', verdana, arial, sans-serif; font-size: 12px; fill: rgb(68, 68, 68); fill-opacity: 1; white-space: pre;">100</text></g><g class="ytick"><text text-anchor="end" x="59" y="4.199999999999999" transform="translate(0,202.73)" style="font-family: 'Open Sans', verdana, arial, sans-serif; font-size: 12px; fill: rgb(68, 68, 68); fill-opacity: 1; white-space: pre;">150</text></g><g class="ytick"><text text-anchor="end" x="59" y="4.199999999999999" transform="translate(0,124.23)" style="font-family: 'Open Sans', verdana, arial, sans-serif; font-size: 12px; fill: rgb(68, 68, 68); fill-opacity: 1; white-space: pre;">200</text></g><g class="ytick"><text text-anchor="end" x="59" y="4.199999999999999" transform="translate(0,45.72)" style="font-family: 'Open Sans', verdana, arial, sans-serif; font-size: 12px; fill: rgb(68, 68, 68); fill-opacity: 1; white-space: pre;">250</text></g></g><g class="overaxes-above"/></g></g><g class="polarlayer"/><g class="ternarylayer"/><g class="geolayer"/><g class="funnelarealayer"/><g class="pielayer"/><g class="treemaplayer"/><g class="sunburstlayer"/><g class="glimages"/><defs id="topdefs-cea8fc"><g class="clips"/><clipPath id="legendcea8fc"><rect width="117" height="140" x="0" y="0"/></clipPath></defs><g class="layer-above"><g class="imagelayer"/><g class="shapelayer"/></g><g class="infolayer"><g class="legend" pointer-events="all" transform="translate(90.95, 46.750000000000014)"><rect class="bg" shape-rendering="crispEdges" style="stroke: rgb(68, 68, 68); stroke-opacity: 1; fill: rgb(226, 226, 226); fill-opacity: 1; stroke-width: 0px;" width="117" height="140" x="0" y="0"/><g class="scrollbox" transform="translate(0, 0)" clip-path="url('#legendcea8fc')"><text class="legendtitletext user-select-none" text-anchor="start" x="2" y="15.600000000000001" style="font-family: 'Open Sans', verdana, arial, sans-serif; font-size: 12px; fill: rgb(68, 68, 68); fill-opacity: 1; white-space: pre;"><tspan style="font-weight:bold"> Identification Time </tspan></text><g class="groups"><g class="traces" transform="translate(0, 30.1)" style="opacity: 1;"><text class="legendtext user-select-none" text-anchor="start" x="40" y="4.680000000000001" style="font-family: 'Open Sans', verdana, arial, sans-serif; font-size: 12px; fill: rgb(68, 68, 68); fill-opacity: 1; white-space: pre;">0 Months</text><g class="layers" style="opacity: 1;"><g class="legendfill"/><g class="legendlines"><path class="js-line" d="M5,0h30" style="fill: none; stroke: rgb(31, 119, 180); stroke-opacity: 1; stroke-width: 2px;"/></g><g class="legendsymbols"><g class="legendpoints"/></g></g><rect class="legendtoggle" pointer-events="all" x="0" y="-9.5" width="98.046875" height="19" style="cursor: pointer; fill: rgb(0, 0, 0); fill-opacity: 0;"/></g><g class="traces" transform="translate(0, 49.1)" style="opacity: 1;"><text class="legendtext user-select-none" text-anchor="start" x="40" y="4.680000000000001" style="font-family: 'Open Sans', verdana, arial, sans-serif; font-size: 12px; fill: rgb(68, 68, 68); fill-opacity: 1; white-space: pre;">3 Months</text><g class="layers" style="opacity: 1;"><g class="legendfill"/><g class="legendlines"><path class="js-line" d="M5,0h30" style="fill: none; stroke: rgb(255, 127, 14); stroke-opacity: 1; stroke-width: 2px;"/></g><g class="legendsymbols"><g class="legendpoints"/></g></g><rect class="legendtoggle" pointer-events="all" x="0" y="-9.5" width="98.046875" height="19" style="cursor: pointer; fill: rgb(0, 0, 0); fill-opacity: 0;"/></g><g class="traces" transform="translate(0, 68.1)" style="opacity: 1;"><text class="legendtext user-select-none" text-anchor="start" x="40" y="4.680000000000001" style="font-family: 'Open Sans', verdana, arial, sans-serif; font-size: 12px; fill: rgb(68, 68, 68); fill-opacity: 1; white-space: pre;">6 Months</text><g class="layers" style="opacity: 1;"><g class="legendfill"/><g class="legendlines"><path class="js-line" d="M5,0h30" style="fill: none; stroke: rgb(44, 160, 44); stroke-opacity: 1; stroke-width: 2px;"/></g><g class="legendsymbols"><g class="legendpoints"/></g></g><rect class="legendtoggle" pointer-events="all" x="0" y="-9.5" width="98.046875" height="19" style="cursor: pointer; fill: rgb(0, 0, 0); fill-opacity: 0;"/></g><g class="traces" transform="translate(0, 87.1)" style="opacity: 1;"><text class="legendtext user-select-none" text-anchor="start" x="40" y="4.680000000000001" style="font-family: 'Open Sans', verdana, arial, sans-serif; font-size: 12px; fill: rgb(68, 68, 68); fill-opacity: 1; white-space: pre;">12 Months</text><g class="layers" style="opacity: 1;"><g class="legendfill"/><g class="legendlines"><path class="js-line" d="M5,0h30" style="fill: none; stroke: rgb(214, 39, 40); stroke-opacity: 1; stroke-width: 2px;"/></g><g class="legendsymbols"><g class="legendpoints"/></g></g><rect class="legendtoggle" pointer-events="all" x="0" y="-9.5" width="98.046875" height="19" style="cursor: pointer; fill: rgb(0, 0, 0); fill-opacity: 0;"/></g><g class="traces" transform="translate(0, 106.1)" style="opacity: 1;"><text class="legendtext user-select-none" text-anchor="start" x="40" y="4.680000000000001" style="font-family: 'Open Sans', verdana, arial, sans-serif; font-size: 12px; fill: rgb(68, 68, 68); fill-opacity: 1; white-space: pre;">24 Months</text><g class="layers" style="opacity: 1;"><g class="legendfill"/><g class="legendlines"><path class="js-line" d="M5,0h30" style="fill: none; stroke: rgb(148, 103, 189); stroke-opacity: 1; stroke-width: 2px;"/></g><g class="legendsymbols"><g class="legendpoints"/></g></g><rect class="legendtoggle" pointer-events="all" x="0" y="-9.5" width="98.046875" height="19" style="cursor: pointer; fill: rgb(0, 0, 0); fill-opacity: 0;"/></g><g class="traces" transform="translate(0, 125.1)" style="opacity: 1;"><text class="legendtext user-select-none" text-anchor="start" x="40" y="4.680000000000001" style="font-family: 'Open Sans', verdana, arial, sans-serif; font-size: 12px; fill: rgb(68, 68, 68); fill-opacity: 1; white-space: pre;">36 Months</text><g class="layers" style="opacity: 1;"><g class="legendfill"/><g class="legendlines"><path class="js-line" d="M5,0h30" style="fill: none; stroke: rgb(140, 86, 75); stroke-opacity: 1; stroke-width: 2px;"/></g><g class="legendsymbols"><g class="legendpoints"/></g></g><rect class="legendtoggle" pointer-events="all" x="0" y="-9.5" width="98.046875" height="19" style="cursor: pointer; fill: rgb(0, 0, 0); fill-opacity: 0;"/></g></g></g><rect class="scrollbar" rx="20" ry="3" width="0" height="0" style="fill: rgb(128, 139, 164); fill-opacity: 1;" x="0" y="0"/></g><g class="g-gtitle"><text class="gtitle" x="350" y="12.5" text-anchor="middle" dy="0em" style="font-family: 'Open Sans', verdana, arial, sans-serif; font-size: 17px; fill: rgb(68, 68, 68); opacity: 1; font-weight: normal; white-space: pre;"><tspan style="font-weight:bold"> Leprosy Incidence - Immunity Vaccine 0.5, Treatment 75% </tspan></text></g><g class="g-xtitle" transform="translate(0,-15)"><text class="xtitle" x="369.5" y="512" text-anchor="middle" style="font-family: 'Open Sans', verdana, arial, sans-serif; font-size: 14px; fill: rgb(68, 68, 68); opacity: 1; font-weight: normal; white-space: pre;">Time(Years)</text></g><g class="g-ytitle"><text class="ytitle" transform="rotate(-90,22,242.5)" x="22" y="242.5" text-anchor="middle" style="font-family: 'Open Sans', verdana, arial, sans-serif; font-size: 14px; fill: rgb(68, 68, 68); opacity: 1; font-weight: normal; white-space: pre;">Number of new infectiuos individuals</text></g></g></svg>