<svg class="main-svg" xmlns="http://www.w3.org/2000/svg" xmlns:xlink="http://www.w3.org/1999/xlink" width="700" height="500" style="" viewBox="0 0 700 500"><rect x="0" y="0" width="700" height="500" style="fill: rgb(255, 255, 255); fill-opacity: 1;"/><defs id="defs-67e11a"><g class="clips"><clipPath id="clip67e11axyplot" class="plotclip"><rect width="619" height="435"/></clipPath><clipPath class="axesclip" id="clip67e11ax"><rect x="60" y="0" width="619" height="500"/></clipPath><clipPath class="axesclip" id="clip67e11ay"><rect x="0" y="25" width="700" height="435"/></clipPath><clipPath class="axesclip" id="clip67e11axy"><rect x="60" y="25" width="619" height="435"/></clipPath></g><g class="gradients"/></defs><g class="bglayer"/><g class="layer-below"><g class="imagelayer"/><g class="shapelayer"/></g><g class="cartesianlayer"><g class="subplot xy"><g class="layer-subplot"><g class="shapelayer"/><g class="imagelayer"/></g><g class="gridlayer"><g class="x"><path class="xgrid crisp" transform="translate(212.42,0)" d="M0,25v435" style="stroke: rgb(238, 238, 238); stroke-opacity: 1; stroke-width: 1px;"/><path class="xgrid crisp" transform="translate(367.94,0)" d="M0,25v435" style="stroke: rgb(238, 238, 238); stroke-opacity: 1; stroke-width: 1px;"/><path class="xgrid crisp" transform="translate(523.47,0)" d="M0,25v435" style="stroke: rgb(238, 238, 238); stroke-opacity: 1; stroke-width: 1px;"/></g><g class="y"><path class="ygrid crisp" transform="translate(0,359.43)" d="M60,0h619" style="stroke: rgb(238, 238, 238); stroke-opacity: 1; stroke-width: 1px;"/><path class="ygrid crisp" transform="translate(0,280.61)" d="M60,0h619" style="stroke: rgb(238, 238, 238); stroke-opacity: 1; stroke-width: 1px;"/><path class="ygrid crisp" transform="translate(0,201.78)" d="M60,0h619" style="stroke: rgb(238, 238, 238); stroke-opacity: 1; stroke-width: 1px;"/><path class="ygrid crisp" transform="translate(0,122.96)" d="M60,0h619" style="stroke: rgb(238, 238, 238); stroke-opacity: 1; stroke-width: 1px;"/><path class="ygrid crisp" transform="translate(0,44.14)" d="M60,0h619" style="stroke: rgb(238, 238, 238); stroke-opacity: 1; stroke-width: 1px;"/></g></g><g class="zerolinelayer"><path class="yzl zl crisp" transform="translate(0,438.25)" d="M60,0h619" style="stroke: rgb(68, 68, 68); stroke-opacity: 1; stroke-width: 1px;"/></g><path class="xlines-below"/><path class="ylines-below"/><g class="overlines-below"/><g class="xaxislayer-below"/><g class="yaxislayer-below"/><g class="overaxes-below"/><g class="plot" transform="translate(60, 25)" clip-path="url('#clip67e11axyplot')"><g class="scatterlayer mlayer"><g class="trace scatter trace2b50db" style="stroke-miterlimit: 2; opacity: 1;"><g class="fills"/><g class="errorbars"/><g class="lines"><path class="js-line" d="M0,175.21L3.11,413.25L6.22,413.25L9.33,231.82L12.44,346.88L31.11,325.06L34.22,321.48L40.44,315.39L43.55,314.07L49.77,308.44L52.88,305.69L55.99,302.16L59.1,300.27L62.21,297.38L65.32,295.57L68.43,293.75L71.54,290.46L74.65,289.64L77.76,287.43L87.1,279.88L90.21,277.8L93.32,274.25L96.43,273.22L105.76,264.38L108.87,262.91L111.98,262.11L115.09,259.61L118.2,254.95L121.31,253.9L124.42,249.94L127.53,248.61L130.64,247.55L133.75,243.12L143.09,236.04L146.2,232.31L152.42,226.96L155.53,226.07L161.75,220.02L164.86,215.06L174.19,207.34L177.3,205.14L183.52,199.35L186.63,195.06L189.74,195.36L192.85,188.56L195.96,185.27L199.08,180.1L202.19,179.25L205.3,176.15L220.85,156.92L223.96,151.68L227.07,148.57L230.18,147.57L239.51,131.54L242.62,127.51L245.73,126.68L248.84,123.78L255.07,111.58L258.18,109.8L261.29,103.3L264.4,99.44L270.62,91.69L273.73,82.82L276.84,80.7L279.95,74.47L283.06,68.48L286.17,64.9L289.28,58.43L292.39,55.23L295.5,45.71L298.61,43.39L301.72,38.62L304.83,31.74L307.94,23.02L311.06,41.93L317.28,107.74L320.39,140.27L326.61,211.47L329.72,241.31L339.05,304.29L342.16,316.67L345.27,332.14L348.38,343L351.49,350.96L354.6,356.63L367.05,376.13L370.16,380.06L382.6,391.69L385.71,393.39L388.82,395.14L391.93,395.45L398.15,397.36L401.26,397.59L404.37,399.16L407.48,399.4L410.59,399.57L413.7,401.39L416.81,401.77L419.92,402.95L426.15,404.41L429.26,404.37L444.81,406.49L447.92,406.95L457.25,408.17L460.36,408.63L482.14,410.05L485.25,410.37L488.36,409.93L491.47,410.42L559.9,412.47L563.01,412.37L609.67,412.75L612.78,412.6L619,412.75" style="vector-effect: non-scaling-stroke; fill: none; stroke: rgb(31, 119, 180); stroke-opacity: 1; stroke-width: 2px; opacity: 1;"/></g><g class="points"/><g class="text"/></g><g class="trace scatter trace758850" style="stroke-miterlimit: 2; opacity: 1;"><g class="fills"/><g class="errorbars"/><g class="lines"><path class="js-line" d="M0,175.2L3.11,413.25L6.22,413.25L9.33,231.82L12.44,346.88L31.11,325.06L34.22,321.48L40.44,315.39L43.55,314.07L49.77,308.44L52.88,305.69L55.99,302.16L59.1,300.27L62.21,297.38L65.32,295.57L68.43,293.75L71.54,290.46L74.65,289.64L77.76,287.43L87.1,279.88L90.21,277.8L93.32,274.25L96.43,273.22L105.76,264.38L108.87,262.91L111.98,262.11L115.09,259.61L118.2,254.95L121.31,253.9L124.42,249.94L127.53,248.61L130.64,247.55L133.75,243.12L143.09,236.04L146.2,232.31L152.42,226.96L155.53,226.07L161.75,220.02L164.86,215.06L174.19,207.34L177.3,205.14L183.52,199.35L186.63,195.06L189.74,195.36L192.85,188.56L195.96,185.27L199.08,180.1L202.19,179.25L205.3,176.15L220.85,156.92L223.96,151.68L227.07,148.57L230.18,147.57L239.51,131.54L242.62,127.51L245.73,126.68L248.84,123.78L255.07,111.58L258.18,109.8L261.29,103.3L264.4,99.44L270.62,91.69L273.73,82.82L276.84,80.7L279.95,74.47L283.06,68.48L286.17,64.9L289.28,58.43L292.39,55.23L295.5,45.71L298.61,43.39L301.72,38.62L304.83,31.74L307.94,23.02L311.06,38.46L320.39,137.28L323.5,176.25L329.72,235.59L332.83,261.11L339.05,301.29L342.16,315.79L348.38,341.75L351.49,347.02L354.6,350.83L357.71,357.06L363.93,367.85L367.05,372.77L373.27,379.34L376.38,382.36L379.49,386.37L382.6,388.64L385.71,391.09L388.82,392.13L391.93,393.91L395.04,393.7L407.48,396.51L410.59,398.48L416.81,399.67L419.92,400.66L426.15,402.64L429.26,403.27L441.7,403.88L444.81,404.78L451.03,405.22L454.14,405.32L463.47,407.58L466.58,407.55L469.69,408.38L472.8,407.95L482.14,408.59L485.25,408.74L497.69,410.1L500.8,409.98L513.24,410.65L516.35,410.74L528.79,411.52L531.9,411.24L538.13,411.57L541.24,411.32L587.89,412.42L591.01,412.39L615.89,412.56L619,412.56" style="vector-effect: non-scaling-stroke; fill: none; stroke: rgb(255, 127, 14); stroke-opacity: 1; stroke-width: 2px; opacity: 1;"/></g><g class="points"/><g class="text"/></g><g class="trace scatter trace9f776f" style="stroke-miterlimit: 2; opacity: 1;"><g class="fills"/><g class="errorbars"/><g class="lines"><path class="js-line" d="M0,175.21L3.11,413.25L6.22,413.25L9.33,231.82L12.44,346.88L31.11,325.06L34.22,321.48L40.44,315.39L43.55,314.07L49.77,308.44L52.88,305.69L55.99,302.16L59.1,300.27L62.21,297.38L65.32,295.57L68.43,293.75L71.54,290.46L74.65,289.64L77.76,287.43L87.1,279.88L90.21,277.8L93.32,274.25L96.43,273.22L105.76,264.38L108.87,262.91L111.98,262.11L115.09,259.61L118.2,254.95L121.31,253.9L124.42,249.94L127.53,248.61L130.64,247.55L133.75,243.12L143.09,236.04L146.2,232.31L152.42,226.96L155.53,226.07L161.75,220.02L164.86,215.06L174.19,207.34L177.3,205.14L183.52,199.35L186.63,195.06L189.74,195.36L192.85,188.56L195.96,185.27L199.08,180.1L202.19,179.25L205.3,176.15L220.85,156.92L223.96,151.68L227.07,148.57L230.18,147.57L239.51,131.54L242.62,127.51L245.73,126.68L248.84,123.78L255.07,111.58L258.18,109.8L261.29,103.3L264.4,99.44L270.62,91.69L273.73,82.82L276.84,80.7L279.95,74.47L283.06,68.48L286.17,64.9L289.28,58.43L292.39,55.23L295.5,45.71L298.61,43.39L301.72,38.62L304.83,31.74L307.94,23.02L311.06,32.74L317.28,99.22L320.39,129.7L329.72,233.34L332.83,258.82L342.16,314.65L345.27,329.5L348.38,338.5L351.49,343.69L367.05,367.6L370.16,370.06L376.38,379.65L379.49,382.64L382.6,386.32L385.71,388.12L388.82,390.17L391.93,390.88L401.26,390.74L404.37,393.13L407.48,393.17L410.59,394.4L416.81,396.15L419.92,398.89L426.15,400.43L429.26,401.2L441.7,401.86L444.81,402.27L460.36,405.4L463.47,405.46L475.91,406.98L479.03,407.16L485.25,407.68L488.36,407.83L494.58,408.27L497.69,408.32L503.91,409.12L507.02,408.96L516.35,410.03L519.46,409.77L528.79,410.42L531.9,410.39L541.24,411.09L544.35,410.96L556.79,411.5L559.9,411.5L581.67,411.92L584.78,412.13L594.12,411.93L597.23,412L612.78,412.39L615.89,412.24L619,412.49" style="vector-effect: non-scaling-stroke; fill: none; stroke: rgb(44, 160, 44); stroke-opacity: 1; stroke-width: 2px; opacity: 1;"/></g><g class="points"/><g class="text"/></g><g class="trace scatter trace5e495d" style="stroke-miterlimit: 2; opacity: 1;"><g class="fills"/><g class="errorbars"/><g class="lines"><path class="js-line" d="M0,175.21L3.11,413.25L6.22,413.25L9.33,231.82L12.44,346.88L31.11,325.06L34.22,321.48L40.44,315.39L43.55,314.07L49.77,308.44L52.88,305.69L55.99,302.16L59.1,300.27L62.21,297.38L65.32,295.57L68.43,293.75L71.54,290.46L74.65,289.64L77.76,287.43L87.1,279.88L90.21,277.8L93.32,274.25L96.43,273.22L105.76,264.38L108.87,262.91L111.98,262.11L115.09,259.61L118.2,254.95L121.31,253.9L124.42,249.94L127.53,248.61L130.64,247.55L133.75,243.12L143.09,236.04L146.2,232.31L152.42,226.96L155.53,226.07L161.75,220.02L164.86,215.06L174.19,207.34L177.3,205.14L183.52,199.35L186.63,195.06L189.74,195.36L192.85,188.56L195.96,185.27L199.08,180.1L202.19,179.25L205.3,176.15L220.85,156.92L223.96,151.68L227.07,148.57L230.18,147.57L239.51,131.54L242.62,127.51L245.73,126.68L248.84,123.78L255.07,111.58L258.18,109.8L261.29,103.3L264.4,99.44L270.62,91.69L273.73,82.82L276.84,80.7L279.95,74.47L283.06,68.48L286.17,64.9L289.28,58.43L292.39,55.23L295.5,45.71L298.61,43.39L301.72,38.62L304.83,31.74L307.94,23.02L311.06,24.34L323.5,154.5L326.61,188.98L329.72,222.18L332.83,245.71L339.05,291.08L342.16,309.45L348.38,334.26L351.49,337.72L354.6,339.99L357.71,343.37L360.82,347.55L363.93,350.35L373.27,366.22L376.38,370.98L388.82,384.78L391.93,386L401.26,383.85L404.37,385.36L410.59,386.8L413.7,388.56L419.92,391.14L423.04,393.58L429.26,396.83L432.37,396.59L438.59,397.62L441.7,396.12L472.8,403.29L475.91,403.67L479.03,404.27L482.14,403.91L488.36,404.66L491.47,404.67L494.58,404.66L497.69,405.71L507.02,406.42L510.13,406.87L531.9,408.29L535.02,408.8L538.13,408.58L541.24,409.14L553.68,409.47L556.79,409.45L563.01,410.15L566.12,410.22L578.56,410.7L581.67,410.48L587.89,410.86L591.01,411.11L619,411.48" style="vector-effect: non-scaling-stroke; fill: none; stroke: rgb(214, 39, 40); stroke-opacity: 1; stroke-width: 2px; opacity: 1;"/></g><g class="points"/><g class="text"/></g><g class="trace scatter tracebe7476" style="stroke-miterlimit: 2; opacity: 1;"><g class="fills"/><g class="errorbars"/><g class="lines"><path class="js-line" d="M0,175.21L3.11,413.25L6.22,413.25L9.33,231.82L12.44,346.88L31.11,325.06L34.22,321.48L40.44,315.39L43.55,314.07L49.77,308.44L52.88,305.69L55.99,302.16L59.1,300.27L62.21,297.38L65.32,295.57L68.43,293.75L71.54,290.46L74.65,289.64L77.76,287.43L87.1,279.88L90.21,277.8L93.32,274.25L96.43,273.22L105.76,264.38L108.87,262.91L111.98,262.11L115.09,259.61L118.2,254.95L121.31,253.9L124.42,249.94L127.53,248.61L130.64,247.55L133.75,243.12L143.09,236.04L146.2,232.31L152.42,226.96L155.53,226.07L161.75,220.02L164.86,215.06L174.19,207.34L177.3,205.14L183.52,199.35L186.63,195.06L189.74,195.36L192.85,188.56L195.96,185.27L199.08,180.1L202.19,179.25L205.3,176.15L220.85,156.92L223.96,151.68L227.07,148.57L230.18,147.57L239.51,131.54L242.62,127.51L245.73,126.68L248.84,123.78L255.07,111.58L258.18,109.8L261.29,103.3L264.4,99.44L270.62,91.69L273.73,82.82L276.84,80.7L279.95,74.47L283.06,68.48L286.17,64.9L289.28,58.43L292.39,55.23L295.5,45.71L298.61,43.39L301.72,38.62L304.83,31.74L307.94,23.02L311.06,22.06L314.17,37.65L317.28,66.28L320.39,95.43L323.5,132.79L335.94,254.36L339.05,273.56L342.16,295.54L345.27,310.09L348.38,324.02L351.49,330.83L357.71,330.26L360.82,329.71L370.16,339.09L373.27,344.55L376.38,351.75L379.49,356.88L385.71,367.71L388.82,370.62L395.04,375.47L398.15,374.49L401.26,371.75L404.37,370.92L407.48,371.5L410.59,371.07L413.7,371.81L416.81,375.02L419.92,376L423.04,378.36L429.26,382.12L432.37,385.7L435.48,386.93L438.59,387.02L454.14,386.01L457.25,386.99L460.36,388.72L463.47,389.23L479.03,395.9L482.14,396.11L488.36,396.21L491.47,396.78L494.58,395.64L497.69,396.6L507.02,397.54L510.13,398.57L528.79,401.72L531.9,401.73L538.13,401.97L541.24,403.11L547.46,402.84L550.57,402.86L559.9,403.61L563.01,404.31L584.78,406.01L587.89,406.06L597.23,405.71L600.34,406.26L609.67,406.46L612.78,407.19L619,407.68" style="vector-effect: non-scaling-stroke; fill: none; stroke: rgb(148, 103, 189); stroke-opacity: 1; stroke-width: 2px; opacity: 1;"/></g><g class="points"/><g class="text"/></g><g class="trace scatter trace8acd4f" style="stroke-miterlimit: 2; opacity: 1;"><g class="fills"/><g class="errorbars"/><g class="lines"><path class="js-line" d="M0,175.15L3.11,413.25L6.22,413.25L9.33,231.82L12.44,346.88L31.11,325.06L34.22,321.48L40.44,315.39L43.55,314.07L49.77,308.44L52.88,305.69L55.99,302.16L59.1,300.27L62.21,297.38L65.32,295.57L68.43,293.75L71.54,290.46L74.65,289.64L77.76,287.43L87.1,279.88L90.21,277.8L93.32,274.25L96.43,273.22L105.76,264.38L108.87,262.91L111.98,262.11L115.09,259.61L118.2,254.95L121.31,253.9L124.42,249.94L127.53,248.61L130.64,247.55L133.75,243.12L143.09,236.04L146.2,232.31L152.42,226.96L155.53,226.07L161.75,220.02L164.86,215.06L174.19,207.34L177.3,205.14L183.52,199.35L186.63,195.06L189.74,195.36L192.85,188.56L195.96,185.27L199.08,180.1L202.19,179.25L205.3,176.15L220.85,156.92L223.96,151.68L227.07,148.57L230.18,147.57L239.51,131.54L242.62,127.51L245.73,126.68L248.84,123.78L255.07,111.58L258.18,109.8L261.29,103.3L264.4,99.44L270.62,91.69L273.73,82.82L276.84,80.7L279.95,74.47L283.06,68.48L286.17,64.9L289.28,58.43L292.39,55.23L295.5,45.71L298.61,43.39L301.72,38.62L304.83,31.74L307.94,23.02L311.06,21.75L314.17,28.59L317.28,48.88L323.5,103.88L326.61,139.06L332.83,204.47L335.94,231.35L342.16,278.35L345.27,294.02L348.38,310.44L351.49,321.09L354.6,323.83L357.71,322.39L360.82,319.77L363.93,318.28L367.05,316.56L370.16,319.62L373.27,322.58L376.38,328.97L379.49,333.62L382.6,341.09L388.82,353.2L391.93,357.29L398.15,363.09L401.26,361.95L404.37,361.39L407.48,358.79L413.7,356.85L416.81,356.02L423.04,359.49L426.15,361.6L432.37,367.79L435.48,369.69L441.7,374.59L444.81,376.88L447.92,374.78L451.03,375.22L454.14,373.22L457.25,374.24L466.58,374.51L469.69,375.45L472.8,376.45L475.91,379.67L479.03,378.7L482.14,381.29L485.25,381.99L488.36,383.8L510.13,385.35L513.24,386.05L519.46,387.57L522.57,388.19L528.79,389.86L531.9,389.78L544.35,392.35L547.46,392.28L556.79,391.91L559.9,392.61L566.12,394.36L569.23,393.47L572.34,394.42L575.45,393.92L578.56,396.05L581.67,395.85L584.78,395.5L587.89,396L591.01,397.22L594.12,396.83L603.45,396.53L606.56,397.72L615.89,398.57L619,398.36" style="vector-effect: non-scaling-stroke; fill: none; stroke: rgb(140, 86, 75); stroke-opacity: 1; stroke-width: 2px; opacity: 1;"/></g><g class="points"/><g class="text"/></g></g></g><g class="overplot"/><path class="xlines-above crisp" style="fill: none;" d="M0,0"/><path class="ylines-above crisp" style="fill: none;" d="M0,0"/><g class="overlines-above"/><g class="xaxislayer-above"><g class="xtick"><text text-anchor="middle" x="0" y="473" transform="translate(212.42,0)" style="font-family: 'Open Sans', verdana, arial, sans-serif; font-size: 12px; fill: rgb(68, 68, 68); fill-opacity: 1; white-space: pre;">50</text></g><g class="xtick"><text text-anchor="middle" x="0" y="473" transform="translate(367.94,0)" style="font-family: 'Open Sans', verdana, arial, sans-serif; font-size: 12px; fill: rgb(68, 68, 68); fill-opacity: 1; white-space: pre;">100</text></g><g class="xtick"><text text-anchor="middle" x="0" y="473" transform="translate(523.47,0)" style="font-family: 'Open Sans', verdana, arial, sans-serif; font-size: 12px; fill: rgb(68, 68, 68); fill-opacity: 1; white-space: pre;">150</text></g><g class="xtick"><text text-anchor="middle" x="0" y="473" transform="translate(679,0)" style="font-family: 'Open Sans', verdana, arial, sans-serif; font-size: 12px; fill: rgb(68, 68, 68); fill-opacity: 1; white-space: pre;">200</text></g></g><g class="yaxislayer-above"><g class="ytick"><text text-anchor="end" x="59" y="4.199999999999999" transform="translate(0,438.25)" style="font-family: 'Open Sans', verdana, arial, sans-serif; font-size: 12px; fill: rgb(68, 68, 68); fill-opacity: 1; white-space: pre;">0</text></g><g class="ytick"><text text-anchor="end" x="59" y="4.199999999999999" transform="translate(0,359.43)" style="font-family: 'Open Sans', verdana, arial, sans-serif; font-size: 12px; fill: rgb(68, 68, 68); fill-opacity: 1; white-space: pre;">50</text></g><g class="ytick"><text text-anchor="end" x="59" y="4.199999999999999" transform="translate(0,280.61)" style="font-family: 'Open Sans', verdana, arial, sans-serif; font-size: 12px; fill: rgb(68, 68, 68); fill-opacity: 1; white-space: pre;">100</text></g><g class="ytick"><text text-anchor="end" x="59" y="4.199999999999999" transform="translate(0,201.78)" style="font-family: 'Open Sans', verdana, arial, sans-serif; font-size: 12px; fill: rgb(68, 68, 68); fill-opacity: 1; white-space: pre;">150</text></g><g class="ytick"><text text-anchor="end" x="59" y="4.199999999999999" transform="translate(0,122.96)" style="font-family: 'Open Sans', verdana, arial, sans-serif; font-size: 12px; fill: rgb(68, 68, 68); fill-opacity: 1; white-space: pre;">200</text></g><g class="ytick"><text text-anchor="end" x="59" y="4.199999999999999" transform="translate(0,44.14)" style="font-family: 'Open Sans', verdana, arial, sans-serif; font-size: 12px; fill: rgb(68, 68, 68); fill-opacity: 1; white-space: pre;">250</text></g></g><g class="overaxes-above"/></g></g><g class="polarlayer"/><g class="ternarylayer"/><g class="geolayer"/><g class="funnelarealayer"/><g class="pielayer"/><g class="treemaplayer"/><g class="sunburstlayer"/><g class="glimages"/><defs id="topdefs-67e11a"><g class="clips"/><clipPath id="legend67e11a"><rect width="117" height="140" x="0" y="0"/></clipPath></defs><g class="layer-above"><g class="imagelayer"/><g class="shapelayer"/></g><g class="infolayer"><g class="legend" pointer-events="all" transform="translate(90.95, 46.750000000000014)"><rect class="bg" shape-rendering="crispEdges" style="stroke: rgb(68, 68, 68); stroke-opacity: 1; fill: rgb(226, 226, 226); fill-opacity: 1; stroke-width: 0px;" width="117" height="140" x="0" y="0"/><g class="scrollbox" transform="translate(0, 0)" clip-path="url('#legend67e11a')"><text class="legendtitletext user-select-none" text-anchor="start" x="2" y="15.600000000000001" style="font-family: 'Open Sans', verdana, arial, sans-serif; font-size: 12px; fill: rgb(68, 68, 68); fill-opacity: 1; white-space: pre;"><tspan style="font-weight:bold"> Identification Time </tspan></text><g class="groups"><g class="traces" transform="translate(0, 30.1)" style="opacity: 1;"><text class="legendtext user-select-none" text-anchor="start" x="40" y="4.680000000000001" style="font-family: 'Open Sans', verdana, arial, sans-serif; font-size: 12px; fill: rgb(68, 68, 68); fill-opacity: 1; white-space: pre;">0 Months</text><g class="layers" style="opacity: 1;"><g class="legendfill"/><g class="legendlines"><path class="js-line" d="M5,0h30" style="fill: none; stroke: rgb(31, 119, 180); stroke-opacity: 1; stroke-width: 2px;"/></g><g class="legendsymbols"><g class="legendpoints"/></g></g><rect class="legendtoggle" pointer-events="all" x="0" y="-9.5" width="98.046875" height="19" style="cursor: pointer; fill: rgb(0, 0, 0); fill-opacity: 0;"/></g><g class="traces" transform="translate(0, 49.1)" style="opacity: 1;"><text class="legendtext user-select-none" text-anchor="start" x="40" y="4.680000000000001" style="font-family: 'Open Sans', verdana, arial, sans-serif; font-size: 12px; fill: rgb(68, 68, 68); fill-opacity: 1; white-space: pre;">3 Months</text><g class="layers" style="opacity: 1;"><g class="legendfill"/><g class="legendlines"><path class="js-line" d="M5,0h30" style="fill: none; stroke: rgb(255, 127, 14); stroke-opacity: 1; stroke-width: 2px;"/></g><g class="legendsymbols"><g class="legendpoints"/></g></g><rect class="legendtoggle" pointer-events="all" x="0" y="-9.5" width="98.046875" height="19" style="cursor: pointer; fill: rgb(0, 0, 0); fill-opacity: 0;"/></g><g class="traces" transform="translate(0, 68.1)" style="opacity: 1;"><text class="legendtext user-select-none" text-anchor="start" x="40" y="4.680000000000001" style="font-family: 'Open Sans', verdana, arial, sans-serif; font-size: 12px; fill: rgb(68, 68, 68); fill-opacity: 1; white-space: pre;">6 Months</text><g class="layers" style="opacity: 1;"><g class="legendfill"/><g class="legendlines"><path class="js-line" d="M5,0h30" style="fill: none; stroke: rgb(44, 160, 44); stroke-opacity: 1; stroke-width: 2px;"/></g><g class="legendsymbols"><g class="legendpoints"/></g></g><rect class="legendtoggle" pointer-events="all" x="0" y="-9.5" width="98.046875" height="19" style="cursor: pointer; fill: rgb(0, 0, 0); fill-opacity: 0;"/></g><g class="traces" transform="translate(0, 87.1)" style="opacity: 1;"><text class="legendtext user-select-none" text-anchor="start" x="40" y="4.680000000000001" style="font-family: 'Open Sans', verdana, arial, sans-serif; font-size: 12px; fill: rgb(68, 68, 68); fill-opacity: 1; white-space: pre;">12 Months</text><g class="layers" style="opacity: 1;"><g class="legendfill"/><g class="legendlines"><path class="js-line" d="M5,0h30" style="fill: none; stroke: rgb(214, 39, 40); stroke-opacity: 1; stroke-width: 2px;"/></g><g class="legendsymbols"><g class="legendpoints"/></g></g><rect class="legendtoggle" pointer-events="all" x="0" y="-9.5" width="98.046875" height="19" style="cursor: pointer; fill: rgb(0, 0, 0); fill-opacity: 0;"/></g><g class="traces" transform="translate(0, 106.1)" style="opacity: 1;"><text class="legendtext user-select-none" text-anchor="start" x="40" y="4.680000000000001" style="font-family: 'Open Sans', verdana, arial, sans-serif; font-size: 12px; fill: rgb(68, 68, 68); fill-opacity: 1; white-space: pre;">24 Months</text><g class="layers" style="opacity: 1;"><g class="legendfill"/><g class="legendlines"><path class="js-line" d="M5,0h30" style="fill: none; stroke: rgb(148, 103, 189); stroke-opacity: 1; stroke-width: 2px;"/></g><g class="legendsymbols"><g class="legendpoints"/></g></g><rect class="legendtoggle" pointer-events="all" x="0" y="-9.5" width="98.046875" height="19" style="cursor: pointer; fill: rgb(0, 0, 0); fill-opacity: 0;"/></g><g class="traces" transform="translate(0, 125.1)" style="opacity: 1;"><text class="legendtext user-select-none" text-anchor="start" x="40" y="4.680000000000001" style="font-family: 'Open Sans', verdana, arial, sans-serif; font-size: 12px; fill: rgb(68, 68, 68); fill-opacity: 1; white-space: pre;">36 Months</text><g class="layers" style="opacity: 1;"><g class="legendfill"/><g class="legendlines"><path class="js-line" d="M5,0h30" style="fill: none; stroke: rgb(140, 86, 75); stroke-opacity: 1; stroke-width: 2px;"/></g><g class="legendsymbols"><g class="legendpoints"/></g></g><rect class="legendtoggle" pointer-events="all" x="0" y="-9.5" width="98.046875" height="19" style="cursor: pointer; fill: rgb(0, 0, 0); fill-opacity: 0;"/></g></g></g><rect class="scrollbar" rx="20" ry="3" width="0" height="0" style="fill: rgb(128, 139, 164); fill-opacity: 1;" x="0" y="0"/></g><g class="g-gtitle"><text class="gtitle" x="350" y="12.5" text-anchor="middle" dy="0em" style="font-family: 'Open Sans', verdana, arial, sans-serif; font-size: 17px; fill: rgb(68, 68, 68); opacity: 1; font-weight: normal; white-space: pre;"><tspan style="font-weight:bold"> Leprosy Incidence - Immunity Vaccine 0.0, Treatment 95% </tspan></text></g><g class="g-xtitle" transform="translate(0,-15)"><text class="xtitle" x="369.5" y="512" text-anchor="middle" style="font-family: 'Open Sans', verdana, arial, sans-serif; font-size: 14px; fill: rgb(68, 68, 68); opacity: 1; font-weight: normal; white-space: pre;">Time(Years)</text></g><g class="g-ytitle"><text class="ytitle" transform="rotate(-90,22,242.5)" x="22" y="242.5" text-anchor="middle" style="font-family: 'Open Sans', verdana, arial, sans-serif; font-size: 14px; fill: rgb(68, 68, 68); opacity: 1; font-weight: normal; white-space: pre;">Number of new infectiuos individuals</text></g></g></svg>