<svg class="main-svg" xmlns="http://www.w3.org/2000/svg" xmlns:xlink="http://www.w3.org/1999/xlink" width="700" height="500" style="" viewBox="0 0 700 500"><rect x="0" y="0" width="700" height="500" style="fill: rgb(255, 255, 255); fill-opacity: 1;"/><defs id="defs-ff30bb"><g class="clips"><clipPath id="clipff30bbxyplot" class="plotclip"><rect width="619" height="435"/></clipPath><clipPath class="axesclip" id="clipff30bbx"><rect x="60" y="0" width="619" height="500"/></clipPath><clipPath class="axesclip" id="clipff30bby"><rect x="0" y="25" width="700" height="435"/></clipPath><clipPath class="axesclip" id="clipff30bbxy"><rect x="60" y="25" width="619" height="435"/></clipPath></g><g class="gradients"/></defs><g class="bglayer"/><g class="layer-below"><g class="imagelayer"/><g class="shapelayer"/></g><g class="cartesianlayer"><g class="subplot xy"><g class="layer-subplot"><g class="shapelayer"/><g class="imagelayer"/></g><g class="gridlayer"><g class="x"><path class="xgrid crisp" transform="translate(212.42,0)" d="M0,25v435" style="stroke: rgb(238, 238, 238); stroke-opacity: 1; stroke-width: 1px;"/><path class="xgrid crisp" transform="translate(367.94,0)" d="M0,25v435" style="stroke: rgb(238, 238, 238); stroke-opacity: 1; stroke-width: 1px;"/><path class="xgrid crisp" transform="translate(523.47,0)" d="M0,25v435" style="stroke: rgb(238, 238, 238); stroke-opacity: 1; stroke-width: 1px;"/></g><g class="y"><path class="ygrid crisp" transform="translate(0,360.4)" d="M60,0h619" style="stroke: rgb(238, 238, 238); stroke-opacity: 1; stroke-width: 1px;"/><path class="ygrid crisp" transform="translate(0,282.54)" d="M60,0h619" style="stroke: rgb(238, 238, 238); stroke-opacity: 1; stroke-width: 1px;"/><path class="ygrid crisp" transform="translate(0,204.69)" d="M60,0h619" style="stroke: rgb(238, 238, 238); stroke-opacity: 1; stroke-width: 1px;"/><path class="ygrid crisp" transform="translate(0,126.83)" d="M60,0h619" style="stroke: rgb(238, 238, 238); stroke-opacity: 1; stroke-width: 1px;"/><path class="ygrid crisp" transform="translate(0,48.980000000000004)" d="M60,0h619" style="stroke: rgb(238, 238, 238); stroke-opacity: 1; stroke-width: 1px;"/></g></g><g class="zerolinelayer"><path class="yzl zl crisp" transform="translate(0,438.25)" d="M60,0h619" style="stroke: rgb(68, 68, 68); stroke-opacity: 1; stroke-width: 1px;"/></g><path class="xlines-below"/><path class="ylines-below"/><g class="overlines-below"/><g class="xaxislayer-below"/><g class="yaxislayer-below"/><g class="overaxes-below"/><g class="plot" transform="translate(60, 25)" clip-path="url('#clipff30bbxyplot')"><g class="scatterlayer mlayer"><g class="trace scatter trace3433c3" style="stroke-miterlimit: 2; opacity: 1;"><g class="fills"/><g class="errorbars"/><g class="lines"><path class="js-line" d="M0,177.98L3.11,413.25L6.22,413.25L9.33,234.04L12.44,347.7L31.11,326.15L34.22,322.6L40.44,316.59L43.55,315.29L49.77,309.73L52.88,307.01L55.99,303.52L59.1,301.66L62.21,298.8L65.32,297.01L68.43,295.21L71.54,291.97L74.65,291.16L77.76,288.98L87.1,281.52L90.21,279.46L93.32,275.95L96.43,274.93L105.76,266.21L108.87,264.75L111.98,263.96L115.09,261.5L118.2,256.89L121.31,255.86L124.42,251.94L127.53,250.63L130.64,249.58L133.75,245.21L143.09,238.22L146.2,234.53L152.42,229.25L155.53,228.37L161.75,222.39L164.86,217.49L174.19,209.87L177.3,207.69L183.52,201.98L186.63,197.73L189.74,198.03L192.85,191.32L195.96,188.07L199.08,182.96L202.19,182.12L205.3,179.06L220.85,160.07L223.96,154.89L227.07,151.81L230.18,150.83L239.51,135L242.62,131.01L245.73,130.19L248.84,127.34L255.07,115.28L258.18,113.53L261.29,107.1L264.4,103.29L270.62,95.63L273.73,86.88L276.84,84.78L279.95,78.63L283.06,72.71L286.17,69.17L289.28,62.78L292.39,59.63L295.5,50.22L298.61,47.93L301.72,43.21L304.83,36.42L307.94,27.81L311.06,31.03L314.17,37.07L317.28,38.79L320.39,47.87L323.5,81.67L329.72,109.08L332.83,120.89L339.05,143L342.16,154.35L345.27,165.96L348.38,181.14L354.6,191.26L357.71,196.17L360.82,200.75L363.93,203.65L367.05,210.49L370.16,215.06L376.38,225.97L379.49,228.89L382.6,231.65L385.71,236.63L391.93,246.1L395.04,247.75L398.15,253.15L401.26,256.05L407.48,263.75L410.59,264.1L413.7,265.99L416.81,270.44L419.92,273.94L423.04,276.02L429.26,281.84L432.37,282.98L435.48,288.84L438.59,288.05L441.7,291.52L444.81,293.73L451.03,297.1L454.14,300.58L460.36,301.96L463.47,304.04L466.58,306.54L469.69,306.44L472.8,307.01L475.91,309.84L479.03,312.61L482.14,312.14L488.36,315.35L491.47,315.69L500.8,320.34L503.91,319.59L507.02,321.32L510.13,320.97L513.24,323.89L516.35,322.16L519.46,324.66L522.57,324.23L535.02,327.52L538.13,327.34L541.24,328.79L544.35,328.77L547.46,330.59L550.57,330.54L553.68,329.93L556.79,330.23L559.9,331.5L563.01,331.11L566.12,333.29L569.23,333.67L575.45,333.64L578.56,332.07L581.67,334.33L584.78,335.15L587.89,333.72L591.01,335.08L594.12,333.75L597.23,334.04L600.34,335.32L603.45,335.34L612.78,337.2L615.89,338.22L619,336.57" style="vector-effect: non-scaling-stroke; fill: none; stroke: rgb(31, 119, 180); stroke-opacity: 1; stroke-width: 2px; opacity: 1;"/></g><g class="points"/><g class="text"/></g><g class="trace scatter trace337d66" style="stroke-miterlimit: 2; opacity: 1;"><g class="fills"/><g class="errorbars"/><g class="lines"><path class="js-line" d="M0,177.9L3.11,413.25L6.22,413.25L9.33,234.04L12.44,347.7L31.11,326.15L34.22,322.6L40.44,316.59L43.55,315.29L49.77,309.73L52.88,307.01L55.99,303.52L59.1,301.66L62.21,298.8L65.32,297.01L68.43,295.21L71.54,291.97L74.65,291.16L77.76,288.98L87.1,281.52L90.21,279.46L93.32,275.95L96.43,274.93L105.76,266.21L108.87,264.75L111.98,263.96L115.09,261.5L118.2,256.89L121.31,255.86L124.42,251.94L127.53,250.63L130.64,249.58L133.75,245.21L143.09,238.22L146.2,234.53L152.42,229.25L155.53,228.37L161.75,222.39L164.86,217.49L174.19,209.87L177.3,207.69L183.52,201.98L186.63,197.73L189.74,198.03L192.85,191.32L195.96,188.07L199.08,182.96L202.19,182.12L205.3,179.06L220.85,160.07L223.96,154.89L227.07,151.81L230.18,150.83L239.51,135L242.62,131.01L245.73,130.19L248.84,127.34L255.07,115.28L258.18,113.53L261.29,107.1L264.4,103.29L270.62,95.63L273.73,86.88L276.84,84.78L279.95,78.63L283.06,72.71L286.17,69.17L289.28,62.78L292.39,59.63L295.5,50.22L298.61,47.93L301.72,43.21L304.83,36.42L307.94,27.81L311.06,27.32L314.17,35.58L317.28,36.43L320.39,44.73L323.5,77.24L329.72,106.95L332.83,117.54L335.94,127.38L339.05,140.07L348.38,175.09L351.49,180.01L357.71,193.53L360.82,198.65L363.93,201.88L367.05,206.43L370.16,212.6L373.27,214.43L379.49,224.77L382.6,228.35L385.71,232.99L388.82,236.18L391.93,244.69L395.04,243.9L398.15,249.89L401.26,251.83L407.48,260.51L410.59,264.03L419.92,271.06L423.04,274.65L438.59,285.84L441.7,289.64L447.92,294.23L451.03,293.4L454.14,296.57L457.25,297.89L460.36,301.01L463.47,300.49L469.69,306.12L472.8,306.94L475.91,307.07L479.03,309.49L482.14,311.32L485.25,311.43L488.36,313.86L491.47,314.44L494.58,316.13L497.69,315.96L503.91,317.47L507.02,318.68L510.13,320.46L513.24,320.06L516.35,320.68L519.46,320.47L522.57,322.52L525.68,323.08L528.79,323.3L531.9,325.14L535.02,324.34L538.13,326.04L541.24,327.18L544.35,326.73L547.46,328.75L550.57,327.8L556.79,328.83L559.9,327.64L572.34,329.94L575.45,329.1L581.67,329.91L584.78,331.42L587.89,333.41L591.01,331.08L594.12,330.9L597.23,331.82L600.34,331.64L603.45,333.71L609.67,332.78L612.78,331.35L615.89,333.59L619,333.83" style="vector-effect: non-scaling-stroke; fill: none; stroke: rgb(255, 127, 14); stroke-opacity: 1; stroke-width: 2px; opacity: 1;"/></g><g class="points"/><g class="text"/></g><g class="trace scatter trace71e36b" style="stroke-miterlimit: 2; opacity: 1;"><g class="fills"/><g class="errorbars"/><g class="lines"><path class="js-line" d="M0,177.83L3.11,413.25L6.22,413.25L9.33,234.04L12.44,347.7L31.11,326.15L34.22,322.6L40.44,316.59L43.55,315.29L49.77,309.73L52.88,307.01L55.99,303.52L59.1,301.66L62.21,298.8L65.32,297.01L68.43,295.21L71.54,291.97L74.65,291.16L77.76,288.98L87.1,281.52L90.21,279.46L93.32,275.95L96.43,274.93L105.76,266.21L108.87,264.75L111.98,263.96L115.09,261.5L118.2,256.89L121.31,255.86L124.42,251.94L127.53,250.63L130.64,249.58L133.75,245.21L143.09,238.22L146.2,234.53L152.42,229.25L155.53,228.37L161.75,222.39L164.86,217.49L174.19,209.87L177.3,207.69L183.52,201.98L186.63,197.73L189.74,198.03L192.85,191.32L195.96,188.07L199.08,182.96L202.19,182.12L205.3,179.06L220.85,160.07L223.96,154.89L227.07,151.81L230.18,150.83L239.51,135L242.62,131.01L245.73,130.19L248.84,127.34L255.07,115.28L258.18,113.53L261.29,107.1L264.4,103.29L270.62,95.63L273.73,86.88L276.84,84.78L279.95,78.63L283.06,72.71L286.17,69.17L289.28,62.78L292.39,59.63L295.5,50.22L298.61,47.93L301.72,43.21L304.83,36.42L307.94,27.81L311.06,28.34L314.17,35.54L317.28,36.65L320.39,41.77L323.5,76.45L329.72,103.75L332.83,114.3L342.16,149.96L345.27,162.58L354.6,186.91L357.71,193.79L363.93,200.85L367.05,206.64L370.16,209.56L373.27,211.37L376.38,219.12L379.49,223.94L385.71,232.9L388.82,235.74L395.04,245.88L398.15,246.67L401.26,252.18L404.37,255.02L407.48,255.16L410.59,259.89L413.7,266.13L416.81,265.89L419.92,270.33L423.04,271.5L426.15,273.77L429.26,277.47L432.37,281.81L435.48,282.82L438.59,284.48L441.7,285.18L444.81,289.35L447.92,291.34L451.03,294.11L454.14,293.81L457.25,297.57L460.36,297.47L463.47,299.38L466.58,300.02L472.8,305.1L475.91,304.16L479.03,307.21L482.14,306.41L485.25,309.06L488.36,309.49L494.58,311.74L497.69,313.74L507.02,316.25L510.13,317.98L516.35,318.59L519.46,319.99L525.68,321.46L528.79,323.55L531.9,322.11L535.02,323.63L538.13,325.78L541.24,324.99L544.35,326.12L547.46,323.55L550.57,326.04L553.68,324.29L556.79,327.05L559.9,328.76L563.01,329.14L566.12,327.05L572.34,328.9L575.45,330.17L578.56,328.89L581.67,328.47L584.78,330.31L587.89,330.6L591.01,331.02L594.12,329.03L597.23,331.4L600.34,331.05L606.56,331.25L609.67,330.49L612.78,332.44L615.89,330.16L619,333.24" style="vector-effect: non-scaling-stroke; fill: none; stroke: rgb(44, 160, 44); stroke-opacity: 1; stroke-width: 2px; opacity: 1;"/></g><g class="points"/><g class="text"/></g><g class="trace scatter trace798f3a" style="stroke-miterlimit: 2; opacity: 1;"><g class="fills"/><g class="errorbars"/><g class="lines"><path class="js-line" d="M0,177.93L3.11,413.25L6.22,413.25L9.33,234.04L12.44,347.7L31.11,326.15L34.22,322.6L40.44,316.59L43.55,315.29L49.77,309.73L52.88,307.01L55.99,303.52L59.1,301.66L62.21,298.8L65.32,297.01L68.43,295.21L71.54,291.97L74.65,291.16L77.76,288.98L87.1,281.52L90.21,279.46L93.32,275.95L96.43,274.93L105.76,266.21L108.87,264.75L111.98,263.96L115.09,261.5L118.2,256.89L121.31,255.86L124.42,251.94L127.53,250.63L130.64,249.58L133.75,245.21L143.09,238.22L146.2,234.53L152.42,229.25L155.53,228.37L161.75,222.39L164.86,217.49L174.19,209.87L177.3,207.69L183.52,201.98L186.63,197.73L189.74,198.03L192.85,191.32L195.96,188.07L199.08,182.96L202.19,182.12L205.3,179.06L220.85,160.07L223.96,154.89L227.07,151.81L230.18,150.83L239.51,135L242.62,131.01L245.73,130.19L248.84,127.34L255.07,115.28L258.18,113.53L261.29,107.1L264.4,103.29L270.62,95.63L273.73,86.88L276.84,84.78L279.95,78.63L283.06,72.71L286.17,69.17L289.28,62.78L292.39,59.63L295.5,50.22L298.61,47.93L301.72,43.21L304.83,36.42L307.94,27.81L311.06,25.41L317.28,33.47L320.39,39.34L323.5,73.51L326.61,82.62L332.83,108.64L335.94,121.6L345.27,156.1L348.38,165.08L354.6,178.79L357.71,185.14L363.93,196.71L367.05,199.8L370.16,206.12L373.27,207.85L379.49,218.23L382.6,222.51L388.82,231.45L391.93,236.34L395.04,238.83L398.15,240.14L401.26,246.15L404.37,248.45L410.59,254.43L413.7,256.22L416.81,261.5L419.92,263.22L426.15,269.22L429.26,269.9L432.37,274.65L435.48,274.63L441.7,280.59L444.81,282.63L451.03,286.95L454.14,288.44L463.47,293.41L466.58,293.86L472.8,297L475.91,300L482.14,300.11L485.25,302.1L488.36,303.3L491.47,303.58L494.58,306.1L497.69,306L500.8,307.83L503.91,307.89L510.13,310.77L513.24,311.74L519.46,313.99L522.57,312.92L525.68,313.56L528.79,315.29L531.9,316.47L535.02,314.98L538.13,315.45L541.24,317.54L544.35,316.92L547.46,318.73L550.57,317.6L553.68,318.7L559.9,319.19L563.01,320.5L569.23,321.76L572.34,320.41L575.45,321.69L578.56,321.16L581.67,322.38L584.78,321.01L591.01,322.19L594.12,320.94L597.23,321.19L600.34,323.69L603.45,323.94L606.56,323.1L609.67,324.42L612.78,323.52L619,323.46" style="vector-effect: non-scaling-stroke; fill: none; stroke: rgb(214, 39, 40); stroke-opacity: 1; stroke-width: 2px; opacity: 1;"/></g><g class="points"/><g class="text"/></g><g class="trace scatter trace840d68" style="stroke-miterlimit: 2; opacity: 1;"><g class="fills"/><g class="errorbars"/><g class="lines"><path class="js-line" d="M0,177.8L3.11,413.25L6.22,413.25L9.33,234.04L12.44,347.7L31.11,326.15L34.22,322.6L40.44,316.59L43.55,315.29L49.77,309.73L52.88,307.01L55.99,303.52L59.1,301.66L62.21,298.8L65.32,297.01L68.43,295.21L71.54,291.97L74.65,291.16L77.76,288.98L87.1,281.52L90.21,279.46L93.32,275.95L96.43,274.93L105.76,266.21L108.87,264.75L111.98,263.96L115.09,261.5L118.2,256.89L121.31,255.86L124.42,251.94L127.53,250.63L130.64,249.58L133.75,245.21L143.09,238.22L146.2,234.53L152.42,229.25L155.53,228.37L161.75,222.39L164.86,217.49L174.19,209.87L177.3,207.69L183.52,201.98L186.63,197.73L189.74,198.03L192.85,191.32L195.96,188.07L199.08,182.96L202.19,182.12L205.3,179.06L220.85,160.07L223.96,154.89L227.07,151.81L230.18,150.83L239.51,135L242.62,131.01L245.73,130.19L248.84,127.34L255.07,115.28L258.18,113.53L261.29,107.1L264.4,103.29L270.62,95.63L273.73,86.88L276.84,84.78L279.95,78.63L283.06,72.71L286.17,69.17L289.28,62.78L292.39,59.63L295.5,50.22L298.61,47.93L301.72,43.21L304.83,36.42L307.94,27.81L311.06,24.66L314.17,23.09L317.28,28.12L320.39,31.72L323.5,63.92L326.61,74.28L329.72,89.35L335.94,107.96L339.05,122.8L348.38,155.13L351.49,161.96L354.6,172.97L357.71,176.84L363.93,187.76L367.05,191L370.16,195.27L373.27,202.19L376.38,205.81L379.49,207.43L382.6,213.67L385.71,215.13L391.93,225.34L395.04,229.64L398.15,234.38L401.26,236.11L404.37,243.08L407.48,242.29L410.59,248.27L413.7,250.78L416.81,254.05L419.92,255.52L423.04,258.69L426.15,260.69L429.26,264.6L432.37,264.2L435.48,269.56L438.59,270.11L444.81,274.86L447.92,279.19L451.03,279.29L454.14,282.09L457.25,282.35L460.36,285.31L466.58,286.12L469.69,289.25L475.91,291.55L479.03,291.6L482.14,291.98L485.25,293.21L488.36,296.16L491.47,296.85L500.8,300.1L503.91,298.94L510.13,302.03L513.24,301.72L516.35,302.46L519.46,304.43L522.57,305.46L525.68,305.01L528.79,305.66L531.9,305.51L538.13,307.61L541.24,307.37L550.57,309.08L553.68,308.36L559.9,308.71L563.01,311.06L566.12,309.72L569.23,311.66L578.56,310.88L581.67,311.18L584.78,310.91L587.89,313.35L591.01,313.07L594.12,311.6L597.23,310.76L600.34,311.1L603.45,313.25L606.56,313.46L615.89,311.86L619,312.47" style="vector-effect: non-scaling-stroke; fill: none; stroke: rgb(148, 103, 189); stroke-opacity: 1; stroke-width: 2px; opacity: 1;"/></g><g class="points"/><g class="text"/></g><g class="trace scatter tracedd27bb" style="stroke-miterlimit: 2; opacity: 1;"><g class="fills"/><g class="errorbars"/><g class="lines"><path class="js-line" d="M0,177.83L3.11,413.25L6.22,413.25L9.33,234.04L12.44,347.7L31.11,326.15L34.22,322.6L40.44,316.59L43.55,315.29L49.77,309.73L52.88,307.01L55.99,303.52L59.1,301.66L62.21,298.8L65.32,297.01L68.43,295.21L71.54,291.97L74.65,291.16L77.76,288.98L87.1,281.52L90.21,279.46L93.32,275.95L96.43,274.93L105.76,266.21L108.87,264.75L111.98,263.96L115.09,261.5L118.2,256.89L121.31,255.86L124.42,251.94L127.53,250.63L130.64,249.58L133.75,245.21L143.09,238.22L146.2,234.53L152.42,229.25L155.53,228.37L161.75,222.39L164.86,217.49L174.19,209.87L177.3,207.69L183.52,201.98L186.63,197.73L189.74,198.03L192.85,191.32L195.96,188.07L199.08,182.96L202.19,182.12L205.3,179.06L220.85,160.07L223.96,154.89L227.07,151.81L230.18,150.83L239.51,135L242.62,131.01L245.73,130.19L248.84,127.34L255.07,115.28L258.18,113.53L261.29,107.1L264.4,103.29L270.62,95.63L273.73,86.88L276.84,84.78L279.95,78.63L283.06,72.71L286.17,69.17L289.28,62.78L292.39,59.63L295.5,50.22L298.61,47.93L301.72,43.21L304.83,36.42L307.94,27.81L311.06,25.1L314.17,24.45L317.28,21.75L320.39,25.25L323.5,57.38L332.83,89.48L335.94,103.75L342.16,123.86L345.27,135.73L351.49,153.66L354.6,161.07L357.71,167.38L360.82,176.31L363.93,177.41L367.05,183.36L370.16,185.6L373.27,190.94L376.38,195.16L379.49,201.1L382.6,205.26L385.71,206.26L388.82,213.69L391.93,215.21L395.04,222.53L398.15,221.79L401.26,228.46L404.37,232.67L407.48,233.42L410.59,237.98L413.7,238.19L416.81,241.58L419.92,244.52L423.04,248.81L426.15,251.76L429.26,253.31L432.37,254.21L435.48,257.19L441.7,263.19L444.81,263.15L447.92,266.41L451.03,267.42L454.14,270.34L457.25,274.79L463.47,275.63L466.58,276.88L469.69,277.32L472.8,280.58L475.91,279.14L479.03,281.2L482.14,284.43L485.25,282.94L491.47,286.6L494.58,287.36L497.69,289.27L500.8,287.59L503.91,289.8L507.02,289.29L510.13,290.62L513.24,292.92L519.46,295.09L522.57,294.06L525.68,295.39L528.79,294.72L531.9,296.38L535.02,296.51L538.13,295.67L541.24,296.37L544.35,298.06L547.46,297.29L553.68,299.15L556.79,297.68L559.9,297.57L563.01,298.69L569.23,299.47L572.34,299.96L578.56,298.44L581.67,300.23L584.78,298.44L587.89,298.38L591.01,299.15L594.12,298.03L597.23,299.27L600.34,298.06L603.45,300.09L606.56,300.67L612.78,298.99L615.89,300.23L619,297.73" style="vector-effect: non-scaling-stroke; fill: none; stroke: rgb(140, 86, 75); stroke-opacity: 1; stroke-width: 2px; opacity: 1;"/></g><g class="points"/><g class="text"/></g></g></g><g class="overplot"/><path class="xlines-above crisp" style="fill: none;" d="M0,0"/><path class="ylines-above crisp" style="fill: none;" d="M0,0"/><g class="overlines-above"/><g class="xaxislayer-above"><g class="xtick"><text text-anchor="middle" x="0" y="473" transform="translate(212.42,0)" style="font-family: 'Open Sans', verdana, arial, sans-serif; font-size: 12px; fill: rgb(68, 68, 68); fill-opacity: 1; white-space: pre;">50</text></g><g class="xtick"><text text-anchor="middle" x="0" y="473" transform="translate(367.94,0)" style="font-family: 'Open Sans', verdana, arial, sans-serif; font-size: 12px; fill: rgb(68, 68, 68); fill-opacity: 1; white-space: pre;">100</text></g><g class="xtick"><text text-anchor="middle" x="0" y="473" transform="translate(523.47,0)" style="font-family: 'Open Sans', verdana, arial, sans-serif; font-size: 12px; fill: rgb(68, 68, 68); fill-opacity: 1; white-space: pre;">150</text></g><g class="xtick"><text text-anchor="middle" x="0" y="473" transform="translate(679,0)" style="font-family: 'Open Sans', verdana, arial, sans-serif; font-size: 12px; fill: rgb(68, 68, 68); fill-opacity: 1; white-space: pre;">200</text></g></g><g class="yaxislayer-above"><g class="ytick"><text text-anchor="end" x="59" y="4.199999999999999" transform="translate(0,438.25)" style="font-family: 'Open Sans', verdana, arial, sans-serif; font-size: 12px; fill: rgb(68, 68, 68); fill-opacity: 1; white-space: pre;">0</text></g><g class="ytick"><text text-anchor="end" x="59" y="4.199999999999999" transform="translate(0,360.4)" style="font-family: 'Open Sans', verdana, arial, sans-serif; font-size: 12px; fill: rgb(68, 68, 68); fill-opacity: 1; white-space: pre;">50</text></g><g class="ytick"><text text-anchor="end" x="59" y="4.199999999999999" transform="translate(0,282.54)" style="font-family: 'Open Sans', verdana, arial, sans-serif; font-size: 12px; fill: rgb(68, 68, 68); fill-opacity: 1; white-space: pre;">100</text></g><g class="ytick"><text text-anchor="end" x="59" y="4.199999999999999" transform="translate(0,204.69)" style="font-family: 'Open Sans', verdana, arial, sans-serif; font-size: 12px; fill: rgb(68, 68, 68); fill-opacity: 1; white-space: pre;">150</text></g><g class="ytick"><text text-anchor="end" x="59" y="4.199999999999999" transform="translate(0,126.83)" style="font-family: 'Open Sans', verdana, arial, sans-serif; font-size: 12px; fill: rgb(68, 68, 68); fill-opacity: 1; white-space: pre;">200</text></g><g class="ytick"><text text-anchor="end" x="59" y="4.199999999999999" transform="translate(0,48.980000000000004)" style="font-family: 'Open Sans', verdana, arial, sans-serif; font-size: 12px; fill: rgb(68, 68, 68); fill-opacity: 1; white-space: pre;">250</text></g></g><g class="overaxes-above"/></g></g><g class="polarlayer"/><g class="ternarylayer"/><g class="geolayer"/><g class="funnelarealayer"/><g class="pielayer"/><g class="treemaplayer"/><g class="sunburstlayer"/><g class="glimages"/><defs id="topdefs-ff30bb"><g class="clips"/><clipPath id="legendff30bb"><rect width="117" height="140" x="0" y="0"/></clipPath></defs><g class="layer-above"><g class="imagelayer"/><g class="shapelayer"/></g><g class="infolayer"><g class="legend" pointer-events="all" transform="translate(90.95, 46.750000000000014)"><rect class="bg" shape-rendering="crispEdges" style="stroke: rgb(68, 68, 68); stroke-opacity: 1; fill: rgb(226, 226, 226); fill-opacity: 1; stroke-width: 0px;" width="117" height="140" x="0" y="0"/><g class="scrollbox" transform="translate(0, 0)" clip-path="url('#legendff30bb')"><text class="legendtitletext user-select-none" text-anchor="start" x="2" y="15.600000000000001" style="font-family: 'Open Sans', verdana, arial, sans-serif; font-size: 12px; fill: rgb(68, 68, 68); fill-opacity: 1; white-space: pre;"><tspan style="font-weight:bold"> Identification Time </tspan></text><g class="groups"><g class="traces" transform="translate(0, 30.1)" style="opacity: 1;"><text class="legendtext user-select-none" text-anchor="start" x="40" y="4.680000000000001" style="font-family: 'Open Sans', verdana, arial, sans-serif; font-size: 12px; fill: rgb(68, 68, 68); fill-opacity: 1; white-space: pre;">0 Months</text><g class="layers" style="opacity: 1;"><g class="legendfill"/><g class="legendlines"><path class="js-line" d="M5,0h30" style="fill: none; stroke: rgb(31, 119, 180); stroke-opacity: 1; stroke-width: 2px;"/></g><g class="legendsymbols"><g class="legendpoints"/></g></g><rect class="legendtoggle" pointer-events="all" x="0" y="-9.5" width="98.046875" height="19" style="cursor: pointer; fill: rgb(0, 0, 0); fill-opacity: 0;"/></g><g class="traces" transform="translate(0, 49.1)" style="opacity: 1;"><text class="legendtext user-select-none" text-anchor="start" x="40" y="4.680000000000001" style="font-family: 'Open Sans', verdana, arial, sans-serif; font-size: 12px; fill: rgb(68, 68, 68); fill-opacity: 1; white-space: pre;">3 Months</text><g class="layers" style="opacity: 1;"><g class="legendfill"/><g class="legendlines"><path class="js-line" d="M5,0h30" style="fill: none; stroke: rgb(255, 127, 14); stroke-opacity: 1; stroke-width: 2px;"/></g><g class="legendsymbols"><g class="legendpoints"/></g></g><rect class="legendtoggle" pointer-events="all" x="0" y="-9.5" width="98.046875" height="19" style="cursor: pointer; fill: rgb(0, 0, 0); fill-opacity: 0;"/></g><g class="traces" transform="translate(0, 68.1)" style="opacity: 1;"><text class="legendtext user-select-none" text-anchor="start" x="40" y="4.680000000000001" style="font-family: 'Open Sans', verdana, arial, sans-serif; font-size: 12px; fill: rgb(68, 68, 68); fill-opacity: 1; white-space: pre;">6 Months</text><g class="layers" style="opacity: 1;"><g class="legendfill"/><g class="legendlines"><path class="js-line" d="M5,0h30" style="fill: none; stroke: rgb(44, 160, 44); stroke-opacity: 1; stroke-width: 2px;"/></g><g class="legendsymbols"><g class="legendpoints"/></g></g><rect class="legendtoggle" pointer-events="all" x="0" y="-9.5" width="98.046875" height="19" style="cursor: pointer; fill: rgb(0, 0, 0); fill-opacity: 0;"/></g><g class="traces" transform="translate(0, 87.1)" style="opacity: 1;"><text class="legendtext user-select-none" text-anchor="start" x="40" y="4.680000000000001" style="font-family: 'Open Sans', verdana, arial, sans-serif; font-size: 12px; fill: rgb(68, 68, 68); fill-opacity: 1; white-space: pre;">12 Months</text><g class="layers" style="opacity: 1;"><g class="legendfill"/><g class="legendlines"><path class="js-line" d="M5,0h30" style="fill: none; stroke: rgb(214, 39, 40); stroke-opacity: 1; stroke-width: 2px;"/></g><g class="legendsymbols"><g class="legendpoints"/></g></g><rect class="legendtoggle" pointer-events="all" x="0" y="-9.5" width="98.046875" height="19" style="cursor: pointer; fill: rgb(0, 0, 0); fill-opacity: 0;"/></g><g class="traces" transform="translate(0, 106.1)" style="opacity: 1;"><text class="legendtext user-select-none" text-anchor="start" x="40" y="4.680000000000001" style="font-family: 'Open Sans', verdana, arial, sans-serif; font-size: 12px; fill: rgb(68, 68, 68); fill-opacity: 1; white-space: pre;">24 Months</text><g class="layers" style="opacity: 1;"><g class="legendfill"/><g class="legendlines"><path class="js-line" d="M5,0h30" style="fill: none; stroke: rgb(148, 103, 189); stroke-opacity: 1; stroke-width: 2px;"/></g><g class="legendsymbols"><g class="legendpoints"/></g></g><rect class="legendtoggle" pointer-events="all" x="0" y="-9.5" width="98.046875" height="19" style="cursor: pointer; fill: rgb(0, 0, 0); fill-opacity: 0;"/></g><g class="traces" transform="translate(0, 125.1)" style="opacity: 1;"><text class="legendtext user-select-none" text-anchor="start" x="40" y="4.680000000000001" style="font-family: 'Open Sans', verdana, arial, sans-serif; font-size: 12px; fill: rgb(68, 68, 68); fill-opacity: 1; white-space: pre;">36 Months</text><g class="layers" style="opacity: 1;"><g class="legendfill"/><g class="legendlines"><path class="js-line" d="M5,0h30" style="fill: none; stroke: rgb(140, 86, 75); stroke-opacity: 1; stroke-width: 2px;"/></g><g class="legendsymbols"><g class="legendpoints"/></g></g><rect class="legendtoggle" pointer-events="all" x="0" y="-9.5" width="98.046875" height="19" style="cursor: pointer; fill: rgb(0, 0, 0); fill-opacity: 0;"/></g></g></g><rect class="scrollbar" rx="20" ry="3" width="0" height="0" style="fill: rgb(128, 139, 164); fill-opacity: 1;" x="0" y="0"/></g><g class="g-gtitle"><text class="gtitle" x="350" y="12.5" text-anchor="middle" dy="0em" style="font-family: 'Open Sans', verdana, arial, sans-serif; font-size: 17px; fill: rgb(68, 68, 68); opacity: 1; font-weight: normal; white-space: pre;"><tspan style="font-weight:bold"> Leprosy Incidence - Immunity Vaccine 0.99, Treatment 25% </tspan></text></g><g class="g-xtitle" transform="translate(0,-15)"><text class="xtitle" x="369.5" y="512" text-anchor="middle" style="font-family: 'Open Sans', verdana, arial, sans-serif; font-size: 14px; fill: rgb(68, 68, 68); opacity: 1; font-weight: normal; white-space: pre;">Time(Years)</text></g><g class="g-ytitle"><text class="ytitle" transform="rotate(-90,22,242.5)" x="22" y="242.5" text-anchor="middle" style="font-family: 'Open Sans', verdana, arial, sans-serif; font-size: 14px; fill: rgb(68, 68, 68); opacity: 1; font-weight: normal; white-space: pre;">Number of new infectiuos individuals</text></g></g></svg>