<svg class="main-svg" xmlns="http://www.w3.org/2000/svg" xmlns:xlink="http://www.w3.org/1999/xlink" width="700" height="500" style="" viewBox="0 0 700 500"><rect x="0" y="0" width="700" height="500" style="fill: rgb(255, 255, 255); fill-opacity: 1;"/><defs id="defs-54081d"><g class="clips"><clipPath id="clip54081dxyplot" class="plotclip"><rect width="619" height="435"/></clipPath><clipPath class="axesclip" id="clip54081dx"><rect x="60" y="0" width="619" height="500"/></clipPath><clipPath class="axesclip" id="clip54081dy"><rect x="0" y="25" width="700" height="435"/></clipPath><clipPath class="axesclip" id="clip54081dxy"><rect x="60" y="25" width="619" height="435"/></clipPath></g><g class="gradients"/></defs><g class="bglayer"/><g class="layer-below"><g class="imagelayer"/><g class="shapelayer"/></g><g class="cartesianlayer"><g class="subplot xy"><g class="layer-subplot"><g class="shapelayer"/><g class="imagelayer"/></g><g class="gridlayer"><g class="x"><path class="xgrid crisp" transform="translate(212.42,0)" d="M0,25v435" style="stroke: rgb(238, 238, 238); stroke-opacity: 1; stroke-width: 1px;"/><path class="xgrid crisp" transform="translate(367.94,0)" d="M0,25v435" style="stroke: rgb(238, 238, 238); stroke-opacity: 1; stroke-width: 1px;"/><path class="xgrid crisp" transform="translate(523.47,0)" d="M0,25v435" style="stroke: rgb(238, 238, 238); stroke-opacity: 1; stroke-width: 1px;"/></g><g class="y"><path class="ygrid crisp" transform="translate(0,359.76)" d="M60,0h619" style="stroke: rgb(238, 238, 238); stroke-opacity: 1; stroke-width: 1px;"/><path class="ygrid crisp" transform="translate(0,281.26)" d="M60,0h619" style="stroke: rgb(238, 238, 238); stroke-opacity: 1; stroke-width: 1px;"/><path class="ygrid crisp" transform="translate(0,202.77)" d="M60,0h619" style="stroke: rgb(238, 238, 238); stroke-opacity: 1; stroke-width: 1px;"/><path class="ygrid crisp" transform="translate(0,124.27)" d="M60,0h619" style="stroke: rgb(238, 238, 238); stroke-opacity: 1; stroke-width: 1px;"/><path class="ygrid crisp" transform="translate(0,45.78)" d="M60,0h619" style="stroke: rgb(238, 238, 238); stroke-opacity: 1; stroke-width: 1px;"/></g></g><g class="zerolinelayer"><path class="yzl zl crisp" transform="translate(0,438.25)" d="M60,0h619" style="stroke: rgb(68, 68, 68); stroke-opacity: 1; stroke-width: 1px;"/></g><path class="xlines-below"/><path class="ylines-below"/><g class="overlines-below"/><g class="xaxislayer-below"/><g class="yaxislayer-below"/><g class="overaxes-below"/><g class="plot" transform="translate(60, 25)" clip-path="url('#clip54081dxyplot')"><g class="scatterlayer mlayer"><g class="trace scatter trace7a37a2" style="stroke-miterlimit: 2; opacity: 1;"><g class="fills"/><g class="errorbars"/><g class="lines"><path class="js-line" d="M0,175.94L3.11,413.25L6.22,413.25L9.33,232.57L12.44,347.16L31.11,325.43L34.22,321.86L40.44,315.8L43.55,314.48L49.77,308.88L52.88,306.14L55.99,302.62L59.1,300.74L62.21,297.86L65.32,296.06L68.43,294.24L71.54,290.97L74.65,290.15L77.76,287.96L87.1,280.44L90.21,278.36L93.32,274.82L96.43,273.8L105.76,265L108.87,263.53L111.98,262.74L115.09,260.25L118.2,255.61L121.31,254.57L124.42,250.62L127.53,249.3L130.64,248.24L133.75,243.83L143.09,236.78L146.2,233.06L152.42,227.74L155.53,226.85L161.75,220.82L164.86,215.88L174.19,208.2L177.3,206L183.52,200.24L186.63,195.96L189.74,196.26L192.85,189.49L195.96,186.22L199.08,181.06L202.19,180.22L205.3,177.13L220.85,157.99L223.96,152.77L227.07,149.66L230.18,148.67L239.51,132.71L242.62,128.69L245.73,127.87L248.84,124.99L255.07,112.83L258.18,111.06L261.29,104.59L264.4,100.74L270.62,93.02L273.73,84.19L276.84,82.08L279.95,75.88L283.06,69.91L286.17,66.34L289.28,59.9L292.39,56.72L295.5,47.24L298.61,44.93L301.72,40.17L304.83,33.32L307.94,24.64L311.06,33.94L320.39,80.79L323.5,101.52L326.61,125.57L329.72,140.97L332.83,160.07L335.94,172.54L342.16,201.6L345.27,212.37L351.49,230.77L354.6,233.03L360.82,237.9L363.93,239.61L367.05,243.62L370.16,244.82L373.27,248.35L376.38,250.38L379.49,251.68L382.6,259.31L385.71,259.82L388.82,261.69L395.04,264.38L398.15,269.78L401.26,268.21L404.37,271.87L407.48,271.34L410.59,272.75L416.81,273.94L419.92,276.05L423.04,276.51L426.15,278.48L429.26,279.24L432.37,281.1L438.59,281.87L441.7,284.75L444.81,284.22L447.92,286.9L454.14,288.4L457.25,285.33L463.47,291.61L466.58,291.57L475.91,294.69L479.03,294.67L482.14,295.99L485.25,295.09L491.47,296.76L494.58,299.38L497.69,297.76L500.8,298.01L503.91,297.85L507.02,299.6L510.13,299.06L513.24,300.35L516.35,300.12L519.46,301.1L522.57,302.5L525.68,300.49L531.9,301.27L535.02,302.08L538.13,302.81L541.24,301.48L544.35,300.88L547.46,302.68L550.57,304.15L553.68,302.49L556.79,303.91L559.9,301.9L569.23,303.73L572.34,303.43L581.67,302.95L584.78,304.34L587.89,303.1L591.01,302.71L594.12,303.81L597.23,302.83L603.45,303.46L606.56,302.91L609.67,305.14L612.78,302.85L615.89,303.2L619,305.74" style="vector-effect: non-scaling-stroke; fill: none; stroke: rgb(31, 119, 180); stroke-opacity: 1; stroke-width: 2px; opacity: 1;"/></g><g class="points"/><g class="text"/></g><g class="trace scatter tracedef829" style="stroke-miterlimit: 2; opacity: 1;"><g class="fills"/><g class="errorbars"/><g class="lines"><path class="js-line" d="M0,175.84L3.11,413.25L6.22,413.25L9.33,232.57L12.44,347.16L31.11,325.43L34.22,321.86L40.44,315.8L43.55,314.48L49.77,308.88L52.88,306.14L55.99,302.62L59.1,300.74L62.21,297.86L65.32,296.06L68.43,294.24L71.54,290.97L74.65,290.15L77.76,287.96L87.1,280.44L90.21,278.36L93.32,274.82L96.43,273.8L105.76,265L108.87,263.53L111.98,262.74L115.09,260.25L118.2,255.61L121.31,254.57L124.42,250.62L127.53,249.3L130.64,248.24L133.75,243.83L143.09,236.78L146.2,233.06L152.42,227.74L155.53,226.85L161.75,220.82L164.86,215.88L174.19,208.2L177.3,206L183.52,200.24L186.63,195.96L189.74,196.26L192.85,189.49L195.96,186.22L199.08,181.06L202.19,180.22L205.3,177.13L220.85,157.99L223.96,152.77L227.07,149.66L230.18,148.67L239.51,132.71L242.62,128.69L245.73,127.87L248.84,124.99L255.07,112.83L258.18,111.06L261.29,104.59L264.4,100.74L270.62,93.02L273.73,84.19L276.84,82.08L279.95,75.88L283.06,69.91L286.17,66.34L289.28,59.9L292.39,56.72L295.5,47.24L298.61,44.93L301.72,40.17L304.83,33.32L307.94,24.64L311.06,32.27L317.28,62.58L320.39,79.86L326.61,118.13L329.72,134.55L335.94,169.68L339.05,181.82L345.27,208.61L348.38,219.24L351.49,226.5L354.6,229.6L360.82,234.93L363.93,235.16L367.05,236.84L370.16,239.45L373.27,241.17L376.38,243.91L379.49,247.7L382.6,249.32L385.71,251.57L388.82,254.82L391.93,258.08L395.04,257.79L398.15,262.11L401.26,260.28L404.37,263.53L407.48,265.48L410.59,267.86L413.7,267.56L416.81,267.94L419.92,269.12L423.04,271.76L426.15,273.18L432.37,273.5L435.48,275.57L438.59,277.93L441.7,278.43L444.81,278.69L447.92,280.52L451.03,278.65L454.14,282.63L457.25,280.95L460.36,282.42L463.47,282.49L466.58,283.55L469.69,285.8L472.8,284.57L485.25,287.16L488.36,287.34L494.58,289.38L497.69,288.86L503.91,290.24L507.02,288.8L510.13,290.92L513.24,290.3L516.35,291.54L519.46,290.13L525.68,292.84L528.79,292.11L531.9,290.34L535.02,293.34L538.13,291.25L541.24,292.38L544.35,291.72L547.46,293.63L550.57,291.98L553.68,294.23L563.01,292.56L566.12,294.73L575.45,293.68L578.56,293.71L581.67,292.47L584.78,292.36L587.89,293.88L591.01,293.51L594.12,291.47L597.23,293.26L600.34,294.28L603.45,293.77L606.56,292.28L609.67,292.53L615.89,291.07L619,290.67" style="vector-effect: non-scaling-stroke; fill: none; stroke: rgb(255, 127, 14); stroke-opacity: 1; stroke-width: 2px; opacity: 1;"/></g><g class="points"/><g class="text"/></g><g class="trace scatter trace771acb" style="stroke-miterlimit: 2; opacity: 1;"><g class="fills"/><g class="errorbars"/><g class="lines"><path class="js-line" d="M0,175.86L3.11,413.25L6.22,413.25L9.33,232.57L12.44,347.16L31.11,325.43L34.22,321.86L40.44,315.8L43.55,314.48L49.77,308.88L52.88,306.14L55.99,302.62L59.1,300.74L62.21,297.86L65.32,296.06L68.43,294.24L71.54,290.97L74.65,290.15L77.76,287.96L87.1,280.44L90.21,278.36L93.32,274.82L96.43,273.8L105.76,265L108.87,263.53L111.98,262.74L115.09,260.25L118.2,255.61L121.31,254.57L124.42,250.62L127.53,249.3L130.64,248.24L133.75,243.83L143.09,236.78L146.2,233.06L152.42,227.74L155.53,226.85L161.75,220.82L164.86,215.88L174.19,208.2L177.3,206L183.52,200.24L186.63,195.96L189.74,196.26L192.85,189.49L195.96,186.22L199.08,181.06L202.19,180.22L205.3,177.13L220.85,157.99L223.96,152.77L227.07,149.66L230.18,148.67L239.51,132.71L242.62,128.69L245.73,127.87L248.84,124.99L255.07,112.83L258.18,111.06L261.29,104.59L264.4,100.74L270.62,93.02L273.73,84.19L276.84,82.08L279.95,75.88L283.06,69.91L286.17,66.34L289.28,59.9L292.39,56.72L295.5,47.24L298.61,44.93L301.72,40.17L304.83,33.32L307.94,24.64L311.06,27.54L320.39,75.2L323.5,93.66L329.72,131.53L332.83,147.65L342.16,189.86L345.27,202.38L348.38,214.41L351.49,221.06L354.6,224.49L357.71,225.99L363.93,234.22L367.05,231.84L373.27,236.21L376.38,238.87L382.6,244.32L385.71,248.58L388.82,250.61L391.93,250.36L398.15,255.31L401.26,256L407.48,258.36L410.59,259.7L413.7,259.68L416.81,262.65L419.92,261.54L423.04,263.21L426.15,265.99L429.26,266.03L432.37,265.78L435.48,267.07L438.59,268.5L441.7,271.22L444.81,271.4L447.92,272.78L451.03,271.97L454.14,272.5L457.25,273.41L460.36,273.43L463.47,275.35L466.58,275.04L475.91,277.46L479.03,278.98L482.14,277.18L485.25,277.97L491.47,281.17L494.58,279.71L497.69,279.68L500.8,281.33L503.91,279.02L507.02,280.99L510.13,280.93L513.24,282.82L516.35,282.66L519.46,283.41L522.57,284.23L525.68,282.82L528.79,280.26L531.9,281.36L535.02,284L538.13,283.34L541.24,282.86L544.35,284.2L547.46,282.28L550.57,283.57L563.01,283.29L566.12,282.12L569.23,281.85L572.34,284.06L575.45,282.09L578.56,283.84L581.67,279.64L584.78,281.72L587.89,281.17L591.01,281.85L594.12,281.48L597.23,279.17L600.34,280.92L603.45,278.62L619,278.61" style="vector-effect: non-scaling-stroke; fill: none; stroke: rgb(44, 160, 44); stroke-opacity: 1; stroke-width: 2px; opacity: 1;"/></g><g class="points"/><g class="text"/></g><g class="trace scatter tracef12469" style="stroke-miterlimit: 2; opacity: 1;"><g class="fills"/><g class="errorbars"/><g class="lines"><path class="js-line" d="M0,175.78L3.11,413.25L6.22,413.25L9.33,232.57L12.44,347.16L31.11,325.43L34.22,321.86L40.44,315.8L43.55,314.48L49.77,308.88L52.88,306.14L55.99,302.62L59.1,300.74L62.21,297.86L65.32,296.06L68.43,294.24L71.54,290.97L74.65,290.15L77.76,287.96L87.1,280.44L90.21,278.36L93.32,274.82L96.43,273.8L105.76,265L108.87,263.53L111.98,262.74L115.09,260.25L118.2,255.61L121.31,254.57L124.42,250.62L127.53,249.3L130.64,248.24L133.75,243.83L143.09,236.78L146.2,233.06L152.42,227.74L155.53,226.85L161.75,220.82L164.86,215.88L174.19,208.2L177.3,206L183.52,200.24L186.63,195.96L189.74,196.26L192.85,189.49L195.96,186.22L199.08,181.06L202.19,180.22L205.3,177.13L220.85,157.99L223.96,152.77L227.07,149.66L230.18,148.67L239.51,132.71L242.62,128.69L245.73,127.87L248.84,124.99L255.07,112.83L258.18,111.06L261.29,104.59L264.4,100.74L270.62,93.02L273.73,84.19L276.84,82.08L279.95,75.88L283.06,69.91L286.17,66.34L289.28,59.9L292.39,56.72L295.5,47.24L298.61,44.93L301.72,40.17L304.83,33.32L307.94,24.64L311.06,27.28L314.17,37.03L317.28,52.5L320.39,67.46L323.5,88.82L329.72,120.36L332.83,142.68L339.05,166.17L342.16,182.98L348.38,206.18L351.49,213.42L357.71,220.8L360.82,221.18L363.93,221.68L367.05,223.72L370.16,225.82L373.27,229.08L376.38,227.67L379.49,232.5L382.6,232.38L385.71,235.21L391.93,241.23L395.04,243.53L404.37,247.63L407.48,247.26L413.7,248.1L416.81,250.37L419.92,251.39L423.04,251.28L429.26,255.74L432.37,254.71L441.7,258.75L444.81,259.97L447.92,261.43L451.03,259.25L457.25,263.29L460.36,263.37L463.47,261.79L466.58,262.46L469.69,264.52L472.8,264.29L479.03,261.57L482.14,263.97L485.25,264.21L488.36,263.43L491.47,262.78L494.58,263.76L497.69,263.42L500.8,264.45L503.91,264.93L507.02,263.58L510.13,265.37L513.24,264.27L516.35,263.72L519.46,264.64L522.57,263.36L525.68,264.06L531.9,263.96L535.02,261.43L544.35,262.03L547.46,260.98L550.57,261.66L553.68,260.35L556.79,262.68L559.9,261.71L566.12,261.17L569.23,260.12L572.34,259.44L575.45,259.71L578.56,261.22L581.67,259.04L591.01,257.75L594.12,258.63L597.23,253.29L600.34,255.96L603.45,256.61L606.56,254.31L609.67,253.74L612.78,254.06L615.89,251.26L619,252.4" style="vector-effect: non-scaling-stroke; fill: none; stroke: rgb(214, 39, 40); stroke-opacity: 1; stroke-width: 2px; opacity: 1;"/></g><g class="points"/><g class="text"/></g><g class="trace scatter tracec3841b" style="stroke-miterlimit: 2; opacity: 1;"><g class="fills"/><g class="errorbars"/><g class="lines"><path class="js-line" d="M0,175.5L3.11,413.25L6.22,413.25L9.33,232.57L12.44,347.16L31.11,325.43L34.22,321.86L40.44,315.8L43.55,314.48L49.77,308.88L52.88,306.14L55.99,302.62L59.1,300.74L62.21,297.86L65.32,296.06L68.43,294.24L71.54,290.97L74.65,290.15L77.76,287.96L87.1,280.44L90.21,278.36L93.32,274.82L96.43,273.8L105.76,265L108.87,263.53L111.98,262.74L115.09,260.25L118.2,255.61L121.31,254.57L124.42,250.62L127.53,249.3L130.64,248.24L133.75,243.83L143.09,236.78L146.2,233.06L152.42,227.74L155.53,226.85L161.75,220.82L164.86,215.88L174.19,208.2L177.3,206L183.52,200.24L186.63,195.96L189.74,196.26L192.85,189.49L195.96,186.22L199.08,181.06L202.19,180.22L205.3,177.13L220.85,157.99L223.96,152.77L227.07,149.66L230.18,148.67L239.51,132.71L242.62,128.69L245.73,127.87L248.84,124.99L255.07,112.83L258.18,111.06L261.29,104.59L264.4,100.74L270.62,93.02L273.73,84.19L276.84,82.08L279.95,75.88L283.06,69.91L286.17,66.34L289.28,59.9L292.39,56.72L295.5,47.24L298.61,44.93L301.72,40.17L304.83,33.32L307.94,24.64L311.06,21.75L314.17,25.83L317.28,36.88L323.5,65.76L326.61,86.1L332.83,122.61L335.94,135.87L345.27,178.97L348.38,186.69L351.49,195.36L354.6,201.49L360.82,203.47L363.93,204.2L367.05,204.86L370.16,203.72L376.38,206.23L379.49,209.88L385.71,213.82L388.82,213.65L391.93,218.39L395.04,219.35L398.15,220.77L401.26,220.38L404.37,221.74L407.48,222.03L410.59,221.5L413.7,223.98L416.81,221.5L419.92,223.19L426.15,223.6L429.26,224.93L432.37,227.69L435.48,227.19L438.59,224.6L441.7,227.81L444.81,224.18L447.92,229.2L451.03,226.75L454.14,227.42L457.25,225.29L460.36,229.22L463.47,226.12L466.58,229.42L472.8,226.13L475.91,227.31L479.03,228.29L482.14,226.06L485.25,225.43L488.36,226.65L491.47,226.21L494.58,223.75L497.69,225.71L500.8,225.25L503.91,225.76L507.02,223.45L510.13,224.01L513.24,223.19L516.35,224.57L519.46,219.12L525.68,222.27L528.79,221.38L531.9,220.02L535.02,219.84L538.13,220.58L541.24,217.77L544.35,217.71L547.46,216.54L550.57,216.84L553.68,215.77L556.79,215.77L559.9,214.11L566.12,213.32L569.23,211.19L572.34,209.23L575.45,210.02L581.67,205.12L584.78,206.71L587.89,208.29L591.01,205.04L594.12,202.06L597.23,202.99L603.45,199.56L606.56,197.94L609.67,198.34L612.78,195.62L615.89,196.38L619,194.61" style="vector-effect: non-scaling-stroke; fill: none; stroke: rgb(148, 103, 189); stroke-opacity: 1; stroke-width: 2px; opacity: 1;"/></g><g class="points"/><g class="text"/></g><g class="trace scatter trace564701" style="stroke-miterlimit: 2; opacity: 1;"><g class="fills"/><g class="errorbars"/><g class="lines"><path class="js-line" d="M0,175.46L3.11,413.25L6.22,413.25L9.33,232.57L12.44,347.16L31.11,325.43L34.22,321.86L40.44,315.8L43.55,314.48L49.77,308.88L52.88,306.14L55.99,302.62L59.1,300.74L62.21,297.86L65.32,296.06L68.43,294.24L71.54,290.97L74.65,290.15L77.76,287.96L87.1,280.44L90.21,278.36L93.32,274.82L96.43,273.8L105.76,265L108.87,263.53L111.98,262.74L115.09,260.25L118.2,255.61L121.31,254.57L124.42,250.62L127.53,249.3L130.64,248.24L133.75,243.83L143.09,236.78L146.2,233.06L152.42,227.74L155.53,226.85L161.75,220.82L164.86,215.88L174.19,208.2L177.3,206L183.52,200.24L186.63,195.96L189.74,196.26L192.85,189.49L195.96,186.22L199.08,181.06L202.19,180.22L205.3,177.13L220.85,157.99L223.96,152.77L227.07,149.66L230.18,148.67L239.51,132.71L242.62,128.69L245.73,127.87L248.84,124.99L255.07,112.83L258.18,111.06L261.29,104.59L264.4,100.74L270.62,93.02L273.73,84.19L276.84,82.08L279.95,75.88L283.06,69.91L286.17,66.34L289.28,59.9L292.39,56.72L295.5,47.24L298.61,44.93L301.72,40.17L304.83,33.32L307.94,24.64L311.06,21.91L314.17,23.78L317.28,29.36L323.5,56.77L326.61,73.08L335.94,117.82L339.05,132.58L351.49,178.86L354.6,183.78L360.82,187.23L363.93,184.2L367.05,189.08L370.16,189.84L373.27,185.81L376.38,188.4L382.6,188.47L385.71,190.35L388.82,192.52L391.93,192.52L395.04,197.99L398.15,197.71L401.26,197.18L404.37,199.15L407.48,197.83L410.59,199.15L413.7,199.67L416.81,195.44L419.92,198.32L423.04,198.57L426.15,197.73L429.26,198.1L438.59,198.1L441.7,198.63L444.81,194.1L447.92,197.18L451.03,197L454.14,197.77L457.25,196.91L460.36,197.82L463.47,196.47L466.58,196.02L469.69,197.87L472.8,196.28L475.91,192.9L479.03,195.31L482.14,192.29L485.25,193.27L488.36,191.66L491.47,191.65L497.69,188.14L500.8,188.9L503.91,185.67L507.02,189.66L510.13,183.65L513.24,182.18L516.35,182.87L519.46,181.29L522.57,183.47L525.68,178.39L528.79,178.15L531.9,178.68L538.13,176.62L541.24,173.98L544.35,174.34L547.46,168.56L550.57,168.47L553.68,167.29L559.9,166.26L563.01,162.34L566.12,162.4L569.23,159.12L572.34,160.38L575.45,157.1L581.67,153.38L584.78,147.08L587.89,148.96L591.01,149.66L594.12,149.3L597.23,145.85L600.34,146.69L603.45,140.28L609.67,138.37L612.78,135.02L615.89,138.5L619,134.07" style="vector-effect: non-scaling-stroke; fill: none; stroke: rgb(140, 86, 75); stroke-opacity: 1; stroke-width: 2px; opacity: 1;"/></g><g class="points"/><g class="text"/></g></g></g><g class="overplot"/><path class="xlines-above crisp" style="fill: none;" d="M0,0"/><path class="ylines-above crisp" style="fill: none;" d="M0,0"/><g class="overlines-above"/><g class="xaxislayer-above"><g class="xtick"><text text-anchor="middle" x="0" y="473" transform="translate(212.42,0)" style="font-family: 'Open Sans', verdana, arial, sans-serif; font-size: 12px; fill: rgb(68, 68, 68); fill-opacity: 1; white-space: pre;">50</text></g><g class="xtick"><text text-anchor="middle" x="0" y="473" transform="translate(367.94,0)" style="font-family: 'Open Sans', verdana, arial, sans-serif; font-size: 12px; fill: rgb(68, 68, 68); fill-opacity: 1; white-space: pre;">100</text></g><g class="xtick"><text text-anchor="middle" x="0" y="473" transform="translate(523.47,0)" style="font-family: 'Open Sans', verdana, arial, sans-serif; font-size: 12px; fill: rgb(68, 68, 68); fill-opacity: 1; white-space: pre;">150</text></g><g class="xtick"><text text-anchor="middle" x="0" y="473" transform="translate(679,0)" style="font-family: 'Open Sans', verdana, arial, sans-serif; font-size: 12px; fill: rgb(68, 68, 68); fill-opacity: 1; white-space: pre;">200</text></g></g><g class="yaxislayer-above"><g class="ytick"><text text-anchor="end" x="59" y="4.199999999999999" transform="translate(0,438.25)" style="font-family: 'Open Sans', verdana, arial, sans-serif; font-size: 12px; fill: rgb(68, 68, 68); fill-opacity: 1; white-space: pre;">0</text></g><g class="ytick"><text text-anchor="end" x="59" y="4.199999999999999" transform="translate(0,359.76)" style="font-family: 'Open Sans', verdana, arial, sans-serif; font-size: 12px; fill: rgb(68, 68, 68); fill-opacity: 1; white-space: pre;">50</text></g><g class="ytick"><text text-anchor="end" x="59" y="4.199999999999999" transform="translate(0,281.26)" style="font-family: 'Open Sans', verdana, arial, sans-serif; font-size: 12px; fill: rgb(68, 68, 68); fill-opacity: 1; white-space: pre;">100</text></g><g class="ytick"><text text-anchor="end" x="59" y="4.199999999999999" transform="translate(0,202.77)" style="font-family: 'Open Sans', verdana, arial, sans-serif; font-size: 12px; fill: rgb(68, 68, 68); fill-opacity: 1; white-space: pre;">150</text></g><g class="ytick"><text text-anchor="end" x="59" y="4.199999999999999" transform="translate(0,124.27)" style="font-family: 'Open Sans', verdana, arial, sans-serif; font-size: 12px; fill: rgb(68, 68, 68); fill-opacity: 1; white-space: pre;">200</text></g><g class="ytick"><text text-anchor="end" x="59" y="4.199999999999999" transform="translate(0,45.78)" style="font-family: 'Open Sans', verdana, arial, sans-serif; font-size: 12px; fill: rgb(68, 68, 68); fill-opacity: 1; white-space: pre;">250</text></g></g><g class="overaxes-above"/></g></g><g class="polarlayer"/><g class="ternarylayer"/><g class="geolayer"/><g class="funnelarealayer"/><g class="pielayer"/><g class="treemaplayer"/><g class="sunburstlayer"/><g class="glimages"/><defs id="topdefs-54081d"><g class="clips"/><clipPath id="legend54081d"><rect width="117" height="140" x="0" y="0"/></clipPath></defs><g class="layer-above"><g class="imagelayer"/><g class="shapelayer"/></g><g class="infolayer"><g class="legend" pointer-events="all" transform="translate(90.95, 46.750000000000014)"><rect class="bg" shape-rendering="crispEdges" style="stroke: rgb(68, 68, 68); stroke-opacity: 1; fill: rgb(226, 226, 226); fill-opacity: 1; stroke-width: 0px;" width="117" height="140" x="0" y="0"/><g class="scrollbox" transform="translate(0, 0)" clip-path="url('#legend54081d')"><text class="legendtitletext user-select-none" text-anchor="start" x="2" y="15.600000000000001" style="font-family: 'Open Sans', verdana, arial, sans-serif; font-size: 12px; fill: rgb(68, 68, 68); fill-opacity: 1; white-space: pre;"><tspan style="font-weight:bold"> Identification Time </tspan></text><g class="groups"><g class="traces" transform="translate(0, 30.1)" style="opacity: 1;"><text class="legendtext user-select-none" text-anchor="start" x="40" y="4.680000000000001" style="font-family: 'Open Sans', verdana, arial, sans-serif; font-size: 12px; fill: rgb(68, 68, 68); fill-opacity: 1; white-space: pre;">0 Months</text><g class="layers" style="opacity: 1;"><g class="legendfill"/><g class="legendlines"><path class="js-line" d="M5,0h30" style="fill: none; stroke: rgb(31, 119, 180); stroke-opacity: 1; stroke-width: 2px;"/></g><g class="legendsymbols"><g class="legendpoints"/></g></g><rect class="legendtoggle" pointer-events="all" x="0" y="-9.5" width="98.046875" height="19" style="cursor: pointer; fill: rgb(0, 0, 0); fill-opacity: 0;"/></g><g class="traces" transform="translate(0, 49.1)" style="opacity: 1;"><text class="legendtext user-select-none" text-anchor="start" x="40" y="4.680000000000001" style="font-family: 'Open Sans', verdana, arial, sans-serif; font-size: 12px; fill: rgb(68, 68, 68); fill-opacity: 1; white-space: pre;">3 Months</text><g class="layers" style="opacity: 1;"><g class="legendfill"/><g class="legendlines"><path class="js-line" d="M5,0h30" style="fill: none; stroke: rgb(255, 127, 14); stroke-opacity: 1; stroke-width: 2px;"/></g><g class="legendsymbols"><g class="legendpoints"/></g></g><rect class="legendtoggle" pointer-events="all" x="0" y="-9.5" width="98.046875" height="19" style="cursor: pointer; fill: rgb(0, 0, 0); fill-opacity: 0;"/></g><g class="traces" transform="translate(0, 68.1)" style="opacity: 1;"><text class="legendtext user-select-none" text-anchor="start" x="40" y="4.680000000000001" style="font-family: 'Open Sans', verdana, arial, sans-serif; font-size: 12px; fill: rgb(68, 68, 68); fill-opacity: 1; white-space: pre;">6 Months</text><g class="layers" style="opacity: 1;"><g class="legendfill"/><g class="legendlines"><path class="js-line" d="M5,0h30" style="fill: none; stroke: rgb(44, 160, 44); stroke-opacity: 1; stroke-width: 2px;"/></g><g class="legendsymbols"><g class="legendpoints"/></g></g><rect class="legendtoggle" pointer-events="all" x="0" y="-9.5" width="98.046875" height="19" style="cursor: pointer; fill: rgb(0, 0, 0); fill-opacity: 0;"/></g><g class="traces" transform="translate(0, 87.1)" style="opacity: 1;"><text class="legendtext user-select-none" text-anchor="start" x="40" y="4.680000000000001" style="font-family: 'Open Sans', verdana, arial, sans-serif; font-size: 12px; fill: rgb(68, 68, 68); fill-opacity: 1; white-space: pre;">12 Months</text><g class="layers" style="opacity: 1;"><g class="legendfill"/><g class="legendlines"><path class="js-line" d="M5,0h30" style="fill: none; stroke: rgb(214, 39, 40); stroke-opacity: 1; stroke-width: 2px;"/></g><g class="legendsymbols"><g class="legendpoints"/></g></g><rect class="legendtoggle" pointer-events="all" x="0" y="-9.5" width="98.046875" height="19" style="cursor: pointer; fill: rgb(0, 0, 0); fill-opacity: 0;"/></g><g class="traces" transform="translate(0, 106.1)" style="opacity: 1;"><text class="legendtext user-select-none" text-anchor="start" x="40" y="4.680000000000001" style="font-family: 'Open Sans', verdana, arial, sans-serif; font-size: 12px; fill: rgb(68, 68, 68); fill-opacity: 1; white-space: pre;">24 Months</text><g class="layers" style="opacity: 1;"><g class="legendfill"/><g class="legendlines"><path class="js-line" d="M5,0h30" style="fill: none; stroke: rgb(148, 103, 189); stroke-opacity: 1; stroke-width: 2px;"/></g><g class="legendsymbols"><g class="legendpoints"/></g></g><rect class="legendtoggle" pointer-events="all" x="0" y="-9.5" width="98.046875" height="19" style="cursor: pointer; fill: rgb(0, 0, 0); fill-opacity: 0;"/></g><g class="traces" transform="translate(0, 125.1)" style="opacity: 1;"><text class="legendtext user-select-none" text-anchor="start" x="40" y="4.680000000000001" style="font-family: 'Open Sans', verdana, arial, sans-serif; font-size: 12px; fill: rgb(68, 68, 68); fill-opacity: 1; white-space: pre;">36 Months</text><g class="layers" style="opacity: 1;"><g class="legendfill"/><g class="legendlines"><path class="js-line" d="M5,0h30" style="fill: none; stroke: rgb(140, 86, 75); stroke-opacity: 1; stroke-width: 2px;"/></g><g class="legendsymbols"><g class="legendpoints"/></g></g><rect class="legendtoggle" pointer-events="all" x="0" y="-9.5" width="98.046875" height="19" style="cursor: pointer; fill: rgb(0, 0, 0); fill-opacity: 0;"/></g></g></g><rect class="scrollbar" rx="20" ry="3" width="0" height="0" style="fill: rgb(128, 139, 164); fill-opacity: 1;" x="0" y="0"/></g><g class="g-gtitle"><text class="gtitle" x="350" y="12.5" text-anchor="middle" dy="0em" style="font-family: 'Open Sans', verdana, arial, sans-serif; font-size: 17px; fill: rgb(68, 68, 68); opacity: 1; font-weight: normal; white-space: pre;"><tspan style="font-weight:bold"> Leprosy Incidence - Immunity Vaccine 0.0, Treatment 50% </tspan></text></g><g class="g-xtitle" transform="translate(0,-15)"><text class="xtitle" x="369.5" y="512" text-anchor="middle" style="font-family: 'Open Sans', verdana, arial, sans-serif; font-size: 14px; fill: rgb(68, 68, 68); opacity: 1; font-weight: normal; white-space: pre;">Time(Years)</text></g><g class="g-ytitle"><text class="ytitle" transform="rotate(-90,22,242.5)" x="22" y="242.5" text-anchor="middle" style="font-family: 'Open Sans', verdana, arial, sans-serif; font-size: 14px; fill: rgb(68, 68, 68); opacity: 1; font-weight: normal; white-space: pre;">Number of new infectiuos individuals</text></g></g></svg>