<svg class="main-svg" xmlns="http://www.w3.org/2000/svg" xmlns:xlink="http://www.w3.org/1999/xlink" width="700" height="500" style="" viewBox="0 0 700 500"><rect x="0" y="0" width="700" height="500" style="fill: rgb(255, 255, 255); fill-opacity: 1;"/><defs id="defs-fbc1c9"><g class="clips"><clipPath id="clipfbc1c9xyplot" class="plotclip"><rect width="619" height="435"/></clipPath><clipPath class="axesclip" id="clipfbc1c9x"><rect x="60" y="0" width="619" height="500"/></clipPath><clipPath class="axesclip" id="clipfbc1c9y"><rect x="0" y="25" width="700" height="435"/></clipPath><clipPath class="axesclip" id="clipfbc1c9xy"><rect x="60" y="25" width="619" height="435"/></clipPath></g><g class="gradients"/></defs><g class="bglayer"/><g class="layer-below"><g class="imagelayer"/><g class="shapelayer"/></g><g class="cartesianlayer"><g class="subplot xy"><g class="layer-subplot"><g class="shapelayer"/><g class="imagelayer"/></g><g class="gridlayer"><g class="x"><path class="xgrid crisp" transform="translate(212.42,0)" d="M0,25v435" style="stroke: rgb(238, 238, 238); stroke-opacity: 1; stroke-width: 1px;"/><path class="xgrid crisp" transform="translate(367.94,0)" d="M0,25v435" style="stroke: rgb(238, 238, 238); stroke-opacity: 1; stroke-width: 1px;"/><path class="xgrid crisp" transform="translate(523.47,0)" d="M0,25v435" style="stroke: rgb(238, 238, 238); stroke-opacity: 1; stroke-width: 1px;"/></g><g class="y"><path class="ygrid crisp" transform="translate(0,359.43)" d="M60,0h619" style="stroke: rgb(238, 238, 238); stroke-opacity: 1; stroke-width: 1px;"/><path class="ygrid crisp" transform="translate(0,280.61)" d="M60,0h619" style="stroke: rgb(238, 238, 238); stroke-opacity: 1; stroke-width: 1px;"/><path class="ygrid crisp" transform="translate(0,201.78)" d="M60,0h619" style="stroke: rgb(238, 238, 238); stroke-opacity: 1; stroke-width: 1px;"/><path class="ygrid crisp" transform="translate(0,122.96)" d="M60,0h619" style="stroke: rgb(238, 238, 238); stroke-opacity: 1; stroke-width: 1px;"/><path class="ygrid crisp" transform="translate(0,44.14)" d="M60,0h619" style="stroke: rgb(238, 238, 238); stroke-opacity: 1; stroke-width: 1px;"/></g></g><g class="zerolinelayer"><path class="yzl zl crisp" transform="translate(0,438.25)" d="M60,0h619" style="stroke: rgb(68, 68, 68); stroke-opacity: 1; stroke-width: 1px;"/></g><path class="xlines-below"/><path class="ylines-below"/><g class="overlines-below"/><g class="xaxislayer-below"/><g class="yaxislayer-below"/><g class="overaxes-below"/><g class="plot" transform="translate(60, 25)" clip-path="url('#clipfbc1c9xyplot')"><g class="scatterlayer mlayer"><g class="trace scatter tracecf3d0d" style="stroke-miterlimit: 2; opacity: 1;"><g class="fills"/><g class="errorbars"/><g class="lines"><path class="js-line" d="M0,175.21L3.11,413.25L6.22,413.25L9.33,231.82L12.44,346.88L31.11,325.06L34.22,321.48L40.44,315.39L43.55,314.07L49.77,308.44L52.88,305.69L55.99,302.16L59.1,300.27L62.21,297.38L65.32,295.57L68.43,293.75L71.54,290.46L74.65,289.64L77.76,287.43L87.1,279.88L90.21,277.8L93.32,274.25L96.43,273.22L105.76,264.38L108.87,262.91L111.98,262.11L115.09,259.61L118.2,254.95L121.31,253.9L124.42,249.94L127.53,248.61L130.64,247.55L133.75,243.12L143.09,236.04L146.2,232.31L152.42,226.96L155.53,226.07L161.75,220.02L164.86,215.06L174.19,207.34L177.3,205.14L183.52,199.35L186.63,195.06L189.74,195.36L192.85,188.56L195.96,185.27L199.08,180.1L202.19,179.25L205.3,176.15L220.85,156.92L223.96,151.68L227.07,148.57L230.18,147.57L239.51,131.54L242.62,127.51L245.73,126.68L248.84,123.78L255.07,111.58L258.18,109.8L261.29,103.3L264.4,99.44L270.62,91.69L273.73,82.82L276.84,80.7L279.95,74.47L283.06,68.48L286.17,64.9L289.28,58.43L292.39,55.23L295.5,45.71L298.61,43.39L301.72,38.62L304.83,31.74L307.94,23.02L311.06,41.93L320.39,141.84L323.5,196.66L329.72,258.99L332.83,281.68L339.05,316.61L342.16,331.59L348.38,353.96L351.49,360.49L357.71,371.15L360.82,375.2L363.93,379.7L367.05,382.81L376.38,391.44L379.49,394.22L385.71,398.42L388.82,399.25L395.04,400.84L398.15,401.99L407.48,403.24L410.59,404.7L413.7,404.98L416.81,406.21L426.15,407.43L429.26,408.04L479.03,411.55L482.14,411.46L491.47,411.87L494.58,412.06L507.02,412.08L510.13,412.18L550.57,412.82L553.68,412.77L587.89,412.93L591.01,412.91L619,412.75" style="vector-effect: non-scaling-stroke; fill: none; stroke: rgb(31, 119, 180); stroke-opacity: 1; stroke-width: 2px; opacity: 1;"/></g><g class="points"/><g class="text"/></g><g class="trace scatter tracee57d02" style="stroke-miterlimit: 2; opacity: 1;"><g class="fills"/><g class="errorbars"/><g class="lines"><path class="js-line" d="M0,175.21L3.11,413.25L6.22,413.25L9.33,231.82L12.44,346.88L31.11,325.06L34.22,321.48L40.44,315.39L43.55,314.07L49.77,308.44L52.88,305.69L55.99,302.16L59.1,300.27L62.21,297.38L65.32,295.57L68.43,293.75L71.54,290.46L74.65,289.64L77.76,287.43L87.1,279.88L90.21,277.8L93.32,274.25L96.43,273.22L105.76,264.38L108.87,262.91L111.98,262.11L115.09,259.61L118.2,254.95L121.31,253.9L124.42,249.94L127.53,248.61L130.64,247.55L133.75,243.12L143.09,236.04L146.2,232.31L152.42,226.96L155.53,226.07L161.75,220.02L164.86,215.06L174.19,207.34L177.3,205.14L183.52,199.35L186.63,195.06L189.74,195.36L192.85,188.56L195.96,185.27L199.08,180.1L202.19,179.25L205.3,176.15L220.85,156.92L223.96,151.68L227.07,148.57L230.18,147.57L239.51,131.54L242.62,127.51L245.73,126.68L248.84,123.78L255.07,111.58L258.18,109.8L261.29,103.3L264.4,99.44L270.62,91.69L273.73,82.82L276.84,80.7L279.95,74.47L283.06,68.48L286.17,64.9L289.28,58.43L292.39,55.23L295.5,45.71L298.61,43.39L301.72,38.62L304.83,31.74L307.94,23.02L311.06,38.46L320.39,133.7L323.5,190.43L326.61,227.41L329.72,253.87L335.94,298.77L339.05,316.29L345.27,342.75L348.38,350.64L351.49,356.03L354.6,363.15L370.16,384.01L373.27,386.57L379.49,393.27L382.6,394.81L385.71,397.32L388.82,398.27L391.93,399.27L395.04,399.27L401.26,399.41L404.37,400.59L407.48,402.07L410.59,402.63L416.81,404.11L419.92,405.02L429.26,406.87L432.37,407L444.81,407.77L447.92,408.38L457.25,409.49L460.36,410.05L469.69,410.38L472.8,410.48L497.69,411.58L500.8,411.58L528.79,412.47L531.9,412.44L578.56,412.77L581.67,412.78L619,412.86" style="vector-effect: non-scaling-stroke; fill: none; stroke: rgb(255, 127, 14); stroke-opacity: 1; stroke-width: 2px; opacity: 1;"/></g><g class="points"/><g class="text"/></g><g class="trace scatter trace31a659" style="stroke-miterlimit: 2; opacity: 1;"><g class="fills"/><g class="errorbars"/><g class="lines"><path class="js-line" d="M0,175.21L3.11,413.25L6.22,413.25L9.33,231.82L12.44,346.88L31.11,325.06L34.22,321.48L40.44,315.39L43.55,314.07L49.77,308.44L52.88,305.69L55.99,302.16L59.1,300.27L62.21,297.38L65.32,295.57L68.43,293.75L71.54,290.46L74.65,289.64L77.76,287.43L87.1,279.88L90.21,277.8L93.32,274.25L96.43,273.22L105.76,264.38L108.87,262.91L111.98,262.11L115.09,259.61L118.2,254.95L121.31,253.9L124.42,249.94L127.53,248.61L130.64,247.55L133.75,243.12L143.09,236.04L146.2,232.31L152.42,226.96L155.53,226.07L161.75,220.02L164.86,215.06L174.19,207.34L177.3,205.14L183.52,199.35L186.63,195.06L189.74,195.36L192.85,188.56L195.96,185.27L199.08,180.1L202.19,179.25L205.3,176.15L220.85,156.92L223.96,151.68L227.07,148.57L230.18,147.57L239.51,131.54L242.62,127.51L245.73,126.68L248.84,123.78L255.07,111.58L258.18,109.8L261.29,103.3L264.4,99.44L270.62,91.69L273.73,82.82L276.84,80.7L279.95,74.47L283.06,68.48L286.17,64.9L289.28,58.43L292.39,55.23L295.5,45.71L298.61,43.39L301.72,38.62L304.83,31.74L307.94,23.02L311.06,32.74L320.39,130.49L323.5,186.44L329.72,251.22L332.83,274.98L335.94,296.65L339.05,311.07L345.27,338.46L348.38,349.97L351.49,352.63L354.6,359.1L357.71,362.23L360.82,366.67L363.93,371.77L367.05,375.27L370.16,381.17L373.27,382.99L379.49,390.38L382.6,392.91L385.71,395.26L388.82,396.35L391.93,396.52L395.04,395.74L398.15,397.26L401.26,397.6L404.37,398.99L407.48,399.2L429.26,405.86L432.37,406.05L435.48,405.45L438.59,405.68L472.8,409.85L475.91,409.77L497.69,410.81L500.8,411.33L522.57,412.02L525.68,411.85L531.9,412.04L535.02,412.08L547.46,412.37L550.57,412.26L563.01,412.63L566.12,412.52L619,412.9" style="vector-effect: non-scaling-stroke; fill: none; stroke: rgb(44, 160, 44); stroke-opacity: 1; stroke-width: 2px; opacity: 1;"/></g><g class="points"/><g class="text"/></g><g class="trace scatter trace0a9825" style="stroke-miterlimit: 2; opacity: 1;"><g class="fills"/><g class="errorbars"/><g class="lines"><path class="js-line" d="M0,175.21L3.11,413.25L6.22,413.25L9.33,231.82L12.44,346.88L31.11,325.06L34.22,321.48L40.44,315.39L43.55,314.07L49.77,308.44L52.88,305.69L55.99,302.16L59.1,300.27L62.21,297.38L65.32,295.57L68.43,293.75L71.54,290.46L74.65,289.64L77.76,287.43L87.1,279.88L90.21,277.8L93.32,274.25L96.43,273.22L105.76,264.38L108.87,262.91L111.98,262.11L115.09,259.61L118.2,254.95L121.31,253.9L124.42,249.94L127.53,248.61L130.64,247.55L133.75,243.12L143.09,236.04L146.2,232.31L152.42,226.96L155.53,226.07L161.75,220.02L164.86,215.06L174.19,207.34L177.3,205.14L183.52,199.35L186.63,195.06L189.74,195.36L192.85,188.56L195.96,185.27L199.08,180.1L202.19,179.25L205.3,176.15L220.85,156.92L223.96,151.68L227.07,148.57L230.18,147.57L239.51,131.54L242.62,127.51L245.73,126.68L248.84,123.78L255.07,111.58L258.18,109.8L261.29,103.3L264.4,99.44L270.62,91.69L273.73,82.82L276.84,80.7L279.95,74.47L283.06,68.48L286.17,64.9L289.28,58.43L292.39,55.23L295.5,45.71L298.61,43.39L301.72,38.62L304.83,31.74L307.94,23.02L311.06,24.34L320.39,120.14L323.5,177.88L329.72,241.89L332.83,267.96L335.94,289.54L339.05,305.57L345.27,337.35L348.38,346.65L351.49,348.65L354.6,352.16L357.71,356.39L360.82,358.94L370.16,371.73L373.27,376.9L376.38,381.89L379.49,385.23L388.82,393.58L391.93,392.73L398.15,392.38L401.26,392.28L404.37,393.86L407.48,394.27L413.7,397.28L416.81,398.43L419.92,400.34L423.04,401.36L432.37,403.48L435.48,403.28L447.92,404.3L451.03,405.02L454.14,405.2L457.25,406.35L472.8,408.48L475.91,408.62L485.25,408.67L488.36,408.91L497.69,409.73L500.8,410.29L510.13,410.8L513.24,410.95L519.46,411.38L522.57,411.15L566.12,412.27L569.23,412.27L587.89,412.3L591.01,412.59L612.78,412.58L615.89,412.7L619,412.71" style="vector-effect: non-scaling-stroke; fill: none; stroke: rgb(214, 39, 40); stroke-opacity: 1; stroke-width: 2px; opacity: 1;"/></g><g class="points"/><g class="text"/></g><g class="trace scatter trace584bcc" style="stroke-miterlimit: 2; opacity: 1;"><g class="fills"/><g class="errorbars"/><g class="lines"><path class="js-line" d="M0,175.21L3.11,413.25L6.22,413.25L9.33,231.82L12.44,346.88L31.11,325.06L34.22,321.48L40.44,315.39L43.55,314.07L49.77,308.44L52.88,305.69L55.99,302.16L59.1,300.27L62.21,297.38L65.32,295.57L68.43,293.75L71.54,290.46L74.65,289.64L77.76,287.43L87.1,279.88L90.21,277.8L93.32,274.25L96.43,273.22L105.76,264.38L108.87,262.91L111.98,262.11L115.09,259.61L118.2,254.95L121.31,253.9L124.42,249.94L127.53,248.61L130.64,247.55L133.75,243.12L143.09,236.04L146.2,232.31L152.42,226.96L155.53,226.07L161.75,220.02L164.86,215.06L174.19,207.34L177.3,205.14L183.52,199.35L186.63,195.06L189.74,195.36L192.85,188.56L195.96,185.27L199.08,180.1L202.19,179.25L205.3,176.15L220.85,156.92L223.96,151.68L227.07,148.57L230.18,147.57L239.51,131.54L242.62,127.51L245.73,126.68L248.84,123.78L255.07,111.58L258.18,109.8L261.29,103.3L264.4,99.44L270.62,91.69L273.73,82.82L276.84,80.7L279.95,74.47L283.06,68.48L286.17,64.9L289.28,58.43L292.39,55.23L295.5,45.71L298.61,43.39L301.72,38.62L304.83,31.74L307.94,23.02L311.06,22.06L314.17,37.94L317.28,63.33L320.39,97.85L323.5,153.56L329.72,223.91L332.83,253.71L342.16,311.55L345.27,328.19L348.38,339.42L351.49,346.25L354.6,345.68L357.71,343.19L360.82,346.27L363.93,347.1L385.71,382.67L388.82,385.95L391.93,387.58L395.04,387.34L398.15,386.52L401.26,384.77L407.48,384.83L410.59,386.28L416.81,388.91L419.92,390.55L423.04,392.49L426.15,395.49L429.26,397.34L432.37,398.26L438.59,398.99L441.7,398.99L447.92,398.16L451.03,398.61L454.14,399.76L457.25,399.87L472.8,404.5L475.91,404.87L488.36,405.9L491.47,405.95L510.13,408.08L513.24,408.28L528.79,409.38L531.9,409.31L581.67,411.48L584.78,411.41L619,411.9" style="vector-effect: non-scaling-stroke; fill: none; stroke: rgb(148, 103, 189); stroke-opacity: 1; stroke-width: 2px; opacity: 1;"/></g><g class="points"/><g class="text"/></g><g class="trace scatter trace9f7a5c" style="stroke-miterlimit: 2; opacity: 1;"><g class="fills"/><g class="errorbars"/><g class="lines"><path class="js-line" d="M0,175.2L3.11,413.25L6.22,413.25L9.33,231.82L12.44,346.88L31.11,325.06L34.22,321.48L40.44,315.39L43.55,314.07L49.77,308.44L52.88,305.69L55.99,302.16L59.1,300.27L62.21,297.38L65.32,295.57L68.43,293.75L71.54,290.46L74.65,289.64L77.76,287.43L87.1,279.88L90.21,277.8L93.32,274.25L96.43,273.22L105.76,264.38L108.87,262.91L111.98,262.11L115.09,259.61L118.2,254.95L121.31,253.9L124.42,249.94L127.53,248.61L130.64,247.55L133.75,243.12L143.09,236.04L146.2,232.31L152.42,226.96L155.53,226.07L161.75,220.02L164.86,215.06L174.19,207.34L177.3,205.14L183.52,199.35L186.63,195.06L189.74,195.36L192.85,188.56L195.96,185.27L199.08,180.1L202.19,179.25L205.3,176.15L220.85,156.92L223.96,151.68L227.07,148.57L230.18,147.57L239.51,131.54L242.62,127.51L245.73,126.68L248.84,123.78L255.07,111.58L258.18,109.8L261.29,103.3L264.4,99.44L270.62,91.69L273.73,82.82L276.84,80.7L279.95,74.47L283.06,68.48L286.17,64.9L289.28,58.43L292.39,55.23L295.5,45.71L298.61,43.39L301.72,38.62L304.83,31.74L307.94,23.02L311.06,21.75L314.17,31.01L317.28,45.95L320.39,76.03L323.5,130.82L329.72,200.33L332.83,231.2L339.05,280.14L342.16,300.98L348.38,330.68L351.49,338.41L354.6,340.97L357.71,341.37L363.93,336.21L367.05,339.18L370.16,340.25L373.27,346.63L379.49,357.07L382.6,363.9L388.82,374.52L391.93,378.24L398.15,381.75L401.26,380.8L410.59,377.49L413.7,378.06L416.81,379.4L419.92,382.19L426.15,385.14L429.26,387.77L435.48,392.24L438.59,393.6L447.92,394.77L451.03,394.17L457.25,394.79L460.36,394.49L479.03,400.02L482.14,402.15L488.36,402.24L491.47,402.6L497.69,403.03L500.8,402.74L510.13,403.8L513.24,404.08L519.46,405.34L522.57,405.36L538.13,407.2L541.24,407.16L556.79,407.9L559.9,408.43L569.23,408.99L572.34,408.98L600.34,410.16L603.45,410.07L619,410.29" style="vector-effect: non-scaling-stroke; fill: none; stroke: rgb(140, 86, 75); stroke-opacity: 1; stroke-width: 2px; opacity: 1;"/></g><g class="points"/><g class="text"/></g></g></g><g class="overplot"/><path class="xlines-above crisp" style="fill: none;" d="M0,0"/><path class="ylines-above crisp" style="fill: none;" d="M0,0"/><g class="overlines-above"/><g class="xaxislayer-above"><g class="xtick"><text text-anchor="middle" x="0" y="473" transform="translate(212.42,0)" style="font-family: 'Open Sans', verdana, arial, sans-serif; font-size: 12px; fill: rgb(68, 68, 68); fill-opacity: 1; white-space: pre;">50</text></g><g class="xtick"><text text-anchor="middle" x="0" y="473" transform="translate(367.94,0)" style="font-family: 'Open Sans', verdana, arial, sans-serif; font-size: 12px; fill: rgb(68, 68, 68); fill-opacity: 1; white-space: pre;">100</text></g><g class="xtick"><text text-anchor="middle" x="0" y="473" transform="translate(523.47,0)" style="font-family: 'Open Sans', verdana, arial, sans-serif; font-size: 12px; fill: rgb(68, 68, 68); fill-opacity: 1; white-space: pre;">150</text></g><g class="xtick"><text text-anchor="middle" x="0" y="473" transform="translate(679,0)" style="font-family: 'Open Sans', verdana, arial, sans-serif; font-size: 12px; fill: rgb(68, 68, 68); fill-opacity: 1; white-space: pre;">200</text></g></g><g class="yaxislayer-above"><g class="ytick"><text text-anchor="end" x="59" y="4.199999999999999" transform="translate(0,438.25)" style="font-family: 'Open Sans', verdana, arial, sans-serif; font-size: 12px; fill: rgb(68, 68, 68); fill-opacity: 1; white-space: pre;">0</text></g><g class="ytick"><text text-anchor="end" x="59" y="4.199999999999999" transform="translate(0,359.43)" style="font-family: 'Open Sans', verdana, arial, sans-serif; font-size: 12px; fill: rgb(68, 68, 68); fill-opacity: 1; white-space: pre;">50</text></g><g class="ytick"><text text-anchor="end" x="59" y="4.199999999999999" transform="translate(0,280.61)" style="font-family: 'Open Sans', verdana, arial, sans-serif; font-size: 12px; fill: rgb(68, 68, 68); fill-opacity: 1; white-space: pre;">100</text></g><g class="ytick"><text text-anchor="end" x="59" y="4.199999999999999" transform="translate(0,201.78)" style="font-family: 'Open Sans', verdana, arial, sans-serif; font-size: 12px; fill: rgb(68, 68, 68); fill-opacity: 1; white-space: pre;">150</text></g><g class="ytick"><text text-anchor="end" x="59" y="4.199999999999999" transform="translate(0,122.96)" style="font-family: 'Open Sans', verdana, arial, sans-serif; font-size: 12px; fill: rgb(68, 68, 68); fill-opacity: 1; white-space: pre;">200</text></g><g class="ytick"><text text-anchor="end" x="59" y="4.199999999999999" transform="translate(0,44.14)" style="font-family: 'Open Sans', verdana, arial, sans-serif; font-size: 12px; fill: rgb(68, 68, 68); fill-opacity: 1; white-space: pre;">250</text></g></g><g class="overaxes-above"/></g></g><g class="polarlayer"/><g class="ternarylayer"/><g class="geolayer"/><g class="funnelarealayer"/><g class="pielayer"/><g class="treemaplayer"/><g class="sunburstlayer"/><g class="glimages"/><defs id="topdefs-fbc1c9"><g class="clips"/><clipPath id="legendfbc1c9"><rect width="117" height="140" x="0" y="0"/></clipPath></defs><g class="layer-above"><g class="imagelayer"/><g class="shapelayer"/></g><g class="infolayer"><g class="legend" pointer-events="all" transform="translate(90.95, 46.750000000000014)"><rect class="bg" shape-rendering="crispEdges" style="stroke: rgb(68, 68, 68); stroke-opacity: 1; fill: rgb(226, 226, 226); fill-opacity: 1; stroke-width: 0px;" width="117" height="140" x="0" y="0"/><g class="scrollbox" transform="translate(0, 0)" clip-path="url('#legendfbc1c9')"><text class="legendtitletext user-select-none" text-anchor="start" x="2" y="15.600000000000001" style="font-family: 'Open Sans', verdana, arial, sans-serif; font-size: 12px; fill: rgb(68, 68, 68); fill-opacity: 1; white-space: pre;"><tspan style="font-weight:bold"> Identification Time </tspan></text><g class="groups"><g class="traces" transform="translate(0, 30.1)" style="opacity: 1;"><text class="legendtext user-select-none" text-anchor="start" x="40" y="4.680000000000001" style="font-family: 'Open Sans', verdana, arial, sans-serif; font-size: 12px; fill: rgb(68, 68, 68); fill-opacity: 1; white-space: pre;">0 Months</text><g class="layers" style="opacity: 1;"><g class="legendfill"/><g class="legendlines"><path class="js-line" d="M5,0h30" style="fill: none; stroke: rgb(31, 119, 180); stroke-opacity: 1; stroke-width: 2px;"/></g><g class="legendsymbols"><g class="legendpoints"/></g></g><rect class="legendtoggle" pointer-events="all" x="0" y="-9.5" width="98.046875" height="19" style="cursor: pointer; fill: rgb(0, 0, 0); fill-opacity: 0;"/></g><g class="traces" transform="translate(0, 49.1)" style="opacity: 1;"><text class="legendtext user-select-none" text-anchor="start" x="40" y="4.680000000000001" style="font-family: 'Open Sans', verdana, arial, sans-serif; font-size: 12px; fill: rgb(68, 68, 68); fill-opacity: 1; white-space: pre;">3 Months</text><g class="layers" style="opacity: 1;"><g class="legendfill"/><g class="legendlines"><path class="js-line" d="M5,0h30" style="fill: none; stroke: rgb(255, 127, 14); stroke-opacity: 1; stroke-width: 2px;"/></g><g class="legendsymbols"><g class="legendpoints"/></g></g><rect class="legendtoggle" pointer-events="all" x="0" y="-9.5" width="98.046875" height="19" style="cursor: pointer; fill: rgb(0, 0, 0); fill-opacity: 0;"/></g><g class="traces" transform="translate(0, 68.1)" style="opacity: 1;"><text class="legendtext user-select-none" text-anchor="start" x="40" y="4.680000000000001" style="font-family: 'Open Sans', verdana, arial, sans-serif; font-size: 12px; fill: rgb(68, 68, 68); fill-opacity: 1; white-space: pre;">6 Months</text><g class="layers" style="opacity: 1;"><g class="legendfill"/><g class="legendlines"><path class="js-line" d="M5,0h30" style="fill: none; stroke: rgb(44, 160, 44); stroke-opacity: 1; stroke-width: 2px;"/></g><g class="legendsymbols"><g class="legendpoints"/></g></g><rect class="legendtoggle" pointer-events="all" x="0" y="-9.5" width="98.046875" height="19" style="cursor: pointer; fill: rgb(0, 0, 0); fill-opacity: 0;"/></g><g class="traces" transform="translate(0, 87.1)" style="opacity: 1;"><text class="legendtext user-select-none" text-anchor="start" x="40" y="4.680000000000001" style="font-family: 'Open Sans', verdana, arial, sans-serif; font-size: 12px; fill: rgb(68, 68, 68); fill-opacity: 1; white-space: pre;">12 Months</text><g class="layers" style="opacity: 1;"><g class="legendfill"/><g class="legendlines"><path class="js-line" d="M5,0h30" style="fill: none; stroke: rgb(214, 39, 40); stroke-opacity: 1; stroke-width: 2px;"/></g><g class="legendsymbols"><g class="legendpoints"/></g></g><rect class="legendtoggle" pointer-events="all" x="0" y="-9.5" width="98.046875" height="19" style="cursor: pointer; fill: rgb(0, 0, 0); fill-opacity: 0;"/></g><g class="traces" transform="translate(0, 106.1)" style="opacity: 1;"><text class="legendtext user-select-none" text-anchor="start" x="40" y="4.680000000000001" style="font-family: 'Open Sans', verdana, arial, sans-serif; font-size: 12px; fill: rgb(68, 68, 68); fill-opacity: 1; white-space: pre;">24 Months</text><g class="layers" style="opacity: 1;"><g class="legendfill"/><g class="legendlines"><path class="js-line" d="M5,0h30" style="fill: none; stroke: rgb(148, 103, 189); stroke-opacity: 1; stroke-width: 2px;"/></g><g class="legendsymbols"><g class="legendpoints"/></g></g><rect class="legendtoggle" pointer-events="all" x="0" y="-9.5" width="98.046875" height="19" style="cursor: pointer; fill: rgb(0, 0, 0); fill-opacity: 0;"/></g><g class="traces" transform="translate(0, 125.1)" style="opacity: 1;"><text class="legendtext user-select-none" text-anchor="start" x="40" y="4.680000000000001" style="font-family: 'Open Sans', verdana, arial, sans-serif; font-size: 12px; fill: rgb(68, 68, 68); fill-opacity: 1; white-space: pre;">36 Months</text><g class="layers" style="opacity: 1;"><g class="legendfill"/><g class="legendlines"><path class="js-line" d="M5,0h30" style="fill: none; stroke: rgb(140, 86, 75); stroke-opacity: 1; stroke-width: 2px;"/></g><g class="legendsymbols"><g class="legendpoints"/></g></g><rect class="legendtoggle" pointer-events="all" x="0" y="-9.5" width="98.046875" height="19" style="cursor: pointer; fill: rgb(0, 0, 0); fill-opacity: 0;"/></g></g></g><rect class="scrollbar" rx="20" ry="3" width="0" height="0" style="fill: rgb(128, 139, 164); fill-opacity: 1;" x="0" y="0"/></g><g class="g-gtitle"><text class="gtitle" x="350" y="12.5" text-anchor="middle" dy="0em" style="font-family: 'Open Sans', verdana, arial, sans-serif; font-size: 17px; fill: rgb(68, 68, 68); opacity: 1; font-weight: normal; white-space: pre;"><tspan style="font-weight:bold"> Leprosy Incidence - Immunity Vaccine 0.99, Treatment 95% </tspan></text></g><g class="g-xtitle" transform="translate(0,-15)"><text class="xtitle" x="369.5" y="512" text-anchor="middle" style="font-family: 'Open Sans', verdana, arial, sans-serif; font-size: 14px; fill: rgb(68, 68, 68); opacity: 1; font-weight: normal; white-space: pre;">Time(Years)</text></g><g class="g-ytitle"><text class="ytitle" transform="rotate(-90,22,242.5)" x="22" y="242.5" text-anchor="middle" style="font-family: 'Open Sans', verdana, arial, sans-serif; font-size: 14px; fill: rgb(68, 68, 68); opacity: 1; font-weight: normal; white-space: pre;">Number of new infectiuos individuals</text></g></g></svg>