<svg class="main-svg" xmlns="http://www.w3.org/2000/svg" xmlns:xlink="http://www.w3.org/1999/xlink" width="700" height="500" style="" viewBox="0 0 700 500"><rect x="0" y="0" width="700" height="500" style="fill: rgb(255, 255, 255); fill-opacity: 1;"/><defs id="defs-0f2e99"><g class="clips"><clipPath id="clip0f2e99xyplot" class="plotclip"><rect width="619" height="435"/></clipPath><clipPath class="axesclip" id="clip0f2e99x"><rect x="60" y="0" width="619" height="500"/></clipPath><clipPath class="axesclip" id="clip0f2e99y"><rect x="0" y="25" width="700" height="435"/></clipPath><clipPath class="axesclip" id="clip0f2e99xy"><rect x="60" y="25" width="619" height="435"/></clipPath></g><g class="gradients"/></defs><g class="bglayer"/><g class="layer-below"><g class="imagelayer"/><g class="shapelayer"/></g><g class="cartesianlayer"><g class="subplot xy"><g class="layer-subplot"><g class="shapelayer"/><g class="imagelayer"/></g><g class="gridlayer"><g class="x"><path class="xgrid crisp" transform="translate(212.42,0)" d="M0,25v435" style="stroke: rgb(238, 238, 238); stroke-opacity: 1; stroke-width: 1px;"/><path class="xgrid crisp" transform="translate(367.94,0)" d="M0,25v435" style="stroke: rgb(238, 238, 238); stroke-opacity: 1; stroke-width: 1px;"/><path class="xgrid crisp" transform="translate(523.47,0)" d="M0,25v435" style="stroke: rgb(238, 238, 238); stroke-opacity: 1; stroke-width: 1px;"/></g><g class="y"><path class="ygrid crisp" transform="translate(0,359.43)" d="M60,0h619" style="stroke: rgb(238, 238, 238); stroke-opacity: 1; stroke-width: 1px;"/><path class="ygrid crisp" transform="translate(0,280.61)" d="M60,0h619" style="stroke: rgb(238, 238, 238); stroke-opacity: 1; stroke-width: 1px;"/><path class="ygrid crisp" transform="translate(0,201.78)" d="M60,0h619" style="stroke: rgb(238, 238, 238); stroke-opacity: 1; stroke-width: 1px;"/><path class="ygrid crisp" transform="translate(0,122.96)" d="M60,0h619" style="stroke: rgb(238, 238, 238); stroke-opacity: 1; stroke-width: 1px;"/><path class="ygrid crisp" transform="translate(0,44.14)" d="M60,0h619" style="stroke: rgb(238, 238, 238); stroke-opacity: 1; stroke-width: 1px;"/></g></g><g class="zerolinelayer"><path class="yzl zl crisp" transform="translate(0,438.25)" d="M60,0h619" style="stroke: rgb(68, 68, 68); stroke-opacity: 1; stroke-width: 1px;"/></g><path class="xlines-below"/><path class="ylines-below"/><g class="overlines-below"/><g class="xaxislayer-below"/><g class="yaxislayer-below"/><g class="overaxes-below"/><g class="plot" transform="translate(60, 25)" clip-path="url('#clip0f2e99xyplot')"><g class="scatterlayer mlayer"><g class="trace scatter trace22a068" style="stroke-miterlimit: 2; opacity: 1;"><g class="fills"/><g class="errorbars"/><g class="lines"><path class="js-line" d="M0,175.21L3.11,413.25L6.22,413.25L9.33,231.82L12.44,346.88L31.11,325.06L34.22,321.48L40.44,315.39L43.55,314.07L49.77,308.44L52.88,305.69L55.99,302.16L59.1,300.27L62.21,297.38L65.32,295.57L68.43,293.75L71.54,290.46L74.65,289.64L77.76,287.43L87.1,279.88L90.21,277.8L93.32,274.25L96.43,273.22L105.76,264.38L108.87,262.91L111.98,262.11L115.09,259.61L118.2,254.95L121.31,253.9L124.42,249.94L127.53,248.61L130.64,247.55L133.75,243.12L143.09,236.04L146.2,232.31L152.42,226.96L155.53,226.07L161.75,220.02L164.86,215.06L174.19,207.34L177.3,205.14L183.52,199.35L186.63,195.06L189.74,195.36L192.85,188.56L195.96,185.27L199.08,180.1L202.19,179.25L205.3,176.15L220.85,156.92L223.96,151.68L227.07,148.57L230.18,147.57L239.51,131.54L242.62,127.51L245.73,126.68L248.84,123.78L255.07,111.58L258.18,109.8L261.29,103.3L264.4,99.44L270.62,91.69L273.73,82.82L276.84,80.7L279.95,74.47L283.06,68.48L286.17,64.9L289.28,58.43L292.39,55.23L295.5,45.71L298.61,43.39L301.72,38.62L304.83,31.74L307.94,23.02L311.06,41.93L317.28,109.12L320.39,141.14L323.5,187.24L326.61,220.85L332.83,270.69L335.94,291.3L339.05,310.27L342.16,324.5L348.38,346.83L351.49,354.36L354.6,361.93L357.71,366.31L360.82,369.68L363.93,374.27L370.16,382.45L373.27,385.21L382.6,393.53L385.71,395.09L395.04,399.13L398.15,399.31L407.48,401.55L410.59,402.36L416.81,403.43L419.92,404.93L429.26,406.22L432.37,406.43L435.48,406.38L438.59,407.35L444.81,407.19L447.92,408.24L466.58,410.01L469.69,410.14L479.03,410.68L482.14,410.73L516.35,412.03L519.46,412.09L619,412.9" style="vector-effect: non-scaling-stroke; fill: none; stroke: rgb(31, 119, 180); stroke-opacity: 1; stroke-width: 2px; opacity: 1;"/></g><g class="points"/><g class="text"/></g><g class="trace scatter trace1ac2ec" style="stroke-miterlimit: 2; opacity: 1;"><g class="fills"/><g class="errorbars"/><g class="lines"><path class="js-line" d="M0,175.21L3.11,413.25L6.22,413.25L9.33,231.82L12.44,346.88L31.11,325.06L34.22,321.48L40.44,315.39L43.55,314.07L49.77,308.44L52.88,305.69L55.99,302.16L59.1,300.27L62.21,297.38L65.32,295.57L68.43,293.75L71.54,290.46L74.65,289.64L77.76,287.43L87.1,279.88L90.21,277.8L93.32,274.25L96.43,273.22L105.76,264.38L108.87,262.91L111.98,262.11L115.09,259.61L118.2,254.95L121.31,253.9L124.42,249.94L127.53,248.61L130.64,247.55L133.75,243.12L143.09,236.04L146.2,232.31L152.42,226.96L155.53,226.07L161.75,220.02L164.86,215.06L174.19,207.34L177.3,205.14L183.52,199.35L186.63,195.06L189.74,195.36L192.85,188.56L195.96,185.27L199.08,180.1L202.19,179.25L205.3,176.15L220.85,156.92L223.96,151.68L227.07,148.57L230.18,147.57L239.51,131.54L242.62,127.51L245.73,126.68L248.84,123.78L255.07,111.58L258.18,109.8L261.29,103.3L264.4,99.44L270.62,91.69L273.73,82.82L276.84,80.7L279.95,74.47L283.06,68.48L286.17,64.9L289.28,58.43L292.39,55.23L295.5,45.71L298.61,43.39L301.72,38.62L304.83,31.74L307.94,23.02L311.06,38.46L320.39,136.08L323.5,180.83L329.72,245.63L332.83,268.57L339.05,308.26L342.16,321.86L348.38,345.12L351.49,351.2L354.6,357.58L357.71,361.28L367.05,375.45L370.16,378.66L382.6,391.44L385.71,393.92L388.82,394.78L391.93,394.4L398.15,396.4L401.26,396.93L404.37,398.22L407.48,398.03L413.7,400.46L416.81,401.71L419.92,402.29L423.04,403.81L441.7,405.8L444.81,405.66L460.36,407.99L463.47,408.3L494.58,410.4L497.69,410.65L516.35,411.32L519.46,411.3L566.12,412.46L569.23,412.42L619,412.72" style="vector-effect: non-scaling-stroke; fill: none; stroke: rgb(255, 127, 14); stroke-opacity: 1; stroke-width: 2px; opacity: 1;"/></g><g class="points"/><g class="text"/></g><g class="trace scatter traceffce8b" style="stroke-miterlimit: 2; opacity: 1;"><g class="fills"/><g class="errorbars"/><g class="lines"><path class="js-line" d="M0,175.21L3.11,413.25L6.22,413.25L9.33,231.82L12.44,346.88L31.11,325.06L34.22,321.48L40.44,315.39L43.55,314.07L49.77,308.44L52.88,305.69L55.99,302.16L59.1,300.27L62.21,297.38L65.32,295.57L68.43,293.75L71.54,290.46L74.65,289.64L77.76,287.43L87.1,279.88L90.21,277.8L93.32,274.25L96.43,273.22L105.76,264.38L108.87,262.91L111.98,262.11L115.09,259.61L118.2,254.95L121.31,253.9L124.42,249.94L127.53,248.61L130.64,247.55L133.75,243.12L143.09,236.04L146.2,232.31L152.42,226.96L155.53,226.07L161.75,220.02L164.86,215.06L174.19,207.34L177.3,205.14L183.52,199.35L186.63,195.06L189.74,195.36L192.85,188.56L195.96,185.27L199.08,180.1L202.19,179.25L205.3,176.15L220.85,156.92L223.96,151.68L227.07,148.57L230.18,147.57L239.51,131.54L242.62,127.51L245.73,126.68L248.84,123.78L255.07,111.58L258.18,109.8L261.29,103.3L264.4,99.44L270.62,91.69L273.73,82.82L276.84,80.7L279.95,74.47L283.06,68.48L286.17,64.9L289.28,58.43L292.39,55.23L295.5,45.71L298.61,43.39L301.72,38.62L304.83,31.74L307.94,23.02L311.06,32.74L320.39,133.02L323.5,176.07L329.72,239.53L332.83,263.94L339.05,304.96L342.16,320L345.27,334.48L348.38,340.74L354.6,352.42L357.71,356.56L363.93,365.6L367.05,369.63L370.16,373.22L373.27,378.47L379.49,385.54L382.6,388.4L385.71,391.42L388.82,392.97L391.93,392.12L395.04,393.43L401.26,393.46L404.37,394.61L407.48,396.69L410.59,397.37L429.26,403.35L432.37,403.55L447.92,405L451.03,405.92L454.14,405.59L457.25,406.62L466.58,408.17L469.69,408.06L475.91,408.32L479.03,408.78L488.36,409.24L491.47,409.5L503.91,410.33L507.02,410.58L550.57,411.95L553.68,411.85L619,412.49" style="vector-effect: non-scaling-stroke; fill: none; stroke: rgb(44, 160, 44); stroke-opacity: 1; stroke-width: 2px; opacity: 1;"/></g><g class="points"/><g class="text"/></g><g class="trace scatter trace8e3120" style="stroke-miterlimit: 2; opacity: 1;"><g class="fills"/><g class="errorbars"/><g class="lines"><path class="js-line" d="M0,175.21L3.11,413.25L6.22,413.25L9.33,231.82L12.44,346.88L31.11,325.06L34.22,321.48L40.44,315.39L43.55,314.07L49.77,308.44L52.88,305.69L55.99,302.16L59.1,300.27L62.21,297.38L65.32,295.57L68.43,293.75L71.54,290.46L74.65,289.64L77.76,287.43L87.1,279.88L90.21,277.8L93.32,274.25L96.43,273.22L105.76,264.38L108.87,262.91L111.98,262.11L115.09,259.61L118.2,254.95L121.31,253.9L124.42,249.94L127.53,248.61L130.64,247.55L133.75,243.12L143.09,236.04L146.2,232.31L152.42,226.96L155.53,226.07L161.75,220.02L164.86,215.06L174.19,207.34L177.3,205.14L183.52,199.35L186.63,195.06L189.74,195.36L192.85,188.56L195.96,185.27L199.08,180.1L202.19,179.25L205.3,176.15L220.85,156.92L223.96,151.68L227.07,148.57L230.18,147.57L239.51,131.54L242.62,127.51L245.73,126.68L248.84,123.78L255.07,111.58L258.18,109.8L261.29,103.3L264.4,99.44L270.62,91.69L273.73,82.82L276.84,80.7L279.95,74.47L283.06,68.48L286.17,64.9L289.28,58.43L292.39,55.23L295.5,45.71L298.61,43.39L301.72,38.62L304.83,31.74L307.94,23.02L311.06,24.34L320.39,119.87L323.5,165.33L329.72,230.97L332.83,256.25L335.94,280.85L339.05,297.82L345.27,328.07L348.38,339.71L351.49,341.7L354.6,345.35L363.93,356.07L367.05,361.42L376.38,376.06L379.49,380.37L382.6,382.19L385.71,386.66L388.82,389.34L391.93,388.91L395.04,387.48L398.15,387.53L401.26,387.85L404.37,389.63L407.48,389.6L410.59,391.01L423.04,397.98L426.15,399.13L432.37,400.2L435.48,399.44L438.59,400.28L441.7,400.03L444.81,399.76L447.92,400.53L454.14,401.71L457.25,402.85L463.47,404.08L466.58,404.57L472.8,405.87L475.91,405.51L479.03,406.28L482.14,406.27L488.36,406.44L491.47,406.94L525.68,409.74L528.79,409.44L531.9,410.38L535.02,409.62L538.13,410.31L541.24,410.23L550.57,410.98L553.68,410.77L566.12,411.25L569.23,411.11L581.67,411.61L584.78,411.74L619,412.14" style="vector-effect: non-scaling-stroke; fill: none; stroke: rgb(214, 39, 40); stroke-opacity: 1; stroke-width: 2px; opacity: 1;"/></g><g class="points"/><g class="text"/></g><g class="trace scatter trace4b7a43" style="stroke-miterlimit: 2; opacity: 1;"><g class="fills"/><g class="errorbars"/><g class="lines"><path class="js-line" d="M0,175.19L3.11,413.25L6.22,413.25L9.33,231.82L12.44,346.88L31.11,325.06L34.22,321.48L40.44,315.39L43.55,314.07L49.77,308.44L52.88,305.69L55.99,302.16L59.1,300.27L62.21,297.38L65.32,295.57L68.43,293.75L71.54,290.46L74.65,289.64L77.76,287.43L87.1,279.88L90.21,277.8L93.32,274.25L96.43,273.22L105.76,264.38L108.87,262.91L111.98,262.11L115.09,259.61L118.2,254.95L121.31,253.9L124.42,249.94L127.53,248.61L130.64,247.55L133.75,243.12L143.09,236.04L146.2,232.31L152.42,226.96L155.53,226.07L161.75,220.02L164.86,215.06L174.19,207.34L177.3,205.14L183.52,199.35L186.63,195.06L189.74,195.36L192.85,188.56L195.96,185.27L199.08,180.1L202.19,179.25L205.3,176.15L220.85,156.92L223.96,151.68L227.07,148.57L230.18,147.57L239.51,131.54L242.62,127.51L245.73,126.68L248.84,123.78L255.07,111.58L258.18,109.8L261.29,103.3L264.4,99.44L270.62,91.69L273.73,82.82L276.84,80.7L279.95,74.47L283.06,68.48L286.17,64.9L289.28,58.43L292.39,55.23L295.5,45.71L298.61,43.39L301.72,38.62L304.83,31.74L307.94,23.02L311.06,22.06L314.17,37.4L317.28,66.64L320.39,97.38L323.5,139.71L329.72,210.32L332.83,236.62L339.05,284.64L342.16,301.4L348.38,332.27L351.49,336.78L354.6,338.41L357.71,337.01L360.82,336.23L363.93,338.59L376.38,358.37L379.49,363.94L382.6,367.78L385.71,373.71L391.93,380.81L395.04,380.26L398.15,380.12L401.26,378.79L407.48,376.69L410.59,376.79L413.7,380.39L416.81,381.34L435.48,392.84L438.59,393.25L451.03,391.67L454.14,392.32L457.25,393.33L460.36,395.21L466.58,396.22L469.69,397.74L482.14,401.13L485.25,401.01L488.36,401.39L491.47,400.63L497.69,401.67L500.8,401.52L507.02,403.19L510.13,403.11L513.24,403.5L516.35,404.9L522.57,406.03L525.68,405.42L550.57,406.31L553.68,407.13L575.45,408.47L578.56,409.1L594.12,409.29L597.23,409.03L603.45,409.77L606.56,410.14L619,409.99" style="vector-effect: non-scaling-stroke; fill: none; stroke: rgb(148, 103, 189); stroke-opacity: 1; stroke-width: 2px; opacity: 1;"/></g><g class="points"/><g class="text"/></g><g class="trace scatter trace3d7628" style="stroke-miterlimit: 2; opacity: 1;"><g class="fills"/><g class="errorbars"/><g class="lines"><path class="js-line" d="M0,175.18L3.11,413.25L6.22,413.25L9.33,231.82L12.44,346.88L31.11,325.06L34.22,321.48L40.44,315.39L43.55,314.07L49.77,308.44L52.88,305.69L55.99,302.16L59.1,300.27L62.21,297.38L65.32,295.57L68.43,293.75L71.54,290.46L74.65,289.64L77.76,287.43L87.1,279.88L90.21,277.8L93.32,274.25L96.43,273.22L105.76,264.38L108.87,262.91L111.98,262.11L115.09,259.61L118.2,254.95L121.31,253.9L124.42,249.94L127.53,248.61L130.64,247.55L133.75,243.12L143.09,236.04L146.2,232.31L152.42,226.96L155.53,226.07L161.75,220.02L164.86,215.06L174.19,207.34L177.3,205.14L183.52,199.35L186.63,195.06L189.74,195.36L192.85,188.56L195.96,185.27L199.08,180.1L202.19,179.25L205.3,176.15L220.85,156.92L223.96,151.68L227.07,148.57L230.18,147.57L239.51,131.54L242.62,127.51L245.73,126.68L248.84,123.78L255.07,111.58L258.18,109.8L261.29,103.3L264.4,99.44L270.62,91.69L273.73,82.82L276.84,80.7L279.95,74.47L283.06,68.48L286.17,64.9L289.28,58.43L292.39,55.23L295.5,45.71L298.61,43.39L301.72,38.62L304.83,31.74L307.94,23.02L311.06,21.75L314.17,28.26L317.28,47.07L320.39,75.77L323.5,117.78L335.94,242.66L339.05,264.09L345.27,301.88L348.38,319.52L351.49,328.55L354.6,330.26L357.71,330.46L360.82,326.03L363.93,324.31L367.05,325.94L370.16,327.59L373.27,331.21L379.49,342.95L382.6,349.28L388.82,361.72L391.93,365.48L395.04,369.05L398.15,370.45L404.37,369.44L407.48,367.73L410.59,366.59L413.7,366.57L416.81,366.94L419.92,369.04L426.15,373.27L429.26,375.93L441.7,384.2L444.81,383.53L454.14,383.81L457.25,384.35L469.69,386.51L472.8,388.44L475.91,388.37L479.03,389.94L482.14,391.6L485.25,392.06L488.36,392.33L491.47,393.62L494.58,394.06L497.69,393.19L503.91,394.54L507.02,395.17L513.24,397.27L516.35,396.45L519.46,396.39L522.57,397.45L531.9,399.12L535.02,399.83L550.57,401.21L553.68,400.62L559.9,401.77L563.01,402.05L569.23,402.46L572.34,403.37L575.45,403.06L578.56,403.61L581.67,403.55L584.78,404.45L591.01,404.37L594.12,404.82L619,405.72" style="vector-effect: non-scaling-stroke; fill: none; stroke: rgb(140, 86, 75); stroke-opacity: 1; stroke-width: 2px; opacity: 1;"/></g><g class="points"/><g class="text"/></g></g></g><g class="overplot"/><path class="xlines-above crisp" style="fill: none;" d="M0,0"/><path class="ylines-above crisp" style="fill: none;" d="M0,0"/><g class="overlines-above"/><g class="xaxislayer-above"><g class="xtick"><text text-anchor="middle" x="0" y="473" transform="translate(212.42,0)" style="font-family: 'Open Sans', verdana, arial, sans-serif; font-size: 12px; fill: rgb(68, 68, 68); fill-opacity: 1; white-space: pre;">50</text></g><g class="xtick"><text text-anchor="middle" x="0" y="473" transform="translate(367.94,0)" style="font-family: 'Open Sans', verdana, arial, sans-serif; font-size: 12px; fill: rgb(68, 68, 68); fill-opacity: 1; white-space: pre;">100</text></g><g class="xtick"><text text-anchor="middle" x="0" y="473" transform="translate(523.47,0)" style="font-family: 'Open Sans', verdana, arial, sans-serif; font-size: 12px; fill: rgb(68, 68, 68); fill-opacity: 1; white-space: pre;">150</text></g><g class="xtick"><text text-anchor="middle" x="0" y="473" transform="translate(679,0)" style="font-family: 'Open Sans', verdana, arial, sans-serif; font-size: 12px; fill: rgb(68, 68, 68); fill-opacity: 1; white-space: pre;">200</text></g></g><g class="yaxislayer-above"><g class="ytick"><text text-anchor="end" x="59" y="4.199999999999999" transform="translate(0,438.25)" style="font-family: 'Open Sans', verdana, arial, sans-serif; font-size: 12px; fill: rgb(68, 68, 68); fill-opacity: 1; white-space: pre;">0</text></g><g class="ytick"><text text-anchor="end" x="59" y="4.199999999999999" transform="translate(0,359.43)" style="font-family: 'Open Sans', verdana, arial, sans-serif; font-size: 12px; fill: rgb(68, 68, 68); fill-opacity: 1; white-space: pre;">50</text></g><g class="ytick"><text text-anchor="end" x="59" y="4.199999999999999" transform="translate(0,280.61)" style="font-family: 'Open Sans', verdana, arial, sans-serif; font-size: 12px; fill: rgb(68, 68, 68); fill-opacity: 1; white-space: pre;">100</text></g><g class="ytick"><text text-anchor="end" x="59" y="4.199999999999999" transform="translate(0,201.78)" style="font-family: 'Open Sans', verdana, arial, sans-serif; font-size: 12px; fill: rgb(68, 68, 68); fill-opacity: 1; white-space: pre;">150</text></g><g class="ytick"><text text-anchor="end" x="59" y="4.199999999999999" transform="translate(0,122.96)" style="font-family: 'Open Sans', verdana, arial, sans-serif; font-size: 12px; fill: rgb(68, 68, 68); fill-opacity: 1; white-space: pre;">200</text></g><g class="ytick"><text text-anchor="end" x="59" y="4.199999999999999" transform="translate(0,44.14)" style="font-family: 'Open Sans', verdana, arial, sans-serif; font-size: 12px; fill: rgb(68, 68, 68); fill-opacity: 1; white-space: pre;">250</text></g></g><g class="overaxes-above"/></g></g><g class="polarlayer"/><g class="ternarylayer"/><g class="geolayer"/><g class="funnelarealayer"/><g class="pielayer"/><g class="treemaplayer"/><g class="sunburstlayer"/><g class="glimages"/><defs id="topdefs-0f2e99"><g class="clips"/><clipPath id="legend0f2e99"><rect width="117" height="140" x="0" y="0"/></clipPath></defs><g class="layer-above"><g class="imagelayer"/><g class="shapelayer"/></g><g class="infolayer"><g class="legend" pointer-events="all" transform="translate(90.95, 46.750000000000014)"><rect class="bg" shape-rendering="crispEdges" style="stroke: rgb(68, 68, 68); stroke-opacity: 1; fill: rgb(226, 226, 226); fill-opacity: 1; stroke-width: 0px;" width="117" height="140" x="0" y="0"/><g class="scrollbox" transform="translate(0, 0)" clip-path="url('#legend0f2e99')"><text class="legendtitletext user-select-none" text-anchor="start" x="2" y="15.600000000000001" style="font-family: 'Open Sans', verdana, arial, sans-serif; font-size: 12px; fill: rgb(68, 68, 68); fill-opacity: 1; white-space: pre;"><tspan style="font-weight:bold"> Identification Time </tspan></text><g class="groups"><g class="traces" transform="translate(0, 30.1)" style="opacity: 1;"><text class="legendtext user-select-none" text-anchor="start" x="40" y="4.680000000000001" style="font-family: 'Open Sans', verdana, arial, sans-serif; font-size: 12px; fill: rgb(68, 68, 68); fill-opacity: 1; white-space: pre;">0 Months</text><g class="layers" style="opacity: 1;"><g class="legendfill"/><g class="legendlines"><path class="js-line" d="M5,0h30" style="fill: none; stroke: rgb(31, 119, 180); stroke-opacity: 1; stroke-width: 2px;"/></g><g class="legendsymbols"><g class="legendpoints"/></g></g><rect class="legendtoggle" pointer-events="all" x="0" y="-9.5" width="98.046875" height="19" style="cursor: pointer; fill: rgb(0, 0, 0); fill-opacity: 0;"/></g><g class="traces" transform="translate(0, 49.1)" style="opacity: 1;"><text class="legendtext user-select-none" text-anchor="start" x="40" y="4.680000000000001" style="font-family: 'Open Sans', verdana, arial, sans-serif; font-size: 12px; fill: rgb(68, 68, 68); fill-opacity: 1; white-space: pre;">3 Months</text><g class="layers" style="opacity: 1;"><g class="legendfill"/><g class="legendlines"><path class="js-line" d="M5,0h30" style="fill: none; stroke: rgb(255, 127, 14); stroke-opacity: 1; stroke-width: 2px;"/></g><g class="legendsymbols"><g class="legendpoints"/></g></g><rect class="legendtoggle" pointer-events="all" x="0" y="-9.5" width="98.046875" height="19" style="cursor: pointer; fill: rgb(0, 0, 0); fill-opacity: 0;"/></g><g class="traces" transform="translate(0, 68.1)" style="opacity: 1;"><text class="legendtext user-select-none" text-anchor="start" x="40" y="4.680000000000001" style="font-family: 'Open Sans', verdana, arial, sans-serif; font-size: 12px; fill: rgb(68, 68, 68); fill-opacity: 1; white-space: pre;">6 Months</text><g class="layers" style="opacity: 1;"><g class="legendfill"/><g class="legendlines"><path class="js-line" d="M5,0h30" style="fill: none; stroke: rgb(44, 160, 44); stroke-opacity: 1; stroke-width: 2px;"/></g><g class="legendsymbols"><g class="legendpoints"/></g></g><rect class="legendtoggle" pointer-events="all" x="0" y="-9.5" width="98.046875" height="19" style="cursor: pointer; fill: rgb(0, 0, 0); fill-opacity: 0;"/></g><g class="traces" transform="translate(0, 87.1)" style="opacity: 1;"><text class="legendtext user-select-none" text-anchor="start" x="40" y="4.680000000000001" style="font-family: 'Open Sans', verdana, arial, sans-serif; font-size: 12px; fill: rgb(68, 68, 68); fill-opacity: 1; white-space: pre;">12 Months</text><g class="layers" style="opacity: 1;"><g class="legendfill"/><g class="legendlines"><path class="js-line" d="M5,0h30" style="fill: none; stroke: rgb(214, 39, 40); stroke-opacity: 1; stroke-width: 2px;"/></g><g class="legendsymbols"><g class="legendpoints"/></g></g><rect class="legendtoggle" pointer-events="all" x="0" y="-9.5" width="98.046875" height="19" style="cursor: pointer; fill: rgb(0, 0, 0); fill-opacity: 0;"/></g><g class="traces" transform="translate(0, 106.1)" style="opacity: 1;"><text class="legendtext user-select-none" text-anchor="start" x="40" y="4.680000000000001" style="font-family: 'Open Sans', verdana, arial, sans-serif; font-size: 12px; fill: rgb(68, 68, 68); fill-opacity: 1; white-space: pre;">24 Months</text><g class="layers" style="opacity: 1;"><g class="legendfill"/><g class="legendlines"><path class="js-line" d="M5,0h30" style="fill: none; stroke: rgb(148, 103, 189); stroke-opacity: 1; stroke-width: 2px;"/></g><g class="legendsymbols"><g class="legendpoints"/></g></g><rect class="legendtoggle" pointer-events="all" x="0" y="-9.5" width="98.046875" height="19" style="cursor: pointer; fill: rgb(0, 0, 0); fill-opacity: 0;"/></g><g class="traces" transform="translate(0, 125.1)" style="opacity: 1;"><text class="legendtext user-select-none" text-anchor="start" x="40" y="4.680000000000001" style="font-family: 'Open Sans', verdana, arial, sans-serif; font-size: 12px; fill: rgb(68, 68, 68); fill-opacity: 1; white-space: pre;">36 Months</text><g class="layers" style="opacity: 1;"><g class="legendfill"/><g class="legendlines"><path class="js-line" d="M5,0h30" style="fill: none; stroke: rgb(140, 86, 75); stroke-opacity: 1; stroke-width: 2px;"/></g><g class="legendsymbols"><g class="legendpoints"/></g></g><rect class="legendtoggle" pointer-events="all" x="0" y="-9.5" width="98.046875" height="19" style="cursor: pointer; fill: rgb(0, 0, 0); fill-opacity: 0;"/></g></g></g><rect class="scrollbar" rx="20" ry="3" width="0" height="0" style="fill: rgb(128, 139, 164); fill-opacity: 1;" x="0" y="0"/></g><g class="g-gtitle"><text class="gtitle" x="350" y="12.5" text-anchor="middle" dy="0em" style="font-family: 'Open Sans', verdana, arial, sans-serif; font-size: 17px; fill: rgb(68, 68, 68); opacity: 1; font-weight: normal; white-space: pre;"><tspan style="font-weight:bold"> Leprosy Incidence - Immunity Vaccine 0.5, Treatment 95% </tspan></text></g><g class="g-xtitle" transform="translate(0,-15)"><text class="xtitle" x="369.5" y="512" text-anchor="middle" style="font-family: 'Open Sans', verdana, arial, sans-serif; font-size: 14px; fill: rgb(68, 68, 68); opacity: 1; font-weight: normal; white-space: pre;">Time(Years)</text></g><g class="g-ytitle"><text class="ytitle" transform="rotate(-90,22,242.5)" x="22" y="242.5" text-anchor="middle" style="font-family: 'Open Sans', verdana, arial, sans-serif; font-size: 14px; fill: rgb(68, 68, 68); opacity: 1; font-weight: normal; white-space: pre;">Number of new infectiuos individuals</text></g></g></svg>