<svg class="main-svg" xmlns="http://www.w3.org/2000/svg" xmlns:xlink="http://www.w3.org/1999/xlink" width="700" height="500" style="" viewBox="0 0 700 500"><rect x="0" y="0" width="700" height="500" style="fill: rgb(255, 255, 255); fill-opacity: 1;"/><defs id="defs-4ef401"><g class="clips"><clipPath id="clip4ef401xyplot" class="plotclip"><rect width="619" height="435"/></clipPath><clipPath class="axesclip" id="clip4ef401x"><rect x="60" y="0" width="619" height="500"/></clipPath><clipPath class="axesclip" id="clip4ef401y"><rect x="0" y="25" width="700" height="435"/></clipPath><clipPath class="axesclip" id="clip4ef401xy"><rect x="60" y="25" width="619" height="435"/></clipPath></g><g class="gradients"/></defs><g class="bglayer"/><g class="layer-below"><g class="imagelayer"/><g class="shapelayer"/></g><g class="cartesianlayer"><g class="subplot xy"><g class="layer-subplot"><g class="shapelayer"/><g class="imagelayer"/></g><g class="gridlayer"><g class="x"><path class="xgrid crisp" transform="translate(212.42,0)" d="M0,25v435" style="stroke: rgb(238, 238, 238); stroke-opacity: 1; stroke-width: 1px;"/><path class="xgrid crisp" transform="translate(367.94,0)" d="M0,25v435" style="stroke: rgb(238, 238, 238); stroke-opacity: 1; stroke-width: 1px;"/><path class="xgrid crisp" transform="translate(523.47,0)" d="M0,25v435" style="stroke: rgb(238, 238, 238); stroke-opacity: 1; stroke-width: 1px;"/></g><g class="y"><path class="ygrid crisp" transform="translate(0,359.74)" d="M60,0h619" style="stroke: rgb(238, 238, 238); stroke-opacity: 1; stroke-width: 1px;"/><path class="ygrid crisp" transform="translate(0,281.24)" d="M60,0h619" style="stroke: rgb(238, 238, 238); stroke-opacity: 1; stroke-width: 1px;"/><path class="ygrid crisp" transform="translate(0,202.73)" d="M60,0h619" style="stroke: rgb(238, 238, 238); stroke-opacity: 1; stroke-width: 1px;"/><path class="ygrid crisp" transform="translate(0,124.23)" d="M60,0h619" style="stroke: rgb(238, 238, 238); stroke-opacity: 1; stroke-width: 1px;"/><path class="ygrid crisp" transform="translate(0,45.72)" d="M60,0h619" style="stroke: rgb(238, 238, 238); stroke-opacity: 1; stroke-width: 1px;"/></g></g><g class="zerolinelayer"><path class="yzl zl crisp" transform="translate(0,438.25)" d="M60,0h619" style="stroke: rgb(68, 68, 68); stroke-opacity: 1; stroke-width: 1px;"/></g><path class="xlines-below"/><path class="ylines-below"/><g class="overlines-below"/><g class="xaxislayer-below"/><g class="yaxislayer-below"/><g class="overaxes-below"/><g class="plot" transform="translate(60, 25)" clip-path="url('#clip4ef401xyplot')"><g class="scatterlayer mlayer"><g class="trace scatter trace593fb3" style="stroke-miterlimit: 2; opacity: 1;"><g class="fills"/><g class="errorbars"/><g class="lines"><path class="js-line" d="M0,176.13L3.11,413.25L6.22,413.25L9.33,232.55L12.44,347.15L31.11,325.42L34.22,321.85L40.44,315.79L43.55,314.47L49.77,308.86L52.88,306.12L55.99,302.6L59.1,300.73L62.21,297.85L65.32,296.04L68.43,294.23L71.54,290.95L74.65,290.14L77.76,287.94L87.1,280.42L90.21,278.35L93.32,274.81L96.43,273.78L105.76,264.98L108.87,263.51L111.98,262.72L115.09,260.23L118.2,255.59L121.31,254.54L124.42,250.59L127.53,249.28L130.64,248.22L133.75,243.8L143.09,236.75L146.2,233.03L152.42,227.71L155.53,226.82L161.75,220.79L164.86,215.86L174.19,208.17L177.3,205.97L183.52,200.21L186.63,195.93L189.74,196.23L192.85,189.46L195.96,186.19L199.08,181.03L202.19,180.19L205.3,177.1L220.85,157.95L223.96,152.73L227.07,149.63L230.18,148.63L239.51,132.67L242.62,128.65L245.73,127.83L248.84,124.95L255.07,112.79L258.18,111.02L261.29,104.54L264.4,100.7L270.62,92.98L273.73,84.15L276.84,82.03L279.95,75.83L283.06,69.86L286.17,66.29L289.28,59.85L292.39,56.67L295.5,47.19L298.61,44.88L301.72,40.12L304.83,33.27L307.94,24.58L311.06,39.29L320.39,114.51L323.5,148.78L329.72,199.82L332.83,223.39L335.94,245.47L339.05,260.6L342.16,273.93L345.27,291.21L351.49,307.52L354.6,313.23L370.16,331.25L373.27,333.42L376.38,337.19L379.49,342.24L388.82,353.04L391.93,353.61L395.04,356.47L398.15,357.34L401.26,359.76L404.37,360.73L407.48,361.14L410.59,362.62L413.7,363.76L416.81,366.77L419.92,366.81L423.04,368.13L429.26,372.11L432.37,372.28L435.48,374.44L438.59,375.1L444.81,376.4L447.92,377.65L451.03,379.52L454.14,379.6L457.25,381.08L460.36,381.64L463.47,383.68L466.58,383.33L475.91,385.81L479.03,386.58L488.36,387.97L491.47,389.99L500.8,391.1L503.91,392.08L507.02,393.36L510.13,393.08L513.24,393.8L516.35,393.47L519.46,394.81L522.57,394.71L525.68,394.88L528.79,396.52L535.02,397.25L538.13,396.91L541.24,397.83L544.35,397.91L553.68,399.32L556.79,399.19L559.9,400.23L563.01,400.36L566.12,400.07L569.23,401.36L578.56,401.2L581.67,402.42L584.78,402.05L587.89,402.48L591.01,403.01L594.12,402.49L600.34,403.63L603.45,403L609.67,404.27L612.78,404.21L615.89,404.66L619,404.26" style="vector-effect: non-scaling-stroke; fill: none; stroke: rgb(31, 119, 180); stroke-opacity: 1; stroke-width: 2px; opacity: 1;"/></g><g class="points"/><g class="text"/></g><g class="trace scatter trace3ec00f" style="stroke-miterlimit: 2; opacity: 1;"><g class="fills"/><g class="errorbars"/><g class="lines"><path class="js-line" d="M0,176.14L3.11,413.25L6.22,413.25L9.33,232.55L12.44,347.15L31.11,325.42L34.22,321.85L40.44,315.79L43.55,314.47L49.77,308.86L52.88,306.12L55.99,302.6L59.1,300.73L62.21,297.85L65.32,296.04L68.43,294.23L71.54,290.95L74.65,290.14L77.76,287.94L87.1,280.42L90.21,278.35L93.32,274.81L96.43,273.78L105.76,264.98L108.87,263.51L111.98,262.72L115.09,260.23L118.2,255.59L121.31,254.54L124.42,250.59L127.53,249.28L130.64,248.22L133.75,243.8L143.09,236.75L146.2,233.03L152.42,227.71L155.53,226.82L161.75,220.79L164.86,215.86L174.19,208.17L177.3,205.97L183.52,200.21L186.63,195.93L189.74,196.23L192.85,189.46L195.96,186.19L199.08,181.03L202.19,180.19L205.3,177.1L220.85,157.95L223.96,152.73L227.07,149.63L230.18,148.63L239.51,132.67L242.62,128.65L245.73,127.83L248.84,124.95L255.07,112.79L258.18,111.02L261.29,104.54L264.4,100.7L270.62,92.98L273.73,84.15L276.84,82.03L279.95,75.83L283.06,69.86L286.17,66.29L289.28,59.85L292.39,56.67L295.5,47.19L298.61,44.88L301.72,40.12L304.83,33.27L307.94,24.58L311.06,34.82L314.17,64.17L317.28,85.63L329.72,195.88L332.83,218.69L342.16,272.77L345.27,287.11L348.38,299.46L351.49,305.64L354.6,309.09L357.71,314.86L360.82,317.06L363.93,320.99L367.05,321.89L370.16,326.62L379.49,339.84L382.6,342.17L385.71,346.51L388.82,348.52L391.93,351.21L395.04,352.02L398.15,354.69L401.26,354.43L404.37,356.46L407.48,356.58L413.7,360.56L416.81,363.04L419.92,363.34L423.04,364.62L432.37,369.59L435.48,370.12L438.59,370.81L441.7,372.41L447.92,374.86L451.03,374.49L457.25,377.63L460.36,378.35L463.47,378.53L466.58,380.47L472.8,382.3L475.91,382.86L479.03,383.1L482.14,385.46L485.25,385L488.36,385.55L491.47,386.89L494.58,386.98L497.69,387.91L500.8,387.48L503.91,388.94L507.02,388.94L513.24,391.2L516.35,391.17L519.46,392.41L522.57,391.95L528.79,393.7L531.9,393.59L535.02,394.11L538.13,393.81L544.35,395.96L547.46,395.31L550.57,396.57L553.68,395.26L556.79,397.45L559.9,397.4L575.45,398.6L578.56,399.23L584.78,398.94L587.89,399.71L594.12,400.15L597.23,400.27L606.56,401.49L609.67,401.02L615.89,401.73L619,402.42" style="vector-effect: non-scaling-stroke; fill: none; stroke: rgb(255, 127, 14); stroke-opacity: 1; stroke-width: 2px; opacity: 1;"/></g><g class="points"/><g class="text"/></g><g class="trace scatter tracedab40a" style="stroke-miterlimit: 2; opacity: 1;"><g class="fills"/><g class="errorbars"/><g class="lines"><path class="js-line" d="M0,176.15L3.11,413.25L6.22,413.25L9.33,232.55L12.44,347.15L31.11,325.42L34.22,321.85L40.44,315.79L43.55,314.47L49.77,308.86L52.88,306.12L55.99,302.6L59.1,300.73L62.21,297.85L65.32,296.04L68.43,294.23L71.54,290.95L74.65,290.14L77.76,287.94L87.1,280.42L90.21,278.35L93.32,274.81L96.43,273.78L105.76,264.98L108.87,263.51L111.98,262.72L115.09,260.23L118.2,255.59L121.31,254.54L124.42,250.59L127.53,249.28L130.64,248.22L133.75,243.8L143.09,236.75L146.2,233.03L152.42,227.71L155.53,226.82L161.75,220.79L164.86,215.86L174.19,208.17L177.3,205.97L183.52,200.21L186.63,195.93L189.74,196.23L192.85,189.46L195.96,186.19L199.08,181.03L202.19,180.19L205.3,177.1L220.85,157.95L223.96,152.73L227.07,149.63L230.18,148.63L239.51,132.67L242.62,128.65L245.73,127.83L248.84,124.95L255.07,112.79L258.18,111.02L261.29,104.54L264.4,100.7L270.62,92.98L273.73,84.15L276.84,82.03L279.95,75.83L283.06,69.86L286.17,66.29L289.28,59.85L292.39,56.67L295.5,47.19L298.61,44.88L301.72,40.12L304.83,33.27L307.94,24.58L311.06,30.14L329.72,192.33L332.83,214.78L339.05,251.95L342.16,269.56L345.27,284.85L348.38,293.69L351.49,300.35L354.6,305.16L357.71,309.37L360.82,311.76L367.05,317.56L370.16,322.2L373.27,323.38L376.38,329.36L379.49,335.09L382.6,338.34L395.04,348.51L398.15,348.84L401.26,348.69L404.37,350.04L407.48,353.96L410.59,353.74L413.7,355.42L416.81,355.48L423.04,361.02L426.15,361.67L429.26,363.73L432.37,364.85L438.59,367.42L441.7,368.9L444.81,368.58L447.92,370.22L451.03,369.27L454.14,371.57L457.25,373.29L460.36,373.35L469.69,377.99L472.8,377.58L475.91,379.51L479.03,379.54L494.58,381.94L497.69,383.17L500.8,384.62L503.91,384.91L513.24,387.19L516.35,386.87L522.57,389.42L525.68,388.41L528.79,390.11L531.9,389.98L535.02,391.06L538.13,390.47L541.24,392.13L544.35,391.62L547.46,393.34L550.57,392.08L553.68,393.13L556.79,393.01L563.01,393.87L566.12,394.28L575.45,396.03L578.56,395.6L581.67,396.4L584.78,396.13L594.12,397.47L597.23,396.93L603.45,398.44L606.56,398.43L619,399.4" style="vector-effect: non-scaling-stroke; fill: none; stroke: rgb(44, 160, 44); stroke-opacity: 1; stroke-width: 2px; opacity: 1;"/></g><g class="points"/><g class="text"/></g><g class="trace scatter trace5ed49d" style="stroke-miterlimit: 2; opacity: 1;"><g class="fills"/><g class="errorbars"/><g class="lines"><path class="js-line" d="M0,176.1L3.11,413.25L6.22,413.25L9.33,232.55L12.44,347.15L31.11,325.42L34.22,321.85L40.44,315.79L43.55,314.47L49.77,308.86L52.88,306.12L55.99,302.6L59.1,300.73L62.21,297.85L65.32,296.04L68.43,294.23L71.54,290.95L74.65,290.14L77.76,287.94L87.1,280.42L90.21,278.35L93.32,274.81L96.43,273.78L105.76,264.98L108.87,263.51L111.98,262.72L115.09,260.23L118.2,255.59L121.31,254.54L124.42,250.59L127.53,249.28L130.64,248.22L133.75,243.8L143.09,236.75L146.2,233.03L152.42,227.71L155.53,226.82L161.75,220.79L164.86,215.86L174.19,208.17L177.3,205.97L183.52,200.21L186.63,195.93L189.74,196.23L192.85,189.46L195.96,186.19L199.08,181.03L202.19,180.19L205.3,177.1L220.85,157.95L223.96,152.73L227.07,149.63L230.18,148.63L239.51,132.67L242.62,128.65L245.73,127.83L248.84,124.95L255.07,112.79L258.18,111.02L261.29,104.54L264.4,100.7L270.62,92.98L273.73,84.15L276.84,82.03L279.95,75.83L283.06,69.86L286.17,66.29L289.28,59.85L292.39,56.67L295.5,47.19L298.61,44.88L301.72,40.12L304.83,33.27L307.94,24.58L311.06,26.51L317.28,72.29L320.39,99.34L332.83,205.48L335.94,222.76L339.05,243.63L342.16,259.04L348.38,287.54L351.49,294.49L354.6,299.2L357.71,301.09L360.82,302.2L363.93,304.29L370.16,311.54L373.27,315.65L376.38,320.12L379.49,323.02L382.6,328.15L385.71,331.2L388.82,336.7L391.93,338.43L395.04,339.96L398.15,340.29L401.26,341.41L404.37,340.4L410.59,344.22L413.7,347.76L416.81,346.74L419.92,349.59L423.04,351.86L426.15,353.03L435.48,357.03L438.59,357.82L441.7,359.9L444.81,360.13L447.92,360.76L451.03,363.74L454.14,361.81L457.25,364.76L463.47,364.65L466.58,367.37L475.91,369.78L479.03,369.91L482.14,371.13L485.25,371.16L488.36,372.9L491.47,373.09L494.58,374.74L497.69,373.53L500.8,375.42L503.91,375.85L510.13,377.9L513.24,377.76L522.57,380.19L525.68,379.26L528.79,381.96L531.9,382.28L535.02,381.08L538.13,382.52L544.35,383.33L547.46,383.92L556.79,385.05L559.9,385.15L575.45,387.33L578.56,387.13L591.01,389.8L594.12,389.7L606.56,391.26L609.67,390.9L612.78,390.72L615.89,392.16L619,391.44" style="vector-effect: non-scaling-stroke; fill: none; stroke: rgb(214, 39, 40); stroke-opacity: 1; stroke-width: 2px; opacity: 1;"/></g><g class="points"/><g class="text"/></g><g class="trace scatter tracea6b593" style="stroke-miterlimit: 2; opacity: 1;"><g class="fills"/><g class="errorbars"/><g class="lines"><path class="js-line" d="M0,176.05L3.11,413.25L6.22,413.25L9.33,232.55L12.44,347.15L31.11,325.42L34.22,321.85L40.44,315.79L43.55,314.47L49.77,308.86L52.88,306.12L55.99,302.6L59.1,300.73L62.21,297.85L65.32,296.04L68.43,294.23L71.54,290.95L74.65,290.14L77.76,287.94L87.1,280.42L90.21,278.35L93.32,274.81L96.43,273.78L105.76,264.98L108.87,263.51L111.98,262.72L115.09,260.23L118.2,255.59L121.31,254.54L124.42,250.59L127.53,249.28L130.64,248.22L133.75,243.8L143.09,236.75L146.2,233.03L152.42,227.71L155.53,226.82L161.75,220.79L164.86,215.86L174.19,208.17L177.3,205.97L183.52,200.21L186.63,195.93L189.74,196.23L192.85,189.46L195.96,186.19L199.08,181.03L202.19,180.19L205.3,177.1L220.85,157.95L223.96,152.73L227.07,149.63L230.18,148.63L239.51,132.67L242.62,128.65L245.73,127.83L248.84,124.95L255.07,112.79L258.18,111.02L261.29,104.54L264.4,100.7L270.62,92.98L273.73,84.15L276.84,82.03L279.95,75.83L283.06,69.86L286.17,66.29L289.28,59.85L292.39,56.67L295.5,47.19L298.61,44.88L301.72,40.12L304.83,33.27L307.94,24.58L311.06,23.8L314.17,31.63L317.28,51.76L320.39,82.07L323.5,102.78L332.83,184.69L335.94,205.9L348.38,275.11L351.49,282.9L354.6,285.65L357.71,286.14L360.82,285.59L363.93,286.58L367.05,286.88L370.16,291.48L373.27,294.04L376.38,297.79L391.93,321.33L395.04,322.75L398.15,324.48L401.26,323.84L407.48,326.38L410.59,326.27L413.7,326.56L416.81,328.39L419.92,329.69L423.04,329.86L426.15,332.38L429.26,332.91L432.37,334.89L435.48,338.43L438.59,338.42L441.7,340.33L444.81,342.7L447.92,342.67L460.36,345.32L463.47,346.63L466.58,347.76L469.69,347.06L479.03,351.53L482.14,351.03L488.36,354.72L491.47,354.29L494.58,355.9L497.69,356.35L500.8,356.21L503.91,357.6L507.02,357.46L510.13,358.45L513.24,356.75L516.35,356.24L519.46,359.8L522.57,358.85L525.68,360.68L528.79,361.04L531.9,361.34L535.02,362.46L538.13,362.28L541.24,363.21L547.46,363.57L550.57,364.71L553.68,365.2L556.79,364.91L559.9,365.8L563.01,364.6L566.12,366.88L569.23,367.88L572.34,366.76L575.45,368.05L581.67,367.69L584.78,368.72L591.01,369.29L594.12,368.2L597.23,368.47L600.34,369.74L609.67,370.17L612.78,369.6L619,371.38" style="vector-effect: non-scaling-stroke; fill: none; stroke: rgb(148, 103, 189); stroke-opacity: 1; stroke-width: 2px; opacity: 1;"/></g><g class="points"/><g class="text"/></g><g class="trace scatter trace550df7" style="stroke-miterlimit: 2; opacity: 1;"><g class="fills"/><g class="errorbars"/><g class="lines"><path class="js-line" d="M0,176.03L3.11,413.25L6.22,413.25L9.33,232.55L12.44,347.15L31.11,325.42L34.22,321.85L40.44,315.79L43.55,314.47L49.77,308.86L52.88,306.12L55.99,302.6L59.1,300.73L62.21,297.85L65.32,296.04L68.43,294.23L71.54,290.95L74.65,290.14L77.76,287.94L87.1,280.42L90.21,278.35L93.32,274.81L96.43,273.78L105.76,264.98L108.87,263.51L111.98,262.72L115.09,260.23L118.2,255.59L121.31,254.54L124.42,250.59L127.53,249.28L130.64,248.22L133.75,243.8L143.09,236.75L146.2,233.03L152.42,227.71L155.53,226.82L161.75,220.79L164.86,215.86L174.19,208.17L177.3,205.97L183.52,200.21L186.63,195.93L189.74,196.23L192.85,189.46L195.96,186.19L199.08,181.03L202.19,180.19L205.3,177.1L220.85,157.95L223.96,152.73L227.07,149.63L230.18,148.63L239.51,132.67L242.62,128.65L245.73,127.83L248.84,124.95L255.07,112.79L258.18,111.02L261.29,104.54L264.4,100.7L270.62,92.98L273.73,84.15L276.84,82.03L279.95,75.83L283.06,69.86L286.17,66.29L289.28,59.85L292.39,56.67L295.5,47.19L298.61,44.88L301.72,40.12L304.83,33.27L307.94,24.58L311.06,21.75L314.17,27.33L317.28,41.41L323.5,82.58L326.61,111.07L342.16,223.66L345.27,239.78L348.38,255.86L351.49,266.51L354.6,270.76L357.71,272.81L367.05,270.55L370.16,271.81L373.27,273.88L376.38,274.56L388.82,294.9L391.93,297.56L395.04,300.04L398.15,303.57L401.26,303.27L404.37,305.41L407.48,306.88L410.59,307.49L413.7,306.07L416.81,305.58L419.92,306.91L423.04,309.32L429.26,313.32L432.37,311.88L435.48,313.78L438.59,316.66L441.7,316.74L444.81,321.31L447.92,319.98L451.03,321.46L457.25,322.76L460.36,321.76L463.47,322.06L466.58,324.07L475.91,324.9L479.03,326.2L482.14,326.71L485.25,329.24L488.36,327.4L491.47,329.34L497.69,330.79L500.8,330.98L503.91,331.09L507.02,332.71L513.24,333.35L516.35,335.2L519.46,333.58L522.57,335.21L525.68,334.46L528.79,335.85L531.9,336.88L535.02,337.08L538.13,337.35L541.24,336.37L544.35,336.99L547.46,336.45L550.57,337.72L553.68,336.86L556.79,337.68L559.9,336.8L563.01,338.57L566.12,338.02L569.23,340.01L572.34,338.56L575.45,338.02L578.56,340.06L587.89,340.93L591.01,340.05L594.12,339.26L597.23,340.81L600.34,339.57L603.45,340.73L612.78,340.46L615.89,339.96L619,340.29" style="vector-effect: non-scaling-stroke; fill: none; stroke: rgb(140, 86, 75); stroke-opacity: 1; stroke-width: 2px; opacity: 1;"/></g><g class="points"/><g class="text"/></g></g></g><g class="overplot"/><path class="xlines-above crisp" style="fill: none;" d="M0,0"/><path class="ylines-above crisp" style="fill: none;" d="M0,0"/><g class="overlines-above"/><g class="xaxislayer-above"><g class="xtick"><text text-anchor="middle" x="0" y="473" transform="translate(212.42,0)" style="font-family: 'Open Sans', verdana, arial, sans-serif; font-size: 12px; fill: rgb(68, 68, 68); fill-opacity: 1; white-space: pre;">50</text></g><g class="xtick"><text text-anchor="middle" x="0" y="473" transform="translate(367.94,0)" style="font-family: 'Open Sans', verdana, arial, sans-serif; font-size: 12px; fill: rgb(68, 68, 68); fill-opacity: 1; white-space: pre;">100</text></g><g class="xtick"><text text-anchor="middle" x="0" y="473" transform="translate(523.47,0)" style="font-family: 'Open Sans', verdana, arial, sans-serif; font-size: 12px; fill: rgb(68, 68, 68); fill-opacity: 1; white-space: pre;">150</text></g><g class="xtick"><text text-anchor="middle" x="0" y="473" transform="translate(679,0)" style="font-family: 'Open Sans', verdana, arial, sans-serif; font-size: 12px; fill: rgb(68, 68, 68); fill-opacity: 1; white-space: pre;">200</text></g></g><g class="yaxislayer-above"><g class="ytick"><text text-anchor="end" x="59" y="4.199999999999999" transform="translate(0,438.25)" style="font-family: 'Open Sans', verdana, arial, sans-serif; font-size: 12px; fill: rgb(68, 68, 68); fill-opacity: 1; white-space: pre;">0</text></g><g class="ytick"><text text-anchor="end" x="59" y="4.199999999999999" transform="translate(0,359.74)" style="font-family: 'Open Sans', verdana, arial, sans-serif; font-size: 12px; fill: rgb(68, 68, 68); fill-opacity: 1; white-space: pre;">50</text></g><g class="ytick"><text text-anchor="end" x="59" y="4.199999999999999" transform="translate(0,281.24)" style="font-family: 'Open Sans', verdana, arial, sans-serif; font-size: 12px; fill: rgb(68, 68, 68); fill-opacity: 1; white-space: pre;">100</text></g><g class="ytick"><text text-anchor="end" x="59" y="4.199999999999999" transform="translate(0,202.73)" style="font-family: 'Open Sans', verdana, arial, sans-serif; font-size: 12px; fill: rgb(68, 68, 68); fill-opacity: 1; white-space: pre;">150</text></g><g class="ytick"><text text-anchor="end" x="59" y="4.199999999999999" transform="translate(0,124.23)" style="font-family: 'Open Sans', verdana, arial, sans-serif; font-size: 12px; fill: rgb(68, 68, 68); fill-opacity: 1; white-space: pre;">200</text></g><g class="ytick"><text text-anchor="end" x="59" y="4.199999999999999" transform="translate(0,45.72)" style="font-family: 'Open Sans', verdana, arial, sans-serif; font-size: 12px; fill: rgb(68, 68, 68); fill-opacity: 1; white-space: pre;">250</text></g></g><g class="overaxes-above"/></g></g><g class="polarlayer"/><g class="ternarylayer"/><g class="geolayer"/><g class="funnelarealayer"/><g class="pielayer"/><g class="treemaplayer"/><g class="sunburstlayer"/><g class="glimages"/><defs id="topdefs-4ef401"><g class="clips"/><clipPath id="legend4ef401"><rect width="117" height="140" x="0" y="0"/></clipPath></defs><g class="layer-above"><g class="imagelayer"/><g class="shapelayer"/></g><g class="infolayer"><g class="legend" pointer-events="all" transform="translate(90.95, 46.750000000000014)"><rect class="bg" shape-rendering="crispEdges" style="stroke: rgb(68, 68, 68); stroke-opacity: 1; fill: rgb(226, 226, 226); fill-opacity: 1; stroke-width: 0px;" width="117" height="140" x="0" y="0"/><g class="scrollbox" transform="translate(0, 0)" clip-path="url('#legend4ef401')"><text class="legendtitletext user-select-none" text-anchor="start" x="2" y="15.600000000000001" style="font-family: 'Open Sans', verdana, arial, sans-serif; font-size: 12px; fill: rgb(68, 68, 68); fill-opacity: 1; white-space: pre;"><tspan style="font-weight:bold"> Identification Time </tspan></text><g class="groups"><g class="traces" transform="translate(0, 30.1)" style="opacity: 1;"><text class="legendtext user-select-none" text-anchor="start" x="40" y="4.680000000000001" style="font-family: 'Open Sans', verdana, arial, sans-serif; font-size: 12px; fill: rgb(68, 68, 68); fill-opacity: 1; white-space: pre;">0 Months</text><g class="layers" style="opacity: 1;"><g class="legendfill"/><g class="legendlines"><path class="js-line" d="M5,0h30" style="fill: none; stroke: rgb(31, 119, 180); stroke-opacity: 1; stroke-width: 2px;"/></g><g class="legendsymbols"><g class="legendpoints"/></g></g><rect class="legendtoggle" pointer-events="all" x="0" y="-9.5" width="98.046875" height="19" style="cursor: pointer; fill: rgb(0, 0, 0); fill-opacity: 0;"/></g><g class="traces" transform="translate(0, 49.1)" style="opacity: 1;"><text class="legendtext user-select-none" text-anchor="start" x="40" y="4.680000000000001" style="font-family: 'Open Sans', verdana, arial, sans-serif; font-size: 12px; fill: rgb(68, 68, 68); fill-opacity: 1; white-space: pre;">3 Months</text><g class="layers" style="opacity: 1;"><g class="legendfill"/><g class="legendlines"><path class="js-line" d="M5,0h30" style="fill: none; stroke: rgb(255, 127, 14); stroke-opacity: 1; stroke-width: 2px;"/></g><g class="legendsymbols"><g class="legendpoints"/></g></g><rect class="legendtoggle" pointer-events="all" x="0" y="-9.5" width="98.046875" height="19" style="cursor: pointer; fill: rgb(0, 0, 0); fill-opacity: 0;"/></g><g class="traces" transform="translate(0, 68.1)" style="opacity: 1;"><text class="legendtext user-select-none" text-anchor="start" x="40" y="4.680000000000001" style="font-family: 'Open Sans', verdana, arial, sans-serif; font-size: 12px; fill: rgb(68, 68, 68); fill-opacity: 1; white-space: pre;">6 Months</text><g class="layers" style="opacity: 1;"><g class="legendfill"/><g class="legendlines"><path class="js-line" d="M5,0h30" style="fill: none; stroke: rgb(44, 160, 44); stroke-opacity: 1; stroke-width: 2px;"/></g><g class="legendsymbols"><g class="legendpoints"/></g></g><rect class="legendtoggle" pointer-events="all" x="0" y="-9.5" width="98.046875" height="19" style="cursor: pointer; fill: rgb(0, 0, 0); fill-opacity: 0;"/></g><g class="traces" transform="translate(0, 87.1)" style="opacity: 1;"><text class="legendtext user-select-none" text-anchor="start" x="40" y="4.680000000000001" style="font-family: 'Open Sans', verdana, arial, sans-serif; font-size: 12px; fill: rgb(68, 68, 68); fill-opacity: 1; white-space: pre;">12 Months</text><g class="layers" style="opacity: 1;"><g class="legendfill"/><g class="legendlines"><path class="js-line" d="M5,0h30" style="fill: none; stroke: rgb(214, 39, 40); stroke-opacity: 1; stroke-width: 2px;"/></g><g class="legendsymbols"><g class="legendpoints"/></g></g><rect class="legendtoggle" pointer-events="all" x="0" y="-9.5" width="98.046875" height="19" style="cursor: pointer; fill: rgb(0, 0, 0); fill-opacity: 0;"/></g><g class="traces" transform="translate(0, 106.1)" style="opacity: 1;"><text class="legendtext user-select-none" text-anchor="start" x="40" y="4.680000000000001" style="font-family: 'Open Sans', verdana, arial, sans-serif; font-size: 12px; fill: rgb(68, 68, 68); fill-opacity: 1; white-space: pre;">24 Months</text><g class="layers" style="opacity: 1;"><g class="legendfill"/><g class="legendlines"><path class="js-line" d="M5,0h30" style="fill: none; stroke: rgb(148, 103, 189); stroke-opacity: 1; stroke-width: 2px;"/></g><g class="legendsymbols"><g class="legendpoints"/></g></g><rect class="legendtoggle" pointer-events="all" x="0" y="-9.5" width="98.046875" height="19" style="cursor: pointer; fill: rgb(0, 0, 0); fill-opacity: 0;"/></g><g class="traces" transform="translate(0, 125.1)" style="opacity: 1;"><text class="legendtext user-select-none" text-anchor="start" x="40" y="4.680000000000001" style="font-family: 'Open Sans', verdana, arial, sans-serif; font-size: 12px; fill: rgb(68, 68, 68); fill-opacity: 1; white-space: pre;">36 Months</text><g class="layers" style="opacity: 1;"><g class="legendfill"/><g class="legendlines"><path class="js-line" d="M5,0h30" style="fill: none; stroke: rgb(140, 86, 75); stroke-opacity: 1; stroke-width: 2px;"/></g><g class="legendsymbols"><g class="legendpoints"/></g></g><rect class="legendtoggle" pointer-events="all" x="0" y="-9.5" width="98.046875" height="19" style="cursor: pointer; fill: rgb(0, 0, 0); fill-opacity: 0;"/></g></g></g><rect class="scrollbar" rx="20" ry="3" width="0" height="0" style="fill: rgb(128, 139, 164); fill-opacity: 1;" x="0" y="0"/></g><g class="g-gtitle"><text class="gtitle" x="350" y="12.5" text-anchor="middle" dy="0em" style="font-family: 'Open Sans', verdana, arial, sans-serif; font-size: 17px; fill: rgb(68, 68, 68); opacity: 1; font-weight: normal; white-space: pre;"><tspan style="font-weight:bold"> Leprosy Incidence - Immunity Vaccine 0.0, Treatment 75% </tspan></text></g><g class="g-xtitle" transform="translate(0,-15)"><text class="xtitle" x="369.5" y="512" text-anchor="middle" style="font-family: 'Open Sans', verdana, arial, sans-serif; font-size: 14px; fill: rgb(68, 68, 68); opacity: 1; font-weight: normal; white-space: pre;">Time(Years)</text></g><g class="g-ytitle"><text class="ytitle" transform="rotate(-90,22,242.5)" x="22" y="242.5" text-anchor="middle" style="font-family: 'Open Sans', verdana, arial, sans-serif; font-size: 14px; fill: rgb(68, 68, 68); opacity: 1; font-weight: normal; white-space: pre;">Number of new infectiuos individuals</text></g></g></svg>