<svg class="main-svg" xmlns="http://www.w3.org/2000/svg" xmlns:xlink="http://www.w3.org/1999/xlink" width="700" height="500" style="" viewBox="0 0 700 500"><rect x="0" y="0" width="700" height="500" style="fill: rgb(255, 255, 255); fill-opacity: 1;"/><defs id="defs-2f9c25"><g class="clips"><clipPath id="clip2f9c25xyplot" class="plotclip"><rect width="619" height="435"/></clipPath><clipPath class="axesclip" id="clip2f9c25x"><rect x="60" y="0" width="619" height="500"/></clipPath><clipPath class="axesclip" id="clip2f9c25y"><rect x="0" y="25" width="700" height="435"/></clipPath><clipPath class="axesclip" id="clip2f9c25xy"><rect x="60" y="25" width="619" height="435"/></clipPath></g><g class="gradients"/></defs><g class="bglayer"/><g class="layer-below"><g class="imagelayer"/><g class="shapelayer"/></g><g class="cartesianlayer"><g class="subplot xy"><g class="layer-subplot"><g class="shapelayer"/><g class="imagelayer"/></g><g class="gridlayer"><g class="x"><path class="xgrid crisp" transform="translate(212.42,0)" d="M0,25v435" style="stroke: rgb(238, 238, 238); stroke-opacity: 1; stroke-width: 1px;"/><path class="xgrid crisp" transform="translate(367.94,0)" d="M0,25v435" style="stroke: rgb(238, 238, 238); stroke-opacity: 1; stroke-width: 1px;"/><path class="xgrid crisp" transform="translate(523.47,0)" d="M0,25v435" style="stroke: rgb(238, 238, 238); stroke-opacity: 1; stroke-width: 1px;"/></g><g class="y"><path class="ygrid crisp" transform="translate(0,368.02)" d="M60,0h619" style="stroke: rgb(238, 238, 238); stroke-opacity: 1; stroke-width: 1px;"/><path class="ygrid crisp" transform="translate(0,297.8)" d="M60,0h619" style="stroke: rgb(238, 238, 238); stroke-opacity: 1; stroke-width: 1px;"/><path class="ygrid crisp" transform="translate(0,227.57)" d="M60,0h619" style="stroke: rgb(238, 238, 238); stroke-opacity: 1; stroke-width: 1px;"/><path class="ygrid crisp" transform="translate(0,157.35)" d="M60,0h619" style="stroke: rgb(238, 238, 238); stroke-opacity: 1; stroke-width: 1px;"/><path class="ygrid crisp" transform="translate(0,87.12)" d="M60,0h619" style="stroke: rgb(238, 238, 238); stroke-opacity: 1; stroke-width: 1px;"/></g></g><g class="zerolinelayer"><path class="yzl zl crisp" transform="translate(0,438.25)" d="M60,0h619" style="stroke: rgb(68, 68, 68); stroke-opacity: 1; stroke-width: 1px;"/></g><path class="xlines-below"/><path class="ylines-below"/><g class="overlines-below"/><g class="xaxislayer-below"/><g class="yaxislayer-below"/><g class="overaxes-below"/><g class="plot" transform="translate(60, 25)" clip-path="url('#clip2f9c25xyplot')"><g class="scatterlayer mlayer"><g class="trace scatter trace084403" style="stroke-miterlimit: 2; opacity: 1;"><g class="fills"/><g class="errorbars"/><g class="lines"><path class="js-line" d="M0,306.58L3.11,413.25L6.22,413.25L9.33,332.43L12.44,383.68L37.33,370.94L40.44,369.66L46.66,367.98L49.77,366.56L65.32,360.83L68.43,360.02L71.54,358.55L74.65,358.19L90.21,352.91L93.32,351.33L96.43,350.87L99.54,349.42L108.87,346.28L111.98,345.92L115.09,344.81L118.2,342.73L121.31,342.27L124.42,340.5L130.64,339.44L133.75,337.46L143.09,334.31L146.2,332.64L152.42,330.26L155.53,329.87L167.97,323.69L171.08,322.77L186.63,316.05L189.74,316.18L192.85,313.16L195.96,311.69L199.08,309.39L202.19,309.01L208.41,305.89L211.52,303.81L227.07,295.34L230.18,294.89L239.51,287.76L242.62,285.96L245.73,285.59L248.84,284.3L255.07,278.86L258.18,278.07L261.29,275.17L264.4,273.45L270.62,270L273.73,266.05L276.84,265.11L279.95,262.33L283.06,259.66L286.17,258.07L289.28,255.19L292.39,253.76L295.5,249.52L298.61,248.49L301.72,246.36L304.83,243.3L307.94,239.41L311.06,240.87L314.17,243.38L317.28,244.8L320.39,247.77L323.5,253.64L326.61,255.62L329.72,259.88L332.83,262.39L335.94,265.94L345.27,274.28L348.38,277.84L351.49,276.66L354.6,278.73L357.71,276.19L360.82,279.16L363.93,278.24L367.05,278.28L370.16,275.97L373.27,276.44L376.38,275.58L379.49,276.93L388.82,274.43L391.93,275.4L395.04,273.85L398.15,273.85L404.37,272.07L407.48,271.95L413.7,270.93L416.81,270.44L419.92,269.49L423.04,269.49L426.15,267.27L429.26,267.19L435.48,265.3L438.59,265.68L441.7,262.45L444.81,263.36L447.92,262.79L451.03,261.32L454.14,259.46L457.25,259.56L463.47,256.39L466.58,257.51L469.69,256.53L472.8,253.45L475.91,253.69L479.03,250.23L485.25,250.1L488.36,248.43L491.47,247.41L494.58,247.42L497.69,243.44L500.8,243L503.91,241.32L507.02,240.61L513.24,236.34L516.35,236.91L519.46,235.55L522.57,232.72L525.68,229.75L528.79,228.26L538.13,225.15L541.24,221.77L547.46,219.36L550.57,216.55L553.68,214.7L556.79,215L563.01,209.24L566.12,209.8L569.23,205.65L572.34,204.33L578.56,199.99L581.67,198.83L584.78,194.19L587.89,194.74L603.45,180.92L606.56,181.16L609.67,175.23L612.78,176.75L615.89,171.42L619,169.46" style="vector-effect: non-scaling-stroke; fill: none; stroke: rgb(31, 119, 180); stroke-opacity: 1; stroke-width: 2px; opacity: 1;"/></g><g class="points"/><g class="text"/></g><g class="trace scatter traceca6d6a" style="stroke-miterlimit: 2; opacity: 1;"><g class="fills"/><g class="errorbars"/><g class="lines"><path class="js-line" d="M0,306.53L3.11,413.25L6.22,413.25L9.33,332.43L12.44,383.68L37.33,370.94L40.44,369.66L46.66,367.98L49.77,366.56L65.32,360.83L68.43,360.02L71.54,358.55L74.65,358.19L90.21,352.91L93.32,351.33L96.43,350.87L99.54,349.42L108.87,346.28L111.98,345.92L115.09,344.81L118.2,342.73L121.31,342.27L124.42,340.5L130.64,339.44L133.75,337.46L143.09,334.31L146.2,332.64L152.42,330.26L155.53,329.87L167.97,323.69L171.08,322.77L186.63,316.05L189.74,316.18L192.85,313.16L195.96,311.69L199.08,309.39L202.19,309.01L208.41,305.89L211.52,303.81L227.07,295.34L230.18,294.89L239.51,287.76L242.62,285.96L245.73,285.59L248.84,284.3L255.07,278.86L258.18,278.07L261.29,275.17L264.4,273.45L270.62,270L273.73,266.05L276.84,265.11L279.95,262.33L283.06,259.66L286.17,258.07L289.28,255.19L292.39,253.76L295.5,249.52L298.61,248.49L301.72,246.36L304.83,243.3L307.94,239.41L311.06,239.19L317.28,244.12L320.39,248.52L323.5,249.87L326.61,253.57L329.72,257.53L332.83,259.93L339.05,266.86L342.16,269.31L345.27,272.42L348.38,274.41L354.6,276.49L357.71,276.45L363.93,276.08L367.05,274.63L370.16,273.21L373.27,273.76L379.49,273.04L382.6,273.85L388.82,272.3L391.93,272.83L395.04,271.06L398.15,272.06L407.48,268.34L410.59,269.35L416.81,265.8L419.92,266.84L435.48,261.8L438.59,260.97L441.7,260.62L444.81,258.53L447.92,258.37L451.03,257.34L454.14,255.42L457.25,255.47L460.36,254.33L463.47,251.45L469.69,250.31L472.8,250.94L475.91,247.83L479.03,246.46L482.14,245.16L485.25,242.61L491.47,240.98L494.58,240.22L500.8,236.51L503.91,234.7L510.13,231.98L513.24,231.8L516.35,227.94L519.46,227L522.57,224.77L525.68,224.46L528.79,223L531.9,220.1L535.02,218.5L538.13,215.9L541.24,213.72L544.35,212.6L547.46,212.45L550.57,210.1L556.79,203.75L559.9,203.3L563.01,198.65L566.12,199.15L569.23,195.87L572.34,194.62L575.45,191.53L578.56,190.72L581.67,185.85L584.78,184.91L594.12,178.29L597.23,176.22L600.34,174.85L603.45,168.82L606.56,169.01L609.67,164.99L612.78,163.46L615.89,161.03L619,156.64" style="vector-effect: non-scaling-stroke; fill: none; stroke: rgb(255, 127, 14); stroke-opacity: 1; stroke-width: 2px; opacity: 1;"/></g><g class="points"/><g class="text"/></g><g class="trace scatter trace25f89b" style="stroke-miterlimit: 2; opacity: 1;"><g class="fills"/><g class="errorbars"/><g class="lines"><path class="js-line" d="M0,306.46L3.11,413.25L6.22,413.25L9.33,332.43L12.44,383.68L37.33,370.94L40.44,369.66L46.66,367.98L49.77,366.56L65.32,360.83L68.43,360.02L71.54,358.55L74.65,358.19L90.21,352.91L93.32,351.33L96.43,350.87L99.54,349.42L108.87,346.28L111.98,345.92L115.09,344.81L118.2,342.73L121.31,342.27L124.42,340.5L130.64,339.44L133.75,337.46L143.09,334.31L146.2,332.64L152.42,330.26L155.53,329.87L167.97,323.69L171.08,322.77L186.63,316.05L189.74,316.18L192.85,313.16L195.96,311.69L199.08,309.39L202.19,309.01L208.41,305.89L211.52,303.81L227.07,295.34L230.18,294.89L239.51,287.76L242.62,285.96L245.73,285.59L248.84,284.3L255.07,278.86L258.18,278.07L261.29,275.17L264.4,273.45L270.62,270L273.73,266.05L276.84,265.11L279.95,262.33L283.06,259.66L286.17,258.07L289.28,255.19L292.39,253.76L295.5,249.52L298.61,248.49L301.72,246.36L304.83,243.3L307.94,239.41L311.06,239.65L314.17,241.83L317.28,242.34L326.61,253.77L329.72,255.48L339.05,265.77L342.16,267.97L348.38,273.23L351.49,274.24L354.6,273.7L357.71,275.43L367.05,271.72L370.16,273.11L379.49,271.14L382.6,271.32L385.71,269.49L388.82,270.24L391.93,267.45L395.04,269.04L401.26,268.05L404.37,266.64L413.7,263.63L416.81,264.47L426.15,261.22L429.26,260.88L432.37,257.97L435.48,258.23L438.59,255.68L441.7,255.76L447.92,253.84L451.03,253.75L454.14,250.31L457.25,250.21L460.36,249.48L463.47,247.63L466.58,246.8L469.69,245.01L472.8,242.35L475.91,242.25L482.14,238.9L485.25,238.06L488.36,236.62L491.47,236.07L497.69,230.66L500.8,229.49L503.91,229.02L507.02,226.58L510.13,224.59L513.24,223.7L516.35,220.67L519.46,218.81L522.57,217.49L525.68,214.94L528.79,212.64L531.9,211.49L538.13,206.01L541.24,205.39L547.46,201.62L550.57,198.76L556.79,193.73L559.9,193.5L563.01,190.09L566.12,185.35L572.34,184.6L575.45,178.83L578.56,177.61L581.67,174.64L584.78,172.75L587.89,172.01L591.01,170.28L594.12,165.97L597.23,162.08L600.34,160.23L603.45,156.13L606.56,154.75L609.67,152.91L612.78,149.62L615.89,147.46L619,143.3" style="vector-effect: non-scaling-stroke; fill: none; stroke: rgb(44, 160, 44); stroke-opacity: 1; stroke-width: 2px; opacity: 1;"/></g><g class="points"/><g class="text"/></g><g class="trace scatter traceacea67" style="stroke-miterlimit: 2; opacity: 1;"><g class="fills"/><g class="errorbars"/><g class="lines"><path class="js-line" d="M0,306.41L3.11,413.25L6.22,413.25L9.33,332.43L12.44,383.68L37.33,370.94L40.44,369.66L46.66,367.98L49.77,366.56L65.32,360.83L68.43,360.02L71.54,358.55L74.65,358.19L90.21,352.91L93.32,351.33L96.43,350.87L99.54,349.42L108.87,346.28L111.98,345.92L115.09,344.81L118.2,342.73L121.31,342.27L124.42,340.5L130.64,339.44L133.75,337.46L143.09,334.31L146.2,332.64L152.42,330.26L155.53,329.87L167.97,323.69L171.08,322.77L186.63,316.05L189.74,316.18L192.85,313.16L195.96,311.69L199.08,309.39L202.19,309.01L208.41,305.89L211.52,303.81L227.07,295.34L230.18,294.89L239.51,287.76L242.62,285.96L245.73,285.59L248.84,284.3L255.07,278.86L258.18,278.07L261.29,275.17L264.4,273.45L270.62,270L273.73,266.05L276.84,265.11L279.95,262.33L283.06,259.66L286.17,258.07L289.28,255.19L292.39,253.76L295.5,249.52L298.61,248.49L301.72,246.36L304.83,243.3L307.94,239.41L311.06,238.33L323.5,247.37L326.61,251.58L335.94,258.37L339.05,262.08L342.16,263.51L345.27,266.15L348.38,269.16L351.49,270.63L357.71,269.84L360.82,270.71L363.93,271.28L367.05,269.24L370.16,267.58L373.27,268.36L376.38,266.94L379.49,268.45L382.6,266.63L385.71,266.48L388.82,264.21L391.93,264.23L395.04,264.78L398.15,262.72L404.37,261.49L407.48,260.24L410.59,259.5L413.7,257.44L419.92,257.17L423.04,255.19L432.37,251.25L435.48,252.42L438.59,248.36L441.7,249.42L447.92,246.8L451.03,242.86L454.14,243.6L457.25,242.33L463.47,239.49L466.58,239.64L469.69,236.69L472.8,234.79L485.25,227.93L488.36,228.51L491.47,225.65L494.58,224.51L497.69,222.27L500.8,218.83L507.02,215.51L510.13,214.68L513.24,211.88L516.35,210.46L519.46,207.84L522.57,207.43L525.68,203.41L528.79,202.58L531.9,197.29L535.02,196.79L538.13,194.99L541.24,191.96L544.35,190.86L547.46,187.32L550.57,185.63L553.68,182.88L559.9,177.6L563.01,176.45L569.23,169.09L572.34,168.38L575.45,165.6L578.56,160.82L581.67,159.45L584.78,155.42L587.89,154.16L591.01,150.63L597.23,142.4L600.34,142.67L603.45,136.99L606.56,136.48L609.67,130.84L612.78,127.87L615.89,124.22L619,123.02" style="vector-effect: non-scaling-stroke; fill: none; stroke: rgb(214, 39, 40); stroke-opacity: 1; stroke-width: 2px; opacity: 1;"/></g><g class="points"/><g class="text"/></g><g class="trace scatter trace792cd6" style="stroke-miterlimit: 2; opacity: 1;"><g class="fills"/><g class="errorbars"/><g class="lines"><path class="js-line" d="M0,306.25L3.11,413.25L6.22,413.25L9.33,332.43L12.44,383.68L37.33,370.94L40.44,369.66L46.66,367.98L49.77,366.56L65.32,360.83L68.43,360.02L71.54,358.55L74.65,358.19L90.21,352.91L93.32,351.33L96.43,350.87L99.54,349.42L108.87,346.28L111.98,345.92L115.09,344.81L118.2,342.73L121.31,342.27L124.42,340.5L130.64,339.44L133.75,337.46L143.09,334.31L146.2,332.64L152.42,330.26L155.53,329.87L167.97,323.69L171.08,322.77L186.63,316.05L189.74,316.18L192.85,313.16L195.96,311.69L199.08,309.39L202.19,309.01L208.41,305.89L211.52,303.81L227.07,295.34L230.18,294.89L239.51,287.76L242.62,285.96L245.73,285.59L248.84,284.3L255.07,278.86L258.18,278.07L261.29,275.17L264.4,273.45L270.62,270L273.73,266.05L276.84,265.11L279.95,262.33L283.06,259.66L286.17,258.07L289.28,255.19L292.39,253.76L295.5,249.52L298.61,248.49L301.72,246.36L304.83,243.3L307.94,239.41L311.06,237.99L314.17,237.28L317.28,238.95L326.61,246.01L329.72,248.57L335.94,254.68L339.05,255.44L342.16,258.46L345.27,259.89L348.38,262.64L351.49,263.81L357.71,264.58L360.82,264.4L363.93,263.54L367.05,263.57L370.16,260.53L373.27,261.05L376.38,258.75L379.49,258.28L382.6,258.14L385.71,256.32L388.82,254.26L391.93,257.41L398.15,252.35L401.26,251.72L404.37,251.47L407.48,249.96L410.59,247.81L413.7,248.5L419.92,245.44L423.04,243.11L426.15,241.48L429.26,241.39L438.59,236.27L441.7,235.05L447.92,231.72L451.03,229L454.14,228.32L457.25,228.98L460.36,225.2L463.47,222.76L469.69,219.87L472.8,219.79L475.91,214.82L479.03,213.04L482.14,213.4L485.25,208.65L488.36,206.08L491.47,204.72L494.58,203.48L497.69,199.31L500.8,195.9L503.91,194.6L513.24,188.92L516.35,184.73L522.57,179.73L525.68,179.1L528.79,174.43L531.9,171.16L535.02,169.52L538.13,165.88L541.24,163.81L544.35,160.19L547.46,155.56L550.57,154.03L553.68,151.76L556.79,147.1L563.01,140.22L566.12,136.96L572.34,131.75L575.45,126.18L578.56,123.69L581.67,120.2L587.89,113.3L591.01,107.89L594.12,103.12L597.23,100.14L600.34,98.19L603.45,90.57L609.67,82.93L612.78,79.83L615.89,73.33L619,70.26" style="vector-effect: non-scaling-stroke; fill: none; stroke: rgb(148, 103, 189); stroke-opacity: 1; stroke-width: 2px; opacity: 1;"/></g><g class="points"/><g class="text"/></g><g class="trace scatter traceb044f9" style="stroke-miterlimit: 2; opacity: 1;"><g class="fills"/><g class="errorbars"/><g class="lines"><path class="js-line" d="M0,306.18L3.11,413.25L6.22,413.25L9.33,332.43L12.44,383.68L37.33,370.94L40.44,369.66L46.66,367.98L49.77,366.56L65.32,360.83L68.43,360.02L71.54,358.55L74.65,358.19L90.21,352.91L93.32,351.33L96.43,350.87L99.54,349.42L108.87,346.28L111.98,345.92L115.09,344.81L118.2,342.73L121.31,342.27L124.42,340.5L130.64,339.44L133.75,337.46L143.09,334.31L146.2,332.64L152.42,330.26L155.53,329.87L167.97,323.69L171.08,322.77L186.63,316.05L189.74,316.18L192.85,313.16L195.96,311.69L199.08,309.39L202.19,309.01L208.41,305.89L211.52,303.81L227.07,295.34L230.18,294.89L239.51,287.76L242.62,285.96L245.73,285.59L248.84,284.3L255.07,278.86L258.18,278.07L261.29,275.17L264.4,273.45L270.62,270L273.73,266.05L276.84,265.11L279.95,262.33L283.06,259.66L286.17,258.07L289.28,255.19L292.39,253.76L295.5,249.52L298.61,248.49L301.72,246.36L304.83,243.3L307.94,239.41L311.06,238.19L317.28,236.09L320.39,238.4L326.61,241.97L329.72,245.53L332.83,245.62L335.94,248.47L339.05,252.07L342.16,252.15L348.38,254.41L351.49,257.6L354.6,258.68L357.71,257.89L363.93,257.39L367.05,255.58L370.16,253.39L373.27,254.75L379.49,251.08L382.6,248.36L404.37,242.47L407.48,239.16L410.59,238.12L413.7,235.87L416.81,236.48L419.92,233.51L426.15,230.2L429.26,228.21L432.37,227.42L435.48,225.84L438.59,223.63L441.7,219.18L454.14,213.33L457.25,210.72L469.69,202.22L472.8,200.54L479.03,193.91L482.14,192.74L485.25,191.26L488.36,186.81L491.47,183.79L494.58,182.1L497.69,180.37L500.8,174.6L503.91,172.08L507.02,168.5L510.13,167.05L513.24,162.96L516.35,161.4L519.46,156.27L522.57,155.44L525.68,149.55L528.79,147.63L531.9,142.44L538.13,135.83L541.24,135.04L544.35,129.58L547.46,125.7L553.68,119.19L556.79,112.61L559.9,111.81L563.01,105.59L569.23,100.07L572.34,93.02L575.45,90.67L578.56,84.06L581.67,81.71L584.78,76.72L587.89,72.85L591.01,64.99L600.34,53.15L603.45,48.52L619,21.75" style="vector-effect: non-scaling-stroke; fill: none; stroke: rgb(140, 86, 75); stroke-opacity: 1; stroke-width: 2px; opacity: 1;"/></g><g class="points"/><g class="text"/></g></g></g><g class="overplot"/><path class="xlines-above crisp" style="fill: none;" d="M0,0"/><path class="ylines-above crisp" style="fill: none;" d="M0,0"/><g class="overlines-above"/><g class="xaxislayer-above"><g class="xtick"><text text-anchor="middle" x="0" y="473" transform="translate(212.42,0)" style="font-family: 'Open Sans', verdana, arial, sans-serif; font-size: 12px; fill: rgb(68, 68, 68); fill-opacity: 1; white-space: pre;">50</text></g><g class="xtick"><text text-anchor="middle" x="0" y="473" transform="translate(367.94,0)" style="font-family: 'Open Sans', verdana, arial, sans-serif; font-size: 12px; fill: rgb(68, 68, 68); fill-opacity: 1; white-space: pre;">100</text></g><g class="xtick"><text text-anchor="middle" x="0" y="473" transform="translate(523.47,0)" style="font-family: 'Open Sans', verdana, arial, sans-serif; font-size: 12px; fill: rgb(68, 68, 68); fill-opacity: 1; white-space: pre;">150</text></g><g class="xtick"><text text-anchor="middle" x="0" y="473" transform="translate(679,0)" style="font-family: 'Open Sans', verdana, arial, sans-serif; font-size: 12px; fill: rgb(68, 68, 68); fill-opacity: 1; white-space: pre;">200</text></g></g><g class="yaxislayer-above"><g class="ytick"><text text-anchor="end" x="59" y="4.199999999999999" transform="translate(0,438.25)" style="font-family: 'Open Sans', verdana, arial, sans-serif; font-size: 12px; fill: rgb(68, 68, 68); fill-opacity: 1; white-space: pre;">0</text></g><g class="ytick"><text text-anchor="end" x="59" y="4.199999999999999" transform="translate(0,368.02)" style="font-family: 'Open Sans', verdana, arial, sans-serif; font-size: 12px; fill: rgb(68, 68, 68); fill-opacity: 1; white-space: pre;">100</text></g><g class="ytick"><text text-anchor="end" x="59" y="4.199999999999999" transform="translate(0,297.8)" style="font-family: 'Open Sans', verdana, arial, sans-serif; font-size: 12px; fill: rgb(68, 68, 68); fill-opacity: 1; white-space: pre;">200</text></g><g class="ytick"><text text-anchor="end" x="59" y="4.199999999999999" transform="translate(0,227.57)" style="font-family: 'Open Sans', verdana, arial, sans-serif; font-size: 12px; fill: rgb(68, 68, 68); fill-opacity: 1; white-space: pre;">300</text></g><g class="ytick"><text text-anchor="end" x="59" y="4.199999999999999" transform="translate(0,157.35)" style="font-family: 'Open Sans', verdana, arial, sans-serif; font-size: 12px; fill: rgb(68, 68, 68); fill-opacity: 1; white-space: pre;">400</text></g><g class="ytick"><text text-anchor="end" x="59" y="4.199999999999999" transform="translate(0,87.12)" style="font-family: 'Open Sans', verdana, arial, sans-serif; font-size: 12px; fill: rgb(68, 68, 68); fill-opacity: 1; white-space: pre;">500</text></g></g><g class="overaxes-above"/></g></g><g class="polarlayer"/><g class="ternarylayer"/><g class="geolayer"/><g class="funnelarealayer"/><g class="pielayer"/><g class="treemaplayer"/><g class="sunburstlayer"/><g class="glimages"/><defs id="topdefs-2f9c25"><g class="clips"/><clipPath id="legend2f9c25"><rect width="117" height="140" x="0" y="0"/></clipPath></defs><g class="layer-above"><g class="imagelayer"/><g class="shapelayer"/></g><g class="infolayer"><g class="legend" pointer-events="all" transform="translate(90.95, 46.750000000000014)"><rect class="bg" shape-rendering="crispEdges" style="stroke: rgb(68, 68, 68); stroke-opacity: 1; fill: rgb(226, 226, 226); fill-opacity: 1; stroke-width: 0px;" width="117" height="140" x="0" y="0"/><g class="scrollbox" transform="translate(0, 0)" clip-path="url('#legend2f9c25')"><text class="legendtitletext user-select-none" text-anchor="start" x="2" y="15.600000000000001" style="font-family: 'Open Sans', verdana, arial, sans-serif; font-size: 12px; fill: rgb(68, 68, 68); fill-opacity: 1; white-space: pre;"><tspan style="font-weight:bold"> Identification Time </tspan></text><g class="groups"><g class="traces" transform="translate(0, 30.1)" style="opacity: 1;"><text class="legendtext user-select-none" text-anchor="start" x="40" y="4.680000000000001" style="font-family: 'Open Sans', verdana, arial, sans-serif; font-size: 12px; fill: rgb(68, 68, 68); fill-opacity: 1; white-space: pre;">0 Months</text><g class="layers" style="opacity: 1;"><g class="legendfill"/><g class="legendlines"><path class="js-line" d="M5,0h30" style="fill: none; stroke: rgb(31, 119, 180); stroke-opacity: 1; stroke-width: 2px;"/></g><g class="legendsymbols"><g class="legendpoints"/></g></g><rect class="legendtoggle" pointer-events="all" x="0" y="-9.5" width="98.046875" height="19" style="cursor: pointer; fill: rgb(0, 0, 0); fill-opacity: 0;"/></g><g class="traces" transform="translate(0, 49.1)" style="opacity: 1;"><text class="legendtext user-select-none" text-anchor="start" x="40" y="4.680000000000001" style="font-family: 'Open Sans', verdana, arial, sans-serif; font-size: 12px; fill: rgb(68, 68, 68); fill-opacity: 1; white-space: pre;">3 Months</text><g class="layers" style="opacity: 1;"><g class="legendfill"/><g class="legendlines"><path class="js-line" d="M5,0h30" style="fill: none; stroke: rgb(255, 127, 14); stroke-opacity: 1; stroke-width: 2px;"/></g><g class="legendsymbols"><g class="legendpoints"/></g></g><rect class="legendtoggle" pointer-events="all" x="0" y="-9.5" width="98.046875" height="19" style="cursor: pointer; fill: rgb(0, 0, 0); fill-opacity: 0;"/></g><g class="traces" transform="translate(0, 68.1)" style="opacity: 1;"><text class="legendtext user-select-none" text-anchor="start" x="40" y="4.680000000000001" style="font-family: 'Open Sans', verdana, arial, sans-serif; font-size: 12px; fill: rgb(68, 68, 68); fill-opacity: 1; white-space: pre;">6 Months</text><g class="layers" style="opacity: 1;"><g class="legendfill"/><g class="legendlines"><path class="js-line" d="M5,0h30" style="fill: none; stroke: rgb(44, 160, 44); stroke-opacity: 1; stroke-width: 2px;"/></g><g class="legendsymbols"><g class="legendpoints"/></g></g><rect class="legendtoggle" pointer-events="all" x="0" y="-9.5" width="98.046875" height="19" style="cursor: pointer; fill: rgb(0, 0, 0); fill-opacity: 0;"/></g><g class="traces" transform="translate(0, 87.1)" style="opacity: 1;"><text class="legendtext user-select-none" text-anchor="start" x="40" y="4.680000000000001" style="font-family: 'Open Sans', verdana, arial, sans-serif; font-size: 12px; fill: rgb(68, 68, 68); fill-opacity: 1; white-space: pre;">12 Months</text><g class="layers" style="opacity: 1;"><g class="legendfill"/><g class="legendlines"><path class="js-line" d="M5,0h30" style="fill: none; stroke: rgb(214, 39, 40); stroke-opacity: 1; stroke-width: 2px;"/></g><g class="legendsymbols"><g class="legendpoints"/></g></g><rect class="legendtoggle" pointer-events="all" x="0" y="-9.5" width="98.046875" height="19" style="cursor: pointer; fill: rgb(0, 0, 0); fill-opacity: 0;"/></g><g class="traces" transform="translate(0, 106.1)" style="opacity: 1;"><text class="legendtext user-select-none" text-anchor="start" x="40" y="4.680000000000001" style="font-family: 'Open Sans', verdana, arial, sans-serif; font-size: 12px; fill: rgb(68, 68, 68); fill-opacity: 1; white-space: pre;">24 Months</text><g class="layers" style="opacity: 1;"><g class="legendfill"/><g class="legendlines"><path class="js-line" d="M5,0h30" style="fill: none; stroke: rgb(148, 103, 189); stroke-opacity: 1; stroke-width: 2px;"/></g><g class="legendsymbols"><g class="legendpoints"/></g></g><rect class="legendtoggle" pointer-events="all" x="0" y="-9.5" width="98.046875" height="19" style="cursor: pointer; fill: rgb(0, 0, 0); fill-opacity: 0;"/></g><g class="traces" transform="translate(0, 125.1)" style="opacity: 1;"><text class="legendtext user-select-none" text-anchor="start" x="40" y="4.680000000000001" style="font-family: 'Open Sans', verdana, arial, sans-serif; font-size: 12px; fill: rgb(68, 68, 68); fill-opacity: 1; white-space: pre;">36 Months</text><g class="layers" style="opacity: 1;"><g class="legendfill"/><g class="legendlines"><path class="js-line" d="M5,0h30" style="fill: none; stroke: rgb(140, 86, 75); stroke-opacity: 1; stroke-width: 2px;"/></g><g class="legendsymbols"><g class="legendpoints"/></g></g><rect class="legendtoggle" pointer-events="all" x="0" y="-9.5" width="98.046875" height="19" style="cursor: pointer; fill: rgb(0, 0, 0); fill-opacity: 0;"/></g></g></g><rect class="scrollbar" rx="20" ry="3" width="0" height="0" style="fill: rgb(128, 139, 164); fill-opacity: 1;" x="0" y="0"/></g><g class="g-gtitle"><text class="gtitle" x="350" y="12.5" text-anchor="middle" dy="0em" style="font-family: 'Open Sans', verdana, arial, sans-serif; font-size: 17px; fill: rgb(68, 68, 68); opacity: 1; font-weight: normal; white-space: pre;"><tspan style="font-weight:bold"> Leprosy Incidence - Immunity Vaccine 0.0, Treatment 25% </tspan></text></g><g class="g-xtitle" transform="translate(0,-15)"><text class="xtitle" x="369.5" y="512" text-anchor="middle" style="font-family: 'Open Sans', verdana, arial, sans-serif; font-size: 14px; fill: rgb(68, 68, 68); opacity: 1; font-weight: normal; white-space: pre;">Time(Years)</text></g><g class="g-ytitle"><text class="ytitle" transform="rotate(-90,22,242.5)" x="22" y="242.5" text-anchor="middle" style="font-family: 'Open Sans', verdana, arial, sans-serif; font-size: 14px; fill: rgb(68, 68, 68); opacity: 1; font-weight: normal; white-space: pre;">Number of new infectiuos individuals</text></g></g></svg>