<svg class="main-svg" xmlns="http://www.w3.org/2000/svg" xmlns:xlink="http://www.w3.org/1999/xlink" width="700" height="500" style="" viewBox="0 0 700 500"><rect x="0" y="0" width="700" height="500" style="fill: rgb(255, 255, 255); fill-opacity: 1;"/><defs id="defs-494847"><g class="clips"><clipPath id="clip494847xyplot" class="plotclip"><rect width="619" height="435"/></clipPath><clipPath class="axesclip" id="clip494847x"><rect x="60" y="0" width="619" height="500"/></clipPath><clipPath class="axesclip" id="clip494847y"><rect x="0" y="25" width="700" height="435"/></clipPath><clipPath class="axesclip" id="clip494847xy"><rect x="60" y="25" width="619" height="435"/></clipPath></g><g class="gradients"/></defs><g class="bglayer"/><g class="layer-below"><g class="imagelayer"/><g class="shapelayer"/></g><g class="cartesianlayer"><g class="subplot xy"><g class="layer-subplot"><g class="shapelayer"/><g class="imagelayer"/></g><g class="gridlayer"><g class="x"><path class="xgrid crisp" transform="translate(212.42,0)" d="M0,25v435" style="stroke: rgb(238, 238, 238); stroke-opacity: 1; stroke-width: 1px;"/><path class="xgrid crisp" transform="translate(367.94,0)" d="M0,25v435" style="stroke: rgb(238, 238, 238); stroke-opacity: 1; stroke-width: 1px;"/><path class="xgrid crisp" transform="translate(523.47,0)" d="M0,25v435" style="stroke: rgb(238, 238, 238); stroke-opacity: 1; stroke-width: 1px;"/></g><g class="y"><path class="ygrid crisp" transform="translate(0,377.21)" d="M60,0h619" style="stroke: rgb(238, 238, 238); stroke-opacity: 1; stroke-width: 1px;"/><path class="ygrid crisp" transform="translate(0,316.16)" d="M60,0h619" style="stroke: rgb(238, 238, 238); stroke-opacity: 1; stroke-width: 1px;"/><path class="ygrid crisp" transform="translate(0,255.12)" d="M60,0h619" style="stroke: rgb(238, 238, 238); stroke-opacity: 1; stroke-width: 1px;"/><path class="ygrid crisp" transform="translate(0,194.08)" d="M60,0h619" style="stroke: rgb(238, 238, 238); stroke-opacity: 1; stroke-width: 1px;"/><path class="ygrid crisp" transform="translate(0,133.03)" d="M60,0h619" style="stroke: rgb(238, 238, 238); stroke-opacity: 1; stroke-width: 1px;"/><path class="ygrid crisp" transform="translate(0,71.99000000000001)" d="M60,0h619" style="stroke: rgb(238, 238, 238); stroke-opacity: 1; stroke-width: 1px;"/></g></g><g class="zerolinelayer"><path class="yzl zl crisp" transform="translate(0,438.25)" d="M60,0h619" style="stroke: rgb(68, 68, 68); stroke-opacity: 1; stroke-width: 1px;"/></g><path class="xlines-below"/><path class="ylines-below"/><g class="overlines-below"/><g class="xaxislayer-below"/><g class="yaxislayer-below"/><g class="overaxes-below"/><g class="plot" transform="translate(60, 25)" clip-path="url('#clip494847xyplot')"><g class="scatterlayer mlayer"><g class="trace scatter trace067ab3" style="stroke-miterlimit: 2; opacity: 1;"><g class="fills"/><g class="errorbars"/><g class="lines"><path class="js-line" d="M0,228.24L3.11,413.25L6.22,413.25L9.33,272.74L12.44,361.85L31.11,344.95L34.22,342.18L40.44,337.46L43.55,336.44L52.88,329.95L55.99,327.22L68.43,320.7L71.54,318.16L74.65,317.52L77.76,315.81L87.1,309.97L90.21,308.35L93.32,305.6L96.43,304.8L105.76,297.96L108.87,296.82L111.98,296.2L115.09,294.26L118.2,290.66L121.31,289.85L124.42,286.77L127.53,285.75L130.64,284.93L133.75,281.49L143.09,276.01L146.2,273.12L152.42,268.98L155.53,268.29L161.75,263.6L164.86,259.76L174.19,253.79L177.3,252.08L183.52,247.6L186.63,244.27L189.74,244.5L192.85,239.24L195.96,236.7L199.08,232.68L202.19,232.03L205.3,229.63L227.07,208.27L230.18,207.49L239.51,195.08L242.62,191.96L245.73,191.32L248.84,189.08L255.07,179.62L258.18,178.25L261.29,173.21L264.4,170.22L270.62,164.22L273.73,157.35L276.84,155.71L279.95,150.89L283.06,146.24L286.17,143.47L289.28,138.46L292.39,135.99L295.5,128.61L298.61,126.82L301.72,123.12L304.83,117.79L307.94,111.04L311.06,113.56L314.17,119.53L317.28,119.85L320.39,127.7L323.5,142.27L326.61,150.78L329.72,156.44L332.83,162.47L335.94,171.72L339.05,179.56L342.16,184.31L345.27,188.91L348.38,195.16L351.49,199.18L354.6,201.58L360.82,203.37L363.93,205.39L370.16,207.46L373.27,207.5L379.49,207.5L382.6,209.77L391.93,212.99L395.04,212.73L398.15,216.73L401.26,216.86L404.37,217.55L407.48,215.42L413.7,218.06L416.81,217.62L423.04,219.87L426.15,220.92L429.26,221.03L432.37,219.66L435.48,218.93L438.59,220.49L441.7,220.67L444.81,218.67L447.92,219.14L451.03,220.48L454.14,217.48L457.25,218.31L460.36,217.69L463.47,218.99L466.58,215.64L469.69,216.37L472.8,216.57L475.91,215.15L479.03,217.28L482.14,216.47L485.25,215.24L488.36,212.34L491.47,213.52L494.58,212.97L500.8,211.56L503.91,209.21L507.02,209.56L510.13,211.69L516.35,206.88L519.46,204.84L525.68,207.61L528.79,205.23L531.9,202.02L535.02,201.15L538.13,200.5L541.24,200.75L544.35,197L547.46,195.68L550.57,197.77L553.68,192.96L556.79,193.37L559.9,192.93L563.01,191.6L566.12,188.09L569.23,184.8L572.34,187.11L575.45,183.84L578.56,182.04L587.89,178.15L591.01,174.45L594.12,175.65L597.23,172.9L600.34,170.68L603.45,171.25L609.67,162.86L612.78,163.78L619,160.38" style="vector-effect: non-scaling-stroke; fill: none; stroke: rgb(31, 119, 180); stroke-opacity: 1; stroke-width: 2px; opacity: 1;"/></g><g class="points"/><g class="text"/></g><g class="trace scatter trace7208a9" style="stroke-miterlimit: 2; opacity: 1;"><g class="fills"/><g class="errorbars"/><g class="lines"><path class="js-line" d="M0,228.14L3.11,413.25L6.22,413.25L9.33,272.74L12.44,361.85L31.11,344.95L34.22,342.18L40.44,337.46L43.55,336.44L52.88,329.95L55.99,327.22L68.43,320.7L71.54,318.16L74.65,317.52L77.76,315.81L87.1,309.97L90.21,308.35L93.32,305.6L96.43,304.8L105.76,297.96L108.87,296.82L111.98,296.2L115.09,294.26L118.2,290.66L121.31,289.85L124.42,286.77L127.53,285.75L130.64,284.93L133.75,281.49L143.09,276.01L146.2,273.12L152.42,268.98L155.53,268.29L161.75,263.6L164.86,259.76L174.19,253.79L177.3,252.08L183.52,247.6L186.63,244.27L189.74,244.5L192.85,239.24L195.96,236.7L199.08,232.68L202.19,232.03L205.3,229.63L227.07,208.27L230.18,207.49L239.51,195.08L242.62,191.96L245.73,191.32L248.84,189.08L255.07,179.62L258.18,178.25L261.29,173.21L264.4,170.22L270.62,164.22L273.73,157.35L276.84,155.71L279.95,150.89L283.06,146.24L286.17,143.47L289.28,138.46L292.39,135.99L295.5,128.61L298.61,126.82L301.72,123.12L304.83,117.79L307.94,111.04L311.06,110.66L314.17,115.09L317.28,118.14L320.39,124.38L323.5,140.25L329.72,152.7L332.83,160.87L335.94,166.42L339.05,174.54L342.16,181.68L345.27,186.48L348.38,192.66L351.49,194.19L357.71,199.55L360.82,199.38L363.93,202.87L367.05,202.94L370.16,203.25L373.27,205.32L398.15,212.15L401.26,211.83L404.37,215.51L407.48,215.34L410.59,212.61L413.7,216.47L416.81,215.24L419.92,216.38L426.15,216.98L429.26,215.54L432.37,215.41L435.48,216.09L438.59,216.6L441.7,214.93L444.81,216.01L447.92,215.27L451.03,213.8L454.14,216.18L457.25,211.55L460.36,214.73L463.47,214.44L466.58,211.92L469.69,212.05L472.8,213.13L475.91,210.03L479.03,211.39L482.14,209.43L485.25,209.41L494.58,208.38L497.69,205.92L507.02,204.45L510.13,202.99L513.24,200.06L516.35,198.79L519.46,199.86L522.57,197.8L525.68,197.94L528.79,196.72L535.02,192.23L538.13,192.88L541.24,189.97L544.35,191.36L547.46,186.27L550.57,184.81L553.68,184.45L556.79,182.17L559.9,183.66L563.01,181.04L566.12,182.13L569.23,178.23L575.45,174.08L578.56,172.76L584.78,169.84L587.89,166.32L591.01,165.34L594.12,163.5L597.23,161.68L600.34,158.71L609.67,153.38L612.78,152.83L615.89,149.4L619,148.96" style="vector-effect: non-scaling-stroke; fill: none; stroke: rgb(255, 127, 14); stroke-opacity: 1; stroke-width: 2px; opacity: 1;"/></g><g class="points"/><g class="text"/></g><g class="trace scatter tracee89308" style="stroke-miterlimit: 2; opacity: 1;"><g class="fills"/><g class="errorbars"/><g class="lines"><path class="js-line" d="M0,228.06L3.11,413.25L6.22,413.25L9.33,272.74L12.44,361.85L31.11,344.95L34.22,342.18L40.44,337.46L43.55,336.44L52.88,329.95L55.99,327.22L68.43,320.7L71.54,318.16L74.65,317.52L77.76,315.81L87.1,309.97L90.21,308.35L93.32,305.6L96.43,304.8L105.76,297.96L108.87,296.82L111.98,296.2L115.09,294.26L118.2,290.66L121.31,289.85L124.42,286.77L127.53,285.75L130.64,284.93L133.75,281.49L143.09,276.01L146.2,273.12L152.42,268.98L155.53,268.29L161.75,263.6L164.86,259.76L174.19,253.79L177.3,252.08L183.52,247.6L186.63,244.27L189.74,244.5L192.85,239.24L195.96,236.7L199.08,232.68L202.19,232.03L205.3,229.63L227.07,208.27L230.18,207.49L239.51,195.08L242.62,191.96L245.73,191.32L248.84,189.08L255.07,179.62L258.18,178.25L261.29,173.21L264.4,170.22L270.62,164.22L273.73,157.35L276.84,155.71L279.95,150.89L283.06,146.24L286.17,143.47L289.28,138.46L292.39,135.99L295.5,128.61L298.61,126.82L301.72,123.12L304.83,117.79L307.94,111.04L311.06,111.46L314.17,115.75L317.28,117.78L320.39,123.99L323.5,136.91L326.61,145.89L329.72,151.38L332.83,157.33L335.94,168.03L342.16,177.32L345.27,185.07L351.49,194.6L354.6,197.41L357.71,197.75L360.82,196.44L363.93,201.99L367.05,199.73L370.16,202.35L373.27,201.83L376.38,201.47L379.49,205.31L382.6,207.49L385.71,204.81L391.93,208.91L395.04,209.38L398.15,210.68L401.26,208.42L404.37,210.84L407.48,210.74L410.59,210.1L413.7,212.78L419.92,209.96L423.04,211.55L426.15,213.04L429.26,211.83L432.37,211.62L435.48,210.58L438.59,211.59L441.7,210.76L444.81,211.32L447.92,209.34L451.03,211.16L454.14,208.01L457.25,209.41L460.36,208.6L466.58,208.02L469.69,208.94L472.8,208.96L475.91,206.05L479.03,205.6L482.14,204.18L485.25,205.36L488.36,203.46L491.47,202.49L494.58,199.87L497.69,200.53L500.8,197.32L503.91,198.1L507.02,197.94L510.13,194.18L513.24,194.85L516.35,197.29L519.46,193.39L522.57,191.44L525.68,191.01L528.79,190.56L531.9,188.14L535.02,184.74L538.13,185.88L541.24,185.34L544.35,181.71L547.46,181.37L550.57,176.84L556.79,176.28L559.9,177.12L563.01,172.72L566.12,170.28L572.34,169.76L575.45,165.29L581.67,161.51L584.78,160.89L591.01,153.07L594.12,152.57L597.23,153.24L600.34,151L603.45,146.22L606.56,145.93L609.67,143.32L612.78,138.85L615.89,139.07L619,137.59" style="vector-effect: non-scaling-stroke; fill: none; stroke: rgb(44, 160, 44); stroke-opacity: 1; stroke-width: 2px; opacity: 1;"/></g><g class="points"/><g class="text"/></g><g class="trace scatter trace8a815b" style="stroke-miterlimit: 2; opacity: 1;"><g class="fills"/><g class="errorbars"/><g class="lines"><path class="js-line" d="M0,227.87L3.11,413.25L6.22,413.25L9.33,272.74L12.44,361.85L31.11,344.95L34.22,342.18L40.44,337.46L43.55,336.44L52.88,329.95L55.99,327.22L68.43,320.7L71.54,318.16L74.65,317.52L77.76,315.81L87.1,309.97L90.21,308.35L93.32,305.6L96.43,304.8L105.76,297.96L108.87,296.82L111.98,296.2L115.09,294.26L118.2,290.66L121.31,289.85L124.42,286.77L127.53,285.75L130.64,284.93L133.75,281.49L143.09,276.01L146.2,273.12L152.42,268.98L155.53,268.29L161.75,263.6L164.86,259.76L174.19,253.79L177.3,252.08L183.52,247.6L186.63,244.27L189.74,244.5L192.85,239.24L195.96,236.7L199.08,232.68L202.19,232.03L205.3,229.63L227.07,208.27L230.18,207.49L239.51,195.08L242.62,191.96L245.73,191.32L248.84,189.08L255.07,179.62L258.18,178.25L261.29,173.21L264.4,170.22L270.62,164.22L273.73,157.35L276.84,155.71L279.95,150.89L283.06,146.24L286.17,143.47L289.28,138.46L292.39,135.99L295.5,128.61L298.61,126.82L301.72,123.12L304.83,117.79L307.94,111.04L311.06,109.16L317.28,116.32L320.39,121.24L326.61,142.21L329.72,148L332.83,156.1L335.94,161.28L339.05,166.21L342.16,174.22L348.38,185.38L351.49,188.43L354.6,190.2L357.71,193.15L360.82,195.22L363.93,193.8L367.05,195.52L370.16,195.58L373.27,198.68L376.38,197.16L379.49,196.96L382.6,200.67L391.93,200.96L395.04,201.63L398.15,203.07L401.26,201.8L407.48,204.12L410.59,202.57L423.04,202.46L426.15,202.43L429.26,201.49L432.37,203.11L435.48,201.6L438.59,202.03L441.7,200.31L444.81,199.6L447.92,199.54L451.03,201.16L454.14,199.2L457.25,199.52L460.36,201.02L463.47,199.52L469.69,194.14L472.8,195.28L475.91,196.06L479.03,194.54L482.14,193.56L485.25,190.63L488.36,189.51L491.47,189.8L494.58,189.51L497.69,188.33L500.8,186.94L503.91,182.58L507.02,183.56L510.13,181.59L513.24,182.34L516.35,179.38L519.46,179.41L522.57,176.43L525.68,176.65L528.79,173.86L531.9,173L535.02,169.69L538.13,168.67L541.24,165.94L547.46,161.07L550.57,161.26L553.68,158.4L556.79,156.58L559.9,154.2L563.01,153.96L566.12,153.14L569.23,150.14L572.34,147.67L575.45,142.94L581.67,141.98L584.78,139.65L587.89,135.36L591.01,134.62L594.12,131.37L597.23,129.44L600.34,128.62L603.45,125.5L606.56,124.23L609.67,119.99L612.78,119.03L615.89,115.87L619,114.54" style="vector-effect: non-scaling-stroke; fill: none; stroke: rgb(214, 39, 40); stroke-opacity: 1; stroke-width: 2px; opacity: 1;"/></g><g class="points"/><g class="text"/></g><g class="trace scatter trace4922ce" style="stroke-miterlimit: 2; opacity: 1;"><g class="fills"/><g class="errorbars"/><g class="lines"><path class="js-line" d="M0,227.95L3.11,413.25L6.22,413.25L9.33,272.74L12.44,361.85L31.11,344.95L34.22,342.18L40.44,337.46L43.55,336.44L52.88,329.95L55.99,327.22L68.43,320.7L71.54,318.16L74.65,317.52L77.76,315.81L87.1,309.97L90.21,308.35L93.32,305.6L96.43,304.8L105.76,297.96L108.87,296.82L111.98,296.2L115.09,294.26L118.2,290.66L121.31,289.85L124.42,286.77L127.53,285.75L130.64,284.93L133.75,281.49L143.09,276.01L146.2,273.12L152.42,268.98L155.53,268.29L161.75,263.6L164.86,259.76L174.19,253.79L177.3,252.08L183.52,247.6L186.63,244.27L189.74,244.5L192.85,239.24L195.96,236.7L199.08,232.68L202.19,232.03L205.3,229.63L227.07,208.27L230.18,207.49L239.51,195.08L242.62,191.96L245.73,191.32L248.84,189.08L255.07,179.62L258.18,178.25L261.29,173.21L264.4,170.22L270.62,164.22L273.73,157.35L276.84,155.71L279.95,150.89L283.06,146.24L286.17,143.47L289.28,138.46L292.39,135.99L295.5,128.61L298.61,126.82L301.72,123.12L304.83,117.79L307.94,111.04L311.06,108.57L314.17,108.22L317.28,108.86L320.39,111.64L323.5,126.83L335.94,152.44L339.05,155.01L342.16,163L345.27,167.51L348.38,173.12L351.49,174.25L354.6,180.39L357.71,182.17L360.82,183.5L363.93,183.33L367.05,183.51L370.16,182.86L376.38,186.03L379.49,184.37L382.6,185.61L385.71,183.93L388.82,187.59L391.93,187.4L395.04,186.68L398.15,184.78L401.26,186.41L404.37,185.12L407.48,187.09L410.59,187.74L413.7,185.4L416.81,186.47L419.92,186.31L423.04,184.95L429.26,184.62L432.37,185.58L435.48,182.57L438.59,182.97L441.7,182.78L444.81,180.07L447.92,181.04L451.03,179.67L454.14,180.14L457.25,177.48L460.36,175.15L463.47,175.86L466.58,173.94L469.69,174.93L472.8,171.42L475.91,171.75L479.03,172.36L482.14,171.87L488.36,164.71L491.47,167.1L497.69,161.25L500.8,161.4L503.91,158.62L507.02,157.77L510.13,157.19L513.24,152.06L516.35,150.87L519.46,147.16L522.57,148.01L525.68,147.75L528.79,143.95L531.9,141.87L535.02,138.87L538.13,137.14L541.24,134.37L544.35,134.42L547.46,131.21L550.57,130.66L563.01,117.72L566.12,117.05L572.34,110.39L575.45,108.48L578.56,108.44L581.67,105.2L584.78,98.27L587.89,99.1L591.01,98.92L594.12,91.99L597.23,91.78L600.34,85.39L606.56,78.43L609.67,76.88L612.78,74.77L615.89,70.15L619,68.13" style="vector-effect: non-scaling-stroke; fill: none; stroke: rgb(148, 103, 189); stroke-opacity: 1; stroke-width: 2px; opacity: 1;"/></g><g class="points"/><g class="text"/></g><g class="trace scatter trace6a3f76" style="stroke-miterlimit: 2; opacity: 1;"><g class="fills"/><g class="errorbars"/><g class="lines"><path class="js-line" d="M0,227.72L3.11,413.25L6.22,413.25L9.33,272.74L12.44,361.85L31.11,344.95L34.22,342.18L40.44,337.46L43.55,336.44L52.88,329.95L55.99,327.22L68.43,320.7L71.54,318.16L74.65,317.52L77.76,315.81L87.1,309.97L90.21,308.35L93.32,305.6L96.43,304.8L105.76,297.96L108.87,296.82L111.98,296.2L115.09,294.26L118.2,290.66L121.31,289.85L124.42,286.77L127.53,285.75L130.64,284.93L133.75,281.49L143.09,276.01L146.2,273.12L152.42,268.98L155.53,268.29L161.75,263.6L164.86,259.76L174.19,253.79L177.3,252.08L183.52,247.6L186.63,244.27L189.74,244.5L192.85,239.24L195.96,236.7L199.08,232.68L202.19,232.03L205.3,229.63L227.07,208.27L230.18,207.49L239.51,195.08L242.62,191.96L245.73,191.32L248.84,189.08L255.07,179.62L258.18,178.25L261.29,173.21L264.4,170.22L270.62,164.22L273.73,157.35L276.84,155.71L279.95,150.89L283.06,146.24L286.17,143.47L289.28,138.46L292.39,135.99L295.5,128.61L298.61,126.82L301.72,123.12L304.83,117.79L307.94,111.04L311.06,108.91L317.28,105.18L320.39,107.51L329.72,134.81L332.83,138.23L335.94,141.12L339.05,148.52L348.38,164.97L351.49,168.89L354.6,173.23L357.71,172.9L360.82,175.97L363.93,174.73L367.05,175.19L370.16,173.64L376.38,177.07L379.49,176.59L388.82,174.51L391.93,175.3L395.04,174.47L398.15,175.88L401.26,176.68L404.37,174.06L407.48,175.1L410.59,173.78L413.7,174.79L416.81,174.56L423.04,169.47L426.15,169.48L429.26,169.54L432.37,168.58L435.48,168.86L438.59,168.31L444.81,165.66L447.92,166.21L454.14,162.72L457.25,157.91L460.36,161.59L463.47,157.94L466.58,157.98L469.69,156.98L479.03,149.17L482.14,151.4L485.25,145.8L488.36,145.48L491.47,141.62L494.58,143.31L497.69,141.46L500.8,137.77L503.91,133.07L507.02,133.49L510.13,131.84L513.24,131.82L519.46,123.23L522.57,121.01L525.68,120.87L528.79,116.87L535.02,113.3L538.13,108.64L541.24,106L544.35,104.57L553.68,94.81L556.79,93.58L563.01,86.43L566.12,82.82L569.23,81.14L572.34,76.89L575.45,69.5L578.56,67.65L581.67,66.59L584.78,60.16L587.89,61.09L591.01,54.51L594.12,50.28L597.23,48.03L603.45,42.99L606.56,37.64L612.78,28.46L615.89,25.02L619,21.75" style="vector-effect: non-scaling-stroke; fill: none; stroke: rgb(140, 86, 75); stroke-opacity: 1; stroke-width: 2px; opacity: 1;"/></g><g class="points"/><g class="text"/></g></g></g><g class="overplot"/><path class="xlines-above crisp" style="fill: none;" d="M0,0"/><path class="ylines-above crisp" style="fill: none;" d="M0,0"/><g class="overlines-above"/><g class="xaxislayer-above"><g class="xtick"><text text-anchor="middle" x="0" y="473" transform="translate(212.42,0)" style="font-family: 'Open Sans', verdana, arial, sans-serif; font-size: 12px; fill: rgb(68, 68, 68); fill-opacity: 1; white-space: pre;">50</text></g><g class="xtick"><text text-anchor="middle" x="0" y="473" transform="translate(367.94,0)" style="font-family: 'Open Sans', verdana, arial, sans-serif; font-size: 12px; fill: rgb(68, 68, 68); fill-opacity: 1; white-space: pre;">100</text></g><g class="xtick"><text text-anchor="middle" x="0" y="473" transform="translate(523.47,0)" style="font-family: 'Open Sans', verdana, arial, sans-serif; font-size: 12px; fill: rgb(68, 68, 68); fill-opacity: 1; white-space: pre;">150</text></g><g class="xtick"><text text-anchor="middle" x="0" y="473" transform="translate(679,0)" style="font-family: 'Open Sans', verdana, arial, sans-serif; font-size: 12px; fill: rgb(68, 68, 68); fill-opacity: 1; white-space: pre;">200</text></g></g><g class="yaxislayer-above"><g class="ytick"><text text-anchor="end" x="59" y="4.199999999999999" transform="translate(0,438.25)" style="font-family: 'Open Sans', verdana, arial, sans-serif; font-size: 12px; fill: rgb(68, 68, 68); fill-opacity: 1; white-space: pre;">0</text></g><g class="ytick"><text text-anchor="end" x="59" y="4.199999999999999" transform="translate(0,377.21)" style="font-family: 'Open Sans', verdana, arial, sans-serif; font-size: 12px; fill: rgb(68, 68, 68); fill-opacity: 1; white-space: pre;">50</text></g><g class="ytick"><text text-anchor="end" x="59" y="4.199999999999999" transform="translate(0,316.16)" style="font-family: 'Open Sans', verdana, arial, sans-serif; font-size: 12px; fill: rgb(68, 68, 68); fill-opacity: 1; white-space: pre;">100</text></g><g class="ytick"><text text-anchor="end" x="59" y="4.199999999999999" transform="translate(0,255.12)" style="font-family: 'Open Sans', verdana, arial, sans-serif; font-size: 12px; fill: rgb(68, 68, 68); fill-opacity: 1; white-space: pre;">150</text></g><g class="ytick"><text text-anchor="end" x="59" y="4.199999999999999" transform="translate(0,194.08)" style="font-family: 'Open Sans', verdana, arial, sans-serif; font-size: 12px; fill: rgb(68, 68, 68); fill-opacity: 1; white-space: pre;">200</text></g><g class="ytick"><text text-anchor="end" x="59" y="4.199999999999999" transform="translate(0,133.03)" style="font-family: 'Open Sans', verdana, arial, sans-serif; font-size: 12px; fill: rgb(68, 68, 68); fill-opacity: 1; white-space: pre;">250</text></g><g class="ytick"><text text-anchor="end" x="59" y="4.199999999999999" transform="translate(0,71.99000000000001)" style="font-family: 'Open Sans', verdana, arial, sans-serif; font-size: 12px; fill: rgb(68, 68, 68); fill-opacity: 1; white-space: pre;">300</text></g></g><g class="overaxes-above"/></g></g><g class="polarlayer"/><g class="ternarylayer"/><g class="geolayer"/><g class="funnelarealayer"/><g class="pielayer"/><g class="treemaplayer"/><g class="sunburstlayer"/><g class="glimages"/><defs id="topdefs-494847"><g class="clips"/><clipPath id="legend494847"><rect width="117" height="140" x="0" y="0"/></clipPath></defs><g class="layer-above"><g class="imagelayer"/><g class="shapelayer"/></g><g class="infolayer"><g class="legend" pointer-events="all" transform="translate(90.95, 46.750000000000014)"><rect class="bg" shape-rendering="crispEdges" style="stroke: rgb(68, 68, 68); stroke-opacity: 1; fill: rgb(226, 226, 226); fill-opacity: 1; stroke-width: 0px;" width="117" height="140" x="0" y="0"/><g class="scrollbox" transform="translate(0, 0)" clip-path="url('#legend494847')"><text class="legendtitletext user-select-none" text-anchor="start" x="2" y="15.600000000000001" style="font-family: 'Open Sans', verdana, arial, sans-serif; font-size: 12px; fill: rgb(68, 68, 68); fill-opacity: 1; white-space: pre;"><tspan style="font-weight:bold"> Identification Time </tspan></text><g class="groups"><g class="traces" transform="translate(0, 30.1)" style="opacity: 1;"><text class="legendtext user-select-none" text-anchor="start" x="40" y="4.680000000000001" style="font-family: 'Open Sans', verdana, arial, sans-serif; font-size: 12px; fill: rgb(68, 68, 68); fill-opacity: 1; white-space: pre;">0 Months</text><g class="layers" style="opacity: 1;"><g class="legendfill"/><g class="legendlines"><path class="js-line" d="M5,0h30" style="fill: none; stroke: rgb(31, 119, 180); stroke-opacity: 1; stroke-width: 2px;"/></g><g class="legendsymbols"><g class="legendpoints"/></g></g><rect class="legendtoggle" pointer-events="all" x="0" y="-9.5" width="98.046875" height="19" style="cursor: pointer; fill: rgb(0, 0, 0); fill-opacity: 0;"/></g><g class="traces" transform="translate(0, 49.1)" style="opacity: 1;"><text class="legendtext user-select-none" text-anchor="start" x="40" y="4.680000000000001" style="font-family: 'Open Sans', verdana, arial, sans-serif; font-size: 12px; fill: rgb(68, 68, 68); fill-opacity: 1; white-space: pre;">3 Months</text><g class="layers" style="opacity: 1;"><g class="legendfill"/><g class="legendlines"><path class="js-line" d="M5,0h30" style="fill: none; stroke: rgb(255, 127, 14); stroke-opacity: 1; stroke-width: 2px;"/></g><g class="legendsymbols"><g class="legendpoints"/></g></g><rect class="legendtoggle" pointer-events="all" x="0" y="-9.5" width="98.046875" height="19" style="cursor: pointer; fill: rgb(0, 0, 0); fill-opacity: 0;"/></g><g class="traces" transform="translate(0, 68.1)" style="opacity: 1;"><text class="legendtext user-select-none" text-anchor="start" x="40" y="4.680000000000001" style="font-family: 'Open Sans', verdana, arial, sans-serif; font-size: 12px; fill: rgb(68, 68, 68); fill-opacity: 1; white-space: pre;">6 Months</text><g class="layers" style="opacity: 1;"><g class="legendfill"/><g class="legendlines"><path class="js-line" d="M5,0h30" style="fill: none; stroke: rgb(44, 160, 44); stroke-opacity: 1; stroke-width: 2px;"/></g><g class="legendsymbols"><g class="legendpoints"/></g></g><rect class="legendtoggle" pointer-events="all" x="0" y="-9.5" width="98.046875" height="19" style="cursor: pointer; fill: rgb(0, 0, 0); fill-opacity: 0;"/></g><g class="traces" transform="translate(0, 87.1)" style="opacity: 1;"><text class="legendtext user-select-none" text-anchor="start" x="40" y="4.680000000000001" style="font-family: 'Open Sans', verdana, arial, sans-serif; font-size: 12px; fill: rgb(68, 68, 68); fill-opacity: 1; white-space: pre;">12 Months</text><g class="layers" style="opacity: 1;"><g class="legendfill"/><g class="legendlines"><path class="js-line" d="M5,0h30" style="fill: none; stroke: rgb(214, 39, 40); stroke-opacity: 1; stroke-width: 2px;"/></g><g class="legendsymbols"><g class="legendpoints"/></g></g><rect class="legendtoggle" pointer-events="all" x="0" y="-9.5" width="98.046875" height="19" style="cursor: pointer; fill: rgb(0, 0, 0); fill-opacity: 0;"/></g><g class="traces" transform="translate(0, 106.1)" style="opacity: 1;"><text class="legendtext user-select-none" text-anchor="start" x="40" y="4.680000000000001" style="font-family: 'Open Sans', verdana, arial, sans-serif; font-size: 12px; fill: rgb(68, 68, 68); fill-opacity: 1; white-space: pre;">24 Months</text><g class="layers" style="opacity: 1;"><g class="legendfill"/><g class="legendlines"><path class="js-line" d="M5,0h30" style="fill: none; stroke: rgb(148, 103, 189); stroke-opacity: 1; stroke-width: 2px;"/></g><g class="legendsymbols"><g class="legendpoints"/></g></g><rect class="legendtoggle" pointer-events="all" x="0" y="-9.5" width="98.046875" height="19" style="cursor: pointer; fill: rgb(0, 0, 0); fill-opacity: 0;"/></g><g class="traces" transform="translate(0, 125.1)" style="opacity: 1;"><text class="legendtext user-select-none" text-anchor="start" x="40" y="4.680000000000001" style="font-family: 'Open Sans', verdana, arial, sans-serif; font-size: 12px; fill: rgb(68, 68, 68); fill-opacity: 1; white-space: pre;">36 Months</text><g class="layers" style="opacity: 1;"><g class="legendfill"/><g class="legendlines"><path class="js-line" d="M5,0h30" style="fill: none; stroke: rgb(140, 86, 75); stroke-opacity: 1; stroke-width: 2px;"/></g><g class="legendsymbols"><g class="legendpoints"/></g></g><rect class="legendtoggle" pointer-events="all" x="0" y="-9.5" width="98.046875" height="19" style="cursor: pointer; fill: rgb(0, 0, 0); fill-opacity: 0;"/></g></g></g><rect class="scrollbar" rx="20" ry="3" width="0" height="0" style="fill: rgb(128, 139, 164); fill-opacity: 1;" x="0" y="0"/></g><g class="g-gtitle"><text class="gtitle" x="350" y="12.5" text-anchor="middle" dy="0em" style="font-family: 'Open Sans', verdana, arial, sans-serif; font-size: 17px; fill: rgb(68, 68, 68); opacity: 1; font-weight: normal; white-space: pre;"><tspan style="font-weight:bold"> Leprosy Incidence - Immunity Vaccine 0.5, Treatment 25% </tspan></text></g><g class="g-xtitle" transform="translate(0,-15)"><text class="xtitle" x="369.5" y="512" text-anchor="middle" style="font-family: 'Open Sans', verdana, arial, sans-serif; font-size: 14px; fill: rgb(68, 68, 68); opacity: 1; font-weight: normal; white-space: pre;">Time(Years)</text></g><g class="g-ytitle"><text class="ytitle" transform="rotate(-90,22,242.5)" x="22" y="242.5" text-anchor="middle" style="font-family: 'Open Sans', verdana, arial, sans-serif; font-size: 14px; fill: rgb(68, 68, 68); opacity: 1; font-weight: normal; white-space: pre;">Number of new infectiuos individuals</text></g></g></svg>