<svg class="main-svg" xmlns="http://www.w3.org/2000/svg" xmlns:xlink="http://www.w3.org/1999/xlink" width="700" height="500" style="" viewBox="0 0 700 500"><rect x="0" y="0" width="700" height="500" style="fill: rgb(255, 255, 255); fill-opacity: 1;"/><defs id="defs-1366f6"><g class="clips"><clipPath id="clip1366f6xyplot" class="plotclip"><rect width="619" height="435"/></clipPath><clipPath class="axesclip" id="clip1366f6x"><rect x="60" y="0" width="619" height="500"/></clipPath><clipPath class="axesclip" id="clip1366f6y"><rect x="0" y="25" width="700" height="435"/></clipPath><clipPath class="axesclip" id="clip1366f6xy"><rect x="60" y="25" width="619" height="435"/></clipPath></g><g class="gradients"/></defs><g class="bglayer"/><g class="layer-below"><g class="imagelayer"/><g class="shapelayer"/></g><g class="cartesianlayer"><g class="subplot xy"><g class="layer-subplot"><g class="shapelayer"/><g class="imagelayer"/></g><g class="gridlayer"><g class="x"><path class="xgrid crisp" transform="translate(212.42,0)" d="M0,25v435" style="stroke: rgb(238, 238, 238); stroke-opacity: 1; stroke-width: 1px;"/><path class="xgrid crisp" transform="translate(367.94,0)" d="M0,25v435" style="stroke: rgb(238, 238, 238); stroke-opacity: 1; stroke-width: 1px;"/><path class="xgrid crisp" transform="translate(523.47,0)" d="M0,25v435" style="stroke: rgb(238, 238, 238); stroke-opacity: 1; stroke-width: 1px;"/></g><g class="y"><path class="ygrid crisp" transform="translate(0,359.74)" d="M60,0h619" style="stroke: rgb(238, 238, 238); stroke-opacity: 1; stroke-width: 1px;"/><path class="ygrid crisp" transform="translate(0,281.24)" d="M60,0h619" style="stroke: rgb(238, 238, 238); stroke-opacity: 1; stroke-width: 1px;"/><path class="ygrid crisp" transform="translate(0,202.73)" d="M60,0h619" style="stroke: rgb(238, 238, 238); stroke-opacity: 1; stroke-width: 1px;"/><path class="ygrid crisp" transform="translate(0,124.23)" d="M60,0h619" style="stroke: rgb(238, 238, 238); stroke-opacity: 1; stroke-width: 1px;"/><path class="ygrid crisp" transform="translate(0,45.72)" d="M60,0h619" style="stroke: rgb(238, 238, 238); stroke-opacity: 1; stroke-width: 1px;"/></g></g><g class="zerolinelayer"><path class="yzl zl crisp" transform="translate(0,438.25)" d="M60,0h619" style="stroke: rgb(68, 68, 68); stroke-opacity: 1; stroke-width: 1px;"/></g><path class="xlines-below"/><path class="ylines-below"/><g class="overlines-below"/><g class="xaxislayer-below"/><g class="yaxislayer-below"/><g class="overaxes-below"/><g class="plot" transform="translate(60, 25)" clip-path="url('#clip1366f6xyplot')"><g class="scatterlayer mlayer"><g class="trace scatter traceefbef9" style="stroke-miterlimit: 2; opacity: 1;"><g class="fills"/><g class="errorbars"/><g class="lines"><path class="js-line" d="M0,176.16L3.11,413.25L6.22,413.25L9.33,232.55L12.44,347.15L31.11,325.42L34.22,321.85L40.44,315.79L43.55,314.47L49.77,308.86L52.88,306.12L55.99,302.6L59.1,300.73L62.21,297.85L65.32,296.04L68.43,294.23L71.54,290.95L74.65,290.14L77.76,287.94L87.1,280.42L90.21,278.35L93.32,274.81L96.43,273.78L105.76,264.98L108.87,263.51L111.98,262.72L115.09,260.23L118.2,255.59L121.31,254.54L124.42,250.59L127.53,249.28L130.64,248.22L133.75,243.8L143.09,236.75L146.2,233.03L152.42,227.71L155.53,226.82L161.75,220.79L164.86,215.86L174.19,208.17L177.3,205.97L183.52,200.21L186.63,195.93L189.74,196.23L192.85,189.46L195.96,186.19L199.08,181.03L202.19,180.19L205.3,177.1L220.85,157.95L223.96,152.73L227.07,149.63L230.18,148.63L239.51,132.67L242.62,128.65L245.73,127.83L248.84,124.95L255.07,112.79L258.18,111.02L261.29,104.54L264.4,100.7L270.62,92.98L273.73,84.15L276.84,82.03L279.95,75.83L283.06,69.86L286.17,66.29L289.28,59.85L292.39,56.67L295.5,47.19L298.61,44.88L301.72,40.12L304.83,33.27L307.94,24.58L311.06,39.29L320.39,116.44L323.5,169.21L329.72,223.42L332.83,243.36L339.05,281.82L342.16,294.53L348.38,321.34L351.49,328.8L354.6,332.76L357.71,338.03L363.93,343.36L367.05,347.86L376.38,360.51L379.49,362.87L382.6,367.58L385.71,369.66L388.82,373.99L391.93,375.15L398.15,376.61L401.26,378.74L404.37,379.45L407.48,381.28L416.81,386.29L419.92,387.09L429.26,391.09L432.37,391.76L444.81,395.35L447.92,395.66L457.25,398.38L460.36,399.15L475.91,402.19L479.03,402.02L482.14,403.37L485.25,403.22L494.58,405.01L497.69,405.76L503.91,405.88L507.02,406.18L516.35,407.38L519.46,407.68L531.9,408.15L535.02,408.73L563.01,410.01L566.12,409.99L597.23,411.03L600.34,411.13L606.56,411.29L609.67,411.29L619,411.52" style="vector-effect: non-scaling-stroke; fill: none; stroke: rgb(31, 119, 180); stroke-opacity: 1; stroke-width: 2px; opacity: 1;"/></g><g class="points"/><g class="text"/></g><g class="trace scatter traceb99f58" style="stroke-miterlimit: 2; opacity: 1;"><g class="fills"/><g class="errorbars"/><g class="lines"><path class="js-line" d="M0,176.16L3.11,413.25L6.22,413.25L9.33,232.55L12.44,347.15L31.11,325.42L34.22,321.85L40.44,315.79L43.55,314.47L49.77,308.86L52.88,306.12L55.99,302.6L59.1,300.73L62.21,297.85L65.32,296.04L68.43,294.23L71.54,290.95L74.65,290.14L77.76,287.94L87.1,280.42L90.21,278.35L93.32,274.81L96.43,273.78L105.76,264.98L108.87,263.51L111.98,262.72L115.09,260.23L118.2,255.59L121.31,254.54L124.42,250.59L127.53,249.28L130.64,248.22L133.75,243.8L143.09,236.75L146.2,233.03L152.42,227.71L155.53,226.82L161.75,220.79L164.86,215.86L174.19,208.17L177.3,205.97L183.52,200.21L186.63,195.93L189.74,196.23L192.85,189.46L195.96,186.19L199.08,181.03L202.19,180.19L205.3,177.1L220.85,157.95L223.96,152.73L227.07,149.63L230.18,148.63L239.51,132.67L242.62,128.65L245.73,127.83L248.84,124.95L255.07,112.79L258.18,111.02L261.29,104.54L264.4,100.7L270.62,92.98L273.73,84.15L276.84,82.03L279.95,75.83L283.06,69.86L286.17,66.29L289.28,59.85L292.39,56.67L295.5,47.19L298.61,44.88L301.72,40.12L304.83,33.27L307.94,24.58L311.06,34.82L320.39,113.53L323.5,164.42L329.72,218.98L332.83,241.61L339.05,276.78L342.16,293.29L345.27,307.17L348.38,317.54L354.6,330.17L357.71,335.12L363.93,340.67L367.05,345.29L370.16,348.18L373.27,353.14L376.38,358.32L379.49,361.28L385.71,368.94L388.82,370.75L391.93,372.73L395.04,373.26L410.59,381.32L413.7,381.22L419.92,384.52L423.04,386.28L426.15,388.61L429.26,388.79L444.81,393.89L447.92,393.97L472.8,401.06L475.91,400.87L491.47,403.8L494.58,404.06L535.02,408.26L538.13,408.11L544.35,408.8L547.46,408.67L578.56,410.12L581.67,410.06L594.12,410.7L597.23,410.7L615.89,411.37L619,411.26" style="vector-effect: non-scaling-stroke; fill: none; stroke: rgb(255, 127, 14); stroke-opacity: 1; stroke-width: 2px; opacity: 1;"/></g><g class="points"/><g class="text"/></g><g class="trace scatter trace897152" style="stroke-miterlimit: 2; opacity: 1;"><g class="fills"/><g class="errorbars"/><g class="lines"><path class="js-line" d="M0,176.15L3.11,413.25L6.22,413.25L9.33,232.55L12.44,347.15L31.11,325.42L34.22,321.85L40.44,315.79L43.55,314.47L49.77,308.86L52.88,306.12L55.99,302.6L59.1,300.73L62.21,297.85L65.32,296.04L68.43,294.23L71.54,290.95L74.65,290.14L77.76,287.94L87.1,280.42L90.21,278.35L93.32,274.81L96.43,273.78L105.76,264.98L108.87,263.51L111.98,262.72L115.09,260.23L118.2,255.59L121.31,254.54L124.42,250.59L127.53,249.28L130.64,248.22L133.75,243.8L143.09,236.75L146.2,233.03L152.42,227.71L155.53,226.82L161.75,220.79L164.86,215.86L174.19,208.17L177.3,205.97L183.52,200.21L186.63,195.93L189.74,196.23L192.85,189.46L195.96,186.19L199.08,181.03L202.19,180.19L205.3,177.1L220.85,157.95L223.96,152.73L227.07,149.63L230.18,148.63L239.51,132.67L242.62,128.65L245.73,127.83L248.84,124.95L255.07,112.79L258.18,111.02L261.29,104.54L264.4,100.7L270.62,92.98L273.73,84.15L276.84,82.03L279.95,75.83L283.06,69.86L286.17,66.29L289.28,59.85L292.39,56.67L295.5,47.19L298.61,44.88L301.72,40.12L304.83,33.27L307.94,24.58L311.06,30.14L320.39,109.18L323.5,158.23L329.72,211.82L332.83,237.48L339.05,273.9L342.16,289.4L345.27,304.94L348.38,314.48L354.6,328.28L357.71,330.93L360.82,332.71L363.93,338.18L370.16,345.08L373.27,350.14L385.71,365.64L388.82,367.99L401.26,374.17L404.37,375.92L407.48,376.23L410.59,377.89L429.26,387.59L432.37,387.47L435.48,389.3L438.59,390.09L451.03,393.03L454.14,393.87L457.25,395.24L460.36,395.63L475.91,399.83L479.03,399.84L482.14,400.89L485.25,400.98L510.13,405.03L513.24,405.29L519.46,405.81L522.57,405.81L525.68,406.38L528.79,406.18L535.02,407.03L538.13,407.23L566.12,409.45L569.23,408.93L575.45,409.76L578.56,409.5L594.12,410.16L597.23,410.16L609.67,410.51L612.78,410.45L619,410.97" style="vector-effect: non-scaling-stroke; fill: none; stroke: rgb(44, 160, 44); stroke-opacity: 1; stroke-width: 2px; opacity: 1;"/></g><g class="points"/><g class="text"/></g><g class="trace scatter trace61912f" style="stroke-miterlimit: 2; opacity: 1;"><g class="fills"/><g class="errorbars"/><g class="lines"><path class="js-line" d="M0,176.15L3.11,413.25L6.22,413.25L9.33,232.55L12.44,347.15L31.11,325.42L34.22,321.85L40.44,315.79L43.55,314.47L49.77,308.86L52.88,306.12L55.99,302.6L59.1,300.73L62.21,297.85L65.32,296.04L68.43,294.23L71.54,290.95L74.65,290.14L77.76,287.94L87.1,280.42L90.21,278.35L93.32,274.81L96.43,273.78L105.76,264.98L108.87,263.51L111.98,262.72L115.09,260.23L118.2,255.59L121.31,254.54L124.42,250.59L127.53,249.28L130.64,248.22L133.75,243.8L143.09,236.75L146.2,233.03L152.42,227.71L155.53,226.82L161.75,220.79L164.86,215.86L174.19,208.17L177.3,205.97L183.52,200.21L186.63,195.93L189.74,196.23L192.85,189.46L195.96,186.19L199.08,181.03L202.19,180.19L205.3,177.1L220.85,157.95L223.96,152.73L227.07,149.63L230.18,148.63L239.51,132.67L242.62,128.65L245.73,127.83L248.84,124.95L255.07,112.79L258.18,111.02L261.29,104.54L264.4,100.7L270.62,92.98L273.73,84.15L276.84,82.03L279.95,75.83L283.06,69.86L286.17,66.29L289.28,59.85L292.39,56.67L295.5,47.19L298.61,44.88L301.72,40.12L304.83,33.27L307.94,24.58L311.06,26.51L314.17,46.37L317.28,73.31L320.39,98.61L323.5,150.87L332.83,230.21L335.94,249.78L345.27,301L348.38,312.44L351.49,318.18L354.6,320.72L357.71,325.4L360.82,328.06L367.05,334.01L370.16,339.03L373.27,342.06L376.38,348.04L385.71,360.45L388.82,364.01L395.04,367.45L398.15,367.58L401.26,368.42L404.37,370.19L410.59,372.62L413.7,374.77L432.37,385.24L435.48,385.8L438.59,385.8L441.7,387.73L444.81,388.1L447.92,389.47L451.03,389.56L454.14,390.83L466.58,394.18L469.69,396.03L488.36,398.94L491.47,399.81L507.02,401.79L510.13,402.37L528.79,405.01L531.9,404.94L535.02,405.79L538.13,405.76L547.46,406.08L550.57,406.24L578.56,408.45L581.67,408.27L587.89,408.89L591.01,408.24L597.23,408.91L600.34,409.18L619,409.94" style="vector-effect: non-scaling-stroke; fill: none; stroke: rgb(214, 39, 40); stroke-opacity: 1; stroke-width: 2px; opacity: 1;"/></g><g class="points"/><g class="text"/></g><g class="trace scatter trace75edff" style="stroke-miterlimit: 2; opacity: 1;"><g class="fills"/><g class="errorbars"/><g class="lines"><path class="js-line" d="M0,176.14L3.11,413.25L6.22,413.25L9.33,232.55L12.44,347.15L31.11,325.42L34.22,321.85L40.44,315.79L43.55,314.47L49.77,308.86L52.88,306.12L55.99,302.6L59.1,300.73L62.21,297.85L65.32,296.04L68.43,294.23L71.54,290.95L74.65,290.14L77.76,287.94L87.1,280.42L90.21,278.35L93.32,274.81L96.43,273.78L105.76,264.98L108.87,263.51L111.98,262.72L115.09,260.23L118.2,255.59L121.31,254.54L124.42,250.59L127.53,249.28L130.64,248.22L133.75,243.8L143.09,236.75L146.2,233.03L152.42,227.71L155.53,226.82L161.75,220.79L164.86,215.86L174.19,208.17L177.3,205.97L183.52,200.21L186.63,195.93L189.74,196.23L192.85,189.46L195.96,186.19L199.08,181.03L202.19,180.19L205.3,177.1L220.85,157.95L223.96,152.73L227.07,149.63L230.18,148.63L239.51,132.67L242.62,128.65L245.73,127.83L248.84,124.95L255.07,112.79L258.18,111.02L261.29,104.54L264.4,100.7L270.62,92.98L273.73,84.15L276.84,82.03L279.95,75.83L283.06,69.86L286.17,66.29L289.28,59.85L292.39,56.67L295.5,47.19L298.61,44.88L301.72,40.12L304.83,33.27L307.94,24.58L311.06,23.8L314.17,32.87L317.28,51.79L320.39,79.06L323.5,127.83L329.72,186.73L332.83,213.43L342.16,272.11L345.27,286.54L348.38,301.42L351.49,308.51L354.6,312.68L357.71,314.35L360.82,317.26L363.93,318.63L367.05,320.22L370.16,323.93L376.38,334.19L379.49,339.67L382.6,342.37L385.71,347.6L388.82,352.98L391.93,356.01L395.04,356.97L398.15,359.03L401.26,360.72L404.37,360.39L407.48,362.63L410.59,362.92L416.81,365.68L419.92,367.84L432.37,375.97L435.48,379.09L438.59,378.61L441.7,379.19L444.81,381.12L447.92,380.58L454.14,384.69L457.25,384.65L460.36,386.21L463.47,386.61L469.69,389.44L472.8,389.6L479.03,392.13L482.14,392.24L494.58,394.63L497.69,394.59L500.8,395.95L503.91,396.22L513.24,398.56L516.35,397.97L519.46,399.32L522.57,399.62L525.68,400.26L528.79,399.88L531.9,401.14L535.02,401.22L538.13,401.14L541.24,401.87L544.35,401.54L547.46,402.24L550.57,403.15L553.68,402.58L559.9,403.91L563.01,403.59L575.45,404.54L578.56,404.57L581.67,405.23L584.78,405.09L603.45,406.58L606.56,406.61L619,407.37" style="vector-effect: non-scaling-stroke; fill: none; stroke: rgb(148, 103, 189); stroke-opacity: 1; stroke-width: 2px; opacity: 1;"/></g><g class="points"/><g class="text"/></g><g class="trace scatter tracef8e278" style="stroke-miterlimit: 2; opacity: 1;"><g class="fills"/><g class="errorbars"/><g class="lines"><path class="js-line" d="M0,176.15L3.11,413.25L6.22,413.25L9.33,232.55L12.44,347.15L31.11,325.42L34.22,321.85L40.44,315.79L43.55,314.47L49.77,308.86L52.88,306.12L55.99,302.6L59.1,300.73L62.21,297.85L65.32,296.04L68.43,294.23L71.54,290.95L74.65,290.14L77.76,287.94L87.1,280.42L90.21,278.35L93.32,274.81L96.43,273.78L105.76,264.98L108.87,263.51L111.98,262.72L115.09,260.23L118.2,255.59L121.31,254.54L124.42,250.59L127.53,249.28L130.64,248.22L133.75,243.8L143.09,236.75L146.2,233.03L152.42,227.71L155.53,226.82L161.75,220.79L164.86,215.86L174.19,208.17L177.3,205.97L183.52,200.21L186.63,195.93L189.74,196.23L192.85,189.46L195.96,186.19L199.08,181.03L202.19,180.19L205.3,177.1L220.85,157.95L223.96,152.73L227.07,149.63L230.18,148.63L239.51,132.67L242.62,128.65L245.73,127.83L248.84,124.95L255.07,112.79L258.18,111.02L261.29,104.54L264.4,100.7L270.62,92.98L273.73,84.15L276.84,82.03L279.95,75.83L283.06,69.86L286.17,66.29L289.28,59.85L292.39,56.67L295.5,47.19L298.61,44.88L301.72,40.12L304.83,33.27L307.94,24.58L311.06,21.75L314.17,28.73L317.28,40.85L320.39,57.73L323.5,109.57L332.83,191.68L335.94,217.34L342.16,256.1L345.27,272.59L348.38,288.61L351.49,300.05L354.6,304.57L357.71,306.57L360.82,307.37L363.93,306.81L367.05,311.09L370.16,312.79L373.27,316.42L376.38,321.48L379.49,324.85L382.6,330.54L385.71,334.63L388.82,341.46L395.04,349.41L398.15,351.69L401.26,353.76L404.37,353.52L407.48,355.45L410.59,355.85L419.92,358.55L423.04,361.26L432.37,367.7L435.48,369.44L447.92,375.27L451.03,375.83L454.14,378.04L457.25,377.31L466.58,380.55L469.69,381.82L475.91,383.46L479.03,384.53L497.69,389.1L500.8,388.75L503.91,390.33L507.02,390.73L516.35,392.73L519.46,393.34L525.68,394.53L528.79,394.53L556.79,398.55L559.9,398.66L563.01,399.66L566.12,399.44L584.78,400.81L587.89,401.82L591.01,401.42L594.12,402.16L609.67,403.7L612.78,403.85L615.89,403.65L619,404.22" style="vector-effect: non-scaling-stroke; fill: none; stroke: rgb(140, 86, 75); stroke-opacity: 1; stroke-width: 2px; opacity: 1;"/></g><g class="points"/><g class="text"/></g></g></g><g class="overplot"/><path class="xlines-above crisp" style="fill: none;" d="M0,0"/><path class="ylines-above crisp" style="fill: none;" d="M0,0"/><g class="overlines-above"/><g class="xaxislayer-above"><g class="xtick"><text text-anchor="middle" x="0" y="473" transform="translate(212.42,0)" style="font-family: 'Open Sans', verdana, arial, sans-serif; font-size: 12px; fill: rgb(68, 68, 68); fill-opacity: 1; white-space: pre;">50</text></g><g class="xtick"><text text-anchor="middle" x="0" y="473" transform="translate(367.94,0)" style="font-family: 'Open Sans', verdana, arial, sans-serif; font-size: 12px; fill: rgb(68, 68, 68); fill-opacity: 1; white-space: pre;">100</text></g><g class="xtick"><text text-anchor="middle" x="0" y="473" transform="translate(523.47,0)" style="font-family: 'Open Sans', verdana, arial, sans-serif; font-size: 12px; fill: rgb(68, 68, 68); fill-opacity: 1; white-space: pre;">150</text></g><g class="xtick"><text text-anchor="middle" x="0" y="473" transform="translate(679,0)" style="font-family: 'Open Sans', verdana, arial, sans-serif; font-size: 12px; fill: rgb(68, 68, 68); fill-opacity: 1; white-space: pre;">200</text></g></g><g class="yaxislayer-above"><g class="ytick"><text text-anchor="end" x="59" y="4.199999999999999" transform="translate(0,438.25)" style="font-family: 'Open Sans', verdana, arial, sans-serif; font-size: 12px; fill: rgb(68, 68, 68); fill-opacity: 1; white-space: pre;">0</text></g><g class="ytick"><text text-anchor="end" x="59" y="4.199999999999999" transform="translate(0,359.74)" style="font-family: 'Open Sans', verdana, arial, sans-serif; font-size: 12px; fill: rgb(68, 68, 68); fill-opacity: 1; white-space: pre;">50</text></g><g class="ytick"><text text-anchor="end" x="59" y="4.199999999999999" transform="translate(0,281.24)" style="font-family: 'Open Sans', verdana, arial, sans-serif; font-size: 12px; fill: rgb(68, 68, 68); fill-opacity: 1; white-space: pre;">100</text></g><g class="ytick"><text text-anchor="end" x="59" y="4.199999999999999" transform="translate(0,202.73)" style="font-family: 'Open Sans', verdana, arial, sans-serif; font-size: 12px; fill: rgb(68, 68, 68); fill-opacity: 1; white-space: pre;">150</text></g><g class="ytick"><text text-anchor="end" x="59" y="4.199999999999999" transform="translate(0,124.23)" style="font-family: 'Open Sans', verdana, arial, sans-serif; font-size: 12px; fill: rgb(68, 68, 68); fill-opacity: 1; white-space: pre;">200</text></g><g class="ytick"><text text-anchor="end" x="59" y="4.199999999999999" transform="translate(0,45.72)" style="font-family: 'Open Sans', verdana, arial, sans-serif; font-size: 12px; fill: rgb(68, 68, 68); fill-opacity: 1; white-space: pre;">250</text></g></g><g class="overaxes-above"/></g></g><g class="polarlayer"/><g class="ternarylayer"/><g class="geolayer"/><g class="funnelarealayer"/><g class="pielayer"/><g class="treemaplayer"/><g class="sunburstlayer"/><g class="glimages"/><defs id="topdefs-1366f6"><g class="clips"/><clipPath id="legend1366f6"><rect width="117" height="140" x="0" y="0"/></clipPath></defs><g class="layer-above"><g class="imagelayer"/><g class="shapelayer"/></g><g class="infolayer"><g class="legend" pointer-events="all" transform="translate(90.95, 46.750000000000014)"><rect class="bg" shape-rendering="crispEdges" style="stroke: rgb(68, 68, 68); stroke-opacity: 1; fill: rgb(226, 226, 226); fill-opacity: 1; stroke-width: 0px;" width="117" height="140" x="0" y="0"/><g class="scrollbox" transform="translate(0, 0)" clip-path="url('#legend1366f6')"><text class="legendtitletext user-select-none" text-anchor="start" x="2" y="15.600000000000001" style="font-family: 'Open Sans', verdana, arial, sans-serif; font-size: 12px; fill: rgb(68, 68, 68); fill-opacity: 1; white-space: pre;"><tspan style="font-weight:bold"> Identification Time </tspan></text><g class="groups"><g class="traces" transform="translate(0, 30.1)" style="opacity: 1;"><text class="legendtext user-select-none" text-anchor="start" x="40" y="4.680000000000001" style="font-family: 'Open Sans', verdana, arial, sans-serif; font-size: 12px; fill: rgb(68, 68, 68); fill-opacity: 1; white-space: pre;">0 Months</text><g class="layers" style="opacity: 1;"><g class="legendfill"/><g class="legendlines"><path class="js-line" d="M5,0h30" style="fill: none; stroke: rgb(31, 119, 180); stroke-opacity: 1; stroke-width: 2px;"/></g><g class="legendsymbols"><g class="legendpoints"/></g></g><rect class="legendtoggle" pointer-events="all" x="0" y="-9.5" width="98.046875" height="19" style="cursor: pointer; fill: rgb(0, 0, 0); fill-opacity: 0;"/></g><g class="traces" transform="translate(0, 49.1)" style="opacity: 1;"><text class="legendtext user-select-none" text-anchor="start" x="40" y="4.680000000000001" style="font-family: 'Open Sans', verdana, arial, sans-serif; font-size: 12px; fill: rgb(68, 68, 68); fill-opacity: 1; white-space: pre;">3 Months</text><g class="layers" style="opacity: 1;"><g class="legendfill"/><g class="legendlines"><path class="js-line" d="M5,0h30" style="fill: none; stroke: rgb(255, 127, 14); stroke-opacity: 1; stroke-width: 2px;"/></g><g class="legendsymbols"><g class="legendpoints"/></g></g><rect class="legendtoggle" pointer-events="all" x="0" y="-9.5" width="98.046875" height="19" style="cursor: pointer; fill: rgb(0, 0, 0); fill-opacity: 0;"/></g><g class="traces" transform="translate(0, 68.1)" style="opacity: 1;"><text class="legendtext user-select-none" text-anchor="start" x="40" y="4.680000000000001" style="font-family: 'Open Sans', verdana, arial, sans-serif; font-size: 12px; fill: rgb(68, 68, 68); fill-opacity: 1; white-space: pre;">6 Months</text><g class="layers" style="opacity: 1;"><g class="legendfill"/><g class="legendlines"><path class="js-line" d="M5,0h30" style="fill: none; stroke: rgb(44, 160, 44); stroke-opacity: 1; stroke-width: 2px;"/></g><g class="legendsymbols"><g class="legendpoints"/></g></g><rect class="legendtoggle" pointer-events="all" x="0" y="-9.5" width="98.046875" height="19" style="cursor: pointer; fill: rgb(0, 0, 0); fill-opacity: 0;"/></g><g class="traces" transform="translate(0, 87.1)" style="opacity: 1;"><text class="legendtext user-select-none" text-anchor="start" x="40" y="4.680000000000001" style="font-family: 'Open Sans', verdana, arial, sans-serif; font-size: 12px; fill: rgb(68, 68, 68); fill-opacity: 1; white-space: pre;">12 Months</text><g class="layers" style="opacity: 1;"><g class="legendfill"/><g class="legendlines"><path class="js-line" d="M5,0h30" style="fill: none; stroke: rgb(214, 39, 40); stroke-opacity: 1; stroke-width: 2px;"/></g><g class="legendsymbols"><g class="legendpoints"/></g></g><rect class="legendtoggle" pointer-events="all" x="0" y="-9.5" width="98.046875" height="19" style="cursor: pointer; fill: rgb(0, 0, 0); fill-opacity: 0;"/></g><g class="traces" transform="translate(0, 106.1)" style="opacity: 1;"><text class="legendtext user-select-none" text-anchor="start" x="40" y="4.680000000000001" style="font-family: 'Open Sans', verdana, arial, sans-serif; font-size: 12px; fill: rgb(68, 68, 68); fill-opacity: 1; white-space: pre;">24 Months</text><g class="layers" style="opacity: 1;"><g class="legendfill"/><g class="legendlines"><path class="js-line" d="M5,0h30" style="fill: none; stroke: rgb(148, 103, 189); stroke-opacity: 1; stroke-width: 2px;"/></g><g class="legendsymbols"><g class="legendpoints"/></g></g><rect class="legendtoggle" pointer-events="all" x="0" y="-9.5" width="98.046875" height="19" style="cursor: pointer; fill: rgb(0, 0, 0); fill-opacity: 0;"/></g><g class="traces" transform="translate(0, 125.1)" style="opacity: 1;"><text class="legendtext user-select-none" text-anchor="start" x="40" y="4.680000000000001" style="font-family: 'Open Sans', verdana, arial, sans-serif; font-size: 12px; fill: rgb(68, 68, 68); fill-opacity: 1; white-space: pre;">36 Months</text><g class="layers" style="opacity: 1;"><g class="legendfill"/><g class="legendlines"><path class="js-line" d="M5,0h30" style="fill: none; stroke: rgb(140, 86, 75); stroke-opacity: 1; stroke-width: 2px;"/></g><g class="legendsymbols"><g class="legendpoints"/></g></g><rect class="legendtoggle" pointer-events="all" x="0" y="-9.5" width="98.046875" height="19" style="cursor: pointer; fill: rgb(0, 0, 0); fill-opacity: 0;"/></g></g></g><rect class="scrollbar" rx="20" ry="3" width="0" height="0" style="fill: rgb(128, 139, 164); fill-opacity: 1;" x="0" y="0"/></g><g class="g-gtitle"><text class="gtitle" x="350" y="12.5" text-anchor="middle" dy="0em" style="font-family: 'Open Sans', verdana, arial, sans-serif; font-size: 17px; fill: rgb(68, 68, 68); opacity: 1; font-weight: normal; white-space: pre;"><tspan style="font-weight:bold"> Leprosy Incidence - Immunity Vaccine 0.99, Treatment 75% </tspan></text></g><g class="g-xtitle" transform="translate(0,-15)"><text class="xtitle" x="369.5" y="512" text-anchor="middle" style="font-family: 'Open Sans', verdana, arial, sans-serif; font-size: 14px; fill: rgb(68, 68, 68); opacity: 1; font-weight: normal; white-space: pre;">Time(Years)</text></g><g class="g-ytitle"><text class="ytitle" transform="rotate(-90,22,242.5)" x="22" y="242.5" text-anchor="middle" style="font-family: 'Open Sans', verdana, arial, sans-serif; font-size: 14px; fill: rgb(68, 68, 68); opacity: 1; font-weight: normal; white-space: pre;">Number of new infectiuos individuals</text></g></g></svg>