<svg class="main-svg" xmlns="http://www.w3.org/2000/svg" xmlns:xlink="http://www.w3.org/1999/xlink" width="700" height="500" style="" viewBox="0 0 700 500"><rect x="0" y="0" width="700" height="500" style="fill: rgb(255, 255, 255); fill-opacity: 1;"/><defs id="defs-fbb594"><g class="clips"><clipPath id="clipfbb594xyplot" class="plotclip"><rect width="620" height="435"/></clipPath><clipPath class="axesclip" id="clipfbb594x"><rect x="60" y="0" width="620" height="500"/></clipPath><clipPath class="axesclip" id="clipfbb594y"><rect x="0" y="25" width="700" height="435"/></clipPath><clipPath class="axesclip" id="clipfbb594xy"><rect x="60" y="25" width="620" height="435"/></clipPath></g><g class="gradients"/></defs><g class="bglayer"/><g class="layer-below"><g class="imagelayer"/><g class="shapelayer"/></g><g class="cartesianlayer"><g class="subplot xy"><g class="layer-subplot"><g class="shapelayer"/><g class="imagelayer"/></g><g class="gridlayer"><g class="x"><path class="xgrid crisp" transform="translate(215.5,0)" d="M0,25v435" style="stroke: rgb(238, 238, 238); stroke-opacity: 1; stroke-width: 1px;"/><path class="xgrid crisp" transform="translate(370,0)" d="M0,25v435" style="stroke: rgb(238, 238, 238); stroke-opacity: 1; stroke-width: 1px;"/><path class="xgrid crisp" transform="translate(524.5,0)" d="M0,25v435" style="stroke: rgb(238, 238, 238); stroke-opacity: 1; stroke-width: 1px;"/></g><g class="y"><path class="ygrid crisp" transform="translate(0,385.2)" d="M60,0h620" style="stroke: rgb(238, 238, 238); stroke-opacity: 1; stroke-width: 1px;"/><path class="ygrid crisp" transform="translate(0,326.99)" d="M60,0h620" style="stroke: rgb(238, 238, 238); stroke-opacity: 1; stroke-width: 1px;"/><path class="ygrid crisp" transform="translate(0,268.78)" d="M60,0h620" style="stroke: rgb(238, 238, 238); stroke-opacity: 1; stroke-width: 1px;"/><path class="ygrid crisp" transform="translate(0,210.57)" d="M60,0h620" style="stroke: rgb(238, 238, 238); stroke-opacity: 1; stroke-width: 1px;"/><path class="ygrid crisp" transform="translate(0,152.35)" d="M60,0h620" style="stroke: rgb(238, 238, 238); stroke-opacity: 1; stroke-width: 1px;"/><path class="ygrid crisp" transform="translate(0,94.14)" d="M60,0h620" style="stroke: rgb(238, 238, 238); stroke-opacity: 1; stroke-width: 1px;"/><path class="ygrid crisp" transform="translate(0,35.93)" d="M60,0h620" style="stroke: rgb(238, 238, 238); stroke-opacity: 1; stroke-width: 1px;"/></g></g><g class="zerolinelayer"><path class="xzl zl crisp" transform="translate(61,0)" d="M0,25v435" style="stroke: rgb(68, 68, 68); stroke-opacity: 1; stroke-width: 1px;"/><path class="yzl zl crisp" transform="translate(0,443.42)" d="M60,0h620" style="stroke: rgb(68, 68, 68); stroke-opacity: 1; stroke-width: 1px;"/></g><path class="xlines-below"/><path class="ylines-below"/><g class="overlines-below"/><g class="xaxislayer-below"/><g class="yaxislayer-below"/><g class="overaxes-below"/><g class="plot" transform="translate(60, 25)" clip-path="url('#clipfbb594xyplot')"><g class="scatterlayer mlayer"><g class="trace scatter tracec69d36" style="stroke-miterlimit: 2; opacity: 1;"><g class="fills"/><g class="errorbars"/><g class="lines"><path class="js-line" d="M4.09,380.09L10.27,388.75L13.36,363.14L38.08,330.6L41.17,327.07L47.35,321.61L50.44,319.01L62.8,309.15L65.89,306.45L84.43,292.23L87.52,289.63L130.78,255.01L133.87,252.5L167.86,222.4L170.95,219.06L195.67,194.16L198.76,190.44L204.94,182.44L208.03,179.41L235.84,143.73L238.93,139.15L263.65,103.63L266.74,98.48L288.37,63.17L291.46,57.81L303.82,34.54L306.91,28.67L310,21.75L313.09,62.16L319.27,130.9L322.36,160.01L328.54,209.58L331.63,230.85L337.81,267.85L340.9,283.75L347.08,310.33L350.17,319.16L356.35,330.18L359.44,334.21L374.89,354.38L377.98,358.04L387.25,368.39L390.34,370.8L402.7,377.64L405.79,378.83L430.51,389.53L433.6,390.56L467.59,399.32L470.68,399.77L501.58,404.87L504.67,405.31L535.57,408.62L538.66,408.95L609.73,412.94L612.82,413.04L619,413.25" style="vector-effect: non-scaling-stroke; fill: none; stroke: rgb(31, 119, 180); stroke-opacity: 1; stroke-width: 2px; opacity: 1;"/></g><g class="points"/><g class="text"/></g><g class="trace scatter trace877bbb" style="stroke-miterlimit: 2; opacity: 1;"><g class="fills"/><g class="errorbars"/><g class="lines"><path class="js-line" d="M4.09,380.09L10.27,388.75L13.36,363.14L38.08,330.6L41.17,327.07L47.35,321.61L50.44,319.01L62.8,309.15L65.89,306.45L84.43,292.23L87.52,289.63L130.78,255.01L133.87,252.5L167.86,222.4L170.95,219.06L195.67,194.16L198.76,190.44L204.94,182.44L208.03,179.41L235.84,143.73L238.93,139.15L263.65,103.63L266.74,98.48L288.37,63.17L291.46,57.81L303.82,34.54L306.91,28.67L310,21.75L313.09,57.32L319.27,125.78L322.36,155.09L328.54,205.41L331.63,227.12L337.81,264.98L340.9,280.69L347.08,308.37L350.17,316.81L356.35,327.39L359.44,331.58L377.98,355.41L381.07,359.15L387.25,366.21L390.34,368.53L396.52,372.01L399.61,373.28L415.06,380.13L418.15,381.65L436.69,389.07L439.78,389.81L470.68,397.7L473.77,398.41L492.31,401.63L495.4,402.17L541.75,407.31L544.84,407.6L557.2,408.6L560.29,408.76L619,411.88" style="vector-effect: non-scaling-stroke; fill: none; stroke: rgb(255, 127, 14); stroke-opacity: 1; stroke-width: 2px; opacity: 1;"/></g><g class="points"/><g class="text"/></g><g class="trace scatter tracea2cf8a" style="stroke-miterlimit: 2; opacity: 1;"><g class="fills"/><g class="errorbars"/><g class="lines"><path class="js-line" d="M4.09,380.09L10.27,388.75L13.36,363.14L38.08,330.6L41.17,327.07L47.35,321.61L50.44,319.01L62.8,309.15L65.89,306.45L84.43,292.23L87.52,289.63L130.78,255.01L133.87,252.5L167.86,222.4L170.95,219.06L195.67,194.16L198.76,190.44L204.94,182.44L208.03,179.41L235.84,143.73L238.93,139.15L263.65,103.63L266.74,98.48L288.37,63.17L291.46,57.81L303.82,34.54L306.91,28.67L310,21.75L313.09,50.72L319.27,120.34L322.36,149.25L328.54,200.75L331.63,223.03L337.81,260.87L340.9,277.23L347.08,304.98L350.17,313.22L359.44,327.21L362.53,331.29L381.07,355.24L384.16,359.11L387.25,362.44L390.34,364.59L396.52,368.29L399.61,369.65L418.15,377.88L421.24,379.85L430.51,383.85L433.6,384.84L449.05,389.55L452.14,390.34L467.59,394.5L470.68,395.28L513.94,402.45L517.03,402.75L541.75,405.5L544.84,405.65L557.2,406.64L560.29,406.82L619,410.58" style="vector-effect: non-scaling-stroke; fill: none; stroke: rgb(44, 160, 44); stroke-opacity: 1; stroke-width: 2px; opacity: 1;"/></g><g class="points"/><g class="text"/></g><g class="trace scatter tracee70a52" style="stroke-miterlimit: 2; opacity: 1;"><g class="fills"/><g class="errorbars"/><g class="lines"><path class="js-line" d="M4.09,380.09L10.27,388.75L13.36,363.14L38.08,330.6L41.17,327.07L47.35,321.61L50.44,319.01L62.8,309.15L65.89,306.45L84.43,292.23L87.52,289.63L130.78,255.01L133.87,252.5L167.86,222.4L170.95,219.06L195.67,194.16L198.76,190.44L204.94,182.44L208.03,179.41L235.84,143.73L238.93,139.15L263.65,103.63L266.74,98.48L288.37,63.17L291.46,57.81L303.82,34.54L306.91,28.67L310,21.75L313.09,38.76L319.27,109.03L322.36,138.96L331.63,213.95L334.72,234.38L343.99,284.72L347.08,298.42L350.17,308.13L353.26,312.34L390.34,358.18L393.43,359.93L399.61,362.86L402.7,364.18L408.88,366.76L411.97,368.19L418.15,371.41L421.24,372.71L430.51,377.59L433.6,378.7L479.95,390.84L483.04,391.37L501.58,394.73L504.67,395.02L510.85,396.44L513.94,396.83L560.29,401.85L563.38,402.06L588.1,404.09L591.19,404.33L619,405.83" style="vector-effect: non-scaling-stroke; fill: none; stroke: rgb(214, 39, 40); stroke-opacity: 1; stroke-width: 2px; opacity: 1;"/></g><g class="points"/><g class="text"/></g><g class="trace scatter trace0736de" style="stroke-miterlimit: 2; opacity: 1;"><g class="fills"/><g class="errorbars"/><g class="lines"><path class="js-line" d="M4.09,380.09L10.27,388.75L13.36,363.14L38.08,330.6L41.17,327.07L47.35,321.61L50.44,319.01L62.8,309.15L65.89,306.45L84.43,292.23L87.52,289.63L130.78,255.01L133.87,252.5L167.86,222.4L170.95,219.06L195.67,194.16L198.76,190.44L204.94,182.44L208.03,179.41L235.84,143.73L238.93,139.15L263.65,103.63L266.74,98.48L288.37,63.17L291.46,57.81L303.82,34.54L306.91,28.67L310,21.75L313.09,27.87L316.18,52.96L319.27,86.34L325.45,145.27L328.54,171.37L334.72,216.74L337.81,235.81L347.08,284.57L350.17,296.22L353.26,301.94L356.35,303.58L362.53,307.83L365.62,311.03L371.8,317.69L374.89,322.1L393.43,346.42L396.52,348.19L402.7,350.76L405.79,351.64L424.33,359.13L427.42,360.74L436.69,365.48L439.78,366.45L452.14,370.69L455.23,371.35L479.95,377.9L483.04,378.35L495.4,381.04L498.49,381.23L523.21,384.81L526.3,385.32L544.84,387.62L547.93,387.81L588.1,391.53L591.19,391.6L609.73,392.33L612.82,392.56L619,393.15" style="vector-effect: non-scaling-stroke; fill: none; stroke: rgb(148, 103, 189); stroke-opacity: 1; stroke-width: 2px; opacity: 1;"/></g><g class="points"/><g class="text"/></g><g class="trace scatter trace9cc6b0" style="stroke-miterlimit: 2; opacity: 1;"><g class="fills"/><g class="errorbars"/><g class="lines"><path class="js-line" d="M4.09,380.09L10.27,388.75L13.36,363.14L38.08,330.6L41.17,327.07L47.35,321.61L50.44,319.01L62.8,309.15L65.89,306.45L84.43,292.23L87.52,289.63L130.78,255.01L133.87,252.5L167.86,222.4L170.95,219.06L195.67,194.16L198.76,190.44L204.94,182.44L208.03,179.41L235.84,143.73L238.93,139.15L263.65,103.63L266.74,98.48L288.37,63.17L291.46,57.81L303.82,34.54L306.91,28.67L310,21.75L313.09,23.43L316.18,38.6L319.27,64.81L328.54,149.06L331.63,173L340.9,234.98L343.99,251.96L350.17,280.45L353.26,288.52L356.35,292.15L359.44,293.39L362.53,293.68L365.62,295.37L371.8,300.03L374.89,303.34L384.16,316.17L387.25,320.38L393.43,328.64L396.52,331.19L402.7,334.59L405.79,335.58L415.06,337.95L418.15,338.56L424.33,341.5L427.42,343.38L439.78,349.49L442.87,350.51L449.05,352.97L452.14,353.98L458.32,355.19L461.41,355.47L479.95,359.61L483.04,360.34L492.31,362.37L495.4,363.27L504.67,364.44L507.76,365.04L523.21,367.19L526.3,367.4L538.66,369.31L541.75,369.28L560.29,370.28L563.38,370.25L578.83,371.78L581.92,372.22L619,373.22" style="vector-effect: non-scaling-stroke; fill: none; stroke: rgb(140, 86, 75); stroke-opacity: 1; stroke-width: 2px; opacity: 1;"/></g><g class="points"/><g class="text"/></g></g></g><g class="overplot"/><path class="xlines-above crisp" style="fill: none;" d="M0,0"/><path class="ylines-above crisp" style="fill: none;" d="M0,0"/><g class="overlines-above"/><g class="xaxislayer-above"><g class="xtick"><text text-anchor="middle" x="0" y="473" transform="translate(61,0)" style="font-family: 'Open Sans', verdana, arial, sans-serif; font-size: 12px; fill: rgb(68, 68, 68); fill-opacity: 1; white-space: pre;">0</text></g><g class="xtick"><text text-anchor="middle" x="0" y="473" transform="translate(215.5,0)" style="font-family: 'Open Sans', verdana, arial, sans-serif; font-size: 12px; fill: rgb(68, 68, 68); fill-opacity: 1; white-space: pre;">50</text></g><g class="xtick"><text text-anchor="middle" x="0" y="473" transform="translate(370,0)" style="font-family: 'Open Sans', verdana, arial, sans-serif; font-size: 12px; fill: rgb(68, 68, 68); fill-opacity: 1; white-space: pre;">100</text></g><g class="xtick"><text text-anchor="middle" x="0" y="473" transform="translate(524.5,0)" style="font-family: 'Open Sans', verdana, arial, sans-serif; font-size: 12px; fill: rgb(68, 68, 68); fill-opacity: 1; white-space: pre;">150</text></g><g class="xtick"><text text-anchor="middle" x="0" y="473" transform="translate(679,0)" style="font-family: 'Open Sans', verdana, arial, sans-serif; font-size: 12px; fill: rgb(68, 68, 68); fill-opacity: 1; white-space: pre;">200</text></g></g><g class="yaxislayer-above"><g class="ytick"><text text-anchor="end" x="59" y="4.199999999999999" transform="translate(0,443.42)" style="font-family: 'Open Sans', verdana, arial, sans-serif; font-size: 12px; fill: rgb(68, 68, 68); fill-opacity: 1; white-space: pre;">0</text></g><g class="ytick"><text text-anchor="end" x="59" y="4.199999999999999" transform="translate(0,385.2)" style="font-family: 'Open Sans', verdana, arial, sans-serif; font-size: 12px; fill: rgb(68, 68, 68); fill-opacity: 1; white-space: pre;">200</text></g><g class="ytick"><text text-anchor="end" x="59" y="4.199999999999999" transform="translate(0,326.99)" style="font-family: 'Open Sans', verdana, arial, sans-serif; font-size: 12px; fill: rgb(68, 68, 68); fill-opacity: 1; white-space: pre;">400</text></g><g class="ytick"><text text-anchor="end" x="59" y="4.199999999999999" transform="translate(0,268.78)" style="font-family: 'Open Sans', verdana, arial, sans-serif; font-size: 12px; fill: rgb(68, 68, 68); fill-opacity: 1; white-space: pre;">600</text></g><g class="ytick"><text text-anchor="end" x="59" y="4.199999999999999" transform="translate(0,210.57)" style="font-family: 'Open Sans', verdana, arial, sans-serif; font-size: 12px; fill: rgb(68, 68, 68); fill-opacity: 1; white-space: pre;">800</text></g><g class="ytick"><text text-anchor="end" x="59" y="4.199999999999999" transform="translate(0,152.35)" style="font-family: 'Open Sans', verdana, arial, sans-serif; font-size: 12px; fill: rgb(68, 68, 68); fill-opacity: 1; white-space: pre;">1000</text></g><g class="ytick"><text text-anchor="end" x="59" y="4.199999999999999" transform="translate(0,94.14)" style="font-family: 'Open Sans', verdana, arial, sans-serif; font-size: 12px; fill: rgb(68, 68, 68); fill-opacity: 1; white-space: pre;">1200</text></g><g class="ytick"><text text-anchor="end" x="59" y="4.199999999999999" transform="translate(0,35.93)" style="font-family: 'Open Sans', verdana, arial, sans-serif; font-size: 12px; fill: rgb(68, 68, 68); fill-opacity: 1; white-space: pre;">1400</text></g></g><g class="overaxes-above"/></g></g><g class="polarlayer"/><g class="ternarylayer"/><g class="geolayer"/><g class="funnelarealayer"/><g class="pielayer"/><g class="treemaplayer"/><g class="sunburstlayer"/><g class="glimages"/><defs id="topdefs-fbb594"><g class="clips"/><clipPath id="legendfbb594"><rect width="117" height="140" x="0" y="0"/></clipPath></defs><g class="layer-above"><g class="imagelayer"/><g class="shapelayer"><path data-index="0" fill-rule="evenodd" d="M61,210.57H679V65.03H61Z" clip-path="url('#clipfbb594xy')" style="opacity: 0.3; stroke: rgb(0, 0, 255); stroke-opacity: 1; fill: rgb(0, 0, 255); fill-opacity: 1; stroke-width: 2px;"/></g></g><g class="infolayer"><g class="legend" pointer-events="all" transform="translate(91, 46.750000000000014)"><rect class="bg" shape-rendering="crispEdges" style="stroke: rgb(68, 68, 68); stroke-opacity: 1; fill: rgb(226, 226, 226); fill-opacity: 1; stroke-width: 0px;" width="117" height="140" x="0" y="0"/><g class="scrollbox" transform="translate(0, 0)" clip-path="url('#legendfbb594')"><text class="legendtitletext user-select-none" text-anchor="start" x="2" y="15.600000000000001" style="font-family: 'Open Sans', verdana, arial, sans-serif; font-size: 12px; fill: rgb(68, 68, 68); fill-opacity: 1; white-space: pre;"><tspan style="font-weight:bold"> Identification Time </tspan></text><g class="groups"><g class="traces" transform="translate(0, 30.1)" style="opacity: 1;"><text class="legendtext user-select-none" text-anchor="start" x="40" y="4.680000000000001" style="font-family: 'Open Sans', verdana, arial, sans-serif; font-size: 12px; fill: rgb(68, 68, 68); fill-opacity: 1; white-space: pre;">0 Months</text><g class="layers" style="opacity: 1;"><g class="legendfill"/><g class="legendlines"><path class="js-line" d="M5,0h30" style="fill: none; stroke: rgb(31, 119, 180); stroke-opacity: 1; stroke-width: 2px;"/></g><g class="legendsymbols"><g class="legendpoints"/></g></g><rect class="legendtoggle" pointer-events="all" x="0" y="-9.5" width="98.046875" height="19" style="cursor: pointer; fill: rgb(0, 0, 0); fill-opacity: 0;"/></g><g class="traces" transform="translate(0, 49.1)" style="opacity: 1;"><text class="legendtext user-select-none" text-anchor="start" x="40" y="4.680000000000001" style="font-family: 'Open Sans', verdana, arial, sans-serif; font-size: 12px; fill: rgb(68, 68, 68); fill-opacity: 1; white-space: pre;">3 Months</text><g class="layers" style="opacity: 1;"><g class="legendfill"/><g class="legendlines"><path class="js-line" d="M5,0h30" style="fill: none; stroke: rgb(255, 127, 14); stroke-opacity: 1; stroke-width: 2px;"/></g><g class="legendsymbols"><g class="legendpoints"/></g></g><rect class="legendtoggle" pointer-events="all" x="0" y="-9.5" width="98.046875" height="19" style="cursor: pointer; fill: rgb(0, 0, 0); fill-opacity: 0;"/></g><g class="traces" transform="translate(0, 68.1)" style="opacity: 1;"><text class="legendtext user-select-none" text-anchor="start" x="40" y="4.680000000000001" style="font-family: 'Open Sans', verdana, arial, sans-serif; font-size: 12px; fill: rgb(68, 68, 68); fill-opacity: 1; white-space: pre;">6 Months</text><g class="layers" style="opacity: 1;"><g class="legendfill"/><g class="legendlines"><path class="js-line" d="M5,0h30" style="fill: none; stroke: rgb(44, 160, 44); stroke-opacity: 1; stroke-width: 2px;"/></g><g class="legendsymbols"><g class="legendpoints"/></g></g><rect class="legendtoggle" pointer-events="all" x="0" y="-9.5" width="98.046875" height="19" style="cursor: pointer; fill: rgb(0, 0, 0); fill-opacity: 0;"/></g><g class="traces" transform="translate(0, 87.1)" style="opacity: 1;"><text class="legendtext user-select-none" text-anchor="start" x="40" y="4.680000000000001" style="font-family: 'Open Sans', verdana, arial, sans-serif; font-size: 12px; fill: rgb(68, 68, 68); fill-opacity: 1; white-space: pre;">12 Months</text><g class="layers" style="opacity: 1;"><g class="legendfill"/><g class="legendlines"><path class="js-line" d="M5,0h30" style="fill: none; stroke: rgb(214, 39, 40); stroke-opacity: 1; stroke-width: 2px;"/></g><g class="legendsymbols"><g class="legendpoints"/></g></g><rect class="legendtoggle" pointer-events="all" x="0" y="-9.5" width="98.046875" height="19" style="cursor: pointer; fill: rgb(0, 0, 0); fill-opacity: 0;"/></g><g class="traces" transform="translate(0, 106.1)" style="opacity: 1;"><text class="legendtext user-select-none" text-anchor="start" x="40" y="4.680000000000001" style="font-family: 'Open Sans', verdana, arial, sans-serif; font-size: 12px; fill: rgb(68, 68, 68); fill-opacity: 1; white-space: pre;">24 Months</text><g class="layers" style="opacity: 1;"><g class="legendfill"/><g class="legendlines"><path class="js-line" d="M5,0h30" style="fill: none; stroke: rgb(148, 103, 189); stroke-opacity: 1; stroke-width: 2px;"/></g><g class="legendsymbols"><g class="legendpoints"/></g></g><rect class="legendtoggle" pointer-events="all" x="0" y="-9.5" width="98.046875" height="19" style="cursor: pointer; fill: rgb(0, 0, 0); fill-opacity: 0;"/></g><g class="traces" transform="translate(0, 125.1)" style="opacity: 1;"><text class="legendtext user-select-none" text-anchor="start" x="40" y="4.680000000000001" style="font-family: 'Open Sans', verdana, arial, sans-serif; font-size: 12px; fill: rgb(68, 68, 68); fill-opacity: 1; white-space: pre;">36 Months</text><g class="layers" style="opacity: 1;"><g class="legendfill"/><g class="legendlines"><path class="js-line" d="M5,0h30" style="fill: none; stroke: rgb(140, 86, 75); stroke-opacity: 1; stroke-width: 2px;"/></g><g class="legendsymbols"><g class="legendpoints"/></g></g><rect class="legendtoggle" pointer-events="all" x="0" y="-9.5" width="98.046875" height="19" style="cursor: pointer; fill: rgb(0, 0, 0); fill-opacity: 0;"/></g></g></g><rect class="scrollbar" rx="20" ry="3" width="0" height="0" style="fill: rgb(128, 139, 164); fill-opacity: 1;" x="0" y="0"/></g><g class="g-gtitle"><text class="gtitle" x="350" y="12.5" text-anchor="middle" dy="0em" style="font-family: 'Open Sans', verdana, arial, sans-serif; font-size: 17px; fill: rgb(68, 68, 68); opacity: 1; font-weight: normal; white-space: pre;"><tspan style="font-weight:bold"> Leprosy Prevalence - Immunity Vaccine 0.0, Treatment 75% </tspan></text></g><g class="g-xtitle" transform="translate(0,-15)"><text class="xtitle" x="370" y="512" text-anchor="middle" style="font-family: 'Open Sans', verdana, arial, sans-serif; font-size: 14px; fill: rgb(68, 68, 68); opacity: 1; font-weight: normal; white-space: pre;">Time(Years)</text></g><g class="g-ytitle"><text class="ytitle" transform="rotate(-90,22,242.5)" x="22" y="242.5" text-anchor="middle" style="font-family: 'Open Sans', verdana, arial, sans-serif; font-size: 14px; fill: rgb(68, 68, 68); opacity: 1; font-weight: normal; white-space: pre;">Number of infectiuos individuals</text></g></g></svg>