<svg class="main-svg" xmlns="http://www.w3.org/2000/svg" xmlns:xlink="http://www.w3.org/1999/xlink" width="700" height="500" style="" viewBox="0 0 700 500"><rect x="0" y="0" width="700" height="500" style="fill: rgb(255, 255, 255); fill-opacity: 1;"/><defs id="defs-eab615"><g class="clips"><clipPath id="clipeab615xyplot" class="plotclip"><rect width="620" height="435"/></clipPath><clipPath class="axesclip" id="clipeab615x"><rect x="60" y="0" width="620" height="500"/></clipPath><clipPath class="axesclip" id="clipeab615y"><rect x="0" y="25" width="700" height="435"/></clipPath><clipPath class="axesclip" id="clipeab615xy"><rect x="60" y="25" width="620" height="435"/></clipPath></g><g class="gradients"/></defs><g class="bglayer"/><g class="layer-below"><g class="imagelayer"/><g class="shapelayer"/></g><g class="cartesianlayer"><g class="subplot xy"><g class="layer-subplot"><g class="shapelayer"/><g class="imagelayer"/></g><g class="gridlayer"><g class="x"><path class="xgrid crisp" transform="translate(215.5,0)" d="M0,25v435" style="stroke: rgb(238, 238, 238); stroke-opacity: 1; stroke-width: 1px;"/><path class="xgrid crisp" transform="translate(370,0)" d="M0,25v435" style="stroke: rgb(238, 238, 238); stroke-opacity: 1; stroke-width: 1px;"/><path class="xgrid crisp" transform="translate(524.5,0)" d="M0,25v435" style="stroke: rgb(238, 238, 238); stroke-opacity: 1; stroke-width: 1px;"/></g><g class="y"><path class="ygrid crisp" transform="translate(0,408.1)" d="M60,0h620" style="stroke: rgb(238, 238, 238); stroke-opacity: 1; stroke-width: 1px;"/><path class="ygrid crisp" transform="translate(0,346.62)" d="M60,0h620" style="stroke: rgb(238, 238, 238); stroke-opacity: 1; stroke-width: 1px;"/><path class="ygrid crisp" transform="translate(0,285.14)" d="M60,0h620" style="stroke: rgb(238, 238, 238); stroke-opacity: 1; stroke-width: 1px;"/><path class="ygrid crisp" transform="translate(0,223.66)" d="M60,0h620" style="stroke: rgb(238, 238, 238); stroke-opacity: 1; stroke-width: 1px;"/><path class="ygrid crisp" transform="translate(0,162.18)" d="M60,0h620" style="stroke: rgb(238, 238, 238); stroke-opacity: 1; stroke-width: 1px;"/><path class="ygrid crisp" transform="translate(0,100.7)" d="M60,0h620" style="stroke: rgb(238, 238, 238); stroke-opacity: 1; stroke-width: 1px;"/><path class="ygrid crisp" transform="translate(0,39.22)" d="M60,0h620" style="stroke: rgb(238, 238, 238); stroke-opacity: 1; stroke-width: 1px;"/></g></g><g class="zerolinelayer"><path class="xzl zl crisp" transform="translate(61,0)" d="M0,25v435" style="stroke: rgb(68, 68, 68); stroke-opacity: 1; stroke-width: 1px;"/></g><path class="xlines-below"/><path class="ylines-below"/><g class="overlines-below"/><g class="xaxislayer-below"/><g class="yaxislayer-below"/><g class="overaxes-below"/><g class="plot" transform="translate(60, 25)" clip-path="url('#clipeab615xyplot')"><g class="scatterlayer mlayer"><g class="trace scatter tracee6f80b" style="stroke-miterlimit: 2; opacity: 1;"><g class="fills"/><g class="errorbars"/><g class="lines"><path class="js-line" d="M4.09,404.1L10.27,413.25L13.36,386.2L38.08,351.83L41.17,348.11L47.35,342.34L50.44,339.59L62.8,329.18L65.89,326.32L84.43,311.3L87.52,308.57L130.78,272L133.87,269.35L164.77,241.26L167.86,237.56L180.22,224.56L183.31,221.43L192.58,211.72L195.67,207.73L223.48,171.46L226.57,167.07L245.11,140.63L248.2,135.97L257.47,121.81L260.56,116.95L272.92,96.66L276.01,91.39L282.19,81.05L285.28,75.02L294.55,57.95L297.64,50.94L306.91,32.95L310,25.65L319.27,56.13L322.36,64.56L337.81,128.84L340.9,141.99L350.17,178.73L353.26,186.85L359.44,200.72L362.53,206.54L384.16,247.86L387.25,253.43L399.61,273.34L402.7,277.59L411.97,288.9L415.06,292.15L436.69,315.07L439.78,317.94L449.05,325.44L452.14,327.46L461.41,334.05L464.5,336.11L473.77,341.5L476.86,343.26L483.04,346.52L486.13,347.7L513.94,359L517.03,359.66L541.75,365.66L544.84,366.34L557.2,368.66L560.29,368.95L566.47,370.04L569.56,370.73L619,375.69" style="vector-effect: non-scaling-stroke; fill: none; stroke: rgb(31, 119, 180); stroke-opacity: 1; stroke-width: 2px; opacity: 1;"/></g><g class="points"/><g class="text"/></g><g class="trace scatter trace062566" style="stroke-miterlimit: 2; opacity: 1;"><g class="fills"/><g class="errorbars"/><g class="lines"><path class="js-line" d="M4.09,404.1L10.27,413.25L13.36,386.2L38.08,351.83L41.17,348.11L47.35,342.34L50.44,339.59L62.8,329.18L65.89,326.32L84.43,311.3L87.52,308.57L130.78,272L133.87,269.35L164.77,241.26L167.86,237.56L180.22,224.56L183.31,221.43L192.58,211.72L195.67,207.73L223.48,171.46L226.57,167.07L245.11,140.63L248.2,135.97L257.47,121.81L260.56,116.95L272.92,96.66L276.01,91.39L282.19,81.05L285.28,75.02L294.55,57.95L297.64,50.94L306.91,32.95L310,25.65L313.09,33.25L316.18,42.99L322.36,60.28L325.45,72.3L340.9,137.61L343.99,151L350.17,174.52L353.26,182.69L365.62,209.53L368.71,215.46L384.16,243.83L387.25,249.38L399.61,268.25L402.7,272.83L418.15,293.16L421.24,296.82L439.78,315.03L442.87,318.01L458.32,329.41L461.41,331.7L483.04,344.46L486.13,345.78L495.4,350.17L498.49,351.17L532.48,361.24L535.57,362.05L547.93,364.95L551.02,365.46L606.64,371.86L609.73,371.93L615.91,372.1L619,372.3" style="vector-effect: non-scaling-stroke; fill: none; stroke: rgb(255, 127, 14); stroke-opacity: 1; stroke-width: 2px; opacity: 1;"/></g><g class="points"/><g class="text"/></g><g class="trace scatter trace221f78" style="stroke-miterlimit: 2; opacity: 1;"><g class="fills"/><g class="errorbars"/><g class="lines"><path class="js-line" d="M4.09,404.1L10.27,413.25L13.36,386.2L38.08,351.83L41.17,348.11L47.35,342.34L50.44,339.59L62.8,329.18L65.89,326.32L84.43,311.3L87.52,308.57L130.78,272L133.87,269.35L164.77,241.26L167.86,237.56L180.22,224.56L183.31,221.43L192.58,211.72L195.67,207.73L223.48,171.46L226.57,167.07L245.11,140.63L248.2,135.97L257.47,121.81L260.56,116.95L272.92,96.66L276.01,91.39L282.19,81.05L285.28,75.02L294.55,57.95L297.64,50.94L306.91,32.95L310,25.65L313.09,31.93L316.18,42.57L322.36,59.84L325.45,71.74L334.72,109.41L337.81,122.89L350.17,173L353.26,181.37L362.53,202.66L365.62,208.88L377.98,231.86L381.07,237.35L396.52,263.69L399.61,267.81L405.79,276.5L408.88,279.95L418.15,291.22L421.24,294.7L427.42,300.69L430.51,304.42L439.78,312.83L442.87,315.29L455.23,325.72L458.32,327.79L489.22,343.83L492.31,345.22L498.49,347.95L501.58,348.92L510.85,352.35L513.94,353.41L529.39,358.45L532.48,359.3L563.38,365.69L566.47,365.98L603.55,370.27L606.64,370.55L619,371.23" style="vector-effect: non-scaling-stroke; fill: none; stroke: rgb(44, 160, 44); stroke-opacity: 1; stroke-width: 2px; opacity: 1;"/></g><g class="points"/><g class="text"/></g><g class="trace scatter trace823b52" style="stroke-miterlimit: 2; opacity: 1;"><g class="fills"/><g class="errorbars"/><g class="lines"><path class="js-line" d="M4.09,404.1L10.27,413.25L13.36,386.2L38.08,351.83L41.17,348.11L47.35,342.34L50.44,339.59L62.8,329.18L65.89,326.32L84.43,311.3L87.52,308.57L130.78,272L133.87,269.35L164.77,241.26L167.86,237.56L180.22,224.56L183.31,221.43L192.58,211.72L195.67,207.73L223.48,171.46L226.57,167.07L245.11,140.63L248.2,135.97L257.47,121.81L260.56,116.95L272.92,96.66L276.01,91.39L282.19,81.05L285.28,75.02L294.55,57.95L297.64,50.94L306.91,32.95L310,25.65L313.09,27.32L316.18,36.71L322.36,52.76L325.45,64.95L334.72,101.79L337.81,115.01L350.17,166.17L353.26,174.88L362.53,195.12L365.62,201.63L374.89,219.78L377.98,225.2L387.25,242.21L390.34,247.78L399.61,261.57L402.7,266.02L411.97,278.09L415.06,281.21L424.33,292.03L427.42,295.35L445.96,312.18L449.05,314.37L458.32,320.75L461.41,322.6L486.13,336.11L489.22,337.5L501.58,343.07L504.67,344.36L520.12,349.6L523.21,350.07L554.11,356.64L557.2,357.08L572.65,359.27L575.74,359.62L588.1,360.56L591.19,360.87L603.55,362.11L606.64,362.89L619,363.41" style="vector-effect: non-scaling-stroke; fill: none; stroke: rgb(214, 39, 40); stroke-opacity: 1; stroke-width: 2px; opacity: 1;"/></g><g class="points"/><g class="text"/></g><g class="trace scatter trace89e979" style="stroke-miterlimit: 2; opacity: 1;"><g class="fills"/><g class="errorbars"/><g class="lines"><path class="js-line" d="M4.09,404.1L10.27,413.25L13.36,386.2L38.08,351.83L41.17,348.11L47.35,342.34L50.44,339.59L62.8,329.18L65.89,326.32L84.43,311.3L87.52,308.57L130.78,272L133.87,269.35L164.77,241.26L167.86,237.56L180.22,224.56L183.31,221.43L192.58,211.72L195.67,207.73L223.48,171.46L226.57,167.07L245.11,140.63L248.2,135.97L257.47,121.81L260.56,116.95L272.92,96.66L276.01,91.39L282.19,81.05L285.28,75.02L294.55,57.95L297.64,50.94L306.91,32.95L310,25.65L313.09,22.57L316.18,27.61L322.36,43.03L325.45,54.98L337.81,103.04L340.9,116.66L350.17,154.81L353.26,164.13L359.44,178.78L362.53,185.36L381.07,220.37L384.16,225.82L405.79,260.39L408.88,264.03L421.24,279.5L424.33,282.81L430.51,289.71L433.6,292.37L439.78,297.8L442.87,300.4L455.23,310.44L458.32,312.55L470.68,320.26L473.77,322.37L501.58,334.3L504.67,335.03L523.21,340.67L526.3,341.22L535.57,343.58L538.66,344.07L560.29,347.31L563.38,348.15L581.92,350.32L585.01,350.43L591.19,351.13L594.28,351.31L600.46,351.08L603.55,351.64L612.82,352.08L615.91,352.19L619,352.29" style="vector-effect: non-scaling-stroke; fill: none; stroke: rgb(148, 103, 189); stroke-opacity: 1; stroke-width: 2px; opacity: 1;"/></g><g class="points"/><g class="text"/></g><g class="trace scatter tracef41770" style="stroke-miterlimit: 2; opacity: 1;"><g class="fills"/><g class="errorbars"/><g class="lines"><path class="js-line" d="M4.09,404.1L10.27,413.25L13.36,386.2L38.08,351.83L41.17,348.11L47.35,342.34L50.44,339.59L62.8,329.18L65.89,326.32L84.43,311.3L87.52,308.57L130.78,272L133.87,269.35L164.77,241.26L167.86,237.56L180.22,224.56L183.31,221.43L192.58,211.72L195.67,207.73L223.48,171.46L226.57,167.07L245.11,140.63L248.2,135.97L257.47,121.81L260.56,116.95L272.92,96.66L276.01,91.39L282.19,81.05L285.28,75.02L294.55,57.95L297.64,50.94L306.91,32.95L310,25.65L313.09,21.75L316.18,23.37L319.27,28.42L322.36,35.41L334.72,80.99L337.81,93.39L350.17,143.69L353.26,154.52L359.44,169.75L362.53,176.13L384.16,216.04L387.25,220.75L396.52,236.2L399.61,240.63L405.79,249.69L408.88,253.84L424.33,271.74L427.42,274.85L452.14,296.34L455.23,298.78L461.41,303.91L464.5,305.73L473.77,310.89L476.86,312.07L501.58,323.22L504.67,324.38L510.85,325.89L513.94,327.26L523.21,330.47L526.3,331.16L554.11,336.47L557.2,336.82L581.92,338.77L585.01,338.62L591.19,338.9L594.28,338.71L612.82,339.53L615.91,339.34L619,338.94" style="vector-effect: non-scaling-stroke; fill: none; stroke: rgb(140, 86, 75); stroke-opacity: 1; stroke-width: 2px; opacity: 1;"/></g><g class="points"/><g class="text"/></g></g></g><g class="overplot"/><path class="xlines-above crisp" style="fill: none;" d="M0,0"/><path class="ylines-above crisp" style="fill: none;" d="M0,0"/><g class="overlines-above"/><g class="xaxislayer-above"><g class="xtick"><text text-anchor="middle" x="0" y="473" transform="translate(61,0)" style="font-family: 'Open Sans', verdana, arial, sans-serif; font-size: 12px; fill: rgb(68, 68, 68); fill-opacity: 1; white-space: pre;">0</text></g><g class="xtick"><text text-anchor="middle" x="0" y="473" transform="translate(215.5,0)" style="font-family: 'Open Sans', verdana, arial, sans-serif; font-size: 12px; fill: rgb(68, 68, 68); fill-opacity: 1; white-space: pre;">50</text></g><g class="xtick"><text text-anchor="middle" x="0" y="473" transform="translate(370,0)" style="font-family: 'Open Sans', verdana, arial, sans-serif; font-size: 12px; fill: rgb(68, 68, 68); fill-opacity: 1; white-space: pre;">100</text></g><g class="xtick"><text text-anchor="middle" x="0" y="473" transform="translate(524.5,0)" style="font-family: 'Open Sans', verdana, arial, sans-serif; font-size: 12px; fill: rgb(68, 68, 68); fill-opacity: 1; white-space: pre;">150</text></g><g class="xtick"><text text-anchor="middle" x="0" y="473" transform="translate(679,0)" style="font-family: 'Open Sans', verdana, arial, sans-serif; font-size: 12px; fill: rgb(68, 68, 68); fill-opacity: 1; white-space: pre;">200</text></g></g><g class="yaxislayer-above"><g class="ytick"><text text-anchor="end" x="59" y="4.199999999999999" transform="translate(0,408.1)" style="font-family: 'Open Sans', verdana, arial, sans-serif; font-size: 12px; fill: rgb(68, 68, 68); fill-opacity: 1; white-space: pre;">200</text></g><g class="ytick"><text text-anchor="end" x="59" y="4.199999999999999" transform="translate(0,346.62)" style="font-family: 'Open Sans', verdana, arial, sans-serif; font-size: 12px; fill: rgb(68, 68, 68); fill-opacity: 1; white-space: pre;">400</text></g><g class="ytick"><text text-anchor="end" x="59" y="4.199999999999999" transform="translate(0,285.14)" style="font-family: 'Open Sans', verdana, arial, sans-serif; font-size: 12px; fill: rgb(68, 68, 68); fill-opacity: 1; white-space: pre;">600</text></g><g class="ytick"><text text-anchor="end" x="59" y="4.199999999999999" transform="translate(0,223.66)" style="font-family: 'Open Sans', verdana, arial, sans-serif; font-size: 12px; fill: rgb(68, 68, 68); fill-opacity: 1; white-space: pre;">800</text></g><g class="ytick"><text text-anchor="end" x="59" y="4.199999999999999" transform="translate(0,162.18)" style="font-family: 'Open Sans', verdana, arial, sans-serif; font-size: 12px; fill: rgb(68, 68, 68); fill-opacity: 1; white-space: pre;">1000</text></g><g class="ytick"><text text-anchor="end" x="59" y="4.199999999999999" transform="translate(0,100.7)" style="font-family: 'Open Sans', verdana, arial, sans-serif; font-size: 12px; fill: rgb(68, 68, 68); fill-opacity: 1; white-space: pre;">1200</text></g><g class="ytick"><text text-anchor="end" x="59" y="4.199999999999999" transform="translate(0,39.22)" style="font-family: 'Open Sans', verdana, arial, sans-serif; font-size: 12px; fill: rgb(68, 68, 68); fill-opacity: 1; white-space: pre;">1400</text></g></g><g class="overaxes-above"/></g></g><g class="polarlayer"/><g class="ternarylayer"/><g class="geolayer"/><g class="funnelarealayer"/><g class="pielayer"/><g class="treemaplayer"/><g class="sunburstlayer"/><g class="glimages"/><defs id="topdefs-eab615"><g class="clips"/><clipPath id="legendeab615"><rect width="117" height="140" x="0" y="0"/></clipPath></defs><g class="layer-above"><g class="imagelayer"/><g class="shapelayer"><path data-index="0" fill-rule="evenodd" d="M61,223.66H679V69.96000000000001H61Z" clip-path="url('#clipeab615xy')" style="opacity: 0.3; stroke: rgb(0, 0, 255); stroke-opacity: 1; fill: rgb(0, 0, 255); fill-opacity: 1; stroke-width: 2px;"/></g></g><g class="infolayer"><g class="legend" pointer-events="all" transform="translate(91, 46.750000000000014)"><rect class="bg" shape-rendering="crispEdges" style="stroke: rgb(68, 68, 68); stroke-opacity: 1; fill: rgb(226, 226, 226); fill-opacity: 1; stroke-width: 0px;" width="117" height="140" x="0" y="0"/><g class="scrollbox" transform="translate(0, 0)" clip-path="url('#legendeab615')"><text class="legendtitletext user-select-none" text-anchor="start" x="2" y="15.600000000000001" style="font-family: 'Open Sans', verdana, arial, sans-serif; font-size: 12px; fill: rgb(68, 68, 68); fill-opacity: 1; white-space: pre;"><tspan style="font-weight:bold"> Identification Time </tspan></text><g class="groups"><g class="traces" transform="translate(0, 30.1)" style="opacity: 1;"><text class="legendtext user-select-none" text-anchor="start" x="40" y="4.680000000000001" style="font-family: 'Open Sans', verdana, arial, sans-serif; font-size: 12px; fill: rgb(68, 68, 68); fill-opacity: 1; white-space: pre;">0 Months</text><g class="layers" style="opacity: 1;"><g class="legendfill"/><g class="legendlines"><path class="js-line" d="M5,0h30" style="fill: none; stroke: rgb(31, 119, 180); stroke-opacity: 1; stroke-width: 2px;"/></g><g class="legendsymbols"><g class="legendpoints"/></g></g><rect class="legendtoggle" pointer-events="all" x="0" y="-9.5" width="98.046875" height="19" style="cursor: pointer; fill: rgb(0, 0, 0); fill-opacity: 0;"/></g><g class="traces" transform="translate(0, 49.1)" style="opacity: 1;"><text class="legendtext user-select-none" text-anchor="start" x="40" y="4.680000000000001" style="font-family: 'Open Sans', verdana, arial, sans-serif; font-size: 12px; fill: rgb(68, 68, 68); fill-opacity: 1; white-space: pre;">3 Months</text><g class="layers" style="opacity: 1;"><g class="legendfill"/><g class="legendlines"><path class="js-line" d="M5,0h30" style="fill: none; stroke: rgb(255, 127, 14); stroke-opacity: 1; stroke-width: 2px;"/></g><g class="legendsymbols"><g class="legendpoints"/></g></g><rect class="legendtoggle" pointer-events="all" x="0" y="-9.5" width="98.046875" height="19" style="cursor: pointer; fill: rgb(0, 0, 0); fill-opacity: 0;"/></g><g class="traces" transform="translate(0, 68.1)" style="opacity: 1;"><text class="legendtext user-select-none" text-anchor="start" x="40" y="4.680000000000001" style="font-family: 'Open Sans', verdana, arial, sans-serif; font-size: 12px; fill: rgb(68, 68, 68); fill-opacity: 1; white-space: pre;">6 Months</text><g class="layers" style="opacity: 1;"><g class="legendfill"/><g class="legendlines"><path class="js-line" d="M5,0h30" style="fill: none; stroke: rgb(44, 160, 44); stroke-opacity: 1; stroke-width: 2px;"/></g><g class="legendsymbols"><g class="legendpoints"/></g></g><rect class="legendtoggle" pointer-events="all" x="0" y="-9.5" width="98.046875" height="19" style="cursor: pointer; fill: rgb(0, 0, 0); fill-opacity: 0;"/></g><g class="traces" transform="translate(0, 87.1)" style="opacity: 1;"><text class="legendtext user-select-none" text-anchor="start" x="40" y="4.680000000000001" style="font-family: 'Open Sans', verdana, arial, sans-serif; font-size: 12px; fill: rgb(68, 68, 68); fill-opacity: 1; white-space: pre;">12 Months</text><g class="layers" style="opacity: 1;"><g class="legendfill"/><g class="legendlines"><path class="js-line" d="M5,0h30" style="fill: none; stroke: rgb(214, 39, 40); stroke-opacity: 1; stroke-width: 2px;"/></g><g class="legendsymbols"><g class="legendpoints"/></g></g><rect class="legendtoggle" pointer-events="all" x="0" y="-9.5" width="98.046875" height="19" style="cursor: pointer; fill: rgb(0, 0, 0); fill-opacity: 0;"/></g><g class="traces" transform="translate(0, 106.1)" style="opacity: 1;"><text class="legendtext user-select-none" text-anchor="start" x="40" y="4.680000000000001" style="font-family: 'Open Sans', verdana, arial, sans-serif; font-size: 12px; fill: rgb(68, 68, 68); fill-opacity: 1; white-space: pre;">24 Months</text><g class="layers" style="opacity: 1;"><g class="legendfill"/><g class="legendlines"><path class="js-line" d="M5,0h30" style="fill: none; stroke: rgb(148, 103, 189); stroke-opacity: 1; stroke-width: 2px;"/></g><g class="legendsymbols"><g class="legendpoints"/></g></g><rect class="legendtoggle" pointer-events="all" x="0" y="-9.5" width="98.046875" height="19" style="cursor: pointer; fill: rgb(0, 0, 0); fill-opacity: 0;"/></g><g class="traces" transform="translate(0, 125.1)" style="opacity: 1;"><text class="legendtext user-select-none" text-anchor="start" x="40" y="4.680000000000001" style="font-family: 'Open Sans', verdana, arial, sans-serif; font-size: 12px; fill: rgb(68, 68, 68); fill-opacity: 1; white-space: pre;">36 Months</text><g class="layers" style="opacity: 1;"><g class="legendfill"/><g class="legendlines"><path class="js-line" d="M5,0h30" style="fill: none; stroke: rgb(140, 86, 75); stroke-opacity: 1; stroke-width: 2px;"/></g><g class="legendsymbols"><g class="legendpoints"/></g></g><rect class="legendtoggle" pointer-events="all" x="0" y="-9.5" width="98.046875" height="19" style="cursor: pointer; fill: rgb(0, 0, 0); fill-opacity: 0;"/></g></g></g><rect class="scrollbar" rx="20" ry="3" width="0" height="0" style="fill: rgb(128, 139, 164); fill-opacity: 1;" x="0" y="0"/></g><g class="g-gtitle"><text class="gtitle" x="350" y="12.5" text-anchor="middle" dy="0em" style="font-family: 'Open Sans', verdana, arial, sans-serif; font-size: 17px; fill: rgb(68, 68, 68); opacity: 1; font-weight: normal; white-space: pre;"><tspan style="font-weight:bold"> Leprosy Prevalence - Immunity Vaccine 0.99, Treatment 25% </tspan></text></g><g class="g-xtitle" transform="translate(0,-15)"><text class="xtitle" x="370" y="512" text-anchor="middle" style="font-family: 'Open Sans', verdana, arial, sans-serif; font-size: 14px; fill: rgb(68, 68, 68); opacity: 1; font-weight: normal; white-space: pre;">Time(Years)</text></g><g class="g-ytitle"><text class="ytitle" transform="rotate(-90,22,242.5)" x="22" y="242.5" text-anchor="middle" style="font-family: 'Open Sans', verdana, arial, sans-serif; font-size: 14px; fill: rgb(68, 68, 68); opacity: 1; font-weight: normal; white-space: pre;">Number of infectiuos individuals</text></g></g></svg>