<svg class="main-svg" xmlns="http://www.w3.org/2000/svg" xmlns:xlink="http://www.w3.org/1999/xlink" width="700" height="500" style="" viewBox="0 0 700 500"><rect x="0" y="0" width="700" height="500" style="fill: rgb(255, 255, 255); fill-opacity: 1;"/><defs id="defs-36a6eb"><g class="clips"><clipPath id="clip36a6ebxyplot" class="plotclip"><rect width="620" height="435"/></clipPath><clipPath class="axesclip" id="clip36a6ebx"><rect x="60" y="0" width="620" height="500"/></clipPath><clipPath class="axesclip" id="clip36a6eby"><rect x="0" y="25" width="700" height="435"/></clipPath><clipPath class="axesclip" id="clip36a6ebxy"><rect x="60" y="25" width="620" height="435"/></clipPath></g><g class="gradients"/></defs><g class="bglayer"/><g class="layer-below"><g class="imagelayer"/><g class="shapelayer"/></g><g class="cartesianlayer"><g class="subplot xy"><g class="layer-subplot"><g class="shapelayer"/><g class="imagelayer"/></g><g class="gridlayer"><g class="x"><path class="xgrid crisp" transform="translate(215.5,0)" d="M0,25v435" style="stroke: rgb(238, 238, 238); stroke-opacity: 1; stroke-width: 1px;"/><path class="xgrid crisp" transform="translate(370,0)" d="M0,25v435" style="stroke: rgb(238, 238, 238); stroke-opacity: 1; stroke-width: 1px;"/><path class="xgrid crisp" transform="translate(524.5,0)" d="M0,25v435" style="stroke: rgb(238, 238, 238); stroke-opacity: 1; stroke-width: 1px;"/></g><g class="y"><path class="ygrid crisp" transform="translate(0,390.46)" d="M60,0h620" style="stroke: rgb(238, 238, 238); stroke-opacity: 1; stroke-width: 1px;"/><path class="ygrid crisp" transform="translate(0,331.51)" d="M60,0h620" style="stroke: rgb(238, 238, 238); stroke-opacity: 1; stroke-width: 1px;"/><path class="ygrid crisp" transform="translate(0,272.55)" d="M60,0h620" style="stroke: rgb(238, 238, 238); stroke-opacity: 1; stroke-width: 1px;"/><path class="ygrid crisp" transform="translate(0,213.59)" d="M60,0h620" style="stroke: rgb(238, 238, 238); stroke-opacity: 1; stroke-width: 1px;"/><path class="ygrid crisp" transform="translate(0,154.63)" d="M60,0h620" style="stroke: rgb(238, 238, 238); stroke-opacity: 1; stroke-width: 1px;"/><path class="ygrid crisp" transform="translate(0,95.67)" d="M60,0h620" style="stroke: rgb(238, 238, 238); stroke-opacity: 1; stroke-width: 1px;"/><path class="ygrid crisp" transform="translate(0,36.71)" d="M60,0h620" style="stroke: rgb(238, 238, 238); stroke-opacity: 1; stroke-width: 1px;"/></g></g><g class="zerolinelayer"><path class="xzl zl crisp" transform="translate(61,0)" d="M0,25v435" style="stroke: rgb(68, 68, 68); stroke-opacity: 1; stroke-width: 1px;"/><path class="yzl zl crisp" transform="translate(0,449.42)" d="M60,0h620" style="stroke: rgb(68, 68, 68); stroke-opacity: 1; stroke-width: 1px;"/></g><path class="xlines-below"/><path class="ylines-below"/><g class="overlines-below"/><g class="xaxislayer-below"/><g class="yaxislayer-below"/><g class="overaxes-below"/><g class="plot" transform="translate(60, 25)" clip-path="url('#clip36a6ebxyplot')"><g class="scatterlayer mlayer"><g class="trace scatter tracea608dd" style="stroke-miterlimit: 2; opacity: 1;"><g class="fills"/><g class="errorbars"/><g class="lines"><path class="js-line" d="M4.09,385.6L10.27,394.38L13.36,368.44L38.08,335.48L41.17,331.91L47.35,326.38L50.44,323.74L62.8,313.76L65.89,311.02L84.43,296.61L87.52,293.99L130.78,258.93L133.87,256.38L167.86,225.9L170.95,222.51L195.67,197.29L198.76,193.52L204.94,185.42L208.03,182.35L235.84,146.22L238.93,141.57L263.65,105.6L266.74,100.39L288.37,64.63L291.46,59.2L303.82,35.62L306.91,29.68L310,22.67L313.09,48.49L322.36,113.18L325.45,134.26L334.72,192.26L337.81,209.54L347.08,255.86L350.17,266.61L356.35,279.65L359.44,285.07L387.25,330.37L390.34,334.23L396.52,341.16L399.61,343.86L415.06,357.63L418.15,360.09L430.51,369.36L433.6,371.35L452.14,381.22L455.23,382.5L476.86,391.07L479.95,391.98L498.49,397.47L501.58,398.24L513.94,401.19L517.03,401.73L532.48,404.41L535.57,404.91L578.83,410.02L581.92,410.38L619,413.25" style="vector-effect: non-scaling-stroke; fill: none; stroke: rgb(31, 119, 180); stroke-opacity: 1; stroke-width: 2px; opacity: 1;"/></g><g class="points"/><g class="text"/></g><g class="trace scatter trace88af9a" style="stroke-miterlimit: 2; opacity: 1;"><g class="fills"/><g class="errorbars"/><g class="lines"><path class="js-line" d="M4.09,385.6L10.27,394.38L13.36,368.44L38.08,335.48L41.17,331.91L47.35,326.38L50.44,323.74L62.8,313.76L65.89,311.02L84.43,296.61L87.52,293.99L130.78,258.93L133.87,256.38L167.86,225.9L170.95,222.51L195.67,197.29L198.76,193.52L204.94,185.42L208.03,182.35L235.84,146.22L238.93,141.57L263.65,105.6L266.74,100.39L288.37,64.63L291.46,59.2L303.82,35.62L306.91,29.68L310,22.67L313.09,44.27L319.27,89.48L322.36,109.47L334.72,189.17L337.81,206.88L347.08,253.66L350.17,264.31L356.35,278.05L359.44,282.99L384.16,324.58L387.25,329.48L393.43,336.85L396.52,339.88L405.79,348.62L408.88,350.66L418.15,358.25L421.24,360.58L430.51,367.26L433.6,369.15L455.23,380.36L458.32,381.43L479.95,390.39L483.04,391.44L501.58,396.48L504.67,397.08L517.03,399.89L520.12,400.43L557.2,406.48L560.29,406.74L588.1,409.52L591.19,409.85L612.82,411.42L615.91,411.55L619,411.68" style="vector-effect: non-scaling-stroke; fill: none; stroke: rgb(255, 127, 14); stroke-opacity: 1; stroke-width: 2px; opacity: 1;"/></g><g class="points"/><g class="text"/></g><g class="trace scatter trace2b36a6" style="stroke-miterlimit: 2; opacity: 1;"><g class="fills"/><g class="errorbars"/><g class="lines"><path class="js-line" d="M4.09,385.6L10.27,394.38L13.36,368.44L38.08,335.48L41.17,331.91L47.35,326.38L50.44,323.74L62.8,313.76L65.89,311.02L84.43,296.61L87.52,293.99L130.78,258.93L133.87,256.38L167.86,225.9L170.95,222.51L195.67,197.29L198.76,193.52L204.94,185.42L208.03,182.35L235.84,146.22L238.93,141.57L263.65,105.6L266.74,100.39L288.37,64.63L291.46,59.2L303.82,35.62L306.91,29.68L310,22.67L313.09,40.18L322.36,104.89L325.45,126.8L334.72,185.07L337.81,202.37L347.08,249.98L350.17,261.8L356.35,274.46L359.44,279.89L387.25,325.1L390.34,329.38L396.52,335.81L399.61,338.61L411.97,349.46L415.06,352.08L430.51,363.79L433.6,365.7L445.96,373.32L449.05,375.16L461.41,381.4L464.5,382.89L495.4,393.34L498.49,394.03L526.3,400.48L529.39,400.83L547.93,403.78L551.02,404.23L600.46,409.76L603.55,409.82L619,410.95" style="vector-effect: non-scaling-stroke; fill: none; stroke: rgb(44, 160, 44); stroke-opacity: 1; stroke-width: 2px; opacity: 1;"/></g><g class="points"/><g class="text"/></g><g class="trace scatter trace35b9c8" style="stroke-miterlimit: 2; opacity: 1;"><g class="fills"/><g class="errorbars"/><g class="lines"><path class="js-line" d="M4.09,385.6L10.27,394.38L13.36,368.44L38.08,335.48L41.17,331.91L47.35,326.38L50.44,323.74L62.8,313.76L65.89,311.02L84.43,296.61L87.52,293.99L130.78,258.93L133.87,256.38L167.86,225.9L170.95,222.51L195.67,197.29L198.76,193.52L204.94,185.42L208.03,182.35L235.84,146.22L238.93,141.57L263.65,105.6L266.74,100.39L288.37,64.63L291.46,59.2L303.82,35.62L306.91,29.68L310,22.67L313.09,32.46L319.27,77.43L322.36,96.83L331.63,158.72L334.72,178.03L343.99,228.53L347.08,243.45L350.17,255.55L353.26,262.75L365.62,283.29L368.71,288.15L377.98,304.09L381.07,309.17L390.34,323.5L393.43,327.7L415.06,347.14L418.15,349.57L433.6,361.72L436.69,363.56L449.05,371.27L452.14,372.97L470.68,381.58L473.77,382.47L501.58,391.75L504.67,392.51L526.3,397.4L529.39,398.01L569.56,403.63L572.65,403.9L597.37,406.62L600.46,406.75L619,408.13" style="vector-effect: non-scaling-stroke; fill: none; stroke: rgb(214, 39, 40); stroke-opacity: 1; stroke-width: 2px; opacity: 1;"/></g><g class="points"/><g class="text"/></g><g class="trace scatter traceb609f6" style="stroke-miterlimit: 2; opacity: 1;"><g class="fills"/><g class="errorbars"/><g class="lines"><path class="js-line" d="M4.09,385.6L10.27,394.38L13.36,368.44L38.08,335.48L41.17,331.91L47.35,326.38L50.44,323.74L62.8,313.76L65.89,311.02L84.43,296.61L87.52,293.99L130.78,258.93L133.87,256.38L167.86,225.9L170.95,222.51L195.67,197.29L198.76,193.52L204.94,185.42L208.03,182.35L235.84,146.22L238.93,141.57L263.65,105.6L266.74,100.39L288.37,64.63L291.46,59.2L303.82,35.62L306.91,29.68L310,22.67L313.09,24.52L316.18,39.76L319.27,59.59L340.9,197.6L343.99,213.32L350.17,242.34L353.26,251.53L359.44,261.59L362.53,266.2L368.71,276.01L371.8,281.69L390.34,311.79L393.43,315.98L399.61,323.22L402.7,326.32L442.87,358.41L445.96,360.5L455.23,366L458.32,367.44L489.22,379.76L492.31,380.55L501.58,383L504.67,383.61L541.75,392.13L544.84,392.4L606.64,400.33L609.73,400.52L619,401.43" style="vector-effect: non-scaling-stroke; fill: none; stroke: rgb(148, 103, 189); stroke-opacity: 1; stroke-width: 2px; opacity: 1;"/></g><g class="points"/><g class="text"/></g><g class="trace scatter tracec8b619" style="stroke-miterlimit: 2; opacity: 1;"><g class="fills"/><g class="errorbars"/><g class="lines"><path class="js-line" d="M4.09,385.6L10.27,394.38L13.36,368.44L38.08,335.48L41.17,331.91L47.35,326.38L50.44,323.74L62.8,313.76L65.89,311.02L84.43,296.61L87.52,293.99L130.78,258.93L133.87,256.38L167.86,225.9L170.95,222.51L195.67,197.29L198.76,193.52L204.94,185.42L208.03,182.35L235.84,146.22L238.93,141.57L263.65,105.6L266.74,100.39L288.37,64.63L291.46,59.2L303.82,35.62L306.91,29.68L310,22.67L313.09,21.75L316.18,29.92L319.27,45.43L340.9,183.07L343.99,199.63L350.17,230L353.26,240.59L356.35,247.96L359.44,252.65L368.71,265.71L371.8,270.47L396.52,309.39L399.61,313.28L415.06,327.39L418.15,329.75L427.42,338.17L430.51,340.36L439.78,347.56L442.87,349.36L452.14,355.24L455.23,356.64L461.41,359.68L464.5,360.89L479.95,367.59L483.04,368.58L501.58,375.45L504.67,376.63L535.57,384.02L538.66,384.64L547.93,386.38L551.02,386.88L581.92,391.02L585.01,391.35L603.55,393.18L606.64,393.6L619,394.86" style="vector-effect: non-scaling-stroke; fill: none; stroke: rgb(140, 86, 75); stroke-opacity: 1; stroke-width: 2px; opacity: 1;"/></g><g class="points"/><g class="text"/></g></g></g><g class="overplot"/><path class="xlines-above crisp" style="fill: none;" d="M0,0"/><path class="ylines-above crisp" style="fill: none;" d="M0,0"/><g class="overlines-above"/><g class="xaxislayer-above"><g class="xtick"><text text-anchor="middle" x="0" y="473" transform="translate(61,0)" style="font-family: 'Open Sans', verdana, arial, sans-serif; font-size: 12px; fill: rgb(68, 68, 68); fill-opacity: 1; white-space: pre;">0</text></g><g class="xtick"><text text-anchor="middle" x="0" y="473" transform="translate(215.5,0)" style="font-family: 'Open Sans', verdana, arial, sans-serif; font-size: 12px; fill: rgb(68, 68, 68); fill-opacity: 1; white-space: pre;">50</text></g><g class="xtick"><text text-anchor="middle" x="0" y="473" transform="translate(370,0)" style="font-family: 'Open Sans', verdana, arial, sans-serif; font-size: 12px; fill: rgb(68, 68, 68); fill-opacity: 1; white-space: pre;">100</text></g><g class="xtick"><text text-anchor="middle" x="0" y="473" transform="translate(524.5,0)" style="font-family: 'Open Sans', verdana, arial, sans-serif; font-size: 12px; fill: rgb(68, 68, 68); fill-opacity: 1; white-space: pre;">150</text></g><g class="xtick"><text text-anchor="middle" x="0" y="473" transform="translate(679,0)" style="font-family: 'Open Sans', verdana, arial, sans-serif; font-size: 12px; fill: rgb(68, 68, 68); fill-opacity: 1; white-space: pre;">200</text></g></g><g class="yaxislayer-above"><g class="ytick"><text text-anchor="end" x="59" y="4.199999999999999" transform="translate(0,449.42)" style="font-family: 'Open Sans', verdana, arial, sans-serif; font-size: 12px; fill: rgb(68, 68, 68); fill-opacity: 1; white-space: pre;">0</text></g><g class="ytick"><text text-anchor="end" x="59" y="4.199999999999999" transform="translate(0,390.46)" style="font-family: 'Open Sans', verdana, arial, sans-serif; font-size: 12px; fill: rgb(68, 68, 68); fill-opacity: 1; white-space: pre;">200</text></g><g class="ytick"><text text-anchor="end" x="59" y="4.199999999999999" transform="translate(0,331.51)" style="font-family: 'Open Sans', verdana, arial, sans-serif; font-size: 12px; fill: rgb(68, 68, 68); fill-opacity: 1; white-space: pre;">400</text></g><g class="ytick"><text text-anchor="end" x="59" y="4.199999999999999" transform="translate(0,272.55)" style="font-family: 'Open Sans', verdana, arial, sans-serif; font-size: 12px; fill: rgb(68, 68, 68); fill-opacity: 1; white-space: pre;">600</text></g><g class="ytick"><text text-anchor="end" x="59" y="4.199999999999999" transform="translate(0,213.59)" style="font-family: 'Open Sans', verdana, arial, sans-serif; font-size: 12px; fill: rgb(68, 68, 68); fill-opacity: 1; white-space: pre;">800</text></g><g class="ytick"><text text-anchor="end" x="59" y="4.199999999999999" transform="translate(0,154.63)" style="font-family: 'Open Sans', verdana, arial, sans-serif; font-size: 12px; fill: rgb(68, 68, 68); fill-opacity: 1; white-space: pre;">1000</text></g><g class="ytick"><text text-anchor="end" x="59" y="4.199999999999999" transform="translate(0,95.67)" style="font-family: 'Open Sans', verdana, arial, sans-serif; font-size: 12px; fill: rgb(68, 68, 68); fill-opacity: 1; white-space: pre;">1200</text></g><g class="ytick"><text text-anchor="end" x="59" y="4.199999999999999" transform="translate(0,36.71)" style="font-family: 'Open Sans', verdana, arial, sans-serif; font-size: 12px; fill: rgb(68, 68, 68); fill-opacity: 1; white-space: pre;">1400</text></g></g><g class="overaxes-above"/></g></g><g class="polarlayer"/><g class="ternarylayer"/><g class="geolayer"/><g class="funnelarealayer"/><g class="pielayer"/><g class="treemaplayer"/><g class="sunburstlayer"/><g class="glimages"/><defs id="topdefs-36a6eb"><g class="clips"/><clipPath id="legend36a6eb"><rect width="117" height="140" x="0" y="0"/></clipPath></defs><g class="layer-above"><g class="imagelayer"/><g class="shapelayer"><path data-index="0" fill-rule="evenodd" d="M61,213.59H679V66.19H61Z" clip-path="url('#clip36a6ebxy')" style="opacity: 0.3; stroke: rgb(0, 0, 255); stroke-opacity: 1; fill: rgb(0, 0, 255); fill-opacity: 1; stroke-width: 2px;"/></g></g><g class="infolayer"><g class="legend" pointer-events="all" transform="translate(91, 46.750000000000014)"><rect class="bg" shape-rendering="crispEdges" style="stroke: rgb(68, 68, 68); stroke-opacity: 1; fill: rgb(226, 226, 226); fill-opacity: 1; stroke-width: 0px;" width="117" height="140" x="0" y="0"/><g class="scrollbox" transform="translate(0, 0)" clip-path="url('#legend36a6eb')"><text class="legendtitletext user-select-none" text-anchor="start" x="2" y="15.600000000000001" style="font-family: 'Open Sans', verdana, arial, sans-serif; font-size: 12px; fill: rgb(68, 68, 68); fill-opacity: 1; white-space: pre;"><tspan style="font-weight:bold"> Identification Time </tspan></text><g class="groups"><g class="traces" transform="translate(0, 30.1)" style="opacity: 1;"><text class="legendtext user-select-none" text-anchor="start" x="40" y="4.680000000000001" style="font-family: 'Open Sans', verdana, arial, sans-serif; font-size: 12px; fill: rgb(68, 68, 68); fill-opacity: 1; white-space: pre;">0 Months</text><g class="layers" style="opacity: 1;"><g class="legendfill"/><g class="legendlines"><path class="js-line" d="M5,0h30" style="fill: none; stroke: rgb(31, 119, 180); stroke-opacity: 1; stroke-width: 2px;"/></g><g class="legendsymbols"><g class="legendpoints"/></g></g><rect class="legendtoggle" pointer-events="all" x="0" y="-9.5" width="98.046875" height="19" style="cursor: pointer; fill: rgb(0, 0, 0); fill-opacity: 0;"/></g><g class="traces" transform="translate(0, 49.1)" style="opacity: 1;"><text class="legendtext user-select-none" text-anchor="start" x="40" y="4.680000000000001" style="font-family: 'Open Sans', verdana, arial, sans-serif; font-size: 12px; fill: rgb(68, 68, 68); fill-opacity: 1; white-space: pre;">3 Months</text><g class="layers" style="opacity: 1;"><g class="legendfill"/><g class="legendlines"><path class="js-line" d="M5,0h30" style="fill: none; stroke: rgb(255, 127, 14); stroke-opacity: 1; stroke-width: 2px;"/></g><g class="legendsymbols"><g class="legendpoints"/></g></g><rect class="legendtoggle" pointer-events="all" x="0" y="-9.5" width="98.046875" height="19" style="cursor: pointer; fill: rgb(0, 0, 0); fill-opacity: 0;"/></g><g class="traces" transform="translate(0, 68.1)" style="opacity: 1;"><text class="legendtext user-select-none" text-anchor="start" x="40" y="4.680000000000001" style="font-family: 'Open Sans', verdana, arial, sans-serif; font-size: 12px; fill: rgb(68, 68, 68); fill-opacity: 1; white-space: pre;">6 Months</text><g class="layers" style="opacity: 1;"><g class="legendfill"/><g class="legendlines"><path class="js-line" d="M5,0h30" style="fill: none; stroke: rgb(44, 160, 44); stroke-opacity: 1; stroke-width: 2px;"/></g><g class="legendsymbols"><g class="legendpoints"/></g></g><rect class="legendtoggle" pointer-events="all" x="0" y="-9.5" width="98.046875" height="19" style="cursor: pointer; fill: rgb(0, 0, 0); fill-opacity: 0;"/></g><g class="traces" transform="translate(0, 87.1)" style="opacity: 1;"><text class="legendtext user-select-none" text-anchor="start" x="40" y="4.680000000000001" style="font-family: 'Open Sans', verdana, arial, sans-serif; font-size: 12px; fill: rgb(68, 68, 68); fill-opacity: 1; white-space: pre;">12 Months</text><g class="layers" style="opacity: 1;"><g class="legendfill"/><g class="legendlines"><path class="js-line" d="M5,0h30" style="fill: none; stroke: rgb(214, 39, 40); stroke-opacity: 1; stroke-width: 2px;"/></g><g class="legendsymbols"><g class="legendpoints"/></g></g><rect class="legendtoggle" pointer-events="all" x="0" y="-9.5" width="98.046875" height="19" style="cursor: pointer; fill: rgb(0, 0, 0); fill-opacity: 0;"/></g><g class="traces" transform="translate(0, 106.1)" style="opacity: 1;"><text class="legendtext user-select-none" text-anchor="start" x="40" y="4.680000000000001" style="font-family: 'Open Sans', verdana, arial, sans-serif; font-size: 12px; fill: rgb(68, 68, 68); fill-opacity: 1; white-space: pre;">24 Months</text><g class="layers" style="opacity: 1;"><g class="legendfill"/><g class="legendlines"><path class="js-line" d="M5,0h30" style="fill: none; stroke: rgb(148, 103, 189); stroke-opacity: 1; stroke-width: 2px;"/></g><g class="legendsymbols"><g class="legendpoints"/></g></g><rect class="legendtoggle" pointer-events="all" x="0" y="-9.5" width="98.046875" height="19" style="cursor: pointer; fill: rgb(0, 0, 0); fill-opacity: 0;"/></g><g class="traces" transform="translate(0, 125.1)" style="opacity: 1;"><text class="legendtext user-select-none" text-anchor="start" x="40" y="4.680000000000001" style="font-family: 'Open Sans', verdana, arial, sans-serif; font-size: 12px; fill: rgb(68, 68, 68); fill-opacity: 1; white-space: pre;">36 Months</text><g class="layers" style="opacity: 1;"><g class="legendfill"/><g class="legendlines"><path class="js-line" d="M5,0h30" style="fill: none; stroke: rgb(140, 86, 75); stroke-opacity: 1; stroke-width: 2px;"/></g><g class="legendsymbols"><g class="legendpoints"/></g></g><rect class="legendtoggle" pointer-events="all" x="0" y="-9.5" width="98.046875" height="19" style="cursor: pointer; fill: rgb(0, 0, 0); fill-opacity: 0;"/></g></g></g><rect class="scrollbar" rx="20" ry="3" width="0" height="0" style="fill: rgb(128, 139, 164); fill-opacity: 1;" x="0" y="0"/></g><g class="g-gtitle"><text class="gtitle" x="350" y="12.5" text-anchor="middle" dy="0em" style="font-family: 'Open Sans', verdana, arial, sans-serif; font-size: 17px; fill: rgb(68, 68, 68); opacity: 1; font-weight: normal; white-space: pre;"><tspan style="font-weight:bold"> Leprosy Prevalence - Immunity Vaccine 0.5, Treatment 50% </tspan></text></g><g class="g-xtitle" transform="translate(0,-15)"><text class="xtitle" x="370" y="512" text-anchor="middle" style="font-family: 'Open Sans', verdana, arial, sans-serif; font-size: 14px; fill: rgb(68, 68, 68); opacity: 1; font-weight: normal; white-space: pre;">Time(Years)</text></g><g class="g-ytitle"><text class="ytitle" transform="rotate(-90,22,242.5)" x="22" y="242.5" text-anchor="middle" style="font-family: 'Open Sans', verdana, arial, sans-serif; font-size: 14px; fill: rgb(68, 68, 68); opacity: 1; font-weight: normal; white-space: pre;">Number of infectiuos individuals</text></g></g></svg>