<svg class="main-svg" xmlns="http://www.w3.org/2000/svg" xmlns:xlink="http://www.w3.org/1999/xlink" width="700" height="500" style="" viewBox="0 0 700 500"><rect x="0" y="0" width="700" height="500" style="fill: rgb(255, 255, 255); fill-opacity: 1;"/><defs id="defs-d76724"><g class="clips"><clipPath id="clipd76724xyplot" class="plotclip"><rect width="620" height="435"/></clipPath><clipPath class="axesclip" id="clipd76724x"><rect x="60" y="0" width="620" height="500"/></clipPath><clipPath class="axesclip" id="clipd76724y"><rect x="0" y="25" width="700" height="435"/></clipPath><clipPath class="axesclip" id="clipd76724xy"><rect x="60" y="25" width="620" height="435"/></clipPath></g><g class="gradients"/></defs><g class="bglayer"/><g class="layer-below"><g class="imagelayer"/><g class="shapelayer"/></g><g class="cartesianlayer"><g class="subplot xy"><g class="layer-subplot"><g class="shapelayer"/><g class="imagelayer"/></g><g class="gridlayer"><g class="x"><path class="xgrid crisp" transform="translate(215.5,0)" d="M0,25v435" style="stroke: rgb(238, 238, 238); stroke-opacity: 1; stroke-width: 1px;"/><path class="xgrid crisp" transform="translate(370,0)" d="M0,25v435" style="stroke: rgb(238, 238, 238); stroke-opacity: 1; stroke-width: 1px;"/><path class="xgrid crisp" transform="translate(524.5,0)" d="M0,25v435" style="stroke: rgb(238, 238, 238); stroke-opacity: 1; stroke-width: 1px;"/></g><g class="y"><path class="ygrid crisp" transform="translate(0,381.11)" d="M60,0h620" style="stroke: rgb(238, 238, 238); stroke-opacity: 1; stroke-width: 1px;"/><path class="ygrid crisp" transform="translate(0,323.6)" d="M60,0h620" style="stroke: rgb(238, 238, 238); stroke-opacity: 1; stroke-width: 1px;"/><path class="ygrid crisp" transform="translate(0,266.09000000000003)" d="M60,0h620" style="stroke: rgb(238, 238, 238); stroke-opacity: 1; stroke-width: 1px;"/><path class="ygrid crisp" transform="translate(0,208.58)" d="M60,0h620" style="stroke: rgb(238, 238, 238); stroke-opacity: 1; stroke-width: 1px;"/><path class="ygrid crisp" transform="translate(0,151.07999999999998)" d="M60,0h620" style="stroke: rgb(238, 238, 238); stroke-opacity: 1; stroke-width: 1px;"/><path class="ygrid crisp" transform="translate(0,93.57)" d="M60,0h620" style="stroke: rgb(238, 238, 238); stroke-opacity: 1; stroke-width: 1px;"/><path class="ygrid crisp" transform="translate(0,36.06)" d="M60,0h620" style="stroke: rgb(238, 238, 238); stroke-opacity: 1; stroke-width: 1px;"/></g></g><g class="zerolinelayer"><path class="xzl zl crisp" transform="translate(61,0)" d="M0,25v435" style="stroke: rgb(68, 68, 68); stroke-opacity: 1; stroke-width: 1px;"/><path class="yzl zl crisp" transform="translate(0,438.62)" d="M60,0h620" style="stroke: rgb(68, 68, 68); stroke-opacity: 1; stroke-width: 1px;"/></g><path class="xlines-below"/><path class="ylines-below"/><g class="overlines-below"/><g class="xaxislayer-below"/><g class="yaxislayer-below"/><g class="overaxes-below"/><g class="plot" transform="translate(60, 25)" clip-path="url('#clipd76724xyplot')"><g class="scatterlayer mlayer"><g class="trace scatter trace5a3a00" style="stroke-miterlimit: 2; opacity: 1;"><g class="fills"/><g class="errorbars"/><g class="lines"><path class="js-line" d="M4.09,375.75L10.27,384.31L13.36,359.01L38.08,326.86L41.17,323.38L47.35,317.98L50.44,315.41L62.8,305.68L65.89,303L84.43,288.95L87.52,286.39L130.78,252.19L133.87,249.71L167.86,219.98L170.95,216.68L195.67,192.07L198.76,188.39L204.94,180.5L208.03,177.5L235.84,142.26L238.93,137.73L263.65,102.64L266.74,97.55L288.37,62.67L291.46,57.37L303.82,34.38L306.91,28.58L310,21.75L313.09,74.11L319.27,158.17L322.36,192.61L328.54,248.91L331.63,271.77L337.81,309.11L340.9,323.92L347.08,347.92L350.17,355.85L356.35,368.45L359.44,373.19L368.71,385.6L371.8,388.68L381.07,396.49L384.16,398.65L390.34,401.43L393.43,402.26L421.24,408.38L424.33,408.86L470.68,412.05L473.77,412.12L538.66,413.12L541.75,413.14L619,413.25" style="vector-effect: non-scaling-stroke; fill: none; stroke: rgb(31, 119, 180); stroke-opacity: 1; stroke-width: 2px; opacity: 1;"/></g><g class="points"/><g class="text"/></g><g class="trace scatter trace64fb87" style="stroke-miterlimit: 2; opacity: 1;"><g class="fills"/><g class="errorbars"/><g class="lines"><path class="js-line" d="M4.09,375.75L10.27,384.31L13.36,359.01L38.08,326.86L41.17,323.38L47.35,317.98L50.44,315.41L62.8,305.68L65.89,303L84.43,288.95L87.52,286.39L130.78,252.19L133.87,249.71L167.86,219.98L170.95,216.68L195.67,192.07L198.76,188.39L204.94,180.5L208.03,177.5L235.84,142.26L238.93,137.73L263.65,102.64L266.74,97.55L288.37,62.67L291.46,57.37L303.82,34.38L306.91,28.58L310,21.75L313.09,67.02L319.27,152.94L322.36,187.65L328.54,245.08L331.63,268.21L337.81,306.33L340.9,321.76L347.08,346.42L350.17,353.29L359.44,370.17L362.53,375.06L368.71,383.44L371.8,387.06L377.98,393.14L381.07,395.66L387.25,399.54L390.34,400.52L405.79,403.96L408.88,404.74L427.42,408.6L430.51,408.78L473.77,411.68L476.86,411.84L572.65,413.15L575.74,413.15L619,413.21" style="vector-effect: non-scaling-stroke; fill: none; stroke: rgb(255, 127, 14); stroke-opacity: 1; stroke-width: 2px; opacity: 1;"/></g><g class="points"/><g class="text"/></g><g class="trace scatter tracec1f0bd" style="stroke-miterlimit: 2; opacity: 1;"><g class="fills"/><g class="errorbars"/><g class="lines"><path class="js-line" d="M4.09,375.75L10.27,384.31L13.36,359.01L38.08,326.86L41.17,323.38L47.35,317.98L50.44,315.41L62.8,305.68L65.89,303L84.43,288.95L87.52,286.39L130.78,252.19L133.87,249.71L167.86,219.98L170.95,216.68L195.67,192.07L198.76,188.39L204.94,180.5L208.03,177.5L235.84,142.26L238.93,137.73L263.65,102.64L266.74,97.55L288.37,62.67L291.46,57.37L303.82,34.38L306.91,28.58L310,21.75L313.09,59.32L319.27,146.39L322.36,181.71L328.54,240.76L331.63,264.67L337.81,303.52L340.9,318.92L347.08,344.02L350.17,350.58L368.71,380.36L371.8,384.51L381.07,393.63L384.16,395.97L387.25,397.81L390.34,398.6L405.79,402.08L408.88,403.15L427.42,407.66L430.51,407.9L452.14,409.72L455.23,410L479.95,411.43L483.04,411.53L517.03,412.57L520.12,412.62L619,413.2" style="vector-effect: non-scaling-stroke; fill: none; stroke: rgb(44, 160, 44); stroke-opacity: 1; stroke-width: 2px; opacity: 1;"/></g><g class="points"/><g class="text"/></g><g class="trace scatter trace0c78a9" style="stroke-miterlimit: 2; opacity: 1;"><g class="fills"/><g class="errorbars"/><g class="lines"><path class="js-line" d="M4.09,375.75L10.27,384.31L13.36,359.01L38.08,326.86L41.17,323.38L47.35,317.98L50.44,315.41L62.8,305.68L65.89,303L84.43,288.95L87.52,286.39L130.78,252.19L133.87,249.71L167.86,219.98L170.95,216.68L195.67,192.07L198.76,188.39L204.94,180.5L208.03,177.5L235.84,142.26L238.93,137.73L263.65,102.64L266.74,97.55L288.37,62.67L291.46,57.37L303.82,34.38L306.91,28.58L310,21.75L313.09,44.05L319.27,133.28L322.36,169.68L328.54,232.78L331.63,257.84L337.81,298.4L340.9,314.66L347.08,341.46L350.17,349.06L353.26,350.95L356.35,354.91L374.89,383.2L377.98,386.77L384.16,392.68L387.25,395.3L390.34,396.69L393.43,396.42L399.61,396.89L402.7,397.61L411.97,400.8L415.06,401.91L430.51,406.42L433.6,406.53L442.87,406.84L445.96,407.39L476.86,410.51L479.95,410.56L532.48,412.41L535.57,412.47L581.92,412.96L585.01,412.99L619,413.09" style="vector-effect: non-scaling-stroke; fill: none; stroke: rgb(214, 39, 40); stroke-opacity: 1; stroke-width: 2px; opacity: 1;"/></g><g class="points"/><g class="text"/></g><g class="trace scatter trace06e2d6" style="stroke-miterlimit: 2; opacity: 1;"><g class="fills"/><g class="errorbars"/><g class="lines"><path class="js-line" d="M4.09,375.75L10.27,384.31L13.36,359.01L38.08,326.86L41.17,323.38L47.35,317.98L50.44,315.41L62.8,305.68L65.89,303L84.43,288.95L87.52,286.39L130.78,252.19L133.87,249.71L167.86,219.98L170.95,216.68L195.67,192.07L198.76,188.39L204.94,180.5L208.03,177.5L235.84,142.26L238.93,137.73L263.65,102.64L266.74,97.55L288.37,62.67L291.46,57.37L303.82,34.38L306.91,28.58L310,21.75L313.09,30.65L319.27,106.64L322.36,145.16L328.54,214.42L331.63,242.59L337.81,287.17L340.9,305.42L347.08,334.23L350.17,343.86L353.26,346.92L356.35,346.12L359.44,346.89L362.53,350.65L368.71,360.97L371.8,366.51L381.07,381L384.16,384.87L390.34,391.12L393.43,392.32L405.79,391.25L408.88,392.27L415.06,394.43L418.15,396.17L430.51,402.17L433.6,402.86L439.78,403.53L442.87,403.47L452.14,404.2L455.23,404.74L467.59,406.81L470.68,407.38L483.04,408.71L486.13,408.9L498.49,409.52L501.58,409.72L557.2,412.02L560.29,412.1L619,412.7" style="vector-effect: non-scaling-stroke; fill: none; stroke: rgb(148, 103, 189); stroke-opacity: 1; stroke-width: 2px; opacity: 1;"/></g><g class="points"/><g class="text"/></g><g class="trace scatter traceec802a" style="stroke-miterlimit: 2; opacity: 1;"><g class="fills"/><g class="errorbars"/><g class="lines"><path class="js-line" d="M4.09,375.75L10.27,384.31L13.36,359.01L38.08,326.86L41.17,323.38L47.35,317.98L50.44,315.41L62.8,305.68L65.89,303L84.43,288.95L87.52,286.39L130.78,252.19L133.87,249.71L167.86,219.98L170.95,216.68L195.67,192.07L198.76,188.39L204.94,180.5L208.03,177.5L235.84,142.26L238.93,137.73L263.65,102.64L266.74,97.55L288.37,62.67L291.46,57.37L303.82,34.38L306.91,28.58L310,21.75L313.09,25.08L316.18,46.11L319.27,79.88L328.54,192.81L331.63,223.47L337.81,272.85L340.9,292.8L347.08,324.87L350.17,336.7L353.26,342.42L356.35,342.96L359.44,341.48L362.53,340.92L365.62,342.37L368.71,346.34L387.25,378.22L390.34,382.92L396.52,387.53L399.61,387.65L408.88,385.95L411.97,386.35L418.15,388.79L421.24,390.53L436.69,398.69L439.78,399.7L449.05,400.4L452.14,400.52L464.5,401.87L467.59,402.49L479.95,405.27L483.04,405.95L498.49,407.19L501.58,407.29L513.94,408.1L517.03,408.51L554.11,410.47L557.2,410.45L594.28,411.63L597.37,411.63L619,411.83" style="vector-effect: non-scaling-stroke; fill: none; stroke: rgb(140, 86, 75); stroke-opacity: 1; stroke-width: 2px; opacity: 1;"/></g><g class="points"/><g class="text"/></g></g></g><g class="overplot"/><path class="xlines-above crisp" style="fill: none;" d="M0,0"/><path class="ylines-above crisp" style="fill: none;" d="M0,0"/><g class="overlines-above"/><g class="xaxislayer-above"><g class="xtick"><text text-anchor="middle" x="0" y="473" transform="translate(61,0)" style="font-family: 'Open Sans', verdana, arial, sans-serif; font-size: 12px; fill: rgb(68, 68, 68); fill-opacity: 1; white-space: pre;">0</text></g><g class="xtick"><text text-anchor="middle" x="0" y="473" transform="translate(215.5,0)" style="font-family: 'Open Sans', verdana, arial, sans-serif; font-size: 12px; fill: rgb(68, 68, 68); fill-opacity: 1; white-space: pre;">50</text></g><g class="xtick"><text text-anchor="middle" x="0" y="473" transform="translate(370,0)" style="font-family: 'Open Sans', verdana, arial, sans-serif; font-size: 12px; fill: rgb(68, 68, 68); fill-opacity: 1; white-space: pre;">100</text></g><g class="xtick"><text text-anchor="middle" x="0" y="473" transform="translate(524.5,0)" style="font-family: 'Open Sans', verdana, arial, sans-serif; font-size: 12px; fill: rgb(68, 68, 68); fill-opacity: 1; white-space: pre;">150</text></g><g class="xtick"><text text-anchor="middle" x="0" y="473" transform="translate(679,0)" style="font-family: 'Open Sans', verdana, arial, sans-serif; font-size: 12px; fill: rgb(68, 68, 68); fill-opacity: 1; white-space: pre;">200</text></g></g><g class="yaxislayer-above"><g class="ytick"><text text-anchor="end" x="59" y="4.199999999999999" transform="translate(0,438.62)" style="font-family: 'Open Sans', verdana, arial, sans-serif; font-size: 12px; fill: rgb(68, 68, 68); fill-opacity: 1; white-space: pre;">0</text></g><g class="ytick"><text text-anchor="end" x="59" y="4.199999999999999" transform="translate(0,381.11)" style="font-family: 'Open Sans', verdana, arial, sans-serif; font-size: 12px; fill: rgb(68, 68, 68); fill-opacity: 1; white-space: pre;">200</text></g><g class="ytick"><text text-anchor="end" x="59" y="4.199999999999999" transform="translate(0,323.6)" style="font-family: 'Open Sans', verdana, arial, sans-serif; font-size: 12px; fill: rgb(68, 68, 68); fill-opacity: 1; white-space: pre;">400</text></g><g class="ytick"><text text-anchor="end" x="59" y="4.199999999999999" transform="translate(0,266.09000000000003)" style="font-family: 'Open Sans', verdana, arial, sans-serif; font-size: 12px; fill: rgb(68, 68, 68); fill-opacity: 1; white-space: pre;">600</text></g><g class="ytick"><text text-anchor="end" x="59" y="4.199999999999999" transform="translate(0,208.58)" style="font-family: 'Open Sans', verdana, arial, sans-serif; font-size: 12px; fill: rgb(68, 68, 68); fill-opacity: 1; white-space: pre;">800</text></g><g class="ytick"><text text-anchor="end" x="59" y="4.199999999999999" transform="translate(0,151.07999999999998)" style="font-family: 'Open Sans', verdana, arial, sans-serif; font-size: 12px; fill: rgb(68, 68, 68); fill-opacity: 1; white-space: pre;">1000</text></g><g class="ytick"><text text-anchor="end" x="59" y="4.199999999999999" transform="translate(0,93.57)" style="font-family: 'Open Sans', verdana, arial, sans-serif; font-size: 12px; fill: rgb(68, 68, 68); fill-opacity: 1; white-space: pre;">1200</text></g><g class="ytick"><text text-anchor="end" x="59" y="4.199999999999999" transform="translate(0,36.06)" style="font-family: 'Open Sans', verdana, arial, sans-serif; font-size: 12px; fill: rgb(68, 68, 68); fill-opacity: 1; white-space: pre;">1400</text></g></g><g class="overaxes-above"/></g></g><g class="polarlayer"/><g class="ternarylayer"/><g class="geolayer"/><g class="funnelarealayer"/><g class="pielayer"/><g class="treemaplayer"/><g class="sunburstlayer"/><g class="glimages"/><defs id="topdefs-d76724"><g class="clips"/><clipPath id="legendd76724"><rect width="117" height="140" x="0" y="0"/></clipPath></defs><g class="layer-above"><g class="imagelayer"/><g class="shapelayer"><path data-index="0" fill-rule="evenodd" d="M61,208.58H679V64.81H61Z" clip-path="url('#clipd76724xy')" style="opacity: 0.3; stroke: rgb(0, 0, 255); stroke-opacity: 1; fill: rgb(0, 0, 255); fill-opacity: 1; stroke-width: 2px;"/></g></g><g class="infolayer"><g class="legend" pointer-events="all" transform="translate(91, 46.750000000000014)"><rect class="bg" shape-rendering="crispEdges" style="stroke: rgb(68, 68, 68); stroke-opacity: 1; fill: rgb(226, 226, 226); fill-opacity: 1; stroke-width: 0px;" width="117" height="140" x="0" y="0"/><g class="scrollbox" transform="translate(0, 0)" clip-path="url('#legendd76724')"><text class="legendtitletext user-select-none" text-anchor="start" x="2" y="15.600000000000001" style="font-family: 'Open Sans', verdana, arial, sans-serif; font-size: 12px; fill: rgb(68, 68, 68); fill-opacity: 1; white-space: pre;"><tspan style="font-weight:bold"> Identification Time </tspan></text><g class="groups"><g class="traces" transform="translate(0, 30.1)" style="opacity: 1;"><text class="legendtext user-select-none" text-anchor="start" x="40" y="4.680000000000001" style="font-family: 'Open Sans', verdana, arial, sans-serif; font-size: 12px; fill: rgb(68, 68, 68); fill-opacity: 1; white-space: pre;">0 Months</text><g class="layers" style="opacity: 1;"><g class="legendfill"/><g class="legendlines"><path class="js-line" d="M5,0h30" style="fill: none; stroke: rgb(31, 119, 180); stroke-opacity: 1; stroke-width: 2px;"/></g><g class="legendsymbols"><g class="legendpoints"/></g></g><rect class="legendtoggle" pointer-events="all" x="0" y="-9.5" width="98.046875" height="19" style="cursor: pointer; fill: rgb(0, 0, 0); fill-opacity: 0;"/></g><g class="traces" transform="translate(0, 49.1)" style="opacity: 1;"><text class="legendtext user-select-none" text-anchor="start" x="40" y="4.680000000000001" style="font-family: 'Open Sans', verdana, arial, sans-serif; font-size: 12px; fill: rgb(68, 68, 68); fill-opacity: 1; white-space: pre;">3 Months</text><g class="layers" style="opacity: 1;"><g class="legendfill"/><g class="legendlines"><path class="js-line" d="M5,0h30" style="fill: none; stroke: rgb(255, 127, 14); stroke-opacity: 1; stroke-width: 2px;"/></g><g class="legendsymbols"><g class="legendpoints"/></g></g><rect class="legendtoggle" pointer-events="all" x="0" y="-9.5" width="98.046875" height="19" style="cursor: pointer; fill: rgb(0, 0, 0); fill-opacity: 0;"/></g><g class="traces" transform="translate(0, 68.1)" style="opacity: 1;"><text class="legendtext user-select-none" text-anchor="start" x="40" y="4.680000000000001" style="font-family: 'Open Sans', verdana, arial, sans-serif; font-size: 12px; fill: rgb(68, 68, 68); fill-opacity: 1; white-space: pre;">6 Months</text><g class="layers" style="opacity: 1;"><g class="legendfill"/><g class="legendlines"><path class="js-line" d="M5,0h30" style="fill: none; stroke: rgb(44, 160, 44); stroke-opacity: 1; stroke-width: 2px;"/></g><g class="legendsymbols"><g class="legendpoints"/></g></g><rect class="legendtoggle" pointer-events="all" x="0" y="-9.5" width="98.046875" height="19" style="cursor: pointer; fill: rgb(0, 0, 0); fill-opacity: 0;"/></g><g class="traces" transform="translate(0, 87.1)" style="opacity: 1;"><text class="legendtext user-select-none" text-anchor="start" x="40" y="4.680000000000001" style="font-family: 'Open Sans', verdana, arial, sans-serif; font-size: 12px; fill: rgb(68, 68, 68); fill-opacity: 1; white-space: pre;">12 Months</text><g class="layers" style="opacity: 1;"><g class="legendfill"/><g class="legendlines"><path class="js-line" d="M5,0h30" style="fill: none; stroke: rgb(214, 39, 40); stroke-opacity: 1; stroke-width: 2px;"/></g><g class="legendsymbols"><g class="legendpoints"/></g></g><rect class="legendtoggle" pointer-events="all" x="0" y="-9.5" width="98.046875" height="19" style="cursor: pointer; fill: rgb(0, 0, 0); fill-opacity: 0;"/></g><g class="traces" transform="translate(0, 106.1)" style="opacity: 1;"><text class="legendtext user-select-none" text-anchor="start" x="40" y="4.680000000000001" style="font-family: 'Open Sans', verdana, arial, sans-serif; font-size: 12px; fill: rgb(68, 68, 68); fill-opacity: 1; white-space: pre;">24 Months</text><g class="layers" style="opacity: 1;"><g class="legendfill"/><g class="legendlines"><path class="js-line" d="M5,0h30" style="fill: none; stroke: rgb(148, 103, 189); stroke-opacity: 1; stroke-width: 2px;"/></g><g class="legendsymbols"><g class="legendpoints"/></g></g><rect class="legendtoggle" pointer-events="all" x="0" y="-9.5" width="98.046875" height="19" style="cursor: pointer; fill: rgb(0, 0, 0); fill-opacity: 0;"/></g><g class="traces" transform="translate(0, 125.1)" style="opacity: 1;"><text class="legendtext user-select-none" text-anchor="start" x="40" y="4.680000000000001" style="font-family: 'Open Sans', verdana, arial, sans-serif; font-size: 12px; fill: rgb(68, 68, 68); fill-opacity: 1; white-space: pre;">36 Months</text><g class="layers" style="opacity: 1;"><g class="legendfill"/><g class="legendlines"><path class="js-line" d="M5,0h30" style="fill: none; stroke: rgb(140, 86, 75); stroke-opacity: 1; stroke-width: 2px;"/></g><g class="legendsymbols"><g class="legendpoints"/></g></g><rect class="legendtoggle" pointer-events="all" x="0" y="-9.5" width="98.046875" height="19" style="cursor: pointer; fill: rgb(0, 0, 0); fill-opacity: 0;"/></g></g></g><rect class="scrollbar" rx="20" ry="3" width="0" height="0" style="fill: rgb(128, 139, 164); fill-opacity: 1;" x="0" y="0"/></g><g class="g-gtitle"><text class="gtitle" x="350" y="12.5" text-anchor="middle" dy="0em" style="font-family: 'Open Sans', verdana, arial, sans-serif; font-size: 17px; fill: rgb(68, 68, 68); opacity: 1; font-weight: normal; white-space: pre;"><tspan style="font-weight:bold"> Leprosy Prevalence - Immunity Vaccine 0.99, Treatment 95% </tspan></text></g><g class="g-xtitle" transform="translate(0,-15)"><text class="xtitle" x="370" y="512" text-anchor="middle" style="font-family: 'Open Sans', verdana, arial, sans-serif; font-size: 14px; fill: rgb(68, 68, 68); opacity: 1; font-weight: normal; white-space: pre;">Time(Years)</text></g><g class="g-ytitle"><text class="ytitle" transform="rotate(-90,22,242.5)" x="22" y="242.5" text-anchor="middle" style="font-family: 'Open Sans', verdana, arial, sans-serif; font-size: 14px; fill: rgb(68, 68, 68); opacity: 1; font-weight: normal; white-space: pre;">Number of infectiuos individuals</text></g></g></svg>