<svg class="main-svg" xmlns="http://www.w3.org/2000/svg" xmlns:xlink="http://www.w3.org/1999/xlink" width="700" height="500" style="" viewBox="0 0 700 500"><rect x="0" y="0" width="700" height="500" style="fill: rgb(255, 255, 255); fill-opacity: 1;"/><defs id="defs-3e2f3b"><g class="clips"><clipPath id="clip3e2f3bxyplot" class="plotclip"><rect width="620" height="435"/></clipPath><clipPath class="axesclip" id="clip3e2f3bx"><rect x="60" y="0" width="620" height="500"/></clipPath><clipPath class="axesclip" id="clip3e2f3by"><rect x="0" y="25" width="700" height="435"/></clipPath><clipPath class="axesclip" id="clip3e2f3bxy"><rect x="60" y="25" width="620" height="435"/></clipPath></g><g class="gradients"/></defs><g class="bglayer"/><g class="layer-below"><g class="imagelayer"/><g class="shapelayer"/></g><g class="cartesianlayer"><g class="subplot xy"><g class="layer-subplot"><g class="shapelayer"/><g class="imagelayer"/></g><g class="gridlayer"><g class="x"><path class="xgrid crisp" transform="translate(215.5,0)" d="M0,25v435" style="stroke: rgb(238, 238, 238); stroke-opacity: 1; stroke-width: 1px;"/><path class="xgrid crisp" transform="translate(370,0)" d="M0,25v435" style="stroke: rgb(238, 238, 238); stroke-opacity: 1; stroke-width: 1px;"/><path class="xgrid crisp" transform="translate(524.5,0)" d="M0,25v435" style="stroke: rgb(238, 238, 238); stroke-opacity: 1; stroke-width: 1px;"/></g><g class="y"><path class="ygrid crisp" transform="translate(0,407.87)" d="M60,0h620" style="stroke: rgb(238, 238, 238); stroke-opacity: 1; stroke-width: 1px;"/><path class="ygrid crisp" transform="translate(0,345.93)" d="M60,0h620" style="stroke: rgb(238, 238, 238); stroke-opacity: 1; stroke-width: 1px;"/><path class="ygrid crisp" transform="translate(0,283.98)" d="M60,0h620" style="stroke: rgb(238, 238, 238); stroke-opacity: 1; stroke-width: 1px;"/><path class="ygrid crisp" transform="translate(0,222.04)" d="M60,0h620" style="stroke: rgb(238, 238, 238); stroke-opacity: 1; stroke-width: 1px;"/><path class="ygrid crisp" transform="translate(0,160.09)" d="M60,0h620" style="stroke: rgb(238, 238, 238); stroke-opacity: 1; stroke-width: 1px;"/><path class="ygrid crisp" transform="translate(0,98.15)" d="M60,0h620" style="stroke: rgb(238, 238, 238); stroke-opacity: 1; stroke-width: 1px;"/><path class="ygrid crisp" transform="translate(0,36.2)" d="M60,0h620" style="stroke: rgb(238, 238, 238); stroke-opacity: 1; stroke-width: 1px;"/></g></g><g class="zerolinelayer"><path class="xzl zl crisp" transform="translate(61,0)" d="M0,25v435" style="stroke: rgb(68, 68, 68); stroke-opacity: 1; stroke-width: 1px;"/></g><path class="xlines-below"/><path class="ylines-below"/><g class="overlines-below"/><g class="xaxislayer-below"/><g class="yaxislayer-below"/><g class="overaxes-below"/><g class="plot" transform="translate(60, 25)" clip-path="url('#clip3e2f3bxyplot')"><g class="scatterlayer mlayer"><g class="trace scatter trace6048c2" style="stroke-miterlimit: 2; opacity: 1;"><g class="fills"/><g class="errorbars"/><g class="lines"><path class="js-line" d="M4.09,404.03L10.27,413.25L13.36,386L38.08,351.37L41.17,347.62L47.35,341.8L50.44,339.03L59.71,331.19L62.8,328.55L75.16,317.97L78.25,315.56L93.7,302.7L96.79,299.95L124.6,276.55L127.69,273.79L164.77,239.96L167.86,236.24L180.22,223.14L183.31,219.98L192.58,210.19L195.67,206.18L223.48,169.64L226.57,165.21L245.11,138.57L248.2,133.87L257.47,119.61L260.56,114.72L272.92,94.27L276.01,88.96L282.19,78.54L285.28,72.47L294.55,55.27L297.64,48.2L306.91,30.08L310,22.72L319.27,97.71L322.36,118.93L334.72,192.84L337.81,208.86L347.08,249.22L350.17,258.23L353.26,263.94L356.35,267.89L368.71,281.65L371.8,285.38L381.07,296.82L384.16,301.09L390.34,307.44L393.43,309.95L418.15,324.13L421.24,325.9L430.51,330.7L433.6,331.92L455.23,339.83L458.32,340.66L479.95,348.16L483.04,348.61L501.58,352.21L504.67,352.63L526.3,356.03L529.39,356.36L544.84,357.44L547.93,358.04L554.11,358.53L557.2,358.77L569.56,359.29L572.65,359.67L585.01,359.9L588.1,359.76L603.55,360.45L606.64,360.19L612.82,360.81L615.91,360.8L619,360.95" style="vector-effect: non-scaling-stroke; fill: none; stroke: rgb(31, 119, 180); stroke-opacity: 1; stroke-width: 2px; opacity: 1;"/></g><g class="points"/><g class="text"/></g><g class="trace scatter trace234d72" style="stroke-miterlimit: 2; opacity: 1;"><g class="fills"/><g class="errorbars"/><g class="lines"><path class="js-line" d="M4.09,404.03L10.27,413.25L13.36,386L38.08,351.37L41.17,347.62L47.35,341.8L50.44,339.03L59.71,331.19L62.8,328.55L75.16,317.97L78.25,315.56L93.7,302.7L96.79,299.95L124.6,276.55L127.69,273.79L164.77,239.96L167.86,236.24L180.22,223.14L183.31,219.98L192.58,210.19L195.67,206.18L223.48,169.64L226.57,165.21L245.11,138.57L248.2,133.87L257.47,119.61L260.56,114.72L272.92,94.27L276.01,88.96L282.19,78.54L285.28,72.47L294.55,55.27L297.64,48.2L306.91,30.08L310,22.72L325.45,134.47L328.54,153.12L337.81,203.05L340.9,217.57L347.08,244.5L350.17,253.38L356.35,263.55L359.44,266.89L390.34,301.64L393.43,303.96L399.61,308.01L402.7,309.68L415.06,317.52L418.15,319.17L430.51,324.59L433.6,325.92L442.87,330.22L445.96,331.45L449.05,333.16L452.14,333.68L458.32,335.67L461.41,336.73L470.68,339.71L473.77,340.03L483.04,341.55L486.13,342.04L513.94,346.57L517.03,346.7L526.3,348.26L529.39,348.32L551.02,349.87L554.11,350.42L585.01,351.68L588.1,351.5L603.55,351.39L606.64,351.35L619,350.55" style="vector-effect: non-scaling-stroke; fill: none; stroke: rgb(255, 127, 14); stroke-opacity: 1; stroke-width: 2px; opacity: 1;"/></g><g class="points"/><g class="text"/></g><g class="trace scatter tracecce993" style="stroke-miterlimit: 2; opacity: 1;"><g class="fills"/><g class="errorbars"/><g class="lines"><path class="js-line" d="M4.09,404.03L10.27,413.25L13.36,386L38.08,351.37L41.17,347.62L47.35,341.8L50.44,339.03L59.71,331.19L62.8,328.55L75.16,317.97L78.25,315.56L93.7,302.7L96.79,299.95L124.6,276.55L127.69,273.79L164.77,239.96L167.86,236.24L180.22,223.14L183.31,219.98L192.58,210.19L195.67,206.18L223.48,169.64L226.57,165.21L245.11,138.57L248.2,133.87L257.47,119.61L260.56,114.72L272.92,94.27L276.01,88.96L282.19,78.54L285.28,72.47L294.55,55.27L297.64,48.2L306.91,30.08L310,22.72L313.09,41.11L316.18,65.9L325.45,128.9L328.54,147.39L337.81,197.95L340.9,213.04L347.08,239.64L350.17,248.82L356.35,258.33L359.44,262.07L368.71,273L371.8,276.75L384.16,289.82L387.25,293.55L393.43,298.59L396.52,300.81L408.88,308.06L411.97,309.57L430.51,318.65L433.6,319.95L439.78,321.93L442.87,323.23L449.05,325.44L452.14,325.92L458.32,328.07L461.41,329.3L473.77,332.3L476.86,333.14L486.13,334.76L489.22,335.24L495.4,336.16L498.49,336.23L513.94,338.75L517.03,339.06L526.3,340.66L529.39,340.51L535.57,340.85L538.66,341.21L547.93,341.12L551.02,341.24L557.2,341.56L560.29,341.95L591.19,341.84L594.28,341.52L619,339.7" style="vector-effect: non-scaling-stroke; fill: none; stroke: rgb(44, 160, 44); stroke-opacity: 1; stroke-width: 2px; opacity: 1;"/></g><g class="points"/><g class="text"/></g><g class="trace scatter tracebdbe2b" style="stroke-miterlimit: 2; opacity: 1;"><g class="fills"/><g class="errorbars"/><g class="lines"><path class="js-line" d="M4.09,404.03L10.27,413.25L13.36,386L38.08,351.37L41.17,347.62L47.35,341.8L50.44,339.03L59.71,331.19L62.8,328.55L75.16,317.97L78.25,315.56L93.7,302.7L96.79,299.95L124.6,276.55L127.69,273.79L164.77,239.96L167.86,236.24L180.22,223.14L183.31,219.98L192.58,210.19L195.67,206.18L223.48,169.64L226.57,165.21L245.11,138.57L248.2,133.87L257.47,119.61L260.56,114.72L272.92,94.27L276.01,88.96L282.19,78.54L285.28,72.47L294.55,55.27L297.64,48.2L306.91,30.08L310,22.72L313.09,33L316.18,57.84L322.36,101.53L325.45,121.68L334.72,174.41L337.81,189.97L347.08,231.3L350.17,241.89L356.35,250.98L359.44,254.38L377.98,272.84L381.07,276.96L393.43,288.9L396.52,290.73L408.88,298.05L411.97,299.42L421.24,303.48L424.33,305.16L436.69,310.5L439.78,311.35L445.96,313.72L449.05,314.69L461.41,317.84L464.5,318.5L479.95,319.98L483.04,320.29L486.13,321L489.22,320.8L498.49,321.68L501.58,322.51L510.85,323.48L513.94,323.76L517.03,323.53L520.12,324.1L541.75,323.3L544.84,322.96L551.02,323L554.11,322.83L569.56,322.51L572.65,322.44L578.83,321.9L581.92,321.65L594.28,320.49L597.37,319.74L603.55,319.59L606.64,318.93L619,317.13" style="vector-effect: non-scaling-stroke; fill: none; stroke: rgb(214, 39, 40); stroke-opacity: 1; stroke-width: 2px; opacity: 1;"/></g><g class="points"/><g class="text"/></g><g class="trace scatter trace004541" style="stroke-miterlimit: 2; opacity: 1;"><g class="fills"/><g class="errorbars"/><g class="lines"><path class="js-line" d="M4.09,404.03L10.27,413.25L13.36,386L38.08,351.37L41.17,347.62L47.35,341.8L50.44,339.03L59.71,331.19L62.8,328.55L75.16,317.97L78.25,315.56L93.7,302.7L96.79,299.95L124.6,276.55L127.69,273.79L164.77,239.96L167.86,236.24L180.22,223.14L183.31,219.98L192.58,210.19L195.67,206.18L223.48,169.64L226.57,165.21L245.11,138.57L248.2,133.87L257.47,119.61L260.56,114.72L272.92,94.27L276.01,88.96L282.19,78.54L285.28,72.47L294.55,55.27L297.64,48.2L306.91,30.08L310,22.72L313.09,24.66L316.18,40.62L325.45,101.14L328.54,119.91L340.9,185.44L343.99,199.3L350.17,223.45L353.26,230.37L356.35,234.01L359.44,236.48L377.98,250.21L381.07,253.53L396.52,267.81L399.61,269.14L408.88,272.63L411.97,273.66L439.78,282.2L442.87,282.82L445.96,283.2L449.05,284.37L483.04,286.91L486.13,286.57L492.31,286.99L495.4,286.23L501.58,286.9L504.67,286.99L523.21,286.17L526.3,285.89L532.48,285.44L535.57,284.48L541.75,284.17L544.84,283.24L551.02,282.12L554.11,281.62L566.47,280.04L569.56,279.32L575.74,277.5L578.83,276.69L585.01,275.81L588.1,275.22L594.28,273.43L597.37,272.94L603.55,271.04L606.64,270.02L612.82,268.32L615.91,268.47L619,267.63" style="vector-effect: non-scaling-stroke; fill: none; stroke: rgb(148, 103, 189); stroke-opacity: 1; stroke-width: 2px; opacity: 1;"/></g><g class="points"/><g class="text"/></g><g class="trace scatter trace997f74" style="stroke-miterlimit: 2; opacity: 1;"><g class="fills"/><g class="errorbars"/><g class="lines"><path class="js-line" d="M4.09,404.03L10.27,413.25L13.36,386L38.08,351.37L41.17,347.62L47.35,341.8L50.44,339.03L59.71,331.19L62.8,328.55L75.16,317.97L78.25,315.56L93.7,302.7L96.79,299.95L124.6,276.55L127.69,273.79L164.77,239.96L167.86,236.24L180.22,223.14L183.31,219.98L192.58,210.19L195.67,206.18L223.48,169.64L226.57,165.21L245.11,138.57L248.2,133.87L257.47,119.61L260.56,114.72L272.92,94.27L276.01,88.96L282.19,78.54L285.28,72.47L294.55,55.27L297.64,48.2L306.91,30.08L310,22.72L313.09,21.75L316.18,30.09L322.36,66.25L325.45,85.48L334.72,136.25L337.81,151.5L347.08,192.87L350.17,204.61L353.26,213.16L356.35,218.05L365.62,222.15L368.71,224.81L371.8,227.29L374.89,228.65L381.07,233.62L384.16,236.26L399.61,246.58L402.7,247.94L405.79,249.29L408.88,249.6L415.06,251.15L418.15,251.41L430.51,252.79L433.6,253.6L442.87,255.62L445.96,255.18L473.77,256.97L476.86,256.4L492.31,254.51L495.4,253.99L504.67,251.86L507.76,251.69L513.94,249.17L517.03,248.58L526.3,246.3L529.39,245.61L535.57,244.33L538.66,243.8L544.84,242.45L547.93,240.56L563.38,234.45L566.47,233.77L572.65,230.97L575.74,230.35L585.01,224.97L588.1,223.83L591.19,223.36L594.28,221.9L619,210.29" style="vector-effect: non-scaling-stroke; fill: none; stroke: rgb(140, 86, 75); stroke-opacity: 1; stroke-width: 2px; opacity: 1;"/></g><g class="points"/><g class="text"/></g></g></g><g class="overplot"/><path class="xlines-above crisp" style="fill: none;" d="M0,0"/><path class="ylines-above crisp" style="fill: none;" d="M0,0"/><g class="overlines-above"/><g class="xaxislayer-above"><g class="xtick"><text text-anchor="middle" x="0" y="473" transform="translate(61,0)" style="font-family: 'Open Sans', verdana, arial, sans-serif; font-size: 12px; fill: rgb(68, 68, 68); fill-opacity: 1; white-space: pre;">0</text></g><g class="xtick"><text text-anchor="middle" x="0" y="473" transform="translate(215.5,0)" style="font-family: 'Open Sans', verdana, arial, sans-serif; font-size: 12px; fill: rgb(68, 68, 68); fill-opacity: 1; white-space: pre;">50</text></g><g class="xtick"><text text-anchor="middle" x="0" y="473" transform="translate(370,0)" style="font-family: 'Open Sans', verdana, arial, sans-serif; font-size: 12px; fill: rgb(68, 68, 68); fill-opacity: 1; white-space: pre;">100</text></g><g class="xtick"><text text-anchor="middle" x="0" y="473" transform="translate(524.5,0)" style="font-family: 'Open Sans', verdana, arial, sans-serif; font-size: 12px; fill: rgb(68, 68, 68); fill-opacity: 1; white-space: pre;">150</text></g><g class="xtick"><text text-anchor="middle" x="0" y="473" transform="translate(679,0)" style="font-family: 'Open Sans', verdana, arial, sans-serif; font-size: 12px; fill: rgb(68, 68, 68); fill-opacity: 1; white-space: pre;">200</text></g></g><g class="yaxislayer-above"><g class="ytick"><text text-anchor="end" x="59" y="4.199999999999999" transform="translate(0,407.87)" style="font-family: 'Open Sans', verdana, arial, sans-serif; font-size: 12px; fill: rgb(68, 68, 68); fill-opacity: 1; white-space: pre;">200</text></g><g class="ytick"><text text-anchor="end" x="59" y="4.199999999999999" transform="translate(0,345.93)" style="font-family: 'Open Sans', verdana, arial, sans-serif; font-size: 12px; fill: rgb(68, 68, 68); fill-opacity: 1; white-space: pre;">400</text></g><g class="ytick"><text text-anchor="end" x="59" y="4.199999999999999" transform="translate(0,283.98)" style="font-family: 'Open Sans', verdana, arial, sans-serif; font-size: 12px; fill: rgb(68, 68, 68); fill-opacity: 1; white-space: pre;">600</text></g><g class="ytick"><text text-anchor="end" x="59" y="4.199999999999999" transform="translate(0,222.04)" style="font-family: 'Open Sans', verdana, arial, sans-serif; font-size: 12px; fill: rgb(68, 68, 68); fill-opacity: 1; white-space: pre;">800</text></g><g class="ytick"><text text-anchor="end" x="59" y="4.199999999999999" transform="translate(0,160.09)" style="font-family: 'Open Sans', verdana, arial, sans-serif; font-size: 12px; fill: rgb(68, 68, 68); fill-opacity: 1; white-space: pre;">1000</text></g><g class="ytick"><text text-anchor="end" x="59" y="4.199999999999999" transform="translate(0,98.15)" style="font-family: 'Open Sans', verdana, arial, sans-serif; font-size: 12px; fill: rgb(68, 68, 68); fill-opacity: 1; white-space: pre;">1200</text></g><g class="ytick"><text text-anchor="end" x="59" y="4.199999999999999" transform="translate(0,36.2)" style="font-family: 'Open Sans', verdana, arial, sans-serif; font-size: 12px; fill: rgb(68, 68, 68); fill-opacity: 1; white-space: pre;">1400</text></g></g><g class="overaxes-above"/></g></g><g class="polarlayer"/><g class="ternarylayer"/><g class="geolayer"/><g class="funnelarealayer"/><g class="pielayer"/><g class="treemaplayer"/><g class="sunburstlayer"/><g class="glimages"/><defs id="topdefs-3e2f3b"><g class="clips"/><clipPath id="legend3e2f3b"><rect width="117" height="140" x="0" y="0"/></clipPath></defs><g class="layer-above"><g class="imagelayer"/><g class="shapelayer"><path data-index="0" fill-rule="evenodd" d="M61,222.04H679V67.18H61Z" clip-path="url('#clip3e2f3bxy')" style="opacity: 0.3; stroke: rgb(0, 0, 255); stroke-opacity: 1; fill: rgb(0, 0, 255); fill-opacity: 1; stroke-width: 2px;"/></g></g><g class="infolayer"><g class="legend" pointer-events="all" transform="translate(91, 46.750000000000014)"><rect class="bg" shape-rendering="crispEdges" style="stroke: rgb(68, 68, 68); stroke-opacity: 1; fill: rgb(226, 226, 226); fill-opacity: 1; stroke-width: 0px;" width="117" height="140" x="0" y="0"/><g class="scrollbox" transform="translate(0, 0)" clip-path="url('#legend3e2f3b')"><text class="legendtitletext user-select-none" text-anchor="start" x="2" y="15.600000000000001" style="font-family: 'Open Sans', verdana, arial, sans-serif; font-size: 12px; fill: rgb(68, 68, 68); fill-opacity: 1; white-space: pre;"><tspan style="font-weight:bold"> Identification Time </tspan></text><g class="groups"><g class="traces" transform="translate(0, 30.1)" style="opacity: 1;"><text class="legendtext user-select-none" text-anchor="start" x="40" y="4.680000000000001" style="font-family: 'Open Sans', verdana, arial, sans-serif; font-size: 12px; fill: rgb(68, 68, 68); fill-opacity: 1; white-space: pre;">0 Months</text><g class="layers" style="opacity: 1;"><g class="legendfill"/><g class="legendlines"><path class="js-line" d="M5,0h30" style="fill: none; stroke: rgb(31, 119, 180); stroke-opacity: 1; stroke-width: 2px;"/></g><g class="legendsymbols"><g class="legendpoints"/></g></g><rect class="legendtoggle" pointer-events="all" x="0" y="-9.5" width="98.046875" height="19" style="cursor: pointer; fill: rgb(0, 0, 0); fill-opacity: 0;"/></g><g class="traces" transform="translate(0, 49.1)" style="opacity: 1;"><text class="legendtext user-select-none" text-anchor="start" x="40" y="4.680000000000001" style="font-family: 'Open Sans', verdana, arial, sans-serif; font-size: 12px; fill: rgb(68, 68, 68); fill-opacity: 1; white-space: pre;">3 Months</text><g class="layers" style="opacity: 1;"><g class="legendfill"/><g class="legendlines"><path class="js-line" d="M5,0h30" style="fill: none; stroke: rgb(255, 127, 14); stroke-opacity: 1; stroke-width: 2px;"/></g><g class="legendsymbols"><g class="legendpoints"/></g></g><rect class="legendtoggle" pointer-events="all" x="0" y="-9.5" width="98.046875" height="19" style="cursor: pointer; fill: rgb(0, 0, 0); fill-opacity: 0;"/></g><g class="traces" transform="translate(0, 68.1)" style="opacity: 1;"><text class="legendtext user-select-none" text-anchor="start" x="40" y="4.680000000000001" style="font-family: 'Open Sans', verdana, arial, sans-serif; font-size: 12px; fill: rgb(68, 68, 68); fill-opacity: 1; white-space: pre;">6 Months</text><g class="layers" style="opacity: 1;"><g class="legendfill"/><g class="legendlines"><path class="js-line" d="M5,0h30" style="fill: none; stroke: rgb(44, 160, 44); stroke-opacity: 1; stroke-width: 2px;"/></g><g class="legendsymbols"><g class="legendpoints"/></g></g><rect class="legendtoggle" pointer-events="all" x="0" y="-9.5" width="98.046875" height="19" style="cursor: pointer; fill: rgb(0, 0, 0); fill-opacity: 0;"/></g><g class="traces" transform="translate(0, 87.1)" style="opacity: 1;"><text class="legendtext user-select-none" text-anchor="start" x="40" y="4.680000000000001" style="font-family: 'Open Sans', verdana, arial, sans-serif; font-size: 12px; fill: rgb(68, 68, 68); fill-opacity: 1; white-space: pre;">12 Months</text><g class="layers" style="opacity: 1;"><g class="legendfill"/><g class="legendlines"><path class="js-line" d="M5,0h30" style="fill: none; stroke: rgb(214, 39, 40); stroke-opacity: 1; stroke-width: 2px;"/></g><g class="legendsymbols"><g class="legendpoints"/></g></g><rect class="legendtoggle" pointer-events="all" x="0" y="-9.5" width="98.046875" height="19" style="cursor: pointer; fill: rgb(0, 0, 0); fill-opacity: 0;"/></g><g class="traces" transform="translate(0, 106.1)" style="opacity: 1;"><text class="legendtext user-select-none" text-anchor="start" x="40" y="4.680000000000001" style="font-family: 'Open Sans', verdana, arial, sans-serif; font-size: 12px; fill: rgb(68, 68, 68); fill-opacity: 1; white-space: pre;">24 Months</text><g class="layers" style="opacity: 1;"><g class="legendfill"/><g class="legendlines"><path class="js-line" d="M5,0h30" style="fill: none; stroke: rgb(148, 103, 189); stroke-opacity: 1; stroke-width: 2px;"/></g><g class="legendsymbols"><g class="legendpoints"/></g></g><rect class="legendtoggle" pointer-events="all" x="0" y="-9.5" width="98.046875" height="19" style="cursor: pointer; fill: rgb(0, 0, 0); fill-opacity: 0;"/></g><g class="traces" transform="translate(0, 125.1)" style="opacity: 1;"><text class="legendtext user-select-none" text-anchor="start" x="40" y="4.680000000000001" style="font-family: 'Open Sans', verdana, arial, sans-serif; font-size: 12px; fill: rgb(68, 68, 68); fill-opacity: 1; white-space: pre;">36 Months</text><g class="layers" style="opacity: 1;"><g class="legendfill"/><g class="legendlines"><path class="js-line" d="M5,0h30" style="fill: none; stroke: rgb(140, 86, 75); stroke-opacity: 1; stroke-width: 2px;"/></g><g class="legendsymbols"><g class="legendpoints"/></g></g><rect class="legendtoggle" pointer-events="all" x="0" y="-9.5" width="98.046875" height="19" style="cursor: pointer; fill: rgb(0, 0, 0); fill-opacity: 0;"/></g></g></g><rect class="scrollbar" rx="20" ry="3" width="0" height="0" style="fill: rgb(128, 139, 164); fill-opacity: 1;" x="0" y="0"/></g><g class="g-gtitle"><text class="gtitle" x="350" y="12.5" text-anchor="middle" dy="0em" style="font-family: 'Open Sans', verdana, arial, sans-serif; font-size: 17px; fill: rgb(68, 68, 68); opacity: 1; font-weight: normal; white-space: pre;"><tspan style="font-weight:bold"> Leprosy Prevalence - Immunity Vaccine 0.0, Treatment 50% </tspan></text></g><g class="g-xtitle" transform="translate(0,-15)"><text class="xtitle" x="370" y="512" text-anchor="middle" style="font-family: 'Open Sans', verdana, arial, sans-serif; font-size: 14px; fill: rgb(68, 68, 68); opacity: 1; font-weight: normal; white-space: pre;">Time(Years)</text></g><g class="g-ytitle"><text class="ytitle" transform="rotate(-90,22,242.5)" x="22" y="242.5" text-anchor="middle" style="font-family: 'Open Sans', verdana, arial, sans-serif; font-size: 14px; fill: rgb(68, 68, 68); opacity: 1; font-weight: normal; white-space: pre;">Number of infectiuos individuals</text></g></g></svg>