<svg class="main-svg" xmlns="http://www.w3.org/2000/svg" xmlns:xlink="http://www.w3.org/1999/xlink" width="700" height="500" style="" viewBox="0 0 700 500"><rect x="0" y="0" width="700" height="500" style="fill: rgb(255, 255, 255); fill-opacity: 1;"/><defs id="defs-e18fa7"><g class="clips"><clipPath id="clipe18fa7xyplot" class="plotclip"><rect width="620" height="435"/></clipPath><clipPath class="axesclip" id="clipe18fa7x"><rect x="60" y="0" width="620" height="500"/></clipPath><clipPath class="axesclip" id="clipe18fa7y"><rect x="0" y="25" width="700" height="435"/></clipPath><clipPath class="axesclip" id="clipe18fa7xy"><rect x="60" y="25" width="620" height="435"/></clipPath></g><g class="gradients"/></defs><g class="bglayer"/><g class="layer-below"><g class="imagelayer"/><g class="shapelayer"/></g><g class="cartesianlayer"><g class="subplot xy"><g class="layer-subplot"><g class="shapelayer"/><g class="imagelayer"/></g><g class="gridlayer"><g class="x"><path class="xgrid crisp" transform="translate(215.5,0)" d="M0,25v435" style="stroke: rgb(238, 238, 238); stroke-opacity: 1; stroke-width: 1px;"/><path class="xgrid crisp" transform="translate(370,0)" d="M0,25v435" style="stroke: rgb(238, 238, 238); stroke-opacity: 1; stroke-width: 1px;"/><path class="xgrid crisp" transform="translate(524.5,0)" d="M0,25v435" style="stroke: rgb(238, 238, 238); stroke-opacity: 1; stroke-width: 1px;"/></g><g class="y"><path class="ygrid crisp" transform="translate(0,407.87)" d="M60,0h620" style="stroke: rgb(238, 238, 238); stroke-opacity: 1; stroke-width: 1px;"/><path class="ygrid crisp" transform="translate(0,345.93)" d="M60,0h620" style="stroke: rgb(238, 238, 238); stroke-opacity: 1; stroke-width: 1px;"/><path class="ygrid crisp" transform="translate(0,283.98)" d="M60,0h620" style="stroke: rgb(238, 238, 238); stroke-opacity: 1; stroke-width: 1px;"/><path class="ygrid crisp" transform="translate(0,222.04)" d="M60,0h620" style="stroke: rgb(238, 238, 238); stroke-opacity: 1; stroke-width: 1px;"/><path class="ygrid crisp" transform="translate(0,160.09)" d="M60,0h620" style="stroke: rgb(238, 238, 238); stroke-opacity: 1; stroke-width: 1px;"/><path class="ygrid crisp" transform="translate(0,98.15)" d="M60,0h620" style="stroke: rgb(238, 238, 238); stroke-opacity: 1; stroke-width: 1px;"/><path class="ygrid crisp" transform="translate(0,36.2)" d="M60,0h620" style="stroke: rgb(238, 238, 238); stroke-opacity: 1; stroke-width: 1px;"/></g></g><g class="zerolinelayer"><path class="xzl zl crisp" transform="translate(61,0)" d="M0,25v435" style="stroke: rgb(68, 68, 68); stroke-opacity: 1; stroke-width: 1px;"/></g><path class="xlines-below"/><path class="ylines-below"/><g class="overlines-below"/><g class="xaxislayer-below"/><g class="yaxislayer-below"/><g class="overaxes-below"/><g class="plot" transform="translate(60, 25)" clip-path="url('#clipe18fa7xyplot')"><g class="scatterlayer mlayer"><g class="trace scatter tracebe703f" style="stroke-miterlimit: 2; opacity: 1;"><g class="fills"/><g class="errorbars"/><g class="lines"><path class="js-line" d="M4.09,404.03L10.27,413.25L13.36,386L38.08,351.37L41.17,347.62L47.35,341.8L50.44,339.03L59.71,331.19L62.8,328.55L75.16,317.97L78.25,315.56L93.7,302.7L96.79,299.95L124.6,276.55L127.69,273.79L164.77,239.96L167.86,236.24L180.22,223.14L183.31,219.98L192.58,210.19L195.67,206.18L223.48,169.64L226.57,165.21L245.11,138.57L248.2,133.87L257.47,119.61L260.56,114.72L272.92,94.27L276.01,88.96L282.19,78.54L285.28,72.47L294.55,55.27L297.64,48.2L306.91,30.08L310,22.72L319.27,98.27L322.36,118.86L331.63,179.15L334.72,196.31L340.9,229.31L343.99,244.01L347.08,257.99L350.17,267.35L356.35,278.65L359.44,283.38L374.89,305.37L377.98,309.55L387.25,322.09L390.34,325.31L408.88,340.35L411.97,342.46L433.6,355.95L436.69,357.6L458.32,367.46L461.41,368.67L479.95,374.91L483.04,375.73L501.58,381.15L504.67,381.73L529.39,387.3L532.48,387.63L585.01,394.28L588.1,394.27L603.55,395.17L606.64,395.45L619,396.74" style="vector-effect: non-scaling-stroke; fill: none; stroke: rgb(31, 119, 180); stroke-opacity: 1; stroke-width: 2px; opacity: 1;"/></g><g class="points"/><g class="text"/></g><g class="trace scatter trace3f87a1" style="stroke-miterlimit: 2; opacity: 1;"><g class="fills"/><g class="errorbars"/><g class="lines"><path class="js-line" d="M4.09,404.03L10.27,413.25L13.36,386L38.08,351.37L41.17,347.62L47.35,341.8L50.44,339.03L59.71,331.19L62.8,328.55L75.16,317.97L78.25,315.56L93.7,302.7L96.79,299.95L124.6,276.55L127.69,273.79L164.77,239.96L167.86,236.24L180.22,223.14L183.31,219.98L192.58,210.19L195.67,206.18L223.48,169.64L226.57,165.21L245.11,138.57L248.2,133.87L257.47,119.61L260.56,114.72L272.92,94.27L276.01,88.96L282.19,78.54L285.28,72.47L294.55,55.27L297.64,48.2L306.91,30.08L310,22.72L328.54,155.39L331.63,173.88L340.9,223.99L343.99,238.57L347.08,252.88L350.17,262.73L356.35,274.16L359.44,278.52L381.07,309.19L384.16,313.18L390.34,321.22L393.43,324.41L418.15,341.27L421.24,343.4L439.78,354.46L442.87,355.68L452.14,360.57L455.23,361.81L473.77,368.97L476.86,369.54L507.76,377.68L510.85,378.36L517.03,379.59L520.12,380.3L544.84,385.02L547.93,385.36L557.2,386.45L560.29,386.46L569.56,387.24L572.65,387.75L585.01,388.25L588.1,388.76L609.73,390.89L612.82,391.29L619,391.87" style="vector-effect: non-scaling-stroke; fill: none; stroke: rgb(255, 127, 14); stroke-opacity: 1; stroke-width: 2px; opacity: 1;"/></g><g class="points"/><g class="text"/></g><g class="trace scatter trace3782cd" style="stroke-miterlimit: 2; opacity: 1;"><g class="fills"/><g class="errorbars"/><g class="lines"><path class="js-line" d="M4.09,404.03L10.27,413.25L13.36,386L38.08,351.37L41.17,347.62L47.35,341.8L50.44,339.03L59.71,331.19L62.8,328.55L75.16,317.97L78.25,315.56L93.7,302.7L96.79,299.95L124.6,276.55L127.69,273.79L164.77,239.96L167.86,236.24L180.22,223.14L183.31,219.98L192.58,210.19L195.67,206.18L223.48,169.64L226.57,165.21L245.11,138.57L248.2,133.87L257.47,119.61L260.56,114.72L272.92,94.27L276.01,88.96L282.19,78.54L285.28,72.47L294.55,55.27L297.64,48.2L306.91,30.08L310,22.72L313.09,41.11L316.18,66.22L325.45,130.47L328.54,150.21L337.81,204.47L340.9,220.95L347.08,249.3L350.17,259.82L356.35,270.6L359.44,274.97L390.34,316.32L393.43,319.29L399.61,324.51L402.7,327.11L408.88,331L411.97,333.94L424.33,340.95L427.42,343.18L455.23,356.98L458.32,358.24L479.95,365.52L483.04,366.08L495.4,370.21L498.49,370.82L520.12,375.42L523.21,375.91L544.84,379.44L547.93,379.91L566.47,382.57L569.56,382.86L581.92,383.73L585.01,383.96L612.82,385.91L615.91,385.98L619,386.2" style="vector-effect: non-scaling-stroke; fill: none; stroke: rgb(44, 160, 44); stroke-opacity: 1; stroke-width: 2px; opacity: 1;"/></g><g class="points"/><g class="text"/></g><g class="trace scatter trace55b0b3" style="stroke-miterlimit: 2; opacity: 1;"><g class="fills"/><g class="errorbars"/><g class="lines"><path class="js-line" d="M4.09,404.03L10.27,413.25L13.36,386L38.08,351.37L41.17,347.62L47.35,341.8L50.44,339.03L59.71,331.19L62.8,328.55L75.16,317.97L78.25,315.56L93.7,302.7L96.79,299.95L124.6,276.55L127.69,273.79L164.77,239.96L167.86,236.24L180.22,223.14L183.31,219.98L192.58,210.19L195.67,206.18L223.48,169.64L226.57,165.21L245.11,138.57L248.2,133.87L257.47,119.61L260.56,114.72L272.92,94.27L276.01,88.96L282.19,78.54L285.28,72.47L294.55,55.27L297.64,48.2L306.91,30.08L310,22.72L313.09,33L316.18,57.4L325.45,122.79L328.54,142.29L340.9,211.9L343.99,227.06L350.17,251.86L353.26,258.33L362.53,271.49L365.62,275.63L377.98,290.95L381.07,295.73L393.43,310.7L396.52,313.32L405.79,320.2L408.88,322.83L439.78,341.71L442.87,342.81L452.14,347.06L455.23,348.18L470.68,354L473.77,354.56L486.13,358.94L489.22,359.19L513.94,364.58L517.03,364.75L526.3,365.69L529.39,366.29L541.75,367.05L544.84,367.65L557.2,369.04L560.29,369.46L566.47,370.11L569.56,370.22L585.01,371.13L588.1,371.42L609.73,372.06L612.82,371.88L619,371.86" style="vector-effect: non-scaling-stroke; fill: none; stroke: rgb(214, 39, 40); stroke-opacity: 1; stroke-width: 2px; opacity: 1;"/></g><g class="points"/><g class="text"/></g><g class="trace scatter trace48bf95" style="stroke-miterlimit: 2; opacity: 1;"><g class="fills"/><g class="errorbars"/><g class="lines"><path class="js-line" d="M4.09,404.03L10.27,413.25L13.36,386L38.08,351.37L41.17,347.62L47.35,341.8L50.44,339.03L59.71,331.19L62.8,328.55L75.16,317.97L78.25,315.56L93.7,302.7L96.79,299.95L124.6,276.55L127.69,273.79L164.77,239.96L167.86,236.24L180.22,223.14L183.31,219.98L192.58,210.19L195.67,206.18L223.48,169.64L226.57,165.21L245.11,138.57L248.2,133.87L257.47,119.61L260.56,114.72L272.92,94.27L276.01,88.96L282.19,78.54L285.28,72.47L294.55,55.27L297.64,48.2L306.91,30.08L310,22.72L313.09,24.66L316.18,40.36L331.63,142.8L334.72,160.77L343.99,209.05L347.08,224.04L350.17,236.69L353.26,244.74L359.44,251.65L362.53,254.99L371.8,264.97L374.89,268.9L384.16,280.45L387.25,284.63L396.52,295.1L399.61,297.28L408.88,303.79L411.97,305.41L418.15,308.39L421.24,310.34L442.87,322.2L445.96,323.01L455.23,326.54L458.32,327.75L470.68,331.46L473.77,332.59L489.22,336.38L492.31,336.75L501.58,338.48L504.67,339.36L510.85,340.51L513.94,340.88L517.03,341.79L520.12,341.64L551.02,344.2L554.11,344.05L575.74,344.45L578.83,344.16L600.46,343.05L603.55,342.63L615.91,341.75L619,342.09" style="vector-effect: non-scaling-stroke; fill: none; stroke: rgb(148, 103, 189); stroke-opacity: 1; stroke-width: 2px; opacity: 1;"/></g><g class="points"/><g class="text"/></g><g class="trace scatter trace6b4f33" style="stroke-miterlimit: 2; opacity: 1;"><g class="fills"/><g class="errorbars"/><g class="lines"><path class="js-line" d="M4.09,404.03L10.27,413.25L13.36,386L38.08,351.37L41.17,347.62L47.35,341.8L50.44,339.03L59.71,331.19L62.8,328.55L75.16,317.97L78.25,315.56L93.7,302.7L96.79,299.95L124.6,276.55L127.69,273.79L164.77,239.96L167.86,236.24L180.22,223.14L183.31,219.98L192.58,210.19L195.67,206.18L223.48,169.64L226.57,165.21L245.11,138.57L248.2,133.87L257.47,119.61L260.56,114.72L272.92,94.27L276.01,88.96L282.19,78.54L285.28,72.47L294.55,55.27L297.64,48.2L306.91,30.08L310,22.72L313.09,21.75L316.18,29.98L322.36,66.1L325.45,86.33L334.72,142.53L337.81,159.74L347.08,205.22L350.17,217.81L353.26,227.09L356.35,233.63L362.53,240.15L365.62,242.46L384.16,261.91L387.25,265.81L396.52,274.84L399.61,277.62L405.79,281.78L408.88,283.87L421.24,289.96L424.33,292.34L439.78,299.07L442.87,300.44L452.14,303.55L455.23,304.94L467.59,309.02L470.68,309.5L510.85,316.05L513.94,315.98L523.21,316.31L526.3,316.13L529.39,316.54L532.48,315.83L566.47,316.04L569.56,315.79L575.74,314.88L578.83,314.45L588.1,312.55L591.19,312L603.55,309.85L606.64,310.16L615.91,308.46L619,308.68" style="vector-effect: non-scaling-stroke; fill: none; stroke: rgb(140, 86, 75); stroke-opacity: 1; stroke-width: 2px; opacity: 1;"/></g><g class="points"/><g class="text"/></g></g></g><g class="overplot"/><path class="xlines-above crisp" style="fill: none;" d="M0,0"/><path class="ylines-above crisp" style="fill: none;" d="M0,0"/><g class="overlines-above"/><g class="xaxislayer-above"><g class="xtick"><text text-anchor="middle" x="0" y="473" transform="translate(61,0)" style="font-family: 'Open Sans', verdana, arial, sans-serif; font-size: 12px; fill: rgb(68, 68, 68); fill-opacity: 1; white-space: pre;">0</text></g><g class="xtick"><text text-anchor="middle" x="0" y="473" transform="translate(215.5,0)" style="font-family: 'Open Sans', verdana, arial, sans-serif; font-size: 12px; fill: rgb(68, 68, 68); fill-opacity: 1; white-space: pre;">50</text></g><g class="xtick"><text text-anchor="middle" x="0" y="473" transform="translate(370,0)" style="font-family: 'Open Sans', verdana, arial, sans-serif; font-size: 12px; fill: rgb(68, 68, 68); fill-opacity: 1; white-space: pre;">100</text></g><g class="xtick"><text text-anchor="middle" x="0" y="473" transform="translate(524.5,0)" style="font-family: 'Open Sans', verdana, arial, sans-serif; font-size: 12px; fill: rgb(68, 68, 68); fill-opacity: 1; white-space: pre;">150</text></g><g class="xtick"><text text-anchor="middle" x="0" y="473" transform="translate(679,0)" style="font-family: 'Open Sans', verdana, arial, sans-serif; font-size: 12px; fill: rgb(68, 68, 68); fill-opacity: 1; white-space: pre;">200</text></g></g><g class="yaxislayer-above"><g class="ytick"><text text-anchor="end" x="59" y="4.199999999999999" transform="translate(0,407.87)" style="font-family: 'Open Sans', verdana, arial, sans-serif; font-size: 12px; fill: rgb(68, 68, 68); fill-opacity: 1; white-space: pre;">200</text></g><g class="ytick"><text text-anchor="end" x="59" y="4.199999999999999" transform="translate(0,345.93)" style="font-family: 'Open Sans', verdana, arial, sans-serif; font-size: 12px; fill: rgb(68, 68, 68); fill-opacity: 1; white-space: pre;">400</text></g><g class="ytick"><text text-anchor="end" x="59" y="4.199999999999999" transform="translate(0,283.98)" style="font-family: 'Open Sans', verdana, arial, sans-serif; font-size: 12px; fill: rgb(68, 68, 68); fill-opacity: 1; white-space: pre;">600</text></g><g class="ytick"><text text-anchor="end" x="59" y="4.199999999999999" transform="translate(0,222.04)" style="font-family: 'Open Sans', verdana, arial, sans-serif; font-size: 12px; fill: rgb(68, 68, 68); fill-opacity: 1; white-space: pre;">800</text></g><g class="ytick"><text text-anchor="end" x="59" y="4.199999999999999" transform="translate(0,160.09)" style="font-family: 'Open Sans', verdana, arial, sans-serif; font-size: 12px; fill: rgb(68, 68, 68); fill-opacity: 1; white-space: pre;">1000</text></g><g class="ytick"><text text-anchor="end" x="59" y="4.199999999999999" transform="translate(0,98.15)" style="font-family: 'Open Sans', verdana, arial, sans-serif; font-size: 12px; fill: rgb(68, 68, 68); fill-opacity: 1; white-space: pre;">1200</text></g><g class="ytick"><text text-anchor="end" x="59" y="4.199999999999999" transform="translate(0,36.2)" style="font-family: 'Open Sans', verdana, arial, sans-serif; font-size: 12px; fill: rgb(68, 68, 68); fill-opacity: 1; white-space: pre;">1400</text></g></g><g class="overaxes-above"/></g></g><g class="polarlayer"/><g class="ternarylayer"/><g class="geolayer"/><g class="funnelarealayer"/><g class="pielayer"/><g class="treemaplayer"/><g class="sunburstlayer"/><g class="glimages"/><defs id="topdefs-e18fa7"><g class="clips"/><clipPath id="legende18fa7"><rect width="117" height="140" x="0" y="0"/></clipPath></defs><g class="layer-above"><g class="imagelayer"/><g class="shapelayer"><path data-index="0" fill-rule="evenodd" d="M61,222.04H679V67.18H61Z" clip-path="url('#clipe18fa7xy')" style="opacity: 0.3; stroke: rgb(0, 0, 255); stroke-opacity: 1; fill: rgb(0, 0, 255); fill-opacity: 1; stroke-width: 2px;"/></g></g><g class="infolayer"><g class="legend" pointer-events="all" transform="translate(91, 46.750000000000014)"><rect class="bg" shape-rendering="crispEdges" style="stroke: rgb(68, 68, 68); stroke-opacity: 1; fill: rgb(226, 226, 226); fill-opacity: 1; stroke-width: 0px;" width="117" height="140" x="0" y="0"/><g class="scrollbox" transform="translate(0, 0)" clip-path="url('#legende18fa7')"><text class="legendtitletext user-select-none" text-anchor="start" x="2" y="15.600000000000001" style="font-family: 'Open Sans', verdana, arial, sans-serif; font-size: 12px; fill: rgb(68, 68, 68); fill-opacity: 1; white-space: pre;"><tspan style="font-weight:bold"> Identification Time </tspan></text><g class="groups"><g class="traces" transform="translate(0, 30.1)" style="opacity: 1;"><text class="legendtext user-select-none" text-anchor="start" x="40" y="4.680000000000001" style="font-family: 'Open Sans', verdana, arial, sans-serif; font-size: 12px; fill: rgb(68, 68, 68); fill-opacity: 1; white-space: pre;">0 Months</text><g class="layers" style="opacity: 1;"><g class="legendfill"/><g class="legendlines"><path class="js-line" d="M5,0h30" style="fill: none; stroke: rgb(31, 119, 180); stroke-opacity: 1; stroke-width: 2px;"/></g><g class="legendsymbols"><g class="legendpoints"/></g></g><rect class="legendtoggle" pointer-events="all" x="0" y="-9.5" width="98.046875" height="19" style="cursor: pointer; fill: rgb(0, 0, 0); fill-opacity: 0;"/></g><g class="traces" transform="translate(0, 49.1)" style="opacity: 1;"><text class="legendtext user-select-none" text-anchor="start" x="40" y="4.680000000000001" style="font-family: 'Open Sans', verdana, arial, sans-serif; font-size: 12px; fill: rgb(68, 68, 68); fill-opacity: 1; white-space: pre;">3 Months</text><g class="layers" style="opacity: 1;"><g class="legendfill"/><g class="legendlines"><path class="js-line" d="M5,0h30" style="fill: none; stroke: rgb(255, 127, 14); stroke-opacity: 1; stroke-width: 2px;"/></g><g class="legendsymbols"><g class="legendpoints"/></g></g><rect class="legendtoggle" pointer-events="all" x="0" y="-9.5" width="98.046875" height="19" style="cursor: pointer; fill: rgb(0, 0, 0); fill-opacity: 0;"/></g><g class="traces" transform="translate(0, 68.1)" style="opacity: 1;"><text class="legendtext user-select-none" text-anchor="start" x="40" y="4.680000000000001" style="font-family: 'Open Sans', verdana, arial, sans-serif; font-size: 12px; fill: rgb(68, 68, 68); fill-opacity: 1; white-space: pre;">6 Months</text><g class="layers" style="opacity: 1;"><g class="legendfill"/><g class="legendlines"><path class="js-line" d="M5,0h30" style="fill: none; stroke: rgb(44, 160, 44); stroke-opacity: 1; stroke-width: 2px;"/></g><g class="legendsymbols"><g class="legendpoints"/></g></g><rect class="legendtoggle" pointer-events="all" x="0" y="-9.5" width="98.046875" height="19" style="cursor: pointer; fill: rgb(0, 0, 0); fill-opacity: 0;"/></g><g class="traces" transform="translate(0, 87.1)" style="opacity: 1;"><text class="legendtext user-select-none" text-anchor="start" x="40" y="4.680000000000001" style="font-family: 'Open Sans', verdana, arial, sans-serif; font-size: 12px; fill: rgb(68, 68, 68); fill-opacity: 1; white-space: pre;">12 Months</text><g class="layers" style="opacity: 1;"><g class="legendfill"/><g class="legendlines"><path class="js-line" d="M5,0h30" style="fill: none; stroke: rgb(214, 39, 40); stroke-opacity: 1; stroke-width: 2px;"/></g><g class="legendsymbols"><g class="legendpoints"/></g></g><rect class="legendtoggle" pointer-events="all" x="0" y="-9.5" width="98.046875" height="19" style="cursor: pointer; fill: rgb(0, 0, 0); fill-opacity: 0;"/></g><g class="traces" transform="translate(0, 106.1)" style="opacity: 1;"><text class="legendtext user-select-none" text-anchor="start" x="40" y="4.680000000000001" style="font-family: 'Open Sans', verdana, arial, sans-serif; font-size: 12px; fill: rgb(68, 68, 68); fill-opacity: 1; white-space: pre;">24 Months</text><g class="layers" style="opacity: 1;"><g class="legendfill"/><g class="legendlines"><path class="js-line" d="M5,0h30" style="fill: none; stroke: rgb(148, 103, 189); stroke-opacity: 1; stroke-width: 2px;"/></g><g class="legendsymbols"><g class="legendpoints"/></g></g><rect class="legendtoggle" pointer-events="all" x="0" y="-9.5" width="98.046875" height="19" style="cursor: pointer; fill: rgb(0, 0, 0); fill-opacity: 0;"/></g><g class="traces" transform="translate(0, 125.1)" style="opacity: 1;"><text class="legendtext user-select-none" text-anchor="start" x="40" y="4.680000000000001" style="font-family: 'Open Sans', verdana, arial, sans-serif; font-size: 12px; fill: rgb(68, 68, 68); fill-opacity: 1; white-space: pre;">36 Months</text><g class="layers" style="opacity: 1;"><g class="legendfill"/><g class="legendlines"><path class="js-line" d="M5,0h30" style="fill: none; stroke: rgb(140, 86, 75); stroke-opacity: 1; stroke-width: 2px;"/></g><g class="legendsymbols"><g class="legendpoints"/></g></g><rect class="legendtoggle" pointer-events="all" x="0" y="-9.5" width="98.046875" height="19" style="cursor: pointer; fill: rgb(0, 0, 0); fill-opacity: 0;"/></g></g></g><rect class="scrollbar" rx="20" ry="3" width="0" height="0" style="fill: rgb(128, 139, 164); fill-opacity: 1;" x="0" y="0"/></g><g class="g-gtitle"><text class="gtitle" x="350" y="12.5" text-anchor="middle" dy="0em" style="font-family: 'Open Sans', verdana, arial, sans-serif; font-size: 17px; fill: rgb(68, 68, 68); opacity: 1; font-weight: normal; white-space: pre;"><tspan style="font-weight:bold"> Leprosy Prevalence - Immunity Vaccine 0.5, Treatment 50% </tspan></text></g><g class="g-xtitle" transform="translate(0,-15)"><text class="xtitle" x="370" y="512" text-anchor="middle" style="font-family: 'Open Sans', verdana, arial, sans-serif; font-size: 14px; fill: rgb(68, 68, 68); opacity: 1; font-weight: normal; white-space: pre;">Time(Years)</text></g><g class="g-ytitle"><text class="ytitle" transform="rotate(-90,22,242.5)" x="22" y="242.5" text-anchor="middle" style="font-family: 'Open Sans', verdana, arial, sans-serif; font-size: 14px; fill: rgb(68, 68, 68); opacity: 1; font-weight: normal; white-space: pre;">Number of infectiuos individuals</text></g></g></svg>