<svg class="main-svg" xmlns="http://www.w3.org/2000/svg" xmlns:xlink="http://www.w3.org/1999/xlink" width="700" height="500" style="" viewBox="0 0 700 500"><rect x="0" y="0" width="700" height="500" style="fill: rgb(255, 255, 255); fill-opacity: 1;"/><defs id="defs-2f9e67"><g class="clips"><clipPath id="clip2f9e67xyplot" class="plotclip"><rect width="620" height="435"/></clipPath><clipPath class="axesclip" id="clip2f9e67x"><rect x="60" y="0" width="620" height="500"/></clipPath><clipPath class="axesclip" id="clip2f9e67y"><rect x="0" y="25" width="700" height="435"/></clipPath><clipPath class="axesclip" id="clip2f9e67xy"><rect x="60" y="25" width="620" height="435"/></clipPath></g><g class="gradients"/></defs><g class="bglayer"/><g class="layer-below"><g class="imagelayer"/><g class="shapelayer"/></g><g class="cartesianlayer"><g class="subplot xy"><g class="layer-subplot"><g class="shapelayer"/><g class="imagelayer"/></g><g class="gridlayer"><g class="x"><path class="xgrid crisp" transform="translate(215.5,0)" d="M0,25v435" style="stroke: rgb(238, 238, 238); stroke-opacity: 1; stroke-width: 1px;"/><path class="xgrid crisp" transform="translate(370,0)" d="M0,25v435" style="stroke: rgb(238, 238, 238); stroke-opacity: 1; stroke-width: 1px;"/><path class="xgrid crisp" transform="translate(524.5,0)" d="M0,25v435" style="stroke: rgb(238, 238, 238); stroke-opacity: 1; stroke-width: 1px;"/></g><g class="y"><path class="ygrid crisp" transform="translate(0,381.15)" d="M60,0h620" style="stroke: rgb(238, 238, 238); stroke-opacity: 1; stroke-width: 1px;"/><path class="ygrid crisp" transform="translate(0,323.64)" d="M60,0h620" style="stroke: rgb(238, 238, 238); stroke-opacity: 1; stroke-width: 1px;"/><path class="ygrid crisp" transform="translate(0,266.12)" d="M60,0h620" style="stroke: rgb(238, 238, 238); stroke-opacity: 1; stroke-width: 1px;"/><path class="ygrid crisp" transform="translate(0,208.61)" d="M60,0h620" style="stroke: rgb(238, 238, 238); stroke-opacity: 1; stroke-width: 1px;"/><path class="ygrid crisp" transform="translate(0,151.09)" d="M60,0h620" style="stroke: rgb(238, 238, 238); stroke-opacity: 1; stroke-width: 1px;"/><path class="ygrid crisp" transform="translate(0,93.57)" d="M60,0h620" style="stroke: rgb(238, 238, 238); stroke-opacity: 1; stroke-width: 1px;"/><path class="ygrid crisp" transform="translate(0,36.06)" d="M60,0h620" style="stroke: rgb(238, 238, 238); stroke-opacity: 1; stroke-width: 1px;"/></g></g><g class="zerolinelayer"><path class="xzl zl crisp" transform="translate(61,0)" d="M0,25v435" style="stroke: rgb(68, 68, 68); stroke-opacity: 1; stroke-width: 1px;"/><path class="yzl zl crisp" transform="translate(0,438.67)" d="M60,0h620" style="stroke: rgb(68, 68, 68); stroke-opacity: 1; stroke-width: 1px;"/></g><path class="xlines-below"/><path class="ylines-below"/><g class="overlines-below"/><g class="xaxislayer-below"/><g class="yaxislayer-below"/><g class="overaxes-below"/><g class="plot" transform="translate(60, 25)" clip-path="url('#clip2f9e67xyplot')"><g class="scatterlayer mlayer"><g class="trace scatter trace036d24" style="stroke-miterlimit: 2; opacity: 1;"><g class="fills"/><g class="errorbars"/><g class="lines"><path class="js-line" d="M4.09,375.8L10.27,384.36L13.36,359.06L38.08,326.9L41.17,323.42L47.35,318.02L50.44,315.45L62.8,305.71L65.89,303.04L84.43,288.99L87.52,286.43L133.87,249.74L136.96,247.04L164.77,223.46L167.86,220L180.22,207.84L183.31,204.91L192.58,195.82L195.67,192.09L223.48,158.16L226.57,154.05L245.11,129.32L248.2,124.96L257.47,111.71L260.56,107.17L279.1,78.79L282.19,73.58L306.91,28.58L310,21.75L316.18,119.08L319.27,158.17L325.45,222.15L328.54,248.24L334.72,290.56L337.81,307.72L343.99,335.67L347.08,346.96L353.26,361.78L356.35,367.49L365.62,380.8L368.71,384.42L377.98,393.01L381.07,395.22L387.25,399.07L390.34,400.21L402.7,403.16L405.79,403.87L427.42,407.93L430.51,408.27L449.05,409.8L452.14,410.02L467.59,411.22L470.68,411.38L529.39,412.78L532.48,412.82L619,413.24" style="vector-effect: non-scaling-stroke; fill: none; stroke: rgb(31, 119, 180); stroke-opacity: 1; stroke-width: 2px; opacity: 1;"/></g><g class="points"/><g class="text"/></g><g class="trace scatter trace0fb4e5" style="stroke-miterlimit: 2; opacity: 1;"><g class="fills"/><g class="errorbars"/><g class="lines"><path class="js-line" d="M4.09,375.8L10.27,384.36L13.36,359.06L38.08,326.9L41.17,323.42L47.35,318.02L50.44,315.45L62.8,305.71L65.89,303.04L84.43,288.99L87.52,286.43L133.87,249.74L136.96,247.04L164.77,223.46L167.86,220L180.22,207.84L183.31,204.91L192.58,195.82L195.67,192.09L223.48,158.16L226.57,154.05L245.11,129.32L248.2,124.96L257.47,111.71L260.56,107.17L279.1,78.79L282.19,73.58L306.91,28.58L310,21.75L319.27,153.07L322.36,187.73L328.54,244.23L331.63,267.73L337.81,305.41L340.9,320.77L347.08,345.36L350.17,352.4L359.44,368.93L362.53,373.76L371.8,385.11L374.89,388.26L384.16,395.81L387.25,397.48L399.61,400.82L402.7,401.49L424.33,406.71L427.42,407.2L455.23,409.49L458.32,409.93L476.86,410.98L479.95,411.08L520.12,412.38L523.21,412.41L572.65,412.97L575.74,413.01L619,413.17" style="vector-effect: non-scaling-stroke; fill: none; stroke: rgb(255, 127, 14); stroke-opacity: 1; stroke-width: 2px; opacity: 1;"/></g><g class="points"/><g class="text"/></g><g class="trace scatter trace857d35" style="stroke-miterlimit: 2; opacity: 1;"><g class="fills"/><g class="errorbars"/><g class="lines"><path class="js-line" d="M4.09,375.8L10.27,384.36L13.36,359.06L38.08,326.9L41.17,323.42L47.35,318.02L50.44,315.45L62.8,305.71L65.89,303.04L84.43,288.99L87.52,286.43L133.87,249.74L136.96,247.04L164.77,223.46L167.86,220L180.22,207.84L183.31,204.91L192.58,195.82L195.67,192.09L223.48,158.16L226.57,154.05L245.11,129.32L248.2,124.96L257.47,111.71L260.56,107.17L279.1,78.79L282.19,73.58L306.91,28.58L310,21.75L316.18,105.96L319.27,146.61L325.45,213.27L328.54,240.77L334.72,284.86L337.81,302.79L343.99,332.14L347.08,343.89L353.26,355.35L356.35,360.8L365.62,374.54L368.71,378.54L377.98,388.85L381.07,391.57L387.25,396L390.34,396.84L402.7,399.63L405.79,400.45L418.15,403.69L421.24,404.71L430.51,406.28L433.6,406.48L473.77,410.14L476.86,410.33L513.94,411.79L517.03,411.89L544.84,412.46L547.93,412.54L619,413.06" style="vector-effect: non-scaling-stroke; fill: none; stroke: rgb(44, 160, 44); stroke-opacity: 1; stroke-width: 2px; opacity: 1;"/></g><g class="points"/><g class="text"/></g><g class="trace scatter trace03268d" style="stroke-miterlimit: 2; opacity: 1;"><g class="fills"/><g class="errorbars"/><g class="lines"><path class="js-line" d="M4.09,375.8L10.27,384.36L13.36,359.06L38.08,326.9L41.17,323.42L47.35,318.02L50.44,315.45L62.8,305.71L65.89,303.04L84.43,288.99L87.52,286.43L133.87,249.74L136.96,247.04L164.77,223.46L167.86,220L180.22,207.84L183.31,204.91L192.58,195.82L195.67,192.09L223.48,158.16L226.57,154.05L245.11,129.32L248.2,124.96L257.47,111.71L260.56,107.17L279.1,78.79L282.19,73.58L306.91,28.58L310,21.75L313.09,44.05L316.18,91.87L322.36,169.59L325.45,202.24L331.63,255.09L334.72,276.93L340.9,313.03L343.99,327.36L347.08,339.71L350.17,347.04L353.26,349.03L356.35,352.82L371.8,375.48L374.89,379.51L384.16,389.66L387.25,392.18L390.34,393.52L393.43,393.86L399.61,394.37L402.7,395.04L415.06,398.54L418.15,399.6L427.42,403.11L430.51,403.84L449.05,405.11L452.14,405.65L461.41,406.98L464.5,407.56L483.04,408.8L486.13,408.96L513.94,410.54L517.03,410.72L554.11,411.87L557.2,411.88L578.83,412.25L581.92,412.3L619,412.66" style="vector-effect: non-scaling-stroke; fill: none; stroke: rgb(214, 39, 40); stroke-opacity: 1; stroke-width: 2px; opacity: 1;"/></g><g class="points"/><g class="text"/></g><g class="trace scatter traceae3c3a" style="stroke-miterlimit: 2; opacity: 1;"><g class="fills"/><g class="errorbars"/><g class="lines"><path class="js-line" d="M4.09,375.8L10.27,384.36L13.36,359.06L38.08,326.9L41.17,323.42L47.35,318.02L50.44,315.45L62.8,305.71L65.89,303.04L84.43,288.99L87.52,286.43L133.87,249.74L136.96,247.04L164.77,223.46L167.86,220L180.22,207.84L183.31,204.91L192.58,195.82L195.67,192.09L223.48,158.16L226.57,154.05L245.11,129.32L248.2,124.96L257.47,111.71L260.56,107.17L279.1,78.79L282.19,73.58L306.91,28.58L310,21.75L313.09,30.65L316.18,64.28L322.36,145.41L325.45,179.95L331.63,237.29L334.72,261.59L340.9,300.84L343.99,316.79L347.08,330.36L350.17,340.37L353.26,343.38L356.35,342.79L359.44,343.94L362.53,346.64L374.89,364.95L377.98,369.9L384.16,378.51L387.25,382.24L390.34,385.33L393.43,387.04L405.79,385.94L408.88,386.74L415.06,388.55L418.15,389.78L433.6,397.31L436.69,397.92L455.23,398.94L458.32,399.55L483.04,404.21L486.13,404.5L507.76,405.93L510.85,406.26L541.75,408.38L544.84,408.35L619,410.87" style="vector-effect: non-scaling-stroke; fill: none; stroke: rgb(148, 103, 189); stroke-opacity: 1; stroke-width: 2px; opacity: 1;"/></g><g class="points"/><g class="text"/></g><g class="trace scatter traceef435d" style="stroke-miterlimit: 2; opacity: 1;"><g class="fills"/><g class="errorbars"/><g class="lines"><path class="js-line" d="M4.09,375.8L10.27,384.36L13.36,359.06L38.08,326.9L41.17,323.42L47.35,318.02L50.44,315.45L62.8,305.71L65.89,303.04L84.43,288.99L87.52,286.43L133.87,249.74L136.96,247.04L164.77,223.46L167.86,220L180.22,207.84L183.31,204.91L192.58,195.82L195.67,192.09L223.48,158.16L226.57,154.05L245.11,129.32L248.2,124.96L257.47,111.71L260.56,107.17L279.1,78.79L282.19,73.58L306.91,28.58L310,21.75L313.09,25.08L316.18,46.14L331.63,215.79L334.72,241.62L340.9,285.3L343.99,302.86L350.17,329.62L353.26,335.61L356.35,336.57L359.44,334.81L362.53,334.45L365.62,336.12L368.71,338.81L371.8,342.79L381.07,357.76L384.16,363.13L390.34,372.69L393.43,375.81L396.52,378.07L399.61,378.61L415.06,377.01L418.15,377.85L424.33,380.47L427.42,382.44L439.78,389.57L442.87,390.6L449.05,391.19L452.14,391.2L461.41,390.99L464.5,391.19L479.95,395.32L483.04,396.25L492.31,397.6L495.4,397.82L507.76,398.62L510.85,399.09L554.11,403.01L557.2,402.95L572.65,404.06L575.74,404.12L585.01,404.82L588.1,405.07L615.91,406.18L619,406.2" style="vector-effect: non-scaling-stroke; fill: none; stroke: rgb(140, 86, 75); stroke-opacity: 1; stroke-width: 2px; opacity: 1;"/></g><g class="points"/><g class="text"/></g></g></g><g class="overplot"/><path class="xlines-above crisp" style="fill: none;" d="M0,0"/><path class="ylines-above crisp" style="fill: none;" d="M0,0"/><g class="overlines-above"/><g class="xaxislayer-above"><g class="xtick"><text text-anchor="middle" x="0" y="473" transform="translate(61,0)" style="font-family: 'Open Sans', verdana, arial, sans-serif; font-size: 12px; fill: rgb(68, 68, 68); fill-opacity: 1; white-space: pre;">0</text></g><g class="xtick"><text text-anchor="middle" x="0" y="473" transform="translate(215.5,0)" style="font-family: 'Open Sans', verdana, arial, sans-serif; font-size: 12px; fill: rgb(68, 68, 68); fill-opacity: 1; white-space: pre;">50</text></g><g class="xtick"><text text-anchor="middle" x="0" y="473" transform="translate(370,0)" style="font-family: 'Open Sans', verdana, arial, sans-serif; font-size: 12px; fill: rgb(68, 68, 68); fill-opacity: 1; white-space: pre;">100</text></g><g class="xtick"><text text-anchor="middle" x="0" y="473" transform="translate(524.5,0)" style="font-family: 'Open Sans', verdana, arial, sans-serif; font-size: 12px; fill: rgb(68, 68, 68); fill-opacity: 1; white-space: pre;">150</text></g><g class="xtick"><text text-anchor="middle" x="0" y="473" transform="translate(679,0)" style="font-family: 'Open Sans', verdana, arial, sans-serif; font-size: 12px; fill: rgb(68, 68, 68); fill-opacity: 1; white-space: pre;">200</text></g></g><g class="yaxislayer-above"><g class="ytick"><text text-anchor="end" x="59" y="4.199999999999999" transform="translate(0,438.67)" style="font-family: 'Open Sans', verdana, arial, sans-serif; font-size: 12px; fill: rgb(68, 68, 68); fill-opacity: 1; white-space: pre;">0</text></g><g class="ytick"><text text-anchor="end" x="59" y="4.199999999999999" transform="translate(0,381.15)" style="font-family: 'Open Sans', verdana, arial, sans-serif; font-size: 12px; fill: rgb(68, 68, 68); fill-opacity: 1; white-space: pre;">200</text></g><g class="ytick"><text text-anchor="end" x="59" y="4.199999999999999" transform="translate(0,323.64)" style="font-family: 'Open Sans', verdana, arial, sans-serif; font-size: 12px; fill: rgb(68, 68, 68); fill-opacity: 1; white-space: pre;">400</text></g><g class="ytick"><text text-anchor="end" x="59" y="4.199999999999999" transform="translate(0,266.12)" style="font-family: 'Open Sans', verdana, arial, sans-serif; font-size: 12px; fill: rgb(68, 68, 68); fill-opacity: 1; white-space: pre;">600</text></g><g class="ytick"><text text-anchor="end" x="59" y="4.199999999999999" transform="translate(0,208.61)" style="font-family: 'Open Sans', verdana, arial, sans-serif; font-size: 12px; fill: rgb(68, 68, 68); fill-opacity: 1; white-space: pre;">800</text></g><g class="ytick"><text text-anchor="end" x="59" y="4.199999999999999" transform="translate(0,151.09)" style="font-family: 'Open Sans', verdana, arial, sans-serif; font-size: 12px; fill: rgb(68, 68, 68); fill-opacity: 1; white-space: pre;">1000</text></g><g class="ytick"><text text-anchor="end" x="59" y="4.199999999999999" transform="translate(0,93.57)" style="font-family: 'Open Sans', verdana, arial, sans-serif; font-size: 12px; fill: rgb(68, 68, 68); fill-opacity: 1; white-space: pre;">1200</text></g><g class="ytick"><text text-anchor="end" x="59" y="4.199999999999999" transform="translate(0,36.06)" style="font-family: 'Open Sans', verdana, arial, sans-serif; font-size: 12px; fill: rgb(68, 68, 68); fill-opacity: 1; white-space: pre;">1400</text></g></g><g class="overaxes-above"/></g></g><g class="polarlayer"/><g class="ternarylayer"/><g class="geolayer"/><g class="funnelarealayer"/><g class="pielayer"/><g class="treemaplayer"/><g class="sunburstlayer"/><g class="glimages"/><defs id="topdefs-2f9e67"><g class="clips"/><clipPath id="legend2f9e67"><rect width="117" height="140" x="0" y="0"/></clipPath></defs><g class="layer-above"><g class="imagelayer"/><g class="shapelayer"><path data-index="0" fill-rule="evenodd" d="M61,208.61H679V64.81H61Z" clip-path="url('#clip2f9e67xy')" style="opacity: 0.3; stroke: rgb(0, 0, 255); stroke-opacity: 1; fill: rgb(0, 0, 255); fill-opacity: 1; stroke-width: 2px;"/></g></g><g class="infolayer"><g class="legend" pointer-events="all" transform="translate(91, 46.750000000000014)"><rect class="bg" shape-rendering="crispEdges" style="stroke: rgb(68, 68, 68); stroke-opacity: 1; fill: rgb(226, 226, 226); fill-opacity: 1; stroke-width: 0px;" width="117" height="140" x="0" y="0"/><g class="scrollbox" transform="translate(0, 0)" clip-path="url('#legend2f9e67')"><text class="legendtitletext user-select-none" text-anchor="start" x="2" y="15.600000000000001" style="font-family: 'Open Sans', verdana, arial, sans-serif; font-size: 12px; fill: rgb(68, 68, 68); fill-opacity: 1; white-space: pre;"><tspan style="font-weight:bold"> Identification Time </tspan></text><g class="groups"><g class="traces" transform="translate(0, 30.1)" style="opacity: 1;"><text class="legendtext user-select-none" text-anchor="start" x="40" y="4.680000000000001" style="font-family: 'Open Sans', verdana, arial, sans-serif; font-size: 12px; fill: rgb(68, 68, 68); fill-opacity: 1; white-space: pre;">0 Months</text><g class="layers" style="opacity: 1;"><g class="legendfill"/><g class="legendlines"><path class="js-line" d="M5,0h30" style="fill: none; stroke: rgb(31, 119, 180); stroke-opacity: 1; stroke-width: 2px;"/></g><g class="legendsymbols"><g class="legendpoints"/></g></g><rect class="legendtoggle" pointer-events="all" x="0" y="-9.5" width="98.046875" height="19" style="cursor: pointer; fill: rgb(0, 0, 0); fill-opacity: 0;"/></g><g class="traces" transform="translate(0, 49.1)" style="opacity: 1;"><text class="legendtext user-select-none" text-anchor="start" x="40" y="4.680000000000001" style="font-family: 'Open Sans', verdana, arial, sans-serif; font-size: 12px; fill: rgb(68, 68, 68); fill-opacity: 1; white-space: pre;">3 Months</text><g class="layers" style="opacity: 1;"><g class="legendfill"/><g class="legendlines"><path class="js-line" d="M5,0h30" style="fill: none; stroke: rgb(255, 127, 14); stroke-opacity: 1; stroke-width: 2px;"/></g><g class="legendsymbols"><g class="legendpoints"/></g></g><rect class="legendtoggle" pointer-events="all" x="0" y="-9.5" width="98.046875" height="19" style="cursor: pointer; fill: rgb(0, 0, 0); fill-opacity: 0;"/></g><g class="traces" transform="translate(0, 68.1)" style="opacity: 1;"><text class="legendtext user-select-none" text-anchor="start" x="40" y="4.680000000000001" style="font-family: 'Open Sans', verdana, arial, sans-serif; font-size: 12px; fill: rgb(68, 68, 68); fill-opacity: 1; white-space: pre;">6 Months</text><g class="layers" style="opacity: 1;"><g class="legendfill"/><g class="legendlines"><path class="js-line" d="M5,0h30" style="fill: none; stroke: rgb(44, 160, 44); stroke-opacity: 1; stroke-width: 2px;"/></g><g class="legendsymbols"><g class="legendpoints"/></g></g><rect class="legendtoggle" pointer-events="all" x="0" y="-9.5" width="98.046875" height="19" style="cursor: pointer; fill: rgb(0, 0, 0); fill-opacity: 0;"/></g><g class="traces" transform="translate(0, 87.1)" style="opacity: 1;"><text class="legendtext user-select-none" text-anchor="start" x="40" y="4.680000000000001" style="font-family: 'Open Sans', verdana, arial, sans-serif; font-size: 12px; fill: rgb(68, 68, 68); fill-opacity: 1; white-space: pre;">12 Months</text><g class="layers" style="opacity: 1;"><g class="legendfill"/><g class="legendlines"><path class="js-line" d="M5,0h30" style="fill: none; stroke: rgb(214, 39, 40); stroke-opacity: 1; stroke-width: 2px;"/></g><g class="legendsymbols"><g class="legendpoints"/></g></g><rect class="legendtoggle" pointer-events="all" x="0" y="-9.5" width="98.046875" height="19" style="cursor: pointer; fill: rgb(0, 0, 0); fill-opacity: 0;"/></g><g class="traces" transform="translate(0, 106.1)" style="opacity: 1;"><text class="legendtext user-select-none" text-anchor="start" x="40" y="4.680000000000001" style="font-family: 'Open Sans', verdana, arial, sans-serif; font-size: 12px; fill: rgb(68, 68, 68); fill-opacity: 1; white-space: pre;">24 Months</text><g class="layers" style="opacity: 1;"><g class="legendfill"/><g class="legendlines"><path class="js-line" d="M5,0h30" style="fill: none; stroke: rgb(148, 103, 189); stroke-opacity: 1; stroke-width: 2px;"/></g><g class="legendsymbols"><g class="legendpoints"/></g></g><rect class="legendtoggle" pointer-events="all" x="0" y="-9.5" width="98.046875" height="19" style="cursor: pointer; fill: rgb(0, 0, 0); fill-opacity: 0;"/></g><g class="traces" transform="translate(0, 125.1)" style="opacity: 1;"><text class="legendtext user-select-none" text-anchor="start" x="40" y="4.680000000000001" style="font-family: 'Open Sans', verdana, arial, sans-serif; font-size: 12px; fill: rgb(68, 68, 68); fill-opacity: 1; white-space: pre;">36 Months</text><g class="layers" style="opacity: 1;"><g class="legendfill"/><g class="legendlines"><path class="js-line" d="M5,0h30" style="fill: none; stroke: rgb(140, 86, 75); stroke-opacity: 1; stroke-width: 2px;"/></g><g class="legendsymbols"><g class="legendpoints"/></g></g><rect class="legendtoggle" pointer-events="all" x="0" y="-9.5" width="98.046875" height="19" style="cursor: pointer; fill: rgb(0, 0, 0); fill-opacity: 0;"/></g></g></g><rect class="scrollbar" rx="20" ry="3" width="0" height="0" style="fill: rgb(128, 139, 164); fill-opacity: 1;" x="0" y="0"/></g><g class="g-gtitle"><text class="gtitle" x="350" y="12.5" text-anchor="middle" dy="0em" style="font-family: 'Open Sans', verdana, arial, sans-serif; font-size: 17px; fill: rgb(68, 68, 68); opacity: 1; font-weight: normal; white-space: pre;"><tspan style="font-weight:bold"> Leprosy Prevalence - Immunity Vaccine 0.0, Treatment 95% </tspan></text></g><g class="g-xtitle" transform="translate(0,-15)"><text class="xtitle" x="370" y="512" text-anchor="middle" style="font-family: 'Open Sans', verdana, arial, sans-serif; font-size: 14px; fill: rgb(68, 68, 68); opacity: 1; font-weight: normal; white-space: pre;">Time(Years)</text></g><g class="g-ytitle"><text class="ytitle" transform="rotate(-90,22,242.5)" x="22" y="242.5" text-anchor="middle" style="font-family: 'Open Sans', verdana, arial, sans-serif; font-size: 14px; fill: rgb(68, 68, 68); opacity: 1; font-weight: normal; white-space: pre;">Number of infectiuos individuals</text></g></g></svg>