<svg class="main-svg" xmlns="http://www.w3.org/2000/svg" xmlns:xlink="http://www.w3.org/1999/xlink" width="700" height="500" style="" viewBox="0 0 700 500"><rect x="0" y="0" width="700" height="500" style="fill: rgb(255, 255, 255); fill-opacity: 1;"/><defs id="defs-34b44b"><g class="clips"><clipPath id="clip34b44bxyplot" class="plotclip"><rect width="620" height="435"/></clipPath><clipPath class="axesclip" id="clip34b44bx"><rect x="60" y="0" width="620" height="500"/></clipPath><clipPath class="axesclip" id="clip34b44by"><rect x="0" y="25" width="700" height="435"/></clipPath><clipPath class="axesclip" id="clip34b44bxy"><rect x="60" y="25" width="620" height="435"/></clipPath></g><g class="gradients"/></defs><g class="bglayer"/><g class="layer-below"><g class="imagelayer"/><g class="shapelayer"/></g><g class="cartesianlayer"><g class="subplot xy"><g class="layer-subplot"><g class="shapelayer"/><g class="imagelayer"/></g><g class="gridlayer"><g class="x"><path class="xgrid crisp" transform="translate(215.5,0)" d="M0,25v435" style="stroke: rgb(238, 238, 238); stroke-opacity: 1; stroke-width: 1px;"/><path class="xgrid crisp" transform="translate(370,0)" d="M0,25v435" style="stroke: rgb(238, 238, 238); stroke-opacity: 1; stroke-width: 1px;"/><path class="xgrid crisp" transform="translate(524.5,0)" d="M0,25v435" style="stroke: rgb(238, 238, 238); stroke-opacity: 1; stroke-width: 1px;"/></g><g class="y"><path class="ygrid crisp" transform="translate(0,412.24)" d="M60,0h620" style="stroke: rgb(238, 238, 238); stroke-opacity: 1; stroke-width: 1px;"/><path class="ygrid crisp" transform="translate(0,359.19)" d="M60,0h620" style="stroke: rgb(238, 238, 238); stroke-opacity: 1; stroke-width: 1px;"/><path class="ygrid crisp" transform="translate(0,306.14)" d="M60,0h620" style="stroke: rgb(238, 238, 238); stroke-opacity: 1; stroke-width: 1px;"/><path class="ygrid crisp" transform="translate(0,253.09)" d="M60,0h620" style="stroke: rgb(238, 238, 238); stroke-opacity: 1; stroke-width: 1px;"/><path class="ygrid crisp" transform="translate(0,200.05)" d="M60,0h620" style="stroke: rgb(238, 238, 238); stroke-opacity: 1; stroke-width: 1px;"/><path class="ygrid crisp" transform="translate(0,147)" d="M60,0h620" style="stroke: rgb(238, 238, 238); stroke-opacity: 1; stroke-width: 1px;"/><path class="ygrid crisp" transform="translate(0,93.95)" d="M60,0h620" style="stroke: rgb(238, 238, 238); stroke-opacity: 1; stroke-width: 1px;"/><path class="ygrid crisp" transform="translate(0,40.91)" d="M60,0h620" style="stroke: rgb(238, 238, 238); stroke-opacity: 1; stroke-width: 1px;"/></g></g><g class="zerolinelayer"><path class="xzl zl crisp" transform="translate(61,0)" d="M0,25v435" style="stroke: rgb(68, 68, 68); stroke-opacity: 1; stroke-width: 1px;"/></g><path class="xlines-below"/><path class="ylines-below"/><g class="overlines-below"/><g class="xaxislayer-below"/><g class="yaxislayer-below"/><g class="overaxes-below"/><g class="plot" transform="translate(60, 25)" clip-path="url('#clip34b44bxyplot')"><g class="scatterlayer mlayer"><g class="trace scatter tracecc1b04" style="stroke-miterlimit: 2; opacity: 1;"><g class="fills"/><g class="errorbars"/><g class="lines"><path class="js-line" d="M4.09,405.35L10.27,413.25L13.36,389.91L38.08,360.26L41.17,357.05L47.35,352.07L50.44,349.69L62.8,340.71L65.89,338.25L84.43,325.29L87.52,322.93L133.87,289.09L136.96,286.6L164.77,264.86L167.86,261.66L180.22,250.45L183.31,247.74L192.58,239.36L195.67,235.92L223.48,204.63L226.57,200.84L245.11,178.03L248.2,174L257.47,161.79L260.56,157.6L279.1,131.42L282.19,126.62L306.91,85.12L310,78.82L316.18,96.84L319.27,104.38L331.63,137.58L334.72,146.62L347.08,178.92L350.17,184.36L356.35,190.83L359.44,193.39L365.62,198.23L368.71,200.96L374.89,205.6L377.98,207.6L387.25,212.76L390.34,214.9L411.97,224.24L415.06,224.84L436.69,231.36L439.78,231.63L455.23,231.32L458.32,230.45L464.5,230.96L467.59,230.8L486.13,229.69L489.22,228.8L498.49,228.35L501.58,227.89L513.94,225.37L517.03,224.02L535.57,219.48L538.66,218.39L544.84,216.37L547.93,215L557.2,210.8L560.29,209.77L566.47,206.97L569.56,205.19L581.92,198.75L585.01,197.14L597.37,192.1L600.46,190.16L609.73,183.71L612.82,182.28L619,178.45" style="vector-effect: non-scaling-stroke; fill: none; stroke: rgb(31, 119, 180); stroke-opacity: 1; stroke-width: 2px; opacity: 1;"/></g><g class="points"/><g class="text"/></g><g class="trace scatter trace5fe7ff" style="stroke-miterlimit: 2; opacity: 1;"><g class="fills"/><g class="errorbars"/><g class="lines"><path class="js-line" d="M4.09,405.35L10.27,413.25L13.36,389.91L38.08,360.26L41.17,357.05L47.35,352.07L50.44,349.69L62.8,340.71L65.89,338.25L84.43,325.29L87.52,322.93L133.87,289.09L136.96,286.6L164.77,264.86L167.86,261.66L180.22,250.45L183.31,247.74L192.58,239.36L195.67,235.92L223.48,204.63L226.57,200.84L245.11,178.03L248.2,174L257.47,161.79L260.56,157.6L279.1,131.42L282.19,126.62L306.91,85.12L310,78.82L316.18,93.67L319.27,101.25L325.45,116.71L328.54,124.9L350.17,181.47L353.26,185.15L365.62,195.11L368.71,197.18L377.98,203.95L381.07,206.08L387.25,209.82L390.34,211.61L408.88,219.5L411.97,220.05L418.15,222.01L421.24,222.94L430.51,225.08L433.6,225.34L439.78,226.34L442.87,226.73L449.05,226.82L452.14,226.62L461.41,226.85L464.5,226.46L470.68,225.39L473.77,225.38L479.95,224.13L483.04,223.91L507.76,219.45L510.85,217.77L538.66,208.96L541.75,207.67L560.29,198.79L563.38,197.91L566.47,196.91L569.56,195.1L578.83,190.43L581.92,188.97L588.1,185.02L591.19,183.07L594.28,180.65L597.37,179.31L606.64,172.9L609.73,171.2L619,165.95" style="vector-effect: non-scaling-stroke; fill: none; stroke: rgb(255, 127, 14); stroke-opacity: 1; stroke-width: 2px; opacity: 1;"/></g><g class="points"/><g class="text"/></g><g class="trace scatter trace91e660" style="stroke-miterlimit: 2; opacity: 1;"><g class="fills"/><g class="errorbars"/><g class="lines"><path class="js-line" d="M4.09,405.35L10.27,413.25L13.36,389.91L38.08,360.26L41.17,357.05L47.35,352.07L50.44,349.69L62.8,340.71L65.89,338.25L84.43,325.29L87.52,322.93L133.87,289.09L136.96,286.6L164.77,264.86L167.86,261.66L180.22,250.45L183.31,247.74L192.58,239.36L195.67,235.92L223.48,204.63L226.57,200.84L245.11,178.03L248.2,174L257.47,161.79L260.56,157.6L279.1,131.42L282.19,126.62L306.91,85.12L310,78.82L313.09,84.24L316.18,92.39L328.54,123.89L331.63,132.28L347.08,173.13L350.17,179.6L356.35,186.55L359.44,188.95L362.53,190.84L365.62,193.75L377.98,200.96L381.07,203.32L384.16,205.72L387.25,206.82L402.7,214.42L405.79,215.44L411.97,216.63L415.06,216.98L436.69,220.92L439.78,221.01L445.96,221.64L449.05,221.36L458.32,221.05L461.41,220.57L476.86,219.38L479.95,218.49L492.31,215.89L495.4,215.09L498.49,214.85L501.58,213.74L523.21,206.99L526.3,206.57L538.66,200.48L541.75,199.84L572.65,183.56L575.74,181.74L603.55,164.21L606.64,162.12L615.91,155.8L619,153.31" style="vector-effect: non-scaling-stroke; fill: none; stroke: rgb(44, 160, 44); stroke-opacity: 1; stroke-width: 2px; opacity: 1;"/></g><g class="points"/><g class="text"/></g><g class="trace scatter trace14ff34" style="stroke-miterlimit: 2; opacity: 1;"><g class="fills"/><g class="errorbars"/><g class="lines"><path class="js-line" d="M4.09,405.35L10.27,413.25L13.36,389.91L38.08,360.26L41.17,357.05L47.35,352.07L50.44,349.69L62.8,340.71L65.89,338.25L84.43,325.29L87.52,322.93L133.87,289.09L136.96,286.6L164.77,264.86L167.86,261.66L180.22,250.45L183.31,247.74L192.58,239.36L195.67,235.92L223.48,204.63L226.57,200.84L245.11,178.03L248.2,174L257.47,161.79L260.56,157.6L279.1,131.42L282.19,126.62L306.91,85.12L310,78.82L313.09,80.26L316.18,88.3L328.54,120.11L331.63,128.17L340.9,152.27L343.99,159.95L350.17,173.65L353.26,177.4L359.44,182.52L362.53,184.57L377.98,194.8L381.07,196.25L387.25,199.6L390.34,200.83L396.52,203.13L399.61,203.53L411.97,207.22L415.06,207.6L421.24,208.67L424.33,208.97L430.51,209.8L433.6,210.13L461.41,209.09L464.5,208.52L473.77,206.3L476.86,206.1L495.4,200.34L498.49,199.63L520.12,191.7L523.21,189.83L532.48,186.07L535.57,184.42L557.2,170.82L560.29,169.19L566.47,165.91L569.56,163.63L581.92,154.53L585.01,153.01L603.55,138.89L606.64,136.2L619,126.33" style="vector-effect: non-scaling-stroke; fill: none; stroke: rgb(214, 39, 40); stroke-opacity: 1; stroke-width: 2px; opacity: 1;"/></g><g class="points"/><g class="text"/></g><g class="trace scatter trace478ede" style="stroke-miterlimit: 2; opacity: 1;"><g class="fills"/><g class="errorbars"/><g class="lines"><path class="js-line" d="M4.09,405.35L10.27,413.25L13.36,389.91L38.08,360.26L41.17,357.05L47.35,352.07L50.44,349.69L62.8,340.71L65.89,338.25L84.43,325.29L87.52,322.93L133.87,289.09L136.96,286.6L164.77,264.86L167.86,261.66L180.22,250.45L183.31,247.74L192.58,239.36L195.67,235.92L223.48,204.63L226.57,200.84L245.11,178.03L248.2,174L257.47,161.79L260.56,157.6L279.1,131.42L282.19,126.62L306.91,85.12L310,78.82L313.09,76.16L316.18,80.58L325.45,100.75L328.54,109.23L350.17,159.45L353.26,163.5L359.44,168.92L362.53,170.53L368.71,173.71L371.8,175.08L377.98,178.8L381.07,179.84L393.43,184.46L396.52,184.92L402.7,186.76L405.79,186.85L411.97,188.41L415.06,188.57L418.15,189.32L421.24,189.1L427.42,188.53L430.51,188.49L442.87,187.16L445.96,186.67L452.14,185.76L455.23,185L470.68,181.45L473.77,180.56L486.13,177.37L489.22,175.5L495.4,172.85L498.49,171.27L510.85,165.57L513.94,163.24L523.21,157.14L526.3,155.39L535.57,149.1L538.66,147.35L547.93,140.96L551.02,139.33L557.2,134.24L560.29,131.53L569.56,122.99L572.65,120.04L591.19,104.41L594.28,101.33L597.37,98.56L600.46,94.74L619,75.73" style="vector-effect: non-scaling-stroke; fill: none; stroke: rgb(148, 103, 189); stroke-opacity: 1; stroke-width: 2px; opacity: 1;"/></g><g class="points"/><g class="text"/></g><g class="trace scatter trace0a3986" style="stroke-miterlimit: 2; opacity: 1;"><g class="fills"/><g class="errorbars"/><g class="lines"><path class="js-line" d="M4.09,405.35L10.27,413.25L13.36,389.91L38.08,360.26L41.17,357.05L47.35,352.07L50.44,349.69L62.8,340.71L65.89,338.25L84.43,325.29L87.52,322.93L133.87,289.09L136.96,286.6L164.77,264.86L167.86,261.66L180.22,250.45L183.31,247.74L192.58,239.36L195.67,235.92L223.48,204.63L226.57,200.84L245.11,178.03L248.2,174L257.47,161.79L260.56,157.6L279.1,131.42L282.19,126.62L306.91,85.12L310,78.82L313.09,75.45L316.18,76.33L319.27,80.43L322.36,85.91L347.08,142.32L350.17,149.12L353.26,154.52L356.35,158.13L362.53,161.38L365.62,162.42L384.16,169.44L387.25,170.33L402.7,173.51L405.79,173.24L415.06,173.81L418.15,173.54L427.42,172.24L430.51,171.78L442.87,169.47L445.96,169.01L455.23,166.77L458.32,165.37L470.68,160.71L473.77,158.74L479.95,154.71L483.04,153.68L495.4,147.43L498.49,146.13L504.67,140.86L507.76,138.91L517.03,132.19L520.12,129.59L523.21,126.87L526.3,125.21L541.75,112.21L544.84,109.08L554.11,99.75L557.2,96.86L572.65,80.66L575.74,76.13L588.1,62.46L591.19,57.66L609.73,34.27L612.82,29.94L619,21.75" style="vector-effect: non-scaling-stroke; fill: none; stroke: rgb(140, 86, 75); stroke-opacity: 1; stroke-width: 2px; opacity: 1;"/></g><g class="points"/><g class="text"/></g></g></g><g class="overplot"/><path class="xlines-above crisp" style="fill: none;" d="M0,0"/><path class="ylines-above crisp" style="fill: none;" d="M0,0"/><g class="overlines-above"/><g class="xaxislayer-above"><g class="xtick"><text text-anchor="middle" x="0" y="473" transform="translate(61,0)" style="font-family: 'Open Sans', verdana, arial, sans-serif; font-size: 12px; fill: rgb(68, 68, 68); fill-opacity: 1; white-space: pre;">0</text></g><g class="xtick"><text text-anchor="middle" x="0" y="473" transform="translate(215.5,0)" style="font-family: 'Open Sans', verdana, arial, sans-serif; font-size: 12px; fill: rgb(68, 68, 68); fill-opacity: 1; white-space: pre;">50</text></g><g class="xtick"><text text-anchor="middle" x="0" y="473" transform="translate(370,0)" style="font-family: 'Open Sans', verdana, arial, sans-serif; font-size: 12px; fill: rgb(68, 68, 68); fill-opacity: 1; white-space: pre;">100</text></g><g class="xtick"><text text-anchor="middle" x="0" y="473" transform="translate(524.5,0)" style="font-family: 'Open Sans', verdana, arial, sans-serif; font-size: 12px; fill: rgb(68, 68, 68); fill-opacity: 1; white-space: pre;">150</text></g><g class="xtick"><text text-anchor="middle" x="0" y="473" transform="translate(679,0)" style="font-family: 'Open Sans', verdana, arial, sans-serif; font-size: 12px; fill: rgb(68, 68, 68); fill-opacity: 1; white-space: pre;">200</text></g></g><g class="yaxislayer-above"><g class="ytick"><text text-anchor="end" x="59" y="4.199999999999999" transform="translate(0,412.24)" style="font-family: 'Open Sans', verdana, arial, sans-serif; font-size: 12px; fill: rgb(68, 68, 68); fill-opacity: 1; white-space: pre;">200</text></g><g class="ytick"><text text-anchor="end" x="59" y="4.199999999999999" transform="translate(0,359.19)" style="font-family: 'Open Sans', verdana, arial, sans-serif; font-size: 12px; fill: rgb(68, 68, 68); fill-opacity: 1; white-space: pre;">400</text></g><g class="ytick"><text text-anchor="end" x="59" y="4.199999999999999" transform="translate(0,306.14)" style="font-family: 'Open Sans', verdana, arial, sans-serif; font-size: 12px; fill: rgb(68, 68, 68); fill-opacity: 1; white-space: pre;">600</text></g><g class="ytick"><text text-anchor="end" x="59" y="4.199999999999999" transform="translate(0,253.09)" style="font-family: 'Open Sans', verdana, arial, sans-serif; font-size: 12px; fill: rgb(68, 68, 68); fill-opacity: 1; white-space: pre;">800</text></g><g class="ytick"><text text-anchor="end" x="59" y="4.199999999999999" transform="translate(0,200.05)" style="font-family: 'Open Sans', verdana, arial, sans-serif; font-size: 12px; fill: rgb(68, 68, 68); fill-opacity: 1; white-space: pre;">1000</text></g><g class="ytick"><text text-anchor="end" x="59" y="4.199999999999999" transform="translate(0,147)" style="font-family: 'Open Sans', verdana, arial, sans-serif; font-size: 12px; fill: rgb(68, 68, 68); fill-opacity: 1; white-space: pre;">1200</text></g><g class="ytick"><text text-anchor="end" x="59" y="4.199999999999999" transform="translate(0,93.95)" style="font-family: 'Open Sans', verdana, arial, sans-serif; font-size: 12px; fill: rgb(68, 68, 68); fill-opacity: 1; white-space: pre;">1400</text></g><g class="ytick"><text text-anchor="end" x="59" y="4.199999999999999" transform="translate(0,40.91)" style="font-family: 'Open Sans', verdana, arial, sans-serif; font-size: 12px; fill: rgb(68, 68, 68); fill-opacity: 1; white-space: pre;">1600</text></g></g><g class="overaxes-above"/></g></g><g class="polarlayer"/><g class="ternarylayer"/><g class="geolayer"/><g class="funnelarealayer"/><g class="pielayer"/><g class="treemaplayer"/><g class="sunburstlayer"/><g class="glimages"/><defs id="topdefs-34b44b"><g class="clips"/><clipPath id="legend34b44b"><rect width="117" height="140" x="0" y="0"/></clipPath></defs><g class="layer-above"><g class="imagelayer"/><g class="shapelayer"><path data-index="0" fill-rule="evenodd" d="M61,253.09H679V120.48H61Z" clip-path="url('#clip34b44bxy')" style="opacity: 0.3; stroke: rgb(0, 0, 255); stroke-opacity: 1; fill: rgb(0, 0, 255); fill-opacity: 1; stroke-width: 2px;"/></g></g><g class="infolayer"><g class="legend" pointer-events="all" transform="translate(91, 46.750000000000014)"><rect class="bg" shape-rendering="crispEdges" style="stroke: rgb(68, 68, 68); stroke-opacity: 1; fill: rgb(226, 226, 226); fill-opacity: 1; stroke-width: 0px;" width="117" height="140" x="0" y="0"/><g class="scrollbox" transform="translate(0, 0)" clip-path="url('#legend34b44b')"><text class="legendtitletext user-select-none" text-anchor="start" x="2" y="15.600000000000001" style="font-family: 'Open Sans', verdana, arial, sans-serif; font-size: 12px; fill: rgb(68, 68, 68); fill-opacity: 1; white-space: pre;"><tspan style="font-weight:bold"> Identification Time </tspan></text><g class="groups"><g class="traces" transform="translate(0, 30.1)" style="opacity: 1;"><text class="legendtext user-select-none" text-anchor="start" x="40" y="4.680000000000001" style="font-family: 'Open Sans', verdana, arial, sans-serif; font-size: 12px; fill: rgb(68, 68, 68); fill-opacity: 1; white-space: pre;">0 Months</text><g class="layers" style="opacity: 1;"><g class="legendfill"/><g class="legendlines"><path class="js-line" d="M5,0h30" style="fill: none; stroke: rgb(31, 119, 180); stroke-opacity: 1; stroke-width: 2px;"/></g><g class="legendsymbols"><g class="legendpoints"/></g></g><rect class="legendtoggle" pointer-events="all" x="0" y="-9.5" width="98.046875" height="19" style="cursor: pointer; fill: rgb(0, 0, 0); fill-opacity: 0;"/></g><g class="traces" transform="translate(0, 49.1)" style="opacity: 1;"><text class="legendtext user-select-none" text-anchor="start" x="40" y="4.680000000000001" style="font-family: 'Open Sans', verdana, arial, sans-serif; font-size: 12px; fill: rgb(68, 68, 68); fill-opacity: 1; white-space: pre;">3 Months</text><g class="layers" style="opacity: 1;"><g class="legendfill"/><g class="legendlines"><path class="js-line" d="M5,0h30" style="fill: none; stroke: rgb(255, 127, 14); stroke-opacity: 1; stroke-width: 2px;"/></g><g class="legendsymbols"><g class="legendpoints"/></g></g><rect class="legendtoggle" pointer-events="all" x="0" y="-9.5" width="98.046875" height="19" style="cursor: pointer; fill: rgb(0, 0, 0); fill-opacity: 0;"/></g><g class="traces" transform="translate(0, 68.1)" style="opacity: 1;"><text class="legendtext user-select-none" text-anchor="start" x="40" y="4.680000000000001" style="font-family: 'Open Sans', verdana, arial, sans-serif; font-size: 12px; fill: rgb(68, 68, 68); fill-opacity: 1; white-space: pre;">6 Months</text><g class="layers" style="opacity: 1;"><g class="legendfill"/><g class="legendlines"><path class="js-line" d="M5,0h30" style="fill: none; stroke: rgb(44, 160, 44); stroke-opacity: 1; stroke-width: 2px;"/></g><g class="legendsymbols"><g class="legendpoints"/></g></g><rect class="legendtoggle" pointer-events="all" x="0" y="-9.5" width="98.046875" height="19" style="cursor: pointer; fill: rgb(0, 0, 0); fill-opacity: 0;"/></g><g class="traces" transform="translate(0, 87.1)" style="opacity: 1;"><text class="legendtext user-select-none" text-anchor="start" x="40" y="4.680000000000001" style="font-family: 'Open Sans', verdana, arial, sans-serif; font-size: 12px; fill: rgb(68, 68, 68); fill-opacity: 1; white-space: pre;">12 Months</text><g class="layers" style="opacity: 1;"><g class="legendfill"/><g class="legendlines"><path class="js-line" d="M5,0h30" style="fill: none; stroke: rgb(214, 39, 40); stroke-opacity: 1; stroke-width: 2px;"/></g><g class="legendsymbols"><g class="legendpoints"/></g></g><rect class="legendtoggle" pointer-events="all" x="0" y="-9.5" width="98.046875" height="19" style="cursor: pointer; fill: rgb(0, 0, 0); fill-opacity: 0;"/></g><g class="traces" transform="translate(0, 106.1)" style="opacity: 1;"><text class="legendtext user-select-none" text-anchor="start" x="40" y="4.680000000000001" style="font-family: 'Open Sans', verdana, arial, sans-serif; font-size: 12px; fill: rgb(68, 68, 68); fill-opacity: 1; white-space: pre;">24 Months</text><g class="layers" style="opacity: 1;"><g class="legendfill"/><g class="legendlines"><path class="js-line" d="M5,0h30" style="fill: none; stroke: rgb(148, 103, 189); stroke-opacity: 1; stroke-width: 2px;"/></g><g class="legendsymbols"><g class="legendpoints"/></g></g><rect class="legendtoggle" pointer-events="all" x="0" y="-9.5" width="98.046875" height="19" style="cursor: pointer; fill: rgb(0, 0, 0); fill-opacity: 0;"/></g><g class="traces" transform="translate(0, 125.1)" style="opacity: 1;"><text class="legendtext user-select-none" text-anchor="start" x="40" y="4.680000000000001" style="font-family: 'Open Sans', verdana, arial, sans-serif; font-size: 12px; fill: rgb(68, 68, 68); fill-opacity: 1; white-space: pre;">36 Months</text><g class="layers" style="opacity: 1;"><g class="legendfill"/><g class="legendlines"><path class="js-line" d="M5,0h30" style="fill: none; stroke: rgb(140, 86, 75); stroke-opacity: 1; stroke-width: 2px;"/></g><g class="legendsymbols"><g class="legendpoints"/></g></g><rect class="legendtoggle" pointer-events="all" x="0" y="-9.5" width="98.046875" height="19" style="cursor: pointer; fill: rgb(0, 0, 0); fill-opacity: 0;"/></g></g></g><rect class="scrollbar" rx="20" ry="3" width="0" height="0" style="fill: rgb(128, 139, 164); fill-opacity: 1;" x="0" y="0"/></g><g class="g-gtitle"><text class="gtitle" x="350" y="12.5" text-anchor="middle" dy="0em" style="font-family: 'Open Sans', verdana, arial, sans-serif; font-size: 17px; fill: rgb(68, 68, 68); opacity: 1; font-weight: normal; white-space: pre;"><tspan style="font-weight:bold"> Leprosy Prevalence - Immunity Vaccine 0.5, Treatment 25% </tspan></text></g><g class="g-xtitle" transform="translate(0,-15)"><text class="xtitle" x="370" y="512" text-anchor="middle" style="font-family: 'Open Sans', verdana, arial, sans-serif; font-size: 14px; fill: rgb(68, 68, 68); opacity: 1; font-weight: normal; white-space: pre;">Time(Years)</text></g><g class="g-ytitle"><text class="ytitle" transform="rotate(-90,22,242.5)" x="22" y="242.5" text-anchor="middle" style="font-family: 'Open Sans', verdana, arial, sans-serif; font-size: 14px; fill: rgb(68, 68, 68); opacity: 1; font-weight: normal; white-space: pre;">Number of infectiuos individuals</text></g></g></svg>