<svg class="main-svg" xmlns="http://www.w3.org/2000/svg" xmlns:xlink="http://www.w3.org/1999/xlink" width="700" height="500" style="" viewBox="0 0 700 500"><rect x="0" y="0" width="700" height="500" style="fill: rgb(255, 255, 255); fill-opacity: 1;"/><defs id="defs-ba82bf"><g class="clips"><clipPath id="clipba82bfxyplot" class="plotclip"><rect width="620" height="435"/></clipPath><clipPath class="axesclip" id="clipba82bfx"><rect x="60" y="0" width="620" height="500"/></clipPath><clipPath class="axesclip" id="clipba82bfy"><rect x="0" y="25" width="700" height="435"/></clipPath><clipPath class="axesclip" id="clipba82bfxy"><rect x="60" y="25" width="620" height="435"/></clipPath></g><g class="gradients"/></defs><g class="bglayer"/><g class="layer-below"><g class="imagelayer"/><g class="shapelayer"/></g><g class="cartesianlayer"><g class="subplot xy"><g class="layer-subplot"><g class="shapelayer"/><g class="imagelayer"/></g><g class="gridlayer"><g class="x"><path class="xgrid crisp" transform="translate(215.5,0)" d="M0,25v435" style="stroke: rgb(238, 238, 238); stroke-opacity: 1; stroke-width: 1px;"/><path class="xgrid crisp" transform="translate(370,0)" d="M0,25v435" style="stroke: rgb(238, 238, 238); stroke-opacity: 1; stroke-width: 1px;"/><path class="xgrid crisp" transform="translate(524.5,0)" d="M0,25v435" style="stroke: rgb(238, 238, 238); stroke-opacity: 1; stroke-width: 1px;"/></g><g class="y"><path class="ygrid crisp" transform="translate(0,381.9)" d="M60,0h620" style="stroke: rgb(238, 238, 238); stroke-opacity: 1; stroke-width: 1px;"/><path class="ygrid crisp" transform="translate(0,324.26)" d="M60,0h620" style="stroke: rgb(238, 238, 238); stroke-opacity: 1; stroke-width: 1px;"/><path class="ygrid crisp" transform="translate(0,266.61)" d="M60,0h620" style="stroke: rgb(238, 238, 238); stroke-opacity: 1; stroke-width: 1px;"/><path class="ygrid crisp" transform="translate(0,208.97)" d="M60,0h620" style="stroke: rgb(238, 238, 238); stroke-opacity: 1; stroke-width: 1px;"/><path class="ygrid crisp" transform="translate(0,151.32)" d="M60,0h620" style="stroke: rgb(238, 238, 238); stroke-opacity: 1; stroke-width: 1px;"/><path class="ygrid crisp" transform="translate(0,93.68)" d="M60,0h620" style="stroke: rgb(238, 238, 238); stroke-opacity: 1; stroke-width: 1px;"/><path class="ygrid crisp" transform="translate(0,36.03)" d="M60,0h620" style="stroke: rgb(238, 238, 238); stroke-opacity: 1; stroke-width: 1px;"/></g></g><g class="zerolinelayer"><path class="xzl zl crisp" transform="translate(61,0)" d="M0,25v435" style="stroke: rgb(68, 68, 68); stroke-opacity: 1; stroke-width: 1px;"/><path class="yzl zl crisp" transform="translate(0,439.55)" d="M60,0h620" style="stroke: rgb(68, 68, 68); stroke-opacity: 1; stroke-width: 1px;"/></g><path class="xlines-below"/><path class="ylines-below"/><g class="overlines-below"/><g class="xaxislayer-below"/><g class="yaxislayer-below"/><g class="overaxes-below"/><g class="plot" transform="translate(60, 25)" clip-path="url('#clipba82bfxyplot')"><g class="scatterlayer mlayer"><g class="trace scatter trace0bf0e4" style="stroke-miterlimit: 2; opacity: 1;"><g class="fills"/><g class="errorbars"/><g class="lines"><path class="js-line" d="M4.09,376.59L10.27,385.17L13.36,359.81L38.08,327.59L41.17,324.1L47.35,318.69L50.44,316.11L62.8,306.35L65.89,303.67L84.43,289.59L87.52,287.02L130.78,252.74L133.87,250.25L167.86,220.45L170.95,217.14L195.67,192.47L198.76,188.79L204.94,180.87L208.03,177.87L235.84,142.54L238.93,138L263.65,102.83L266.74,97.73L288.37,62.77L291.46,57.46L303.82,34.41L306.91,28.6L310,21.75L313.09,61.77L319.27,129.5L322.36,158.17L328.54,209.23L331.63,231.55L337.81,269.83L340.9,286.27L347.08,313.8L350.17,323.17L356.35,334.94L359.44,339.37L374.89,361.46L377.98,365.54L387.25,376.11L390.34,378.26L402.7,384.56L405.79,385.77L427.42,395.64L430.51,396.54L445.96,400.56L449.05,401.3L470.68,405.48L473.77,405.88L501.58,409.07L504.67,409.32L538.66,411.44L541.75,411.58L563.38,412.19L566.47,412.25L619,413.25" style="vector-effect: non-scaling-stroke; fill: none; stroke: rgb(31, 119, 180); stroke-opacity: 1; stroke-width: 2px; opacity: 1;"/></g><g class="points"/><g class="text"/></g><g class="trace scatter tracef1d855" style="stroke-miterlimit: 2; opacity: 1;"><g class="fills"/><g class="errorbars"/><g class="lines"><path class="js-line" d="M4.09,376.59L10.27,385.17L13.36,359.81L38.08,327.59L41.17,324.1L47.35,318.69L50.44,316.11L62.8,306.35L65.89,303.67L84.43,289.59L87.52,287.02L130.78,252.74L133.87,250.25L167.86,220.45L170.95,217.14L195.67,192.47L198.76,188.79L204.94,180.87L208.03,177.87L235.84,142.54L238.93,138L263.65,102.83L266.74,97.73L288.37,62.77L291.46,57.46L303.82,34.41L306.91,28.6L310,21.75L313.09,56.98L319.27,125.24L322.36,154.16L328.54,206.68L331.63,228.67L337.81,267.17L340.9,283.49L347.08,311.88L350.17,320.78L356.35,332.43L359.44,336.87L381.07,367.57L384.16,371.34L390.34,376.68L393.43,378.46L427.42,394.13L430.51,395.05L464.5,403.44L467.59,403.98L479.95,405.89L483.04,406.4L517.03,409.73L520.12,410L544.84,411.34L547.93,411.43L619,413.03" style="vector-effect: non-scaling-stroke; fill: none; stroke: rgb(255, 127, 14); stroke-opacity: 1; stroke-width: 2px; opacity: 1;"/></g><g class="points"/><g class="text"/></g><g class="trace scatter trace80c18b" style="stroke-miterlimit: 2; opacity: 1;"><g class="fills"/><g class="errorbars"/><g class="lines"><path class="js-line" d="M4.09,376.59L10.27,385.17L13.36,359.81L38.08,327.59L41.17,324.1L47.35,318.69L50.44,316.11L62.8,306.35L65.89,303.67L84.43,289.59L87.52,287.02L130.78,252.74L133.87,250.25L167.86,220.45L170.95,217.14L195.67,192.47L198.76,188.79L204.94,180.87L208.03,177.87L235.84,142.54L238.93,138L263.65,102.83L266.74,97.73L288.37,62.77L291.46,57.46L303.82,34.41L306.91,28.6L310,21.75L313.09,50.43L319.27,118.37L322.36,147.63L328.54,201.56L331.63,224.33L337.81,263.74L340.9,280.65L347.08,309.03L350.17,317.74L359.44,332.88L362.53,337.73L374.89,356.13L377.98,360.09L387.25,371.49L390.34,373.81L418.15,388.21L421.24,389.72L427.42,392.59L430.51,393.67L442.87,396.89L445.96,397.72L476.86,404.59L479.95,404.87L498.49,407.32L501.58,407.68L535.57,410.14L538.66,410.36L569.56,411.65L572.65,411.69L600.46,412.49L603.55,412.53L619,412.8" style="vector-effect: non-scaling-stroke; fill: none; stroke: rgb(44, 160, 44); stroke-opacity: 1; stroke-width: 2px; opacity: 1;"/></g><g class="points"/><g class="text"/></g><g class="trace scatter trace5e3f8a" style="stroke-miterlimit: 2; opacity: 1;"><g class="fills"/><g class="errorbars"/><g class="lines"><path class="js-line" d="M4.09,376.59L10.27,385.17L13.36,359.81L38.08,327.59L41.17,324.1L47.35,318.69L50.44,316.11L62.8,306.35L65.89,303.67L84.43,289.59L87.52,287.02L130.78,252.74L133.87,250.25L167.86,220.45L170.95,217.14L195.67,192.47L198.76,188.79L204.94,180.87L208.03,177.87L235.84,142.54L238.93,138L263.65,102.83L266.74,97.73L288.37,62.77L291.46,57.46L303.82,34.41L306.91,28.6L310,21.75L313.09,38.6L319.27,108.54L322.36,138.06L328.54,193.75L331.63,217.03L337.81,257.96L340.9,275.36L347.08,305.05L350.17,315.18L365.62,336.88L368.71,341.34L384.16,363.65L387.25,367.48L390.34,370.63L393.43,372.19L430.51,390.37L433.6,391.72L452.14,396.87L455.23,397.62L479.95,402.9L483.04,403.4L495.4,405.15L498.49,405.49L517.03,407.62L520.12,407.81L563.38,410.45L566.47,410.52L619,412.2" style="vector-effect: non-scaling-stroke; fill: none; stroke: rgb(214, 39, 40); stroke-opacity: 1; stroke-width: 2px; opacity: 1;"/></g><g class="points"/><g class="text"/></g><g class="trace scatter tracee1ca3d" style="stroke-miterlimit: 2; opacity: 1;"><g class="fills"/><g class="errorbars"/><g class="lines"><path class="js-line" d="M4.09,376.59L10.27,385.17L13.36,359.81L38.08,327.59L41.17,324.1L47.35,318.69L50.44,316.11L62.8,306.35L65.89,303.67L84.43,289.59L87.52,287.02L130.78,252.74L133.87,250.25L167.86,220.45L170.95,217.14L195.67,192.47L198.76,188.79L204.94,180.87L208.03,177.87L235.84,142.54L238.93,138L263.65,102.83L266.74,97.73L288.37,62.77L291.46,57.46L303.82,34.41L306.91,28.6L310,21.75L313.09,27.81L316.18,52.19L319.27,85.38L328.54,174.1L331.63,199.36L337.81,242.57L340.9,261.58L347.08,292.97L350.17,305.02L353.26,311.48L356.35,313.57L362.53,319.16L365.62,323.24L374.89,337.82L377.98,342.93L387.25,356.98L390.34,361.1L393.43,364.21L396.52,365.66L418.15,375.45L421.24,377.3L430.51,383.29L433.6,384.8L439.78,387.28L442.87,388.13L458.32,392.75L461.41,393.65L483.04,399.22L486.13,399.64L504.67,402.65L507.76,402.98L517.03,404.11L520.12,404.55L563.38,408.08L566.47,408.2L606.64,410.08L609.73,410.2L619,410.44" style="vector-effect: non-scaling-stroke; fill: none; stroke: rgb(148, 103, 189); stroke-opacity: 1; stroke-width: 2px; opacity: 1;"/></g><g class="points"/><g class="text"/></g><g class="trace scatter trace537e77" style="stroke-miterlimit: 2; opacity: 1;"><g class="fills"/><g class="errorbars"/><g class="lines"><path class="js-line" d="M4.09,376.59L10.27,385.17L13.36,359.81L38.08,327.59L41.17,324.1L47.35,318.69L50.44,316.11L62.8,306.35L65.89,303.67L84.43,289.59L87.52,287.02L130.78,252.74L133.87,250.25L167.86,220.45L170.95,217.14L195.67,192.47L198.76,188.79L204.94,180.87L208.03,177.87L235.84,142.54L238.93,138L263.65,102.83L266.74,97.73L288.37,62.77L291.46,57.46L303.82,34.41L306.91,28.6L310,21.75L313.09,23.41L316.18,38.49L319.27,64.34L331.63,180.74L334.72,204.5L340.9,246.81L343.99,264.31L350.17,294.25L353.26,302.72L356.35,306.28L359.44,307.65L362.53,309.41L365.62,312.05L371.8,320.21L374.89,325.16L390.34,350.03L393.43,354.56L399.61,359.76L402.7,361.29L415.06,366.48L418.15,367.87L427.42,373.56L430.51,375.63L442.87,382.25L445.96,383.44L458.32,387.42L461.41,387.84L489.22,395.16L492.31,395.64L501.58,397.54L504.67,398.03L541.75,402.94L544.84,403.28L569.56,405.15L572.65,405.45L619,408.2" style="vector-effect: non-scaling-stroke; fill: none; stroke: rgb(140, 86, 75); stroke-opacity: 1; stroke-width: 2px; opacity: 1;"/></g><g class="points"/><g class="text"/></g></g></g><g class="overplot"/><path class="xlines-above crisp" style="fill: none;" d="M0,0"/><path class="ylines-above crisp" style="fill: none;" d="M0,0"/><g class="overlines-above"/><g class="xaxislayer-above"><g class="xtick"><text text-anchor="middle" x="0" y="473" transform="translate(61,0)" style="font-family: 'Open Sans', verdana, arial, sans-serif; font-size: 12px; fill: rgb(68, 68, 68); fill-opacity: 1; white-space: pre;">0</text></g><g class="xtick"><text text-anchor="middle" x="0" y="473" transform="translate(215.5,0)" style="font-family: 'Open Sans', verdana, arial, sans-serif; font-size: 12px; fill: rgb(68, 68, 68); fill-opacity: 1; white-space: pre;">50</text></g><g class="xtick"><text text-anchor="middle" x="0" y="473" transform="translate(370,0)" style="font-family: 'Open Sans', verdana, arial, sans-serif; font-size: 12px; fill: rgb(68, 68, 68); fill-opacity: 1; white-space: pre;">100</text></g><g class="xtick"><text text-anchor="middle" x="0" y="473" transform="translate(524.5,0)" style="font-family: 'Open Sans', verdana, arial, sans-serif; font-size: 12px; fill: rgb(68, 68, 68); fill-opacity: 1; white-space: pre;">150</text></g><g class="xtick"><text text-anchor="middle" x="0" y="473" transform="translate(679,0)" style="font-family: 'Open Sans', verdana, arial, sans-serif; font-size: 12px; fill: rgb(68, 68, 68); fill-opacity: 1; white-space: pre;">200</text></g></g><g class="yaxislayer-above"><g class="ytick"><text text-anchor="end" x="59" y="4.199999999999999" transform="translate(0,439.55)" style="font-family: 'Open Sans', verdana, arial, sans-serif; font-size: 12px; fill: rgb(68, 68, 68); fill-opacity: 1; white-space: pre;">0</text></g><g class="ytick"><text text-anchor="end" x="59" y="4.199999999999999" transform="translate(0,381.9)" style="font-family: 'Open Sans', verdana, arial, sans-serif; font-size: 12px; fill: rgb(68, 68, 68); fill-opacity: 1; white-space: pre;">200</text></g><g class="ytick"><text text-anchor="end" x="59" y="4.199999999999999" transform="translate(0,324.26)" style="font-family: 'Open Sans', verdana, arial, sans-serif; font-size: 12px; fill: rgb(68, 68, 68); fill-opacity: 1; white-space: pre;">400</text></g><g class="ytick"><text text-anchor="end" x="59" y="4.199999999999999" transform="translate(0,266.61)" style="font-family: 'Open Sans', verdana, arial, sans-serif; font-size: 12px; fill: rgb(68, 68, 68); fill-opacity: 1; white-space: pre;">600</text></g><g class="ytick"><text text-anchor="end" x="59" y="4.199999999999999" transform="translate(0,208.97)" style="font-family: 'Open Sans', verdana, arial, sans-serif; font-size: 12px; fill: rgb(68, 68, 68); fill-opacity: 1; white-space: pre;">800</text></g><g class="ytick"><text text-anchor="end" x="59" y="4.199999999999999" transform="translate(0,151.32)" style="font-family: 'Open Sans', verdana, arial, sans-serif; font-size: 12px; fill: rgb(68, 68, 68); fill-opacity: 1; white-space: pre;">1000</text></g><g class="ytick"><text text-anchor="end" x="59" y="4.199999999999999" transform="translate(0,93.68)" style="font-family: 'Open Sans', verdana, arial, sans-serif; font-size: 12px; fill: rgb(68, 68, 68); fill-opacity: 1; white-space: pre;">1200</text></g><g class="ytick"><text text-anchor="end" x="59" y="4.199999999999999" transform="translate(0,36.03)" style="font-family: 'Open Sans', verdana, arial, sans-serif; font-size: 12px; fill: rgb(68, 68, 68); fill-opacity: 1; white-space: pre;">1400</text></g></g><g class="overaxes-above"/></g></g><g class="polarlayer"/><g class="ternarylayer"/><g class="geolayer"/><g class="funnelarealayer"/><g class="pielayer"/><g class="treemaplayer"/><g class="sunburstlayer"/><g class="glimages"/><defs id="topdefs-ba82bf"><g class="clips"/><clipPath id="legendba82bf"><rect width="117" height="140" x="0" y="0"/></clipPath></defs><g class="layer-above"><g class="imagelayer"/><g class="shapelayer"><path data-index="0" fill-rule="evenodd" d="M61,208.97H679V64.85H61Z" clip-path="url('#clipba82bfxy')" style="opacity: 0.3; stroke: rgb(0, 0, 255); stroke-opacity: 1; fill: rgb(0, 0, 255); fill-opacity: 1; stroke-width: 2px;"/></g></g><g class="infolayer"><g class="legend" pointer-events="all" transform="translate(91, 46.750000000000014)"><rect class="bg" shape-rendering="crispEdges" style="stroke: rgb(68, 68, 68); stroke-opacity: 1; fill: rgb(226, 226, 226); fill-opacity: 1; stroke-width: 0px;" width="117" height="140" x="0" y="0"/><g class="scrollbox" transform="translate(0, 0)" clip-path="url('#legendba82bf')"><text class="legendtitletext user-select-none" text-anchor="start" x="2" y="15.600000000000001" style="font-family: 'Open Sans', verdana, arial, sans-serif; font-size: 12px; fill: rgb(68, 68, 68); fill-opacity: 1; white-space: pre;"><tspan style="font-weight:bold"> Identification Time </tspan></text><g class="groups"><g class="traces" transform="translate(0, 30.1)" style="opacity: 1;"><text class="legendtext user-select-none" text-anchor="start" x="40" y="4.680000000000001" style="font-family: 'Open Sans', verdana, arial, sans-serif; font-size: 12px; fill: rgb(68, 68, 68); fill-opacity: 1; white-space: pre;">0 Months</text><g class="layers" style="opacity: 1;"><g class="legendfill"/><g class="legendlines"><path class="js-line" d="M5,0h30" style="fill: none; stroke: rgb(31, 119, 180); stroke-opacity: 1; stroke-width: 2px;"/></g><g class="legendsymbols"><g class="legendpoints"/></g></g><rect class="legendtoggle" pointer-events="all" x="0" y="-9.5" width="98.046875" height="19" style="cursor: pointer; fill: rgb(0, 0, 0); fill-opacity: 0;"/></g><g class="traces" transform="translate(0, 49.1)" style="opacity: 1;"><text class="legendtext user-select-none" text-anchor="start" x="40" y="4.680000000000001" style="font-family: 'Open Sans', verdana, arial, sans-serif; font-size: 12px; fill: rgb(68, 68, 68); fill-opacity: 1; white-space: pre;">3 Months</text><g class="layers" style="opacity: 1;"><g class="legendfill"/><g class="legendlines"><path class="js-line" d="M5,0h30" style="fill: none; stroke: rgb(255, 127, 14); stroke-opacity: 1; stroke-width: 2px;"/></g><g class="legendsymbols"><g class="legendpoints"/></g></g><rect class="legendtoggle" pointer-events="all" x="0" y="-9.5" width="98.046875" height="19" style="cursor: pointer; fill: rgb(0, 0, 0); fill-opacity: 0;"/></g><g class="traces" transform="translate(0, 68.1)" style="opacity: 1;"><text class="legendtext user-select-none" text-anchor="start" x="40" y="4.680000000000001" style="font-family: 'Open Sans', verdana, arial, sans-serif; font-size: 12px; fill: rgb(68, 68, 68); fill-opacity: 1; white-space: pre;">6 Months</text><g class="layers" style="opacity: 1;"><g class="legendfill"/><g class="legendlines"><path class="js-line" d="M5,0h30" style="fill: none; stroke: rgb(44, 160, 44); stroke-opacity: 1; stroke-width: 2px;"/></g><g class="legendsymbols"><g class="legendpoints"/></g></g><rect class="legendtoggle" pointer-events="all" x="0" y="-9.5" width="98.046875" height="19" style="cursor: pointer; fill: rgb(0, 0, 0); fill-opacity: 0;"/></g><g class="traces" transform="translate(0, 87.1)" style="opacity: 1;"><text class="legendtext user-select-none" text-anchor="start" x="40" y="4.680000000000001" style="font-family: 'Open Sans', verdana, arial, sans-serif; font-size: 12px; fill: rgb(68, 68, 68); fill-opacity: 1; white-space: pre;">12 Months</text><g class="layers" style="opacity: 1;"><g class="legendfill"/><g class="legendlines"><path class="js-line" d="M5,0h30" style="fill: none; stroke: rgb(214, 39, 40); stroke-opacity: 1; stroke-width: 2px;"/></g><g class="legendsymbols"><g class="legendpoints"/></g></g><rect class="legendtoggle" pointer-events="all" x="0" y="-9.5" width="98.046875" height="19" style="cursor: pointer; fill: rgb(0, 0, 0); fill-opacity: 0;"/></g><g class="traces" transform="translate(0, 106.1)" style="opacity: 1;"><text class="legendtext user-select-none" text-anchor="start" x="40" y="4.680000000000001" style="font-family: 'Open Sans', verdana, arial, sans-serif; font-size: 12px; fill: rgb(68, 68, 68); fill-opacity: 1; white-space: pre;">24 Months</text><g class="layers" style="opacity: 1;"><g class="legendfill"/><g class="legendlines"><path class="js-line" d="M5,0h30" style="fill: none; stroke: rgb(148, 103, 189); stroke-opacity: 1; stroke-width: 2px;"/></g><g class="legendsymbols"><g class="legendpoints"/></g></g><rect class="legendtoggle" pointer-events="all" x="0" y="-9.5" width="98.046875" height="19" style="cursor: pointer; fill: rgb(0, 0, 0); fill-opacity: 0;"/></g><g class="traces" transform="translate(0, 125.1)" style="opacity: 1;"><text class="legendtext user-select-none" text-anchor="start" x="40" y="4.680000000000001" style="font-family: 'Open Sans', verdana, arial, sans-serif; font-size: 12px; fill: rgb(68, 68, 68); fill-opacity: 1; white-space: pre;">36 Months</text><g class="layers" style="opacity: 1;"><g class="legendfill"/><g class="legendlines"><path class="js-line" d="M5,0h30" style="fill: none; stroke: rgb(140, 86, 75); stroke-opacity: 1; stroke-width: 2px;"/></g><g class="legendsymbols"><g class="legendpoints"/></g></g><rect class="legendtoggle" pointer-events="all" x="0" y="-9.5" width="98.046875" height="19" style="cursor: pointer; fill: rgb(0, 0, 0); fill-opacity: 0;"/></g></g></g><rect class="scrollbar" rx="20" ry="3" width="0" height="0" style="fill: rgb(128, 139, 164); fill-opacity: 1;" x="0" y="0"/></g><g class="g-gtitle"><text class="gtitle" x="350" y="12.5" text-anchor="middle" dy="0em" style="font-family: 'Open Sans', verdana, arial, sans-serif; font-size: 17px; fill: rgb(68, 68, 68); opacity: 1; font-weight: normal; white-space: pre;"><tspan style="font-weight:bold"> Leprosy Prevalence - Immunity Vaccine 0.99, Treatment 75% </tspan></text></g><g class="g-xtitle" transform="translate(0,-15)"><text class="xtitle" x="370" y="512" text-anchor="middle" style="font-family: 'Open Sans', verdana, arial, sans-serif; font-size: 14px; fill: rgb(68, 68, 68); opacity: 1; font-weight: normal; white-space: pre;">Time(Years)</text></g><g class="g-ytitle"><text class="ytitle" transform="rotate(-90,22,242.5)" x="22" y="242.5" text-anchor="middle" style="font-family: 'Open Sans', verdana, arial, sans-serif; font-size: 14px; fill: rgb(68, 68, 68); opacity: 1; font-weight: normal; white-space: pre;">Number of infectiuos individuals</text></g></g></svg>