<svg class="main-svg" xmlns="http://www.w3.org/2000/svg" xmlns:xlink="http://www.w3.org/1999/xlink" width="700" height="500" style="" viewBox="0 0 700 500"><rect x="0" y="0" width="700" height="500" style="fill: rgb(255, 255, 255); fill-opacity: 1;"/><defs id="defs-17f91b"><g class="clips"><clipPath id="clip17f91bxyplot" class="plotclip"><rect width="620" height="435"/></clipPath><clipPath class="axesclip" id="clip17f91bx"><rect x="60" y="0" width="620" height="500"/></clipPath><clipPath class="axesclip" id="clip17f91by"><rect x="0" y="25" width="700" height="435"/></clipPath><clipPath class="axesclip" id="clip17f91bxy"><rect x="60" y="25" width="620" height="435"/></clipPath></g><g class="gradients"/></defs><g class="bglayer"/><g class="layer-below"><g class="imagelayer"/><g class="shapelayer"/></g><g class="cartesianlayer"><g class="subplot xy"><g class="layer-subplot"><g class="shapelayer"/><g class="imagelayer"/></g><g class="gridlayer"><g class="x"><path class="xgrid crisp" transform="translate(215.5,0)" d="M0,25v435" style="stroke: rgb(238, 238, 238); stroke-opacity: 1; stroke-width: 1px;"/><path class="xgrid crisp" transform="translate(370,0)" d="M0,25v435" style="stroke: rgb(238, 238, 238); stroke-opacity: 1; stroke-width: 1px;"/><path class="xgrid crisp" transform="translate(524.5,0)" d="M0,25v435" style="stroke: rgb(238, 238, 238); stroke-opacity: 1; stroke-width: 1px;"/></g><g class="y"><path class="ygrid crisp" transform="translate(0,383.39)" d="M60,0h620" style="stroke: rgb(238, 238, 238); stroke-opacity: 1; stroke-width: 1px;"/><path class="ygrid crisp" transform="translate(0,325.49)" d="M60,0h620" style="stroke: rgb(238, 238, 238); stroke-opacity: 1; stroke-width: 1px;"/><path class="ygrid crisp" transform="translate(0,267.59000000000003)" d="M60,0h620" style="stroke: rgb(238, 238, 238); stroke-opacity: 1; stroke-width: 1px;"/><path class="ygrid crisp" transform="translate(0,209.69)" d="M60,0h620" style="stroke: rgb(238, 238, 238); stroke-opacity: 1; stroke-width: 1px;"/><path class="ygrid crisp" transform="translate(0,151.79000000000002)" d="M60,0h620" style="stroke: rgb(238, 238, 238); stroke-opacity: 1; stroke-width: 1px;"/><path class="ygrid crisp" transform="translate(0,93.89)" d="M60,0h620" style="stroke: rgb(238, 238, 238); stroke-opacity: 1; stroke-width: 1px;"/><path class="ygrid crisp" transform="translate(0,35.980000000000004)" d="M60,0h620" style="stroke: rgb(238, 238, 238); stroke-opacity: 1; stroke-width: 1px;"/></g></g><g class="zerolinelayer"><path class="xzl zl crisp" transform="translate(61,0)" d="M0,25v435" style="stroke: rgb(68, 68, 68); stroke-opacity: 1; stroke-width: 1px;"/><path class="yzl zl crisp" transform="translate(0,441.29)" d="M60,0h620" style="stroke: rgb(68, 68, 68); stroke-opacity: 1; stroke-width: 1px;"/></g><path class="xlines-below"/><path class="ylines-below"/><g class="overlines-below"/><g class="xaxislayer-below"/><g class="yaxislayer-below"/><g class="overaxes-below"/><g class="plot" transform="translate(60, 25)" clip-path="url('#clip17f91bxyplot')"><g class="scatterlayer mlayer"><g class="trace scatter trace8a4627" style="stroke-miterlimit: 2; opacity: 1;"><g class="fills"/><g class="errorbars"/><g class="lines"><path class="js-line" d="M4.09,378.16L10.27,386.78L13.36,361.31L38.08,328.94L41.17,325.44L47.35,320L50.44,317.41L62.8,307.61L65.89,304.92L84.43,290.77L87.52,288.19L130.78,253.76L133.87,251.26L167.86,221.33L170.95,218L195.67,193.23L198.76,189.53L204.94,181.58L208.03,178.56L235.84,143.08L238.93,138.52L263.65,103.19L266.74,98.07L288.37,62.95L291.46,57.62L303.82,34.47L306.91,28.63L310,21.75L313.09,61.94L319.27,130.07L322.36,159.26L328.54,209.95L331.63,231.72L337.81,269.4L340.9,285.39L347.08,312.61L350.17,321.35L356.35,332.7L359.44,337.03L371.8,353.71L374.89,357.54L384.16,368.6L387.25,371.43L393.43,376.03L396.52,377.37L430.51,392.36L433.6,393.5L458.32,399.69L461.41,400.35L489.22,404.94L492.31,405.33L517.03,408.25L520.12,408.52L572.65,411.77L575.74,411.88L600.46,412.71L603.55,412.73L619,413.25" style="vector-effect: non-scaling-stroke; fill: none; stroke: rgb(31, 119, 180); stroke-opacity: 1; stroke-width: 2px; opacity: 1;"/></g><g class="points"/><g class="text"/></g><g class="trace scatter tracec26b4e" style="stroke-miterlimit: 2; opacity: 1;"><g class="fills"/><g class="errorbars"/><g class="lines"><path class="js-line" d="M4.09,378.16L10.27,386.78L13.36,361.31L38.08,328.94L41.17,325.44L47.35,320L50.44,317.41L62.8,307.61L65.89,304.92L84.43,290.77L87.52,288.19L130.78,253.76L133.87,251.26L167.86,221.33L170.95,218L195.67,193.23L198.76,189.53L204.94,181.58L208.03,178.56L235.84,143.08L238.93,138.52L263.65,103.19L266.74,98.07L288.37,62.95L291.46,57.62L303.82,34.47L306.91,28.63L310,21.75L313.09,57.13L319.27,125.69L322.36,154.19L328.54,205.93L331.63,227.8L340.9,281.83L343.99,296.59L347.08,309.91L350.17,318.4L356.35,329.09L359.44,333.05L374.89,354.35L377.98,358.04L387.25,368.65L390.34,370.95L399.61,376.03L402.7,377.32L418.15,384.06L421.24,385.72L433.6,390.86L436.69,391.81L458.32,397.56L461.41,398.28L479.95,401.93L483.04,402.53L510.85,406.2L513.94,406.59L551.02,409.66L554.11,409.88L581.92,411.24L585.01,411.29L615.91,412.51L619,412.58" style="vector-effect: non-scaling-stroke; fill: none; stroke: rgb(255, 127, 14); stroke-opacity: 1; stroke-width: 2px; opacity: 1;"/></g><g class="points"/><g class="text"/></g><g class="trace scatter trace70c4e5" style="stroke-miterlimit: 2; opacity: 1;"><g class="fills"/><g class="errorbars"/><g class="lines"><path class="js-line" d="M4.09,378.16L10.27,386.78L13.36,361.31L38.08,328.94L41.17,325.44L47.35,320L50.44,317.41L62.8,307.61L65.89,304.92L84.43,290.77L87.52,288.19L130.78,253.76L133.87,251.26L167.86,221.33L170.95,218L195.67,193.23L198.76,189.53L204.94,181.58L208.03,178.56L235.84,143.08L238.93,138.52L263.65,103.19L266.74,98.07L288.37,62.95L291.46,57.62L303.82,34.47L306.91,28.63L310,21.75L313.09,50.56L319.27,120.24L322.36,149.71L328.54,202.16L331.63,224.17L337.81,262L340.9,278.49L347.08,306.86L350.17,315.26L359.44,329.31L362.53,333.3L381.07,357.89L384.16,361.68L387.25,365.52L390.34,368.1L405.79,376.06L408.88,377.41L421.24,383.23L424.33,384.93L433.6,388.88L436.69,389.92L464.5,397.02L467.59,397.72L483.04,400.56L486.13,401.21L517.03,405.38L520.12,405.76L541.75,407.92L544.84,407.99L603.55,411.18L606.64,411.29L619,411.73" style="vector-effect: non-scaling-stroke; fill: none; stroke: rgb(44, 160, 44); stroke-opacity: 1; stroke-width: 2px; opacity: 1;"/></g><g class="points"/><g class="text"/></g><g class="trace scatter traceb55cfa" style="stroke-miterlimit: 2; opacity: 1;"><g class="fills"/><g class="errorbars"/><g class="lines"><path class="js-line" d="M4.09,378.16L10.27,386.78L13.36,361.31L38.08,328.94L41.17,325.44L47.35,320L50.44,317.41L62.8,307.61L65.89,304.92L84.43,290.77L87.52,288.19L130.78,253.76L133.87,251.26L167.86,221.33L170.95,218L195.67,193.23L198.76,189.53L204.94,181.58L208.03,178.56L235.84,143.08L238.93,138.52L263.65,103.19L266.74,98.07L288.37,62.95L291.46,57.62L303.82,34.47L306.91,28.63L310,21.75L313.09,38.67L319.27,108.37L322.36,138.31L328.54,192.22L331.63,215.08L340.9,271.97L343.99,287.3L347.08,301.01L350.17,310.74L377.98,347.51L381.07,351.74L387.25,359.78L390.34,362.69L399.61,367.49L402.7,368.94L415.06,374.96L418.15,376.25L430.51,382.89L433.6,383.8L473.77,395.31L476.86,395.82L489.22,398.35L492.31,398.81L557.2,405.82L560.29,406.07L578.83,407.51L581.92,407.55L600.46,408.85L603.55,408.82L619,409.59" style="vector-effect: non-scaling-stroke; fill: none; stroke: rgb(214, 39, 40); stroke-opacity: 1; stroke-width: 2px; opacity: 1;"/></g><g class="points"/><g class="text"/></g><g class="trace scatter trace5ef47f" style="stroke-miterlimit: 2; opacity: 1;"><g class="fills"/><g class="errorbars"/><g class="lines"><path class="js-line" d="M4.09,378.16L10.27,386.78L13.36,361.31L38.08,328.94L41.17,325.44L47.35,320L50.44,317.41L62.8,307.61L65.89,304.92L84.43,290.77L87.52,288.19L130.78,253.76L133.87,251.26L167.86,221.33L170.95,218L195.67,193.23L198.76,189.53L204.94,181.58L208.03,178.56L235.84,143.08L238.93,138.52L263.65,103.19L266.74,98.07L288.37,62.95L291.46,57.62L303.82,34.47L306.91,28.63L310,21.75L313.09,27.83L316.18,53.27L319.27,85.82L328.54,172.04L331.63,196.1L340.9,256.5L343.99,272.8L350.17,299.43L353.26,305.01L359.44,308.88L362.53,311.57L365.62,314.77L368.71,319.33L377.98,332.06L381.07,336.87L390.34,350.06L393.43,352.91L399.61,356.13L402.7,357.09L411.97,360.44L415.06,362.46L421.24,365.42L424.33,367.23L436.69,373.5L439.78,374.88L455.23,379.88L458.32,380.43L486.13,388.4L489.22,388.57L507.76,391.62L510.85,392.11L529.39,394.68L532.48,395.02L554.11,397.9L557.2,398.04L594.28,401.29L597.37,401.48L619,402.93" style="vector-effect: non-scaling-stroke; fill: none; stroke: rgb(148, 103, 189); stroke-opacity: 1; stroke-width: 2px; opacity: 1;"/></g><g class="points"/><g class="text"/></g><g class="trace scatter traced943e0" style="stroke-miterlimit: 2; opacity: 1;"><g class="fills"/><g class="errorbars"/><g class="lines"><path class="js-line" d="M4.09,378.16L10.27,386.78L13.36,361.31L38.08,328.94L41.17,325.44L47.35,320L50.44,317.41L62.8,307.61L65.89,304.92L84.43,290.77L87.52,288.19L130.78,253.76L133.87,251.26L167.86,221.33L170.95,218L195.67,193.23L198.76,189.53L204.94,181.58L208.03,178.56L235.84,143.08L238.93,138.52L263.65,103.19L266.74,98.07L288.37,62.95L291.46,57.62L303.82,34.47L306.91,28.63L310,21.75L313.09,23.42L316.18,38.22L319.27,64.43L331.63,175.58L334.72,198.71L340.9,238.96L343.99,256.16L350.17,285.7L353.26,294.27L356.35,298.13L359.44,299.23L362.53,300.1L365.62,302.05L371.8,308.67L374.89,312.21L393.43,338.95L396.52,342.26L399.61,344.68L402.7,345.68L415.06,349.99L418.15,351.58L433.6,359.34L436.69,361.2L449.05,366.28L452.14,367.24L461.41,369.79L464.5,370.81L470.68,372.32L473.77,373.08L489.22,376.99L492.31,377.91L523.21,383.43L526.3,384.05L563.38,388.23L566.47,388.85L578.83,389.73L581.92,390.09L619,392.94" style="vector-effect: non-scaling-stroke; fill: none; stroke: rgb(140, 86, 75); stroke-opacity: 1; stroke-width: 2px; opacity: 1;"/></g><g class="points"/><g class="text"/></g></g></g><g class="overplot"/><path class="xlines-above crisp" style="fill: none;" d="M0,0"/><path class="ylines-above crisp" style="fill: none;" d="M0,0"/><g class="overlines-above"/><g class="xaxislayer-above"><g class="xtick"><text text-anchor="middle" x="0" y="473" transform="translate(61,0)" style="font-family: 'Open Sans', verdana, arial, sans-serif; font-size: 12px; fill: rgb(68, 68, 68); fill-opacity: 1; white-space: pre;">0</text></g><g class="xtick"><text text-anchor="middle" x="0" y="473" transform="translate(215.5,0)" style="font-family: 'Open Sans', verdana, arial, sans-serif; font-size: 12px; fill: rgb(68, 68, 68); fill-opacity: 1; white-space: pre;">50</text></g><g class="xtick"><text text-anchor="middle" x="0" y="473" transform="translate(370,0)" style="font-family: 'Open Sans', verdana, arial, sans-serif; font-size: 12px; fill: rgb(68, 68, 68); fill-opacity: 1; white-space: pre;">100</text></g><g class="xtick"><text text-anchor="middle" x="0" y="473" transform="translate(524.5,0)" style="font-family: 'Open Sans', verdana, arial, sans-serif; font-size: 12px; fill: rgb(68, 68, 68); fill-opacity: 1; white-space: pre;">150</text></g><g class="xtick"><text text-anchor="middle" x="0" y="473" transform="translate(679,0)" style="font-family: 'Open Sans', verdana, arial, sans-serif; font-size: 12px; fill: rgb(68, 68, 68); fill-opacity: 1; white-space: pre;">200</text></g></g><g class="yaxislayer-above"><g class="ytick"><text text-anchor="end" x="59" y="4.199999999999999" transform="translate(0,441.29)" style="font-family: 'Open Sans', verdana, arial, sans-serif; font-size: 12px; fill: rgb(68, 68, 68); fill-opacity: 1; white-space: pre;">0</text></g><g class="ytick"><text text-anchor="end" x="59" y="4.199999999999999" transform="translate(0,383.39)" style="font-family: 'Open Sans', verdana, arial, sans-serif; font-size: 12px; fill: rgb(68, 68, 68); fill-opacity: 1; white-space: pre;">200</text></g><g class="ytick"><text text-anchor="end" x="59" y="4.199999999999999" transform="translate(0,325.49)" style="font-family: 'Open Sans', verdana, arial, sans-serif; font-size: 12px; fill: rgb(68, 68, 68); fill-opacity: 1; white-space: pre;">400</text></g><g class="ytick"><text text-anchor="end" x="59" y="4.199999999999999" transform="translate(0,267.59000000000003)" style="font-family: 'Open Sans', verdana, arial, sans-serif; font-size: 12px; fill: rgb(68, 68, 68); fill-opacity: 1; white-space: pre;">600</text></g><g class="ytick"><text text-anchor="end" x="59" y="4.199999999999999" transform="translate(0,209.69)" style="font-family: 'Open Sans', verdana, arial, sans-serif; font-size: 12px; fill: rgb(68, 68, 68); fill-opacity: 1; white-space: pre;">800</text></g><g class="ytick"><text text-anchor="end" x="59" y="4.199999999999999" transform="translate(0,151.79000000000002)" style="font-family: 'Open Sans', verdana, arial, sans-serif; font-size: 12px; fill: rgb(68, 68, 68); fill-opacity: 1; white-space: pre;">1000</text></g><g class="ytick"><text text-anchor="end" x="59" y="4.199999999999999" transform="translate(0,93.89)" style="font-family: 'Open Sans', verdana, arial, sans-serif; font-size: 12px; fill: rgb(68, 68, 68); fill-opacity: 1; white-space: pre;">1200</text></g><g class="ytick"><text text-anchor="end" x="59" y="4.199999999999999" transform="translate(0,35.980000000000004)" style="font-family: 'Open Sans', verdana, arial, sans-serif; font-size: 12px; fill: rgb(68, 68, 68); fill-opacity: 1; white-space: pre;">1400</text></g></g><g class="overaxes-above"/></g></g><g class="polarlayer"/><g class="ternarylayer"/><g class="geolayer"/><g class="funnelarealayer"/><g class="pielayer"/><g class="treemaplayer"/><g class="sunburstlayer"/><g class="glimages"/><defs id="topdefs-17f91b"><g class="clips"/><clipPath id="legend17f91b"><rect width="117" height="140" x="0" y="0"/></clipPath></defs><g class="layer-above"><g class="imagelayer"/><g class="shapelayer"><path data-index="0" fill-rule="evenodd" d="M61,209.69H679V64.94H61Z" clip-path="url('#clip17f91bxy')" style="opacity: 0.3; stroke: rgb(0, 0, 255); stroke-opacity: 1; fill: rgb(0, 0, 255); fill-opacity: 1; stroke-width: 2px;"/></g></g><g class="infolayer"><g class="legend" pointer-events="all" transform="translate(91, 46.750000000000014)"><rect class="bg" shape-rendering="crispEdges" style="stroke: rgb(68, 68, 68); stroke-opacity: 1; fill: rgb(226, 226, 226); fill-opacity: 1; stroke-width: 0px;" width="117" height="140" x="0" y="0"/><g class="scrollbox" transform="translate(0, 0)" clip-path="url('#legend17f91b')"><text class="legendtitletext user-select-none" text-anchor="start" x="2" y="15.600000000000001" style="font-family: 'Open Sans', verdana, arial, sans-serif; font-size: 12px; fill: rgb(68, 68, 68); fill-opacity: 1; white-space: pre;"><tspan style="font-weight:bold"> Identification Time </tspan></text><g class="groups"><g class="traces" transform="translate(0, 30.1)" style="opacity: 1;"><text class="legendtext user-select-none" text-anchor="start" x="40" y="4.680000000000001" style="font-family: 'Open Sans', verdana, arial, sans-serif; font-size: 12px; fill: rgb(68, 68, 68); fill-opacity: 1; white-space: pre;">0 Months</text><g class="layers" style="opacity: 1;"><g class="legendfill"/><g class="legendlines"><path class="js-line" d="M5,0h30" style="fill: none; stroke: rgb(31, 119, 180); stroke-opacity: 1; stroke-width: 2px;"/></g><g class="legendsymbols"><g class="legendpoints"/></g></g><rect class="legendtoggle" pointer-events="all" x="0" y="-9.5" width="98.046875" height="19" style="cursor: pointer; fill: rgb(0, 0, 0); fill-opacity: 0;"/></g><g class="traces" transform="translate(0, 49.1)" style="opacity: 1;"><text class="legendtext user-select-none" text-anchor="start" x="40" y="4.680000000000001" style="font-family: 'Open Sans', verdana, arial, sans-serif; font-size: 12px; fill: rgb(68, 68, 68); fill-opacity: 1; white-space: pre;">3 Months</text><g class="layers" style="opacity: 1;"><g class="legendfill"/><g class="legendlines"><path class="js-line" d="M5,0h30" style="fill: none; stroke: rgb(255, 127, 14); stroke-opacity: 1; stroke-width: 2px;"/></g><g class="legendsymbols"><g class="legendpoints"/></g></g><rect class="legendtoggle" pointer-events="all" x="0" y="-9.5" width="98.046875" height="19" style="cursor: pointer; fill: rgb(0, 0, 0); fill-opacity: 0;"/></g><g class="traces" transform="translate(0, 68.1)" style="opacity: 1;"><text class="legendtext user-select-none" text-anchor="start" x="40" y="4.680000000000001" style="font-family: 'Open Sans', verdana, arial, sans-serif; font-size: 12px; fill: rgb(68, 68, 68); fill-opacity: 1; white-space: pre;">6 Months</text><g class="layers" style="opacity: 1;"><g class="legendfill"/><g class="legendlines"><path class="js-line" d="M5,0h30" style="fill: none; stroke: rgb(44, 160, 44); stroke-opacity: 1; stroke-width: 2px;"/></g><g class="legendsymbols"><g class="legendpoints"/></g></g><rect class="legendtoggle" pointer-events="all" x="0" y="-9.5" width="98.046875" height="19" style="cursor: pointer; fill: rgb(0, 0, 0); fill-opacity: 0;"/></g><g class="traces" transform="translate(0, 87.1)" style="opacity: 1;"><text class="legendtext user-select-none" text-anchor="start" x="40" y="4.680000000000001" style="font-family: 'Open Sans', verdana, arial, sans-serif; font-size: 12px; fill: rgb(68, 68, 68); fill-opacity: 1; white-space: pre;">12 Months</text><g class="layers" style="opacity: 1;"><g class="legendfill"/><g class="legendlines"><path class="js-line" d="M5,0h30" style="fill: none; stroke: rgb(214, 39, 40); stroke-opacity: 1; stroke-width: 2px;"/></g><g class="legendsymbols"><g class="legendpoints"/></g></g><rect class="legendtoggle" pointer-events="all" x="0" y="-9.5" width="98.046875" height="19" style="cursor: pointer; fill: rgb(0, 0, 0); fill-opacity: 0;"/></g><g class="traces" transform="translate(0, 106.1)" style="opacity: 1;"><text class="legendtext user-select-none" text-anchor="start" x="40" y="4.680000000000001" style="font-family: 'Open Sans', verdana, arial, sans-serif; font-size: 12px; fill: rgb(68, 68, 68); fill-opacity: 1; white-space: pre;">24 Months</text><g class="layers" style="opacity: 1;"><g class="legendfill"/><g class="legendlines"><path class="js-line" d="M5,0h30" style="fill: none; stroke: rgb(148, 103, 189); stroke-opacity: 1; stroke-width: 2px;"/></g><g class="legendsymbols"><g class="legendpoints"/></g></g><rect class="legendtoggle" pointer-events="all" x="0" y="-9.5" width="98.046875" height="19" style="cursor: pointer; fill: rgb(0, 0, 0); fill-opacity: 0;"/></g><g class="traces" transform="translate(0, 125.1)" style="opacity: 1;"><text class="legendtext user-select-none" text-anchor="start" x="40" y="4.680000000000001" style="font-family: 'Open Sans', verdana, arial, sans-serif; font-size: 12px; fill: rgb(68, 68, 68); fill-opacity: 1; white-space: pre;">36 Months</text><g class="layers" style="opacity: 1;"><g class="legendfill"/><g class="legendlines"><path class="js-line" d="M5,0h30" style="fill: none; stroke: rgb(140, 86, 75); stroke-opacity: 1; stroke-width: 2px;"/></g><g class="legendsymbols"><g class="legendpoints"/></g></g><rect class="legendtoggle" pointer-events="all" x="0" y="-9.5" width="98.046875" height="19" style="cursor: pointer; fill: rgb(0, 0, 0); fill-opacity: 0;"/></g></g></g><rect class="scrollbar" rx="20" ry="3" width="0" height="0" style="fill: rgb(128, 139, 164); fill-opacity: 1;" x="0" y="0"/></g><g class="g-gtitle"><text class="gtitle" x="350" y="12.5" text-anchor="middle" dy="0em" style="font-family: 'Open Sans', verdana, arial, sans-serif; font-size: 17px; fill: rgb(68, 68, 68); opacity: 1; font-weight: normal; white-space: pre;"><tspan style="font-weight:bold"> Leprosy Prevalence - Immunity Vaccine 0.5, Treatment 75% </tspan></text></g><g class="g-xtitle" transform="translate(0,-15)"><text class="xtitle" x="370" y="512" text-anchor="middle" style="font-family: 'Open Sans', verdana, arial, sans-serif; font-size: 14px; fill: rgb(68, 68, 68); opacity: 1; font-weight: normal; white-space: pre;">Time(Years)</text></g><g class="g-ytitle"><text class="ytitle" transform="rotate(-90,22,242.5)" x="22" y="242.5" text-anchor="middle" style="font-family: 'Open Sans', verdana, arial, sans-serif; font-size: 14px; fill: rgb(68, 68, 68); opacity: 1; font-weight: normal; white-space: pre;">Number of infectiuos individuals</text></g></g></svg>