<svg class="main-svg" xmlns="http://www.w3.org/2000/svg" xmlns:xlink="http://www.w3.org/1999/xlink" width="700" height="500" style="" viewBox="0 0 700 500"><rect x="0" y="0" width="700" height="500" style="fill: rgb(255, 255, 255); fill-opacity: 1;"/><defs id="defs-c3498f"><g class="clips"><clipPath id="clipc3498fxyplot" class="plotclip"><rect width="620" height="435"/></clipPath><clipPath class="axesclip" id="clipc3498fx"><rect x="60" y="0" width="620" height="500"/></clipPath><clipPath class="axesclip" id="clipc3498fy"><rect x="0" y="25" width="700" height="435"/></clipPath><clipPath class="axesclip" id="clipc3498fxy"><rect x="60" y="25" width="620" height="435"/></clipPath></g><g class="gradients"/></defs><g class="bglayer"/><g class="layer-below"><g class="imagelayer"/><g class="shapelayer"/></g><g class="cartesianlayer"><g class="subplot xy"><g class="layer-subplot"><g class="shapelayer"/><g class="imagelayer"/></g><g class="gridlayer"><g class="x"><path class="xgrid crisp" transform="translate(215.5,0)" d="M0,25v435" style="stroke: rgb(238, 238, 238); stroke-opacity: 1; stroke-width: 1px;"/><path class="xgrid crisp" transform="translate(370,0)" d="M0,25v435" style="stroke: rgb(238, 238, 238); stroke-opacity: 1; stroke-width: 1px;"/><path class="xgrid crisp" transform="translate(524.5,0)" d="M0,25v435" style="stroke: rgb(238, 238, 238); stroke-opacity: 1; stroke-width: 1px;"/></g><g class="y"><path class="ygrid crisp" transform="translate(0,379.8)" d="M60,0h620" style="stroke: rgb(238, 238, 238); stroke-opacity: 1; stroke-width: 1px;"/><path class="ygrid crisp" transform="translate(0,306.38)" d="M60,0h620" style="stroke: rgb(238, 238, 238); stroke-opacity: 1; stroke-width: 1px;"/><path class="ygrid crisp" transform="translate(0,232.96)" d="M60,0h620" style="stroke: rgb(238, 238, 238); stroke-opacity: 1; stroke-width: 1px;"/><path class="ygrid crisp" transform="translate(0,159.55)" d="M60,0h620" style="stroke: rgb(238, 238, 238); stroke-opacity: 1; stroke-width: 1px;"/><path class="ygrid crisp" transform="translate(0,86.13)" d="M60,0h620" style="stroke: rgb(238, 238, 238); stroke-opacity: 1; stroke-width: 1px;"/></g></g><g class="zerolinelayer"><path class="xzl zl crisp" transform="translate(61,0)" d="M0,25v435" style="stroke: rgb(68, 68, 68); stroke-opacity: 1; stroke-width: 1px;"/><path class="yzl zl crisp" transform="translate(0,453.22)" d="M60,0h620" style="stroke: rgb(68, 68, 68); stroke-opacity: 1; stroke-width: 1px;"/></g><path class="xlines-below"/><path class="ylines-below"/><g class="overlines-below"/><g class="xaxislayer-below"/><g class="yaxislayer-below"/><g class="overaxes-below"/><g class="plot" transform="translate(60, 25)" clip-path="url('#clipc3498fxyplot')"><g class="scatterlayer mlayer"><g class="trace scatter trace6554b4" style="stroke-miterlimit: 2; opacity: 1;"><g class="fills"/><g class="errorbars"/><g class="lines"><path class="js-line" d="M4.09,408.88L10.27,413.25L13.36,400.33L41.17,382.13L44.26,380.52L62.8,373.09L65.89,371.73L96.79,359.54L99.88,358.35L136.96,343.14L140.05,341.84L158.59,333.85L161.68,332.56L186.4,320.13L189.49,318.23L195.67,315.08L198.76,313.2L211.12,305.66L214.21,303.64L223.48,297.76L226.57,295.66L251.29,278.74L254.38,276.44L285.28,251.69L288.37,249L303.82,234.56L306.91,231.6L310,228.11L313.09,233.38L325.45,250.78L328.54,254.67L340.9,269.57L343.99,272.96L347.08,276.47L350.17,278.57L359.44,280.49L362.53,280.82L371.8,281.41L374.89,281.58L393.43,281.99L396.52,281.57L402.7,281.07L405.79,280.71L433.6,275.43L436.69,274.47L449.05,271.63L452.14,270.89L476.86,264.07L479.95,262.96L486.13,260.76L489.22,259.71L495.4,257.41L498.49,255.54L504.67,253.01L507.76,251.58L523.21,244.46L526.3,242.57L551.02,228.88L554.11,226.9L563.38,222.07L566.47,220.36L606.64,191.76L609.73,188.91L619,181.28" style="vector-effect: non-scaling-stroke; fill: none; stroke: rgb(31, 119, 180); stroke-opacity: 1; stroke-width: 2px; opacity: 1;"/></g><g class="points"/><g class="text"/></g><g class="trace scatter trace8f7513" style="stroke-miterlimit: 2; opacity: 1;"><g class="fills"/><g class="errorbars"/><g class="lines"><path class="js-line" d="M4.09,408.88L10.27,413.25L13.36,400.33L41.17,382.13L44.26,380.52L62.8,373.09L65.89,371.73L96.79,359.54L99.88,358.35L136.96,343.14L140.05,341.84L158.59,333.85L161.68,332.56L186.4,320.13L189.49,318.23L195.67,315.08L198.76,313.2L211.12,305.66L214.21,303.64L223.48,297.76L226.57,295.66L251.29,278.74L254.38,276.44L285.28,251.69L288.37,249L303.82,234.56L306.91,231.6L310,228.11L313.09,231.74L322.36,244.45L325.45,248.26L343.99,270.12L347.08,273.43L350.17,275.64L353.26,276.61L359.44,277.61L362.53,277.76L371.8,278.15L374.89,278.25L381.07,278.55L384.16,278.87L393.43,278.67L396.52,278.18L418.15,275.13L421.24,274.49L430.51,272.63L433.6,271.8L458.32,264.54L461.41,263.35L479.95,257.18L483.04,255.79L513.94,241.65L517.03,239.81L526.3,234.92L529.39,233.33L538.66,227.72L541.75,225.5L566.47,209.66L569.56,207.37L581.92,198.83L585.01,196.51L609.73,176.65L612.82,173.92L615.91,172.05L619,169.09" style="vector-effect: non-scaling-stroke; fill: none; stroke: rgb(255, 127, 14); stroke-opacity: 1; stroke-width: 2px; opacity: 1;"/></g><g class="points"/><g class="text"/></g><g class="trace scatter trace9ccdac" style="stroke-miterlimit: 2; opacity: 1;"><g class="fills"/><g class="errorbars"/><g class="lines"><path class="js-line" d="M4.09,408.88L10.27,413.25L13.36,400.33L41.17,382.13L44.26,380.52L62.8,373.09L65.89,371.73L96.79,359.54L99.88,358.35L136.96,343.14L140.05,341.84L158.59,333.85L161.68,332.56L186.4,320.13L189.49,318.23L195.67,315.08L198.76,313.2L211.12,305.66L214.21,303.64L223.48,297.76L226.57,295.66L251.29,278.74L254.38,276.44L285.28,251.69L288.37,249L303.82,234.56L306.91,231.6L310,228.11L313.09,231.11L322.36,243.85L325.45,247.71L334.72,258.36L337.81,261.66L347.08,271.73L350.17,274.08L353.26,275.44L356.35,275.82L365.62,276.21L368.71,276.01L374.89,276.2L377.98,275.97L387.25,275.84L390.34,275.71L402.7,274.53L405.79,274.09L421.24,270.96L424.33,270.62L439.78,266.04L442.87,265.16L473.77,254.12L476.86,252.54L486.13,248.17L489.22,246.97L501.58,240.54L504.67,238.75L513.94,233.8L517.03,231.87L554.11,207.51L557.2,204.89L566.47,198.16L569.56,195.56L575.74,190.78L578.83,187.78L600.46,170.08L603.55,167.04L612.82,158.68L615.91,155.69L619,152.85" style="vector-effect: non-scaling-stroke; fill: none; stroke: rgb(44, 160, 44); stroke-opacity: 1; stroke-width: 2px; opacity: 1;"/></g><g class="points"/><g class="text"/></g><g class="trace scatter traced3fc5b" style="stroke-miterlimit: 2; opacity: 1;"><g class="fills"/><g class="errorbars"/><g class="lines"><path class="js-line" d="M4.09,408.88L10.27,413.25L13.36,400.33L41.17,382.13L44.26,380.52L62.8,373.09L65.89,371.73L96.79,359.54L99.88,358.35L136.96,343.14L140.05,341.84L158.59,333.85L161.68,332.56L186.4,320.13L189.49,318.23L195.67,315.08L198.76,313.2L211.12,305.66L214.21,303.64L223.48,297.76L226.57,295.66L251.29,278.74L254.38,276.44L285.28,251.69L288.37,249L303.82,234.56L306.91,231.6L310,228.11L313.09,228.9L319.27,237.42L322.36,241.15L334.72,255.62L337.81,258.54L347.08,267.81L350.17,270.32L353.26,271.5L356.35,271.76L371.8,271.31L374.89,271.36L390.34,270.33L393.43,269.97L399.61,269.12L402.7,268.4L424.33,262.96L427.42,261.92L445.96,255.88L449.05,254.62L458.32,250.65L461.41,249.66L479.95,241.36L483.04,239.4L498.49,231.39L501.58,229.48L529.39,210.91L532.48,208.38L544.84,200.05L547.93,197.85L566.47,182.41L569.56,179.57L588.1,162.53L591.19,159.59L609.73,139.73L612.82,136.57L619,129.62" style="vector-effect: non-scaling-stroke; fill: none; stroke: rgb(214, 39, 40); stroke-opacity: 1; stroke-width: 2px; opacity: 1;"/></g><g class="points"/><g class="text"/></g><g class="trace scatter trace63a519" style="stroke-miterlimit: 2; opacity: 1;"><g class="fills"/><g class="errorbars"/><g class="lines"><path class="js-line" d="M4.09,408.88L10.27,413.25L13.36,400.33L41.17,382.13L44.26,380.52L62.8,373.09L65.89,371.73L96.79,359.54L99.88,358.35L136.96,343.14L140.05,341.84L158.59,333.85L161.68,332.56L186.4,320.13L189.49,318.23L195.67,315.08L198.76,313.2L211.12,305.66L214.21,303.64L223.48,297.76L226.57,295.66L251.29,278.74L254.38,276.44L285.28,251.69L288.37,249L303.82,234.56L306.91,231.6L310,228.11L313.09,226.64L319.27,232.99L322.36,236.38L337.81,252.16L340.9,254.8L350.17,262.94L353.26,264L362.53,264.26L365.62,264.12L374.89,262.77L377.98,262.24L399.61,258.09L402.7,256.9L408.88,255.48L411.97,254.3L424.33,249.82L427.42,248.25L433.6,245.62L436.69,244.19L458.32,234.37L461.41,232.48L476.86,223.41L479.95,221.45L486.13,217.32L489.22,215L501.58,205.22L504.67,202.63L517.03,192.85L520.12,190.29L532.48,178.34L535.57,175.83L547.93,163.37L551.02,160.18L557.2,153.74L560.29,150.03L569.56,140.09L572.65,136.79L578.83,128.98L581.92,125.8L600.46,101.96L603.55,97.4L619,75.26" style="vector-effect: non-scaling-stroke; fill: none; stroke: rgb(148, 103, 189); stroke-opacity: 1; stroke-width: 2px; opacity: 1;"/></g><g class="points"/><g class="text"/></g><g class="trace scatter trace38b63c" style="stroke-miterlimit: 2; opacity: 1;"><g class="fills"/><g class="errorbars"/><g class="lines"><path class="js-line" d="M4.09,408.88L10.27,413.25L13.36,400.33L41.17,382.13L44.26,380.52L62.8,373.09L65.89,371.73L96.79,359.54L99.88,358.35L136.96,343.14L140.05,341.84L158.59,333.85L161.68,332.56L186.4,320.13L189.49,318.23L195.67,315.08L198.76,313.2L211.12,305.66L214.21,303.64L223.48,297.76L226.57,295.66L251.29,278.74L254.38,276.44L285.28,251.69L288.37,249L303.82,234.56L306.91,231.6L310,228.11L313.09,226.24L316.18,226.78L319.27,228.76L331.63,241L334.72,243.34L347.08,253.11L350.17,254.99L356.35,257.31L359.44,257.1L374.89,254.32L377.98,253.89L393.43,248.96L396.52,248.05L402.7,246.11L405.79,244.9L421.24,237.87L424.33,236.24L436.69,229.93L439.78,228.33L458.32,216.04L461.41,214.24L473.77,205.55L476.86,203.04L498.49,184.02L501.58,180.87L520.12,161.78L523.21,159.02L554.11,122.8L557.2,118.43L566.47,106.23L569.56,102.1L597.37,58.63L600.46,53.43L619,21.75" style="vector-effect: non-scaling-stroke; fill: none; stroke: rgb(140, 86, 75); stroke-opacity: 1; stroke-width: 2px; opacity: 1;"/></g><g class="points"/><g class="text"/></g></g></g><g class="overplot"/><path class="xlines-above crisp" style="fill: none;" d="M0,0"/><path class="ylines-above crisp" style="fill: none;" d="M0,0"/><g class="overlines-above"/><g class="xaxislayer-above"><g class="xtick"><text text-anchor="middle" x="0" y="473" transform="translate(61,0)" style="font-family: 'Open Sans', verdana, arial, sans-serif; font-size: 12px; fill: rgb(68, 68, 68); fill-opacity: 1; white-space: pre;">0</text></g><g class="xtick"><text text-anchor="middle" x="0" y="473" transform="translate(215.5,0)" style="font-family: 'Open Sans', verdana, arial, sans-serif; font-size: 12px; fill: rgb(68, 68, 68); fill-opacity: 1; white-space: pre;">50</text></g><g class="xtick"><text text-anchor="middle" x="0" y="473" transform="translate(370,0)" style="font-family: 'Open Sans', verdana, arial, sans-serif; font-size: 12px; fill: rgb(68, 68, 68); fill-opacity: 1; white-space: pre;">100</text></g><g class="xtick"><text text-anchor="middle" x="0" y="473" transform="translate(524.5,0)" style="font-family: 'Open Sans', verdana, arial, sans-serif; font-size: 12px; fill: rgb(68, 68, 68); fill-opacity: 1; white-space: pre;">150</text></g><g class="xtick"><text text-anchor="middle" x="0" y="473" transform="translate(679,0)" style="font-family: 'Open Sans', verdana, arial, sans-serif; font-size: 12px; fill: rgb(68, 68, 68); fill-opacity: 1; white-space: pre;">200</text></g></g><g class="yaxislayer-above"><g class="ytick"><text text-anchor="end" x="59" y="4.199999999999999" transform="translate(0,453.22)" style="font-family: 'Open Sans', verdana, arial, sans-serif; font-size: 12px; fill: rgb(68, 68, 68); fill-opacity: 1; white-space: pre;">0</text></g><g class="ytick"><text text-anchor="end" x="59" y="4.199999999999999" transform="translate(0,379.8)" style="font-family: 'Open Sans', verdana, arial, sans-serif; font-size: 12px; fill: rgb(68, 68, 68); fill-opacity: 1; white-space: pre;">500</text></g><g class="ytick"><text text-anchor="end" x="59" y="4.199999999999999" transform="translate(0,306.38)" style="font-family: 'Open Sans', verdana, arial, sans-serif; font-size: 12px; fill: rgb(68, 68, 68); fill-opacity: 1; white-space: pre;">1000</text></g><g class="ytick"><text text-anchor="end" x="59" y="4.199999999999999" transform="translate(0,232.96)" style="font-family: 'Open Sans', verdana, arial, sans-serif; font-size: 12px; fill: rgb(68, 68, 68); fill-opacity: 1; white-space: pre;">1500</text></g><g class="ytick"><text text-anchor="end" x="59" y="4.199999999999999" transform="translate(0,159.55)" style="font-family: 'Open Sans', verdana, arial, sans-serif; font-size: 12px; fill: rgb(68, 68, 68); fill-opacity: 1; white-space: pre;">2000</text></g><g class="ytick"><text text-anchor="end" x="59" y="4.199999999999999" transform="translate(0,86.13)" style="font-family: 'Open Sans', verdana, arial, sans-serif; font-size: 12px; fill: rgb(68, 68, 68); fill-opacity: 1; white-space: pre;">2500</text></g></g><g class="overaxes-above"/></g></g><g class="polarlayer"/><g class="ternarylayer"/><g class="geolayer"/><g class="funnelarealayer"/><g class="pielayer"/><g class="treemaplayer"/><g class="sunburstlayer"/><g class="glimages"/><defs id="topdefs-c3498f"><g class="clips"/><clipPath id="legendc3498f"><rect width="117" height="140" x="0" y="0"/></clipPath></defs><g class="layer-above"><g class="imagelayer"/><g class="shapelayer"><path data-index="0" fill-rule="evenodd" d="M61,335.75H679V262.33000000000004H61Z" clip-path="url('#clipc3498fxy')" style="opacity: 0.3; stroke: rgb(0, 0, 255); stroke-opacity: 1; fill: rgb(0, 0, 255); fill-opacity: 1; stroke-width: 2px;"/></g></g><g class="infolayer"><g class="legend" pointer-events="all" transform="translate(91, 46.750000000000014)"><rect class="bg" shape-rendering="crispEdges" style="stroke: rgb(68, 68, 68); stroke-opacity: 1; fill: rgb(226, 226, 226); fill-opacity: 1; stroke-width: 0px;" width="117" height="140" x="0" y="0"/><g class="scrollbox" transform="translate(0, 0)" clip-path="url('#legendc3498f')"><text class="legendtitletext user-select-none" text-anchor="start" x="2" y="15.600000000000001" style="font-family: 'Open Sans', verdana, arial, sans-serif; font-size: 12px; fill: rgb(68, 68, 68); fill-opacity: 1; white-space: pre;"><tspan style="font-weight:bold"> Identification Time </tspan></text><g class="groups"><g class="traces" transform="translate(0, 30.1)" style="opacity: 1;"><text class="legendtext user-select-none" text-anchor="start" x="40" y="4.680000000000001" style="font-family: 'Open Sans', verdana, arial, sans-serif; font-size: 12px; fill: rgb(68, 68, 68); fill-opacity: 1; white-space: pre;">0 Months</text><g class="layers" style="opacity: 1;"><g class="legendfill"/><g class="legendlines"><path class="js-line" d="M5,0h30" style="fill: none; stroke: rgb(31, 119, 180); stroke-opacity: 1; stroke-width: 2px;"/></g><g class="legendsymbols"><g class="legendpoints"/></g></g><rect class="legendtoggle" pointer-events="all" x="0" y="-9.5" width="98.046875" height="19" style="cursor: pointer; fill: rgb(0, 0, 0); fill-opacity: 0;"/></g><g class="traces" transform="translate(0, 49.1)" style="opacity: 1;"><text class="legendtext user-select-none" text-anchor="start" x="40" y="4.680000000000001" style="font-family: 'Open Sans', verdana, arial, sans-serif; font-size: 12px; fill: rgb(68, 68, 68); fill-opacity: 1; white-space: pre;">3 Months</text><g class="layers" style="opacity: 1;"><g class="legendfill"/><g class="legendlines"><path class="js-line" d="M5,0h30" style="fill: none; stroke: rgb(255, 127, 14); stroke-opacity: 1; stroke-width: 2px;"/></g><g class="legendsymbols"><g class="legendpoints"/></g></g><rect class="legendtoggle" pointer-events="all" x="0" y="-9.5" width="98.046875" height="19" style="cursor: pointer; fill: rgb(0, 0, 0); fill-opacity: 0;"/></g><g class="traces" transform="translate(0, 68.1)" style="opacity: 1;"><text class="legendtext user-select-none" text-anchor="start" x="40" y="4.680000000000001" style="font-family: 'Open Sans', verdana, arial, sans-serif; font-size: 12px; fill: rgb(68, 68, 68); fill-opacity: 1; white-space: pre;">6 Months</text><g class="layers" style="opacity: 1;"><g class="legendfill"/><g class="legendlines"><path class="js-line" d="M5,0h30" style="fill: none; stroke: rgb(44, 160, 44); stroke-opacity: 1; stroke-width: 2px;"/></g><g class="legendsymbols"><g class="legendpoints"/></g></g><rect class="legendtoggle" pointer-events="all" x="0" y="-9.5" width="98.046875" height="19" style="cursor: pointer; fill: rgb(0, 0, 0); fill-opacity: 0;"/></g><g class="traces" transform="translate(0, 87.1)" style="opacity: 1;"><text class="legendtext user-select-none" text-anchor="start" x="40" y="4.680000000000001" style="font-family: 'Open Sans', verdana, arial, sans-serif; font-size: 12px; fill: rgb(68, 68, 68); fill-opacity: 1; white-space: pre;">12 Months</text><g class="layers" style="opacity: 1;"><g class="legendfill"/><g class="legendlines"><path class="js-line" d="M5,0h30" style="fill: none; stroke: rgb(214, 39, 40); stroke-opacity: 1; stroke-width: 2px;"/></g><g class="legendsymbols"><g class="legendpoints"/></g></g><rect class="legendtoggle" pointer-events="all" x="0" y="-9.5" width="98.046875" height="19" style="cursor: pointer; fill: rgb(0, 0, 0); fill-opacity: 0;"/></g><g class="traces" transform="translate(0, 106.1)" style="opacity: 1;"><text class="legendtext user-select-none" text-anchor="start" x="40" y="4.680000000000001" style="font-family: 'Open Sans', verdana, arial, sans-serif; font-size: 12px; fill: rgb(68, 68, 68); fill-opacity: 1; white-space: pre;">24 Months</text><g class="layers" style="opacity: 1;"><g class="legendfill"/><g class="legendlines"><path class="js-line" d="M5,0h30" style="fill: none; stroke: rgb(148, 103, 189); stroke-opacity: 1; stroke-width: 2px;"/></g><g class="legendsymbols"><g class="legendpoints"/></g></g><rect class="legendtoggle" pointer-events="all" x="0" y="-9.5" width="98.046875" height="19" style="cursor: pointer; fill: rgb(0, 0, 0); fill-opacity: 0;"/></g><g class="traces" transform="translate(0, 125.1)" style="opacity: 1;"><text class="legendtext user-select-none" text-anchor="start" x="40" y="4.680000000000001" style="font-family: 'Open Sans', verdana, arial, sans-serif; font-size: 12px; fill: rgb(68, 68, 68); fill-opacity: 1; white-space: pre;">36 Months</text><g class="layers" style="opacity: 1;"><g class="legendfill"/><g class="legendlines"><path class="js-line" d="M5,0h30" style="fill: none; stroke: rgb(140, 86, 75); stroke-opacity: 1; stroke-width: 2px;"/></g><g class="legendsymbols"><g class="legendpoints"/></g></g><rect class="legendtoggle" pointer-events="all" x="0" y="-9.5" width="98.046875" height="19" style="cursor: pointer; fill: rgb(0, 0, 0); fill-opacity: 0;"/></g></g></g><rect class="scrollbar" rx="20" ry="3" width="0" height="0" style="fill: rgb(128, 139, 164); fill-opacity: 1;" x="0" y="0"/></g><g class="g-gtitle"><text class="gtitle" x="350" y="12.5" text-anchor="middle" dy="0em" style="font-family: 'Open Sans', verdana, arial, sans-serif; font-size: 17px; fill: rgb(68, 68, 68); opacity: 1; font-weight: normal; white-space: pre;"><tspan style="font-weight:bold"> Leprosy Prevalence - Immunity Vaccine 0.0, Treatment 25% </tspan></text></g><g class="g-xtitle" transform="translate(0,-15)"><text class="xtitle" x="370" y="512" text-anchor="middle" style="font-family: 'Open Sans', verdana, arial, sans-serif; font-size: 14px; fill: rgb(68, 68, 68); opacity: 1; font-weight: normal; white-space: pre;">Time(Years)</text></g><g class="g-ytitle"><text class="ytitle" transform="rotate(-90,22,242.5)" x="22" y="242.5" text-anchor="middle" style="font-family: 'Open Sans', verdana, arial, sans-serif; font-size: 14px; fill: rgb(68, 68, 68); opacity: 1; font-weight: normal; white-space: pre;">Number of infectiuos individuals</text></g></g></svg>