<svg class="main-svg" xmlns="http://www.w3.org/2000/svg" xmlns:xlink="http://www.w3.org/1999/xlink" width="700" height="500" style="" viewBox="0 0 700 500"><rect x="0" y="0" width="700" height="500" style="fill: rgb(255, 255, 255); fill-opacity: 1;"/><defs id="defs-ff50f0"><g class="clips"><clipPath id="clipff50f0xyplot" class="plotclip"><rect width="620" height="435"/></clipPath><clipPath class="axesclip" id="clipff50f0x"><rect x="60" y="0" width="620" height="500"/></clipPath><clipPath class="axesclip" id="clipff50f0y"><rect x="0" y="25" width="700" height="435"/></clipPath><clipPath class="axesclip" id="clipff50f0xy"><rect x="60" y="25" width="620" height="435"/></clipPath></g><g class="gradients"/></defs><g class="bglayer"/><g class="layer-below"><g class="imagelayer"/><g class="shapelayer"/></g><g class="cartesianlayer"><g class="subplot xy"><g class="layer-subplot"><g class="shapelayer"/><g class="imagelayer"/></g><g class="gridlayer"><g class="x"><path class="xgrid crisp" transform="translate(215.5,0)" d="M0,25v435" style="stroke: rgb(238, 238, 238); stroke-opacity: 1; stroke-width: 1px;"/><path class="xgrid crisp" transform="translate(370,0)" d="M0,25v435" style="stroke: rgb(238, 238, 238); stroke-opacity: 1; stroke-width: 1px;"/><path class="xgrid crisp" transform="translate(524.5,0)" d="M0,25v435" style="stroke: rgb(238, 238, 238); stroke-opacity: 1; stroke-width: 1px;"/></g><g class="y"><path class="ygrid crisp" transform="translate(0,381.14)" d="M60,0h620" style="stroke: rgb(238, 238, 238); stroke-opacity: 1; stroke-width: 1px;"/><path class="ygrid crisp" transform="translate(0,323.63)" d="M60,0h620" style="stroke: rgb(238, 238, 238); stroke-opacity: 1; stroke-width: 1px;"/><path class="ygrid crisp" transform="translate(0,266.11)" d="M60,0h620" style="stroke: rgb(238, 238, 238); stroke-opacity: 1; stroke-width: 1px;"/><path class="ygrid crisp" transform="translate(0,208.6)" d="M60,0h620" style="stroke: rgb(238, 238, 238); stroke-opacity: 1; stroke-width: 1px;"/><path class="ygrid crisp" transform="translate(0,151.07999999999998)" d="M60,0h620" style="stroke: rgb(238, 238, 238); stroke-opacity: 1; stroke-width: 1px;"/><path class="ygrid crisp" transform="translate(0,93.57)" d="M60,0h620" style="stroke: rgb(238, 238, 238); stroke-opacity: 1; stroke-width: 1px;"/><path class="ygrid crisp" transform="translate(0,36.06)" d="M60,0h620" style="stroke: rgb(238, 238, 238); stroke-opacity: 1; stroke-width: 1px;"/></g></g><g class="zerolinelayer"><path class="xzl zl crisp" transform="translate(61,0)" d="M0,25v435" style="stroke: rgb(68, 68, 68); stroke-opacity: 1; stroke-width: 1px;"/><path class="yzl zl crisp" transform="translate(0,438.65)" d="M60,0h620" style="stroke: rgb(68, 68, 68); stroke-opacity: 1; stroke-width: 1px;"/></g><path class="xlines-below"/><path class="ylines-below"/><g class="overlines-below"/><g class="xaxislayer-below"/><g class="yaxislayer-below"/><g class="overaxes-below"/><g class="plot" transform="translate(60, 25)" clip-path="url('#clipff50f0xyplot')"><g class="scatterlayer mlayer"><g class="trace scatter trace3363f9" style="stroke-miterlimit: 2; opacity: 1;"><g class="fills"/><g class="errorbars"/><g class="lines"><path class="js-line" d="M4.09,375.78L10.27,384.34L13.36,359.04L38.08,326.89L41.17,323.41L47.35,318.01L50.44,315.44L62.8,305.7L65.89,303.03L84.43,288.98L87.52,286.41L130.78,252.21L133.87,249.73L167.86,219.99L170.95,216.69L195.67,192.08L198.76,188.41L204.94,180.51L208.03,177.51L235.84,142.27L238.93,137.74L263.65,102.65L266.74,97.56L288.37,62.67L291.46,57.38L303.82,34.38L306.91,28.58L310,21.75L313.09,74.11L319.27,158.73L322.36,192.81L328.54,248.75L331.63,271.4L337.81,308.22L340.9,323.25L347.08,347.25L350.17,355.3L356.35,367.54L359.44,372.46L368.71,384.72L371.8,388.11L381.07,395.9L384.16,397.93L390.34,400.71L393.43,401.67L418.15,407.17L421.24,407.72L433.6,409.06L436.69,409.31L464.5,411.45L467.59,411.6L517.03,412.77L520.12,412.83L619,413.25" style="vector-effect: non-scaling-stroke; fill: none; stroke: rgb(31, 119, 180); stroke-opacity: 1; stroke-width: 2px; opacity: 1;"/></g><g class="points"/><g class="text"/></g><g class="trace scatter tracee49fd0" style="stroke-miterlimit: 2; opacity: 1;"><g class="fills"/><g class="errorbars"/><g class="lines"><path class="js-line" d="M4.09,375.78L10.27,384.34L13.36,359.04L38.08,326.89L41.17,323.41L47.35,318.01L50.44,315.44L62.8,305.7L65.89,303.03L84.43,288.98L87.52,286.41L130.78,252.21L133.87,249.73L167.86,219.99L170.95,216.69L195.67,192.08L198.76,188.41L204.94,180.51L208.03,177.51L235.84,142.27L238.93,137.74L263.65,102.65L266.74,97.56L288.37,62.67L291.46,57.38L303.82,34.38L306.91,28.58L310,21.75L313.09,67.03L319.27,152.83L322.36,187.51L328.54,245.28L331.63,268.28L337.81,306.05L340.9,321.3L347.08,346.06L350.17,352.9L356.35,364.46L359.44,369.49L365.62,378.39L368.71,382.07L377.98,391.76L381.07,394.32L387.25,398.12L390.34,399.1L427.42,407.55L430.51,407.9L492.31,411.9L495.4,411.98L526.3,412.63L529.39,412.65L619,413.19" style="vector-effect: non-scaling-stroke; fill: none; stroke: rgb(255, 127, 14); stroke-opacity: 1; stroke-width: 2px; opacity: 1;"/></g><g class="points"/><g class="text"/></g><g class="trace scatter trace79ef6d" style="stroke-miterlimit: 2; opacity: 1;"><g class="fills"/><g class="errorbars"/><g class="lines"><path class="js-line" d="M4.09,375.78L10.27,384.34L13.36,359.04L38.08,326.89L41.17,323.41L47.35,318.01L50.44,315.44L62.8,305.7L65.89,303.03L84.43,288.98L87.52,286.41L130.78,252.21L133.87,249.73L167.86,219.99L170.95,216.69L195.67,192.08L198.76,188.41L204.94,180.51L208.03,177.51L235.84,142.27L238.93,137.74L263.65,102.65L266.74,97.56L288.37,62.67L291.46,57.38L303.82,34.38L306.91,28.58L310,21.75L313.09,59.32L319.27,145.8L322.36,181.28L328.54,240.15L331.63,264.08L337.81,303.16L340.9,318.73L347.08,344.17L350.17,350.43L362.53,370.67L365.62,374.88L374.89,386.3L377.98,389.47L384.16,394.85L387.25,396.82L402.7,400.27L405.79,401.15L427.42,406.93L430.51,407.17L489.22,411.34L492.31,411.52L529.39,412.49L532.48,412.55L578.83,413L581.92,413L619,413.1" style="vector-effect: non-scaling-stroke; fill: none; stroke: rgb(44, 160, 44); stroke-opacity: 1; stroke-width: 2px; opacity: 1;"/></g><g class="points"/><g class="text"/></g><g class="trace scatter trace40d4cf" style="stroke-miterlimit: 2; opacity: 1;"><g class="fills"/><g class="errorbars"/><g class="lines"><path class="js-line" d="M4.09,375.78L10.27,384.34L13.36,359.04L38.08,326.89L41.17,323.41L47.35,318.01L50.44,315.44L62.8,305.7L65.89,303.03L84.43,288.98L87.52,286.41L130.78,252.21L133.87,249.73L167.86,219.99L170.95,216.69L195.67,192.08L198.76,188.41L204.94,180.51L208.03,177.51L235.84,142.27L238.93,137.74L263.65,102.65L266.74,97.56L288.37,62.67L291.46,57.38L303.82,34.38L306.91,28.58L310,21.75L313.09,44.05L319.27,133.19L322.36,169.52L328.54,231.84L331.63,256.67L337.81,297.86L340.9,313.77L347.08,340.49L350.17,348.06L353.26,349.89L356.35,353.58L374.89,381.36L377.98,384.91L387.25,393.87L390.34,395.06L399.61,395.61L402.7,396.55L411.97,399.24L415.06,400.39L427.42,404.52L430.51,405L452.14,406.6L455.23,407.08L476.86,409.25L479.95,409.47L498.49,410.51L501.58,410.72L526.3,411.72L529.39,411.71L563.38,412.52L566.47,412.45L619,412.94" style="vector-effect: non-scaling-stroke; fill: none; stroke: rgb(214, 39, 40); stroke-opacity: 1; stroke-width: 2px; opacity: 1;"/></g><g class="points"/><g class="text"/></g><g class="trace scatter traceb0c439" style="stroke-miterlimit: 2; opacity: 1;"><g class="fills"/><g class="errorbars"/><g class="lines"><path class="js-line" d="M4.09,375.78L10.27,384.34L13.36,359.04L38.08,326.89L41.17,323.41L47.35,318.01L50.44,315.44L62.8,305.7L65.89,303.03L84.43,288.98L87.52,286.41L130.78,252.21L133.87,249.73L167.86,219.99L170.95,216.69L195.67,192.08L198.76,188.41L204.94,180.51L208.03,177.51L235.84,142.27L238.93,137.74L263.65,102.65L266.74,97.56L288.37,62.67L291.46,57.38L303.82,34.38L306.91,28.58L310,21.75L313.09,30.65L316.18,64.45L319.27,107.5L325.45,180.92L328.54,212.63L334.72,263.97L337.81,285.09L343.99,318.9L347.08,332.56L350.17,342.36L353.26,345.37L356.35,344.52L359.44,345.46L365.62,352.39L368.71,357.72L377.98,372.38L381.07,376.98L390.34,387.91L393.43,389.58L405.79,388.56L408.88,389.05L415.06,391.84L418.15,393.14L427.42,397.39L430.51,398.89L436.69,400.62L439.78,400.95L452.14,401.18L455.23,401.62L473.77,405.35L476.86,405.77L486.13,406.67L489.22,406.72L504.67,407.74L507.76,408.11L541.75,409.88L544.84,409.89L585.01,411.36L588.1,411.36L619,411.88" style="vector-effect: non-scaling-stroke; fill: none; stroke: rgb(148, 103, 189); stroke-opacity: 1; stroke-width: 2px; opacity: 1;"/></g><g class="points"/><g class="text"/></g><g class="trace scatter trace4150b8" style="stroke-miterlimit: 2; opacity: 1;"><g class="fills"/><g class="errorbars"/><g class="lines"><path class="js-line" d="M4.09,375.78L10.27,384.34L13.36,359.04L38.08,326.89L41.17,323.41L47.35,318.01L50.44,315.44L62.8,305.7L65.89,303.03L84.43,288.98L87.52,286.41L130.78,252.21L133.87,249.73L167.86,219.99L170.95,216.69L195.67,192.08L198.76,188.41L204.94,180.51L208.03,177.51L235.84,142.27L238.93,137.74L263.65,102.65L266.74,97.56L288.37,62.67L291.46,57.38L303.82,34.38L306.91,28.58L310,21.75L313.09,25.08L316.18,45.84L319.27,80.18L328.54,188.61L331.63,218.38L337.81,267.86L340.9,287.64L347.08,320.33L350.17,332.73L353.26,338.84L356.35,339.1L362.53,336.85L365.62,338.35L371.8,346.19L374.89,351.11L387.25,372.42L390.34,376.51L396.52,381.73L399.61,382.43L408.88,380.91L411.97,380.91L418.15,382.64L421.24,384.04L427.42,387.65L430.51,389.39L439.78,393.87L442.87,394.74L461.41,396.19L464.5,396.61L470.68,397.97L473.77,398.84L492.31,402.2L495.4,402.51L501.58,403L504.67,403.09L520.12,404.58L523.21,404.88L538.66,406.31L541.75,406.57L569.56,407.86L572.65,408.11L619,409.76" style="vector-effect: non-scaling-stroke; fill: none; stroke: rgb(140, 86, 75); stroke-opacity: 1; stroke-width: 2px; opacity: 1;"/></g><g class="points"/><g class="text"/></g></g></g><g class="overplot"/><path class="xlines-above crisp" style="fill: none;" d="M0,0"/><path class="ylines-above crisp" style="fill: none;" d="M0,0"/><g class="overlines-above"/><g class="xaxislayer-above"><g class="xtick"><text text-anchor="middle" x="0" y="473" transform="translate(61,0)" style="font-family: 'Open Sans', verdana, arial, sans-serif; font-size: 12px; fill: rgb(68, 68, 68); fill-opacity: 1; white-space: pre;">0</text></g><g class="xtick"><text text-anchor="middle" x="0" y="473" transform="translate(215.5,0)" style="font-family: 'Open Sans', verdana, arial, sans-serif; font-size: 12px; fill: rgb(68, 68, 68); fill-opacity: 1; white-space: pre;">50</text></g><g class="xtick"><text text-anchor="middle" x="0" y="473" transform="translate(370,0)" style="font-family: 'Open Sans', verdana, arial, sans-serif; font-size: 12px; fill: rgb(68, 68, 68); fill-opacity: 1; white-space: pre;">100</text></g><g class="xtick"><text text-anchor="middle" x="0" y="473" transform="translate(524.5,0)" style="font-family: 'Open Sans', verdana, arial, sans-serif; font-size: 12px; fill: rgb(68, 68, 68); fill-opacity: 1; white-space: pre;">150</text></g><g class="xtick"><text text-anchor="middle" x="0" y="473" transform="translate(679,0)" style="font-family: 'Open Sans', verdana, arial, sans-serif; font-size: 12px; fill: rgb(68, 68, 68); fill-opacity: 1; white-space: pre;">200</text></g></g><g class="yaxislayer-above"><g class="ytick"><text text-anchor="end" x="59" y="4.199999999999999" transform="translate(0,438.65)" style="font-family: 'Open Sans', verdana, arial, sans-serif; font-size: 12px; fill: rgb(68, 68, 68); fill-opacity: 1; white-space: pre;">0</text></g><g class="ytick"><text text-anchor="end" x="59" y="4.199999999999999" transform="translate(0,381.14)" style="font-family: 'Open Sans', verdana, arial, sans-serif; font-size: 12px; fill: rgb(68, 68, 68); fill-opacity: 1; white-space: pre;">200</text></g><g class="ytick"><text text-anchor="end" x="59" y="4.199999999999999" transform="translate(0,323.63)" style="font-family: 'Open Sans', verdana, arial, sans-serif; font-size: 12px; fill: rgb(68, 68, 68); fill-opacity: 1; white-space: pre;">400</text></g><g class="ytick"><text text-anchor="end" x="59" y="4.199999999999999" transform="translate(0,266.11)" style="font-family: 'Open Sans', verdana, arial, sans-serif; font-size: 12px; fill: rgb(68, 68, 68); fill-opacity: 1; white-space: pre;">600</text></g><g class="ytick"><text text-anchor="end" x="59" y="4.199999999999999" transform="translate(0,208.6)" style="font-family: 'Open Sans', verdana, arial, sans-serif; font-size: 12px; fill: rgb(68, 68, 68); fill-opacity: 1; white-space: pre;">800</text></g><g class="ytick"><text text-anchor="end" x="59" y="4.199999999999999" transform="translate(0,151.07999999999998)" style="font-family: 'Open Sans', verdana, arial, sans-serif; font-size: 12px; fill: rgb(68, 68, 68); fill-opacity: 1; white-space: pre;">1000</text></g><g class="ytick"><text text-anchor="end" x="59" y="4.199999999999999" transform="translate(0,93.57)" style="font-family: 'Open Sans', verdana, arial, sans-serif; font-size: 12px; fill: rgb(68, 68, 68); fill-opacity: 1; white-space: pre;">1200</text></g><g class="ytick"><text text-anchor="end" x="59" y="4.199999999999999" transform="translate(0,36.06)" style="font-family: 'Open Sans', verdana, arial, sans-serif; font-size: 12px; fill: rgb(68, 68, 68); fill-opacity: 1; white-space: pre;">1400</text></g></g><g class="overaxes-above"/></g></g><g class="polarlayer"/><g class="ternarylayer"/><g class="geolayer"/><g class="funnelarealayer"/><g class="pielayer"/><g class="treemaplayer"/><g class="sunburstlayer"/><g class="glimages"/><defs id="topdefs-ff50f0"><g class="clips"/><clipPath id="legendff50f0"><rect width="117" height="140" x="0" y="0"/></clipPath></defs><g class="layer-above"><g class="imagelayer"/><g class="shapelayer"><path data-index="0" fill-rule="evenodd" d="M61,208.6H679V64.81H61Z" clip-path="url('#clipff50f0xy')" style="opacity: 0.3; stroke: rgb(0, 0, 255); stroke-opacity: 1; fill: rgb(0, 0, 255); fill-opacity: 1; stroke-width: 2px;"/></g></g><g class="infolayer"><g class="legend" pointer-events="all" transform="translate(91, 46.750000000000014)"><rect class="bg" shape-rendering="crispEdges" style="stroke: rgb(68, 68, 68); stroke-opacity: 1; fill: rgb(226, 226, 226); fill-opacity: 1; stroke-width: 0px;" width="117" height="140" x="0" y="0"/><g class="scrollbox" transform="translate(0, 0)" clip-path="url('#legendff50f0')"><text class="legendtitletext user-select-none" text-anchor="start" x="2" y="15.600000000000001" style="font-family: 'Open Sans', verdana, arial, sans-serif; font-size: 12px; fill: rgb(68, 68, 68); fill-opacity: 1; white-space: pre;"><tspan style="font-weight:bold"> Identification Time </tspan></text><g class="groups"><g class="traces" transform="translate(0, 30.1)" style="opacity: 1;"><text class="legendtext user-select-none" text-anchor="start" x="40" y="4.680000000000001" style="font-family: 'Open Sans', verdana, arial, sans-serif; font-size: 12px; fill: rgb(68, 68, 68); fill-opacity: 1; white-space: pre;">0 Months</text><g class="layers" style="opacity: 1;"><g class="legendfill"/><g class="legendlines"><path class="js-line" d="M5,0h30" style="fill: none; stroke: rgb(31, 119, 180); stroke-opacity: 1; stroke-width: 2px;"/></g><g class="legendsymbols"><g class="legendpoints"/></g></g><rect class="legendtoggle" pointer-events="all" x="0" y="-9.5" width="98.046875" height="19" style="cursor: pointer; fill: rgb(0, 0, 0); fill-opacity: 0;"/></g><g class="traces" transform="translate(0, 49.1)" style="opacity: 1;"><text class="legendtext user-select-none" text-anchor="start" x="40" y="4.680000000000001" style="font-family: 'Open Sans', verdana, arial, sans-serif; font-size: 12px; fill: rgb(68, 68, 68); fill-opacity: 1; white-space: pre;">3 Months</text><g class="layers" style="opacity: 1;"><g class="legendfill"/><g class="legendlines"><path class="js-line" d="M5,0h30" style="fill: none; stroke: rgb(255, 127, 14); stroke-opacity: 1; stroke-width: 2px;"/></g><g class="legendsymbols"><g class="legendpoints"/></g></g><rect class="legendtoggle" pointer-events="all" x="0" y="-9.5" width="98.046875" height="19" style="cursor: pointer; fill: rgb(0, 0, 0); fill-opacity: 0;"/></g><g class="traces" transform="translate(0, 68.1)" style="opacity: 1;"><text class="legendtext user-select-none" text-anchor="start" x="40" y="4.680000000000001" style="font-family: 'Open Sans', verdana, arial, sans-serif; font-size: 12px; fill: rgb(68, 68, 68); fill-opacity: 1; white-space: pre;">6 Months</text><g class="layers" style="opacity: 1;"><g class="legendfill"/><g class="legendlines"><path class="js-line" d="M5,0h30" style="fill: none; stroke: rgb(44, 160, 44); stroke-opacity: 1; stroke-width: 2px;"/></g><g class="legendsymbols"><g class="legendpoints"/></g></g><rect class="legendtoggle" pointer-events="all" x="0" y="-9.5" width="98.046875" height="19" style="cursor: pointer; fill: rgb(0, 0, 0); fill-opacity: 0;"/></g><g class="traces" transform="translate(0, 87.1)" style="opacity: 1;"><text class="legendtext user-select-none" text-anchor="start" x="40" y="4.680000000000001" style="font-family: 'Open Sans', verdana, arial, sans-serif; font-size: 12px; fill: rgb(68, 68, 68); fill-opacity: 1; white-space: pre;">12 Months</text><g class="layers" style="opacity: 1;"><g class="legendfill"/><g class="legendlines"><path class="js-line" d="M5,0h30" style="fill: none; stroke: rgb(214, 39, 40); stroke-opacity: 1; stroke-width: 2px;"/></g><g class="legendsymbols"><g class="legendpoints"/></g></g><rect class="legendtoggle" pointer-events="all" x="0" y="-9.5" width="98.046875" height="19" style="cursor: pointer; fill: rgb(0, 0, 0); fill-opacity: 0;"/></g><g class="traces" transform="translate(0, 106.1)" style="opacity: 1;"><text class="legendtext user-select-none" text-anchor="start" x="40" y="4.680000000000001" style="font-family: 'Open Sans', verdana, arial, sans-serif; font-size: 12px; fill: rgb(68, 68, 68); fill-opacity: 1; white-space: pre;">24 Months</text><g class="layers" style="opacity: 1;"><g class="legendfill"/><g class="legendlines"><path class="js-line" d="M5,0h30" style="fill: none; stroke: rgb(148, 103, 189); stroke-opacity: 1; stroke-width: 2px;"/></g><g class="legendsymbols"><g class="legendpoints"/></g></g><rect class="legendtoggle" pointer-events="all" x="0" y="-9.5" width="98.046875" height="19" style="cursor: pointer; fill: rgb(0, 0, 0); fill-opacity: 0;"/></g><g class="traces" transform="translate(0, 125.1)" style="opacity: 1;"><text class="legendtext user-select-none" text-anchor="start" x="40" y="4.680000000000001" style="font-family: 'Open Sans', verdana, arial, sans-serif; font-size: 12px; fill: rgb(68, 68, 68); fill-opacity: 1; white-space: pre;">36 Months</text><g class="layers" style="opacity: 1;"><g class="legendfill"/><g class="legendlines"><path class="js-line" d="M5,0h30" style="fill: none; stroke: rgb(140, 86, 75); stroke-opacity: 1; stroke-width: 2px;"/></g><g class="legendsymbols"><g class="legendpoints"/></g></g><rect class="legendtoggle" pointer-events="all" x="0" y="-9.5" width="98.046875" height="19" style="cursor: pointer; fill: rgb(0, 0, 0); fill-opacity: 0;"/></g></g></g><rect class="scrollbar" rx="20" ry="3" width="0" height="0" style="fill: rgb(128, 139, 164); fill-opacity: 1;" x="0" y="0"/></g><g class="g-gtitle"><text class="gtitle" x="350" y="12.5" text-anchor="middle" dy="0em" style="font-family: 'Open Sans', verdana, arial, sans-serif; font-size: 17px; fill: rgb(68, 68, 68); opacity: 1; font-weight: normal; white-space: pre;"><tspan style="font-weight:bold"> Leprosy Prevalence - Immunity Vaccine 0.5, Treatment 95% </tspan></text></g><g class="g-xtitle" transform="translate(0,-15)"><text class="xtitle" x="370" y="512" text-anchor="middle" style="font-family: 'Open Sans', verdana, arial, sans-serif; font-size: 14px; fill: rgb(68, 68, 68); opacity: 1; font-weight: normal; white-space: pre;">Time(Years)</text></g><g class="g-ytitle"><text class="ytitle" transform="rotate(-90,22,242.5)" x="22" y="242.5" text-anchor="middle" style="font-family: 'Open Sans', verdana, arial, sans-serif; font-size: 14px; fill: rgb(68, 68, 68); opacity: 1; font-weight: normal; white-space: pre;">Number of infectiuos individuals</text></g></g></svg>