<svg class="main-svg" xmlns="http://www.w3.org/2000/svg" xmlns:xlink="http://www.w3.org/1999/xlink" width="700" height="500" style="" viewBox="0 0 700 500"><rect x="0" y="0" width="700" height="500" style="fill: rgb(255, 255, 255); fill-opacity: 1;"/><defs id="defs-e7d95f"><g class="clips"><clipPath id="clipe7d95fxyplot" class="plotclip"><rect width="619" height="435"/></clipPath><clipPath class="axesclip" id="clipe7d95fx"><rect x="60" y="0" width="619" height="500"/></clipPath><clipPath class="axesclip" id="clipe7d95fy"><rect x="0" y="25" width="700" height="435"/></clipPath><clipPath class="axesclip" id="clipe7d95fxy"><rect x="60" y="25" width="619" height="435"/></clipPath></g><g class="gradients"/></defs><g class="bglayer"/><g class="layer-below"><g class="imagelayer"/><g class="shapelayer"/></g><g class="cartesianlayer"><g class="subplot xy"><g class="layer-subplot"><g class="shapelayer"/><g class="imagelayer"/></g><g class="gridlayer"><g class="x"><path class="xgrid crisp" transform="translate(212.42,0)" d="M0,25v435" style="stroke: rgb(238, 238, 238); stroke-opacity: 1; stroke-width: 1px;"/><path class="xgrid crisp" transform="translate(367.94,0)" d="M0,25v435" style="stroke: rgb(238, 238, 238); stroke-opacity: 1; stroke-width: 1px;"/><path class="xgrid crisp" transform="translate(523.47,0)" d="M0,25v435" style="stroke: rgb(238, 238, 238); stroke-opacity: 1; stroke-width: 1px;"/></g><g class="y"><path class="ygrid crisp" transform="translate(0,386.05)" d="M60,0h619" style="stroke: rgb(238, 238, 238); stroke-opacity: 1; stroke-width: 1px;"/><path class="ygrid crisp" transform="translate(0,333.85)" d="M60,0h619" style="stroke: rgb(238, 238, 238); stroke-opacity: 1; stroke-width: 1px;"/><path class="ygrid crisp" transform="translate(0,281.66)" d="M60,0h619" style="stroke: rgb(238, 238, 238); stroke-opacity: 1; stroke-width: 1px;"/><path class="ygrid crisp" transform="translate(0,229.46)" d="M60,0h619" style="stroke: rgb(238, 238, 238); stroke-opacity: 1; stroke-width: 1px;"/><path class="ygrid crisp" transform="translate(0,177.26)" d="M60,0h619" style="stroke: rgb(238, 238, 238); stroke-opacity: 1; stroke-width: 1px;"/><path class="ygrid crisp" transform="translate(0,125.06)" d="M60,0h619" style="stroke: rgb(238, 238, 238); stroke-opacity: 1; stroke-width: 1px;"/><path class="ygrid crisp" transform="translate(0,72.86)" d="M60,0h619" style="stroke: rgb(238, 238, 238); stroke-opacity: 1; stroke-width: 1px;"/></g></g><g class="zerolinelayer"><path class="yzl zl crisp" transform="translate(0,438.25)" d="M60,0h619" style="stroke: rgb(68, 68, 68); stroke-opacity: 1; stroke-width: 1px;"/></g><path class="xlines-below"/><path class="ylines-below"/><g class="overlines-below"/><g class="xaxislayer-below"/><g class="yaxislayer-below"/><g class="overaxes-below"/><g class="plot" transform="translate(60, 25)" clip-path="url('#clipe7d95fxyplot')"><g class="scatterlayer mlayer"><g class="trace scatter tracef18f32" style="stroke-miterlimit: 2; opacity: 1;"><g class="fills"/><g class="errorbars"/><g class="lines"><path class="js-line" d="M0,21.76L3.11,413.25L6.22,413.25L9.33,117.08L12.44,305.47L27.99,276.9L31.11,272.25L37.33,261.9L40.44,257.56L43.55,256.19L46.66,252.98L55.99,239.16L59.1,237.13L62.21,233.34L65.32,231.35L68.43,228.89L71.54,224.23L74.65,223.99L77.76,220.51L80.87,217.96L83.98,214.15L87.1,210.85L90.21,209.86L93.32,205.98L96.43,204.35L102.65,198.08L105.76,194.67L111.98,191.98L115.09,189.32L118.2,185L121.31,184.24L124.42,179.18L127.53,178.72L130.64,177.55L133.75,172.66L136.86,171.83L139.97,169.44L146.2,161.54L149.31,160.81L152.42,158.51L155.53,158.39L158.64,154.74L161.75,152.34L167.97,143.79L171.08,145.29L174.19,141.45L177.3,140.87L180.41,141.17L183.52,137.5L186.63,132.38L189.74,133.88L192.85,126L195.96,124.01L199.08,120.27L202.19,120.25L205.3,118.81L208.41,114.86L214.63,108.8L217.74,107.39L220.85,102.47L223.96,101.13L227.07,97.88L230.18,97.86L233.29,94.92L236.4,89.78L239.51,87.66L242.62,81.49L245.73,86.91L248.84,84.02L255.07,74.95L258.18,75.8L261.29,69.79L264.4,69.75L267.51,69.49L270.62,68.39L273.73,58.9L276.84,58.73L279.95,54L283.06,54.78L289.28,49.1L292.39,49.96L295.5,41.68L298.61,41.9L301.72,39.94L304.83,37.03L307.94,29.18L311.06,53.53L317.28,123.93L320.39,159.32L323.5,197.27L326.61,225.1L329.72,255.51L332.83,278.54L339.05,315.64L342.16,328.66L348.38,351.94L351.49,360.19L354.6,366.94L357.71,371.63L367.05,384.2L370.16,387.22L376.38,393.36L379.49,395.48L388.82,400.45L391.93,401.04L407.48,405L410.59,404.98L416.81,406.66L419.92,407.44L441.7,409.74L444.81,409.64L457.25,410.16L460.36,410.81L500.8,412.22L503.91,412.18L519.46,412.38L522.57,412.4L612.78,412.73L615.89,412.92L619,412.78" style="vector-effect: non-scaling-stroke; fill: none; stroke: rgb(31, 119, 180); stroke-opacity: 1; stroke-width: 2px; opacity: 1;"/></g><g class="points"/><g class="text"/></g><g class="trace scatter trace520e7d" style="stroke-miterlimit: 2; opacity: 1;"><g class="fills"/><g class="errorbars"/><g class="lines"><path class="js-line" d="M0,21.75L3.11,413.25L6.22,413.25L9.33,117.08L12.44,305.47L27.99,276.9L31.11,272.25L37.33,261.9L40.44,257.56L43.55,256.19L46.66,252.98L55.99,239.16L59.1,237.13L62.21,233.34L65.32,231.35L68.43,228.89L71.54,224.23L74.65,223.99L77.76,220.51L80.87,217.96L83.98,214.15L87.1,210.85L90.21,209.86L93.32,205.98L96.43,204.35L102.65,198.08L105.76,194.67L111.98,191.98L115.09,189.32L118.2,185L121.31,184.24L124.42,179.18L127.53,178.72L130.64,177.55L133.75,172.66L136.86,171.83L139.97,169.44L146.2,161.54L149.31,160.81L152.42,158.51L155.53,158.39L158.64,154.74L161.75,152.34L167.97,143.79L171.08,145.29L174.19,141.45L177.3,140.87L180.41,141.17L183.52,137.5L186.63,132.38L189.74,133.88L192.85,126L195.96,124.01L199.08,120.27L202.19,120.25L205.3,118.81L208.41,114.86L214.63,108.8L217.74,107.39L220.85,102.47L223.96,101.13L227.07,97.88L230.18,97.86L233.29,94.92L236.4,89.78L239.51,87.66L242.62,81.49L245.73,86.91L248.84,84.02L255.07,74.95L258.18,75.8L261.29,69.79L264.4,69.75L267.51,69.49L270.62,68.39L273.73,58.9L276.84,58.73L279.95,54L283.06,54.78L289.28,49.1L292.39,49.96L295.5,41.68L298.61,41.9L301.72,39.94L304.83,37.03L307.94,29.18L311.06,48.92L326.61,223.4L329.72,251.61L332.83,276.79L335.94,295.36L342.16,326.44L345.27,339.9L348.38,352.1L351.49,358.04L354.6,361.34L357.71,368.15L367.05,383.34L370.16,385.32L373.27,387.42L376.38,390.45L379.49,393.56L382.6,395.27L391.93,400.28L395.04,400.66L401.26,402.05L404.37,402.42L419.92,405.97L423.04,406.22L429.26,407.74L432.37,407.51L438.59,408.85L441.7,408.55L451.03,409.39L454.14,409.4L466.58,410.65L469.69,410.95L482.14,411.4L485.25,411.49L494.58,411.72L497.69,411.91L503.91,411.97L507.02,412.01L587.89,412.77L591.01,412.66L606.56,412.85L609.67,412.71L619,412.7" style="vector-effect: non-scaling-stroke; fill: none; stroke: rgb(255, 127, 14); stroke-opacity: 1; stroke-width: 2px; opacity: 1;"/></g><g class="points"/><g class="text"/></g><g class="trace scatter trace6cf870" style="stroke-miterlimit: 2; opacity: 1;"><g class="fills"/><g class="errorbars"/><g class="lines"><path class="js-line" d="M0,21.76L3.11,413.25L6.22,413.25L9.33,117.08L12.44,305.47L27.99,276.9L31.11,272.25L37.33,261.9L40.44,257.56L43.55,256.19L46.66,252.98L55.99,239.16L59.1,237.13L62.21,233.34L65.32,231.35L68.43,228.89L71.54,224.23L74.65,223.99L77.76,220.51L80.87,217.96L83.98,214.15L87.1,210.85L90.21,209.86L93.32,205.98L96.43,204.35L102.65,198.08L105.76,194.67L111.98,191.98L115.09,189.32L118.2,185L121.31,184.24L124.42,179.18L127.53,178.72L130.64,177.55L133.75,172.66L136.86,171.83L139.97,169.44L146.2,161.54L149.31,160.81L152.42,158.51L155.53,158.39L158.64,154.74L161.75,152.34L167.97,143.79L171.08,145.29L174.19,141.45L177.3,140.87L180.41,141.17L183.52,137.5L186.63,132.38L189.74,133.88L192.85,126L195.96,124.01L199.08,120.27L202.19,120.25L205.3,118.81L208.41,114.86L214.63,108.8L217.74,107.39L220.85,102.47L223.96,101.13L227.07,97.88L230.18,97.86L233.29,94.92L236.4,89.78L239.51,87.66L242.62,81.49L245.73,86.91L248.84,84.02L255.07,74.95L258.18,75.8L261.29,69.79L264.4,69.75L267.51,69.49L270.62,68.39L273.73,58.9L276.84,58.73L279.95,54L283.06,54.78L289.28,49.1L292.39,49.96L295.5,41.68L298.61,41.9L301.72,39.94L304.83,37.03L307.94,29.18L311.06,43.54L317.28,116.5L320.39,147.42L326.61,219.93L329.72,250.07L335.94,292.55L339.05,312.42L342.16,328.15L345.27,338.58L348.38,349.45L351.49,356.11L360.82,370.93L363.93,374.32L367.05,378.38L370.16,380.25L373.27,385.57L376.38,388.7L379.49,390.69L382.6,393.75L391.93,399.22L395.04,399.31L401.26,399.86L404.37,400.97L416.81,403.16L419.92,404.79L423.04,405.97L426.15,405.82L432.37,407.09L435.48,407.01L441.7,408.04L444.81,407.99L451.03,408.66L454.14,409.13L460.36,409.44L463.47,409.65L479.03,410.87L482.14,410.93L510.13,411.55L513.24,411.76L528.79,412.35L531.9,412.38L550.57,412.53L553.68,412.22L559.9,412.55L563.01,412.49L600.34,412.82L603.45,412.79L619,412.98" style="vector-effect: non-scaling-stroke; fill: none; stroke: rgb(44, 160, 44); stroke-opacity: 1; stroke-width: 2px; opacity: 1;"/></g><g class="points"/><g class="text"/></g><g class="trace scatter trace2bc19d" style="stroke-miterlimit: 2; opacity: 1;"><g class="fills"/><g class="errorbars"/><g class="lines"><path class="js-line" d="M0,21.76L3.11,413.25L6.22,413.25L9.33,117.08L12.44,305.47L27.99,276.9L31.11,272.25L37.33,261.9L40.44,257.56L43.55,256.19L46.66,252.98L55.99,239.16L59.1,237.13L62.21,233.34L65.32,231.35L68.43,228.89L71.54,224.23L74.65,223.99L77.76,220.51L80.87,217.96L83.98,214.15L87.1,210.85L90.21,209.86L93.32,205.98L96.43,204.35L102.65,198.08L105.76,194.67L111.98,191.98L115.09,189.32L118.2,185L121.31,184.24L124.42,179.18L127.53,178.72L130.64,177.55L133.75,172.66L136.86,171.83L139.97,169.44L146.2,161.54L149.31,160.81L152.42,158.51L155.53,158.39L158.64,154.74L161.75,152.34L167.97,143.79L171.08,145.29L174.19,141.45L177.3,140.87L180.41,141.17L183.52,137.5L186.63,132.38L189.74,133.88L192.85,126L195.96,124.01L199.08,120.27L202.19,120.25L205.3,118.81L208.41,114.86L214.63,108.8L217.74,107.39L220.85,102.47L223.96,101.13L227.07,97.88L230.18,97.86L233.29,94.92L236.4,89.78L239.51,87.66L242.62,81.49L245.73,86.91L248.84,84.02L255.07,74.95L258.18,75.8L261.29,69.79L264.4,69.75L267.51,69.49L270.62,68.39L273.73,58.9L276.84,58.73L279.95,54L283.06,54.78L289.28,49.1L292.39,49.96L295.5,41.68L298.61,41.9L301.72,39.94L304.83,37.03L307.94,29.18L311.06,34.72L329.72,240.94L332.83,262.89L339.05,305.13L342.16,321.43L348.38,346.8L351.49,352.7L357.71,357.91L360.82,363.24L363.93,364.89L367.05,370.32L373.27,379.16L376.38,382.86L379.49,384.87L382.6,387.78L391.93,396.27L395.04,396.12L413.7,398.53L416.81,400.02L423.04,401.47L426.15,403.15L429.26,403.32L432.37,404.7L438.59,406.02L441.7,405.9L454.14,406.97L457.25,406.97L463.47,407.87L466.58,408.12L469.69,408.06L472.8,408.89L485.25,409.83L488.36,410.38L497.69,410.52L500.8,410.81L507.02,410.61L510.13,410.77L519.46,411.5L522.57,411.31L566.12,412.36L569.23,412.27L619,412.69" style="vector-effect: non-scaling-stroke; fill: none; stroke: rgb(214, 39, 40); stroke-opacity: 1; stroke-width: 2px; opacity: 1;"/></g><g class="points"/><g class="text"/></g><g class="trace scatter trace5774e8" style="stroke-miterlimit: 2; opacity: 1;"><g class="fills"/><g class="errorbars"/><g class="lines"><path class="js-line" d="M0,21.76L3.11,413.25L6.22,413.25L9.33,117.08L12.44,305.47L27.99,276.9L31.11,272.25L37.33,261.9L40.44,257.56L43.55,256.19L46.66,252.98L55.99,239.16L59.1,237.13L62.21,233.34L65.32,231.35L68.43,228.89L71.54,224.23L74.65,223.99L77.76,220.51L80.87,217.96L83.98,214.15L87.1,210.85L90.21,209.86L93.32,205.98L96.43,204.35L102.65,198.08L105.76,194.67L111.98,191.98L115.09,189.32L118.2,185L121.31,184.24L124.42,179.18L127.53,178.72L130.64,177.55L133.75,172.66L136.86,171.83L139.97,169.44L146.2,161.54L149.31,160.81L152.42,158.51L155.53,158.39L158.64,154.74L161.75,152.34L167.97,143.79L171.08,145.29L174.19,141.45L177.3,140.87L180.41,141.17L183.52,137.5L186.63,132.38L189.74,133.88L192.85,126L195.96,124.01L199.08,120.27L202.19,120.25L205.3,118.81L208.41,114.86L214.63,108.8L217.74,107.39L220.85,102.47L223.96,101.13L227.07,97.88L230.18,97.86L233.29,94.92L236.4,89.78L239.51,87.66L242.62,81.49L245.73,86.91L248.84,84.02L255.07,74.95L258.18,75.8L261.29,69.79L264.4,69.75L267.51,69.49L270.62,68.39L273.73,58.9L276.84,58.73L279.95,54L283.06,54.78L289.28,49.1L292.39,49.96L295.5,41.68L298.61,41.9L301.72,39.94L304.83,37.03L307.94,29.18L311.06,34.55L314.17,50.85L317.28,84.94L329.72,219.46L332.83,246.28L335.94,273.96L339.05,290.69L342.16,310.34L345.27,323.66L348.38,337.65L351.49,346.24L357.71,351.16L360.82,350.55L363.93,352.91L367.05,357.32L373.27,364.58L376.38,370.16L379.49,375.39L382.6,378.24L391.93,387.41L395.04,389.32L404.37,390.75L407.48,390.06L410.59,392.07L413.7,391.68L416.81,393.08L419.92,392.98L426.15,395.4L429.26,396.44L432.37,398.78L435.48,399.29L441.7,401.7L444.81,401.34L451.03,402.6L454.14,401.88L457.25,403.76L460.36,403.88L463.47,403.89L466.58,404.75L469.69,404.62L472.8,405.32L479.03,406.87L482.14,407.4L485.25,406.99L488.36,407.68L497.69,408.27L500.8,408.58L510.13,408.94L513.24,409.71L516.35,409.23L519.46,409.66L528.79,410.24L531.9,410.25L541.24,410.74L544.35,410.63L550.57,411.01L553.68,410.97L566.12,411.63L569.23,411.46L584.78,412.11L587.89,411.95L619,412.43" style="vector-effect: non-scaling-stroke; fill: none; stroke: rgb(148, 103, 189); stroke-opacity: 1; stroke-width: 2px; opacity: 1;"/></g><g class="points"/><g class="text"/></g><g class="trace scatter traceb7ccb3" style="stroke-miterlimit: 2; opacity: 1;"><g class="fills"/><g class="errorbars"/><g class="lines"><path class="js-line" d="M0,21.76L3.11,413.25L6.22,413.25L9.33,117.08L12.44,305.47L27.99,276.9L31.11,272.25L37.33,261.9L40.44,257.56L43.55,256.19L46.66,252.98L55.99,239.16L59.1,237.13L62.21,233.34L65.32,231.35L68.43,228.89L71.54,224.23L74.65,223.99L77.76,220.51L80.87,217.96L83.98,214.15L87.1,210.85L90.21,209.86L93.32,205.98L96.43,204.35L102.65,198.08L105.76,194.67L111.98,191.98L115.09,189.32L118.2,185L121.31,184.24L124.42,179.18L127.53,178.72L130.64,177.55L133.75,172.66L136.86,171.83L139.97,169.44L146.2,161.54L149.31,160.81L152.42,158.51L155.53,158.39L158.64,154.74L161.75,152.34L167.97,143.79L171.08,145.29L174.19,141.45L177.3,140.87L180.41,141.17L183.52,137.5L186.63,132.38L189.74,133.88L192.85,126L195.96,124.01L199.08,120.27L202.19,120.25L205.3,118.81L208.41,114.86L214.63,108.8L217.74,107.39L220.85,102.47L223.96,101.13L227.07,97.88L230.18,97.86L233.29,94.92L236.4,89.78L239.51,87.66L242.62,81.49L245.73,86.91L248.84,84.02L255.07,74.95L258.18,75.8L261.29,69.79L264.4,69.75L267.51,69.49L270.62,68.39L273.73,58.9L276.84,58.73L279.95,54L283.06,54.78L289.28,49.1L292.39,49.96L295.5,41.68L298.61,41.9L301.72,39.94L304.83,37.03L307.94,29.18L311.06,32.89L314.17,41.83L317.28,66.9L326.61,165.63L329.72,199.64L335.94,253.46L339.05,276.5L342.16,298.39L345.27,311.44L348.38,327.48L351.49,338.55L357.71,346.04L360.82,344.73L363.93,344.35L367.05,344.99L376.38,354.07L379.49,358.19L388.82,373.5L391.93,376.78L398.15,383.55L401.26,384.42L404.37,386.72L407.48,384.44L410.59,385.3L413.7,384.87L416.81,384.55L419.92,385.92L423.04,385.95L426.15,387.49L429.26,390.15L432.37,391.08L441.7,395.29L444.81,397.51L447.92,397.19L451.03,397.85L457.25,398.66L460.36,399.13L463.47,400.16L466.58,400.24L472.8,400.51L475.91,402.37L485.25,403.41L488.36,404.72L494.58,404.68L497.69,406.06L500.8,405.45L503.91,406.33L507.02,406.11L510.13,406.95L522.57,407.61L525.68,407.9L535.02,408.59L538.13,409.36L559.9,410.05L563.01,410.54L575.45,410.35L578.56,410.68L581.67,410.43L584.78,411.11L587.89,410.82L591.01,411.29L615.89,411.66L619,411.92" style="vector-effect: non-scaling-stroke; fill: none; stroke: rgb(140, 86, 75); stroke-opacity: 1; stroke-width: 2px; opacity: 1;"/></g><g class="points"/><g class="text"/></g></g></g><g class="overplot"/><path class="xlines-above crisp" style="fill: none;" d="M0,0"/><path class="ylines-above crisp" style="fill: none;" d="M0,0"/><g class="overlines-above"/><g class="xaxislayer-above"><g class="xtick"><text text-anchor="middle" x="0" y="473" transform="translate(212.42,0)" style="font-family: 'Open Sans', verdana, arial, sans-serif; font-size: 12px; fill: rgb(68, 68, 68); fill-opacity: 1; white-space: pre;">50</text></g><g class="xtick"><text text-anchor="middle" x="0" y="473" transform="translate(367.94,0)" style="font-family: 'Open Sans', verdana, arial, sans-serif; font-size: 12px; fill: rgb(68, 68, 68); fill-opacity: 1; white-space: pre;">100</text></g><g class="xtick"><text text-anchor="middle" x="0" y="473" transform="translate(523.47,0)" style="font-family: 'Open Sans', verdana, arial, sans-serif; font-size: 12px; fill: rgb(68, 68, 68); fill-opacity: 1; white-space: pre;">150</text></g><g class="xtick"><text text-anchor="middle" x="0" y="473" transform="translate(679,0)" style="font-family: 'Open Sans', verdana, arial, sans-serif; font-size: 12px; fill: rgb(68, 68, 68); fill-opacity: 1; white-space: pre;">200</text></g></g><g class="yaxislayer-above"><g class="ytick"><text text-anchor="end" x="59" y="4.199999999999999" transform="translate(0,438.25)" style="font-family: 'Open Sans', verdana, arial, sans-serif; font-size: 12px; fill: rgb(68, 68, 68); fill-opacity: 1; white-space: pre;">0</text></g><g class="ytick"><text text-anchor="end" x="59" y="4.199999999999999" transform="translate(0,386.05)" style="font-family: 'Open Sans', verdana, arial, sans-serif; font-size: 12px; fill: rgb(68, 68, 68); fill-opacity: 1; white-space: pre;">20</text></g><g class="ytick"><text text-anchor="end" x="59" y="4.199999999999999" transform="translate(0,333.85)" style="font-family: 'Open Sans', verdana, arial, sans-serif; font-size: 12px; fill: rgb(68, 68, 68); fill-opacity: 1; white-space: pre;">40</text></g><g class="ytick"><text text-anchor="end" x="59" y="4.199999999999999" transform="translate(0,281.66)" style="font-family: 'Open Sans', verdana, arial, sans-serif; font-size: 12px; fill: rgb(68, 68, 68); fill-opacity: 1; white-space: pre;">60</text></g><g class="ytick"><text text-anchor="end" x="59" y="4.199999999999999" transform="translate(0,229.46)" style="font-family: 'Open Sans', verdana, arial, sans-serif; font-size: 12px; fill: rgb(68, 68, 68); fill-opacity: 1; white-space: pre;">80</text></g><g class="ytick"><text text-anchor="end" x="59" y="4.199999999999999" transform="translate(0,177.26)" style="font-family: 'Open Sans', verdana, arial, sans-serif; font-size: 12px; fill: rgb(68, 68, 68); fill-opacity: 1; white-space: pre;">100</text></g><g class="ytick"><text text-anchor="end" x="59" y="4.199999999999999" transform="translate(0,125.06)" style="font-family: 'Open Sans', verdana, arial, sans-serif; font-size: 12px; fill: rgb(68, 68, 68); fill-opacity: 1; white-space: pre;">120</text></g><g class="ytick"><text text-anchor="end" x="59" y="4.199999999999999" transform="translate(0,72.86)" style="font-family: 'Open Sans', verdana, arial, sans-serif; font-size: 12px; fill: rgb(68, 68, 68); fill-opacity: 1; white-space: pre;">140</text></g></g><g class="overaxes-above"/></g></g><g class="polarlayer"/><g class="ternarylayer"/><g class="geolayer"/><g class="funnelarealayer"/><g class="pielayer"/><g class="treemaplayer"/><g class="sunburstlayer"/><g class="glimages"/><defs id="topdefs-e7d95f"><g class="clips"/><clipPath id="legende7d95f"><rect width="117" height="140" x="0" y="0"/></clipPath></defs><g class="layer-above"><g class="imagelayer"/><g class="shapelayer"/></g><g class="infolayer"><g class="legend" pointer-events="all" transform="translate(90.95, 46.750000000000014)"><rect class="bg" shape-rendering="crispEdges" style="stroke: rgb(68, 68, 68); stroke-opacity: 1; fill: rgb(226, 226, 226); fill-opacity: 1; stroke-width: 0px;" width="117" height="140" x="0" y="0"/><g class="scrollbox" transform="translate(0, 0)" clip-path="url('#legende7d95f')"><text class="legendtitletext user-select-none" text-anchor="start" x="2" y="15.600000000000001" style="font-family: 'Open Sans', verdana, arial, sans-serif; font-size: 12px; fill: rgb(68, 68, 68); fill-opacity: 1; white-space: pre;"><tspan style="font-weight:bold"> Identification Time </tspan></text><g class="groups"><g class="traces" transform="translate(0, 30.1)" style="opacity: 1;"><text class="legendtext user-select-none" text-anchor="start" x="40" y="4.680000000000001" style="font-family: 'Open Sans', verdana, arial, sans-serif; font-size: 12px; fill: rgb(68, 68, 68); fill-opacity: 1; white-space: pre;">0 Months</text><g class="layers" style="opacity: 1;"><g class="legendfill"/><g class="legendlines"><path class="js-line" d="M5,0h30" style="fill: none; stroke: rgb(31, 119, 180); stroke-opacity: 1; stroke-width: 2px;"/></g><g class="legendsymbols"><g class="legendpoints"/></g></g><rect class="legendtoggle" pointer-events="all" x="0" y="-9.5" width="98.046875" height="19" style="cursor: pointer; fill: rgb(0, 0, 0); fill-opacity: 0;"/></g><g class="traces" transform="translate(0, 49.1)" style="opacity: 1;"><text class="legendtext user-select-none" text-anchor="start" x="40" y="4.680000000000001" style="font-family: 'Open Sans', verdana, arial, sans-serif; font-size: 12px; fill: rgb(68, 68, 68); fill-opacity: 1; white-space: pre;">3 Months</text><g class="layers" style="opacity: 1;"><g class="legendfill"/><g class="legendlines"><path class="js-line" d="M5,0h30" style="fill: none; stroke: rgb(255, 127, 14); stroke-opacity: 1; stroke-width: 2px;"/></g><g class="legendsymbols"><g class="legendpoints"/></g></g><rect class="legendtoggle" pointer-events="all" x="0" y="-9.5" width="98.046875" height="19" style="cursor: pointer; fill: rgb(0, 0, 0); fill-opacity: 0;"/></g><g class="traces" transform="translate(0, 68.1)" style="opacity: 1;"><text class="legendtext user-select-none" text-anchor="start" x="40" y="4.680000000000001" style="font-family: 'Open Sans', verdana, arial, sans-serif; font-size: 12px; fill: rgb(68, 68, 68); fill-opacity: 1; white-space: pre;">6 Months</text><g class="layers" style="opacity: 1;"><g class="legendfill"/><g class="legendlines"><path class="js-line" d="M5,0h30" style="fill: none; stroke: rgb(44, 160, 44); stroke-opacity: 1; stroke-width: 2px;"/></g><g class="legendsymbols"><g class="legendpoints"/></g></g><rect class="legendtoggle" pointer-events="all" x="0" y="-9.5" width="98.046875" height="19" style="cursor: pointer; fill: rgb(0, 0, 0); fill-opacity: 0;"/></g><g class="traces" transform="translate(0, 87.1)" style="opacity: 1;"><text class="legendtext user-select-none" text-anchor="start" x="40" y="4.680000000000001" style="font-family: 'Open Sans', verdana, arial, sans-serif; font-size: 12px; fill: rgb(68, 68, 68); fill-opacity: 1; white-space: pre;">12 Months</text><g class="layers" style="opacity: 1;"><g class="legendfill"/><g class="legendlines"><path class="js-line" d="M5,0h30" style="fill: none; stroke: rgb(214, 39, 40); stroke-opacity: 1; stroke-width: 2px;"/></g><g class="legendsymbols"><g class="legendpoints"/></g></g><rect class="legendtoggle" pointer-events="all" x="0" y="-9.5" width="98.046875" height="19" style="cursor: pointer; fill: rgb(0, 0, 0); fill-opacity: 0;"/></g><g class="traces" transform="translate(0, 106.1)" style="opacity: 1;"><text class="legendtext user-select-none" text-anchor="start" x="40" y="4.680000000000001" style="font-family: 'Open Sans', verdana, arial, sans-serif; font-size: 12px; fill: rgb(68, 68, 68); fill-opacity: 1; white-space: pre;">24 Months</text><g class="layers" style="opacity: 1;"><g class="legendfill"/><g class="legendlines"><path class="js-line" d="M5,0h30" style="fill: none; stroke: rgb(148, 103, 189); stroke-opacity: 1; stroke-width: 2px;"/></g><g class="legendsymbols"><g class="legendpoints"/></g></g><rect class="legendtoggle" pointer-events="all" x="0" y="-9.5" width="98.046875" height="19" style="cursor: pointer; fill: rgb(0, 0, 0); fill-opacity: 0;"/></g><g class="traces" transform="translate(0, 125.1)" style="opacity: 1;"><text class="legendtext user-select-none" text-anchor="start" x="40" y="4.680000000000001" style="font-family: 'Open Sans', verdana, arial, sans-serif; font-size: 12px; fill: rgb(68, 68, 68); fill-opacity: 1; white-space: pre;">36 Months</text><g class="layers" style="opacity: 1;"><g class="legendfill"/><g class="legendlines"><path class="js-line" d="M5,0h30" style="fill: none; stroke: rgb(140, 86, 75); stroke-opacity: 1; stroke-width: 2px;"/></g><g class="legendsymbols"><g class="legendpoints"/></g></g><rect class="legendtoggle" pointer-events="all" x="0" y="-9.5" width="98.046875" height="19" style="cursor: pointer; fill: rgb(0, 0, 0); fill-opacity: 0;"/></g></g></g><rect class="scrollbar" rx="20" ry="3" width="0" height="0" style="fill: rgb(128, 139, 164); fill-opacity: 1;" x="0" y="0"/></g><g class="g-gtitle"><text class="gtitle" x="350" y="12.5" text-anchor="middle" dy="0em" style="font-family: 'Open Sans', verdana, arial, sans-serif; font-size: 17px; fill: rgb(68, 68, 68); opacity: 1; font-weight: normal; white-space: pre;"><tspan style="font-weight:bold"> Leprosy Incidence PB - Immunity Vaccine 0.0, Treatment 95% </tspan></text></g><g class="g-xtitle" transform="translate(0,-15)"><text class="xtitle" x="369.5" y="512" text-anchor="middle" style="font-family: 'Open Sans', verdana, arial, sans-serif; font-size: 14px; fill: rgb(68, 68, 68); opacity: 1; font-weight: normal; white-space: pre;">Time(Years)</text></g><g class="g-ytitle"><text class="ytitle" transform="rotate(-90,22,242.5)" x="22" y="242.5" text-anchor="middle" style="font-family: 'Open Sans', verdana, arial, sans-serif; font-size: 14px; fill: rgb(68, 68, 68); opacity: 1; font-weight: normal; white-space: pre;">Number of new infectiuos individuals</text></g></g></svg>