<svg class="main-svg" xmlns="http://www.w3.org/2000/svg" xmlns:xlink="http://www.w3.org/1999/xlink" width="700" height="500" style="" viewBox="0 0 700 500"><rect x="0" y="0" width="700" height="500" style="fill: rgb(255, 255, 255); fill-opacity: 1;"/><defs id="defs-813ca8"><g class="clips"><clipPath id="clip813ca8xyplot" class="plotclip"><rect width="619" height="435"/></clipPath><clipPath class="axesclip" id="clip813ca8x"><rect x="60" y="0" width="619" height="500"/></clipPath><clipPath class="axesclip" id="clip813ca8y"><rect x="0" y="25" width="700" height="435"/></clipPath><clipPath class="axesclip" id="clip813ca8xy"><rect x="60" y="25" width="619" height="435"/></clipPath></g><g class="gradients"/></defs><g class="bglayer"/><g class="layer-below"><g class="imagelayer"/><g class="shapelayer"/></g><g class="cartesianlayer"><g class="subplot xy"><g class="layer-subplot"><g class="shapelayer"/><g class="imagelayer"/></g><g class="gridlayer"><g class="x"><path class="xgrid crisp" transform="translate(212.42,0)" d="M0,25v435" style="stroke: rgb(238, 238, 238); stroke-opacity: 1; stroke-width: 1px;"/><path class="xgrid crisp" transform="translate(367.94,0)" d="M0,25v435" style="stroke: rgb(238, 238, 238); stroke-opacity: 1; stroke-width: 1px;"/><path class="xgrid crisp" transform="translate(523.47,0)" d="M0,25v435" style="stroke: rgb(238, 238, 238); stroke-opacity: 1; stroke-width: 1px;"/></g><g class="y"><path class="ygrid crisp" transform="translate(0,386.05)" d="M60,0h619" style="stroke: rgb(238, 238, 238); stroke-opacity: 1; stroke-width: 1px;"/><path class="ygrid crisp" transform="translate(0,333.85)" d="M60,0h619" style="stroke: rgb(238, 238, 238); stroke-opacity: 1; stroke-width: 1px;"/><path class="ygrid crisp" transform="translate(0,281.66)" d="M60,0h619" style="stroke: rgb(238, 238, 238); stroke-opacity: 1; stroke-width: 1px;"/><path class="ygrid crisp" transform="translate(0,229.46)" d="M60,0h619" style="stroke: rgb(238, 238, 238); stroke-opacity: 1; stroke-width: 1px;"/><path class="ygrid crisp" transform="translate(0,177.26)" d="M60,0h619" style="stroke: rgb(238, 238, 238); stroke-opacity: 1; stroke-width: 1px;"/><path class="ygrid crisp" transform="translate(0,125.06)" d="M60,0h619" style="stroke: rgb(238, 238, 238); stroke-opacity: 1; stroke-width: 1px;"/><path class="ygrid crisp" transform="translate(0,72.86)" d="M60,0h619" style="stroke: rgb(238, 238, 238); stroke-opacity: 1; stroke-width: 1px;"/></g></g><g class="zerolinelayer"><path class="yzl zl crisp" transform="translate(0,438.25)" d="M60,0h619" style="stroke: rgb(68, 68, 68); stroke-opacity: 1; stroke-width: 1px;"/></g><path class="xlines-below"/><path class="ylines-below"/><g class="overlines-below"/><g class="xaxislayer-below"/><g class="yaxislayer-below"/><g class="overaxes-below"/><g class="plot" transform="translate(60, 25)" clip-path="url('#clip813ca8xyplot')"><g class="scatterlayer mlayer"><g class="trace scatter trace7a2fdb" style="stroke-miterlimit: 2; opacity: 1;"><g class="fills"/><g class="errorbars"/><g class="lines"><path class="js-line" d="M0,21.76L3.11,413.25L6.22,413.25L9.33,117.08L12.44,305.47L27.99,276.9L31.11,272.25L37.33,261.9L40.44,257.56L43.55,256.19L46.66,252.98L55.99,239.16L59.1,237.13L62.21,233.34L65.32,231.35L68.43,228.89L71.54,224.23L74.65,223.99L77.76,220.51L80.87,217.96L83.98,214.15L87.1,210.85L90.21,209.86L93.32,205.98L96.43,204.35L102.65,198.08L105.76,194.67L111.98,191.98L115.09,189.32L118.2,185L121.31,184.24L124.42,179.18L127.53,178.72L130.64,177.55L133.75,172.66L136.86,171.83L139.97,169.44L146.2,161.54L149.31,160.81L152.42,158.51L155.53,158.39L158.64,154.74L161.75,152.34L167.97,143.79L171.08,145.29L174.19,141.45L177.3,140.87L180.41,141.17L183.52,137.5L186.63,132.38L189.74,133.88L192.85,126L195.96,124.01L199.08,120.27L202.19,120.25L205.3,118.81L208.41,114.86L214.63,108.8L217.74,107.39L220.85,102.47L223.96,101.13L227.07,97.88L230.18,97.86L233.29,94.92L236.4,89.78L239.51,87.66L242.62,81.49L245.73,86.91L248.84,84.02L255.07,74.95L258.18,75.8L261.29,69.79L264.4,69.75L267.51,69.49L270.62,68.39L273.73,58.9L276.84,58.73L279.95,54L283.06,54.78L289.28,49.1L292.39,49.96L295.5,41.68L298.61,41.9L301.72,39.94L304.83,37.03L307.94,29.18L311.06,46.94L320.39,136.46L323.5,176.7L332.83,248.73L335.94,267.04L342.16,302.88L345.27,314.06L351.49,332.25L354.6,339.27L357.71,342.66L360.82,347.32L363.93,350.96L367.05,355.83L370.16,357.36L373.27,362.77L379.49,368.09L382.6,372.35L395.04,382.05L398.15,383.84L401.26,385.98L404.37,385.66L407.48,387.71L410.59,386.92L413.7,389.93L416.81,391.82L419.92,392.16L423.04,393.9L429.26,395.71L432.37,396.09L435.48,398.03L438.59,398.84L447.92,400.66L451.03,401.86L454.14,401.28L457.25,403.35L463.47,404.26L466.58,403.87L469.69,405.25L472.8,404.69L479.03,405.99L482.14,406.29L488.36,407.2L491.47,407.25L519.46,409.97L522.57,409.86L528.79,410.17L531.9,410.43L544.35,410.56L547.46,411.07L556.79,411.4L559.9,411.78L569.23,411.45L572.34,411.72L619,412.26" style="vector-effect: non-scaling-stroke; fill: none; stroke: rgb(31, 119, 180); stroke-opacity: 1; stroke-width: 2px; opacity: 1;"/></g><g class="points"/><g class="text"/></g><g class="trace scatter traceaa8883" style="stroke-miterlimit: 2; opacity: 1;"><g class="fills"/><g class="errorbars"/><g class="lines"><path class="js-line" d="M0,21.76L3.11,413.25L6.22,413.25L9.33,117.08L12.44,305.47L27.99,276.9L31.11,272.25L37.33,261.9L40.44,257.56L43.55,256.19L46.66,252.98L55.99,239.16L59.1,237.13L62.21,233.34L65.32,231.35L68.43,228.89L71.54,224.23L74.65,223.99L77.76,220.51L80.87,217.96L83.98,214.15L87.1,210.85L90.21,209.86L93.32,205.98L96.43,204.35L102.65,198.08L105.76,194.67L111.98,191.98L115.09,189.32L118.2,185L121.31,184.24L124.42,179.18L127.53,178.72L130.64,177.55L133.75,172.66L136.86,171.83L139.97,169.44L146.2,161.54L149.31,160.81L152.42,158.51L155.53,158.39L158.64,154.74L161.75,152.34L167.97,143.79L171.08,145.29L174.19,141.45L177.3,140.87L180.41,141.17L183.52,137.5L186.63,132.38L189.74,133.88L192.85,126L195.96,124.01L199.08,120.27L202.19,120.25L205.3,118.81L208.41,114.86L214.63,108.8L217.74,107.39L220.85,102.47L223.96,101.13L227.07,97.88L230.18,97.86L233.29,94.92L236.4,89.78L239.51,87.66L242.62,81.49L245.73,86.91L248.84,84.02L255.07,74.95L258.18,75.8L261.29,69.79L264.4,69.75L267.51,69.49L270.62,68.39L273.73,58.9L276.84,58.73L279.95,54L283.06,54.78L289.28,49.1L292.39,49.96L295.5,41.68L298.61,41.9L301.72,39.94L304.83,37.03L307.94,29.18L311.06,45.84L320.39,128.82L323.5,168.41L332.83,244.95L335.94,266.89L339.05,279.95L342.16,296.39L345.27,312.87L348.38,322.88L354.6,336.32L357.71,341.67L360.82,343.89L363.93,349.06L367.05,352.24L370.16,357.1L376.38,361.42L379.49,365.36L382.6,370.62L385.71,371.52L388.82,375.77L391.93,378.5L395.04,378.42L398.15,381.6L401.26,382.37L404.37,384.54L407.48,384.95L410.59,386.85L413.7,387.19L416.81,388.46L423.04,390.35L426.15,393.06L432.37,394.35L435.48,396.46L438.59,398.1L441.7,397.67L447.92,400.03L451.03,399.34L457.25,400.74L460.36,402.39L463.47,401.9L466.58,403.4L488.36,406.26L491.47,407.33L500.8,407.61L503.91,408.38L510.13,408.9L513.24,409.23L525.68,409.58L528.79,410.39L535.02,409.79L538.13,410.22L550.57,410.81L553.68,411.06L619,412.08" style="vector-effect: non-scaling-stroke; fill: none; stroke: rgb(255, 127, 14); stroke-opacity: 1; stroke-width: 2px; opacity: 1;"/></g><g class="points"/><g class="text"/></g><g class="trace scatter trace00b8a1" style="stroke-miterlimit: 2; opacity: 1;"><g class="fills"/><g class="errorbars"/><g class="lines"><path class="js-line" d="M0,21.76L3.11,413.25L6.22,413.25L9.33,117.08L12.44,305.47L27.99,276.9L31.11,272.25L37.33,261.9L40.44,257.56L43.55,256.19L46.66,252.98L55.99,239.16L59.1,237.13L62.21,233.34L65.32,231.35L68.43,228.89L71.54,224.23L74.65,223.99L77.76,220.51L80.87,217.96L83.98,214.15L87.1,210.85L90.21,209.86L93.32,205.98L96.43,204.35L102.65,198.08L105.76,194.67L111.98,191.98L115.09,189.32L118.2,185L121.31,184.24L124.42,179.18L127.53,178.72L130.64,177.55L133.75,172.66L136.86,171.83L139.97,169.44L146.2,161.54L149.31,160.81L152.42,158.51L155.53,158.39L158.64,154.74L161.75,152.34L167.97,143.79L171.08,145.29L174.19,141.45L177.3,140.87L180.41,141.17L183.52,137.5L186.63,132.38L189.74,133.88L192.85,126L195.96,124.01L199.08,120.27L202.19,120.25L205.3,118.81L208.41,114.86L214.63,108.8L217.74,107.39L220.85,102.47L223.96,101.13L227.07,97.88L230.18,97.86L233.29,94.92L236.4,89.78L239.51,87.66L242.62,81.49L245.73,86.91L248.84,84.02L255.07,74.95L258.18,75.8L261.29,69.79L264.4,69.75L267.51,69.49L270.62,68.39L273.73,58.9L276.84,58.73L279.95,54L283.06,54.78L289.28,49.1L292.39,49.96L295.5,41.68L298.61,41.9L301.72,39.94L304.83,37.03L307.94,29.18L311.06,38.73L329.72,221.8L332.83,239.27L342.16,295.71L345.27,307.56L351.49,327.91L354.6,334.18L357.71,336.28L360.82,341.39L370.16,351.83L373.27,354.68L379.49,363.82L382.6,366.42L395.04,378.73L398.15,378.51L401.26,380.38L404.37,381.28L410.59,384.23L413.7,385.79L416.81,386.15L419.92,387.59L423.04,390.41L426.15,391.21L432.37,393.99L435.48,393.87L441.7,397.04L444.81,397.08L447.92,397.58L451.03,398.88L457.25,400.88L460.36,400.59L469.69,402.13L472.8,403.29L482.14,405.16L485.25,405.11L488.36,405.19L491.47,406.12L494.58,406.05L497.69,406.86L503.91,406.91L507.02,407.91L513.24,408.1L516.35,408.42L525.68,409.2L528.79,409.17L531.9,409.8L535.02,409.62L541.24,410.93L544.35,410.46L550.57,410.31L553.68,410.74L612.78,412.06L615.89,411.92L619,412" style="vector-effect: non-scaling-stroke; fill: none; stroke: rgb(44, 160, 44); stroke-opacity: 1; stroke-width: 2px; opacity: 1;"/></g><g class="points"/><g class="text"/></g><g class="trace scatter tracec14b1a" style="stroke-miterlimit: 2; opacity: 1;"><g class="fills"/><g class="errorbars"/><g class="lines"><path class="js-line" d="M0,21.75L3.11,413.25L6.22,413.25L9.33,117.08L12.44,305.47L27.99,276.9L31.11,272.25L37.33,261.9L40.44,257.56L43.55,256.19L46.66,252.98L55.99,239.16L59.1,237.13L62.21,233.34L65.32,231.35L68.43,228.89L71.54,224.23L74.65,223.99L77.76,220.51L80.87,217.96L83.98,214.15L87.1,210.85L90.21,209.86L93.32,205.98L96.43,204.35L102.65,198.08L105.76,194.67L111.98,191.98L115.09,189.32L118.2,185L121.31,184.24L124.42,179.18L127.53,178.72L130.64,177.55L133.75,172.66L136.86,171.83L139.97,169.44L146.2,161.54L149.31,160.81L152.42,158.51L155.53,158.39L158.64,154.74L161.75,152.34L167.97,143.79L171.08,145.29L174.19,141.45L177.3,140.87L180.41,141.17L183.52,137.5L186.63,132.38L189.74,133.88L192.85,126L195.96,124.01L199.08,120.27L202.19,120.25L205.3,118.81L208.41,114.86L214.63,108.8L217.74,107.39L220.85,102.47L223.96,101.13L227.07,97.88L230.18,97.86L233.29,94.92L236.4,89.78L239.51,87.66L242.62,81.49L245.73,86.91L248.84,84.02L255.07,74.95L258.18,75.8L261.29,69.79L264.4,69.75L267.51,69.49L270.62,68.39L273.73,58.9L276.84,58.73L279.95,54L283.06,54.78L289.28,49.1L292.39,49.96L295.5,41.68L298.61,41.9L301.72,39.94L304.83,37.03L307.94,29.18L311.06,35.82L317.28,88.05L320.39,118.62L326.61,185.68L329.72,208.14L332.83,235.37L335.94,253.08L339.05,275.04L342.16,286.67L348.38,316.67L351.49,324.93L354.6,327.06L357.71,332.17L360.82,336.21L363.93,338.88L367.05,343.13L370.16,345.86L376.38,355.02L379.49,357.61L391.93,371.75L395.04,373.33L401.26,377.62L404.37,379.1L407.48,380.01L410.59,382.06L413.7,381.98L416.81,383.54L426.15,388.76L429.26,390.66L432.37,390.56L435.48,392.31L441.7,394.04L444.81,394.97L447.92,396.32L451.03,396.62L454.14,397.68L457.25,397.43L463.47,400.42L466.58,400.67L482.14,403.95L485.25,403.89L497.69,406.02L500.8,406.11L513.24,407.08L516.35,408.41L519.46,407.93L522.57,408.34L525.68,408.72L528.79,408.25L535.02,409.22L538.13,409.28L569.23,410.91L572.34,410.59L578.56,411.24L581.67,410.68L591.01,410.98L594.12,410.93L600.34,411.63L603.45,411.64L619,412.02" style="vector-effect: non-scaling-stroke; fill: none; stroke: rgb(214, 39, 40); stroke-opacity: 1; stroke-width: 2px; opacity: 1;"/></g><g class="points"/><g class="text"/></g><g class="trace scatter trace241016" style="stroke-miterlimit: 2; opacity: 1;"><g class="fills"/><g class="errorbars"/><g class="lines"><path class="js-line" d="M0,21.76L3.11,413.25L6.22,413.25L9.33,117.08L12.44,305.47L27.99,276.9L31.11,272.25L37.33,261.9L40.44,257.56L43.55,256.19L46.66,252.98L55.99,239.16L59.1,237.13L62.21,233.34L65.32,231.35L68.43,228.89L71.54,224.23L74.65,223.99L77.76,220.51L80.87,217.96L83.98,214.15L87.1,210.85L90.21,209.86L93.32,205.98L96.43,204.35L102.65,198.08L105.76,194.67L111.98,191.98L115.09,189.32L118.2,185L121.31,184.24L124.42,179.18L127.53,178.72L130.64,177.55L133.75,172.66L136.86,171.83L139.97,169.44L146.2,161.54L149.31,160.81L152.42,158.51L155.53,158.39L158.64,154.74L161.75,152.34L167.97,143.79L171.08,145.29L174.19,141.45L177.3,140.87L180.41,141.17L183.52,137.5L186.63,132.38L189.74,133.88L192.85,126L195.96,124.01L199.08,120.27L202.19,120.25L205.3,118.81L208.41,114.86L214.63,108.8L217.74,107.39L220.85,102.47L223.96,101.13L227.07,97.88L230.18,97.86L233.29,94.92L236.4,89.78L239.51,87.66L242.62,81.49L245.73,86.91L248.84,84.02L255.07,74.95L258.18,75.8L261.29,69.79L264.4,69.75L267.51,69.49L270.62,68.39L273.73,58.9L276.84,58.73L279.95,54L283.06,54.78L289.28,49.1L292.39,49.96L295.5,41.68L298.61,41.9L301.72,39.94L304.83,37.03L307.94,29.18L311.06,35.2L314.17,48.59L317.28,67.61L326.61,166.63L329.72,192.46L335.94,239.12L339.05,258.3L342.16,277.5L345.27,290.11L348.38,305.68L351.49,315.23L354.6,320.42L357.71,323.21L360.82,326.09L363.93,327.8L367.05,331.14L370.16,332.76L379.49,347.82L382.6,350.44L391.93,362.93L395.04,367.2L401.26,369.63L404.37,371.56L407.48,371.78L410.59,373.23L413.7,375.47L416.81,375.45L419.92,378.62L423.04,379.6L429.26,381.76L432.37,382.94L435.48,385.45L438.59,386.75L441.7,388.16L444.81,391.03L451.03,391.42L454.14,393.64L457.25,394.64L460.36,394.77L463.47,396.66L466.58,397.09L469.69,396.86L472.8,398.24L479.03,399.05L482.14,399.51L494.58,402.01L497.69,403.03L535.02,407.69L538.13,407.2L541.24,407.77L544.35,407.44L547.46,408.36L550.57,408.19L556.79,408.66L559.9,408.75L566.12,409.23L569.23,409.49L572.34,410.22L575.45,409.96L581.67,409.77L584.78,409.94L600.34,410.9L603.45,410.84L609.67,410.81L612.78,411.23L619,411.25" style="vector-effect: non-scaling-stroke; fill: none; stroke: rgb(148, 103, 189); stroke-opacity: 1; stroke-width: 2px; opacity: 1;"/></g><g class="points"/><g class="text"/></g><g class="trace scatter tracec3c383" style="stroke-miterlimit: 2; opacity: 1;"><g class="fills"/><g class="errorbars"/><g class="lines"><path class="js-line" d="M0,21.76L3.11,413.25L6.22,413.25L9.33,117.08L12.44,305.47L27.99,276.9L31.11,272.25L37.33,261.9L40.44,257.56L43.55,256.19L46.66,252.98L55.99,239.16L59.1,237.13L62.21,233.34L65.32,231.35L68.43,228.89L71.54,224.23L74.65,223.99L77.76,220.51L80.87,217.96L83.98,214.15L87.1,210.85L90.21,209.86L93.32,205.98L96.43,204.35L102.65,198.08L105.76,194.67L111.98,191.98L115.09,189.32L118.2,185L121.31,184.24L124.42,179.18L127.53,178.72L130.64,177.55L133.75,172.66L136.86,171.83L139.97,169.44L146.2,161.54L149.31,160.81L152.42,158.51L155.53,158.39L158.64,154.74L161.75,152.34L167.97,143.79L171.08,145.29L174.19,141.45L177.3,140.87L180.41,141.17L183.52,137.5L186.63,132.38L189.74,133.88L192.85,126L195.96,124.01L199.08,120.27L202.19,120.25L205.3,118.81L208.41,114.86L214.63,108.8L217.74,107.39L220.85,102.47L223.96,101.13L227.07,97.88L230.18,97.86L233.29,94.92L236.4,89.78L239.51,87.66L242.62,81.49L245.73,86.91L248.84,84.02L255.07,74.95L258.18,75.8L261.29,69.79L264.4,69.75L267.51,69.49L270.62,68.39L273.73,58.9L276.84,58.73L279.95,54L283.06,54.78L289.28,49.1L292.39,49.96L295.5,41.68L298.61,41.9L301.72,39.94L304.83,37.03L307.94,29.18L311.06,30.99L314.17,39.43L317.28,54.48L320.39,81.09L323.5,114.41L332.83,199.07L335.94,223.16L339.05,244.25L342.16,259.75L345.27,278.42L348.38,292.07L351.49,304.25L354.6,312.6L357.71,317.19L360.82,318.13L363.93,320.38L367.05,324.32L373.27,327.59L376.38,330.59L385.71,344.28L388.82,347.35L395.04,357.06L398.15,360.36L404.37,366.17L407.48,366.47L410.59,365.89L413.7,368.74L416.81,370.98L419.92,371.49L423.04,373.28L426.15,372.3L429.26,374.39L432.37,378.34L444.81,383.72L447.92,386.25L451.03,386.73L454.14,388.39L460.36,390.2L463.47,391.17L469.69,392.23L472.8,393.26L475.91,394.95L479.03,395.53L482.14,395.74L485.25,397.41L488.36,396.81L491.47,397.9L494.58,399.05L497.69,399.34L500.8,400.77L503.91,400.83L519.46,403.54L522.57,403.18L538.13,406.06L541.24,405.94L544.35,405.66L547.46,406.73L550.57,406.26L553.68,407.42L563.01,408.11L566.12,407.87L572.34,408.59L575.45,408.8L597.23,409.52L600.34,409.49L615.89,410.03L619,410.51" style="vector-effect: non-scaling-stroke; fill: none; stroke: rgb(140, 86, 75); stroke-opacity: 1; stroke-width: 2px; opacity: 1;"/></g><g class="points"/><g class="text"/></g></g></g><g class="overplot"/><path class="xlines-above crisp" style="fill: none;" d="M0,0"/><path class="ylines-above crisp" style="fill: none;" d="M0,0"/><g class="overlines-above"/><g class="xaxislayer-above"><g class="xtick"><text text-anchor="middle" x="0" y="473" transform="translate(212.42,0)" style="font-family: 'Open Sans', verdana, arial, sans-serif; font-size: 12px; fill: rgb(68, 68, 68); fill-opacity: 1; white-space: pre;">50</text></g><g class="xtick"><text text-anchor="middle" x="0" y="473" transform="translate(367.94,0)" style="font-family: 'Open Sans', verdana, arial, sans-serif; font-size: 12px; fill: rgb(68, 68, 68); fill-opacity: 1; white-space: pre;">100</text></g><g class="xtick"><text text-anchor="middle" x="0" y="473" transform="translate(523.47,0)" style="font-family: 'Open Sans', verdana, arial, sans-serif; font-size: 12px; fill: rgb(68, 68, 68); fill-opacity: 1; white-space: pre;">150</text></g><g class="xtick"><text text-anchor="middle" x="0" y="473" transform="translate(679,0)" style="font-family: 'Open Sans', verdana, arial, sans-serif; font-size: 12px; fill: rgb(68, 68, 68); fill-opacity: 1; white-space: pre;">200</text></g></g><g class="yaxislayer-above"><g class="ytick"><text text-anchor="end" x="59" y="4.199999999999999" transform="translate(0,438.25)" style="font-family: 'Open Sans', verdana, arial, sans-serif; font-size: 12px; fill: rgb(68, 68, 68); fill-opacity: 1; white-space: pre;">0</text></g><g class="ytick"><text text-anchor="end" x="59" y="4.199999999999999" transform="translate(0,386.05)" style="font-family: 'Open Sans', verdana, arial, sans-serif; font-size: 12px; fill: rgb(68, 68, 68); fill-opacity: 1; white-space: pre;">20</text></g><g class="ytick"><text text-anchor="end" x="59" y="4.199999999999999" transform="translate(0,333.85)" style="font-family: 'Open Sans', verdana, arial, sans-serif; font-size: 12px; fill: rgb(68, 68, 68); fill-opacity: 1; white-space: pre;">40</text></g><g class="ytick"><text text-anchor="end" x="59" y="4.199999999999999" transform="translate(0,281.66)" style="font-family: 'Open Sans', verdana, arial, sans-serif; font-size: 12px; fill: rgb(68, 68, 68); fill-opacity: 1; white-space: pre;">60</text></g><g class="ytick"><text text-anchor="end" x="59" y="4.199999999999999" transform="translate(0,229.46)" style="font-family: 'Open Sans', verdana, arial, sans-serif; font-size: 12px; fill: rgb(68, 68, 68); fill-opacity: 1; white-space: pre;">80</text></g><g class="ytick"><text text-anchor="end" x="59" y="4.199999999999999" transform="translate(0,177.26)" style="font-family: 'Open Sans', verdana, arial, sans-serif; font-size: 12px; fill: rgb(68, 68, 68); fill-opacity: 1; white-space: pre;">100</text></g><g class="ytick"><text text-anchor="end" x="59" y="4.199999999999999" transform="translate(0,125.06)" style="font-family: 'Open Sans', verdana, arial, sans-serif; font-size: 12px; fill: rgb(68, 68, 68); fill-opacity: 1; white-space: pre;">120</text></g><g class="ytick"><text text-anchor="end" x="59" y="4.199999999999999" transform="translate(0,72.86)" style="font-family: 'Open Sans', verdana, arial, sans-serif; font-size: 12px; fill: rgb(68, 68, 68); fill-opacity: 1; white-space: pre;">140</text></g></g><g class="overaxes-above"/></g></g><g class="polarlayer"/><g class="ternarylayer"/><g class="geolayer"/><g class="funnelarealayer"/><g class="pielayer"/><g class="treemaplayer"/><g class="sunburstlayer"/><g class="glimages"/><defs id="topdefs-813ca8"><g class="clips"/><clipPath id="legend813ca8"><rect width="117" height="140" x="0" y="0"/></clipPath></defs><g class="layer-above"><g class="imagelayer"/><g class="shapelayer"/></g><g class="infolayer"><g class="legend" pointer-events="all" transform="translate(90.95, 46.750000000000014)"><rect class="bg" shape-rendering="crispEdges" style="stroke: rgb(68, 68, 68); stroke-opacity: 1; fill: rgb(226, 226, 226); fill-opacity: 1; stroke-width: 0px;" width="117" height="140" x="0" y="0"/><g class="scrollbox" transform="translate(0, 0)" clip-path="url('#legend813ca8')"><text class="legendtitletext user-select-none" text-anchor="start" x="2" y="15.600000000000001" style="font-family: 'Open Sans', verdana, arial, sans-serif; font-size: 12px; fill: rgb(68, 68, 68); fill-opacity: 1; white-space: pre;"><tspan style="font-weight:bold"> Identification Time </tspan></text><g class="groups"><g class="traces" transform="translate(0, 30.1)" style="opacity: 1;"><text class="legendtext user-select-none" text-anchor="start" x="40" y="4.680000000000001" style="font-family: 'Open Sans', verdana, arial, sans-serif; font-size: 12px; fill: rgb(68, 68, 68); fill-opacity: 1; white-space: pre;">0 Months</text><g class="layers" style="opacity: 1;"><g class="legendfill"/><g class="legendlines"><path class="js-line" d="M5,0h30" style="fill: none; stroke: rgb(31, 119, 180); stroke-opacity: 1; stroke-width: 2px;"/></g><g class="legendsymbols"><g class="legendpoints"/></g></g><rect class="legendtoggle" pointer-events="all" x="0" y="-9.5" width="98.046875" height="19" style="cursor: pointer; fill: rgb(0, 0, 0); fill-opacity: 0;"/></g><g class="traces" transform="translate(0, 49.1)" style="opacity: 1;"><text class="legendtext user-select-none" text-anchor="start" x="40" y="4.680000000000001" style="font-family: 'Open Sans', verdana, arial, sans-serif; font-size: 12px; fill: rgb(68, 68, 68); fill-opacity: 1; white-space: pre;">3 Months</text><g class="layers" style="opacity: 1;"><g class="legendfill"/><g class="legendlines"><path class="js-line" d="M5,0h30" style="fill: none; stroke: rgb(255, 127, 14); stroke-opacity: 1; stroke-width: 2px;"/></g><g class="legendsymbols"><g class="legendpoints"/></g></g><rect class="legendtoggle" pointer-events="all" x="0" y="-9.5" width="98.046875" height="19" style="cursor: pointer; fill: rgb(0, 0, 0); fill-opacity: 0;"/></g><g class="traces" transform="translate(0, 68.1)" style="opacity: 1;"><text class="legendtext user-select-none" text-anchor="start" x="40" y="4.680000000000001" style="font-family: 'Open Sans', verdana, arial, sans-serif; font-size: 12px; fill: rgb(68, 68, 68); fill-opacity: 1; white-space: pre;">6 Months</text><g class="layers" style="opacity: 1;"><g class="legendfill"/><g class="legendlines"><path class="js-line" d="M5,0h30" style="fill: none; stroke: rgb(44, 160, 44); stroke-opacity: 1; stroke-width: 2px;"/></g><g class="legendsymbols"><g class="legendpoints"/></g></g><rect class="legendtoggle" pointer-events="all" x="0" y="-9.5" width="98.046875" height="19" style="cursor: pointer; fill: rgb(0, 0, 0); fill-opacity: 0;"/></g><g class="traces" transform="translate(0, 87.1)" style="opacity: 1;"><text class="legendtext user-select-none" text-anchor="start" x="40" y="4.680000000000001" style="font-family: 'Open Sans', verdana, arial, sans-serif; font-size: 12px; fill: rgb(68, 68, 68); fill-opacity: 1; white-space: pre;">12 Months</text><g class="layers" style="opacity: 1;"><g class="legendfill"/><g class="legendlines"><path class="js-line" d="M5,0h30" style="fill: none; stroke: rgb(214, 39, 40); stroke-opacity: 1; stroke-width: 2px;"/></g><g class="legendsymbols"><g class="legendpoints"/></g></g><rect class="legendtoggle" pointer-events="all" x="0" y="-9.5" width="98.046875" height="19" style="cursor: pointer; fill: rgb(0, 0, 0); fill-opacity: 0;"/></g><g class="traces" transform="translate(0, 106.1)" style="opacity: 1;"><text class="legendtext user-select-none" text-anchor="start" x="40" y="4.680000000000001" style="font-family: 'Open Sans', verdana, arial, sans-serif; font-size: 12px; fill: rgb(68, 68, 68); fill-opacity: 1; white-space: pre;">24 Months</text><g class="layers" style="opacity: 1;"><g class="legendfill"/><g class="legendlines"><path class="js-line" d="M5,0h30" style="fill: none; stroke: rgb(148, 103, 189); stroke-opacity: 1; stroke-width: 2px;"/></g><g class="legendsymbols"><g class="legendpoints"/></g></g><rect class="legendtoggle" pointer-events="all" x="0" y="-9.5" width="98.046875" height="19" style="cursor: pointer; fill: rgb(0, 0, 0); fill-opacity: 0;"/></g><g class="traces" transform="translate(0, 125.1)" style="opacity: 1;"><text class="legendtext user-select-none" text-anchor="start" x="40" y="4.680000000000001" style="font-family: 'Open Sans', verdana, arial, sans-serif; font-size: 12px; fill: rgb(68, 68, 68); fill-opacity: 1; white-space: pre;">36 Months</text><g class="layers" style="opacity: 1;"><g class="legendfill"/><g class="legendlines"><path class="js-line" d="M5,0h30" style="fill: none; stroke: rgb(140, 86, 75); stroke-opacity: 1; stroke-width: 2px;"/></g><g class="legendsymbols"><g class="legendpoints"/></g></g><rect class="legendtoggle" pointer-events="all" x="0" y="-9.5" width="98.046875" height="19" style="cursor: pointer; fill: rgb(0, 0, 0); fill-opacity: 0;"/></g></g></g><rect class="scrollbar" rx="20" ry="3" width="0" height="0" style="fill: rgb(128, 139, 164); fill-opacity: 1;" x="0" y="0"/></g><g class="g-gtitle"><text class="gtitle" x="350" y="12.5" text-anchor="middle" dy="0em" style="font-family: 'Open Sans', verdana, arial, sans-serif; font-size: 17px; fill: rgb(68, 68, 68); opacity: 1; font-weight: normal; white-space: pre;"><tspan style="font-weight:bold"> Leprosy Incidence PB - Immunity Vaccine 0.5, Treatment 75% </tspan></text></g><g class="g-xtitle" transform="translate(0,-15)"><text class="xtitle" x="369.5" y="512" text-anchor="middle" style="font-family: 'Open Sans', verdana, arial, sans-serif; font-size: 14px; fill: rgb(68, 68, 68); opacity: 1; font-weight: normal; white-space: pre;">Time(Years)</text></g><g class="g-ytitle"><text class="ytitle" transform="rotate(-90,22,242.5)" x="22" y="242.5" text-anchor="middle" style="font-family: 'Open Sans', verdana, arial, sans-serif; font-size: 14px; fill: rgb(68, 68, 68); opacity: 1; font-weight: normal; white-space: pre;">Number of new infectiuos individuals</text></g></g></svg>