<svg class="main-svg" xmlns="http://www.w3.org/2000/svg" xmlns:xlink="http://www.w3.org/1999/xlink" width="700" height="500" style="" viewBox="0 0 700 500"><rect x="0" y="0" width="700" height="500" style="fill: rgb(255, 255, 255); fill-opacity: 1;"/><defs id="defs-709985"><g class="clips"><clipPath id="clip709985xyplot" class="plotclip"><rect width="619" height="435"/></clipPath><clipPath class="axesclip" id="clip709985x"><rect x="60" y="0" width="619" height="500"/></clipPath><clipPath class="axesclip" id="clip709985y"><rect x="0" y="25" width="700" height="435"/></clipPath><clipPath class="axesclip" id="clip709985xy"><rect x="60" y="25" width="619" height="435"/></clipPath></g><g class="gradients"/></defs><g class="bglayer"/><g class="layer-below"><g class="imagelayer"/><g class="shapelayer"/></g><g class="cartesianlayer"><g class="subplot xy"><g class="layer-subplot"><g class="shapelayer"/><g class="imagelayer"/></g><g class="gridlayer"><g class="x"><path class="xgrid crisp" transform="translate(212.42,0)" d="M0,25v435" style="stroke: rgb(238, 238, 238); stroke-opacity: 1; stroke-width: 1px;"/><path class="xgrid crisp" transform="translate(367.94,0)" d="M0,25v435" style="stroke: rgb(238, 238, 238); stroke-opacity: 1; stroke-width: 1px;"/><path class="xgrid crisp" transform="translate(523.47,0)" d="M0,25v435" style="stroke: rgb(238, 238, 238); stroke-opacity: 1; stroke-width: 1px;"/></g><g class="y"><path class="ygrid crisp" transform="translate(0,386.07)" d="M60,0h619" style="stroke: rgb(238, 238, 238); stroke-opacity: 1; stroke-width: 1px;"/><path class="ygrid crisp" transform="translate(0,333.88)" d="M60,0h619" style="stroke: rgb(238, 238, 238); stroke-opacity: 1; stroke-width: 1px;"/><path class="ygrid crisp" transform="translate(0,281.7)" d="M60,0h619" style="stroke: rgb(238, 238, 238); stroke-opacity: 1; stroke-width: 1px;"/><path class="ygrid crisp" transform="translate(0,229.51)" d="M60,0h619" style="stroke: rgb(238, 238, 238); stroke-opacity: 1; stroke-width: 1px;"/><path class="ygrid crisp" transform="translate(0,177.33)" d="M60,0h619" style="stroke: rgb(238, 238, 238); stroke-opacity: 1; stroke-width: 1px;"/><path class="ygrid crisp" transform="translate(0,125.14)" d="M60,0h619" style="stroke: rgb(238, 238, 238); stroke-opacity: 1; stroke-width: 1px;"/><path class="ygrid crisp" transform="translate(0,72.96000000000001)" d="M60,0h619" style="stroke: rgb(238, 238, 238); stroke-opacity: 1; stroke-width: 1px;"/></g></g><g class="zerolinelayer"><path class="yzl zl crisp" transform="translate(0,438.25)" d="M60,0h619" style="stroke: rgb(68, 68, 68); stroke-opacity: 1; stroke-width: 1px;"/></g><path class="xlines-below"/><path class="ylines-below"/><g class="overlines-below"/><g class="xaxislayer-below"/><g class="yaxislayer-below"/><g class="overaxes-below"/><g class="plot" transform="translate(60, 25)" clip-path="url('#clip709985xyplot')"><g class="scatterlayer mlayer"><g class="trace scatter traced16bf7" style="stroke-miterlimit: 2; opacity: 1;"><g class="fills"/><g class="errorbars"/><g class="lines"><path class="js-line" d="M0,21.78L3.11,413.25L6.22,413.25L9.33,117.16L12.44,305.5L27.99,276.93L31.11,272.29L37.33,261.94L40.44,257.6L43.55,256.23L46.66,253.02L55.99,239.2L59.1,237.18L62.21,233.38L65.32,231.4L68.43,228.93L71.54,224.28L74.65,224.04L77.76,220.56L80.87,218.02L83.98,214.21L87.1,210.91L90.21,209.91L93.32,206.04L96.43,204.41L102.65,198.13L105.76,194.73L111.98,192.04L115.09,189.38L118.2,185.06L121.31,184.3L124.42,179.24L127.53,178.79L130.64,177.61L133.75,172.72L136.86,171.9L139.97,169.51L146.2,161.6L149.31,160.87L152.42,158.58L155.53,158.46L158.64,154.81L161.75,152.41L167.97,143.86L171.08,145.36L174.19,141.53L177.3,140.94L180.41,141.24L183.52,137.57L186.63,132.46L189.74,133.96L192.85,126.08L195.96,124.08L199.08,120.35L202.19,120.33L205.3,118.89L208.41,114.94L214.63,108.88L217.74,107.48L220.85,102.56L223.96,101.21L227.07,97.97L230.18,97.94L233.29,95L236.4,89.86L239.51,87.75L242.62,81.58L245.73,86.99L248.84,84.11L255.07,75.04L258.18,75.89L261.29,69.88L264.4,69.84L267.51,69.58L270.62,68.48L273.73,59L276.84,58.83L279.95,54.09L283.06,54.87L289.28,49.2L292.39,50.06L295.5,41.78L298.61,42L301.72,40.04L304.83,37.13L307.94,29.28L311.06,38.63L314.17,47.12L317.28,52.34L320.39,63.72L323.5,84.19L326.61,98.62L329.72,108.61L332.83,117.35L335.94,134.01L339.05,146.46L342.16,151.85L348.38,174.82L351.49,183.39L354.6,191.32L357.71,192.9L363.93,204.73L367.05,207.4L370.16,213.23L373.27,213.28L376.38,219.95L379.49,221.04L382.6,229.14L385.71,230.38L388.82,236.19L391.93,240.02L395.04,242.84L398.15,249.39L401.26,252.35L404.37,257.49L407.48,258.59L410.59,262.36L419.92,274.9L423.04,277.23L429.26,283.83L432.37,284.5L435.48,287L438.59,292.69L444.81,293.55L447.92,299.84L451.03,301.37L454.14,304.41L457.25,307.56L460.36,307.99L466.58,314.11L469.69,315.04L472.8,317.96L475.91,318.38L479.03,321.81L482.14,322.81L488.36,328.54L491.47,329.94L494.58,330.99L497.69,333.49L500.8,334.3L503.91,337.33L519.46,345.96L522.57,346.79L525.68,350.02L528.79,350.12L531.9,351.99L535.02,352.23L544.35,357.56L547.46,357.62L550.57,360.91L553.68,359.59L556.79,361.89L559.9,362.98L563.01,365.64L566.12,364.18L572.34,366.6L575.45,368.29L581.67,368.71L584.78,371.33L587.89,372.45L591.01,372.77L600.34,374.7L603.45,376.72L606.56,376.47L609.67,377.76L612.78,377.35L615.89,379L619,380.2" style="vector-effect: non-scaling-stroke; fill: none; stroke: rgb(31, 119, 180); stroke-opacity: 1; stroke-width: 2px; opacity: 1;"/></g><g class="points"/><g class="text"/></g><g class="trace scatter traceb18dc4" style="stroke-miterlimit: 2; opacity: 1;"><g class="fills"/><g class="errorbars"/><g class="lines"><path class="js-line" d="M0,21.83L3.11,413.25L6.22,413.25L9.33,117.16L12.44,305.5L27.99,276.93L31.11,272.29L37.33,261.94L40.44,257.6L43.55,256.23L46.66,253.02L55.99,239.2L59.1,237.18L62.21,233.38L65.32,231.4L68.43,228.93L71.54,224.28L74.65,224.04L77.76,220.56L80.87,218.02L83.98,214.21L87.1,210.91L90.21,209.91L93.32,206.04L96.43,204.41L102.65,198.13L105.76,194.73L111.98,192.04L115.09,189.38L118.2,185.06L121.31,184.3L124.42,179.24L127.53,178.79L130.64,177.61L133.75,172.72L136.86,171.9L139.97,169.51L146.2,161.6L149.31,160.87L152.42,158.58L155.53,158.46L158.64,154.81L161.75,152.41L167.97,143.86L171.08,145.36L174.19,141.53L177.3,140.94L180.41,141.24L183.52,137.57L186.63,132.46L189.74,133.96L192.85,126.08L195.96,124.08L199.08,120.35L202.19,120.33L205.3,118.89L208.41,114.94L214.63,108.88L217.74,107.48L220.85,102.56L223.96,101.21L227.07,97.97L230.18,97.94L233.29,95L236.4,89.86L239.51,87.75L242.62,81.58L245.73,86.99L248.84,84.11L255.07,75.04L258.18,75.89L261.29,69.88L264.4,69.84L267.51,69.58L270.62,68.48L273.73,59L276.84,58.83L279.95,54.09L283.06,54.87L289.28,49.2L292.39,50.06L295.5,41.78L298.61,42L301.72,40.04L304.83,37.13L307.94,29.28L311.06,34.78L320.39,59.82L323.5,83.08L326.61,91.18L329.72,102.9L345.27,161.84L348.38,172.61L351.49,175.98L354.6,185.18L357.71,189.68L360.82,195.59L373.27,213.61L376.38,215.58L379.49,222.5L382.6,224.62L385.71,228.24L388.82,233.49L391.93,236.65L395.04,242.4L398.15,245.06L401.26,249.17L407.48,258.42L410.59,258.33L413.7,265.05L416.81,264.72L419.92,273.37L423.04,275.07L426.15,278.67L429.26,280.49L435.48,285.37L438.59,289.63L441.7,289.69L444.81,293.63L447.92,298.14L451.03,299.08L454.14,303.34L457.25,303.51L463.47,308.83L466.58,310.98L472.8,316.58L475.91,316.02L482.14,323.28L485.25,324.85L491.47,327.98L494.58,330.5L497.69,331.32L500.8,334.02L507.02,337.54L510.13,339.36L513.24,339.07L516.35,340.32L519.46,344.34L522.57,344.67L525.68,348.82L528.79,348.75L535.02,353.13L538.13,352.23L541.24,354.56L544.35,355.53L553.68,359.21L556.79,360.62L559.9,362.8L563.01,361.6L566.12,364.73L569.23,365.7L572.34,365.88L575.45,365.01L578.56,368.58L581.67,368.78L587.89,370.32L591.01,370.97L600.34,374.91L603.45,374.42L606.56,376.47L609.67,375.9L612.78,378.31L615.89,378.8L619,379.9" style="vector-effect: non-scaling-stroke; fill: none; stroke: rgb(255, 127, 14); stroke-opacity: 1; stroke-width: 2px; opacity: 1;"/></g><g class="points"/><g class="text"/></g><g class="trace scatter tracec3298c" style="stroke-miterlimit: 2; opacity: 1;"><g class="fills"/><g class="errorbars"/><g class="lines"><path class="js-line" d="M0,21.8L3.11,413.25L6.22,413.25L9.33,117.16L12.44,305.5L27.99,276.93L31.11,272.29L37.33,261.94L40.44,257.6L43.55,256.23L46.66,253.02L55.99,239.2L59.1,237.18L62.21,233.38L65.32,231.4L68.43,228.93L71.54,224.28L74.65,224.04L77.76,220.56L80.87,218.02L83.98,214.21L87.1,210.91L90.21,209.91L93.32,206.04L96.43,204.41L102.65,198.13L105.76,194.73L111.98,192.04L115.09,189.38L118.2,185.06L121.31,184.3L124.42,179.24L127.53,178.79L130.64,177.61L133.75,172.72L136.86,171.9L139.97,169.51L146.2,161.6L149.31,160.87L152.42,158.58L155.53,158.46L158.64,154.81L161.75,152.41L167.97,143.86L171.08,145.36L174.19,141.53L177.3,140.94L180.41,141.24L183.52,137.57L186.63,132.46L189.74,133.96L192.85,126.08L195.96,124.08L199.08,120.35L202.19,120.33L205.3,118.89L208.41,114.94L214.63,108.88L217.74,107.48L220.85,102.56L223.96,101.21L227.07,97.97L230.18,97.94L233.29,95L236.4,89.86L239.51,87.75L242.62,81.58L245.73,86.99L248.84,84.11L255.07,75.04L258.18,75.89L261.29,69.88L264.4,69.84L267.51,69.58L270.62,68.48L273.73,59L276.84,58.83L279.95,54.09L283.06,54.87L289.28,49.2L292.39,50.06L295.5,41.78L298.61,42L301.72,40.04L304.83,37.13L307.94,29.28L311.06,34.42L314.17,43.34L317.28,49.72L320.39,61.36L323.5,79.31L326.61,93.22L329.72,103.48L332.83,114.05L335.94,131.55L339.05,138.73L342.16,148.71L348.38,171.27L351.49,178.09L354.6,188.56L357.71,189.68L360.82,194.58L363.93,201.73L367.05,201.29L370.16,207.87L373.27,213.1L376.38,215.68L382.6,227.06L385.71,229.16L391.93,240L395.04,241.59L398.15,246.43L401.26,249.82L407.48,260.72L410.59,259.42L413.7,266.17L416.81,266.53L423.04,272.18L426.15,278.16L429.26,280.35L432.37,281.26L435.48,287L438.59,288.02L441.7,291.61L444.81,293.11L447.92,295.08L451.03,300.38L454.14,300.08L457.25,302.85L460.36,309.21L463.47,309.26L469.69,313.23L472.8,315.68L475.91,315.98L479.03,321.21L482.14,321.76L485.25,323.95L488.36,326.3L491.47,326.92L494.58,329.08L497.69,332.49L500.8,331.53L503.91,335.48L507.02,338.52L510.13,338.18L513.24,342.17L516.35,342.92L528.79,349.7L531.9,349.47L535.02,351.5L538.13,352.38L541.24,354.02L544.35,354.24L547.46,355.52L550.57,358.35L556.79,359.6L559.9,362.2L563.01,361.29L566.12,363.17L572.34,365.91L575.45,366.09L578.56,368.21L581.67,368.12L594.12,371.45L597.23,373.37L603.45,374.26L606.56,375.96L609.67,377.29L612.78,376.84L615.89,377.54L619,379.54" style="vector-effect: non-scaling-stroke; fill: none; stroke: rgb(44, 160, 44); stroke-opacity: 1; stroke-width: 2px; opacity: 1;"/></g><g class="points"/><g class="text"/></g><g class="trace scatter tracea8ef59" style="stroke-miterlimit: 2; opacity: 1;"><g class="fills"/><g class="errorbars"/><g class="lines"><path class="js-line" d="M0,21.75L3.11,413.25L6.22,413.25L9.33,117.16L12.44,305.5L27.99,276.93L31.11,272.29L37.33,261.94L40.44,257.6L43.55,256.23L46.66,253.02L55.99,239.2L59.1,237.18L62.21,233.38L65.32,231.4L68.43,228.93L71.54,224.28L74.65,224.04L77.76,220.56L80.87,218.02L83.98,214.21L87.1,210.91L90.21,209.91L93.32,206.04L96.43,204.41L102.65,198.13L105.76,194.73L111.98,192.04L115.09,189.38L118.2,185.06L121.31,184.3L124.42,179.24L127.53,178.79L130.64,177.61L133.75,172.72L136.86,171.9L139.97,169.51L146.2,161.6L149.31,160.87L152.42,158.58L155.53,158.46L158.64,154.81L161.75,152.41L167.97,143.86L171.08,145.36L174.19,141.53L177.3,140.94L180.41,141.24L183.52,137.57L186.63,132.46L189.74,133.96L192.85,126.08L195.96,124.08L199.08,120.35L202.19,120.33L205.3,118.89L208.41,114.94L214.63,108.88L217.74,107.48L220.85,102.56L223.96,101.21L227.07,97.97L230.18,97.94L233.29,95L236.4,89.86L239.51,87.75L242.62,81.58L245.73,86.99L248.84,84.11L255.07,75.04L258.18,75.89L261.29,69.88L264.4,69.84L267.51,69.58L270.62,68.48L273.73,59L276.84,58.83L279.95,54.09L283.06,54.87L289.28,49.2L292.39,50.06L295.5,41.78L298.61,42L301.72,40.04L304.83,37.13L307.94,29.28L311.06,32.12L314.17,37.68L317.28,48.47L320.39,57.44L323.5,73.87L326.61,90.32L329.72,101.97L332.83,114.66L335.94,122.5L348.38,165.86L351.49,172.78L360.82,193.76L363.93,194.85L367.05,201.6L370.16,206.33L373.27,208.83L376.38,212.68L379.49,215.73L382.6,224.51L388.82,228.62L391.93,233.42L398.15,242.1L401.26,243.92L407.48,253.49L410.59,256.53L413.7,258.17L416.81,261.21L419.92,266.69L423.04,268.8L426.15,271.06L429.26,275.04L432.37,276.46L435.48,281.71L438.59,281.88L441.7,284.89L444.81,287.24L447.92,292.61L454.14,295.64L457.25,300.91L460.36,301.58L463.47,307.07L466.58,306.94L469.69,309.98L475.91,312.94L479.03,315.69L482.14,317.94L485.25,318.78L491.47,324.39L494.58,326.04L503.91,331.74L507.02,333.25L510.13,333.19L513.24,335.87L516.35,339.38L519.46,338.42L522.57,339.85L525.68,342.97L528.79,344.21L531.9,346.64L535.02,346.36L538.13,348.46L544.35,349.96L547.46,351.29L550.57,353.77L553.68,353.79L556.79,356.42L559.9,356.43L563.01,357.13L566.12,359.55L575.45,361.78L578.56,363.22L581.67,365.48L584.78,366.13L587.89,366.26L591.01,368.08L594.12,368.02L597.23,369.28L600.34,370.55L603.45,369.65L606.56,371.09L609.67,373.38L615.89,375.65L619,374.39" style="vector-effect: non-scaling-stroke; fill: none; stroke: rgb(214, 39, 40); stroke-opacity: 1; stroke-width: 2px; opacity: 1;"/></g><g class="points"/><g class="text"/></g><g class="trace scatter tracecf913a" style="stroke-miterlimit: 2; opacity: 1;"><g class="fills"/><g class="errorbars"/><g class="lines"><path class="js-line" d="M0,21.75L3.11,413.25L6.22,413.25L9.33,117.16L12.44,305.5L27.99,276.93L31.11,272.29L37.33,261.94L40.44,257.6L43.55,256.23L46.66,253.02L55.99,239.2L59.1,237.18L62.21,233.38L65.32,231.4L68.43,228.93L71.54,224.28L74.65,224.04L77.76,220.56L80.87,218.02L83.98,214.21L87.1,210.91L90.21,209.91L93.32,206.04L96.43,204.41L102.65,198.13L105.76,194.73L111.98,192.04L115.09,189.38L118.2,185.06L121.31,184.3L124.42,179.24L127.53,178.79L130.64,177.61L133.75,172.72L136.86,171.9L139.97,169.51L146.2,161.6L149.31,160.87L152.42,158.58L155.53,158.46L158.64,154.81L161.75,152.41L167.97,143.86L171.08,145.36L174.19,141.53L177.3,140.94L180.41,141.24L183.52,137.57L186.63,132.46L189.74,133.96L192.85,126.08L195.96,124.08L199.08,120.35L202.19,120.33L205.3,118.89L208.41,114.94L214.63,108.88L217.74,107.48L220.85,102.56L223.96,101.21L227.07,97.97L230.18,97.94L233.29,95L236.4,89.86L239.51,87.75L242.62,81.58L245.73,86.99L248.84,84.11L255.07,75.04L258.18,75.89L261.29,69.88L264.4,69.84L267.51,69.58L270.62,68.48L273.73,59L276.84,58.83L279.95,54.09L283.06,54.87L289.28,49.2L292.39,50.06L295.5,41.78L298.61,42L301.72,40.04L304.83,37.13L307.94,29.28L311.06,32.55L314.17,34L317.28,37.91L320.39,43.9L323.5,66.71L332.83,103.52L335.94,113.48L339.05,122.84L342.16,135.02L351.49,161.21L354.6,171.98L357.71,178.5L360.82,181.98L367.05,191.01L370.16,193.23L376.38,207.19L379.49,208.86L382.6,209.85L385.71,214.18L388.82,218.32L391.93,226.42L395.04,227.71L398.15,230.66L407.48,240.99L410.59,247.47L413.7,251.14L416.81,252.77L419.92,256.84L423.04,258.18L432.37,269.55L435.48,271.78L441.7,278.99L444.81,279.45L451.03,282.74L454.14,286.51L457.25,292.16L460.36,293.72L463.47,295.65L466.58,296.67L469.69,301.3L472.8,303.53L482.14,311.82L485.25,312.63L488.36,314.06L491.47,317.14L500.8,320.94L503.91,324.69L507.02,324.88L510.13,329.32L513.24,325.01L516.35,331.07L522.57,333.06L525.68,336.62L528.79,336.43L531.9,339.27L538.13,341.67L541.24,341.29L544.35,347.15L547.46,346.66L550.57,349.15L553.68,349.92L563.01,352.79L566.12,355.13L572.34,355.59L575.45,358.12L578.56,359.66L581.67,359.55L597.23,365.46L600.34,366.21L603.45,366.18L606.56,369.05L609.67,367.73L612.78,370.3L615.89,369.99L619,370.65" style="vector-effect: non-scaling-stroke; fill: none; stroke: rgb(148, 103, 189); stroke-opacity: 1; stroke-width: 2px; opacity: 1;"/></g><g class="points"/><g class="text"/></g><g class="trace scatter trace06500b" style="stroke-miterlimit: 2; opacity: 1;"><g class="fills"/><g class="errorbars"/><g class="lines"><path class="js-line" d="M0,21.79L3.11,413.25L6.22,413.25L9.33,117.16L12.44,305.5L27.99,276.93L31.11,272.29L37.33,261.94L40.44,257.6L43.55,256.23L46.66,253.02L55.99,239.2L59.1,237.18L62.21,233.38L65.32,231.4L68.43,228.93L71.54,224.28L74.65,224.04L77.76,220.56L80.87,218.02L83.98,214.21L87.1,210.91L90.21,209.91L93.32,206.04L96.43,204.41L102.65,198.13L105.76,194.73L111.98,192.04L115.09,189.38L118.2,185.06L121.31,184.3L124.42,179.24L127.53,178.79L130.64,177.61L133.75,172.72L136.86,171.9L139.97,169.51L146.2,161.6L149.31,160.87L152.42,158.58L155.53,158.46L158.64,154.81L161.75,152.41L167.97,143.86L171.08,145.36L174.19,141.53L177.3,140.94L180.41,141.24L183.52,137.57L186.63,132.46L189.74,133.96L192.85,126.08L195.96,124.08L199.08,120.35L202.19,120.33L205.3,118.89L208.41,114.94L214.63,108.88L217.74,107.48L220.85,102.56L223.96,101.21L227.07,97.97L230.18,97.94L233.29,95L236.4,89.86L239.51,87.75L242.62,81.58L245.73,86.99L248.84,84.11L255.07,75.04L258.18,75.89L261.29,69.88L264.4,69.84L267.51,69.58L270.62,68.48L273.73,59L276.84,58.83L279.95,54.09L283.06,54.87L289.28,49.2L292.39,50.06L295.5,41.78L298.61,42L301.72,40.04L304.83,37.13L307.94,29.28L311.06,31.29L317.28,32.54L320.39,41.46L323.5,53.61L326.61,70.83L329.72,84.57L332.83,90.72L339.05,115.39L342.16,125.18L345.27,133.18L348.38,144.66L354.6,162.79L357.71,166.93L360.82,176.97L363.93,180L370.16,185.28L373.27,190.74L376.38,197.19L379.49,201.37L382.6,203.64L385.71,207.89L388.82,208.31L391.93,216.44L398.15,224.03L401.26,227.79L404.37,228.97L407.48,234.71L410.59,234.9L413.7,242.58L416.81,244.58L419.92,248.58L426.15,254.01L429.26,258.13L432.37,261.98L435.48,264.04L438.59,268.49L441.7,271.45L444.81,275.38L447.92,274.57L451.03,279.51L454.14,280.44L457.25,282.01L460.36,286.65L463.47,287.45L466.58,293.41L469.69,295.27L472.8,294.7L475.91,298.72L479.03,299.04L482.14,302.72L485.25,304.37L488.36,308.42L491.47,309.59L494.58,312.04L497.69,315.59L500.8,313.64L503.91,317.91L513.24,324.93L516.35,325.16L519.46,324.61L522.57,329.32L525.68,332.01L528.79,331.74L531.9,334.44L535.02,333.75L538.13,337.47L541.24,337.2L544.35,339.68L547.46,340.14L550.57,340.84L553.68,342.4L556.79,343.05L559.9,345.97L569.23,348.5L572.34,350.55L575.45,350.28L578.56,352.17L581.67,354.83L584.78,354.56L591.01,358.52L594.12,359.03L603.45,362.5L606.56,364.27L609.67,362.89L612.78,364.81L615.89,364.98L619,366.64" style="vector-effect: non-scaling-stroke; fill: none; stroke: rgb(140, 86, 75); stroke-opacity: 1; stroke-width: 2px; opacity: 1;"/></g><g class="points"/><g class="text"/></g></g></g><g class="overplot"/><path class="xlines-above crisp" style="fill: none;" d="M0,0"/><path class="ylines-above crisp" style="fill: none;" d="M0,0"/><g class="overlines-above"/><g class="xaxislayer-above"><g class="xtick"><text text-anchor="middle" x="0" y="473" transform="translate(212.42,0)" style="font-family: 'Open Sans', verdana, arial, sans-serif; font-size: 12px; fill: rgb(68, 68, 68); fill-opacity: 1; white-space: pre;">50</text></g><g class="xtick"><text text-anchor="middle" x="0" y="473" transform="translate(367.94,0)" style="font-family: 'Open Sans', verdana, arial, sans-serif; font-size: 12px; fill: rgb(68, 68, 68); fill-opacity: 1; white-space: pre;">100</text></g><g class="xtick"><text text-anchor="middle" x="0" y="473" transform="translate(523.47,0)" style="font-family: 'Open Sans', verdana, arial, sans-serif; font-size: 12px; fill: rgb(68, 68, 68); fill-opacity: 1; white-space: pre;">150</text></g><g class="xtick"><text text-anchor="middle" x="0" y="473" transform="translate(679,0)" style="font-family: 'Open Sans', verdana, arial, sans-serif; font-size: 12px; fill: rgb(68, 68, 68); fill-opacity: 1; white-space: pre;">200</text></g></g><g class="yaxislayer-above"><g class="ytick"><text text-anchor="end" x="59" y="4.199999999999999" transform="translate(0,438.25)" style="font-family: 'Open Sans', verdana, arial, sans-serif; font-size: 12px; fill: rgb(68, 68, 68); fill-opacity: 1; white-space: pre;">0</text></g><g class="ytick"><text text-anchor="end" x="59" y="4.199999999999999" transform="translate(0,386.07)" style="font-family: 'Open Sans', verdana, arial, sans-serif; font-size: 12px; fill: rgb(68, 68, 68); fill-opacity: 1; white-space: pre;">20</text></g><g class="ytick"><text text-anchor="end" x="59" y="4.199999999999999" transform="translate(0,333.88)" style="font-family: 'Open Sans', verdana, arial, sans-serif; font-size: 12px; fill: rgb(68, 68, 68); fill-opacity: 1; white-space: pre;">40</text></g><g class="ytick"><text text-anchor="end" x="59" y="4.199999999999999" transform="translate(0,281.7)" style="font-family: 'Open Sans', verdana, arial, sans-serif; font-size: 12px; fill: rgb(68, 68, 68); fill-opacity: 1; white-space: pre;">60</text></g><g class="ytick"><text text-anchor="end" x="59" y="4.199999999999999" transform="translate(0,229.51)" style="font-family: 'Open Sans', verdana, arial, sans-serif; font-size: 12px; fill: rgb(68, 68, 68); fill-opacity: 1; white-space: pre;">80</text></g><g class="ytick"><text text-anchor="end" x="59" y="4.199999999999999" transform="translate(0,177.33)" style="font-family: 'Open Sans', verdana, arial, sans-serif; font-size: 12px; fill: rgb(68, 68, 68); fill-opacity: 1; white-space: pre;">100</text></g><g class="ytick"><text text-anchor="end" x="59" y="4.199999999999999" transform="translate(0,125.14)" style="font-family: 'Open Sans', verdana, arial, sans-serif; font-size: 12px; fill: rgb(68, 68, 68); fill-opacity: 1; white-space: pre;">120</text></g><g class="ytick"><text text-anchor="end" x="59" y="4.199999999999999" transform="translate(0,72.96000000000001)" style="font-family: 'Open Sans', verdana, arial, sans-serif; font-size: 12px; fill: rgb(68, 68, 68); fill-opacity: 1; white-space: pre;">140</text></g></g><g class="overaxes-above"/></g></g><g class="polarlayer"/><g class="ternarylayer"/><g class="geolayer"/><g class="funnelarealayer"/><g class="pielayer"/><g class="treemaplayer"/><g class="sunburstlayer"/><g class="glimages"/><defs id="topdefs-709985"><g class="clips"/><clipPath id="legend709985"><rect width="117" height="140" x="0" y="0"/></clipPath></defs><g class="layer-above"><g class="imagelayer"/><g class="shapelayer"/></g><g class="infolayer"><g class="legend" pointer-events="all" transform="translate(90.95, 46.750000000000014)"><rect class="bg" shape-rendering="crispEdges" style="stroke: rgb(68, 68, 68); stroke-opacity: 1; fill: rgb(226, 226, 226); fill-opacity: 1; stroke-width: 0px;" width="117" height="140" x="0" y="0"/><g class="scrollbox" transform="translate(0, 0)" clip-path="url('#legend709985')"><text class="legendtitletext user-select-none" text-anchor="start" x="2" y="15.600000000000001" style="font-family: 'Open Sans', verdana, arial, sans-serif; font-size: 12px; fill: rgb(68, 68, 68); fill-opacity: 1; white-space: pre;"><tspan style="font-weight:bold"> Identification Time </tspan></text><g class="groups"><g class="traces" transform="translate(0, 30.1)" style="opacity: 1;"><text class="legendtext user-select-none" text-anchor="start" x="40" y="4.680000000000001" style="font-family: 'Open Sans', verdana, arial, sans-serif; font-size: 12px; fill: rgb(68, 68, 68); fill-opacity: 1; white-space: pre;">0 Months</text><g class="layers" style="opacity: 1;"><g class="legendfill"/><g class="legendlines"><path class="js-line" d="M5,0h30" style="fill: none; stroke: rgb(31, 119, 180); stroke-opacity: 1; stroke-width: 2px;"/></g><g class="legendsymbols"><g class="legendpoints"/></g></g><rect class="legendtoggle" pointer-events="all" x="0" y="-9.5" width="98.046875" height="19" style="cursor: pointer; fill: rgb(0, 0, 0); fill-opacity: 0;"/></g><g class="traces" transform="translate(0, 49.1)" style="opacity: 1;"><text class="legendtext user-select-none" text-anchor="start" x="40" y="4.680000000000001" style="font-family: 'Open Sans', verdana, arial, sans-serif; font-size: 12px; fill: rgb(68, 68, 68); fill-opacity: 1; white-space: pre;">3 Months</text><g class="layers" style="opacity: 1;"><g class="legendfill"/><g class="legendlines"><path class="js-line" d="M5,0h30" style="fill: none; stroke: rgb(255, 127, 14); stroke-opacity: 1; stroke-width: 2px;"/></g><g class="legendsymbols"><g class="legendpoints"/></g></g><rect class="legendtoggle" pointer-events="all" x="0" y="-9.5" width="98.046875" height="19" style="cursor: pointer; fill: rgb(0, 0, 0); fill-opacity: 0;"/></g><g class="traces" transform="translate(0, 68.1)" style="opacity: 1;"><text class="legendtext user-select-none" text-anchor="start" x="40" y="4.680000000000001" style="font-family: 'Open Sans', verdana, arial, sans-serif; font-size: 12px; fill: rgb(68, 68, 68); fill-opacity: 1; white-space: pre;">6 Months</text><g class="layers" style="opacity: 1;"><g class="legendfill"/><g class="legendlines"><path class="js-line" d="M5,0h30" style="fill: none; stroke: rgb(44, 160, 44); stroke-opacity: 1; stroke-width: 2px;"/></g><g class="legendsymbols"><g class="legendpoints"/></g></g><rect class="legendtoggle" pointer-events="all" x="0" y="-9.5" width="98.046875" height="19" style="cursor: pointer; fill: rgb(0, 0, 0); fill-opacity: 0;"/></g><g class="traces" transform="translate(0, 87.1)" style="opacity: 1;"><text class="legendtext user-select-none" text-anchor="start" x="40" y="4.680000000000001" style="font-family: 'Open Sans', verdana, arial, sans-serif; font-size: 12px; fill: rgb(68, 68, 68); fill-opacity: 1; white-space: pre;">12 Months</text><g class="layers" style="opacity: 1;"><g class="legendfill"/><g class="legendlines"><path class="js-line" d="M5,0h30" style="fill: none; stroke: rgb(214, 39, 40); stroke-opacity: 1; stroke-width: 2px;"/></g><g class="legendsymbols"><g class="legendpoints"/></g></g><rect class="legendtoggle" pointer-events="all" x="0" y="-9.5" width="98.046875" height="19" style="cursor: pointer; fill: rgb(0, 0, 0); fill-opacity: 0;"/></g><g class="traces" transform="translate(0, 106.1)" style="opacity: 1;"><text class="legendtext user-select-none" text-anchor="start" x="40" y="4.680000000000001" style="font-family: 'Open Sans', verdana, arial, sans-serif; font-size: 12px; fill: rgb(68, 68, 68); fill-opacity: 1; white-space: pre;">24 Months</text><g class="layers" style="opacity: 1;"><g class="legendfill"/><g class="legendlines"><path class="js-line" d="M5,0h30" style="fill: none; stroke: rgb(148, 103, 189); stroke-opacity: 1; stroke-width: 2px;"/></g><g class="legendsymbols"><g class="legendpoints"/></g></g><rect class="legendtoggle" pointer-events="all" x="0" y="-9.5" width="98.046875" height="19" style="cursor: pointer; fill: rgb(0, 0, 0); fill-opacity: 0;"/></g><g class="traces" transform="translate(0, 125.1)" style="opacity: 1;"><text class="legendtext user-select-none" text-anchor="start" x="40" y="4.680000000000001" style="font-family: 'Open Sans', verdana, arial, sans-serif; font-size: 12px; fill: rgb(68, 68, 68); fill-opacity: 1; white-space: pre;">36 Months</text><g class="layers" style="opacity: 1;"><g class="legendfill"/><g class="legendlines"><path class="js-line" d="M5,0h30" style="fill: none; stroke: rgb(140, 86, 75); stroke-opacity: 1; stroke-width: 2px;"/></g><g class="legendsymbols"><g class="legendpoints"/></g></g><rect class="legendtoggle" pointer-events="all" x="0" y="-9.5" width="98.046875" height="19" style="cursor: pointer; fill: rgb(0, 0, 0); fill-opacity: 0;"/></g></g></g><rect class="scrollbar" rx="20" ry="3" width="0" height="0" style="fill: rgb(128, 139, 164); fill-opacity: 1;" x="0" y="0"/></g><g class="g-gtitle"><text class="gtitle" x="350" y="12.5" text-anchor="middle" dy="0em" style="font-family: 'Open Sans', verdana, arial, sans-serif; font-size: 17px; fill: rgb(68, 68, 68); opacity: 1; font-weight: normal; white-space: pre;"><tspan style="font-weight:bold"> Leprosy Incidence PB - Immunity Vaccine 0.5, Treatment 25% </tspan></text></g><g class="g-xtitle" transform="translate(0,-15)"><text class="xtitle" x="369.5" y="512" text-anchor="middle" style="font-family: 'Open Sans', verdana, arial, sans-serif; font-size: 14px; fill: rgb(68, 68, 68); opacity: 1; font-weight: normal; white-space: pre;">Time(Years)</text></g><g class="g-ytitle"><text class="ytitle" transform="rotate(-90,22,242.5)" x="22" y="242.5" text-anchor="middle" style="font-family: 'Open Sans', verdana, arial, sans-serif; font-size: 14px; fill: rgb(68, 68, 68); opacity: 1; font-weight: normal; white-space: pre;">Number of new infectiuos individuals</text></g></g></svg>