<svg class="main-svg" xmlns="http://www.w3.org/2000/svg" xmlns:xlink="http://www.w3.org/1999/xlink" width="700" height="500" style="" viewBox="0 0 700 500"><rect x="0" y="0" width="700" height="500" style="fill: rgb(255, 255, 255); fill-opacity: 1;"/><defs id="defs-c7e9d8"><g class="clips"><clipPath id="clipc7e9d8xyplot" class="plotclip"><rect width="619" height="435"/></clipPath><clipPath class="axesclip" id="clipc7e9d8x"><rect x="60" y="0" width="619" height="500"/></clipPath><clipPath class="axesclip" id="clipc7e9d8y"><rect x="0" y="25" width="700" height="435"/></clipPath><clipPath class="axesclip" id="clipc7e9d8xy"><rect x="60" y="25" width="619" height="435"/></clipPath></g><g class="gradients"/></defs><g class="bglayer"/><g class="layer-below"><g class="imagelayer"/><g class="shapelayer"/></g><g class="cartesianlayer"><g class="subplot xy"><g class="layer-subplot"><g class="shapelayer"/><g class="imagelayer"/></g><g class="gridlayer"><g class="x"><path class="xgrid crisp" transform="translate(212.42,0)" d="M0,25v435" style="stroke: rgb(238, 238, 238); stroke-opacity: 1; stroke-width: 1px;"/><path class="xgrid crisp" transform="translate(367.94,0)" d="M0,25v435" style="stroke: rgb(238, 238, 238); stroke-opacity: 1; stroke-width: 1px;"/><path class="xgrid crisp" transform="translate(523.47,0)" d="M0,25v435" style="stroke: rgb(238, 238, 238); stroke-opacity: 1; stroke-width: 1px;"/></g><g class="y"><path class="ygrid crisp" transform="translate(0,386.05)" d="M60,0h619" style="stroke: rgb(238, 238, 238); stroke-opacity: 1; stroke-width: 1px;"/><path class="ygrid crisp" transform="translate(0,333.85)" d="M60,0h619" style="stroke: rgb(238, 238, 238); stroke-opacity: 1; stroke-width: 1px;"/><path class="ygrid crisp" transform="translate(0,281.66)" d="M60,0h619" style="stroke: rgb(238, 238, 238); stroke-opacity: 1; stroke-width: 1px;"/><path class="ygrid crisp" transform="translate(0,229.46)" d="M60,0h619" style="stroke: rgb(238, 238, 238); stroke-opacity: 1; stroke-width: 1px;"/><path class="ygrid crisp" transform="translate(0,177.26)" d="M60,0h619" style="stroke: rgb(238, 238, 238); stroke-opacity: 1; stroke-width: 1px;"/><path class="ygrid crisp" transform="translate(0,125.06)" d="M60,0h619" style="stroke: rgb(238, 238, 238); stroke-opacity: 1; stroke-width: 1px;"/><path class="ygrid crisp" transform="translate(0,72.86)" d="M60,0h619" style="stroke: rgb(238, 238, 238); stroke-opacity: 1; stroke-width: 1px;"/></g></g><g class="zerolinelayer"><path class="yzl zl crisp" transform="translate(0,438.25)" d="M60,0h619" style="stroke: rgb(68, 68, 68); stroke-opacity: 1; stroke-width: 1px;"/></g><path class="xlines-below"/><path class="ylines-below"/><g class="overlines-below"/><g class="xaxislayer-below"/><g class="yaxislayer-below"/><g class="overaxes-below"/><g class="plot" transform="translate(60, 25)" clip-path="url('#clipc7e9d8xyplot')"><g class="scatterlayer mlayer"><g class="trace scatter trace688633" style="stroke-miterlimit: 2; opacity: 1;"><g class="fills"/><g class="errorbars"/><g class="lines"><path class="js-line" d="M0,21.76L3.11,413.25L6.22,413.25L9.33,117.08L12.44,305.47L27.99,276.9L31.11,272.25L37.33,261.9L40.44,257.56L43.55,256.19L46.66,252.98L55.99,239.16L59.1,237.13L62.21,233.34L65.32,231.35L68.43,228.89L71.54,224.23L74.65,223.99L77.76,220.51L80.87,217.96L83.98,214.15L87.1,210.85L90.21,209.86L93.32,205.98L96.43,204.35L102.65,198.08L105.76,194.67L111.98,191.98L115.09,189.32L118.2,185L121.31,184.24L124.42,179.18L127.53,178.72L130.64,177.55L133.75,172.66L136.86,171.83L139.97,169.44L146.2,161.54L149.31,160.81L152.42,158.51L155.53,158.39L158.64,154.74L161.75,152.34L167.97,143.79L171.08,145.29L174.19,141.45L177.3,140.87L180.41,141.17L183.52,137.5L186.63,132.38L189.74,133.88L192.85,126L195.96,124.01L199.08,120.27L202.19,120.25L205.3,118.81L208.41,114.86L214.63,108.8L217.74,107.39L220.85,102.47L223.96,101.13L227.07,97.88L230.18,97.86L233.29,94.92L236.4,89.78L239.51,87.66L242.62,81.49L245.73,86.91L248.84,84.02L255.07,74.95L258.18,75.8L261.29,69.79L264.4,69.75L267.51,69.49L270.62,68.39L273.73,58.9L276.84,58.73L279.95,54L283.06,54.78L289.28,49.1L292.39,49.96L295.5,41.68L298.61,41.9L301.72,39.94L304.83,37.03L307.94,29.18L311.06,46.94L320.39,136.34L323.5,181.53L329.72,235.14L332.83,253.56L339.05,294.66L342.16,306.49L348.38,333.36L351.49,340.38L357.71,351.98L360.82,355.24L367.05,361.67L370.16,366.56L385.71,380.69L388.82,385.14L391.93,385.81L395.04,387.58L416.81,396.86L419.92,396.44L426.15,399.37L429.26,400.11L435.48,401.74L438.59,402.08L444.81,404.17L447.92,404.35L454.14,405.92L457.25,405.77L466.58,407.17L469.69,407.42L472.8,408.2L475.91,408.02L500.8,410.38L503.91,410.3L525.68,411.68L528.79,411.37L538.13,411.87L541.24,411.7L563.01,412.32L566.12,412.3L619,412.51" style="vector-effect: non-scaling-stroke; fill: none; stroke: rgb(31, 119, 180); stroke-opacity: 1; stroke-width: 2px; opacity: 1;"/></g><g class="points"/><g class="text"/></g><g class="trace scatter traced57b85" style="stroke-miterlimit: 2; opacity: 1;"><g class="fills"/><g class="errorbars"/><g class="lines"><path class="js-line" d="M0,21.76L3.11,413.25L6.22,413.25L9.33,117.08L12.44,305.47L27.99,276.9L31.11,272.25L37.33,261.9L40.44,257.56L43.55,256.19L46.66,252.98L55.99,239.16L59.1,237.13L62.21,233.34L65.32,231.35L68.43,228.89L71.54,224.23L74.65,223.99L77.76,220.51L80.87,217.96L83.98,214.15L87.1,210.85L90.21,209.86L93.32,205.98L96.43,204.35L102.65,198.08L105.76,194.67L111.98,191.98L115.09,189.32L118.2,185L121.31,184.24L124.42,179.18L127.53,178.72L130.64,177.55L133.75,172.66L136.86,171.83L139.97,169.44L146.2,161.54L149.31,160.81L152.42,158.51L155.53,158.39L158.64,154.74L161.75,152.34L167.97,143.79L171.08,145.29L174.19,141.45L177.3,140.87L180.41,141.17L183.52,137.5L186.63,132.38L189.74,133.88L192.85,126L195.96,124.01L199.08,120.27L202.19,120.25L205.3,118.81L208.41,114.86L214.63,108.8L217.74,107.39L220.85,102.47L223.96,101.13L227.07,97.88L230.18,97.86L233.29,94.92L236.4,89.78L239.51,87.66L242.62,81.49L245.73,86.91L248.84,84.02L255.07,74.95L258.18,75.8L261.29,69.79L264.4,69.75L267.51,69.49L270.62,68.39L273.73,58.9L276.84,58.73L279.95,54L283.06,54.78L289.28,49.1L292.39,49.96L295.5,41.68L298.61,41.9L301.72,39.94L304.83,37.03L307.94,29.18L311.06,45.84L320.39,133.45L323.5,177.97L329.72,232.14L332.83,253.2L335.94,274.12L339.05,288.7L345.27,318.72L348.38,330.19L351.49,338.18L354.6,343.83L357.71,350.06L360.82,352.07L363.93,357.11L367.05,360.35L373.27,367.26L376.38,373.61L379.49,374.53L382.6,378.39L385.71,380.21L388.82,383L391.93,386.13L395.04,385.94L404.37,391.13L407.48,392.58L410.59,393.15L413.7,392.89L419.92,395.95L423.04,396.36L426.15,398.66L429.26,399.76L447.92,403.7L451.03,403.63L454.14,405.45L457.25,405.08L460.36,406.18L463.47,405.9L472.8,408.08L475.91,407.94L494.58,409.6L497.69,409.57L500.8,410.31L503.91,410.05L519.46,411.25L522.57,411.19L575.45,412.25L578.56,412.28L619,412.52" style="vector-effect: non-scaling-stroke; fill: none; stroke: rgb(255, 127, 14); stroke-opacity: 1; stroke-width: 2px; opacity: 1;"/></g><g class="points"/><g class="text"/></g><g class="trace scatter traceff1a2c" style="stroke-miterlimit: 2; opacity: 1;"><g class="fills"/><g class="errorbars"/><g class="lines"><path class="js-line" d="M0,21.76L3.11,413.25L6.22,413.25L9.33,117.08L12.44,305.47L27.99,276.9L31.11,272.25L37.33,261.9L40.44,257.56L43.55,256.19L46.66,252.98L55.99,239.16L59.1,237.13L62.21,233.34L65.32,231.35L68.43,228.89L71.54,224.23L74.65,223.99L77.76,220.51L80.87,217.96L83.98,214.15L87.1,210.85L90.21,209.86L93.32,205.98L96.43,204.35L102.65,198.08L105.76,194.67L111.98,191.98L115.09,189.32L118.2,185L121.31,184.24L124.42,179.18L127.53,178.72L130.64,177.55L133.75,172.66L136.86,171.83L139.97,169.44L146.2,161.54L149.31,160.81L152.42,158.51L155.53,158.39L158.64,154.74L161.75,152.34L167.97,143.79L171.08,145.29L174.19,141.45L177.3,140.87L180.41,141.17L183.52,137.5L186.63,132.38L189.74,133.88L192.85,126L195.96,124.01L199.08,120.27L202.19,120.25L205.3,118.81L208.41,114.86L214.63,108.8L217.74,107.39L220.85,102.47L223.96,101.13L227.07,97.88L230.18,97.86L233.29,94.92L236.4,89.78L239.51,87.66L242.62,81.49L245.73,86.91L248.84,84.02L255.07,74.95L258.18,75.8L261.29,69.79L264.4,69.75L267.51,69.49L270.62,68.39L273.73,58.9L276.84,58.73L279.95,54L283.06,54.78L289.28,49.1L292.39,49.96L295.5,41.68L298.61,41.9L301.72,39.94L304.83,37.03L307.94,29.18L311.06,38.73L320.39,127.78L323.5,170.52L332.83,251.88L335.94,269.6L345.27,317.69L348.38,328L354.6,343.53L357.71,347L360.82,349.1L363.93,354.68L370.16,360.96L373.27,365.67L376.38,368.24L379.49,372.31L382.6,373.93L385.71,378.68L388.82,380.86L391.93,384.49L395.04,384.97L398.15,386.52L404.37,390.37L407.48,390.73L413.7,392.48L416.81,393.6L429.26,398.71L432.37,398.37L435.48,400.85L438.59,401.37L454.14,404.15L457.25,404.59L463.47,405.69L466.58,406.41L469.69,406.18L472.8,407.06L485.25,408.55L488.36,408.76L516.35,410.87L519.46,410.59L525.68,411.02L528.79,411.1L547.46,411.81L550.57,411.93L566.12,412.49L569.23,412.1L581.67,412.34L584.78,412.14L594.12,412.6L597.23,412.31L609.67,412.56L612.78,412.51L619,412.55" style="vector-effect: non-scaling-stroke; fill: none; stroke: rgb(44, 160, 44); stroke-opacity: 1; stroke-width: 2px; opacity: 1;"/></g><g class="points"/><g class="text"/></g><g class="trace scatter traceb4d0ed" style="stroke-miterlimit: 2; opacity: 1;"><g class="fills"/><g class="errorbars"/><g class="lines"><path class="js-line" d="M0,21.75L3.11,413.25L6.22,413.25L9.33,117.08L12.44,305.47L27.99,276.9L31.11,272.25L37.33,261.9L40.44,257.56L43.55,256.19L46.66,252.98L55.99,239.16L59.1,237.13L62.21,233.34L65.32,231.35L68.43,228.89L71.54,224.23L74.65,223.99L77.76,220.51L80.87,217.96L83.98,214.15L87.1,210.85L90.21,209.86L93.32,205.98L96.43,204.35L102.65,198.08L105.76,194.67L111.98,191.98L115.09,189.32L118.2,185L121.31,184.24L124.42,179.18L127.53,178.72L130.64,177.55L133.75,172.66L136.86,171.83L139.97,169.44L146.2,161.54L149.31,160.81L152.42,158.51L155.53,158.39L158.64,154.74L161.75,152.34L167.97,143.79L171.08,145.29L174.19,141.45L177.3,140.87L180.41,141.17L183.52,137.5L186.63,132.38L189.74,133.88L192.85,126L195.96,124.01L199.08,120.27L202.19,120.25L205.3,118.81L208.41,114.86L214.63,108.8L217.74,107.39L220.85,102.47L223.96,101.13L227.07,97.88L230.18,97.86L233.29,94.92L236.4,89.78L239.51,87.66L242.62,81.49L245.73,86.91L248.84,84.02L255.07,74.95L258.18,75.8L261.29,69.79L264.4,69.75L267.51,69.49L270.62,68.39L273.73,58.9L276.84,58.73L279.95,54L283.06,54.78L289.28,49.1L292.39,49.96L295.5,41.68L298.61,41.9L301.72,39.94L304.83,37.03L307.94,29.18L311.06,35.82L317.28,87.72L320.39,121.16L323.5,163.77L326.61,193.14L332.83,242.73L335.94,264.88L345.27,313.16L348.38,326L351.49,333.74L354.6,337.82L360.82,346.78L363.93,349.83L367.05,352.97L370.16,357.55L373.27,359.38L376.38,364.78L379.49,368.4L382.6,370.6L385.71,375.95L388.82,378.29L398.15,384.7L401.26,385.79L407.48,387.66L410.59,388.55L413.7,391.48L416.81,392.38L426.15,394.92L429.26,396.46L432.37,397.98L435.48,398.39L451.03,403.16L454.14,403.06L460.36,403.98L463.47,404.28L472.8,406.12L475.91,406.12L479.03,407.18L482.14,406.99L494.58,408.89L497.69,409.3L550.57,411.55L553.68,411.33L566.12,411.91L569.23,411.92L619,412.56" style="vector-effect: non-scaling-stroke; fill: none; stroke: rgb(214, 39, 40); stroke-opacity: 1; stroke-width: 2px; opacity: 1;"/></g><g class="points"/><g class="text"/></g><g class="trace scatter trace192cfb" style="stroke-miterlimit: 2; opacity: 1;"><g class="fills"/><g class="errorbars"/><g class="lines"><path class="js-line" d="M0,21.75L3.11,413.25L6.22,413.25L9.33,117.08L12.44,305.47L27.99,276.9L31.11,272.25L37.33,261.9L40.44,257.56L43.55,256.19L46.66,252.98L55.99,239.16L59.1,237.13L62.21,233.34L65.32,231.35L68.43,228.89L71.54,224.23L74.65,223.99L77.76,220.51L80.87,217.96L83.98,214.15L87.1,210.85L90.21,209.86L93.32,205.98L96.43,204.35L102.65,198.08L105.76,194.67L111.98,191.98L115.09,189.32L118.2,185L121.31,184.24L124.42,179.18L127.53,178.72L130.64,177.55L133.75,172.66L136.86,171.83L139.97,169.44L146.2,161.54L149.31,160.81L152.42,158.51L155.53,158.39L158.64,154.74L161.75,152.34L167.97,143.79L171.08,145.29L174.19,141.45L177.3,140.87L180.41,141.17L183.52,137.5L186.63,132.38L189.74,133.88L192.85,126L195.96,124.01L199.08,120.27L202.19,120.25L205.3,118.81L208.41,114.86L214.63,108.8L217.74,107.39L220.85,102.47L223.96,101.13L227.07,97.88L230.18,97.86L233.29,94.92L236.4,89.78L239.51,87.66L242.62,81.49L245.73,86.91L248.84,84.02L255.07,74.95L258.18,75.8L261.29,69.79L264.4,69.75L267.51,69.49L270.62,68.39L273.73,58.9L276.84,58.73L279.95,54L283.06,54.78L289.28,49.1L292.39,49.96L295.5,41.68L298.61,41.9L301.72,39.94L304.83,37.03L307.94,29.18L311.06,35.2L314.17,46.07L317.28,67.08L320.39,96.71L323.5,145.33L329.72,203.75L332.83,228.56L339.05,271.68L342.16,288.8L348.38,317.1L351.49,324.7L354.6,332.17L357.71,334.56L360.82,338.78L363.93,338.78L367.05,341.76L370.16,346.74L376.38,355.35L379.49,360.2L382.6,362.94L385.71,366.92L388.82,371.74L391.93,374.58L395.04,375.35L398.15,378.97L401.26,381.03L404.37,380.72L407.48,383.48L410.59,383.72L416.81,385.95L419.92,386.69L423.04,389.43L426.15,390.44L435.48,395.41L438.59,396.12L441.7,397.02L444.81,399L447.92,398.71L451.03,399.68L460.36,402.65L463.47,402.68L466.58,402.72L469.69,403.78L482.14,405.97L485.25,405.72L488.36,407.09L491.47,407.08L507.02,408.77L510.13,408.15L513.24,409.22L516.35,409.28L522.57,409.8L525.68,410.33L531.9,410.34L535.02,410.74L612.78,412.51L615.89,412.15L619,412.28" style="vector-effect: non-scaling-stroke; fill: none; stroke: rgb(148, 103, 189); stroke-opacity: 1; stroke-width: 2px; opacity: 1;"/></g><g class="points"/><g class="text"/></g><g class="trace scatter trace51b6ae" style="stroke-miterlimit: 2; opacity: 1;"><g class="fills"/><g class="errorbars"/><g class="lines"><path class="js-line" d="M0,21.76L3.11,413.25L6.22,413.25L9.33,117.08L12.44,305.47L27.99,276.9L31.11,272.25L37.33,261.9L40.44,257.56L43.55,256.19L46.66,252.98L55.99,239.16L59.1,237.13L62.21,233.34L65.32,231.35L68.43,228.89L71.54,224.23L74.65,223.99L77.76,220.51L80.87,217.96L83.98,214.15L87.1,210.85L90.21,209.86L93.32,205.98L96.43,204.35L102.65,198.08L105.76,194.67L111.98,191.98L115.09,189.32L118.2,185L121.31,184.24L124.42,179.18L127.53,178.72L130.64,177.55L133.75,172.66L136.86,171.83L139.97,169.44L146.2,161.54L149.31,160.81L152.42,158.51L155.53,158.39L158.64,154.74L161.75,152.34L167.97,143.79L171.08,145.29L174.19,141.45L177.3,140.87L180.41,141.17L183.52,137.5L186.63,132.38L189.74,133.88L192.85,126L195.96,124.01L199.08,120.27L202.19,120.25L205.3,118.81L208.41,114.86L214.63,108.8L217.74,107.39L220.85,102.47L223.96,101.13L227.07,97.88L230.18,97.86L233.29,94.92L236.4,89.78L239.51,87.66L242.62,81.49L245.73,86.91L248.84,84.02L255.07,74.95L258.18,75.8L261.29,69.79L264.4,69.75L267.51,69.49L270.62,68.39L273.73,58.9L276.84,58.73L279.95,54L283.06,54.78L289.28,49.1L292.39,49.96L295.5,41.68L298.61,41.9L301.72,39.94L304.83,37.03L307.94,29.18L311.06,30.99L314.17,41.35L317.28,56.49L320.39,76.98L323.5,125.83L332.83,211.56L335.94,236.15L342.16,274.52L345.27,290.92L351.49,319.83L354.6,324.96L357.71,329.24L360.82,331.68L363.93,331.77L367.05,336.22L370.16,338.79L373.27,343.07L376.38,347.44L379.49,348.12L388.82,363.94L391.93,367.15L395.04,370.62L398.15,372.91L407.48,379.84L410.59,379.6L413.7,382.04L416.81,382.54L419.92,382.75L423.04,385.18L426.15,387.32L429.26,387.39L432.37,390.03L435.48,390.28L438.59,392.41L441.7,393.28L444.81,395.22L447.92,395.48L451.03,396.86L454.14,399.09L457.25,398.46L460.36,399.33L466.58,400.23L469.69,402.03L472.8,402.01L475.91,403.32L479.03,402.29L482.14,403.48L497.69,406.1L500.8,406.39L507.02,407.31L510.13,407.01L522.57,408.58L525.68,408.77L528.79,409.36L531.9,409.09L547.46,410.6L550.57,410.37L566.12,410.97L569.23,411.1L575.45,411.42L578.56,411.45L591.01,411.31L594.12,411.85L619,411.83" style="vector-effect: non-scaling-stroke; fill: none; stroke: rgb(140, 86, 75); stroke-opacity: 1; stroke-width: 2px; opacity: 1;"/></g><g class="points"/><g class="text"/></g></g></g><g class="overplot"/><path class="xlines-above crisp" style="fill: none;" d="M0,0"/><path class="ylines-above crisp" style="fill: none;" d="M0,0"/><g class="overlines-above"/><g class="xaxislayer-above"><g class="xtick"><text text-anchor="middle" x="0" y="473" transform="translate(212.42,0)" style="font-family: 'Open Sans', verdana, arial, sans-serif; font-size: 12px; fill: rgb(68, 68, 68); fill-opacity: 1; white-space: pre;">50</text></g><g class="xtick"><text text-anchor="middle" x="0" y="473" transform="translate(367.94,0)" style="font-family: 'Open Sans', verdana, arial, sans-serif; font-size: 12px; fill: rgb(68, 68, 68); fill-opacity: 1; white-space: pre;">100</text></g><g class="xtick"><text text-anchor="middle" x="0" y="473" transform="translate(523.47,0)" style="font-family: 'Open Sans', verdana, arial, sans-serif; font-size: 12px; fill: rgb(68, 68, 68); fill-opacity: 1; white-space: pre;">150</text></g><g class="xtick"><text text-anchor="middle" x="0" y="473" transform="translate(679,0)" style="font-family: 'Open Sans', verdana, arial, sans-serif; font-size: 12px; fill: rgb(68, 68, 68); fill-opacity: 1; white-space: pre;">200</text></g></g><g class="yaxislayer-above"><g class="ytick"><text text-anchor="end" x="59" y="4.199999999999999" transform="translate(0,438.25)" style="font-family: 'Open Sans', verdana, arial, sans-serif; font-size: 12px; fill: rgb(68, 68, 68); fill-opacity: 1; white-space: pre;">0</text></g><g class="ytick"><text text-anchor="end" x="59" y="4.199999999999999" transform="translate(0,386.05)" style="font-family: 'Open Sans', verdana, arial, sans-serif; font-size: 12px; fill: rgb(68, 68, 68); fill-opacity: 1; white-space: pre;">20</text></g><g class="ytick"><text text-anchor="end" x="59" y="4.199999999999999" transform="translate(0,333.85)" style="font-family: 'Open Sans', verdana, arial, sans-serif; font-size: 12px; fill: rgb(68, 68, 68); fill-opacity: 1; white-space: pre;">40</text></g><g class="ytick"><text text-anchor="end" x="59" y="4.199999999999999" transform="translate(0,281.66)" style="font-family: 'Open Sans', verdana, arial, sans-serif; font-size: 12px; fill: rgb(68, 68, 68); fill-opacity: 1; white-space: pre;">60</text></g><g class="ytick"><text text-anchor="end" x="59" y="4.199999999999999" transform="translate(0,229.46)" style="font-family: 'Open Sans', verdana, arial, sans-serif; font-size: 12px; fill: rgb(68, 68, 68); fill-opacity: 1; white-space: pre;">80</text></g><g class="ytick"><text text-anchor="end" x="59" y="4.199999999999999" transform="translate(0,177.26)" style="font-family: 'Open Sans', verdana, arial, sans-serif; font-size: 12px; fill: rgb(68, 68, 68); fill-opacity: 1; white-space: pre;">100</text></g><g class="ytick"><text text-anchor="end" x="59" y="4.199999999999999" transform="translate(0,125.06)" style="font-family: 'Open Sans', verdana, arial, sans-serif; font-size: 12px; fill: rgb(68, 68, 68); fill-opacity: 1; white-space: pre;">120</text></g><g class="ytick"><text text-anchor="end" x="59" y="4.199999999999999" transform="translate(0,72.86)" style="font-family: 'Open Sans', verdana, arial, sans-serif; font-size: 12px; fill: rgb(68, 68, 68); fill-opacity: 1; white-space: pre;">140</text></g></g><g class="overaxes-above"/></g></g><g class="polarlayer"/><g class="ternarylayer"/><g class="geolayer"/><g class="funnelarealayer"/><g class="pielayer"/><g class="treemaplayer"/><g class="sunburstlayer"/><g class="glimages"/><defs id="topdefs-c7e9d8"><g class="clips"/><clipPath id="legendc7e9d8"><rect width="117" height="140" x="0" y="0"/></clipPath></defs><g class="layer-above"><g class="imagelayer"/><g class="shapelayer"/></g><g class="infolayer"><g class="legend" pointer-events="all" transform="translate(90.95, 46.750000000000014)"><rect class="bg" shape-rendering="crispEdges" style="stroke: rgb(68, 68, 68); stroke-opacity: 1; fill: rgb(226, 226, 226); fill-opacity: 1; stroke-width: 0px;" width="117" height="140" x="0" y="0"/><g class="scrollbox" transform="translate(0, 0)" clip-path="url('#legendc7e9d8')"><text class="legendtitletext user-select-none" text-anchor="start" x="2" y="15.600000000000001" style="font-family: 'Open Sans', verdana, arial, sans-serif; font-size: 12px; fill: rgb(68, 68, 68); fill-opacity: 1; white-space: pre;"><tspan style="font-weight:bold"> Identification Time </tspan></text><g class="groups"><g class="traces" transform="translate(0, 30.1)" style="opacity: 1;"><text class="legendtext user-select-none" text-anchor="start" x="40" y="4.680000000000001" style="font-family: 'Open Sans', verdana, arial, sans-serif; font-size: 12px; fill: rgb(68, 68, 68); fill-opacity: 1; white-space: pre;">0 Months</text><g class="layers" style="opacity: 1;"><g class="legendfill"/><g class="legendlines"><path class="js-line" d="M5,0h30" style="fill: none; stroke: rgb(31, 119, 180); stroke-opacity: 1; stroke-width: 2px;"/></g><g class="legendsymbols"><g class="legendpoints"/></g></g><rect class="legendtoggle" pointer-events="all" x="0" y="-9.5" width="98.046875" height="19" style="cursor: pointer; fill: rgb(0, 0, 0); fill-opacity: 0;"/></g><g class="traces" transform="translate(0, 49.1)" style="opacity: 1;"><text class="legendtext user-select-none" text-anchor="start" x="40" y="4.680000000000001" style="font-family: 'Open Sans', verdana, arial, sans-serif; font-size: 12px; fill: rgb(68, 68, 68); fill-opacity: 1; white-space: pre;">3 Months</text><g class="layers" style="opacity: 1;"><g class="legendfill"/><g class="legendlines"><path class="js-line" d="M5,0h30" style="fill: none; stroke: rgb(255, 127, 14); stroke-opacity: 1; stroke-width: 2px;"/></g><g class="legendsymbols"><g class="legendpoints"/></g></g><rect class="legendtoggle" pointer-events="all" x="0" y="-9.5" width="98.046875" height="19" style="cursor: pointer; fill: rgb(0, 0, 0); fill-opacity: 0;"/></g><g class="traces" transform="translate(0, 68.1)" style="opacity: 1;"><text class="legendtext user-select-none" text-anchor="start" x="40" y="4.680000000000001" style="font-family: 'Open Sans', verdana, arial, sans-serif; font-size: 12px; fill: rgb(68, 68, 68); fill-opacity: 1; white-space: pre;">6 Months</text><g class="layers" style="opacity: 1;"><g class="legendfill"/><g class="legendlines"><path class="js-line" d="M5,0h30" style="fill: none; stroke: rgb(44, 160, 44); stroke-opacity: 1; stroke-width: 2px;"/></g><g class="legendsymbols"><g class="legendpoints"/></g></g><rect class="legendtoggle" pointer-events="all" x="0" y="-9.5" width="98.046875" height="19" style="cursor: pointer; fill: rgb(0, 0, 0); fill-opacity: 0;"/></g><g class="traces" transform="translate(0, 87.1)" style="opacity: 1;"><text class="legendtext user-select-none" text-anchor="start" x="40" y="4.680000000000001" style="font-family: 'Open Sans', verdana, arial, sans-serif; font-size: 12px; fill: rgb(68, 68, 68); fill-opacity: 1; white-space: pre;">12 Months</text><g class="layers" style="opacity: 1;"><g class="legendfill"/><g class="legendlines"><path class="js-line" d="M5,0h30" style="fill: none; stroke: rgb(214, 39, 40); stroke-opacity: 1; stroke-width: 2px;"/></g><g class="legendsymbols"><g class="legendpoints"/></g></g><rect class="legendtoggle" pointer-events="all" x="0" y="-9.5" width="98.046875" height="19" style="cursor: pointer; fill: rgb(0, 0, 0); fill-opacity: 0;"/></g><g class="traces" transform="translate(0, 106.1)" style="opacity: 1;"><text class="legendtext user-select-none" text-anchor="start" x="40" y="4.680000000000001" style="font-family: 'Open Sans', verdana, arial, sans-serif; font-size: 12px; fill: rgb(68, 68, 68); fill-opacity: 1; white-space: pre;">24 Months</text><g class="layers" style="opacity: 1;"><g class="legendfill"/><g class="legendlines"><path class="js-line" d="M5,0h30" style="fill: none; stroke: rgb(148, 103, 189); stroke-opacity: 1; stroke-width: 2px;"/></g><g class="legendsymbols"><g class="legendpoints"/></g></g><rect class="legendtoggle" pointer-events="all" x="0" y="-9.5" width="98.046875" height="19" style="cursor: pointer; fill: rgb(0, 0, 0); fill-opacity: 0;"/></g><g class="traces" transform="translate(0, 125.1)" style="opacity: 1;"><text class="legendtext user-select-none" text-anchor="start" x="40" y="4.680000000000001" style="font-family: 'Open Sans', verdana, arial, sans-serif; font-size: 12px; fill: rgb(68, 68, 68); fill-opacity: 1; white-space: pre;">36 Months</text><g class="layers" style="opacity: 1;"><g class="legendfill"/><g class="legendlines"><path class="js-line" d="M5,0h30" style="fill: none; stroke: rgb(140, 86, 75); stroke-opacity: 1; stroke-width: 2px;"/></g><g class="legendsymbols"><g class="legendpoints"/></g></g><rect class="legendtoggle" pointer-events="all" x="0" y="-9.5" width="98.046875" height="19" style="cursor: pointer; fill: rgb(0, 0, 0); fill-opacity: 0;"/></g></g></g><rect class="scrollbar" rx="20" ry="3" width="0" height="0" style="fill: rgb(128, 139, 164); fill-opacity: 1;" x="0" y="0"/></g><g class="g-gtitle"><text class="gtitle" x="350" y="12.5" text-anchor="middle" dy="0em" style="font-family: 'Open Sans', verdana, arial, sans-serif; font-size: 17px; fill: rgb(68, 68, 68); opacity: 1; font-weight: normal; white-space: pre;"><tspan style="font-weight:bold"> Leprosy Incidence PB - Immunity Vaccine 0.99, Treatment 75% </tspan></text></g><g class="g-xtitle" transform="translate(0,-15)"><text class="xtitle" x="369.5" y="512" text-anchor="middle" style="font-family: 'Open Sans', verdana, arial, sans-serif; font-size: 14px; fill: rgb(68, 68, 68); opacity: 1; font-weight: normal; white-space: pre;">Time(Years)</text></g><g class="g-ytitle"><text class="ytitle" transform="rotate(-90,22,242.5)" x="22" y="242.5" text-anchor="middle" style="font-family: 'Open Sans', verdana, arial, sans-serif; font-size: 14px; fill: rgb(68, 68, 68); opacity: 1; font-weight: normal; white-space: pre;">Number of new infectiuos individuals</text></g></g></svg>