<svg class="main-svg" xmlns="http://www.w3.org/2000/svg" xmlns:xlink="http://www.w3.org/1999/xlink" width="700" height="500" style="" viewBox="0 0 700 500"><rect x="0" y="0" width="700" height="500" style="fill: rgb(255, 255, 255); fill-opacity: 1;"/><defs id="defs-d63886"><g class="clips"><clipPath id="clipd63886xyplot" class="plotclip"><rect width="619" height="435"/></clipPath><clipPath class="axesclip" id="clipd63886x"><rect x="60" y="0" width="619" height="500"/></clipPath><clipPath class="axesclip" id="clipd63886y"><rect x="0" y="25" width="700" height="435"/></clipPath><clipPath class="axesclip" id="clipd63886xy"><rect x="60" y="25" width="619" height="435"/></clipPath></g><g class="gradients"/></defs><g class="bglayer"/><g class="layer-below"><g class="imagelayer"/><g class="shapelayer"/></g><g class="cartesianlayer"><g class="subplot xy"><g class="layer-subplot"><g class="shapelayer"/><g class="imagelayer"/></g><g class="gridlayer"><g class="x"><path class="xgrid crisp" transform="translate(212.42,0)" d="M0,25v435" style="stroke: rgb(238, 238, 238); stroke-opacity: 1; stroke-width: 1px;"/><path class="xgrid crisp" transform="translate(367.94,0)" d="M0,25v435" style="stroke: rgb(238, 238, 238); stroke-opacity: 1; stroke-width: 1px;"/><path class="xgrid crisp" transform="translate(523.47,0)" d="M0,25v435" style="stroke: rgb(238, 238, 238); stroke-opacity: 1; stroke-width: 1px;"/></g><g class="y"><path class="ygrid crisp" transform="translate(0,386.06)" d="M60,0h619" style="stroke: rgb(238, 238, 238); stroke-opacity: 1; stroke-width: 1px;"/><path class="ygrid crisp" transform="translate(0,333.88)" d="M60,0h619" style="stroke: rgb(238, 238, 238); stroke-opacity: 1; stroke-width: 1px;"/><path class="ygrid crisp" transform="translate(0,281.69)" d="M60,0h619" style="stroke: rgb(238, 238, 238); stroke-opacity: 1; stroke-width: 1px;"/><path class="ygrid crisp" transform="translate(0,229.51)" d="M60,0h619" style="stroke: rgb(238, 238, 238); stroke-opacity: 1; stroke-width: 1px;"/><path class="ygrid crisp" transform="translate(0,177.32)" d="M60,0h619" style="stroke: rgb(238, 238, 238); stroke-opacity: 1; stroke-width: 1px;"/><path class="ygrid crisp" transform="translate(0,125.13)" d="M60,0h619" style="stroke: rgb(238, 238, 238); stroke-opacity: 1; stroke-width: 1px;"/><path class="ygrid crisp" transform="translate(0,72.95)" d="M60,0h619" style="stroke: rgb(238, 238, 238); stroke-opacity: 1; stroke-width: 1px;"/></g></g><g class="zerolinelayer"><path class="yzl zl crisp" transform="translate(0,438.25)" d="M60,0h619" style="stroke: rgb(68, 68, 68); stroke-opacity: 1; stroke-width: 1px;"/></g><path class="xlines-below"/><path class="ylines-below"/><g class="overlines-below"/><g class="xaxislayer-below"/><g class="yaxislayer-below"/><g class="overaxes-below"/><g class="plot" transform="translate(60, 25)" clip-path="url('#clipd63886xyplot')"><g class="scatterlayer mlayer"><g class="trace scatter trace60012f" style="stroke-miterlimit: 2; opacity: 1;"><g class="fills"/><g class="errorbars"/><g class="lines"><path class="js-line" d="M0,21.83L3.11,413.25L6.22,413.25L9.33,117.15L12.44,305.5L27.99,276.93L31.11,272.28L37.33,261.94L40.44,257.59L43.55,256.22L46.66,253.01L55.99,239.2L59.1,237.17L62.21,233.38L65.32,231.39L68.43,228.93L71.54,224.27L74.65,224.04L77.76,220.55L80.87,218.01L83.98,214.2L87.1,210.9L90.21,209.91L93.32,206.03L96.43,204.4L102.65,198.13L105.76,194.72L111.98,192.03L115.09,189.37L118.2,185.05L121.31,184.3L124.42,179.23L127.53,178.78L130.64,177.6L133.75,172.71L136.86,171.89L139.97,169.5L146.2,161.6L149.31,160.87L152.42,158.57L155.53,158.45L158.64,154.8L161.75,152.4L167.97,143.85L171.08,145.35L174.19,141.52L177.3,140.93L180.41,141.23L183.52,137.56L186.63,132.45L189.74,133.95L192.85,126.07L195.96,124.07L199.08,120.34L202.19,120.32L205.3,118.88L208.41,114.93L214.63,108.87L217.74,107.47L220.85,102.55L223.96,101.2L227.07,97.95L230.18,97.93L233.29,94.99L236.4,89.85L239.51,87.74L242.62,81.57L245.73,86.98L248.84,84.1L255.07,75.03L258.18,75.88L261.29,69.87L264.4,69.83L267.51,69.57L270.62,68.47L273.73,58.98L276.84,58.82L279.95,54.08L283.06,54.86L289.28,49.19L292.39,50.05L295.5,41.76L298.61,41.99L301.72,40.03L304.83,37.12L307.94,29.26L311.06,42.14L320.39,99.9L323.5,122.29L329.72,163.68L332.83,183.93L335.94,197.3L339.05,214.89L342.16,225.47L345.27,238.75L351.49,260.81L354.6,266.29L376.38,293.93L379.49,295.22L382.6,302.25L385.71,305.41L395.04,314.25L398.15,318.48L407.48,326.93L410.59,328.57L413.7,331.21L416.81,331.03L423.04,336.47L426.15,337.44L429.26,340.12L432.37,341.02L435.48,345.08L438.59,344.79L441.7,348.08L444.81,348.72L451.03,353.3L454.14,355.82L460.36,356.86L463.47,360.18L479.03,367.46L482.14,370.35L488.36,370.8L491.47,372.35L494.58,375.05L497.69,375.61L503.91,375.81L507.02,377.37L510.13,379.59L513.24,380.63L516.35,380.26L519.46,381.31L531.9,384.8L535.02,385.42L541.24,387.29L544.35,387.4L550.57,390.07L553.68,389.18L556.79,391.57L559.9,391.08L566.12,392.02L569.23,393.48L572.34,392.88L575.45,393.94L578.56,395.48L581.67,395.38L594.12,397.11L597.23,397.53L609.67,399.59L612.78,398.87L615.89,400.33L619,400.57" style="vector-effect: non-scaling-stroke; fill: none; stroke: rgb(31, 119, 180); stroke-opacity: 1; stroke-width: 2px; opacity: 1;"/></g><g class="points"/><g class="text"/></g><g class="trace scatter trace0a70d6" style="stroke-miterlimit: 2; opacity: 1;"><g class="fills"/><g class="errorbars"/><g class="lines"><path class="js-line" d="M0,21.79L3.11,413.25L6.22,413.25L9.33,117.15L12.44,305.5L27.99,276.93L31.11,272.28L37.33,261.94L40.44,257.59L43.55,256.22L46.66,253.01L55.99,239.2L59.1,237.17L62.21,233.38L65.32,231.39L68.43,228.93L71.54,224.27L74.65,224.04L77.76,220.55L80.87,218.01L83.98,214.2L87.1,210.9L90.21,209.91L93.32,206.03L96.43,204.4L102.65,198.13L105.76,194.72L111.98,192.03L115.09,189.37L118.2,185.05L121.31,184.3L124.42,179.23L127.53,178.78L130.64,177.6L133.75,172.71L136.86,171.89L139.97,169.5L146.2,161.6L149.31,160.87L152.42,158.57L155.53,158.45L158.64,154.8L161.75,152.4L167.97,143.85L171.08,145.35L174.19,141.52L177.3,140.93L180.41,141.23L183.52,137.56L186.63,132.45L189.74,133.95L192.85,126.07L195.96,124.07L199.08,120.34L202.19,120.32L205.3,118.88L208.41,114.93L214.63,108.87L217.74,107.47L220.85,102.55L223.96,101.2L227.07,97.95L230.18,97.93L233.29,94.99L236.4,89.85L239.51,87.74L242.62,81.57L245.73,86.98L248.84,84.1L255.07,75.03L258.18,75.88L261.29,69.87L264.4,69.83L267.51,69.57L270.62,68.47L273.73,58.98L276.84,58.82L279.95,54.08L283.06,54.86L289.28,49.19L292.39,50.05L295.5,41.76L298.61,41.99L301.72,40.03L304.83,37.12L307.94,29.26L311.06,42.95L317.28,78.7L320.39,100.09L335.94,193.87L339.05,209.79L348.38,247.98L351.49,257.46L357.71,268.59L360.82,273.97L363.93,273.46L367.05,277.59L370.16,282.45L373.27,285.73L382.6,295.52L385.71,301.17L388.82,303.52L391.93,309.09L395.04,310.04L398.15,315.84L401.26,315.49L404.37,319.84L410.59,326.2L413.7,326.71L416.81,327.55L419.92,332.04L426.15,336.55L429.26,337.24L432.37,338.1L435.48,342.33L441.7,345.3L444.81,348.47L447.92,351.36L451.03,349.95L454.14,353.39L457.25,354.36L466.58,358.96L469.69,361.47L472.8,363.16L475.91,361.72L479.03,364.17L482.14,367.87L485.25,367.8L488.36,369.54L494.58,371.57L497.69,372.61L500.8,372.87L503.91,375.74L507.02,374.5L510.13,376.67L513.24,379.39L516.35,378.09L528.79,382.93L531.9,382.47L535.02,384.53L538.13,384.12L553.68,389.14L556.79,388.72L559.9,390.72L563.01,390.07L566.12,391.15L569.23,390.77L575.45,392.49L578.56,392.73L581.67,392.71L584.78,394.4L587.89,395.09L591.01,394.78L597.23,395.27L600.34,396.84L606.56,397.07L609.67,397.71L619,398.91" style="vector-effect: non-scaling-stroke; fill: none; stroke: rgb(255, 127, 14); stroke-opacity: 1; stroke-width: 2px; opacity: 1;"/></g><g class="points"/><g class="text"/></g><g class="trace scatter tracedbf373" style="stroke-miterlimit: 2; opacity: 1;"><g class="fills"/><g class="errorbars"/><g class="lines"><path class="js-line" d="M0,21.83L3.11,413.25L6.22,413.25L9.33,117.15L12.44,305.5L27.99,276.93L31.11,272.28L37.33,261.94L40.44,257.59L43.55,256.22L46.66,253.01L55.99,239.2L59.1,237.17L62.21,233.38L65.32,231.39L68.43,228.93L71.54,224.27L74.65,224.04L77.76,220.55L80.87,218.01L83.98,214.2L87.1,210.9L90.21,209.91L93.32,206.03L96.43,204.4L102.65,198.13L105.76,194.72L111.98,192.03L115.09,189.37L118.2,185.05L121.31,184.3L124.42,179.23L127.53,178.78L130.64,177.6L133.75,172.71L136.86,171.89L139.97,169.5L146.2,161.6L149.31,160.87L152.42,158.57L155.53,158.45L158.64,154.8L161.75,152.4L167.97,143.85L171.08,145.35L174.19,141.52L177.3,140.93L180.41,141.23L183.52,137.56L186.63,132.45L189.74,133.95L192.85,126.07L195.96,124.07L199.08,120.34L202.19,120.32L205.3,118.88L208.41,114.93L214.63,108.87L217.74,107.47L220.85,102.55L223.96,101.2L227.07,97.95L230.18,97.93L233.29,94.99L236.4,89.85L239.51,87.74L242.62,81.57L245.73,86.98L248.84,84.1L255.07,75.03L258.18,75.88L261.29,69.87L264.4,69.83L267.51,69.57L270.62,68.47L273.73,58.98L276.84,58.82L279.95,54.08L283.06,54.86L289.28,49.19L292.39,50.05L295.5,41.76L298.61,41.99L301.72,40.03L304.83,37.12L307.94,29.26L311.06,37.93L323.5,114.2L326.61,134.45L339.05,205.29L342.16,218.47L348.38,244.56L351.49,253.46L354.6,262.42L357.71,262.68L360.82,270.04L363.93,271.93L367.05,273.39L370.16,277.06L376.38,286.88L379.49,290.13L382.6,291.85L385.71,296.43L388.82,300.79L391.93,302.24L395.04,307.33L398.15,309.6L401.26,313.74L404.37,314.44L407.48,318.91L410.59,319.34L413.7,323.24L416.81,325.64L419.92,325.86L423.04,328.79L426.15,332.39L429.26,333.61L438.59,338.99L441.7,342.28L444.81,344.1L447.92,347.53L454.14,347.7L457.25,350.85L463.47,354.61L466.58,356.41L469.69,356.58L472.8,360.79L475.91,361.1L479.03,363.56L482.14,362.89L485.25,364.76L488.36,365.15L491.47,366.47L497.69,370.44L500.8,370.33L503.91,371.37L507.02,374.45L513.24,376.09L516.35,377.72L522.57,378.83L525.68,380.41L531.9,380.96L535.02,383.23L538.13,383.95L541.24,383.33L550.57,385.92L553.68,385.98L556.79,387.22L559.9,387.44L566.12,389.51L569.23,388.75L572.34,390.47L575.45,390.99L584.78,392.1L587.89,392.92L591.01,393.43L594.12,392.73L600.34,394.74L603.45,395.36L606.56,395.25L609.67,396.12L612.78,396.32L615.89,397.32L619,397.75" style="vector-effect: non-scaling-stroke; fill: none; stroke: rgb(44, 160, 44); stroke-opacity: 1; stroke-width: 2px; opacity: 1;"/></g><g class="points"/><g class="text"/></g><g class="trace scatter trace17bdbc" style="stroke-miterlimit: 2; opacity: 1;"><g class="fills"/><g class="errorbars"/><g class="lines"><path class="js-line" d="M0,21.8L3.11,413.25L6.22,413.25L9.33,117.15L12.44,305.5L27.99,276.93L31.11,272.28L37.33,261.94L40.44,257.59L43.55,256.22L46.66,253.01L55.99,239.2L59.1,237.17L62.21,233.38L65.32,231.39L68.43,228.93L71.54,224.27L74.65,224.04L77.76,220.55L80.87,218.01L83.98,214.2L87.1,210.9L90.21,209.91L93.32,206.03L96.43,204.4L102.65,198.13L105.76,194.72L111.98,192.03L115.09,189.37L118.2,185.05L121.31,184.3L124.42,179.23L127.53,178.78L130.64,177.6L133.75,172.71L136.86,171.89L139.97,169.5L146.2,161.6L149.31,160.87L152.42,158.57L155.53,158.45L158.64,154.8L161.75,152.4L167.97,143.85L171.08,145.35L174.19,141.52L177.3,140.93L180.41,141.23L183.52,137.56L186.63,132.45L189.74,133.95L192.85,126.07L195.96,124.07L199.08,120.34L202.19,120.32L205.3,118.88L208.41,114.93L214.63,108.87L217.74,107.47L220.85,102.55L223.96,101.2L227.07,97.95L230.18,97.93L233.29,94.99L236.4,89.85L239.51,87.74L242.62,81.57L245.73,86.98L248.84,84.1L255.07,75.03L258.18,75.88L261.29,69.87L264.4,69.83L267.51,69.57L270.62,68.47L273.73,58.98L276.84,58.82L279.95,54.08L283.06,54.86L289.28,49.19L292.39,50.05L295.5,41.76L298.61,41.99L301.72,40.03L304.83,37.12L307.94,29.26L311.06,36.19L314.17,48.83L317.28,69.63L329.72,145.16L332.83,169.35L345.27,225.29L348.38,238.8L351.49,247.91L354.6,253.87L357.71,260.62L360.82,261.52L367.05,270.35L370.16,272.37L373.27,277.17L376.38,279.21L379.49,284.22L382.6,286.05L395.04,301.99L398.15,308.23L407.48,311.24L410.59,317.29L413.7,316.72L416.81,318.64L419.92,323.96L423.04,323.82L426.15,327.2L429.26,328.43L432.37,330.13L435.48,333.95L438.59,335.38L441.7,338.17L444.81,340.37L447.92,341.42L451.03,342.29L454.14,345.59L457.25,349.04L460.36,348.92L463.47,349.09L466.58,351.89L472.8,353.69L475.91,355.6L479.03,356.2L482.14,359.94L485.25,359.98L488.36,361.59L491.47,363.76L494.58,362.79L500.8,365.8L503.91,368.9L507.02,368.1L510.13,370.3L516.35,370.67L519.46,372.54L522.57,373.01L525.68,375.79L528.79,375.42L531.9,377.55L538.13,377.65L541.24,379.24L547.46,381.18L550.57,380.99L553.68,382.81L556.79,383.52L566.12,384.9L569.23,386.9L575.45,388.03L578.56,388.32L581.67,390.31L584.78,390.35L587.89,390.61L591.01,389.96L594.12,390.63L597.23,390.17L603.45,392.51L606.56,392.26L612.78,392.81L615.89,394.12L619,393.88" style="vector-effect: non-scaling-stroke; fill: none; stroke: rgb(214, 39, 40); stroke-opacity: 1; stroke-width: 2px; opacity: 1;"/></g><g class="points"/><g class="text"/></g><g class="trace scatter tracec60bc7" style="stroke-miterlimit: 2; opacity: 1;"><g class="fills"/><g class="errorbars"/><g class="lines"><path class="js-line" d="M0,21.76L3.11,413.25L6.22,413.25L9.33,117.15L12.44,305.5L27.99,276.93L31.11,272.28L37.33,261.94L40.44,257.59L43.55,256.22L46.66,253.01L55.99,239.2L59.1,237.17L62.21,233.38L65.32,231.39L68.43,228.93L71.54,224.27L74.65,224.04L77.76,220.55L80.87,218.01L83.98,214.2L87.1,210.9L90.21,209.91L93.32,206.03L96.43,204.4L102.65,198.13L105.76,194.72L111.98,192.03L115.09,189.37L118.2,185.05L121.31,184.3L124.42,179.23L127.53,178.78L130.64,177.6L133.75,172.71L136.86,171.89L139.97,169.5L146.2,161.6L149.31,160.87L152.42,158.57L155.53,158.45L158.64,154.8L161.75,152.4L167.97,143.85L171.08,145.35L174.19,141.52L177.3,140.93L180.41,141.23L183.52,137.56L186.63,132.45L189.74,133.95L192.85,126.07L195.96,124.07L199.08,120.34L202.19,120.32L205.3,118.88L208.41,114.93L214.63,108.87L217.74,107.47L220.85,102.55L223.96,101.2L227.07,97.95L230.18,97.93L233.29,94.99L236.4,89.85L239.51,87.74L242.62,81.57L245.73,86.98L248.84,84.1L255.07,75.03L258.18,75.88L261.29,69.87L264.4,69.83L267.51,69.57L270.62,68.47L273.73,58.98L276.84,58.82L279.95,54.08L283.06,54.86L289.28,49.19L292.39,50.05L295.5,41.76L298.61,41.99L301.72,40.03L304.83,37.12L307.94,29.26L311.06,30.39L314.17,39.74L317.28,56.3L326.61,110.9L329.72,133.98L335.94,169.87L339.05,180.21L348.38,224.49L351.49,234.02L357.71,247.26L360.82,250.49L367.05,257.47L370.16,258.48L373.27,262.8L376.38,264.36L379.49,269.74L382.6,271.94L385.71,276.24L388.82,278.39L391.93,284.26L395.04,286.86L407.48,298.19L410.59,300.41L413.7,302.05L416.81,302.67L423.04,310.87L426.15,311.51L429.26,314.46L432.37,319.34L435.48,319.35L438.59,321.56L441.7,323.52L444.81,324.02L447.92,328.59L451.03,331.36L454.14,329.92L457.25,331.15L460.36,335.68L463.47,335.65L466.58,338.79L469.69,339.34L472.8,340.82L475.91,344.39L479.03,345.79L482.14,346.15L485.25,346.9L488.36,350.64L491.47,352.43L494.58,351.31L500.8,356.09L503.91,357.38L513.24,360.14L516.35,362.97L519.46,362.11L522.57,363.63L525.68,365.38L528.79,366.2L538.13,369.65L541.24,370.22L544.35,372.82L547.46,374.21L550.57,374.14L553.68,375.09L556.79,375.38L559.9,374.49L566.12,377.84L569.23,378.44L575.45,380.53L578.56,380.7L581.67,381.79L584.78,381.81L587.89,384.26L591.01,384.13L594.12,384.17L597.23,385.85L603.45,387.21L606.56,387.31L609.67,389.14L612.78,387.8L615.89,389.07L619,389.37" style="vector-effect: non-scaling-stroke; fill: none; stroke: rgb(148, 103, 189); stroke-opacity: 1; stroke-width: 2px; opacity: 1;"/></g><g class="points"/><g class="text"/></g><g class="trace scatter trace52455d" style="stroke-miterlimit: 2; opacity: 1;"><g class="fills"/><g class="errorbars"/><g class="lines"><path class="js-line" d="M0,21.75L3.11,413.25L6.22,413.25L9.33,117.15L12.44,305.5L27.99,276.93L31.11,272.28L37.33,261.94L40.44,257.59L43.55,256.22L46.66,253.01L55.99,239.2L59.1,237.17L62.21,233.38L65.32,231.39L68.43,228.93L71.54,224.27L74.65,224.04L77.76,220.55L80.87,218.01L83.98,214.2L87.1,210.9L90.21,209.91L93.32,206.03L96.43,204.4L102.65,198.13L105.76,194.72L111.98,192.03L115.09,189.37L118.2,185.05L121.31,184.3L124.42,179.23L127.53,178.78L130.64,177.6L133.75,172.71L136.86,171.89L139.97,169.5L146.2,161.6L149.31,160.87L152.42,158.57L155.53,158.45L158.64,154.8L161.75,152.4L167.97,143.85L171.08,145.35L174.19,141.52L177.3,140.93L180.41,141.23L183.52,137.56L186.63,132.45L189.74,133.95L192.85,126.07L195.96,124.07L199.08,120.34L202.19,120.32L205.3,118.88L208.41,114.93L214.63,108.87L217.74,107.47L220.85,102.55L223.96,101.2L227.07,97.95L230.18,97.93L233.29,94.99L236.4,89.85L239.51,87.74L242.62,81.57L245.73,86.98L248.84,84.1L255.07,75.03L258.18,75.88L261.29,69.87L264.4,69.83L267.51,69.57L270.62,68.47L273.73,58.98L276.84,58.82L279.95,54.08L283.06,54.86L289.28,49.19L292.39,50.05L295.5,41.76L298.61,41.99L301.72,40.03L304.83,37.12L307.94,29.26L311.06,31.3L314.17,36.45L317.28,46.17L323.5,78.42L326.61,102.09L329.72,118.61L332.83,130.74L342.16,181.88L345.27,195.84L351.49,220.85L354.6,229.91L357.71,233.51L360.82,239.03L363.93,238.18L367.05,245.16L370.16,248.13L373.27,247.17L376.38,254.17L379.49,256.08L382.6,256.76L385.71,262.88L388.82,263.91L391.93,267.76L395.04,275.34L398.15,275.39L401.26,281.51L404.37,282.65L413.7,289.22L416.81,292.78L419.92,296.82L423.04,297.94L426.15,298.94L429.26,301.75L432.37,304.17L435.48,304.68L441.7,310.43L444.81,310.52L447.92,315.21L451.03,318.13L457.25,321.34L460.36,325.12L463.47,324.62L466.58,326.56L469.69,329.41L472.8,330.57L482.14,335.11L485.25,337.85L488.36,341.29L491.47,341.05L497.69,342.79L500.8,345.34L503.91,345.71L507.02,347.99L513.24,349.74L516.35,352.01L519.46,351.61L522.57,353.72L525.68,355.28L528.79,355.27L531.9,358.66L535.02,360.72L538.13,360.5L541.24,359.42L544.35,362.47L547.46,361.72L550.57,362.99L553.68,366.09L563.01,366.84L566.12,369.99L569.23,368.81L572.34,370.07L575.45,371.12L578.56,370.52L581.67,372.64L584.78,371.98L587.89,373.78L591.01,374.1L594.12,375.3L597.23,377.59L603.45,377.39L606.56,378.61L609.67,379.46L612.78,379.26L615.89,381.21L619,381.48" style="vector-effect: non-scaling-stroke; fill: none; stroke: rgb(140, 86, 75); stroke-opacity: 1; stroke-width: 2px; opacity: 1;"/></g><g class="points"/><g class="text"/></g></g></g><g class="overplot"/><path class="xlines-above crisp" style="fill: none;" d="M0,0"/><path class="ylines-above crisp" style="fill: none;" d="M0,0"/><g class="overlines-above"/><g class="xaxislayer-above"><g class="xtick"><text text-anchor="middle" x="0" y="473" transform="translate(212.42,0)" style="font-family: 'Open Sans', verdana, arial, sans-serif; font-size: 12px; fill: rgb(68, 68, 68); fill-opacity: 1; white-space: pre;">50</text></g><g class="xtick"><text text-anchor="middle" x="0" y="473" transform="translate(367.94,0)" style="font-family: 'Open Sans', verdana, arial, sans-serif; font-size: 12px; fill: rgb(68, 68, 68); fill-opacity: 1; white-space: pre;">100</text></g><g class="xtick"><text text-anchor="middle" x="0" y="473" transform="translate(523.47,0)" style="font-family: 'Open Sans', verdana, arial, sans-serif; font-size: 12px; fill: rgb(68, 68, 68); fill-opacity: 1; white-space: pre;">150</text></g><g class="xtick"><text text-anchor="middle" x="0" y="473" transform="translate(679,0)" style="font-family: 'Open Sans', verdana, arial, sans-serif; font-size: 12px; fill: rgb(68, 68, 68); fill-opacity: 1; white-space: pre;">200</text></g></g><g class="yaxislayer-above"><g class="ytick"><text text-anchor="end" x="59" y="4.199999999999999" transform="translate(0,438.25)" style="font-family: 'Open Sans', verdana, arial, sans-serif; font-size: 12px; fill: rgb(68, 68, 68); fill-opacity: 1; white-space: pre;">0</text></g><g class="ytick"><text text-anchor="end" x="59" y="4.199999999999999" transform="translate(0,386.06)" style="font-family: 'Open Sans', verdana, arial, sans-serif; font-size: 12px; fill: rgb(68, 68, 68); fill-opacity: 1; white-space: pre;">20</text></g><g class="ytick"><text text-anchor="end" x="59" y="4.199999999999999" transform="translate(0,333.88)" style="font-family: 'Open Sans', verdana, arial, sans-serif; font-size: 12px; fill: rgb(68, 68, 68); fill-opacity: 1; white-space: pre;">40</text></g><g class="ytick"><text text-anchor="end" x="59" y="4.199999999999999" transform="translate(0,281.69)" style="font-family: 'Open Sans', verdana, arial, sans-serif; font-size: 12px; fill: rgb(68, 68, 68); fill-opacity: 1; white-space: pre;">60</text></g><g class="ytick"><text text-anchor="end" x="59" y="4.199999999999999" transform="translate(0,229.51)" style="font-family: 'Open Sans', verdana, arial, sans-serif; font-size: 12px; fill: rgb(68, 68, 68); fill-opacity: 1; white-space: pre;">80</text></g><g class="ytick"><text text-anchor="end" x="59" y="4.199999999999999" transform="translate(0,177.32)" style="font-family: 'Open Sans', verdana, arial, sans-serif; font-size: 12px; fill: rgb(68, 68, 68); fill-opacity: 1; white-space: pre;">100</text></g><g class="ytick"><text text-anchor="end" x="59" y="4.199999999999999" transform="translate(0,125.13)" style="font-family: 'Open Sans', verdana, arial, sans-serif; font-size: 12px; fill: rgb(68, 68, 68); fill-opacity: 1; white-space: pre;">120</text></g><g class="ytick"><text text-anchor="end" x="59" y="4.199999999999999" transform="translate(0,72.95)" style="font-family: 'Open Sans', verdana, arial, sans-serif; font-size: 12px; fill: rgb(68, 68, 68); fill-opacity: 1; white-space: pre;">140</text></g></g><g class="overaxes-above"/></g></g><g class="polarlayer"/><g class="ternarylayer"/><g class="geolayer"/><g class="funnelarealayer"/><g class="pielayer"/><g class="treemaplayer"/><g class="sunburstlayer"/><g class="glimages"/><defs id="topdefs-d63886"><g class="clips"/><clipPath id="legendd63886"><rect width="117" height="140" x="0" y="0"/></clipPath></defs><g class="layer-above"><g class="imagelayer"/><g class="shapelayer"/></g><g class="infolayer"><g class="legend" pointer-events="all" transform="translate(90.95, 46.750000000000014)"><rect class="bg" shape-rendering="crispEdges" style="stroke: rgb(68, 68, 68); stroke-opacity: 1; fill: rgb(226, 226, 226); fill-opacity: 1; stroke-width: 0px;" width="117" height="140" x="0" y="0"/><g class="scrollbox" transform="translate(0, 0)" clip-path="url('#legendd63886')"><text class="legendtitletext user-select-none" text-anchor="start" x="2" y="15.600000000000001" style="font-family: 'Open Sans', verdana, arial, sans-serif; font-size: 12px; fill: rgb(68, 68, 68); fill-opacity: 1; white-space: pre;"><tspan style="font-weight:bold"> Identification Time </tspan></text><g class="groups"><g class="traces" transform="translate(0, 30.1)" style="opacity: 1;"><text class="legendtext user-select-none" text-anchor="start" x="40" y="4.680000000000001" style="font-family: 'Open Sans', verdana, arial, sans-serif; font-size: 12px; fill: rgb(68, 68, 68); fill-opacity: 1; white-space: pre;">0 Months</text><g class="layers" style="opacity: 1;"><g class="legendfill"/><g class="legendlines"><path class="js-line" d="M5,0h30" style="fill: none; stroke: rgb(31, 119, 180); stroke-opacity: 1; stroke-width: 2px;"/></g><g class="legendsymbols"><g class="legendpoints"/></g></g><rect class="legendtoggle" pointer-events="all" x="0" y="-9.5" width="98.046875" height="19" style="cursor: pointer; fill: rgb(0, 0, 0); fill-opacity: 0;"/></g><g class="traces" transform="translate(0, 49.1)" style="opacity: 1;"><text class="legendtext user-select-none" text-anchor="start" x="40" y="4.680000000000001" style="font-family: 'Open Sans', verdana, arial, sans-serif; font-size: 12px; fill: rgb(68, 68, 68); fill-opacity: 1; white-space: pre;">3 Months</text><g class="layers" style="opacity: 1;"><g class="legendfill"/><g class="legendlines"><path class="js-line" d="M5,0h30" style="fill: none; stroke: rgb(255, 127, 14); stroke-opacity: 1; stroke-width: 2px;"/></g><g class="legendsymbols"><g class="legendpoints"/></g></g><rect class="legendtoggle" pointer-events="all" x="0" y="-9.5" width="98.046875" height="19" style="cursor: pointer; fill: rgb(0, 0, 0); fill-opacity: 0;"/></g><g class="traces" transform="translate(0, 68.1)" style="opacity: 1;"><text class="legendtext user-select-none" text-anchor="start" x="40" y="4.680000000000001" style="font-family: 'Open Sans', verdana, arial, sans-serif; font-size: 12px; fill: rgb(68, 68, 68); fill-opacity: 1; white-space: pre;">6 Months</text><g class="layers" style="opacity: 1;"><g class="legendfill"/><g class="legendlines"><path class="js-line" d="M5,0h30" style="fill: none; stroke: rgb(44, 160, 44); stroke-opacity: 1; stroke-width: 2px;"/></g><g class="legendsymbols"><g class="legendpoints"/></g></g><rect class="legendtoggle" pointer-events="all" x="0" y="-9.5" width="98.046875" height="19" style="cursor: pointer; fill: rgb(0, 0, 0); fill-opacity: 0;"/></g><g class="traces" transform="translate(0, 87.1)" style="opacity: 1;"><text class="legendtext user-select-none" text-anchor="start" x="40" y="4.680000000000001" style="font-family: 'Open Sans', verdana, arial, sans-serif; font-size: 12px; fill: rgb(68, 68, 68); fill-opacity: 1; white-space: pre;">12 Months</text><g class="layers" style="opacity: 1;"><g class="legendfill"/><g class="legendlines"><path class="js-line" d="M5,0h30" style="fill: none; stroke: rgb(214, 39, 40); stroke-opacity: 1; stroke-width: 2px;"/></g><g class="legendsymbols"><g class="legendpoints"/></g></g><rect class="legendtoggle" pointer-events="all" x="0" y="-9.5" width="98.046875" height="19" style="cursor: pointer; fill: rgb(0, 0, 0); fill-opacity: 0;"/></g><g class="traces" transform="translate(0, 106.1)" style="opacity: 1;"><text class="legendtext user-select-none" text-anchor="start" x="40" y="4.680000000000001" style="font-family: 'Open Sans', verdana, arial, sans-serif; font-size: 12px; fill: rgb(68, 68, 68); fill-opacity: 1; white-space: pre;">24 Months</text><g class="layers" style="opacity: 1;"><g class="legendfill"/><g class="legendlines"><path class="js-line" d="M5,0h30" style="fill: none; stroke: rgb(148, 103, 189); stroke-opacity: 1; stroke-width: 2px;"/></g><g class="legendsymbols"><g class="legendpoints"/></g></g><rect class="legendtoggle" pointer-events="all" x="0" y="-9.5" width="98.046875" height="19" style="cursor: pointer; fill: rgb(0, 0, 0); fill-opacity: 0;"/></g><g class="traces" transform="translate(0, 125.1)" style="opacity: 1;"><text class="legendtext user-select-none" text-anchor="start" x="40" y="4.680000000000001" style="font-family: 'Open Sans', verdana, arial, sans-serif; font-size: 12px; fill: rgb(68, 68, 68); fill-opacity: 1; white-space: pre;">36 Months</text><g class="layers" style="opacity: 1;"><g class="legendfill"/><g class="legendlines"><path class="js-line" d="M5,0h30" style="fill: none; stroke: rgb(140, 86, 75); stroke-opacity: 1; stroke-width: 2px;"/></g><g class="legendsymbols"><g class="legendpoints"/></g></g><rect class="legendtoggle" pointer-events="all" x="0" y="-9.5" width="98.046875" height="19" style="cursor: pointer; fill: rgb(0, 0, 0); fill-opacity: 0;"/></g></g></g><rect class="scrollbar" rx="20" ry="3" width="0" height="0" style="fill: rgb(128, 139, 164); fill-opacity: 1;" x="0" y="0"/></g><g class="g-gtitle"><text class="gtitle" x="350" y="12.5" text-anchor="middle" dy="0em" style="font-family: 'Open Sans', verdana, arial, sans-serif; font-size: 17px; fill: rgb(68, 68, 68); opacity: 1; font-weight: normal; white-space: pre;"><tspan style="font-weight:bold"> Leprosy Incidence PB - Immunity Vaccine 0.0, Treatment 50% </tspan></text></g><g class="g-xtitle" transform="translate(0,-15)"><text class="xtitle" x="369.5" y="512" text-anchor="middle" style="font-family: 'Open Sans', verdana, arial, sans-serif; font-size: 14px; fill: rgb(68, 68, 68); opacity: 1; font-weight: normal; white-space: pre;">Time(Years)</text></g><g class="g-ytitle"><text class="ytitle" transform="rotate(-90,22,242.5)" x="22" y="242.5" text-anchor="middle" style="font-family: 'Open Sans', verdana, arial, sans-serif; font-size: 14px; fill: rgb(68, 68, 68); opacity: 1; font-weight: normal; white-space: pre;">Number of new infectiuos individuals</text></g></g></svg>