<svg class="main-svg" xmlns="http://www.w3.org/2000/svg" xmlns:xlink="http://www.w3.org/1999/xlink" width="700" height="500" style="" viewBox="0 0 700 500"><rect x="0" y="0" width="700" height="500" style="fill: rgb(255, 255, 255); fill-opacity: 1;"/><defs id="defs-6f0801"><g class="clips"><clipPath id="clip6f0801xyplot" class="plotclip"><rect width="619" height="435"/></clipPath><clipPath class="axesclip" id="clip6f0801x"><rect x="60" y="0" width="619" height="500"/></clipPath><clipPath class="axesclip" id="clip6f0801y"><rect x="0" y="25" width="700" height="435"/></clipPath><clipPath class="axesclip" id="clip6f0801xy"><rect x="60" y="25" width="619" height="435"/></clipPath></g><g class="gradients"/></defs><g class="bglayer"/><g class="layer-below"><g class="imagelayer"/><g class="shapelayer"/></g><g class="cartesianlayer"><g class="subplot xy"><g class="layer-subplot"><g class="shapelayer"/><g class="imagelayer"/></g><g class="gridlayer"><g class="x"><path class="xgrid crisp" transform="translate(212.42,0)" d="M0,25v435" style="stroke: rgb(238, 238, 238); stroke-opacity: 1; stroke-width: 1px;"/><path class="xgrid crisp" transform="translate(367.94,0)" d="M0,25v435" style="stroke: rgb(238, 238, 238); stroke-opacity: 1; stroke-width: 1px;"/><path class="xgrid crisp" transform="translate(523.47,0)" d="M0,25v435" style="stroke: rgb(238, 238, 238); stroke-opacity: 1; stroke-width: 1px;"/></g><g class="y"><path class="ygrid crisp" transform="translate(0,386.05)" d="M60,0h619" style="stroke: rgb(238, 238, 238); stroke-opacity: 1; stroke-width: 1px;"/><path class="ygrid crisp" transform="translate(0,333.85)" d="M60,0h619" style="stroke: rgb(238, 238, 238); stroke-opacity: 1; stroke-width: 1px;"/><path class="ygrid crisp" transform="translate(0,281.65)" d="M60,0h619" style="stroke: rgb(238, 238, 238); stroke-opacity: 1; stroke-width: 1px;"/><path class="ygrid crisp" transform="translate(0,229.45)" d="M60,0h619" style="stroke: rgb(238, 238, 238); stroke-opacity: 1; stroke-width: 1px;"/><path class="ygrid crisp" transform="translate(0,177.25)" d="M60,0h619" style="stroke: rgb(238, 238, 238); stroke-opacity: 1; stroke-width: 1px;"/><path class="ygrid crisp" transform="translate(0,125.05)" d="M60,0h619" style="stroke: rgb(238, 238, 238); stroke-opacity: 1; stroke-width: 1px;"/><path class="ygrid crisp" transform="translate(0,72.85)" d="M60,0h619" style="stroke: rgb(238, 238, 238); stroke-opacity: 1; stroke-width: 1px;"/></g></g><g class="zerolinelayer"><path class="yzl zl crisp" transform="translate(0,438.25)" d="M60,0h619" style="stroke: rgb(68, 68, 68); stroke-opacity: 1; stroke-width: 1px;"/></g><path class="xlines-below"/><path class="ylines-below"/><g class="overlines-below"/><g class="xaxislayer-below"/><g class="yaxislayer-below"/><g class="overaxes-below"/><g class="plot" transform="translate(60, 25)" clip-path="url('#clip6f0801xyplot')"><g class="scatterlayer mlayer"><g class="trace scatter trace51859f" style="stroke-miterlimit: 2; opacity: 1;"><g class="fills"/><g class="errorbars"/><g class="lines"><path class="js-line" d="M0,21.75L3.11,413.25L6.22,413.25L9.33,117.07L12.44,305.47L27.99,276.89L31.11,272.24L37.33,261.9L40.44,257.55L43.55,256.18L46.66,252.97L55.99,239.15L59.1,237.13L62.21,233.33L65.32,231.35L68.43,228.88L71.54,224.22L74.65,223.99L77.76,220.5L80.87,217.96L83.98,214.15L87.1,210.84L90.21,209.85L93.32,205.98L96.43,204.35L102.65,198.07L105.76,194.66L111.98,191.97L115.09,189.31L118.2,184.99L121.31,184.24L124.42,179.17L127.53,178.72L130.64,177.54L133.75,172.65L136.86,171.83L139.97,169.44L146.2,161.53L149.31,160.8L152.42,158.5L155.53,158.38L158.64,154.73L161.75,152.33L167.97,143.78L171.08,145.28L174.19,141.44L177.3,140.86L180.41,141.16L183.52,137.49L186.63,132.37L189.74,133.88L192.85,125.99L195.96,124L199.08,120.26L202.19,120.24L205.3,118.8L208.41,114.85L214.63,108.79L217.74,107.38L220.85,102.46L223.96,101.12L227.07,97.87L230.18,97.84L233.29,94.91L236.4,89.77L239.51,87.65L242.62,81.48L245.73,86.9L248.84,84.01L255.07,74.94L258.18,75.79L261.29,69.77L264.4,69.73L267.51,69.47L270.62,68.38L273.73,58.89L276.84,58.72L279.95,53.98L283.06,54.77L289.28,49.09L292.39,49.95L295.5,41.66L298.61,41.89L301.72,39.93L304.83,37.02L307.94,29.16L311.06,53.51L320.39,160.47L323.5,208.83L329.72,269.35L332.83,290.27L335.94,310.22L339.05,324.85L345.27,351.9L348.38,361.78L351.49,366.74L354.6,373.89L363.93,386.09L367.05,388.6L373.27,394.07L376.38,396.1L379.49,398.93L382.6,400.55L385.71,402.55L388.82,403.44L404.37,407.56L407.48,407.22L410.59,408.08L413.7,407.81L416.81,408.67L419.92,408.7L429.26,410.05L432.37,410.27L454.14,411.68L457.25,411.42L466.58,411.88L469.69,412.08L494.58,412.61L497.69,412.56L510.13,412.68L513.24,412.75L619,412.78" style="vector-effect: non-scaling-stroke; fill: none; stroke: rgb(31, 119, 180); stroke-opacity: 1; stroke-width: 2px; opacity: 1;"/></g><g class="points"/><g class="text"/></g><g class="trace scatter trace0ea6a3" style="stroke-miterlimit: 2; opacity: 1;"><g class="fills"/><g class="errorbars"/><g class="lines"><path class="js-line" d="M0,21.75L3.11,413.25L6.22,413.25L9.33,117.07L12.44,305.47L27.99,276.89L31.11,272.24L37.33,261.9L40.44,257.55L43.55,256.18L46.66,252.97L55.99,239.15L59.1,237.13L62.21,233.33L65.32,231.35L68.43,228.88L71.54,224.22L74.65,223.99L77.76,220.5L80.87,217.96L83.98,214.15L87.1,210.84L90.21,209.85L93.32,205.98L96.43,204.35L102.65,198.07L105.76,194.66L111.98,191.97L115.09,189.31L118.2,184.99L121.31,184.24L124.42,179.17L127.53,178.72L130.64,177.54L133.75,172.65L136.86,171.83L139.97,169.44L146.2,161.53L149.31,160.8L152.42,158.5L155.53,158.38L158.64,154.73L161.75,152.33L167.97,143.78L171.08,145.28L174.19,141.44L177.3,140.86L180.41,141.16L183.52,137.49L186.63,132.37L189.74,133.88L192.85,125.99L195.96,124L199.08,120.26L202.19,120.24L205.3,118.8L208.41,114.85L214.63,108.79L217.74,107.38L220.85,102.46L223.96,101.12L227.07,97.87L230.18,97.84L233.29,94.91L236.4,89.77L239.51,87.65L242.62,81.48L245.73,86.9L248.84,84.01L255.07,74.94L258.18,75.79L261.29,69.77L264.4,69.73L267.51,69.47L270.62,68.38L273.73,58.89L276.84,58.72L279.95,53.98L283.06,54.77L289.28,49.09L292.39,49.95L295.5,41.66L298.61,41.89L301.72,39.93L304.83,37.02L307.94,29.16L311.06,48.91L320.39,153.62L323.5,202.99L326.61,238.31L329.72,264.41L335.94,307.36L339.05,324.68L345.27,350.96L348.38,358.23L354.6,370.73L357.71,374.65L363.93,383.6L367.05,386.31L370.16,390.18L373.27,391.82L376.38,395.95L379.49,397.6L391.93,403.71L395.04,404.36L407.48,406.01L410.59,406.84L419.92,407.86L423.04,408.41L438.59,410.47L441.7,410.38L454.14,410.97L457.25,411.06L466.58,411.62L469.69,411.75L485.25,412.05L488.36,412.32L538.13,412.79L541.24,412.94L619,412.86" style="vector-effect: non-scaling-stroke; fill: none; stroke: rgb(255, 127, 14); stroke-opacity: 1; stroke-width: 2px; opacity: 1;"/></g><g class="points"/><g class="text"/></g><g class="trace scatter trace4d98d4" style="stroke-miterlimit: 2; opacity: 1;"><g class="fills"/><g class="errorbars"/><g class="lines"><path class="js-line" d="M0,21.75L3.11,413.25L6.22,413.25L9.33,117.07L12.44,305.47L27.99,276.89L31.11,272.24L37.33,261.9L40.44,257.55L43.55,256.18L46.66,252.97L55.99,239.15L59.1,237.13L62.21,233.33L65.32,231.35L68.43,228.88L71.54,224.22L74.65,223.99L77.76,220.5L80.87,217.96L83.98,214.15L87.1,210.84L90.21,209.85L93.32,205.98L96.43,204.35L102.65,198.07L105.76,194.66L111.98,191.97L115.09,189.31L118.2,184.99L121.31,184.24L124.42,179.17L127.53,178.72L130.64,177.54L133.75,172.65L136.86,171.83L139.97,169.44L146.2,161.53L149.31,160.8L152.42,158.5L155.53,158.38L158.64,154.73L161.75,152.33L167.97,143.78L171.08,145.28L174.19,141.44L177.3,140.86L180.41,141.16L183.52,137.49L186.63,132.37L189.74,133.88L192.85,125.99L195.96,124L199.08,120.26L202.19,120.24L205.3,118.8L208.41,114.85L214.63,108.79L217.74,107.38L220.85,102.46L223.96,101.12L227.07,97.87L230.18,97.84L233.29,94.91L236.4,89.77L239.51,87.65L242.62,81.48L245.73,86.9L248.84,84.01L255.07,74.94L258.18,75.79L261.29,69.77L264.4,69.73L267.51,69.47L270.62,68.38L273.73,58.89L276.84,58.72L279.95,53.98L283.06,54.77L289.28,49.09L292.39,49.95L295.5,41.66L298.61,41.89L301.72,39.93L304.83,37.02L307.94,29.16L311.06,43.53L317.28,114.61L320.39,148.34L323.5,199.33L326.61,234.77L335.94,306.89L339.05,320.53L348.38,358.53L351.49,360.92L354.6,367.85L357.71,370.63L363.93,380.32L367.05,382.49L370.16,388.18L373.27,389.63L382.6,397.96L385.71,400.25L388.82,400.83L391.93,402.2L395.04,402L398.15,402.93L401.26,403.55L404.37,405.08L407.48,404.02L410.59,404.91L413.7,405L416.81,406.31L426.15,407.83L429.26,408.87L432.37,409.44L435.48,409.09L438.59,408.85L441.7,409.61L444.81,410.26L447.92,410.13L475.91,411.55L479.03,411.64L522.57,412.81L525.68,412.55L531.9,412.6L535.02,412.51L547.46,412.79L550.57,412.78L619,412.96" style="vector-effect: non-scaling-stroke; fill: none; stroke: rgb(44, 160, 44); stroke-opacity: 1; stroke-width: 2px; opacity: 1;"/></g><g class="points"/><g class="text"/></g><g class="trace scatter tracef10620" style="stroke-miterlimit: 2; opacity: 1;"><g class="fills"/><g class="errorbars"/><g class="lines"><path class="js-line" d="M0,21.75L3.11,413.25L6.22,413.25L9.33,117.07L12.44,305.47L27.99,276.89L31.11,272.24L37.33,261.9L40.44,257.55L43.55,256.18L46.66,252.97L55.99,239.15L59.1,237.13L62.21,233.33L65.32,231.35L68.43,228.88L71.54,224.22L74.65,223.99L77.76,220.5L80.87,217.96L83.98,214.15L87.1,210.84L90.21,209.85L93.32,205.98L96.43,204.35L102.65,198.07L105.76,194.66L111.98,191.97L115.09,189.31L118.2,184.99L121.31,184.24L124.42,179.17L127.53,178.72L130.64,177.54L133.75,172.65L136.86,171.83L139.97,169.44L146.2,161.53L149.31,160.8L152.42,158.5L155.53,158.38L158.64,154.73L161.75,152.33L167.97,143.78L171.08,145.28L174.19,141.44L177.3,140.86L180.41,141.16L183.52,137.49L186.63,132.37L189.74,133.88L192.85,125.99L195.96,124L199.08,120.26L202.19,120.24L205.3,118.8L208.41,114.85L214.63,108.79L217.74,107.38L220.85,102.46L223.96,101.12L227.07,97.87L230.18,97.84L233.29,94.91L236.4,89.77L239.51,87.65L242.62,81.48L245.73,86.9L248.84,84.01L255.07,74.94L258.18,75.79L261.29,69.77L264.4,69.73L267.51,69.47L270.62,68.38L273.73,58.89L276.84,58.72L279.95,53.98L283.06,54.77L289.28,49.09L292.39,49.95L295.5,41.66L298.61,41.89L301.72,39.93L304.83,37.02L307.94,29.16L311.06,34.71L320.39,138.64L323.5,191.6L329.72,254.78L332.83,279.02L339.05,315.43L342.16,330.7L348.38,353.89L351.49,359.59L360.82,371.05L363.93,373.84L370.16,381.49L373.27,385.02L379.49,392.15L382.6,393.84L388.82,398.5L391.93,399.99L395.04,399.78L398.15,400.51L410.59,402.99L413.7,403.16L426.15,406.62L429.26,406.44L435.48,407.94L438.59,408.36L451.03,408.98L454.14,409.09L475.91,410.97L479.03,411.04L522.57,412.41L525.68,412.26L535.02,412.49L538.13,412.58L603.45,412.85L606.56,412.73L619,412.94" style="vector-effect: non-scaling-stroke; fill: none; stroke: rgb(214, 39, 40); stroke-opacity: 1; stroke-width: 2px; opacity: 1;"/></g><g class="points"/><g class="text"/></g><g class="trace scatter trace194d78" style="stroke-miterlimit: 2; opacity: 1;"><g class="fills"/><g class="errorbars"/><g class="lines"><path class="js-line" d="M0,21.75L3.11,413.25L6.22,413.25L9.33,117.07L12.44,305.47L27.99,276.89L31.11,272.24L37.33,261.9L40.44,257.55L43.55,256.18L46.66,252.97L55.99,239.15L59.1,237.13L62.21,233.33L65.32,231.35L68.43,228.88L71.54,224.22L74.65,223.99L77.76,220.5L80.87,217.96L83.98,214.15L87.1,210.84L90.21,209.85L93.32,205.98L96.43,204.35L102.65,198.07L105.76,194.66L111.98,191.97L115.09,189.31L118.2,184.99L121.31,184.24L124.42,179.17L127.53,178.72L130.64,177.54L133.75,172.65L136.86,171.83L139.97,169.44L146.2,161.53L149.31,160.8L152.42,158.5L155.53,158.38L158.64,154.73L161.75,152.33L167.97,143.78L171.08,145.28L174.19,141.44L177.3,140.86L180.41,141.16L183.52,137.49L186.63,132.37L189.74,133.88L192.85,125.99L195.96,124L199.08,120.26L202.19,120.24L205.3,118.8L208.41,114.85L214.63,108.79L217.74,107.38L220.85,102.46L223.96,101.12L227.07,97.87L230.18,97.84L233.29,94.91L236.4,89.77L239.51,87.65L242.62,81.48L245.73,86.9L248.84,84.01L255.07,74.94L258.18,75.79L261.29,69.77L264.4,69.73L267.51,69.47L270.62,68.38L273.73,58.89L276.84,58.72L279.95,53.98L283.06,54.77L289.28,49.09L292.39,49.95L295.5,41.66L298.61,41.89L301.72,39.93L304.83,37.02L307.94,29.16L311.06,34.54L314.17,52.07L317.28,83.07L320.39,119.6L323.5,171.16L329.72,238.97L332.83,268.45L339.05,307.34L342.16,322.41L345.27,338.54L348.38,349.75L351.49,355.83L354.6,358.53L357.71,358.98L360.82,362.37L363.93,363.93L367.05,367.6L373.27,373.96L376.38,379.1L379.49,383.63L382.6,386.54L388.82,394.18L391.93,395.55L398.15,397.28L401.26,398.06L407.48,397.49L410.59,398.5L413.7,397.17L416.81,399.12L435.48,405.03L438.59,406.48L457.25,407.51L460.36,407.78L482.14,410.22L485.25,410.54L500.8,411.24L503.91,411.53L513.24,411.38L516.35,411.61L519.46,411.38L522.57,412.14L531.9,411.93L535.02,412.15L556.79,412.55L559.9,412.36L572.34,412.61L575.45,412.57L609.67,412.85L612.78,412.6L619,412.83" style="vector-effect: non-scaling-stroke; fill: none; stroke: rgb(148, 103, 189); stroke-opacity: 1; stroke-width: 2px; opacity: 1;"/></g><g class="points"/><g class="text"/></g><g class="trace scatter trace87c17c" style="stroke-miterlimit: 2; opacity: 1;"><g class="fills"/><g class="errorbars"/><g class="lines"><path class="js-line" d="M0,21.75L3.11,413.25L6.22,413.25L9.33,117.07L12.44,305.47L27.99,276.89L31.11,272.24L37.33,261.9L40.44,257.55L43.55,256.18L46.66,252.97L55.99,239.15L59.1,237.13L62.21,233.33L65.32,231.35L68.43,228.88L71.54,224.22L74.65,223.99L77.76,220.5L80.87,217.96L83.98,214.15L87.1,210.84L90.21,209.85L93.32,205.98L96.43,204.35L102.65,198.07L105.76,194.66L111.98,191.97L115.09,189.31L118.2,184.99L121.31,184.24L124.42,179.17L127.53,178.72L130.64,177.54L133.75,172.65L136.86,171.83L139.97,169.44L146.2,161.53L149.31,160.8L152.42,158.5L155.53,158.38L158.64,154.73L161.75,152.33L167.97,143.78L171.08,145.28L174.19,141.44L177.3,140.86L180.41,141.16L183.52,137.49L186.63,132.37L189.74,133.88L192.85,125.99L195.96,124L199.08,120.26L202.19,120.24L205.3,118.8L208.41,114.85L214.63,108.79L217.74,107.38L220.85,102.46L223.96,101.12L227.07,97.87L230.18,97.84L233.29,94.91L236.4,89.77L239.51,87.65L242.62,81.48L245.73,86.9L248.84,84.01L255.07,74.94L258.18,75.79L261.29,69.77L264.4,69.73L267.51,69.47L270.62,68.38L273.73,58.89L276.84,58.72L279.95,53.98L283.06,54.77L289.28,49.09L292.39,49.95L295.5,41.66L298.61,41.89L301.72,39.93L304.83,37.02L307.94,29.16L311.06,32.88L314.17,44.94L317.28,65.86L320.39,97.45L323.5,150.21L329.72,218.41L332.83,247.57L339.05,296.1L342.16,314.85L348.38,342.85L351.49,350.41L357.71,357.63L360.82,357.81L363.93,355.96L367.05,357.83L370.16,360.14L373.27,363.96L379.49,372.19L382.6,378.62L391.93,389.19L395.04,391.21L398.15,393.79L401.26,394.12L407.48,394.44L410.59,393.3L413.7,395.06L416.81,395.55L426.15,397.67L429.26,399.3L432.37,400.04L435.48,401.84L438.59,403.2L441.7,403.49L444.81,404.62L447.92,404.91L454.14,406.16L457.25,406.19L463.47,405.84L466.58,406.61L469.69,407.4L472.8,407.22L482.14,408.67L485.25,408.7L497.69,410.34L500.8,409.86L507.02,410.55L510.13,410.37L513.24,411.07L516.35,410.77L525.68,411.42L528.79,411.49L550.57,412L553.68,411.85L581.67,412.6L584.78,412.43L619,412.58" style="vector-effect: non-scaling-stroke; fill: none; stroke: rgb(140, 86, 75); stroke-opacity: 1; stroke-width: 2px; opacity: 1;"/></g><g class="points"/><g class="text"/></g></g></g><g class="overplot"/><path class="xlines-above crisp" style="fill: none;" d="M0,0"/><path class="ylines-above crisp" style="fill: none;" d="M0,0"/><g class="overlines-above"/><g class="xaxislayer-above"><g class="xtick"><text text-anchor="middle" x="0" y="473" transform="translate(212.42,0)" style="font-family: 'Open Sans', verdana, arial, sans-serif; font-size: 12px; fill: rgb(68, 68, 68); fill-opacity: 1; white-space: pre;">50</text></g><g class="xtick"><text text-anchor="middle" x="0" y="473" transform="translate(367.94,0)" style="font-family: 'Open Sans', verdana, arial, sans-serif; font-size: 12px; fill: rgb(68, 68, 68); fill-opacity: 1; white-space: pre;">100</text></g><g class="xtick"><text text-anchor="middle" x="0" y="473" transform="translate(523.47,0)" style="font-family: 'Open Sans', verdana, arial, sans-serif; font-size: 12px; fill: rgb(68, 68, 68); fill-opacity: 1; white-space: pre;">150</text></g><g class="xtick"><text text-anchor="middle" x="0" y="473" transform="translate(679,0)" style="font-family: 'Open Sans', verdana, arial, sans-serif; font-size: 12px; fill: rgb(68, 68, 68); fill-opacity: 1; white-space: pre;">200</text></g></g><g class="yaxislayer-above"><g class="ytick"><text text-anchor="end" x="59" y="4.199999999999999" transform="translate(0,438.25)" style="font-family: 'Open Sans', verdana, arial, sans-serif; font-size: 12px; fill: rgb(68, 68, 68); fill-opacity: 1; white-space: pre;">0</text></g><g class="ytick"><text text-anchor="end" x="59" y="4.199999999999999" transform="translate(0,386.05)" style="font-family: 'Open Sans', verdana, arial, sans-serif; font-size: 12px; fill: rgb(68, 68, 68); fill-opacity: 1; white-space: pre;">20</text></g><g class="ytick"><text text-anchor="end" x="59" y="4.199999999999999" transform="translate(0,333.85)" style="font-family: 'Open Sans', verdana, arial, sans-serif; font-size: 12px; fill: rgb(68, 68, 68); fill-opacity: 1; white-space: pre;">40</text></g><g class="ytick"><text text-anchor="end" x="59" y="4.199999999999999" transform="translate(0,281.65)" style="font-family: 'Open Sans', verdana, arial, sans-serif; font-size: 12px; fill: rgb(68, 68, 68); fill-opacity: 1; white-space: pre;">60</text></g><g class="ytick"><text text-anchor="end" x="59" y="4.199999999999999" transform="translate(0,229.45)" style="font-family: 'Open Sans', verdana, arial, sans-serif; font-size: 12px; fill: rgb(68, 68, 68); fill-opacity: 1; white-space: pre;">80</text></g><g class="ytick"><text text-anchor="end" x="59" y="4.199999999999999" transform="translate(0,177.25)" style="font-family: 'Open Sans', verdana, arial, sans-serif; font-size: 12px; fill: rgb(68, 68, 68); fill-opacity: 1; white-space: pre;">100</text></g><g class="ytick"><text text-anchor="end" x="59" y="4.199999999999999" transform="translate(0,125.05)" style="font-family: 'Open Sans', verdana, arial, sans-serif; font-size: 12px; fill: rgb(68, 68, 68); fill-opacity: 1; white-space: pre;">120</text></g><g class="ytick"><text text-anchor="end" x="59" y="4.199999999999999" transform="translate(0,72.85)" style="font-family: 'Open Sans', verdana, arial, sans-serif; font-size: 12px; fill: rgb(68, 68, 68); fill-opacity: 1; white-space: pre;">140</text></g></g><g class="overaxes-above"/></g></g><g class="polarlayer"/><g class="ternarylayer"/><g class="geolayer"/><g class="funnelarealayer"/><g class="pielayer"/><g class="treemaplayer"/><g class="sunburstlayer"/><g class="glimages"/><defs id="topdefs-6f0801"><g class="clips"/><clipPath id="legend6f0801"><rect width="117" height="140" x="0" y="0"/></clipPath></defs><g class="layer-above"><g class="imagelayer"/><g class="shapelayer"/></g><g class="infolayer"><g class="legend" pointer-events="all" transform="translate(90.95, 46.750000000000014)"><rect class="bg" shape-rendering="crispEdges" style="stroke: rgb(68, 68, 68); stroke-opacity: 1; fill: rgb(226, 226, 226); fill-opacity: 1; stroke-width: 0px;" width="117" height="140" x="0" y="0"/><g class="scrollbox" transform="translate(0, 0)" clip-path="url('#legend6f0801')"><text class="legendtitletext user-select-none" text-anchor="start" x="2" y="15.600000000000001" style="font-family: 'Open Sans', verdana, arial, sans-serif; font-size: 12px; fill: rgb(68, 68, 68); fill-opacity: 1; white-space: pre;"><tspan style="font-weight:bold"> Identification Time </tspan></text><g class="groups"><g class="traces" transform="translate(0, 30.1)" style="opacity: 1;"><text class="legendtext user-select-none" text-anchor="start" x="40" y="4.680000000000001" style="font-family: 'Open Sans', verdana, arial, sans-serif; font-size: 12px; fill: rgb(68, 68, 68); fill-opacity: 1; white-space: pre;">0 Months</text><g class="layers" style="opacity: 1;"><g class="legendfill"/><g class="legendlines"><path class="js-line" d="M5,0h30" style="fill: none; stroke: rgb(31, 119, 180); stroke-opacity: 1; stroke-width: 2px;"/></g><g class="legendsymbols"><g class="legendpoints"/></g></g><rect class="legendtoggle" pointer-events="all" x="0" y="-9.5" width="98.046875" height="19" style="cursor: pointer; fill: rgb(0, 0, 0); fill-opacity: 0;"/></g><g class="traces" transform="translate(0, 49.1)" style="opacity: 1;"><text class="legendtext user-select-none" text-anchor="start" x="40" y="4.680000000000001" style="font-family: 'Open Sans', verdana, arial, sans-serif; font-size: 12px; fill: rgb(68, 68, 68); fill-opacity: 1; white-space: pre;">3 Months</text><g class="layers" style="opacity: 1;"><g class="legendfill"/><g class="legendlines"><path class="js-line" d="M5,0h30" style="fill: none; stroke: rgb(255, 127, 14); stroke-opacity: 1; stroke-width: 2px;"/></g><g class="legendsymbols"><g class="legendpoints"/></g></g><rect class="legendtoggle" pointer-events="all" x="0" y="-9.5" width="98.046875" height="19" style="cursor: pointer; fill: rgb(0, 0, 0); fill-opacity: 0;"/></g><g class="traces" transform="translate(0, 68.1)" style="opacity: 1;"><text class="legendtext user-select-none" text-anchor="start" x="40" y="4.680000000000001" style="font-family: 'Open Sans', verdana, arial, sans-serif; font-size: 12px; fill: rgb(68, 68, 68); fill-opacity: 1; white-space: pre;">6 Months</text><g class="layers" style="opacity: 1;"><g class="legendfill"/><g class="legendlines"><path class="js-line" d="M5,0h30" style="fill: none; stroke: rgb(44, 160, 44); stroke-opacity: 1; stroke-width: 2px;"/></g><g class="legendsymbols"><g class="legendpoints"/></g></g><rect class="legendtoggle" pointer-events="all" x="0" y="-9.5" width="98.046875" height="19" style="cursor: pointer; fill: rgb(0, 0, 0); fill-opacity: 0;"/></g><g class="traces" transform="translate(0, 87.1)" style="opacity: 1;"><text class="legendtext user-select-none" text-anchor="start" x="40" y="4.680000000000001" style="font-family: 'Open Sans', verdana, arial, sans-serif; font-size: 12px; fill: rgb(68, 68, 68); fill-opacity: 1; white-space: pre;">12 Months</text><g class="layers" style="opacity: 1;"><g class="legendfill"/><g class="legendlines"><path class="js-line" d="M5,0h30" style="fill: none; stroke: rgb(214, 39, 40); stroke-opacity: 1; stroke-width: 2px;"/></g><g class="legendsymbols"><g class="legendpoints"/></g></g><rect class="legendtoggle" pointer-events="all" x="0" y="-9.5" width="98.046875" height="19" style="cursor: pointer; fill: rgb(0, 0, 0); fill-opacity: 0;"/></g><g class="traces" transform="translate(0, 106.1)" style="opacity: 1;"><text class="legendtext user-select-none" text-anchor="start" x="40" y="4.680000000000001" style="font-family: 'Open Sans', verdana, arial, sans-serif; font-size: 12px; fill: rgb(68, 68, 68); fill-opacity: 1; white-space: pre;">24 Months</text><g class="layers" style="opacity: 1;"><g class="legendfill"/><g class="legendlines"><path class="js-line" d="M5,0h30" style="fill: none; stroke: rgb(148, 103, 189); stroke-opacity: 1; stroke-width: 2px;"/></g><g class="legendsymbols"><g class="legendpoints"/></g></g><rect class="legendtoggle" pointer-events="all" x="0" y="-9.5" width="98.046875" height="19" style="cursor: pointer; fill: rgb(0, 0, 0); fill-opacity: 0;"/></g><g class="traces" transform="translate(0, 125.1)" style="opacity: 1;"><text class="legendtext user-select-none" text-anchor="start" x="40" y="4.680000000000001" style="font-family: 'Open Sans', verdana, arial, sans-serif; font-size: 12px; fill: rgb(68, 68, 68); fill-opacity: 1; white-space: pre;">36 Months</text><g class="layers" style="opacity: 1;"><g class="legendfill"/><g class="legendlines"><path class="js-line" d="M5,0h30" style="fill: none; stroke: rgb(140, 86, 75); stroke-opacity: 1; stroke-width: 2px;"/></g><g class="legendsymbols"><g class="legendpoints"/></g></g><rect class="legendtoggle" pointer-events="all" x="0" y="-9.5" width="98.046875" height="19" style="cursor: pointer; fill: rgb(0, 0, 0); fill-opacity: 0;"/></g></g></g><rect class="scrollbar" rx="20" ry="3" width="0" height="0" style="fill: rgb(128, 139, 164); fill-opacity: 1;" x="0" y="0"/></g><g class="g-gtitle"><text class="gtitle" x="350" y="12.5" text-anchor="middle" dy="0em" style="font-family: 'Open Sans', verdana, arial, sans-serif; font-size: 17px; fill: rgb(68, 68, 68); opacity: 1; font-weight: normal; white-space: pre;"><tspan style="font-weight:bold"> Leprosy Incidence PB - Immunity Vaccine 0.99, Treatment 95% </tspan></text></g><g class="g-xtitle" transform="translate(0,-15)"><text class="xtitle" x="369.5" y="512" text-anchor="middle" style="font-family: 'Open Sans', verdana, arial, sans-serif; font-size: 14px; fill: rgb(68, 68, 68); opacity: 1; font-weight: normal; white-space: pre;">Time(Years)</text></g><g class="g-ytitle"><text class="ytitle" transform="rotate(-90,22,242.5)" x="22" y="242.5" text-anchor="middle" style="font-family: 'Open Sans', verdana, arial, sans-serif; font-size: 14px; fill: rgb(68, 68, 68); opacity: 1; font-weight: normal; white-space: pre;">Number of new infectiuos individuals</text></g></g></svg>