<svg class="main-svg" xmlns="http://www.w3.org/2000/svg" xmlns:xlink="http://www.w3.org/1999/xlink" width="700" height="500" style="" viewBox="0 0 700 500"><rect x="0" y="0" width="700" height="500" style="fill: rgb(255, 255, 255); fill-opacity: 1;"/><defs id="defs-f7314a"><g class="clips"><clipPath id="clipf7314axyplot" class="plotclip"><rect width="619" height="435"/></clipPath><clipPath class="axesclip" id="clipf7314ax"><rect x="60" y="0" width="619" height="500"/></clipPath><clipPath class="axesclip" id="clipf7314ay"><rect x="0" y="25" width="700" height="435"/></clipPath><clipPath class="axesclip" id="clipf7314axy"><rect x="60" y="25" width="619" height="435"/></clipPath></g><g class="gradients"/></defs><g class="bglayer"/><g class="layer-below"><g class="imagelayer"/><g class="shapelayer"/></g><g class="cartesianlayer"><g class="subplot xy"><g class="layer-subplot"><g class="shapelayer"/><g class="imagelayer"/></g><g class="gridlayer"><g class="x"><path class="xgrid crisp" transform="translate(212.42,0)" d="M0,25v435" style="stroke: rgb(238, 238, 238); stroke-opacity: 1; stroke-width: 1px;"/><path class="xgrid crisp" transform="translate(367.94,0)" d="M0,25v435" style="stroke: rgb(238, 238, 238); stroke-opacity: 1; stroke-width: 1px;"/><path class="xgrid crisp" transform="translate(523.47,0)" d="M0,25v435" style="stroke: rgb(238, 238, 238); stroke-opacity: 1; stroke-width: 1px;"/></g><g class="y"><path class="ygrid crisp" transform="translate(0,386.05)" d="M60,0h619" style="stroke: rgb(238, 238, 238); stroke-opacity: 1; stroke-width: 1px;"/><path class="ygrid crisp" transform="translate(0,333.86)" d="M60,0h619" style="stroke: rgb(238, 238, 238); stroke-opacity: 1; stroke-width: 1px;"/><path class="ygrid crisp" transform="translate(0,281.66)" d="M60,0h619" style="stroke: rgb(238, 238, 238); stroke-opacity: 1; stroke-width: 1px;"/><path class="ygrid crisp" transform="translate(0,229.46)" d="M60,0h619" style="stroke: rgb(238, 238, 238); stroke-opacity: 1; stroke-width: 1px;"/><path class="ygrid crisp" transform="translate(0,177.27)" d="M60,0h619" style="stroke: rgb(238, 238, 238); stroke-opacity: 1; stroke-width: 1px;"/><path class="ygrid crisp" transform="translate(0,125.07)" d="M60,0h619" style="stroke: rgb(238, 238, 238); stroke-opacity: 1; stroke-width: 1px;"/><path class="ygrid crisp" transform="translate(0,72.87)" d="M60,0h619" style="stroke: rgb(238, 238, 238); stroke-opacity: 1; stroke-width: 1px;"/></g></g><g class="zerolinelayer"><path class="yzl zl crisp" transform="translate(0,438.25)" d="M60,0h619" style="stroke: rgb(68, 68, 68); stroke-opacity: 1; stroke-width: 1px;"/></g><path class="xlines-below"/><path class="ylines-below"/><g class="overlines-below"/><g class="xaxislayer-below"/><g class="yaxislayer-below"/><g class="overaxes-below"/><g class="plot" transform="translate(60, 25)" clip-path="url('#clipf7314axyplot')"><g class="scatterlayer mlayer"><g class="trace scatter trace826e68" style="stroke-miterlimit: 2; opacity: 1;"><g class="fills"/><g class="errorbars"/><g class="lines"><path class="js-line" d="M0,21.75L3.11,413.25L6.22,413.25L9.33,117.09L12.44,305.48L27.99,276.9L31.11,272.25L37.33,261.91L40.44,257.56L43.55,256.19L46.66,252.98L55.99,239.16L59.1,237.14L62.21,233.34L65.32,231.36L68.43,228.89L71.54,224.23L74.65,224L77.76,220.51L80.87,217.97L83.98,214.16L87.1,210.86L90.21,209.87L93.32,205.99L96.43,204.36L102.65,198.08L105.76,194.68L111.98,191.99L115.09,189.33L118.2,185.01L121.31,184.25L124.42,179.19L127.53,178.73L130.64,177.56L133.75,172.66L136.86,171.84L139.97,169.45L146.2,161.55L149.31,160.81L152.42,158.52L155.53,158.4L158.64,154.75L161.75,152.35L167.97,143.8L171.08,145.3L174.19,141.46L177.3,140.88L180.41,141.18L183.52,137.51L186.63,132.39L189.74,133.89L192.85,126.01L195.96,124.02L199.08,120.28L202.19,120.26L205.3,118.82L208.41,114.87L214.63,108.81L217.74,107.4L220.85,102.48L223.96,101.14L227.07,97.89L230.18,97.87L233.29,94.93L236.4,89.79L239.51,87.67L242.62,81.5L245.73,86.92L248.84,84.03L255.07,74.96L258.18,75.81L261.29,69.8L264.4,69.76L267.51,69.5L270.62,68.4L273.73,58.91L276.84,58.74L279.95,54.01L283.06,54.79L289.28,49.11L292.39,49.98L295.5,41.69L298.61,41.91L301.72,39.95L304.83,37.04L307.94,29.19L311.06,42.07L320.39,101.1L323.5,132.9L329.72,175.34L332.83,192.71L339.05,227.51L342.16,242.41L351.49,275.66L354.6,280.4L357.71,288.45L360.82,294.11L363.93,295.31L367.05,301.01L370.16,303.59L373.27,310.12L376.38,312.88L379.49,318.3L382.6,321.28L385.71,323.21L391.93,330.4L395.04,335.92L398.15,337.33L401.26,339.8L404.37,342.99L407.48,345.07L410.59,347.89L413.7,348.77L416.81,353.73L419.92,355.43L423.04,357.16L426.15,357.99L432.37,364.04L435.48,365.07L438.59,367.43L441.7,367.79L444.81,371L447.92,372.62L451.03,374L454.14,374.21L460.36,377.34L463.47,377.59L469.69,383.05L472.8,380.85L479.03,385.44L482.14,386.21L491.47,389.75L494.58,389.92L497.69,391.37L500.8,391.86L507.02,394.6L510.13,394.04L513.24,395.15L516.35,395.36L522.57,397.67L525.68,397.92L528.79,397.89L531.9,398.88L538.13,399.85L541.24,399.6L550.57,401.86L553.68,401.92L556.79,402.51L559.9,402.22L566.12,403.55L569.23,404.08L572.34,404.76L575.45,404.18L584.78,406.07L587.89,405.79L591.01,406.39L594.12,406.11L600.34,407.22L603.45,406.96L612.78,407.5L615.89,408.04L619,408.38" style="vector-effect: non-scaling-stroke; fill: none; stroke: rgb(31, 119, 180); stroke-opacity: 1; stroke-width: 2px; opacity: 1;"/></g><g class="points"/><g class="text"/></g><g class="trace scatter trace675652" style="stroke-miterlimit: 2; opacity: 1;"><g class="fills"/><g class="errorbars"/><g class="lines"><path class="js-line" d="M0,21.75L3.11,413.25L6.22,413.25L9.33,117.09L12.44,305.48L27.99,276.9L31.11,272.25L37.33,261.91L40.44,257.56L43.55,256.19L46.66,252.98L55.99,239.16L59.1,237.14L62.21,233.34L65.32,231.36L68.43,228.89L71.54,224.23L74.65,224L77.76,220.51L80.87,217.97L83.98,214.16L87.1,210.86L90.21,209.87L93.32,205.99L96.43,204.36L102.65,198.08L105.76,194.68L111.98,191.99L115.09,189.33L118.2,185.01L121.31,184.25L124.42,179.19L127.53,178.73L130.64,177.56L133.75,172.66L136.86,171.84L139.97,169.45L146.2,161.55L149.31,160.81L152.42,158.52L155.53,158.4L158.64,154.75L161.75,152.35L167.97,143.8L171.08,145.3L174.19,141.46L177.3,140.88L180.41,141.18L183.52,137.51L186.63,132.39L189.74,133.89L192.85,126.01L195.96,124.02L199.08,120.28L202.19,120.26L205.3,118.82L208.41,114.87L214.63,108.81L217.74,107.4L220.85,102.48L223.96,101.14L227.07,97.89L230.18,97.87L233.29,94.93L236.4,89.79L239.51,87.67L242.62,81.5L245.73,86.92L248.84,84.03L255.07,74.96L258.18,75.81L261.29,69.8L264.4,69.76L267.51,69.5L270.62,68.4L273.73,58.91L276.84,58.74L279.95,54.01L283.06,54.79L289.28,49.11L292.39,49.98L295.5,41.69L298.61,41.91L301.72,39.95L304.83,37.04L307.94,29.19L311.06,42.88L320.39,95.15L323.5,125.48L326.61,151.92L329.72,166.37L332.83,190.11L335.94,204.66L348.38,263.09L351.49,273.18L360.82,288.97L363.93,293.3L373.27,304.08L376.38,310.02L379.49,313.15L382.6,317.72L385.71,320.88L388.82,325.39L391.93,329.63L395.04,332.21L398.15,333.78L401.26,339.07L404.37,342.41L407.48,343.83L410.59,344.17L413.7,347.76L419.92,352.11L423.04,354.67L429.26,359.53L432.37,361.05L435.48,362.48L438.59,365.78L441.7,367.04L444.81,367.36L451.03,373.97L454.14,374.23L457.25,374.42L460.36,377.17L463.47,377.77L466.58,379.23L469.69,379.13L472.8,382.49L475.91,382.68L479.03,384.29L485.25,385.36L488.36,388.67L491.47,387.09L494.58,389.41L497.69,389.28L500.8,390.34L516.35,394.86L519.46,394.67L522.57,396.34L525.68,396.99L531.9,397.4L535.02,398.65L538.13,399.5L541.24,399.4L544.35,398.94L547.46,401.08L559.9,401.99L563.01,402.93L572.34,402.93L575.45,403.4L581.67,404.61L584.78,404.51L591.01,405.22L594.12,405.37L606.56,406.56L609.67,407.36L619,407.57" style="vector-effect: non-scaling-stroke; fill: none; stroke: rgb(255, 127, 14); stroke-opacity: 1; stroke-width: 2px; opacity: 1;"/></g><g class="points"/><g class="text"/></g><g class="trace scatter tracebfbbd4" style="stroke-miterlimit: 2; opacity: 1;"><g class="fills"/><g class="errorbars"/><g class="lines"><path class="js-line" d="M0,21.75L3.11,413.25L6.22,413.25L9.33,117.09L12.44,305.48L27.99,276.9L31.11,272.25L37.33,261.91L40.44,257.56L43.55,256.19L46.66,252.98L55.99,239.16L59.1,237.14L62.21,233.34L65.32,231.36L68.43,228.89L71.54,224.23L74.65,224L77.76,220.51L80.87,217.97L83.98,214.16L87.1,210.86L90.21,209.87L93.32,205.99L96.43,204.36L102.65,198.08L105.76,194.68L111.98,191.99L115.09,189.33L118.2,185.01L121.31,184.25L124.42,179.19L127.53,178.73L130.64,177.56L133.75,172.66L136.86,171.84L139.97,169.45L146.2,161.55L149.31,160.81L152.42,158.52L155.53,158.4L158.64,154.75L161.75,152.35L167.97,143.8L171.08,145.3L174.19,141.46L177.3,140.88L180.41,141.18L183.52,137.51L186.63,132.39L189.74,133.89L192.85,126.01L195.96,124.02L199.08,120.28L202.19,120.26L205.3,118.82L208.41,114.87L214.63,108.81L217.74,107.4L220.85,102.48L223.96,101.14L227.07,97.89L230.18,97.87L233.29,94.93L236.4,89.79L239.51,87.67L242.62,81.5L245.73,86.92L248.84,84.03L255.07,74.96L258.18,75.81L261.29,69.8L264.4,69.76L267.51,69.5L270.62,68.4L273.73,58.91L276.84,58.74L279.95,54.01L283.06,54.79L289.28,49.11L292.39,49.98L295.5,41.69L298.61,41.91L301.72,39.95L304.83,37.04L307.94,29.19L311.06,37.85L317.28,74.13L320.39,95.43L323.5,124.96L326.61,143.72L329.72,168.16L332.83,183.94L342.16,235.17L345.27,247.1L348.38,260.67L351.49,267.9L357.71,282.8L360.82,286.62L367.05,293.41L370.16,295.76L373.27,302.35L376.38,305.12L379.49,310.27L382.6,311.4L385.71,317.63L388.82,320.63L395.04,328.74L398.15,331.98L404.37,338.65L407.48,341.11L410.59,341.58L413.7,343.89L419.92,351.15L423.04,350.27L426.15,355.32L429.26,354.14L435.48,359.85L438.59,359.7L441.7,363.74L444.81,365.92L447.92,366.19L451.03,369.55L454.14,371.1L457.25,371L460.36,373.82L463.47,375.12L469.69,377.16L472.8,378.96L475.91,380.82L479.03,381.62L485.25,383.56L488.36,384.28L491.47,385.21L494.58,387.09L500.8,387.6L503.91,390.04L516.35,392.53L519.46,394.52L525.68,394.41L528.79,395.96L541.24,398L544.35,398.88L581.67,403.48L584.78,404.22L591.01,404.38L594.12,404.86L600.34,405.12L603.45,405.51L609.67,405.73L612.78,406.03L619,406.8" style="vector-effect: non-scaling-stroke; fill: none; stroke: rgb(44, 160, 44); stroke-opacity: 1; stroke-width: 2px; opacity: 1;"/></g><g class="points"/><g class="text"/></g><g class="trace scatter trace61749d" style="stroke-miterlimit: 2; opacity: 1;"><g class="fills"/><g class="errorbars"/><g class="lines"><path class="js-line" d="M0,21.76L3.11,413.25L6.22,413.25L9.33,117.09L12.44,305.48L27.99,276.9L31.11,272.25L37.33,261.91L40.44,257.56L43.55,256.19L46.66,252.98L55.99,239.16L59.1,237.14L62.21,233.34L65.32,231.36L68.43,228.89L71.54,224.23L74.65,224L77.76,220.51L80.87,217.97L83.98,214.16L87.1,210.86L90.21,209.87L93.32,205.99L96.43,204.36L102.65,198.08L105.76,194.68L111.98,191.99L115.09,189.33L118.2,185.01L121.31,184.25L124.42,179.19L127.53,178.73L130.64,177.56L133.75,172.66L136.86,171.84L139.97,169.45L146.2,161.55L149.31,160.81L152.42,158.52L155.53,158.4L158.64,154.75L161.75,152.35L167.97,143.8L171.08,145.3L174.19,141.46L177.3,140.88L180.41,141.18L183.52,137.51L186.63,132.39L189.74,133.89L192.85,126.01L195.96,124.02L199.08,120.28L202.19,120.26L205.3,118.82L208.41,114.87L214.63,108.81L217.74,107.4L220.85,102.48L223.96,101.14L227.07,97.89L230.18,97.87L233.29,94.93L236.4,89.79L239.51,87.67L242.62,81.5L245.73,86.92L248.84,84.03L255.07,74.96L258.18,75.81L261.29,69.8L264.4,69.76L267.51,69.5L270.62,68.4L273.73,58.91L276.84,58.74L279.95,54.01L283.06,54.79L289.28,49.11L292.39,49.98L295.5,41.69L298.61,41.91L301.72,39.95L304.83,37.04L307.94,29.19L311.06,36.12L314.17,48.12L317.28,71.66L323.5,116.66L326.61,140.91L329.72,157.03L332.83,178.5L342.16,228.68L345.27,241.21L348.38,255.62L351.49,262.53L354.6,270.69L357.71,276.38L363.93,284.87L367.05,286.96L373.27,295.23L376.38,299.71L379.49,303.31L382.6,309.81L388.82,317.27L391.93,322.78L395.04,324.14L398.15,326.49L410.59,339.34L413.7,340.91L416.81,343.82L419.92,345.24L429.26,351.95L432.37,354.31L438.59,359.49L441.7,359.87L444.81,363.55L447.92,365.99L451.03,365.99L454.14,368.95L457.25,369.22L460.36,370.27L463.47,372.84L466.58,374.01L475.91,378.79L479.03,379.45L482.14,382.23L485.25,381.46L491.47,384.89L494.58,386.04L497.69,385.44L500.8,386.47L503.91,389.3L507.02,388.61L510.13,390.23L513.24,390.4L516.35,390.66L519.46,392.42L522.57,392.15L525.68,392.83L528.79,394.62L531.9,395.28L538.13,395.8L541.24,396.12L547.46,398.17L550.57,398.27L566.12,400.66L569.23,400.4L572.34,401.68L575.45,401.75L578.56,403.02L581.67,402.76L591.01,403.63L594.12,404.01L600.34,405.17L603.45,405.55L609.67,405.84L612.78,406.2L615.89,405.34L619,406.29" style="vector-effect: non-scaling-stroke; fill: none; stroke: rgb(214, 39, 40); stroke-opacity: 1; stroke-width: 2px; opacity: 1;"/></g><g class="points"/><g class="text"/></g><g class="trace scatter trace4802c8" style="stroke-miterlimit: 2; opacity: 1;"><g class="fills"/><g class="errorbars"/><g class="lines"><path class="js-line" d="M0,21.75L3.11,413.25L6.22,413.25L9.33,117.09L12.44,305.48L27.99,276.9L31.11,272.25L37.33,261.91L40.44,257.56L43.55,256.19L46.66,252.98L55.99,239.16L59.1,237.14L62.21,233.34L65.32,231.36L68.43,228.89L71.54,224.23L74.65,224L77.76,220.51L80.87,217.97L83.98,214.16L87.1,210.86L90.21,209.87L93.32,205.99L96.43,204.36L102.65,198.08L105.76,194.68L111.98,191.99L115.09,189.33L118.2,185.01L121.31,184.25L124.42,179.19L127.53,178.73L130.64,177.56L133.75,172.66L136.86,171.84L139.97,169.45L146.2,161.55L149.31,160.81L152.42,158.52L155.53,158.4L158.64,154.75L161.75,152.35L167.97,143.8L171.08,145.3L174.19,141.46L177.3,140.88L180.41,141.18L183.52,137.51L186.63,132.39L189.74,133.89L192.85,126.01L195.96,124.02L199.08,120.28L202.19,120.26L205.3,118.82L208.41,114.87L214.63,108.81L217.74,107.4L220.85,102.48L223.96,101.14L227.07,97.89L230.18,97.87L233.29,94.93L236.4,89.79L239.51,87.67L242.62,81.5L245.73,86.92L248.84,84.03L255.07,74.96L258.18,75.81L261.29,69.8L264.4,69.76L267.51,69.5L270.62,68.4L273.73,58.91L276.84,58.74L279.95,54.01L283.06,54.79L289.28,49.11L292.39,49.98L295.5,41.69L298.61,41.91L301.72,39.95L304.83,37.04L307.94,29.19L311.06,30.31L314.17,37.13L317.28,51.4L332.83,162.65L335.94,181.26L342.16,211.85L345.27,228.3L348.38,243.08L351.49,253.49L354.6,260.17L357.71,264.54L360.82,271.38L363.93,273.73L367.05,276.9L370.16,281.52L373.27,286.83L376.38,286.24L379.49,293.02L382.6,296.6L385.71,300.23L388.82,306.52L391.93,310.48L395.04,313.18L401.26,320.01L404.37,325.06L407.48,326.09L410.59,328.97L416.81,332.92L419.92,336.05L426.15,340.31L429.26,342.9L432.37,346.36L435.48,347.35L441.7,353.24L444.81,353.25L447.92,355.86L451.03,357.02L454.14,359.79L457.25,361.17L460.36,362.53L463.47,366.29L466.58,366.69L469.69,368.01L475.91,370.47L479.03,372.73L482.14,372.58L485.25,375.36L488.36,376.8L491.47,377.14L497.69,379.83L500.8,381.2L510.13,384.44L513.24,384.41L516.35,386.5L519.46,387.44L525.68,388.27L528.79,389.63L531.9,390L535.02,391.31L538.13,392.84L541.24,392.12L553.68,394.99L556.79,395.37L559.9,396.46L563.01,398.57L566.12,397.16L569.23,397.55L572.34,398.22L575.45,397.53L578.56,399.72L581.67,400.51L587.89,400.53L591.01,401.44L606.56,402.26L609.67,402.9L612.78,403.5L615.89,403.25L619,403.46" style="vector-effect: non-scaling-stroke; fill: none; stroke: rgb(148, 103, 189); stroke-opacity: 1; stroke-width: 2px; opacity: 1;"/></g><g class="points"/><g class="text"/></g><g class="trace scatter trace00e8b1" style="stroke-miterlimit: 2; opacity: 1;"><g class="fills"/><g class="errorbars"/><g class="lines"><path class="js-line" d="M0,21.76L3.11,413.25L6.22,413.25L9.33,117.09L12.44,305.48L27.99,276.9L31.11,272.25L37.33,261.91L40.44,257.56L43.55,256.19L46.66,252.98L55.99,239.16L59.1,237.14L62.21,233.34L65.32,231.36L68.43,228.89L71.54,224.23L74.65,224L77.76,220.51L80.87,217.97L83.98,214.16L87.1,210.86L90.21,209.87L93.32,205.99L96.43,204.36L102.65,198.08L105.76,194.68L111.98,191.99L115.09,189.33L118.2,185.01L121.31,184.25L124.42,179.19L127.53,178.73L130.64,177.56L133.75,172.66L136.86,171.84L139.97,169.45L146.2,161.55L149.31,160.81L152.42,158.52L155.53,158.4L158.64,154.75L161.75,152.35L167.97,143.8L171.08,145.3L174.19,141.46L177.3,140.88L180.41,141.18L183.52,137.51L186.63,132.39L189.74,133.89L192.85,126.01L195.96,124.02L199.08,120.28L202.19,120.26L205.3,118.82L208.41,114.87L214.63,108.81L217.74,107.4L220.85,102.48L223.96,101.14L227.07,97.89L230.18,97.87L233.29,94.93L236.4,89.79L239.51,87.67L242.62,81.5L245.73,86.92L248.84,84.03L255.07,74.96L258.18,75.81L261.29,69.8L264.4,69.76L267.51,69.5L270.62,68.4L273.73,58.91L276.84,58.74L279.95,54.01L283.06,54.79L289.28,49.11L292.39,49.98L295.5,41.69L298.61,41.91L301.72,39.95L304.83,37.04L307.94,29.19L311.06,31.22L314.17,36.74L317.28,49.26L320.39,58.64L323.5,87.33L329.72,130.08L332.83,144.99L335.94,168.32L339.05,184.04L348.38,227.77L351.49,238.14L354.6,250.75L357.71,256.16L360.82,257.91L363.93,262.75L367.05,263.93L370.16,267.88L373.27,274.13L376.38,276.1L382.6,285.25L385.71,292.39L388.82,293.09L391.93,295.02L395.04,300.88L398.15,304.34L401.26,311.41L404.37,311.06L407.48,315.08L410.59,317.44L413.7,318.93L416.81,323.26L423.04,328.05L426.15,331.72L429.26,331.93L432.37,334.42L435.48,335.62L438.59,339.99L447.92,345.24L451.03,349.43L454.14,350.86L457.25,353.62L463.47,357.37L466.58,359.33L469.69,361.82L472.8,362.38L475.91,362.84L479.03,366.16L485.25,368.22L488.36,370.8L491.47,370.85L494.58,373.35L500.8,375.34L503.91,376.7L507.02,377.47L510.13,379.67L516.35,380.16L519.46,381.83L522.57,381.1L525.68,383.32L531.9,384.48L535.02,386.23L541.24,388.07L544.35,388.65L566.12,393.3L569.23,394.05L572.34,394.93L575.45,395.03L578.56,396.16L581.67,396.16L584.78,397.21L587.89,396.83L591.01,397.63L594.12,397.25L597.23,398.26L600.34,398.4L603.45,399.73L606.56,400.07L615.89,400.29L619,401.51" style="vector-effect: non-scaling-stroke; fill: none; stroke: rgb(140, 86, 75); stroke-opacity: 1; stroke-width: 2px; opacity: 1;"/></g><g class="points"/><g class="text"/></g></g></g><g class="overplot"/><path class="xlines-above crisp" style="fill: none;" d="M0,0"/><path class="ylines-above crisp" style="fill: none;" d="M0,0"/><g class="overlines-above"/><g class="xaxislayer-above"><g class="xtick"><text text-anchor="middle" x="0" y="473" transform="translate(212.42,0)" style="font-family: 'Open Sans', verdana, arial, sans-serif; font-size: 12px; fill: rgb(68, 68, 68); fill-opacity: 1; white-space: pre;">50</text></g><g class="xtick"><text text-anchor="middle" x="0" y="473" transform="translate(367.94,0)" style="font-family: 'Open Sans', verdana, arial, sans-serif; font-size: 12px; fill: rgb(68, 68, 68); fill-opacity: 1; white-space: pre;">100</text></g><g class="xtick"><text text-anchor="middle" x="0" y="473" transform="translate(523.47,0)" style="font-family: 'Open Sans', verdana, arial, sans-serif; font-size: 12px; fill: rgb(68, 68, 68); fill-opacity: 1; white-space: pre;">150</text></g><g class="xtick"><text text-anchor="middle" x="0" y="473" transform="translate(679,0)" style="font-family: 'Open Sans', verdana, arial, sans-serif; font-size: 12px; fill: rgb(68, 68, 68); fill-opacity: 1; white-space: pre;">200</text></g></g><g class="yaxislayer-above"><g class="ytick"><text text-anchor="end" x="59" y="4.199999999999999" transform="translate(0,438.25)" style="font-family: 'Open Sans', verdana, arial, sans-serif; font-size: 12px; fill: rgb(68, 68, 68); fill-opacity: 1; white-space: pre;">0</text></g><g class="ytick"><text text-anchor="end" x="59" y="4.199999999999999" transform="translate(0,386.05)" style="font-family: 'Open Sans', verdana, arial, sans-serif; font-size: 12px; fill: rgb(68, 68, 68); fill-opacity: 1; white-space: pre;">20</text></g><g class="ytick"><text text-anchor="end" x="59" y="4.199999999999999" transform="translate(0,333.86)" style="font-family: 'Open Sans', verdana, arial, sans-serif; font-size: 12px; fill: rgb(68, 68, 68); fill-opacity: 1; white-space: pre;">40</text></g><g class="ytick"><text text-anchor="end" x="59" y="4.199999999999999" transform="translate(0,281.66)" style="font-family: 'Open Sans', verdana, arial, sans-serif; font-size: 12px; fill: rgb(68, 68, 68); fill-opacity: 1; white-space: pre;">60</text></g><g class="ytick"><text text-anchor="end" x="59" y="4.199999999999999" transform="translate(0,229.46)" style="font-family: 'Open Sans', verdana, arial, sans-serif; font-size: 12px; fill: rgb(68, 68, 68); fill-opacity: 1; white-space: pre;">80</text></g><g class="ytick"><text text-anchor="end" x="59" y="4.199999999999999" transform="translate(0,177.27)" style="font-family: 'Open Sans', verdana, arial, sans-serif; font-size: 12px; fill: rgb(68, 68, 68); fill-opacity: 1; white-space: pre;">100</text></g><g class="ytick"><text text-anchor="end" x="59" y="4.199999999999999" transform="translate(0,125.07)" style="font-family: 'Open Sans', verdana, arial, sans-serif; font-size: 12px; fill: rgb(68, 68, 68); fill-opacity: 1; white-space: pre;">120</text></g><g class="ytick"><text text-anchor="end" x="59" y="4.199999999999999" transform="translate(0,72.87)" style="font-family: 'Open Sans', verdana, arial, sans-serif; font-size: 12px; fill: rgb(68, 68, 68); fill-opacity: 1; white-space: pre;">140</text></g></g><g class="overaxes-above"/></g></g><g class="polarlayer"/><g class="ternarylayer"/><g class="geolayer"/><g class="funnelarealayer"/><g class="pielayer"/><g class="treemaplayer"/><g class="sunburstlayer"/><g class="glimages"/><defs id="topdefs-f7314a"><g class="clips"/><clipPath id="legendf7314a"><rect width="117" height="140" x="0" y="0"/></clipPath></defs><g class="layer-above"><g class="imagelayer"/><g class="shapelayer"/></g><g class="infolayer"><g class="legend" pointer-events="all" transform="translate(90.95, 46.750000000000014)"><rect class="bg" shape-rendering="crispEdges" style="stroke: rgb(68, 68, 68); stroke-opacity: 1; fill: rgb(226, 226, 226); fill-opacity: 1; stroke-width: 0px;" width="117" height="140" x="0" y="0"/><g class="scrollbox" transform="translate(0, 0)" clip-path="url('#legendf7314a')"><text class="legendtitletext user-select-none" text-anchor="start" x="2" y="15.600000000000001" style="font-family: 'Open Sans', verdana, arial, sans-serif; font-size: 12px; fill: rgb(68, 68, 68); fill-opacity: 1; white-space: pre;"><tspan style="font-weight:bold"> Identification Time </tspan></text><g class="groups"><g class="traces" transform="translate(0, 30.1)" style="opacity: 1;"><text class="legendtext user-select-none" text-anchor="start" x="40" y="4.680000000000001" style="font-family: 'Open Sans', verdana, arial, sans-serif; font-size: 12px; fill: rgb(68, 68, 68); fill-opacity: 1; white-space: pre;">0 Months</text><g class="layers" style="opacity: 1;"><g class="legendfill"/><g class="legendlines"><path class="js-line" d="M5,0h30" style="fill: none; stroke: rgb(31, 119, 180); stroke-opacity: 1; stroke-width: 2px;"/></g><g class="legendsymbols"><g class="legendpoints"/></g></g><rect class="legendtoggle" pointer-events="all" x="0" y="-9.5" width="98.046875" height="19" style="cursor: pointer; fill: rgb(0, 0, 0); fill-opacity: 0;"/></g><g class="traces" transform="translate(0, 49.1)" style="opacity: 1;"><text class="legendtext user-select-none" text-anchor="start" x="40" y="4.680000000000001" style="font-family: 'Open Sans', verdana, arial, sans-serif; font-size: 12px; fill: rgb(68, 68, 68); fill-opacity: 1; white-space: pre;">3 Months</text><g class="layers" style="opacity: 1;"><g class="legendfill"/><g class="legendlines"><path class="js-line" d="M5,0h30" style="fill: none; stroke: rgb(255, 127, 14); stroke-opacity: 1; stroke-width: 2px;"/></g><g class="legendsymbols"><g class="legendpoints"/></g></g><rect class="legendtoggle" pointer-events="all" x="0" y="-9.5" width="98.046875" height="19" style="cursor: pointer; fill: rgb(0, 0, 0); fill-opacity: 0;"/></g><g class="traces" transform="translate(0, 68.1)" style="opacity: 1;"><text class="legendtext user-select-none" text-anchor="start" x="40" y="4.680000000000001" style="font-family: 'Open Sans', verdana, arial, sans-serif; font-size: 12px; fill: rgb(68, 68, 68); fill-opacity: 1; white-space: pre;">6 Months</text><g class="layers" style="opacity: 1;"><g class="legendfill"/><g class="legendlines"><path class="js-line" d="M5,0h30" style="fill: none; stroke: rgb(44, 160, 44); stroke-opacity: 1; stroke-width: 2px;"/></g><g class="legendsymbols"><g class="legendpoints"/></g></g><rect class="legendtoggle" pointer-events="all" x="0" y="-9.5" width="98.046875" height="19" style="cursor: pointer; fill: rgb(0, 0, 0); fill-opacity: 0;"/></g><g class="traces" transform="translate(0, 87.1)" style="opacity: 1;"><text class="legendtext user-select-none" text-anchor="start" x="40" y="4.680000000000001" style="font-family: 'Open Sans', verdana, arial, sans-serif; font-size: 12px; fill: rgb(68, 68, 68); fill-opacity: 1; white-space: pre;">12 Months</text><g class="layers" style="opacity: 1;"><g class="legendfill"/><g class="legendlines"><path class="js-line" d="M5,0h30" style="fill: none; stroke: rgb(214, 39, 40); stroke-opacity: 1; stroke-width: 2px;"/></g><g class="legendsymbols"><g class="legendpoints"/></g></g><rect class="legendtoggle" pointer-events="all" x="0" y="-9.5" width="98.046875" height="19" style="cursor: pointer; fill: rgb(0, 0, 0); fill-opacity: 0;"/></g><g class="traces" transform="translate(0, 106.1)" style="opacity: 1;"><text class="legendtext user-select-none" text-anchor="start" x="40" y="4.680000000000001" style="font-family: 'Open Sans', verdana, arial, sans-serif; font-size: 12px; fill: rgb(68, 68, 68); fill-opacity: 1; white-space: pre;">24 Months</text><g class="layers" style="opacity: 1;"><g class="legendfill"/><g class="legendlines"><path class="js-line" d="M5,0h30" style="fill: none; stroke: rgb(148, 103, 189); stroke-opacity: 1; stroke-width: 2px;"/></g><g class="legendsymbols"><g class="legendpoints"/></g></g><rect class="legendtoggle" pointer-events="all" x="0" y="-9.5" width="98.046875" height="19" style="cursor: pointer; fill: rgb(0, 0, 0); fill-opacity: 0;"/></g><g class="traces" transform="translate(0, 125.1)" style="opacity: 1;"><text class="legendtext user-select-none" text-anchor="start" x="40" y="4.680000000000001" style="font-family: 'Open Sans', verdana, arial, sans-serif; font-size: 12px; fill: rgb(68, 68, 68); fill-opacity: 1; white-space: pre;">36 Months</text><g class="layers" style="opacity: 1;"><g class="legendfill"/><g class="legendlines"><path class="js-line" d="M5,0h30" style="fill: none; stroke: rgb(140, 86, 75); stroke-opacity: 1; stroke-width: 2px;"/></g><g class="legendsymbols"><g class="legendpoints"/></g></g><rect class="legendtoggle" pointer-events="all" x="0" y="-9.5" width="98.046875" height="19" style="cursor: pointer; fill: rgb(0, 0, 0); fill-opacity: 0;"/></g></g></g><rect class="scrollbar" rx="20" ry="3" width="0" height="0" style="fill: rgb(128, 139, 164); fill-opacity: 1;" x="0" y="0"/></g><g class="g-gtitle"><text class="gtitle" x="350" y="12.5" text-anchor="middle" dy="0em" style="font-family: 'Open Sans', verdana, arial, sans-serif; font-size: 17px; fill: rgb(68, 68, 68); opacity: 1; font-weight: normal; white-space: pre;"><tspan style="font-weight:bold"> Leprosy Incidence PB - Immunity Vaccine 0.5, Treatment 50% </tspan></text></g><g class="g-xtitle" transform="translate(0,-15)"><text class="xtitle" x="369.5" y="512" text-anchor="middle" style="font-family: 'Open Sans', verdana, arial, sans-serif; font-size: 14px; fill: rgb(68, 68, 68); opacity: 1; font-weight: normal; white-space: pre;">Time(Years)</text></g><g class="g-ytitle"><text class="ytitle" transform="rotate(-90,22,242.5)" x="22" y="242.5" text-anchor="middle" style="font-family: 'Open Sans', verdana, arial, sans-serif; font-size: 14px; fill: rgb(68, 68, 68); opacity: 1; font-weight: normal; white-space: pre;">Number of new infectiuos individuals</text></g></g></svg>