<svg class="main-svg" xmlns="http://www.w3.org/2000/svg" xmlns:xlink="http://www.w3.org/1999/xlink" width="700" height="500" style="" viewBox="0 0 700 500"><rect x="0" y="0" width="700" height="500" style="fill: rgb(255, 255, 255); fill-opacity: 1;"/><defs id="defs-f5c5bb"><g class="clips"><clipPath id="clipf5c5bbxyplot" class="plotclip"><rect width="619" height="435"/></clipPath><clipPath class="axesclip" id="clipf5c5bbx"><rect x="60" y="0" width="619" height="500"/></clipPath><clipPath class="axesclip" id="clipf5c5bby"><rect x="0" y="25" width="700" height="435"/></clipPath><clipPath class="axesclip" id="clipf5c5bbxy"><rect x="60" y="25" width="619" height="435"/></clipPath></g><g class="gradients"/></defs><g class="bglayer"/><g class="layer-below"><g class="imagelayer"/><g class="shapelayer"/></g><g class="cartesianlayer"><g class="subplot xy"><g class="layer-subplot"><g class="shapelayer"/><g class="imagelayer"/></g><g class="gridlayer"><g class="x"><path class="xgrid crisp" transform="translate(212.42,0)" d="M0,25v435" style="stroke: rgb(238, 238, 238); stroke-opacity: 1; stroke-width: 1px;"/><path class="xgrid crisp" transform="translate(367.94,0)" d="M0,25v435" style="stroke: rgb(238, 238, 238); stroke-opacity: 1; stroke-width: 1px;"/><path class="xgrid crisp" transform="translate(523.47,0)" d="M0,25v435" style="stroke: rgb(238, 238, 238); stroke-opacity: 1; stroke-width: 1px;"/></g><g class="y"><path class="ygrid crisp" transform="translate(0,386.11)" d="M60,0h619" style="stroke: rgb(238, 238, 238); stroke-opacity: 1; stroke-width: 1px;"/><path class="ygrid crisp" transform="translate(0,333.98)" d="M60,0h619" style="stroke: rgb(238, 238, 238); stroke-opacity: 1; stroke-width: 1px;"/><path class="ygrid crisp" transform="translate(0,281.84)" d="M60,0h619" style="stroke: rgb(238, 238, 238); stroke-opacity: 1; stroke-width: 1px;"/><path class="ygrid crisp" transform="translate(0,229.7)" d="M60,0h619" style="stroke: rgb(238, 238, 238); stroke-opacity: 1; stroke-width: 1px;"/><path class="ygrid crisp" transform="translate(0,177.56)" d="M60,0h619" style="stroke: rgb(238, 238, 238); stroke-opacity: 1; stroke-width: 1px;"/><path class="ygrid crisp" transform="translate(0,125.43)" d="M60,0h619" style="stroke: rgb(238, 238, 238); stroke-opacity: 1; stroke-width: 1px;"/><path class="ygrid crisp" transform="translate(0,73.28999999999999)" d="M60,0h619" style="stroke: rgb(238, 238, 238); stroke-opacity: 1; stroke-width: 1px;"/></g></g><g class="zerolinelayer"><path class="yzl zl crisp" transform="translate(0,438.25)" d="M60,0h619" style="stroke: rgb(68, 68, 68); stroke-opacity: 1; stroke-width: 1px;"/></g><path class="xlines-below"/><path class="ylines-below"/><g class="overlines-below"/><g class="xaxislayer-below"/><g class="yaxislayer-below"/><g class="overaxes-below"/><g class="plot" transform="translate(60, 25)" clip-path="url('#clipf5c5bbxyplot')"><g class="scatterlayer mlayer"><g class="trace scatter trace97548b" style="stroke-miterlimit: 2; opacity: 1;"><g class="fills"/><g class="errorbars"/><g class="lines"><path class="js-line" d="M0,21.96L3.11,413.25L6.22,413.25L9.33,117.42L12.44,305.6L27.99,277.05L31.11,272.41L37.33,262.08L40.44,257.74L43.55,256.37L46.66,253.16L55.99,239.36L59.1,237.34L62.21,233.55L65.32,231.56L68.43,229.1L71.54,224.45L74.65,224.21L77.76,220.73L80.87,218.19L83.98,214.38L87.1,211.09L90.21,210.1L93.32,206.23L96.43,204.6L102.65,198.33L105.76,194.92L111.98,192.24L115.09,189.58L118.2,185.27L121.31,184.51L124.42,179.45L127.53,179L130.64,177.82L133.75,172.94L136.86,172.11L139.97,169.73L146.2,161.83L149.31,161.1L152.42,158.81L155.53,158.69L158.64,155.04L161.75,152.64L167.97,144.1L171.08,145.6L174.19,141.77L177.3,141.18L180.41,141.48L183.52,137.82L186.63,132.71L189.74,134.21L192.85,126.34L195.96,124.34L199.08,120.62L202.19,120.59L205.3,119.16L208.41,115.21L214.63,109.16L217.74,107.75L220.85,102.84L223.96,101.49L227.07,98.25L230.18,98.22L233.29,95.29L236.4,90.15L239.51,88.04L242.62,81.88L245.73,87.29L248.84,84.41L255.07,75.35L258.18,76.19L261.29,70.19L264.4,70.15L267.51,69.89L270.62,68.79L273.73,59.31L276.84,59.15L279.95,54.41L283.06,55.2L289.28,49.53L292.39,50.39L295.5,42.11L298.61,42.33L301.72,40.38L304.83,37.47L307.94,29.62L311.06,38.97L314.17,44.35L317.28,52.02L320.39,64.7L323.5,82.42L326.61,85.16L329.72,98.25L335.94,115L339.05,126.69L345.27,145.09L348.38,156.85L351.49,155L354.6,166.22L357.71,162.14L360.82,170.17L363.93,171.62L367.05,177.15L370.16,177.98L373.27,179.8L376.38,180.7L379.49,185.96L382.6,186.28L385.71,189.75L388.82,190.73L391.93,195.56L395.04,196.93L398.15,201.45L401.26,203.96L404.37,201.91L407.48,207.91L410.59,210.19L413.7,212.09L416.81,215.62L419.92,216.16L423.04,219.48L426.15,218.41L429.26,219.79L435.48,227.11L438.59,229.57L441.7,227.93L444.81,233.61L447.92,236.57L451.03,236.1L454.14,239.58L457.25,241.65L460.36,242.21L463.47,244.9L469.69,250.89L472.8,249.17L475.91,250.57L479.03,250.26L482.14,254.78L485.25,257.61L488.36,258.77L491.47,262.14L494.58,264.27L497.69,265.27L500.8,266.55L503.91,265.77L510.13,272.13L513.24,269.91L516.35,274.19L519.46,276.4L522.57,276.27L525.68,277.11L528.79,278.96L531.9,282.02L544.35,287.85L547.46,291.31L550.57,289.41L553.68,291.68L556.79,291.47L559.9,295.75L563.01,296.63L566.12,298.4L569.23,296.75L572.34,298.96L575.45,300.14L578.56,302.26L591.01,306.88L594.12,309.25L597.23,308.38L600.34,310.42L603.45,310.58L606.56,311.87L609.67,312.39L612.78,316.22L615.89,313.59L619,315.57" style="vector-effect: non-scaling-stroke; fill: none; stroke: rgb(31, 119, 180); stroke-opacity: 1; stroke-width: 2px; opacity: 1;"/></g><g class="points"/><g class="text"/></g><g class="trace scatter trace62eb15" style="stroke-miterlimit: 2; opacity: 1;"><g class="fills"/><g class="errorbars"/><g class="lines"><path class="js-line" d="M0,21.93L3.11,413.25L6.22,413.25L9.33,117.42L12.44,305.6L27.99,277.05L31.11,272.41L37.33,262.08L40.44,257.74L43.55,256.37L46.66,253.16L55.99,239.36L59.1,237.34L62.21,233.55L65.32,231.56L68.43,229.1L71.54,224.45L74.65,224.21L77.76,220.73L80.87,218.19L83.98,214.38L87.1,211.09L90.21,210.1L93.32,206.23L96.43,204.6L102.65,198.33L105.76,194.92L111.98,192.24L115.09,189.58L118.2,185.27L121.31,184.51L124.42,179.45L127.53,179L130.64,177.82L133.75,172.94L136.86,172.11L139.97,169.73L146.2,161.83L149.31,161.1L152.42,158.81L155.53,158.69L158.64,155.04L161.75,152.64L167.97,144.1L171.08,145.6L174.19,141.77L177.3,141.18L180.41,141.48L183.52,137.82L186.63,132.71L189.74,134.21L192.85,126.34L195.96,124.34L199.08,120.62L202.19,120.59L205.3,119.16L208.41,115.21L214.63,109.16L217.74,107.75L220.85,102.84L223.96,101.49L227.07,98.25L230.18,98.22L233.29,95.29L236.4,90.15L239.51,88.04L242.62,81.88L245.73,87.29L248.84,84.41L255.07,75.35L258.18,76.19L261.29,70.19L264.4,70.15L267.51,69.89L270.62,68.79L273.73,59.31L276.84,59.15L279.95,54.41L283.06,55.2L289.28,49.53L292.39,50.39L295.5,42.11L298.61,42.33L301.72,40.38L304.83,37.47L307.94,29.62L311.06,35.12L317.28,50.35L320.39,63.38L323.5,71.75L326.61,82.29L329.72,89.66L332.83,102.15L335.94,114.41L339.05,122.02L342.16,132.56L345.27,138.79L351.49,155.55L354.6,160.28L357.71,160.19L360.82,166.13L363.93,168.84L367.05,169.13L370.16,173.4L373.27,174.16L379.49,181.24L382.6,182.99L385.71,185.33L388.82,189.18L391.93,193.33L395.04,192.59L398.15,197.49L401.26,198.61L404.37,200.88L407.48,200.8L410.59,208.47L413.7,205.14L416.81,207.54L419.92,213.37L432.37,218.87L435.48,221.46L441.7,227.46L444.81,229.28L447.92,229.8L451.03,232.05L454.14,233.49L457.25,235.77L460.36,237.68L463.47,237.43L466.58,241.07L469.69,242.51L472.8,247.21L475.91,246.12L479.03,247.32L482.14,251.39L485.25,249.62L488.36,252.54L494.58,257.52L497.69,258.34L500.8,257.18L503.91,262.04L507.02,261.96L510.13,264.06L513.24,264.65L516.35,264.03L522.57,268.63L525.68,273.05L528.79,273.6L531.9,271.1L535.02,275.93L538.13,278.72L541.24,278.08L544.35,276.51L550.57,285.53L553.68,285.54L556.79,284.84L559.9,288.98L563.01,288.73L566.12,290.3L569.23,290.4L572.34,291.76L575.45,292.19L578.56,295.18L581.67,294.04L584.78,296.15L587.89,296.75L591.01,299.06L597.23,301.43L600.34,303.49L603.45,306.46L606.56,303.12L609.67,306.04L612.78,306.68L615.89,310.47L619,308.28" style="vector-effect: non-scaling-stroke; fill: none; stroke: rgb(255, 127, 14); stroke-opacity: 1; stroke-width: 2px; opacity: 1;"/></g><g class="points"/><g class="text"/></g><g class="trace scatter trace73f32d" style="stroke-miterlimit: 2; opacity: 1;"><g class="fills"/><g class="errorbars"/><g class="lines"><path class="js-line" d="M0,21.92L3.11,413.25L6.22,413.25L9.33,117.42L12.44,305.6L27.99,277.05L31.11,272.41L37.33,262.08L40.44,257.74L43.55,256.37L46.66,253.16L55.99,239.36L59.1,237.34L62.21,233.55L65.32,231.56L68.43,229.1L71.54,224.45L74.65,224.21L77.76,220.73L80.87,218.19L83.98,214.38L87.1,211.09L90.21,210.1L93.32,206.23L96.43,204.6L102.65,198.33L105.76,194.92L111.98,192.24L115.09,189.58L118.2,185.27L121.31,184.51L124.42,179.45L127.53,179L130.64,177.82L133.75,172.94L136.86,172.11L139.97,169.73L146.2,161.83L149.31,161.1L152.42,158.81L155.53,158.69L158.64,155.04L161.75,152.64L167.97,144.1L171.08,145.6L174.19,141.77L177.3,141.18L180.41,141.48L183.52,137.82L186.63,132.71L189.74,134.21L192.85,126.34L195.96,124.34L199.08,120.62L202.19,120.59L205.3,119.16L208.41,115.21L214.63,109.16L217.74,107.75L220.85,102.84L223.96,101.49L227.07,98.25L230.18,98.22L233.29,95.29L236.4,90.15L239.51,88.04L242.62,81.88L245.73,87.29L248.84,84.41L255.07,75.35L258.18,76.19L261.29,70.19L264.4,70.15L267.51,69.89L270.62,68.79L273.73,59.31L276.84,59.15L279.95,54.41L283.06,55.2L289.28,49.53L292.39,50.39L295.5,42.11L298.61,42.33L301.72,40.38L304.83,37.47L307.94,29.62L311.06,34.76L314.17,42.94L317.28,48.97L320.39,57.58L323.5,70.88L326.61,84.42L329.72,90.35L332.83,98.5L335.94,110.84L339.05,121.11L342.16,127.86L345.27,135.11L348.38,147.4L351.49,152.42L354.6,154.41L357.71,162.22L360.82,165.74L367.05,164.31L370.16,173.08L373.27,175.76L376.38,172.19L379.49,176.6L382.6,183.06L385.71,182.33L388.82,186.13L391.93,185.41L395.04,190.14L398.15,191.74L401.26,196.92L404.37,196.24L407.48,200.53L410.59,201.62L413.7,201.78L416.81,207.82L419.92,209.31L423.04,209.94L426.15,214.38L429.26,217.33L432.37,212.85L435.48,220.26L438.59,220.55L441.7,224.6L444.81,222.88L447.92,229.69L451.03,229.8L454.14,229.9L457.25,234.87L460.36,235.01L463.47,237.39L469.69,241.21L472.8,241.26L475.91,244.23L479.03,245.29L485.25,247.34L488.36,250.78L491.47,254.32L494.58,253.9L497.69,253.64L500.8,255.96L507.02,262.18L510.13,260.98L513.24,265.39L516.35,265.97L519.46,263.99L522.57,269.26L525.68,267.92L528.79,270.69L531.9,273.69L535.02,275.54L538.13,275.05L541.24,276.55L547.46,281.09L550.57,281.94L553.68,283.49L556.79,282.97L559.9,287.51L563.01,286.22L569.23,290.31L572.34,291.69L575.45,290.94L578.56,291.76L581.67,292.33L584.78,294.25L587.89,295.91L591.01,298.57L594.12,298.21L597.23,299.07L600.34,300.35L603.45,302.95L606.56,304.47L609.67,304.47L615.89,308.1L619,307.85" style="vector-effect: non-scaling-stroke; fill: none; stroke: rgb(44, 160, 44); stroke-opacity: 1; stroke-width: 2px; opacity: 1;"/></g><g class="points"/><g class="text"/></g><g class="trace scatter trace29a972" style="stroke-miterlimit: 2; opacity: 1;"><g class="fills"/><g class="errorbars"/><g class="lines"><path class="js-line" d="M0,21.95L3.11,413.25L6.22,413.25L9.33,117.42L12.44,305.6L27.99,277.05L31.11,272.41L37.33,262.08L40.44,257.74L43.55,256.37L46.66,253.16L55.99,239.36L59.1,237.34L62.21,233.55L65.32,231.56L68.43,229.1L71.54,224.45L74.65,224.21L77.76,220.73L80.87,218.19L83.98,214.38L87.1,211.09L90.21,210.1L93.32,206.23L96.43,204.6L102.65,198.33L105.76,194.92L111.98,192.24L115.09,189.58L118.2,185.27L121.31,184.51L124.42,179.45L127.53,179L130.64,177.82L133.75,172.94L136.86,172.11L139.97,169.73L146.2,161.83L149.31,161.1L152.42,158.81L155.53,158.69L158.64,155.04L161.75,152.64L167.97,144.1L171.08,145.6L174.19,141.77L177.3,141.18L180.41,141.48L183.52,137.82L186.63,132.71L189.74,134.21L192.85,126.34L195.96,124.34L199.08,120.62L202.19,120.59L205.3,119.16L208.41,115.21L214.63,109.16L217.74,107.75L220.85,102.84L223.96,101.49L227.07,98.25L230.18,98.22L233.29,95.29L236.4,90.15L239.51,88.04L242.62,81.88L245.73,87.29L248.84,84.41L255.07,75.35L258.18,76.19L261.29,70.19L264.4,70.15L267.51,69.89L270.62,68.79L273.73,59.31L276.84,59.15L279.95,54.41L283.06,55.2L289.28,49.53L292.39,50.39L295.5,42.11L298.61,42.33L301.72,40.38L304.83,37.47L307.94,29.62L311.06,32.46L314.17,37.39L317.28,47.81L326.61,77.95L329.72,86.37L335.94,105.48L339.05,112.53L342.16,119.23L345.27,131.21L348.38,139.83L351.49,145L354.6,151.45L357.71,152.02L360.82,161.24L363.93,161.23L367.05,162.16L370.16,161.96L373.27,171.11L376.38,167.16L379.49,174.06L382.6,176.95L385.71,178.89L388.82,178.51L395.04,184.68L398.15,185.41L401.26,186.87L404.37,187.46L407.48,192.77L410.59,194.23L413.7,195.48L416.81,199.59L419.92,203.16L423.04,202.35L426.15,206.04L429.26,208.36L432.37,210.01L435.48,213.62L438.59,211.76L441.7,215.77L444.81,218.14L447.92,222.51L451.03,218.92L454.14,225.42L457.25,224.53L460.36,227.25L463.47,228.76L466.58,233.17L469.69,232.79L472.8,237.57L475.91,235.97L479.03,236.27L482.14,239.55L485.25,240.04L488.36,242.29L491.47,243.15L494.58,245.07L497.69,248.47L500.8,250.57L503.91,248.94L510.13,254.82L513.24,253.7L516.35,258.79L519.46,257.58L522.57,264.44L525.68,258.91L528.79,263.8L531.9,263.75L535.02,265.43L538.13,265.13L541.24,267.07L544.35,271.11L547.46,269.21L550.57,271.96L556.79,275.59L559.9,276.49L566.12,279.23L569.23,281.28L572.34,283.49L575.45,284.2L584.78,287.06L587.89,289.93L591.01,290.32L594.12,293.89L597.23,290.62L600.34,294L603.45,298.16L606.56,296.92L609.67,296.98L612.78,299.92L619,302.37" style="vector-effect: non-scaling-stroke; fill: none; stroke: rgb(214, 39, 40); stroke-opacity: 1; stroke-width: 2px; opacity: 1;"/></g><g class="points"/><g class="text"/></g><g class="trace scatter trace58dba6" style="stroke-miterlimit: 2; opacity: 1;"><g class="fills"/><g class="errorbars"/><g class="lines"><path class="js-line" d="M0,21.75L3.11,413.25L6.22,413.25L9.33,117.42L12.44,305.6L27.99,277.05L31.11,272.41L37.33,262.08L40.44,257.74L43.55,256.37L46.66,253.16L55.99,239.36L59.1,237.34L62.21,233.55L65.32,231.56L68.43,229.1L71.54,224.45L74.65,224.21L77.76,220.73L80.87,218.19L83.98,214.38L87.1,211.09L90.21,210.1L93.32,206.23L96.43,204.6L102.65,198.33L105.76,194.92L111.98,192.24L115.09,189.58L118.2,185.27L121.31,184.51L124.42,179.45L127.53,179L130.64,177.82L133.75,172.94L136.86,172.11L139.97,169.73L146.2,161.83L149.31,161.1L152.42,158.81L155.53,158.69L158.64,155.04L161.75,152.64L167.97,144.1L171.08,145.6L174.19,141.77L177.3,141.18L180.41,141.48L183.52,137.82L186.63,132.71L189.74,134.21L192.85,126.34L195.96,124.34L199.08,120.62L202.19,120.59L205.3,119.16L208.41,115.21L214.63,109.16L217.74,107.75L220.85,102.84L223.96,101.49L227.07,98.25L230.18,98.22L233.29,95.29L236.4,90.15L239.51,88.04L242.62,81.88L245.73,87.29L248.84,84.41L255.07,75.35L258.18,76.19L261.29,70.19L264.4,70.15L267.51,69.89L270.62,68.79L273.73,59.31L276.84,59.15L279.95,54.41L283.06,55.2L289.28,49.53L292.39,50.39L295.5,42.11L298.61,42.33L301.72,40.38L304.83,37.47L307.94,29.62L311.06,32.89L314.17,33.29L317.28,38.29L323.5,60.76L326.61,65.94L329.72,78.24L332.83,84.9L335.94,96.92L339.05,102.17L345.27,116.51L348.38,127.21L351.49,135.01L354.6,139.58L360.82,148.54L363.93,148.18L367.05,156.63L370.16,149.93L373.27,155.64L376.38,158.52L382.6,162.7L385.71,164.35L388.82,162.47L391.93,171.4L395.04,174.86L398.15,172.54L401.26,174.16L404.37,177.89L407.48,181.42L410.59,179.1L413.7,185.57L416.81,187.42L419.92,187.98L423.04,191.48L426.15,191.9L429.26,194.65L432.37,197.01L435.48,193.79L438.59,200.16L441.7,202.38L451.03,207.55L454.14,208.36L457.25,211.79L460.36,212.87L466.58,217.45L469.69,218.96L472.8,222.61L475.91,221.57L479.03,223.04L482.14,226.35L485.25,225.49L488.36,230.6L491.47,229.23L494.58,229.63L500.8,229.6L503.91,235.83L507.02,235.23L510.13,238.43L516.35,242.62L519.46,242.28L525.68,246.44L528.79,245.98L531.9,249.6L535.02,251.69L538.13,250.48L541.24,255.09L544.35,254.69L547.46,253.27L550.57,258L553.68,258.6L556.79,262.13L559.9,261.87L563.01,262.57L566.12,264.15L572.34,269.26L575.45,269.02L578.56,269.35L581.67,271.91L584.78,273.25L587.89,275.41L591.01,273.09L594.12,277.15L597.23,277.24L600.34,282.62L603.45,281.36L606.56,281.8L609.67,284.39L612.78,286L615.89,285.6L619,287.43" style="vector-effect: non-scaling-stroke; fill: none; stroke: rgb(148, 103, 189); stroke-opacity: 1; stroke-width: 2px; opacity: 1;"/></g><g class="points"/><g class="text"/></g><g class="trace scatter trace9b59ea" style="stroke-miterlimit: 2; opacity: 1;"><g class="fills"/><g class="errorbars"/><g class="lines"><path class="js-line" d="M0,21.95L3.11,413.25L6.22,413.25L9.33,117.42L12.44,305.6L27.99,277.05L31.11,272.41L37.33,262.08L40.44,257.74L43.55,256.37L46.66,253.16L55.99,239.36L59.1,237.34L62.21,233.55L65.32,231.56L68.43,229.1L71.54,224.45L74.65,224.21L77.76,220.73L80.87,218.19L83.98,214.38L87.1,211.09L90.21,210.1L93.32,206.23L96.43,204.6L102.65,198.33L105.76,194.92L111.98,192.24L115.09,189.58L118.2,185.27L121.31,184.51L124.42,179.45L127.53,179L130.64,177.82L133.75,172.94L136.86,172.11L139.97,169.73L146.2,161.83L149.31,161.1L152.42,158.81L155.53,158.69L158.64,155.04L161.75,152.64L167.97,144.1L171.08,145.6L174.19,141.77L177.3,141.18L180.41,141.48L183.52,137.82L186.63,132.71L189.74,134.21L192.85,126.34L195.96,124.34L199.08,120.62L202.19,120.59L205.3,119.16L208.41,115.21L214.63,109.16L217.74,107.75L220.85,102.84L223.96,101.49L227.07,98.25L230.18,98.22L233.29,95.29L236.4,90.15L239.51,88.04L242.62,81.88L245.73,87.29L248.84,84.41L255.07,75.35L258.18,76.19L261.29,70.19L264.4,70.15L267.51,69.89L270.62,68.79L273.73,59.31L276.84,59.15L279.95,54.41L283.06,55.2L289.28,49.53L292.39,50.39L295.5,42.11L298.61,42.33L301.72,40.38L304.83,37.47L307.94,29.62L311.06,31.63L314.17,32.79L317.28,34.89L329.72,70.55L332.83,72.26L339.05,95.99L342.16,98.67L348.38,110.45L351.49,122.17L354.6,130.68L357.71,130.63L360.82,135.75L363.93,137.48L370.16,140.26L373.27,146.95L379.49,144.47L382.6,147.7L385.71,148.43L388.82,154.53L391.93,151.94L395.04,155.66L401.26,161.88L404.37,163.26L407.48,164.15L410.59,166.41L413.7,165.34L416.81,171.83L419.92,173.89L423.04,173.09L426.15,177.03L429.26,178.53L432.37,181.3L435.48,181.66L438.59,185.21L441.7,182.55L447.92,186.58L451.03,191.17L454.14,193.43L457.25,192.4L463.47,196.93L466.58,199.93L469.69,199.94L472.8,205.51L475.91,206.09L479.03,208.19L482.14,206.85L485.25,209.94L488.36,210.07L491.47,212.55L494.58,216.72L497.69,218.54L500.8,216.95L503.91,219.23L507.02,218.7L510.13,222.62L513.24,221.05L516.35,224.99L522.57,225.89L525.68,228.67L531.9,230.07L535.02,231.42L541.24,239.62L544.35,239.28L547.46,239.23L550.57,241.31L553.68,244.92L556.79,244.36L559.9,245.72L563.01,245.88L566.12,249.29L569.23,251.22L572.34,250.7L575.45,254.44L578.56,252.17L581.67,256.59L587.89,257.71L591.01,258.71L597.23,262.89L600.34,263.21L609.67,268.49L612.78,268.53L615.89,270.05L619,268.46" style="vector-effect: non-scaling-stroke; fill: none; stroke: rgb(140, 86, 75); stroke-opacity: 1; stroke-width: 2px; opacity: 1;"/></g><g class="points"/><g class="text"/></g></g></g><g class="overplot"/><path class="xlines-above crisp" style="fill: none;" d="M0,0"/><path class="ylines-above crisp" style="fill: none;" d="M0,0"/><g class="overlines-above"/><g class="xaxislayer-above"><g class="xtick"><text text-anchor="middle" x="0" y="473" transform="translate(212.42,0)" style="font-family: 'Open Sans', verdana, arial, sans-serif; font-size: 12px; fill: rgb(68, 68, 68); fill-opacity: 1; white-space: pre;">50</text></g><g class="xtick"><text text-anchor="middle" x="0" y="473" transform="translate(367.94,0)" style="font-family: 'Open Sans', verdana, arial, sans-serif; font-size: 12px; fill: rgb(68, 68, 68); fill-opacity: 1; white-space: pre;">100</text></g><g class="xtick"><text text-anchor="middle" x="0" y="473" transform="translate(523.47,0)" style="font-family: 'Open Sans', verdana, arial, sans-serif; font-size: 12px; fill: rgb(68, 68, 68); fill-opacity: 1; white-space: pre;">150</text></g><g class="xtick"><text text-anchor="middle" x="0" y="473" transform="translate(679,0)" style="font-family: 'Open Sans', verdana, arial, sans-serif; font-size: 12px; fill: rgb(68, 68, 68); fill-opacity: 1; white-space: pre;">200</text></g></g><g class="yaxislayer-above"><g class="ytick"><text text-anchor="end" x="59" y="4.199999999999999" transform="translate(0,438.25)" style="font-family: 'Open Sans', verdana, arial, sans-serif; font-size: 12px; fill: rgb(68, 68, 68); fill-opacity: 1; white-space: pre;">0</text></g><g class="ytick"><text text-anchor="end" x="59" y="4.199999999999999" transform="translate(0,386.11)" style="font-family: 'Open Sans', verdana, arial, sans-serif; font-size: 12px; fill: rgb(68, 68, 68); fill-opacity: 1; white-space: pre;">20</text></g><g class="ytick"><text text-anchor="end" x="59" y="4.199999999999999" transform="translate(0,333.98)" style="font-family: 'Open Sans', verdana, arial, sans-serif; font-size: 12px; fill: rgb(68, 68, 68); fill-opacity: 1; white-space: pre;">40</text></g><g class="ytick"><text text-anchor="end" x="59" y="4.199999999999999" transform="translate(0,281.84)" style="font-family: 'Open Sans', verdana, arial, sans-serif; font-size: 12px; fill: rgb(68, 68, 68); fill-opacity: 1; white-space: pre;">60</text></g><g class="ytick"><text text-anchor="end" x="59" y="4.199999999999999" transform="translate(0,229.7)" style="font-family: 'Open Sans', verdana, arial, sans-serif; font-size: 12px; fill: rgb(68, 68, 68); fill-opacity: 1; white-space: pre;">80</text></g><g class="ytick"><text text-anchor="end" x="59" y="4.199999999999999" transform="translate(0,177.56)" style="font-family: 'Open Sans', verdana, arial, sans-serif; font-size: 12px; fill: rgb(68, 68, 68); fill-opacity: 1; white-space: pre;">100</text></g><g class="ytick"><text text-anchor="end" x="59" y="4.199999999999999" transform="translate(0,125.43)" style="font-family: 'Open Sans', verdana, arial, sans-serif; font-size: 12px; fill: rgb(68, 68, 68); fill-opacity: 1; white-space: pre;">120</text></g><g class="ytick"><text text-anchor="end" x="59" y="4.199999999999999" transform="translate(0,73.28999999999999)" style="font-family: 'Open Sans', verdana, arial, sans-serif; font-size: 12px; fill: rgb(68, 68, 68); fill-opacity: 1; white-space: pre;">140</text></g></g><g class="overaxes-above"/></g></g><g class="polarlayer"/><g class="ternarylayer"/><g class="geolayer"/><g class="funnelarealayer"/><g class="pielayer"/><g class="treemaplayer"/><g class="sunburstlayer"/><g class="glimages"/><defs id="topdefs-f5c5bb"><g class="clips"/><clipPath id="legendf5c5bb"><rect width="117" height="140" x="0" y="0"/></clipPath></defs><g class="layer-above"><g class="imagelayer"/><g class="shapelayer"/></g><g class="infolayer"><g class="legend" pointer-events="all" transform="translate(90.95, 46.750000000000014)"><rect class="bg" shape-rendering="crispEdges" style="stroke: rgb(68, 68, 68); stroke-opacity: 1; fill: rgb(226, 226, 226); fill-opacity: 1; stroke-width: 0px;" width="117" height="140" x="0" y="0"/><g class="scrollbox" transform="translate(0, 0)" clip-path="url('#legendf5c5bb')"><text class="legendtitletext user-select-none" text-anchor="start" x="2" y="15.600000000000001" style="font-family: 'Open Sans', verdana, arial, sans-serif; font-size: 12px; fill: rgb(68, 68, 68); fill-opacity: 1; white-space: pre;"><tspan style="font-weight:bold"> Identification Time </tspan></text><g class="groups"><g class="traces" transform="translate(0, 30.1)" style="opacity: 1;"><text class="legendtext user-select-none" text-anchor="start" x="40" y="4.680000000000001" style="font-family: 'Open Sans', verdana, arial, sans-serif; font-size: 12px; fill: rgb(68, 68, 68); fill-opacity: 1; white-space: pre;">0 Months</text><g class="layers" style="opacity: 1;"><g class="legendfill"/><g class="legendlines"><path class="js-line" d="M5,0h30" style="fill: none; stroke: rgb(31, 119, 180); stroke-opacity: 1; stroke-width: 2px;"/></g><g class="legendsymbols"><g class="legendpoints"/></g></g><rect class="legendtoggle" pointer-events="all" x="0" y="-9.5" width="98.046875" height="19" style="cursor: pointer; fill: rgb(0, 0, 0); fill-opacity: 0;"/></g><g class="traces" transform="translate(0, 49.1)" style="opacity: 1;"><text class="legendtext user-select-none" text-anchor="start" x="40" y="4.680000000000001" style="font-family: 'Open Sans', verdana, arial, sans-serif; font-size: 12px; fill: rgb(68, 68, 68); fill-opacity: 1; white-space: pre;">3 Months</text><g class="layers" style="opacity: 1;"><g class="legendfill"/><g class="legendlines"><path class="js-line" d="M5,0h30" style="fill: none; stroke: rgb(255, 127, 14); stroke-opacity: 1; stroke-width: 2px;"/></g><g class="legendsymbols"><g class="legendpoints"/></g></g><rect class="legendtoggle" pointer-events="all" x="0" y="-9.5" width="98.046875" height="19" style="cursor: pointer; fill: rgb(0, 0, 0); fill-opacity: 0;"/></g><g class="traces" transform="translate(0, 68.1)" style="opacity: 1;"><text class="legendtext user-select-none" text-anchor="start" x="40" y="4.680000000000001" style="font-family: 'Open Sans', verdana, arial, sans-serif; font-size: 12px; fill: rgb(68, 68, 68); fill-opacity: 1; white-space: pre;">6 Months</text><g class="layers" style="opacity: 1;"><g class="legendfill"/><g class="legendlines"><path class="js-line" d="M5,0h30" style="fill: none; stroke: rgb(44, 160, 44); stroke-opacity: 1; stroke-width: 2px;"/></g><g class="legendsymbols"><g class="legendpoints"/></g></g><rect class="legendtoggle" pointer-events="all" x="0" y="-9.5" width="98.046875" height="19" style="cursor: pointer; fill: rgb(0, 0, 0); fill-opacity: 0;"/></g><g class="traces" transform="translate(0, 87.1)" style="opacity: 1;"><text class="legendtext user-select-none" text-anchor="start" x="40" y="4.680000000000001" style="font-family: 'Open Sans', verdana, arial, sans-serif; font-size: 12px; fill: rgb(68, 68, 68); fill-opacity: 1; white-space: pre;">12 Months</text><g class="layers" style="opacity: 1;"><g class="legendfill"/><g class="legendlines"><path class="js-line" d="M5,0h30" style="fill: none; stroke: rgb(214, 39, 40); stroke-opacity: 1; stroke-width: 2px;"/></g><g class="legendsymbols"><g class="legendpoints"/></g></g><rect class="legendtoggle" pointer-events="all" x="0" y="-9.5" width="98.046875" height="19" style="cursor: pointer; fill: rgb(0, 0, 0); fill-opacity: 0;"/></g><g class="traces" transform="translate(0, 106.1)" style="opacity: 1;"><text class="legendtext user-select-none" text-anchor="start" x="40" y="4.680000000000001" style="font-family: 'Open Sans', verdana, arial, sans-serif; font-size: 12px; fill: rgb(68, 68, 68); fill-opacity: 1; white-space: pre;">24 Months</text><g class="layers" style="opacity: 1;"><g class="legendfill"/><g class="legendlines"><path class="js-line" d="M5,0h30" style="fill: none; stroke: rgb(148, 103, 189); stroke-opacity: 1; stroke-width: 2px;"/></g><g class="legendsymbols"><g class="legendpoints"/></g></g><rect class="legendtoggle" pointer-events="all" x="0" y="-9.5" width="98.046875" height="19" style="cursor: pointer; fill: rgb(0, 0, 0); fill-opacity: 0;"/></g><g class="traces" transform="translate(0, 125.1)" style="opacity: 1;"><text class="legendtext user-select-none" text-anchor="start" x="40" y="4.680000000000001" style="font-family: 'Open Sans', verdana, arial, sans-serif; font-size: 12px; fill: rgb(68, 68, 68); fill-opacity: 1; white-space: pre;">36 Months</text><g class="layers" style="opacity: 1;"><g class="legendfill"/><g class="legendlines"><path class="js-line" d="M5,0h30" style="fill: none; stroke: rgb(140, 86, 75); stroke-opacity: 1; stroke-width: 2px;"/></g><g class="legendsymbols"><g class="legendpoints"/></g></g><rect class="legendtoggle" pointer-events="all" x="0" y="-9.5" width="98.046875" height="19" style="cursor: pointer; fill: rgb(0, 0, 0); fill-opacity: 0;"/></g></g></g><rect class="scrollbar" rx="20" ry="3" width="0" height="0" style="fill: rgb(128, 139, 164); fill-opacity: 1;" x="0" y="0"/></g><g class="g-gtitle"><text class="gtitle" x="350" y="12.5" text-anchor="middle" dy="0em" style="font-family: 'Open Sans', verdana, arial, sans-serif; font-size: 17px; fill: rgb(68, 68, 68); opacity: 1; font-weight: normal; white-space: pre;"><tspan style="font-weight:bold"> Leprosy Incidence PB - Immunity Vaccine 0.0, Treatment 25% </tspan></text></g><g class="g-xtitle" transform="translate(0,-15)"><text class="xtitle" x="369.5" y="512" text-anchor="middle" style="font-family: 'Open Sans', verdana, arial, sans-serif; font-size: 14px; fill: rgb(68, 68, 68); opacity: 1; font-weight: normal; white-space: pre;">Time(Years)</text></g><g class="g-ytitle"><text class="ytitle" transform="rotate(-90,22,242.5)" x="22" y="242.5" text-anchor="middle" style="font-family: 'Open Sans', verdana, arial, sans-serif; font-size: 14px; fill: rgb(68, 68, 68); opacity: 1; font-weight: normal; white-space: pre;">Number of new infectiuos individuals</text></g></g></svg>