<svg class="main-svg" xmlns="http://www.w3.org/2000/svg" xmlns:xlink="http://www.w3.org/1999/xlink" width="700" height="500" style="" viewBox="0 0 700 500"><rect x="0" y="0" width="700" height="500" style="fill: rgb(255, 255, 255); fill-opacity: 1;"/><defs id="defs-340a26"><g class="clips"><clipPath id="clip340a26xyplot" class="plotclip"><rect width="619" height="435"/></clipPath><clipPath class="axesclip" id="clip340a26x"><rect x="60" y="0" width="619" height="500"/></clipPath><clipPath class="axesclip" id="clip340a26y"><rect x="0" y="25" width="700" height="435"/></clipPath><clipPath class="axesclip" id="clip340a26xy"><rect x="60" y="25" width="619" height="435"/></clipPath></g><g class="gradients"/></defs><g class="bglayer"/><g class="layer-below"><g class="imagelayer"/><g class="shapelayer"/></g><g class="cartesianlayer"><g class="subplot xy"><g class="layer-subplot"><g class="shapelayer"/><g class="imagelayer"/></g><g class="gridlayer"><g class="x"><path class="xgrid crisp" transform="translate(212.42,0)" d="M0,25v435" style="stroke: rgb(238, 238, 238); stroke-opacity: 1; stroke-width: 1px;"/><path class="xgrid crisp" transform="translate(367.94,0)" d="M0,25v435" style="stroke: rgb(238, 238, 238); stroke-opacity: 1; stroke-width: 1px;"/><path class="xgrid crisp" transform="translate(523.47,0)" d="M0,25v435" style="stroke: rgb(238, 238, 238); stroke-opacity: 1; stroke-width: 1px;"/></g><g class="y"><path class="ygrid crisp" transform="translate(0,386.05)" d="M60,0h619" style="stroke: rgb(238, 238, 238); stroke-opacity: 1; stroke-width: 1px;"/><path class="ygrid crisp" transform="translate(0,333.85)" d="M60,0h619" style="stroke: rgb(238, 238, 238); stroke-opacity: 1; stroke-width: 1px;"/><path class="ygrid crisp" transform="translate(0,281.66)" d="M60,0h619" style="stroke: rgb(238, 238, 238); stroke-opacity: 1; stroke-width: 1px;"/><path class="ygrid crisp" transform="translate(0,229.46)" d="M60,0h619" style="stroke: rgb(238, 238, 238); stroke-opacity: 1; stroke-width: 1px;"/><path class="ygrid crisp" transform="translate(0,177.26)" d="M60,0h619" style="stroke: rgb(238, 238, 238); stroke-opacity: 1; stroke-width: 1px;"/><path class="ygrid crisp" transform="translate(0,125.06)" d="M60,0h619" style="stroke: rgb(238, 238, 238); stroke-opacity: 1; stroke-width: 1px;"/><path class="ygrid crisp" transform="translate(0,72.86)" d="M60,0h619" style="stroke: rgb(238, 238, 238); stroke-opacity: 1; stroke-width: 1px;"/></g></g><g class="zerolinelayer"><path class="yzl zl crisp" transform="translate(0,438.25)" d="M60,0h619" style="stroke: rgb(68, 68, 68); stroke-opacity: 1; stroke-width: 1px;"/></g><path class="xlines-below"/><path class="ylines-below"/><g class="overlines-below"/><g class="xaxislayer-below"/><g class="yaxislayer-below"/><g class="overaxes-below"/><g class="plot" transform="translate(60, 25)" clip-path="url('#clip340a26xyplot')"><g class="scatterlayer mlayer"><g class="trace scatter trace4e76a2" style="stroke-miterlimit: 2; opacity: 1;"><g class="fills"/><g class="errorbars"/><g class="lines"><path class="js-line" d="M0,21.76L3.11,413.25L6.22,413.25L9.33,117.08L12.44,305.47L27.99,276.9L31.11,272.25L37.33,261.9L40.44,257.56L43.55,256.19L46.66,252.98L55.99,239.16L59.1,237.13L62.21,233.34L65.32,231.35L68.43,228.89L71.54,224.23L74.65,223.99L77.76,220.51L80.87,217.96L83.98,214.15L87.1,210.85L90.21,209.86L93.32,205.98L96.43,204.35L102.65,198.08L105.76,194.67L111.98,191.98L115.09,189.32L118.2,185L121.31,184.24L124.42,179.18L127.53,178.72L130.64,177.55L133.75,172.66L136.86,171.83L139.97,169.44L146.2,161.54L149.31,160.81L152.42,158.51L155.53,158.39L158.64,154.74L161.75,152.34L167.97,143.79L171.08,145.29L174.19,141.45L177.3,140.87L180.41,141.17L183.52,137.5L186.63,132.38L189.74,133.88L192.85,126L195.96,124.01L199.08,120.27L202.19,120.25L205.3,118.81L208.41,114.86L214.63,108.8L217.74,107.39L220.85,102.47L223.96,101.13L227.07,97.88L230.18,97.86L233.29,94.92L236.4,89.78L239.51,87.66L242.62,81.49L245.73,86.91L248.84,84.02L255.07,74.95L258.18,75.8L261.29,69.79L264.4,69.75L267.51,69.49L270.62,68.39L273.73,58.9L276.84,58.73L279.95,54L283.06,54.78L289.28,49.1L292.39,49.96L295.5,41.68L298.61,41.9L301.72,39.94L304.83,37.03L307.94,29.18L311.06,46.94L326.61,193.13L329.72,217.6L335.94,263.01L339.05,277.39L342.16,289.8L345.27,305.97L351.49,326.71L354.6,331.98L357.71,335.04L360.82,339.74L363.93,345.34L367.05,347.09L370.16,352.63L373.27,353.52L376.38,358.76L379.49,361.42L382.6,365.66L385.71,367.29L388.82,372.09L391.93,372.48L398.15,378.09L401.26,379.27L404.37,381.11L407.48,381.67L410.59,383.43L413.7,383.82L419.92,387.05L423.04,387.62L426.15,389.58L429.26,390.5L432.37,390.52L435.48,393.38L444.81,395.71L447.92,396.69L451.03,397.93L454.14,397.96L463.47,400.24L466.58,400.36L469.69,401.45L472.8,401.53L475.91,402.71L479.03,402.48L488.36,404.28L491.47,404.9L507.02,406.86L510.13,406.52L535.02,409.36L538.13,408.72L547.46,409.58L550.57,409.95L563.01,410.14L566.12,410.25L572.34,410.68L575.45,410.73L578.56,410.51L581.67,411.15L597.23,411.25L600.34,411.24L603.45,411.72L606.56,411.44L619,411.97" style="vector-effect: non-scaling-stroke; fill: none; stroke: rgb(31, 119, 180); stroke-opacity: 1; stroke-width: 2px; opacity: 1;"/></g><g class="points"/><g class="text"/></g><g class="trace scatter tracee54e0c" style="stroke-miterlimit: 2; opacity: 1;"><g class="fills"/><g class="errorbars"/><g class="lines"><path class="js-line" d="M0,21.76L3.11,413.25L6.22,413.25L9.33,117.08L12.44,305.47L27.99,276.9L31.11,272.25L37.33,261.9L40.44,257.56L43.55,256.19L46.66,252.98L55.99,239.16L59.1,237.13L62.21,233.34L65.32,231.35L68.43,228.89L71.54,224.23L74.65,223.99L77.76,220.51L80.87,217.96L83.98,214.15L87.1,210.85L90.21,209.86L93.32,205.98L96.43,204.35L102.65,198.08L105.76,194.67L111.98,191.98L115.09,189.32L118.2,185L121.31,184.24L124.42,179.18L127.53,178.72L130.64,177.55L133.75,172.66L136.86,171.83L139.97,169.44L146.2,161.54L149.31,160.81L152.42,158.51L155.53,158.39L158.64,154.74L161.75,152.34L167.97,143.79L171.08,145.29L174.19,141.45L177.3,140.87L180.41,141.17L183.52,137.5L186.63,132.38L189.74,133.88L192.85,126L195.96,124.01L199.08,120.27L202.19,120.25L205.3,118.81L208.41,114.86L214.63,108.8L217.74,107.39L220.85,102.47L223.96,101.13L227.07,97.88L230.18,97.86L233.29,94.92L236.4,89.78L239.51,87.66L242.62,81.49L245.73,86.91L248.84,84.02L255.07,74.95L258.18,75.8L261.29,69.79L264.4,69.75L267.51,69.49L270.62,68.39L273.73,58.9L276.84,58.73L279.95,54L283.06,54.78L289.28,49.1L292.39,49.96L295.5,41.68L298.61,41.9L301.72,39.94L304.83,37.03L307.94,29.18L311.06,45.84L323.5,160.74L326.61,187.17L332.83,236.6L335.94,256.21L342.16,289.64L345.27,302.58L348.38,315.76L351.49,323.66L360.82,338.2L363.93,342.68L367.05,344.14L370.16,348.82L373.27,351.86L376.38,357.16L382.6,362.81L385.71,367.05L388.82,368.52L391.93,371.7L395.04,373.11L398.15,376.23L401.26,376.46L404.37,379.03L410.59,380.08L413.7,381.74L416.81,384.84L419.92,385.22L426.15,387.48L429.26,388.26L432.37,390.5L435.48,390.74L438.59,392.45L441.7,393.02L447.92,395.48L451.03,395.31L457.25,397.67L460.36,399.3L463.47,398.92L466.58,399.42L472.8,401.45L475.91,401.54L497.69,404.95L500.8,405.25L507.02,406.11L510.13,405.62L519.46,407.43L522.57,407.34L525.68,408.21L528.79,408.21L541.24,408.93L544.35,409.73L550.57,409.26L553.68,409.47L556.79,410.24L559.9,409.88L569.23,410.12L572.34,409.8L578.56,410.51L581.67,410.6L600.34,410.98L603.45,411.42L606.56,411.8L609.67,411.34L619,411.33" style="vector-effect: non-scaling-stroke; fill: none; stroke: rgb(255, 127, 14); stroke-opacity: 1; stroke-width: 2px; opacity: 1;"/></g><g class="points"/><g class="text"/></g><g class="trace scatter trace4de14e" style="stroke-miterlimit: 2; opacity: 1;"><g class="fills"/><g class="errorbars"/><g class="lines"><path class="js-line" d="M0,21.76L3.11,413.25L6.22,413.25L9.33,117.08L12.44,305.47L27.99,276.9L31.11,272.25L37.33,261.9L40.44,257.56L43.55,256.19L46.66,252.98L55.99,239.16L59.1,237.13L62.21,233.34L65.32,231.35L68.43,228.89L71.54,224.23L74.65,223.99L77.76,220.51L80.87,217.96L83.98,214.15L87.1,210.85L90.21,209.86L93.32,205.98L96.43,204.35L102.65,198.08L105.76,194.67L111.98,191.98L115.09,189.32L118.2,185L121.31,184.24L124.42,179.18L127.53,178.72L130.64,177.55L133.75,172.66L136.86,171.83L139.97,169.44L146.2,161.54L149.31,160.81L152.42,158.51L155.53,158.39L158.64,154.74L161.75,152.34L167.97,143.79L171.08,145.29L174.19,141.45L177.3,140.87L180.41,141.17L183.52,137.5L186.63,132.38L189.74,133.88L192.85,126L195.96,124.01L199.08,120.27L202.19,120.25L205.3,118.81L208.41,114.86L214.63,108.8L217.74,107.39L220.85,102.47L223.96,101.13L227.07,97.88L230.18,97.86L233.29,94.92L236.4,89.78L239.51,87.66L242.62,81.49L245.73,86.91L248.84,84.02L255.07,74.95L258.18,75.8L261.29,69.79L264.4,69.75L267.51,69.49L270.62,68.39L273.73,58.9L276.84,58.73L279.95,54L283.06,54.78L289.28,49.1L292.39,49.96L295.5,41.68L298.61,41.9L301.72,39.94L304.83,37.03L307.94,29.18L311.06,38.73L320.39,126.79L323.5,155.05L329.72,210.36L332.83,233.36L342.16,286.4L345.27,302.77L348.38,312.83L351.49,319.35L354.6,327.5L357.71,331.04L370.16,344.49L373.27,347.74L382.6,360.82L385.71,363.26L395.04,371.65L398.15,371.95L404.37,374.86L407.48,376.97L419.92,381.29L423.04,384.14L426.15,383.76L429.26,386.82L441.7,391.33L444.81,392.19L457.25,396.05L460.36,395.83L463.47,396.38L466.58,398.63L475.91,400.2L479.03,400.17L482.14,401.77L485.25,400.89L488.36,402.29L491.47,402.72L497.69,403.45L500.8,404.25L503.91,404.31L507.02,405.28L516.35,405.63L519.46,406.33L535.02,407.9L538.13,407.72L541.24,408.84L544.35,408.9L559.9,409.27L563.01,409.48L572.34,410.09L575.45,409.97L581.67,410.52L584.78,409.77L591.01,410.51L594.12,410.91L600.34,410.55L603.45,411.14L612.78,411.12L615.89,411.36L619,411.24" style="vector-effect: non-scaling-stroke; fill: none; stroke: rgb(44, 160, 44); stroke-opacity: 1; stroke-width: 2px; opacity: 1;"/></g><g class="points"/><g class="text"/></g><g class="trace scatter tracec1175c" style="stroke-miterlimit: 2; opacity: 1;"><g class="fills"/><g class="errorbars"/><g class="lines"><path class="js-line" d="M0,21.76L3.11,413.25L6.22,413.25L9.33,117.08L12.44,305.47L27.99,276.9L31.11,272.25L37.33,261.9L40.44,257.56L43.55,256.19L46.66,252.98L55.99,239.16L59.1,237.13L62.21,233.34L65.32,231.35L68.43,228.89L71.54,224.23L74.65,223.99L77.76,220.51L80.87,217.96L83.98,214.15L87.1,210.85L90.21,209.86L93.32,205.98L96.43,204.35L102.65,198.08L105.76,194.67L111.98,191.98L115.09,189.32L118.2,185L121.31,184.24L124.42,179.18L127.53,178.72L130.64,177.55L133.75,172.66L136.86,171.83L139.97,169.44L146.2,161.54L149.31,160.81L152.42,158.51L155.53,158.39L158.64,154.74L161.75,152.34L167.97,143.79L171.08,145.29L174.19,141.45L177.3,140.87L180.41,141.17L183.52,137.5L186.63,132.38L189.74,133.88L192.85,126L195.96,124.01L199.08,120.27L202.19,120.25L205.3,118.81L208.41,114.86L214.63,108.8L217.74,107.39L220.85,102.47L223.96,101.13L227.07,97.88L230.18,97.86L233.29,94.92L236.4,89.78L239.51,87.66L242.62,81.49L245.73,86.91L248.84,84.02L255.07,74.95L258.18,75.8L261.29,69.79L264.4,69.75L267.51,69.49L270.62,68.39L273.73,58.9L276.84,58.73L279.95,54L283.06,54.78L289.28,49.1L292.39,49.96L295.5,41.68L298.61,41.9L301.72,39.94L304.83,37.03L307.94,29.18L311.06,35.82L320.39,118.9L323.5,145.99L332.83,226.8L335.94,242.61L342.16,279.84L345.27,293.72L348.38,307.74L351.49,315.08L354.6,321.46L357.71,325.65L360.82,329.55L363.93,329.72L373.27,342.64L376.38,345.54L382.6,353.56L385.71,357.41L388.82,361.8L391.93,362.89L395.04,367.02L398.15,368.35L401.26,370.46L404.37,369.53L413.7,376.15L416.81,376.76L419.92,377.47L423.04,379.05L429.26,382.9L432.37,383.77L438.59,385.72L441.7,387.78L444.81,388.14L447.92,389.32L451.03,391.42L454.14,391.5L457.25,393.34L460.36,393.4L463.47,393.56L466.58,395.09L475.91,397.32L479.03,396.81L485.25,399.47L488.36,400.38L494.58,401.66L497.69,400.5L503.91,403.25L507.02,402.88L513.24,403.65L516.35,404.14L525.68,404.72L528.79,406.19L553.68,408.25L556.79,407.78L563.01,408.59L566.12,408.5L581.67,409.71L584.78,410.01L619,410.74" style="vector-effect: non-scaling-stroke; fill: none; stroke: rgb(214, 39, 40); stroke-opacity: 1; stroke-width: 2px; opacity: 1;"/></g><g class="points"/><g class="text"/></g><g class="trace scatter trace174309" style="stroke-miterlimit: 2; opacity: 1;"><g class="fills"/><g class="errorbars"/><g class="lines"><path class="js-line" d="M0,21.75L3.11,413.25L6.22,413.25L9.33,117.08L12.44,305.47L27.99,276.9L31.11,272.25L37.33,261.9L40.44,257.56L43.55,256.19L46.66,252.98L55.99,239.16L59.1,237.13L62.21,233.34L65.32,231.35L68.43,228.89L71.54,224.23L74.65,223.99L77.76,220.51L80.87,217.96L83.98,214.15L87.1,210.85L90.21,209.86L93.32,205.98L96.43,204.35L102.65,198.08L105.76,194.67L111.98,191.98L115.09,189.32L118.2,185L121.31,184.24L124.42,179.18L127.53,178.72L130.64,177.55L133.75,172.66L136.86,171.83L139.97,169.44L146.2,161.54L149.31,160.81L152.42,158.51L155.53,158.39L158.64,154.74L161.75,152.34L167.97,143.79L171.08,145.29L174.19,141.45L177.3,140.87L180.41,141.17L183.52,137.5L186.63,132.38L189.74,133.88L192.85,126L195.96,124.01L199.08,120.27L202.19,120.25L205.3,118.81L208.41,114.86L214.63,108.8L217.74,107.39L220.85,102.47L223.96,101.13L227.07,97.88L230.18,97.86L233.29,94.92L236.4,89.78L239.51,87.66L242.62,81.49L245.73,86.91L248.84,84.02L255.07,74.95L258.18,75.8L261.29,69.79L264.4,69.75L267.51,69.49L270.62,68.39L273.73,58.9L276.84,58.73L279.95,54L283.06,54.78L289.28,49.1L292.39,49.96L295.5,41.68L298.61,41.9L301.72,39.94L304.83,37.03L307.94,29.18L311.06,35.2L314.17,47.16L317.28,66.94L320.39,102.64L323.5,128.01L332.83,208.08L335.94,228.18L345.27,282.82L348.38,298.11L354.6,311.61L357.71,315.27L363.93,317.87L367.05,320.49L370.16,325.71L373.27,329.28L379.49,336.09L382.6,338.88L388.82,348.77L391.93,353.43L401.26,360.88L404.37,361.16L407.48,363.43L410.59,364.61L416.81,366.18L419.92,368.02L426.15,372.14L429.26,372.22L432.37,373.15L435.48,377.26L438.59,377.69L441.7,379.93L444.81,382.61L447.92,383.51L454.14,385.47L457.25,385.64L463.47,387.61L466.58,389.53L469.69,389.4L472.8,390.88L475.91,392.63L479.03,392.57L482.14,392.62L485.25,394.26L488.36,395.85L491.47,395.27L494.58,396.85L497.69,397.17L503.91,399.3L507.02,398.37L510.13,399.61L513.24,398.86L516.35,400.34L519.46,400.91L535.02,402.43L538.13,403.83L547.46,404.74L550.57,405.11L563.01,405.75L566.12,406.83L575.45,407.9L578.56,406.84L597.23,408.73L600.34,408.19L615.89,408.81L619,409.41" style="vector-effect: non-scaling-stroke; fill: none; stroke: rgb(148, 103, 189); stroke-opacity: 1; stroke-width: 2px; opacity: 1;"/></g><g class="points"/><g class="text"/></g><g class="trace scatter trace01af66" style="stroke-miterlimit: 2; opacity: 1;"><g class="fills"/><g class="errorbars"/><g class="lines"><path class="js-line" d="M0,21.75L3.11,413.25L6.22,413.25L9.33,117.08L12.44,305.47L27.99,276.9L31.11,272.25L37.33,261.9L40.44,257.56L43.55,256.19L46.66,252.98L55.99,239.16L59.1,237.13L62.21,233.34L65.32,231.35L68.43,228.89L71.54,224.23L74.65,223.99L77.76,220.51L80.87,217.96L83.98,214.15L87.1,210.85L90.21,209.86L93.32,205.98L96.43,204.35L102.65,198.08L105.76,194.67L111.98,191.98L115.09,189.32L118.2,185L121.31,184.24L124.42,179.18L127.53,178.72L130.64,177.55L133.75,172.66L136.86,171.83L139.97,169.44L146.2,161.54L149.31,160.81L152.42,158.51L155.53,158.39L158.64,154.74L161.75,152.34L167.97,143.79L171.08,145.29L174.19,141.45L177.3,140.87L180.41,141.17L183.52,137.5L186.63,132.38L189.74,133.88L192.85,126L195.96,124.01L199.08,120.27L202.19,120.25L205.3,118.81L208.41,114.86L214.63,108.8L217.74,107.39L220.85,102.47L223.96,101.13L227.07,97.88L230.18,97.86L233.29,94.92L236.4,89.78L239.51,87.66L242.62,81.49L245.73,86.91L248.84,84.02L255.07,74.95L258.18,75.8L261.29,69.79L264.4,69.75L267.51,69.49L270.62,68.39L273.73,58.9L276.84,58.73L279.95,54L283.06,54.78L289.28,49.1L292.39,49.96L295.5,41.68L298.61,41.9L301.72,39.94L304.83,37.03L307.94,29.18L311.06,30.99L314.17,39.5L317.28,56.68L323.5,108.31L326.61,138.26L339.05,232.68L342.16,249.2L348.38,284.2L351.49,293.99L357.71,305.75L360.82,305.24L363.93,309.23L367.05,308.72L370.16,313.15L373.27,314.18L376.38,315.78L379.49,322.23L382.6,325.37L385.71,330.99L388.82,336.05L391.93,339.55L401.26,348.92L404.37,351.9L416.81,357.18L419.92,357.41L423.04,362.29L426.15,362.88L435.48,365.16L438.59,368.7L444.81,373.24L447.92,372.68L457.25,377.76L460.36,377.83L463.47,381.19L466.58,381.6L469.69,381.7L472.8,383.16L475.91,383.98L479.03,385.79L485.25,387.86L488.36,387.58L494.58,391.27L497.69,391.14L500.8,391.16L503.91,392.33L507.02,393.52L510.13,393.74L513.24,394.37L516.35,395.99L519.46,395.15L522.57,396.39L525.68,396.79L528.79,398.09L531.9,397.62L535.02,398.37L538.13,399.5L541.24,399.27L544.35,400.38L547.46,400.46L550.57,401.26L553.68,400.96L556.79,402.59L559.9,402.01L575.45,403.85L578.56,403.58L584.78,405.21L587.89,405.25L600.34,406.16L603.45,406.29L606.56,407.13L609.67,406.91L619,407.17" style="vector-effect: non-scaling-stroke; fill: none; stroke: rgb(140, 86, 75); stroke-opacity: 1; stroke-width: 2px; opacity: 1;"/></g><g class="points"/><g class="text"/></g></g></g><g class="overplot"/><path class="xlines-above crisp" style="fill: none;" d="M0,0"/><path class="ylines-above crisp" style="fill: none;" d="M0,0"/><g class="overlines-above"/><g class="xaxislayer-above"><g class="xtick"><text text-anchor="middle" x="0" y="473" transform="translate(212.42,0)" style="font-family: 'Open Sans', verdana, arial, sans-serif; font-size: 12px; fill: rgb(68, 68, 68); fill-opacity: 1; white-space: pre;">50</text></g><g class="xtick"><text text-anchor="middle" x="0" y="473" transform="translate(367.94,0)" style="font-family: 'Open Sans', verdana, arial, sans-serif; font-size: 12px; fill: rgb(68, 68, 68); fill-opacity: 1; white-space: pre;">100</text></g><g class="xtick"><text text-anchor="middle" x="0" y="473" transform="translate(523.47,0)" style="font-family: 'Open Sans', verdana, arial, sans-serif; font-size: 12px; fill: rgb(68, 68, 68); fill-opacity: 1; white-space: pre;">150</text></g><g class="xtick"><text text-anchor="middle" x="0" y="473" transform="translate(679,0)" style="font-family: 'Open Sans', verdana, arial, sans-serif; font-size: 12px; fill: rgb(68, 68, 68); fill-opacity: 1; white-space: pre;">200</text></g></g><g class="yaxislayer-above"><g class="ytick"><text text-anchor="end" x="59" y="4.199999999999999" transform="translate(0,438.25)" style="font-family: 'Open Sans', verdana, arial, sans-serif; font-size: 12px; fill: rgb(68, 68, 68); fill-opacity: 1; white-space: pre;">0</text></g><g class="ytick"><text text-anchor="end" x="59" y="4.199999999999999" transform="translate(0,386.05)" style="font-family: 'Open Sans', verdana, arial, sans-serif; font-size: 12px; fill: rgb(68, 68, 68); fill-opacity: 1; white-space: pre;">20</text></g><g class="ytick"><text text-anchor="end" x="59" y="4.199999999999999" transform="translate(0,333.85)" style="font-family: 'Open Sans', verdana, arial, sans-serif; font-size: 12px; fill: rgb(68, 68, 68); fill-opacity: 1; white-space: pre;">40</text></g><g class="ytick"><text text-anchor="end" x="59" y="4.199999999999999" transform="translate(0,281.66)" style="font-family: 'Open Sans', verdana, arial, sans-serif; font-size: 12px; fill: rgb(68, 68, 68); fill-opacity: 1; white-space: pre;">60</text></g><g class="ytick"><text text-anchor="end" x="59" y="4.199999999999999" transform="translate(0,229.46)" style="font-family: 'Open Sans', verdana, arial, sans-serif; font-size: 12px; fill: rgb(68, 68, 68); fill-opacity: 1; white-space: pre;">80</text></g><g class="ytick"><text text-anchor="end" x="59" y="4.199999999999999" transform="translate(0,177.26)" style="font-family: 'Open Sans', verdana, arial, sans-serif; font-size: 12px; fill: rgb(68, 68, 68); fill-opacity: 1; white-space: pre;">100</text></g><g class="ytick"><text text-anchor="end" x="59" y="4.199999999999999" transform="translate(0,125.06)" style="font-family: 'Open Sans', verdana, arial, sans-serif; font-size: 12px; fill: rgb(68, 68, 68); fill-opacity: 1; white-space: pre;">120</text></g><g class="ytick"><text text-anchor="end" x="59" y="4.199999999999999" transform="translate(0,72.86)" style="font-family: 'Open Sans', verdana, arial, sans-serif; font-size: 12px; fill: rgb(68, 68, 68); fill-opacity: 1; white-space: pre;">140</text></g></g><g class="overaxes-above"/></g></g><g class="polarlayer"/><g class="ternarylayer"/><g class="geolayer"/><g class="funnelarealayer"/><g class="pielayer"/><g class="treemaplayer"/><g class="sunburstlayer"/><g class="glimages"/><defs id="topdefs-340a26"><g class="clips"/><clipPath id="legend340a26"><rect width="117" height="140" x="0" y="0"/></clipPath></defs><g class="layer-above"><g class="imagelayer"/><g class="shapelayer"/></g><g class="infolayer"><g class="legend" pointer-events="all" transform="translate(90.95, 46.750000000000014)"><rect class="bg" shape-rendering="crispEdges" style="stroke: rgb(68, 68, 68); stroke-opacity: 1; fill: rgb(226, 226, 226); fill-opacity: 1; stroke-width: 0px;" width="117" height="140" x="0" y="0"/><g class="scrollbox" transform="translate(0, 0)" clip-path="url('#legend340a26')"><text class="legendtitletext user-select-none" text-anchor="start" x="2" y="15.600000000000001" style="font-family: 'Open Sans', verdana, arial, sans-serif; font-size: 12px; fill: rgb(68, 68, 68); fill-opacity: 1; white-space: pre;"><tspan style="font-weight:bold"> Identification Time </tspan></text><g class="groups"><g class="traces" transform="translate(0, 30.1)" style="opacity: 1;"><text class="legendtext user-select-none" text-anchor="start" x="40" y="4.680000000000001" style="font-family: 'Open Sans', verdana, arial, sans-serif; font-size: 12px; fill: rgb(68, 68, 68); fill-opacity: 1; white-space: pre;">0 Months</text><g class="layers" style="opacity: 1;"><g class="legendfill"/><g class="legendlines"><path class="js-line" d="M5,0h30" style="fill: none; stroke: rgb(31, 119, 180); stroke-opacity: 1; stroke-width: 2px;"/></g><g class="legendsymbols"><g class="legendpoints"/></g></g><rect class="legendtoggle" pointer-events="all" x="0" y="-9.5" width="98.046875" height="19" style="cursor: pointer; fill: rgb(0, 0, 0); fill-opacity: 0;"/></g><g class="traces" transform="translate(0, 49.1)" style="opacity: 1;"><text class="legendtext user-select-none" text-anchor="start" x="40" y="4.680000000000001" style="font-family: 'Open Sans', verdana, arial, sans-serif; font-size: 12px; fill: rgb(68, 68, 68); fill-opacity: 1; white-space: pre;">3 Months</text><g class="layers" style="opacity: 1;"><g class="legendfill"/><g class="legendlines"><path class="js-line" d="M5,0h30" style="fill: none; stroke: rgb(255, 127, 14); stroke-opacity: 1; stroke-width: 2px;"/></g><g class="legendsymbols"><g class="legendpoints"/></g></g><rect class="legendtoggle" pointer-events="all" x="0" y="-9.5" width="98.046875" height="19" style="cursor: pointer; fill: rgb(0, 0, 0); fill-opacity: 0;"/></g><g class="traces" transform="translate(0, 68.1)" style="opacity: 1;"><text class="legendtext user-select-none" text-anchor="start" x="40" y="4.680000000000001" style="font-family: 'Open Sans', verdana, arial, sans-serif; font-size: 12px; fill: rgb(68, 68, 68); fill-opacity: 1; white-space: pre;">6 Months</text><g class="layers" style="opacity: 1;"><g class="legendfill"/><g class="legendlines"><path class="js-line" d="M5,0h30" style="fill: none; stroke: rgb(44, 160, 44); stroke-opacity: 1; stroke-width: 2px;"/></g><g class="legendsymbols"><g class="legendpoints"/></g></g><rect class="legendtoggle" pointer-events="all" x="0" y="-9.5" width="98.046875" height="19" style="cursor: pointer; fill: rgb(0, 0, 0); fill-opacity: 0;"/></g><g class="traces" transform="translate(0, 87.1)" style="opacity: 1;"><text class="legendtext user-select-none" text-anchor="start" x="40" y="4.680000000000001" style="font-family: 'Open Sans', verdana, arial, sans-serif; font-size: 12px; fill: rgb(68, 68, 68); fill-opacity: 1; white-space: pre;">12 Months</text><g class="layers" style="opacity: 1;"><g class="legendfill"/><g class="legendlines"><path class="js-line" d="M5,0h30" style="fill: none; stroke: rgb(214, 39, 40); stroke-opacity: 1; stroke-width: 2px;"/></g><g class="legendsymbols"><g class="legendpoints"/></g></g><rect class="legendtoggle" pointer-events="all" x="0" y="-9.5" width="98.046875" height="19" style="cursor: pointer; fill: rgb(0, 0, 0); fill-opacity: 0;"/></g><g class="traces" transform="translate(0, 106.1)" style="opacity: 1;"><text class="legendtext user-select-none" text-anchor="start" x="40" y="4.680000000000001" style="font-family: 'Open Sans', verdana, arial, sans-serif; font-size: 12px; fill: rgb(68, 68, 68); fill-opacity: 1; white-space: pre;">24 Months</text><g class="layers" style="opacity: 1;"><g class="legendfill"/><g class="legendlines"><path class="js-line" d="M5,0h30" style="fill: none; stroke: rgb(148, 103, 189); stroke-opacity: 1; stroke-width: 2px;"/></g><g class="legendsymbols"><g class="legendpoints"/></g></g><rect class="legendtoggle" pointer-events="all" x="0" y="-9.5" width="98.046875" height="19" style="cursor: pointer; fill: rgb(0, 0, 0); fill-opacity: 0;"/></g><g class="traces" transform="translate(0, 125.1)" style="opacity: 1;"><text class="legendtext user-select-none" text-anchor="start" x="40" y="4.680000000000001" style="font-family: 'Open Sans', verdana, arial, sans-serif; font-size: 12px; fill: rgb(68, 68, 68); fill-opacity: 1; white-space: pre;">36 Months</text><g class="layers" style="opacity: 1;"><g class="legendfill"/><g class="legendlines"><path class="js-line" d="M5,0h30" style="fill: none; stroke: rgb(140, 86, 75); stroke-opacity: 1; stroke-width: 2px;"/></g><g class="legendsymbols"><g class="legendpoints"/></g></g><rect class="legendtoggle" pointer-events="all" x="0" y="-9.5" width="98.046875" height="19" style="cursor: pointer; fill: rgb(0, 0, 0); fill-opacity: 0;"/></g></g></g><rect class="scrollbar" rx="20" ry="3" width="0" height="0" style="fill: rgb(128, 139, 164); fill-opacity: 1;" x="0" y="0"/></g><g class="g-gtitle"><text class="gtitle" x="350" y="12.5" text-anchor="middle" dy="0em" style="font-family: 'Open Sans', verdana, arial, sans-serif; font-size: 17px; fill: rgb(68, 68, 68); opacity: 1; font-weight: normal; white-space: pre;"><tspan style="font-weight:bold"> Leprosy Incidence PB - Immunity Vaccine 0.0, Treatment 75% </tspan></text></g><g class="g-xtitle" transform="translate(0,-15)"><text class="xtitle" x="369.5" y="512" text-anchor="middle" style="font-family: 'Open Sans', verdana, arial, sans-serif; font-size: 14px; fill: rgb(68, 68, 68); opacity: 1; font-weight: normal; white-space: pre;">Time(Years)</text></g><g class="g-ytitle"><text class="ytitle" transform="rotate(-90,22,242.5)" x="22" y="242.5" text-anchor="middle" style="font-family: 'Open Sans', verdana, arial, sans-serif; font-size: 14px; fill: rgb(68, 68, 68); opacity: 1; font-weight: normal; white-space: pre;">Number of new infectiuos individuals</text></g></g></svg>