<svg class="main-svg" xmlns="http://www.w3.org/2000/svg" xmlns:xlink="http://www.w3.org/1999/xlink" width="700" height="500" style="" viewBox="0 0 700 500"><rect x="0" y="0" width="700" height="500" style="fill: rgb(255, 255, 255); fill-opacity: 1;"/><defs id="defs-3aaca7"><g class="clips"><clipPath id="clip3aaca7xyplot" class="plotclip"><rect width="619" height="435"/></clipPath><clipPath class="axesclip" id="clip3aaca7x"><rect x="60" y="0" width="619" height="500"/></clipPath><clipPath class="axesclip" id="clip3aaca7y"><rect x="0" y="25" width="700" height="435"/></clipPath><clipPath class="axesclip" id="clip3aaca7xy"><rect x="60" y="25" width="619" height="435"/></clipPath></g><g class="gradients"/></defs><g class="bglayer"/><g class="layer-below"><g class="imagelayer"/><g class="shapelayer"/></g><g class="cartesianlayer"><g class="subplot xy"><g class="layer-subplot"><g class="shapelayer"/><g class="imagelayer"/></g><g class="gridlayer"><g class="x"><path class="xgrid crisp" transform="translate(212.42,0)" d="M0,25v435" style="stroke: rgb(238, 238, 238); stroke-opacity: 1; stroke-width: 1px;"/><path class="xgrid crisp" transform="translate(367.94,0)" d="M0,25v435" style="stroke: rgb(238, 238, 238); stroke-opacity: 1; stroke-width: 1px;"/><path class="xgrid crisp" transform="translate(523.47,0)" d="M0,25v435" style="stroke: rgb(238, 238, 238); stroke-opacity: 1; stroke-width: 1px;"/></g><g class="y"><path class="ygrid crisp" transform="translate(0,386.06)" d="M60,0h619" style="stroke: rgb(238, 238, 238); stroke-opacity: 1; stroke-width: 1px;"/><path class="ygrid crisp" transform="translate(0,333.86)" d="M60,0h619" style="stroke: rgb(238, 238, 238); stroke-opacity: 1; stroke-width: 1px;"/><path class="ygrid crisp" transform="translate(0,281.67)" d="M60,0h619" style="stroke: rgb(238, 238, 238); stroke-opacity: 1; stroke-width: 1px;"/><path class="ygrid crisp" transform="translate(0,229.47)" d="M60,0h619" style="stroke: rgb(238, 238, 238); stroke-opacity: 1; stroke-width: 1px;"/><path class="ygrid crisp" transform="translate(0,177.28)" d="M60,0h619" style="stroke: rgb(238, 238, 238); stroke-opacity: 1; stroke-width: 1px;"/><path class="ygrid crisp" transform="translate(0,125.08)" d="M60,0h619" style="stroke: rgb(238, 238, 238); stroke-opacity: 1; stroke-width: 1px;"/><path class="ygrid crisp" transform="translate(0,72.89)" d="M60,0h619" style="stroke: rgb(238, 238, 238); stroke-opacity: 1; stroke-width: 1px;"/></g></g><g class="zerolinelayer"><path class="yzl zl crisp" transform="translate(0,438.25)" d="M60,0h619" style="stroke: rgb(68, 68, 68); stroke-opacity: 1; stroke-width: 1px;"/></g><path class="xlines-below"/><path class="ylines-below"/><g class="overlines-below"/><g class="xaxislayer-below"/><g class="yaxislayer-below"/><g class="overaxes-below"/><g class="plot" transform="translate(60, 25)" clip-path="url('#clip3aaca7xyplot')"><g class="scatterlayer mlayer"><g class="trace scatter trace8c5b65" style="stroke-miterlimit: 2; opacity: 1;"><g class="fills"/><g class="errorbars"/><g class="lines"><path class="js-line" d="M0,21.75L3.11,413.25L6.22,413.25L9.33,117.1L12.44,305.48L27.99,276.9L31.11,272.26L37.33,261.91L40.44,257.57L43.55,256.2L46.66,252.99L55.99,239.17L59.1,237.14L62.21,233.35L65.32,231.36L68.43,228.9L71.54,224.24L74.65,224L77.76,220.52L80.87,217.98L83.98,214.17L87.1,210.86L90.21,209.87L93.32,206L96.43,204.37L102.65,198.09L105.76,194.68L111.98,192L115.09,189.33L118.2,185.02L121.31,184.26L124.42,179.2L127.53,178.74L130.64,177.56L133.75,172.67L136.86,171.85L139.97,169.46L146.2,161.55L149.31,160.82L152.42,158.53L155.53,158.41L158.64,154.76L161.75,152.35L167.97,143.81L171.08,145.31L174.19,141.47L177.3,140.88L180.41,141.18L183.52,137.52L186.63,132.4L189.74,133.9L192.85,126.02L195.96,124.03L199.08,120.29L202.19,120.27L205.3,118.83L208.41,114.88L214.63,108.82L217.74,107.41L220.85,102.5L223.96,101.15L227.07,97.9L230.18,97.88L233.29,94.94L236.4,89.8L239.51,87.69L242.62,81.51L245.73,86.93L248.84,84.04L255.07,74.98L258.18,75.82L261.29,69.81L264.4,69.77L267.51,69.51L270.62,68.41L273.73,58.93L276.84,58.76L279.95,54.02L283.06,54.8L289.28,49.13L292.39,49.99L295.5,41.7L298.61,41.92L301.72,39.97L304.83,37.06L307.94,29.2L311.06,38.56L314.17,46.07L317.28,51.59L320.39,65.5L323.5,96.55L339.05,165.83L342.16,178.43L348.38,209.17L351.49,217.55L360.82,238.66L363.93,243.53L376.38,270.18L379.49,275.94L385.71,285.27L388.82,291.49L391.93,297.9L395.04,299.69L398.15,307.05L401.26,310.09L404.37,315.85L407.48,318.11L410.59,322.35L413.7,324.6L416.81,329.57L419.92,331.96L423.04,337.65L426.15,339.07L435.48,349.82L438.59,351.13L447.92,361.03L451.03,362.56L454.14,367.37L457.25,366.93L460.36,368.74L463.47,369.39L466.58,371.1L469.69,374.31L475.91,376.74L479.03,380.34L482.14,380.42L485.25,381.75L488.36,383.88L491.47,384.4L494.58,384.61L497.69,386.29L500.8,388.17L503.91,389.07L519.46,393.46L522.57,394.94L525.68,394.49L528.79,396.42L535.02,396.81L538.13,398.28L541.24,399.12L544.35,399.13L556.79,401.43L559.9,401.71L566.12,402.39L569.23,403.67L575.45,403.72L578.56,403.57L581.67,404.26L584.78,404.1L591.01,405.72L594.12,405.29L609.67,406.99L612.78,406.78L615.89,407.72L619,407.42" style="vector-effect: non-scaling-stroke; fill: none; stroke: rgb(31, 119, 180); stroke-opacity: 1; stroke-width: 2px; opacity: 1;"/></g><g class="points"/><g class="text"/></g><g class="trace scatter trace518f3a" style="stroke-miterlimit: 2; opacity: 1;"><g class="fills"/><g class="errorbars"/><g class="lines"><path class="js-line" d="M0,21.79L3.11,413.25L6.22,413.25L9.33,117.1L12.44,305.48L27.99,276.9L31.11,272.26L37.33,261.91L40.44,257.57L43.55,256.2L46.66,252.99L55.99,239.17L59.1,237.14L62.21,233.35L65.32,231.36L68.43,228.9L71.54,224.24L74.65,224L77.76,220.52L80.87,217.98L83.98,214.17L87.1,210.86L90.21,209.87L93.32,206L96.43,204.37L102.65,198.09L105.76,194.68L111.98,192L115.09,189.33L118.2,185.02L121.31,184.26L124.42,179.2L127.53,178.74L130.64,177.56L133.75,172.67L136.86,171.85L139.97,169.46L146.2,161.55L149.31,160.82L152.42,158.53L155.53,158.41L158.64,154.76L161.75,152.35L167.97,143.81L171.08,145.31L174.19,141.47L177.3,140.88L180.41,141.18L183.52,137.52L186.63,132.4L189.74,133.9L192.85,126.02L195.96,124.03L199.08,120.29L202.19,120.27L205.3,118.83L208.41,114.88L214.63,108.82L217.74,107.41L220.85,102.5L223.96,101.15L227.07,97.9L230.18,97.88L233.29,94.94L236.4,89.8L239.51,87.69L242.62,81.51L245.73,86.93L248.84,84.04L255.07,74.98L258.18,75.82L261.29,69.81L264.4,69.77L267.51,69.51L270.62,68.41L273.73,58.93L276.84,58.76L279.95,54.02L283.06,54.8L289.28,49.13L292.39,49.99L295.5,41.7L298.61,41.92L301.72,39.97L304.83,37.06L307.94,29.2L311.06,34.71L314.17,44.26L317.28,49.09L320.39,62.25L323.5,87.8L329.72,123.86L332.83,136.08L335.94,146.95L339.05,163.54L342.16,177.79L345.27,188.06L348.38,202.02L351.49,209.99L354.6,220.14L357.71,226.85L360.82,235.87L363.93,240.28L367.05,248.38L370.16,254.23L376.38,265.42L379.49,271.54L382.6,277.43L385.71,280.24L391.93,295.19L395.04,295.37L398.15,304.32L401.26,308.46L410.59,320.47L413.7,325.07L419.92,331.21L423.04,334.46L426.15,337.12L429.26,342.03L432.37,344.25L435.48,347.69L438.59,349.08L441.7,352.33L447.92,359.69L451.03,358.59L457.25,364.72L460.36,367.87L463.47,367.92L466.58,370.92L469.69,372.89L472.8,373.87L475.91,374.93L479.03,377.9L485.25,380.86L488.36,382.15L491.47,384.39L494.58,384.63L500.8,387.35L503.91,387.73L513.24,391.11L516.35,393.4L519.46,392.63L522.57,394.38L535.02,396.63L538.13,396.72L541.24,398.78L544.35,398.44L553.68,401.17L556.79,401.69L559.9,401.47L563.01,402.34L569.23,403.02L572.34,404.09L575.45,403.69L578.56,404.06L584.78,404.4L587.89,405.08L600.34,406.37L603.45,405.9L606.56,407.26L609.67,406.99L612.78,406.69L615.89,407.2L619,407.27" style="vector-effect: non-scaling-stroke; fill: none; stroke: rgb(255, 127, 14); stroke-opacity: 1; stroke-width: 2px; opacity: 1;"/></g><g class="points"/><g class="text"/></g><g class="trace scatter trace242c70" style="stroke-miterlimit: 2; opacity: 1;"><g class="fills"/><g class="errorbars"/><g class="lines"><path class="js-line" d="M0,21.79L3.11,413.25L6.22,413.25L9.33,117.1L12.44,305.48L27.99,276.9L31.11,272.26L37.33,261.91L40.44,257.57L43.55,256.2L46.66,252.99L55.99,239.17L59.1,237.14L62.21,233.35L65.32,231.36L68.43,228.9L71.54,224.24L74.65,224L77.76,220.52L80.87,217.98L83.98,214.17L87.1,210.86L90.21,209.87L93.32,206L96.43,204.37L102.65,198.09L105.76,194.68L111.98,192L115.09,189.33L118.2,185.02L121.31,184.26L124.42,179.2L127.53,178.74L130.64,177.56L133.75,172.67L136.86,171.85L139.97,169.46L146.2,161.55L149.31,160.82L152.42,158.53L155.53,158.41L158.64,154.76L161.75,152.35L167.97,143.81L171.08,145.31L174.19,141.47L177.3,140.88L180.41,141.18L183.52,137.52L186.63,132.4L189.74,133.9L192.85,126.02L195.96,124.03L199.08,120.29L202.19,120.27L205.3,118.83L208.41,114.88L214.63,108.82L217.74,107.41L220.85,102.5L223.96,101.15L227.07,97.9L230.18,97.88L233.29,94.94L236.4,89.8L239.51,87.69L242.62,81.51L245.73,86.93L248.84,84.04L255.07,74.98L258.18,75.82L261.29,69.81L264.4,69.77L267.51,69.51L270.62,68.41L273.73,58.93L276.84,58.76L279.95,54.02L283.06,54.8L289.28,49.13L292.39,49.99L295.5,41.7L298.61,41.92L301.72,39.97L304.83,37.06L307.94,29.2L311.06,34.34L314.17,46.46L317.28,49.44L320.39,59.64L323.5,90.28L326.61,108.78L329.72,121.65L332.83,133.28L335.94,149.99L342.16,175.71L345.27,189.49L354.6,222.49L357.71,229.69L360.82,238.48L363.93,241.79L370.16,255.31L373.27,258.92L376.38,268.27L379.49,271.4L382.6,278.69L385.71,282.4L391.93,294.77L395.04,299.45L404.37,313.14L407.48,314.67L410.59,321.07L413.7,325.75L416.81,327.01L419.92,331.94L423.04,334.71L426.15,336.07L429.26,341.6L432.37,344.84L438.59,350.8L441.7,351.66L444.81,354.74L447.92,356.41L451.03,360.98L454.14,362.65L457.25,364.28L460.36,367.5L466.58,369.59L469.69,371.68L472.8,372.86L475.91,375.21L479.03,377.14L482.14,377.67L485.25,380.55L488.36,380.63L491.47,383.33L494.58,382.9L500.8,387L503.91,387.04L507.02,389.28L510.13,388.78L513.24,391.34L516.35,391.81L525.68,394.66L528.79,394.67L535.02,397.3L538.13,397.9L541.24,397.88L544.35,398.9L547.46,398.6L550.57,400.06L553.68,399.38L556.79,400.64L563.01,401.95L566.12,401.88L569.23,402.35L572.34,403.59L594.12,405.33L597.23,406.28L619,407.72" style="vector-effect: non-scaling-stroke; fill: none; stroke: rgb(44, 160, 44); stroke-opacity: 1; stroke-width: 2px; opacity: 1;"/></g><g class="points"/><g class="text"/></g><g class="trace scatter trace9b56e7" style="stroke-miterlimit: 2; opacity: 1;"><g class="fills"/><g class="errorbars"/><g class="lines"><path class="js-line" d="M0,21.76L3.11,413.25L6.22,413.25L9.33,117.1L12.44,305.48L27.99,276.9L31.11,272.26L37.33,261.91L40.44,257.57L43.55,256.2L46.66,252.99L55.99,239.17L59.1,237.14L62.21,233.35L65.32,231.36L68.43,228.9L71.54,224.24L74.65,224L77.76,220.52L80.87,217.98L83.98,214.17L87.1,210.86L90.21,209.87L93.32,206L96.43,204.37L102.65,198.09L105.76,194.68L111.98,192L115.09,189.33L118.2,185.02L121.31,184.26L124.42,179.2L127.53,178.74L130.64,177.56L133.75,172.67L136.86,171.85L139.97,169.46L146.2,161.55L149.31,160.82L152.42,158.53L155.53,158.41L158.64,154.76L161.75,152.35L167.97,143.81L171.08,145.31L174.19,141.47L177.3,140.88L180.41,141.18L183.52,137.52L186.63,132.4L189.74,133.9L192.85,126.02L195.96,124.03L199.08,120.29L202.19,120.27L205.3,118.83L208.41,114.88L214.63,108.82L217.74,107.41L220.85,102.5L223.96,101.15L227.07,97.9L230.18,97.88L233.29,94.94L236.4,89.8L239.51,87.69L242.62,81.51L245.73,86.93L248.84,84.04L255.07,74.98L258.18,75.82L261.29,69.81L264.4,69.77L267.51,69.51L270.62,68.41L273.73,58.93L276.84,58.76L279.95,54.02L283.06,54.8L289.28,49.13L292.39,49.99L295.5,41.7L298.61,41.92L301.72,39.97L304.83,37.06L307.94,29.2L311.06,32.05L317.28,47.82L320.39,56.86L323.5,85.9L326.61,98.38L332.83,126.65L335.94,145.6L345.27,185.46L348.38,194.71L351.49,205.91L354.6,214.04L357.71,224.57L360.82,231.57L363.93,238.98L367.05,244.27L370.16,253.06L373.27,254.73L376.38,262.93L379.49,267.17L382.6,275.01L385.71,279.49L395.04,296.33L398.15,299.79L401.26,306.16L404.37,308.9L413.7,320.24L416.81,324.28L423.04,331.08L426.15,333.72L432.37,341.05L435.48,343.9L438.59,347.88L441.7,350.07L444.81,352.27L447.92,356.11L454.14,360.19L457.25,362.49L463.47,366.69L466.58,367.12L469.69,369.35L472.8,373.29L479.03,376.49L482.14,376.74L488.36,380.85L491.47,380.93L494.58,383.73L497.69,384.87L500.8,386.33L503.91,386.42L522.57,394.04L525.68,393.57L531.9,396.43L535.02,395.2L538.13,397.34L541.24,398.17L547.46,398.1L550.57,399.33L553.68,398.82L556.79,400.28L559.9,400.07L563.01,401.27L566.12,401.65L569.23,401.26L572.34,402.99L575.45,402.2L578.56,403.89L581.67,404.04L594.12,404.16L597.23,405.8L603.45,406.09L606.56,405.94L609.67,407L612.78,406.88L615.89,406.62L619,407.48" style="vector-effect: non-scaling-stroke; fill: none; stroke: rgb(214, 39, 40); stroke-opacity: 1; stroke-width: 2px; opacity: 1;"/></g><g class="points"/><g class="text"/></g><g class="trace scatter tracea16908" style="stroke-miterlimit: 2; opacity: 1;"><g class="fills"/><g class="errorbars"/><g class="lines"><path class="js-line" d="M0,21.79L3.11,413.25L6.22,413.25L9.33,117.1L12.44,305.48L27.99,276.9L31.11,272.26L37.33,261.91L40.44,257.57L43.55,256.2L46.66,252.99L55.99,239.17L59.1,237.14L62.21,233.35L65.32,231.36L68.43,228.9L71.54,224.24L74.65,224L77.76,220.52L80.87,217.98L83.98,214.17L87.1,210.86L90.21,209.87L93.32,206L96.43,204.37L102.65,198.09L105.76,194.68L111.98,192L115.09,189.33L118.2,185.02L121.31,184.26L124.42,179.2L127.53,178.74L130.64,177.56L133.75,172.67L136.86,171.85L139.97,169.46L146.2,161.55L149.31,160.82L152.42,158.53L155.53,158.41L158.64,154.76L161.75,152.35L167.97,143.81L171.08,145.31L174.19,141.47L177.3,140.88L180.41,141.18L183.52,137.52L186.63,132.4L189.74,133.9L192.85,126.02L195.96,124.03L199.08,120.29L202.19,120.27L205.3,118.83L208.41,114.88L214.63,108.82L217.74,107.41L220.85,102.5L223.96,101.15L227.07,97.9L230.18,97.88L233.29,94.94L236.4,89.8L239.51,87.69L242.62,81.51L245.73,86.93L248.84,84.04L255.07,74.98L258.18,75.82L261.29,69.81L264.4,69.77L267.51,69.51L270.62,68.41L273.73,58.93L276.84,58.76L279.95,54.02L283.06,54.8L289.28,49.13L292.39,49.99L295.5,41.7L298.61,41.92L301.72,39.97L304.83,37.06L307.94,29.2L311.06,32.48L314.17,34.46L317.28,42.26L320.39,48.07L323.5,77.86L332.83,120.97L335.94,133L348.38,190.55L351.49,199.59L354.6,210.71L357.71,218.58L360.82,228.3L363.93,232.92L376.38,258.02L379.49,261.85L382.6,268.93L385.71,272L395.04,291.99L398.15,295.52L401.26,299.13L404.37,307.45L407.48,308.18L410.59,313.71L423.04,329.57L426.15,331.79L429.26,337.53L432.37,339.24L435.48,343.64L438.59,345.97L444.81,351.29L447.92,354.99L457.25,360.78L460.36,364.72L469.69,368.41L472.8,370.75L475.91,371.52L479.03,373.91L482.14,375.93L485.25,376.64L488.36,379.58L491.47,381.18L497.69,384.09L500.8,384.15L513.24,389.21L516.35,389.27L519.46,391.54L522.57,391.99L525.68,392.01L528.79,393.9L531.9,393.56L535.02,395.88L538.13,395.93L541.24,397.23L544.35,396.93L547.46,397.57L553.68,399.82L556.79,400.25L563.01,400.34L566.12,401.3L569.23,402.18L572.34,401.58L591.01,404.95L594.12,403.91L597.23,405.32L600.34,404.77L606.56,405.81L609.67,406.2L619,406.9" style="vector-effect: non-scaling-stroke; fill: none; stroke: rgb(148, 103, 189); stroke-opacity: 1; stroke-width: 2px; opacity: 1;"/></g><g class="points"/><g class="text"/></g><g class="trace scatter tracef2e06f" style="stroke-miterlimit: 2; opacity: 1;"><g class="fills"/><g class="errorbars"/><g class="lines"><path class="js-line" d="M0,21.78L3.11,413.25L6.22,413.25L9.33,117.1L12.44,305.48L27.99,276.9L31.11,272.26L37.33,261.91L40.44,257.57L43.55,256.2L46.66,252.99L55.99,239.17L59.1,237.14L62.21,233.35L65.32,231.36L68.43,228.9L71.54,224.24L74.65,224L77.76,220.52L80.87,217.98L83.98,214.17L87.1,210.86L90.21,209.87L93.32,206L96.43,204.37L102.65,198.09L105.76,194.68L111.98,192L115.09,189.33L118.2,185.02L121.31,184.26L124.42,179.2L127.53,178.74L130.64,177.56L133.75,172.67L136.86,171.85L139.97,169.46L146.2,161.55L149.31,160.82L152.42,158.53L155.53,158.41L158.64,154.76L161.75,152.35L167.97,143.81L171.08,145.31L174.19,141.47L177.3,140.88L180.41,141.18L183.52,137.52L186.63,132.4L189.74,133.9L192.85,126.02L195.96,124.03L199.08,120.29L202.19,120.27L205.3,118.83L208.41,114.88L214.63,108.82L217.74,107.41L220.85,102.5L223.96,101.15L227.07,97.9L230.18,97.88L233.29,94.94L236.4,89.8L239.51,87.69L242.62,81.51L245.73,86.93L248.84,84.04L255.07,74.98L258.18,75.82L261.29,69.81L264.4,69.77L267.51,69.51L270.62,68.41L273.73,58.93L276.84,58.76L279.95,54.02L283.06,54.8L289.28,49.13L292.39,49.99L295.5,41.7L298.61,41.92L301.72,39.97L304.83,37.06L307.94,29.2L311.06,31.21L314.17,34.72L317.28,35.82L320.39,40.84L323.5,70.4L332.83,112.18L335.94,128.42L342.16,153.19L345.27,168.17L354.6,202.44L357.71,208.29L360.82,220.29L363.93,224.83L376.38,250.06L379.49,257.98L382.6,263.82L385.71,266.62L388.82,273.9L391.93,278.14L395.04,286.25L398.15,288.06L404.37,300.82L407.48,303.22L410.59,309.16L413.7,311.73L419.92,319.69L423.04,325.03L432.37,334.89L435.48,336.73L438.59,341.22L441.7,343.11L444.81,345.66L447.92,349.25L451.03,353.06L454.14,353.88L457.25,358.04L460.36,360.3L469.69,364.64L472.8,368.14L475.91,369.22L479.03,371.3L485.25,375.43L488.36,376.04L494.58,378.79L497.69,381.48L500.8,381.18L503.91,383.37L510.13,384.8L513.24,387.06L525.68,390.57L528.79,392.32L535.02,394.58L538.13,393.52L547.46,396.31L550.57,398.06L556.79,398.39L559.9,400.29L569.23,399.56L572.34,401.49L581.67,403.01L584.78,402.78L587.89,402.47L591.01,403.65L606.56,405.15L609.67,405.81L615.89,406.71L619,406.07" style="vector-effect: non-scaling-stroke; fill: none; stroke: rgb(140, 86, 75); stroke-opacity: 1; stroke-width: 2px; opacity: 1;"/></g><g class="points"/><g class="text"/></g></g></g><g class="overplot"/><path class="xlines-above crisp" style="fill: none;" d="M0,0"/><path class="ylines-above crisp" style="fill: none;" d="M0,0"/><g class="overlines-above"/><g class="xaxislayer-above"><g class="xtick"><text text-anchor="middle" x="0" y="473" transform="translate(212.42,0)" style="font-family: 'Open Sans', verdana, arial, sans-serif; font-size: 12px; fill: rgb(68, 68, 68); fill-opacity: 1; white-space: pre;">50</text></g><g class="xtick"><text text-anchor="middle" x="0" y="473" transform="translate(367.94,0)" style="font-family: 'Open Sans', verdana, arial, sans-serif; font-size: 12px; fill: rgb(68, 68, 68); fill-opacity: 1; white-space: pre;">100</text></g><g class="xtick"><text text-anchor="middle" x="0" y="473" transform="translate(523.47,0)" style="font-family: 'Open Sans', verdana, arial, sans-serif; font-size: 12px; fill: rgb(68, 68, 68); fill-opacity: 1; white-space: pre;">150</text></g><g class="xtick"><text text-anchor="middle" x="0" y="473" transform="translate(679,0)" style="font-family: 'Open Sans', verdana, arial, sans-serif; font-size: 12px; fill: rgb(68, 68, 68); fill-opacity: 1; white-space: pre;">200</text></g></g><g class="yaxislayer-above"><g class="ytick"><text text-anchor="end" x="59" y="4.199999999999999" transform="translate(0,438.25)" style="font-family: 'Open Sans', verdana, arial, sans-serif; font-size: 12px; fill: rgb(68, 68, 68); fill-opacity: 1; white-space: pre;">0</text></g><g class="ytick"><text text-anchor="end" x="59" y="4.199999999999999" transform="translate(0,386.06)" style="font-family: 'Open Sans', verdana, arial, sans-serif; font-size: 12px; fill: rgb(68, 68, 68); fill-opacity: 1; white-space: pre;">20</text></g><g class="ytick"><text text-anchor="end" x="59" y="4.199999999999999" transform="translate(0,333.86)" style="font-family: 'Open Sans', verdana, arial, sans-serif; font-size: 12px; fill: rgb(68, 68, 68); fill-opacity: 1; white-space: pre;">40</text></g><g class="ytick"><text text-anchor="end" x="59" y="4.199999999999999" transform="translate(0,281.67)" style="font-family: 'Open Sans', verdana, arial, sans-serif; font-size: 12px; fill: rgb(68, 68, 68); fill-opacity: 1; white-space: pre;">60</text></g><g class="ytick"><text text-anchor="end" x="59" y="4.199999999999999" transform="translate(0,229.47)" style="font-family: 'Open Sans', verdana, arial, sans-serif; font-size: 12px; fill: rgb(68, 68, 68); fill-opacity: 1; white-space: pre;">80</text></g><g class="ytick"><text text-anchor="end" x="59" y="4.199999999999999" transform="translate(0,177.28)" style="font-family: 'Open Sans', verdana, arial, sans-serif; font-size: 12px; fill: rgb(68, 68, 68); fill-opacity: 1; white-space: pre;">100</text></g><g class="ytick"><text text-anchor="end" x="59" y="4.199999999999999" transform="translate(0,125.08)" style="font-family: 'Open Sans', verdana, arial, sans-serif; font-size: 12px; fill: rgb(68, 68, 68); fill-opacity: 1; white-space: pre;">120</text></g><g class="ytick"><text text-anchor="end" x="59" y="4.199999999999999" transform="translate(0,72.89)" style="font-family: 'Open Sans', verdana, arial, sans-serif; font-size: 12px; fill: rgb(68, 68, 68); fill-opacity: 1; white-space: pre;">140</text></g></g><g class="overaxes-above"/></g></g><g class="polarlayer"/><g class="ternarylayer"/><g class="geolayer"/><g class="funnelarealayer"/><g class="pielayer"/><g class="treemaplayer"/><g class="sunburstlayer"/><g class="glimages"/><defs id="topdefs-3aaca7"><g class="clips"/><clipPath id="legend3aaca7"><rect width="117" height="140" x="0" y="0"/></clipPath></defs><g class="layer-above"><g class="imagelayer"/><g class="shapelayer"/></g><g class="infolayer"><g class="legend" pointer-events="all" transform="translate(90.95, 46.750000000000014)"><rect class="bg" shape-rendering="crispEdges" style="stroke: rgb(68, 68, 68); stroke-opacity: 1; fill: rgb(226, 226, 226); fill-opacity: 1; stroke-width: 0px;" width="117" height="140" x="0" y="0"/><g class="scrollbox" transform="translate(0, 0)" clip-path="url('#legend3aaca7')"><text class="legendtitletext user-select-none" text-anchor="start" x="2" y="15.600000000000001" style="font-family: 'Open Sans', verdana, arial, sans-serif; font-size: 12px; fill: rgb(68, 68, 68); fill-opacity: 1; white-space: pre;"><tspan style="font-weight:bold"> Identification Time </tspan></text><g class="groups"><g class="traces" transform="translate(0, 30.1)" style="opacity: 1;"><text class="legendtext user-select-none" text-anchor="start" x="40" y="4.680000000000001" style="font-family: 'Open Sans', verdana, arial, sans-serif; font-size: 12px; fill: rgb(68, 68, 68); fill-opacity: 1; white-space: pre;">0 Months</text><g class="layers" style="opacity: 1;"><g class="legendfill"/><g class="legendlines"><path class="js-line" d="M5,0h30" style="fill: none; stroke: rgb(31, 119, 180); stroke-opacity: 1; stroke-width: 2px;"/></g><g class="legendsymbols"><g class="legendpoints"/></g></g><rect class="legendtoggle" pointer-events="all" x="0" y="-9.5" width="98.046875" height="19" style="cursor: pointer; fill: rgb(0, 0, 0); fill-opacity: 0;"/></g><g class="traces" transform="translate(0, 49.1)" style="opacity: 1;"><text class="legendtext user-select-none" text-anchor="start" x="40" y="4.680000000000001" style="font-family: 'Open Sans', verdana, arial, sans-serif; font-size: 12px; fill: rgb(68, 68, 68); fill-opacity: 1; white-space: pre;">3 Months</text><g class="layers" style="opacity: 1;"><g class="legendfill"/><g class="legendlines"><path class="js-line" d="M5,0h30" style="fill: none; stroke: rgb(255, 127, 14); stroke-opacity: 1; stroke-width: 2px;"/></g><g class="legendsymbols"><g class="legendpoints"/></g></g><rect class="legendtoggle" pointer-events="all" x="0" y="-9.5" width="98.046875" height="19" style="cursor: pointer; fill: rgb(0, 0, 0); fill-opacity: 0;"/></g><g class="traces" transform="translate(0, 68.1)" style="opacity: 1;"><text class="legendtext user-select-none" text-anchor="start" x="40" y="4.680000000000001" style="font-family: 'Open Sans', verdana, arial, sans-serif; font-size: 12px; fill: rgb(68, 68, 68); fill-opacity: 1; white-space: pre;">6 Months</text><g class="layers" style="opacity: 1;"><g class="legendfill"/><g class="legendlines"><path class="js-line" d="M5,0h30" style="fill: none; stroke: rgb(44, 160, 44); stroke-opacity: 1; stroke-width: 2px;"/></g><g class="legendsymbols"><g class="legendpoints"/></g></g><rect class="legendtoggle" pointer-events="all" x="0" y="-9.5" width="98.046875" height="19" style="cursor: pointer; fill: rgb(0, 0, 0); fill-opacity: 0;"/></g><g class="traces" transform="translate(0, 87.1)" style="opacity: 1;"><text class="legendtext user-select-none" text-anchor="start" x="40" y="4.680000000000001" style="font-family: 'Open Sans', verdana, arial, sans-serif; font-size: 12px; fill: rgb(68, 68, 68); fill-opacity: 1; white-space: pre;">12 Months</text><g class="layers" style="opacity: 1;"><g class="legendfill"/><g class="legendlines"><path class="js-line" d="M5,0h30" style="fill: none; stroke: rgb(214, 39, 40); stroke-opacity: 1; stroke-width: 2px;"/></g><g class="legendsymbols"><g class="legendpoints"/></g></g><rect class="legendtoggle" pointer-events="all" x="0" y="-9.5" width="98.046875" height="19" style="cursor: pointer; fill: rgb(0, 0, 0); fill-opacity: 0;"/></g><g class="traces" transform="translate(0, 106.1)" style="opacity: 1;"><text class="legendtext user-select-none" text-anchor="start" x="40" y="4.680000000000001" style="font-family: 'Open Sans', verdana, arial, sans-serif; font-size: 12px; fill: rgb(68, 68, 68); fill-opacity: 1; white-space: pre;">24 Months</text><g class="layers" style="opacity: 1;"><g class="legendfill"/><g class="legendlines"><path class="js-line" d="M5,0h30" style="fill: none; stroke: rgb(148, 103, 189); stroke-opacity: 1; stroke-width: 2px;"/></g><g class="legendsymbols"><g class="legendpoints"/></g></g><rect class="legendtoggle" pointer-events="all" x="0" y="-9.5" width="98.046875" height="19" style="cursor: pointer; fill: rgb(0, 0, 0); fill-opacity: 0;"/></g><g class="traces" transform="translate(0, 125.1)" style="opacity: 1;"><text class="legendtext user-select-none" text-anchor="start" x="40" y="4.680000000000001" style="font-family: 'Open Sans', verdana, arial, sans-serif; font-size: 12px; fill: rgb(68, 68, 68); fill-opacity: 1; white-space: pre;">36 Months</text><g class="layers" style="opacity: 1;"><g class="legendfill"/><g class="legendlines"><path class="js-line" d="M5,0h30" style="fill: none; stroke: rgb(140, 86, 75); stroke-opacity: 1; stroke-width: 2px;"/></g><g class="legendsymbols"><g class="legendpoints"/></g></g><rect class="legendtoggle" pointer-events="all" x="0" y="-9.5" width="98.046875" height="19" style="cursor: pointer; fill: rgb(0, 0, 0); fill-opacity: 0;"/></g></g></g><rect class="scrollbar" rx="20" ry="3" width="0" height="0" style="fill: rgb(128, 139, 164); fill-opacity: 1;" x="0" y="0"/></g><g class="g-gtitle"><text class="gtitle" x="350" y="12.5" text-anchor="middle" dy="0em" style="font-family: 'Open Sans', verdana, arial, sans-serif; font-size: 17px; fill: rgb(68, 68, 68); opacity: 1; font-weight: normal; white-space: pre;"><tspan style="font-weight:bold"> Leprosy Incidence PB - Immunity Vaccine 0.99, Treatment 25% </tspan></text></g><g class="g-xtitle" transform="translate(0,-15)"><text class="xtitle" x="369.5" y="512" text-anchor="middle" style="font-family: 'Open Sans', verdana, arial, sans-serif; font-size: 14px; fill: rgb(68, 68, 68); opacity: 1; font-weight: normal; white-space: pre;">Time(Years)</text></g><g class="g-ytitle"><text class="ytitle" transform="rotate(-90,22,242.5)" x="22" y="242.5" text-anchor="middle" style="font-family: 'Open Sans', verdana, arial, sans-serif; font-size: 14px; fill: rgb(68, 68, 68); opacity: 1; font-weight: normal; white-space: pre;">Number of new infectiuos individuals</text></g></g></svg>