<svg class="main-svg" xmlns="http://www.w3.org/2000/svg" xmlns:xlink="http://www.w3.org/1999/xlink" width="700" height="500" style="" viewBox="0 0 700 500"><rect x="0" y="0" width="700" height="500" style="fill: rgb(255, 255, 255); fill-opacity: 1;"/><defs id="defs-6b0d66"><g class="clips"><clipPath id="clip6b0d66xyplot" class="plotclip"><rect width="619" height="435"/></clipPath><clipPath class="axesclip" id="clip6b0d66x"><rect x="60" y="0" width="619" height="500"/></clipPath><clipPath class="axesclip" id="clip6b0d66y"><rect x="0" y="25" width="700" height="435"/></clipPath><clipPath class="axesclip" id="clip6b0d66xy"><rect x="60" y="25" width="619" height="435"/></clipPath></g><g class="gradients"/></defs><g class="bglayer"/><g class="layer-below"><g class="imagelayer"/><g class="shapelayer"/></g><g class="cartesianlayer"><g class="subplot xy"><g class="layer-subplot"><g class="shapelayer"/><g class="imagelayer"/></g><g class="gridlayer"><g class="x"><path class="xgrid crisp" transform="translate(212.42,0)" d="M0,25v435" style="stroke: rgb(238, 238, 238); stroke-opacity: 1; stroke-width: 1px;"/><path class="xgrid crisp" transform="translate(367.94,0)" d="M0,25v435" style="stroke: rgb(238, 238, 238); stroke-opacity: 1; stroke-width: 1px;"/><path class="xgrid crisp" transform="translate(523.47,0)" d="M0,25v435" style="stroke: rgb(238, 238, 238); stroke-opacity: 1; stroke-width: 1px;"/></g><g class="y"><path class="ygrid crisp" transform="translate(0,386.05)" d="M60,0h619" style="stroke: rgb(238, 238, 238); stroke-opacity: 1; stroke-width: 1px;"/><path class="ygrid crisp" transform="translate(0,333.86)" d="M60,0h619" style="stroke: rgb(238, 238, 238); stroke-opacity: 1; stroke-width: 1px;"/><path class="ygrid crisp" transform="translate(0,281.66)" d="M60,0h619" style="stroke: rgb(238, 238, 238); stroke-opacity: 1; stroke-width: 1px;"/><path class="ygrid crisp" transform="translate(0,229.46)" d="M60,0h619" style="stroke: rgb(238, 238, 238); stroke-opacity: 1; stroke-width: 1px;"/><path class="ygrid crisp" transform="translate(0,177.27)" d="M60,0h619" style="stroke: rgb(238, 238, 238); stroke-opacity: 1; stroke-width: 1px;"/><path class="ygrid crisp" transform="translate(0,125.07)" d="M60,0h619" style="stroke: rgb(238, 238, 238); stroke-opacity: 1; stroke-width: 1px;"/><path class="ygrid crisp" transform="translate(0,72.87)" d="M60,0h619" style="stroke: rgb(238, 238, 238); stroke-opacity: 1; stroke-width: 1px;"/></g></g><g class="zerolinelayer"><path class="yzl zl crisp" transform="translate(0,438.25)" d="M60,0h619" style="stroke: rgb(68, 68, 68); stroke-opacity: 1; stroke-width: 1px;"/></g><path class="xlines-below"/><path class="ylines-below"/><g class="overlines-below"/><g class="xaxislayer-below"/><g class="yaxislayer-below"/><g class="overaxes-below"/><g class="plot" transform="translate(60, 25)" clip-path="url('#clip6b0d66xyplot')"><g class="scatterlayer mlayer"><g class="trace scatter trace45516b" style="stroke-miterlimit: 2; opacity: 1;"><g class="fills"/><g class="errorbars"/><g class="lines"><path class="js-line" d="M0,21.78L3.11,413.25L6.22,413.25L9.33,117.09L12.44,305.48L27.99,276.9L31.11,272.25L37.33,261.91L40.44,257.56L43.55,256.19L46.66,252.98L55.99,239.16L59.1,237.14L62.21,233.34L65.32,231.36L68.43,228.89L71.54,224.23L74.65,224L77.76,220.51L80.87,217.97L83.98,214.16L87.1,210.86L90.21,209.87L93.32,205.99L96.43,204.36L102.65,198.08L105.76,194.68L111.98,191.99L115.09,189.33L118.2,185.01L121.31,184.25L124.42,179.19L127.53,178.73L130.64,177.56L133.75,172.66L136.86,171.84L139.97,169.45L146.2,161.55L149.31,160.81L152.42,158.52L155.53,158.4L158.64,154.75L161.75,152.35L167.97,143.8L171.08,145.3L174.19,141.46L177.3,140.88L180.41,141.18L183.52,137.51L186.63,132.39L189.74,133.89L192.85,126.01L195.96,124.02L199.08,120.28L202.19,120.26L205.3,118.82L208.41,114.87L214.63,108.81L217.74,107.4L220.85,102.48L223.96,101.14L227.07,97.89L230.18,97.87L233.29,94.93L236.4,89.79L239.51,87.67L242.62,81.5L245.73,86.92L248.84,84.03L255.07,74.96L258.18,75.81L261.29,69.8L264.4,69.76L267.51,69.5L270.62,68.4L273.73,58.91L276.84,58.74L279.95,54.01L283.06,54.79L289.28,49.11L292.39,49.98L295.5,41.69L298.61,41.91L301.72,39.95L304.83,37.04L307.94,29.19L311.06,53.54L317.28,126.4L320.39,159.14L323.5,202.61L326.61,233.85L329.72,261.51L332.83,281.56L339.05,321.63L342.16,334.54L348.38,357.02L351.49,362.79L354.6,370.72L357.71,375.19L363.93,382.34L367.05,386.88L370.16,389.11L373.27,392.75L379.49,396.39L382.6,398.65L391.93,403.16L395.04,403.7L407.48,406.14L410.59,406.7L416.81,407.2L419.92,408.3L429.26,408.94L432.37,409.47L441.7,410.2L444.81,410.2L451.03,410.95L454.14,410.97L469.69,411.63L472.8,412.08L488.36,411.87L491.47,412.3L538.13,412.6L541.24,412.66L553.68,412.82L556.79,412.71L569.23,412.74L572.34,412.78L606.56,413.03L609.67,412.83L619,412.96" style="vector-effect: non-scaling-stroke; fill: none; stroke: rgb(31, 119, 180); stroke-opacity: 1; stroke-width: 2px; opacity: 1;"/></g><g class="points"/><g class="text"/></g><g class="trace scatter trace7a74db" style="stroke-miterlimit: 2; opacity: 1;"><g class="fills"/><g class="errorbars"/><g class="lines"><path class="js-line" d="M0,21.78L3.11,413.25L6.22,413.25L9.33,117.09L12.44,305.48L27.99,276.9L31.11,272.25L37.33,261.91L40.44,257.56L43.55,256.19L46.66,252.98L55.99,239.16L59.1,237.14L62.21,233.34L65.32,231.36L68.43,228.89L71.54,224.23L74.65,224L77.76,220.51L80.87,217.97L83.98,214.16L87.1,210.86L90.21,209.87L93.32,205.99L96.43,204.36L102.65,198.08L105.76,194.68L111.98,191.99L115.09,189.33L118.2,185.01L121.31,184.25L124.42,179.19L127.53,178.73L130.64,177.56L133.75,172.66L136.86,171.84L139.97,169.45L146.2,161.55L149.31,160.81L152.42,158.52L155.53,158.4L158.64,154.75L161.75,152.35L167.97,143.8L171.08,145.3L174.19,141.46L177.3,140.88L180.41,141.18L183.52,137.51L186.63,132.39L189.74,133.89L192.85,126.01L195.96,124.02L199.08,120.28L202.19,120.26L205.3,118.82L208.41,114.87L214.63,108.81L217.74,107.4L220.85,102.48L223.96,101.14L227.07,97.89L230.18,97.87L233.29,94.93L236.4,89.79L239.51,87.67L242.62,81.5L245.73,86.92L248.84,84.03L255.07,74.96L258.18,75.81L261.29,69.8L264.4,69.76L267.51,69.5L270.62,68.4L273.73,58.91L276.84,58.74L279.95,54.01L283.06,54.79L289.28,49.11L292.39,49.98L295.5,41.69L298.61,41.91L301.72,39.95L304.83,37.04L307.94,29.19L311.06,48.93L326.61,231.62L329.72,259.14L339.05,319.73L342.16,332.1L348.38,354.27L351.49,361.48L354.6,367.72L357.71,371.34L367.05,384.32L370.16,386.42L379.49,395.61L382.6,397.1L388.82,400.87L391.93,400.92L398.15,403.35L401.26,403.22L413.7,405.49L416.81,406.63L419.92,406.45L423.04,407.13L435.48,409.4L438.59,409.22L447.92,409.82L451.03,410.16L454.14,409.96L457.25,410.6L466.58,410.77L469.69,411.28L497.69,412.11L500.8,412.17L522.57,412.34L525.68,412.51L575.45,412.81L578.56,412.74L619,412.83" style="vector-effect: non-scaling-stroke; fill: none; stroke: rgb(255, 127, 14); stroke-opacity: 1; stroke-width: 2px; opacity: 1;"/></g><g class="points"/><g class="text"/></g><g class="trace scatter traced7de7f" style="stroke-miterlimit: 2; opacity: 1;"><g class="fills"/><g class="errorbars"/><g class="lines"><path class="js-line" d="M0,21.78L3.11,413.25L6.22,413.25L9.33,117.09L12.44,305.48L27.99,276.9L31.11,272.25L37.33,261.91L40.44,257.56L43.55,256.19L46.66,252.98L55.99,239.16L59.1,237.14L62.21,233.34L65.32,231.36L68.43,228.89L71.54,224.23L74.65,224L77.76,220.51L80.87,217.97L83.98,214.16L87.1,210.86L90.21,209.87L93.32,205.99L96.43,204.36L102.65,198.08L105.76,194.68L111.98,191.99L115.09,189.33L118.2,185.01L121.31,184.25L124.42,179.19L127.53,178.73L130.64,177.56L133.75,172.66L136.86,171.84L139.97,169.45L146.2,161.55L149.31,160.81L152.42,158.52L155.53,158.4L158.64,154.75L161.75,152.35L167.97,143.8L171.08,145.3L174.19,141.46L177.3,140.88L180.41,141.18L183.52,137.51L186.63,132.39L189.74,133.89L192.85,126.01L195.96,124.02L199.08,120.28L202.19,120.26L205.3,118.82L208.41,114.87L214.63,108.81L217.74,107.4L220.85,102.48L223.96,101.14L227.07,97.89L230.18,97.87L233.29,94.93L236.4,89.79L239.51,87.67L242.62,81.5L245.73,86.92L248.84,84.03L255.07,74.96L258.18,75.81L261.29,69.8L264.4,69.76L267.51,69.5L270.62,68.4L273.73,58.91L276.84,58.74L279.95,54.01L283.06,54.79L289.28,49.11L292.39,49.98L295.5,41.69L298.61,41.91L301.72,39.95L304.83,37.04L307.94,29.19L311.06,43.56L323.5,194.85L326.61,224.77L332.83,276.94L335.94,300.6L345.27,343.28L348.38,351.29L354.6,364L357.71,367.53L360.82,372.92L363.93,376.37L373.27,387.46L376.38,389.19L382.6,395.16L385.71,397.36L388.82,399.18L391.93,399.72L395.04,401.22L398.15,401.44L401.26,401.11L404.37,402.11L426.15,406.82L429.26,407.34L435.48,408.72L438.59,409.09L441.7,408.51L444.81,408.94L454.14,409.47L457.25,409.61L463.47,410.16L466.58,410.76L479.03,411.38L482.14,411.14L494.58,412L497.69,411.87L500.8,411.57L503.91,412.05L581.67,412.73L584.78,412.64L597.23,412.85L600.34,412.69L612.78,412.9L615.89,412.71L619,412.82" style="vector-effect: non-scaling-stroke; fill: none; stroke: rgb(44, 160, 44); stroke-opacity: 1; stroke-width: 2px; opacity: 1;"/></g><g class="points"/><g class="text"/></g><g class="trace scatter trace15182d" style="stroke-miterlimit: 2; opacity: 1;"><g class="fills"/><g class="errorbars"/><g class="lines"><path class="js-line" d="M0,21.78L3.11,413.25L6.22,413.25L9.33,117.09L12.44,305.48L27.99,276.9L31.11,272.25L37.33,261.91L40.44,257.56L43.55,256.19L46.66,252.98L55.99,239.16L59.1,237.14L62.21,233.34L65.32,231.36L68.43,228.89L71.54,224.23L74.65,224L77.76,220.51L80.87,217.97L83.98,214.16L87.1,210.86L90.21,209.87L93.32,205.99L96.43,204.36L102.65,198.08L105.76,194.68L111.98,191.99L115.09,189.33L118.2,185.01L121.31,184.25L124.42,179.19L127.53,178.73L130.64,177.56L133.75,172.66L136.86,171.84L139.97,169.45L146.2,161.55L149.31,160.81L152.42,158.52L155.53,158.4L158.64,154.75L161.75,152.35L167.97,143.8L171.08,145.3L174.19,141.46L177.3,140.88L180.41,141.18L183.52,137.51L186.63,132.39L189.74,133.89L192.85,126.01L195.96,124.02L199.08,120.28L202.19,120.26L205.3,118.82L208.41,114.87L214.63,108.81L217.74,107.4L220.85,102.48L223.96,101.14L227.07,97.89L230.18,97.87L233.29,94.93L236.4,89.79L239.51,87.67L242.62,81.5L245.73,86.92L248.84,84.03L255.07,74.96L258.18,75.81L261.29,69.8L264.4,69.76L267.51,69.5L270.62,68.4L273.73,58.91L276.84,58.74L279.95,54.01L283.06,54.79L289.28,49.11L292.39,49.98L295.5,41.69L298.61,41.91L301.72,39.95L304.83,37.04L307.94,29.19L311.06,34.73L314.17,66.01L317.28,104.98L320.39,138.25L323.5,182.19L329.72,247.98L332.83,272.11L335.94,295.13L339.05,309.38L345.27,339.21L348.38,349.61L351.49,352.88L354.6,359.93L357.71,362.49L360.82,367.2L363.93,370.15L367.05,374.32L376.38,385.47L379.49,388.76L382.6,390.81L385.71,394.67L388.82,397.33L391.93,398.07L395.04,397.41L398.15,398.78L401.26,398.88L404.37,400.41L407.48,398.94L410.59,400.5L413.7,401.31L416.81,400.8L426.15,404.98L429.26,405.63L435.48,405.83L438.59,407.33L454.14,407.91L457.25,408.27L479.03,410.34L482.14,410.14L485.25,410.95L488.36,410.72L531.9,412.4L535.02,412.05L544.35,412.23L547.46,412.39L591.01,412.57L594.12,412.73L619,412.68" style="vector-effect: non-scaling-stroke; fill: none; stroke: rgb(214, 39, 40); stroke-opacity: 1; stroke-width: 2px; opacity: 1;"/></g><g class="points"/><g class="text"/></g><g class="trace scatter trace994165" style="stroke-miterlimit: 2; opacity: 1;"><g class="fills"/><g class="errorbars"/><g class="lines"><path class="js-line" d="M0,21.75L3.11,413.25L6.22,413.25L9.33,117.09L12.44,305.48L27.99,276.9L31.11,272.25L37.33,261.91L40.44,257.56L43.55,256.19L46.66,252.98L55.99,239.16L59.1,237.14L62.21,233.34L65.32,231.36L68.43,228.89L71.54,224.23L74.65,224L77.76,220.51L80.87,217.97L83.98,214.16L87.1,210.86L90.21,209.87L93.32,205.99L96.43,204.36L102.65,198.08L105.76,194.68L111.98,191.99L115.09,189.33L118.2,185.01L121.31,184.25L124.42,179.19L127.53,178.73L130.64,177.56L133.75,172.66L136.86,171.84L139.97,169.45L146.2,161.55L149.31,160.81L152.42,158.52L155.53,158.4L158.64,154.75L161.75,152.35L167.97,143.8L171.08,145.3L174.19,141.46L177.3,140.88L180.41,141.18L183.52,137.51L186.63,132.39L189.74,133.89L192.85,126.01L195.96,124.02L199.08,120.28L202.19,120.26L205.3,118.82L208.41,114.87L214.63,108.81L217.74,107.4L220.85,102.48L223.96,101.14L227.07,97.89L230.18,97.87L233.29,94.93L236.4,89.79L239.51,87.67L242.62,81.5L245.73,86.92L248.84,84.03L255.07,74.96L258.18,75.81L261.29,69.8L264.4,69.76L267.51,69.5L270.62,68.4L273.73,58.91L276.84,58.74L279.95,54.01L283.06,54.79L289.28,49.11L292.39,49.98L295.5,41.69L298.61,41.91L301.72,39.95L304.83,37.04L307.94,29.19L311.06,34.56L314.17,53.28L317.28,85.43L320.39,118.3L323.5,160.95L329.72,228.28L332.83,254.13L335.94,281.05L339.05,299.55L345.27,331.22L348.38,343.85L351.49,350.5L354.6,354.54L360.82,355.91L363.93,359.1L367.05,362.05L370.16,366.23L373.27,368.32L376.38,373.57L388.82,388.42L391.93,392.07L395.04,392.45L398.15,394.6L401.26,394.62L404.37,393.7L407.48,394.34L410.59,393.95L413.7,396.29L416.81,396.57L426.15,398.28L429.26,399.72L435.48,403.06L438.59,403.59L441.7,404.79L444.81,404.62L447.92,405.21L451.03,404.95L460.36,405.94L463.47,406.44L469.69,406.65L472.8,407.21L479.03,407.93L482.14,408.6L488.36,409.31L491.47,408.93L503.91,409.92L507.02,410.03L516.35,410.74L519.46,411.07L535.02,411.74L538.13,411.62L615.89,412.52L619,412.48" style="vector-effect: non-scaling-stroke; fill: none; stroke: rgb(148, 103, 189); stroke-opacity: 1; stroke-width: 2px; opacity: 1;"/></g><g class="points"/><g class="text"/></g><g class="trace scatter trace3f653a" style="stroke-miterlimit: 2; opacity: 1;"><g class="fills"/><g class="errorbars"/><g class="lines"><path class="js-line" d="M0,21.78L3.11,413.25L6.22,413.25L9.33,117.09L12.44,305.48L27.99,276.9L31.11,272.25L37.33,261.91L40.44,257.56L43.55,256.19L46.66,252.98L55.99,239.16L59.1,237.14L62.21,233.34L65.32,231.36L68.43,228.89L71.54,224.23L74.65,224L77.76,220.51L80.87,217.97L83.98,214.16L87.1,210.86L90.21,209.87L93.32,205.99L96.43,204.36L102.65,198.08L105.76,194.68L111.98,191.99L115.09,189.33L118.2,185.01L121.31,184.25L124.42,179.19L127.53,178.73L130.64,177.56L133.75,172.66L136.86,171.84L139.97,169.45L146.2,161.55L149.31,160.81L152.42,158.52L155.53,158.4L158.64,154.75L161.75,152.35L167.97,143.8L171.08,145.3L174.19,141.46L177.3,140.88L180.41,141.18L183.52,137.51L186.63,132.39L189.74,133.89L192.85,126.01L195.96,124.02L199.08,120.28L202.19,120.26L205.3,118.82L208.41,114.87L214.63,108.81L217.74,107.4L220.85,102.48L223.96,101.14L227.07,97.89L230.18,97.87L233.29,94.93L236.4,89.79L239.51,87.67L242.62,81.5L245.73,86.92L248.84,84.03L255.07,74.96L258.18,75.81L261.29,69.8L264.4,69.76L267.51,69.5L270.62,68.4L273.73,58.91L276.84,58.74L279.95,54.01L283.06,54.79L289.28,49.11L292.39,49.98L295.5,41.69L298.61,41.91L301.72,39.95L304.83,37.04L307.94,29.19L311.06,32.91L314.17,41.17L317.28,64.63L320.39,96.82L323.5,141.87L332.83,237.84L335.94,263.79L345.27,319.61L348.38,335.44L351.49,344L354.6,349.19L357.71,350.84L360.82,349.36L363.93,350.99L367.05,351.11L370.16,352.47L373.27,355.89L385.71,374.45L388.82,379.15L391.93,382.79L395.04,384.75L398.15,388.04L401.26,389.29L404.37,390.3L407.48,389.77L410.59,390.53L413.7,389.77L416.81,389.84L419.92,390.77L426.15,393.01L429.26,394.13L435.48,396.46L438.59,397.73L441.7,400.25L444.81,400.64L457.25,403.08L460.36,402.58L472.8,405.17L475.91,404.38L482.14,405.73L485.25,406.29L488.36,407.16L491.47,407.16L513.24,409.84L516.35,409.32L531.9,410.03L535.02,410.65L563.01,411.33L566.12,410.99L572.34,411.4L575.45,411.57L594.12,412.04L597.23,412.08L619,412.11" style="vector-effect: non-scaling-stroke; fill: none; stroke: rgb(140, 86, 75); stroke-opacity: 1; stroke-width: 2px; opacity: 1;"/></g><g class="points"/><g class="text"/></g></g></g><g class="overplot"/><path class="xlines-above crisp" style="fill: none;" d="M0,0"/><path class="ylines-above crisp" style="fill: none;" d="M0,0"/><g class="overlines-above"/><g class="xaxislayer-above"><g class="xtick"><text text-anchor="middle" x="0" y="473" transform="translate(212.42,0)" style="font-family: 'Open Sans', verdana, arial, sans-serif; font-size: 12px; fill: rgb(68, 68, 68); fill-opacity: 1; white-space: pre;">50</text></g><g class="xtick"><text text-anchor="middle" x="0" y="473" transform="translate(367.94,0)" style="font-family: 'Open Sans', verdana, arial, sans-serif; font-size: 12px; fill: rgb(68, 68, 68); fill-opacity: 1; white-space: pre;">100</text></g><g class="xtick"><text text-anchor="middle" x="0" y="473" transform="translate(523.47,0)" style="font-family: 'Open Sans', verdana, arial, sans-serif; font-size: 12px; fill: rgb(68, 68, 68); fill-opacity: 1; white-space: pre;">150</text></g><g class="xtick"><text text-anchor="middle" x="0" y="473" transform="translate(679,0)" style="font-family: 'Open Sans', verdana, arial, sans-serif; font-size: 12px; fill: rgb(68, 68, 68); fill-opacity: 1; white-space: pre;">200</text></g></g><g class="yaxislayer-above"><g class="ytick"><text text-anchor="end" x="59" y="4.199999999999999" transform="translate(0,438.25)" style="font-family: 'Open Sans', verdana, arial, sans-serif; font-size: 12px; fill: rgb(68, 68, 68); fill-opacity: 1; white-space: pre;">0</text></g><g class="ytick"><text text-anchor="end" x="59" y="4.199999999999999" transform="translate(0,386.05)" style="font-family: 'Open Sans', verdana, arial, sans-serif; font-size: 12px; fill: rgb(68, 68, 68); fill-opacity: 1; white-space: pre;">20</text></g><g class="ytick"><text text-anchor="end" x="59" y="4.199999999999999" transform="translate(0,333.86)" style="font-family: 'Open Sans', verdana, arial, sans-serif; font-size: 12px; fill: rgb(68, 68, 68); fill-opacity: 1; white-space: pre;">40</text></g><g class="ytick"><text text-anchor="end" x="59" y="4.199999999999999" transform="translate(0,281.66)" style="font-family: 'Open Sans', verdana, arial, sans-serif; font-size: 12px; fill: rgb(68, 68, 68); fill-opacity: 1; white-space: pre;">60</text></g><g class="ytick"><text text-anchor="end" x="59" y="4.199999999999999" transform="translate(0,229.46)" style="font-family: 'Open Sans', verdana, arial, sans-serif; font-size: 12px; fill: rgb(68, 68, 68); fill-opacity: 1; white-space: pre;">80</text></g><g class="ytick"><text text-anchor="end" x="59" y="4.199999999999999" transform="translate(0,177.27)" style="font-family: 'Open Sans', verdana, arial, sans-serif; font-size: 12px; fill: rgb(68, 68, 68); fill-opacity: 1; white-space: pre;">100</text></g><g class="ytick"><text text-anchor="end" x="59" y="4.199999999999999" transform="translate(0,125.07)" style="font-family: 'Open Sans', verdana, arial, sans-serif; font-size: 12px; fill: rgb(68, 68, 68); fill-opacity: 1; white-space: pre;">120</text></g><g class="ytick"><text text-anchor="end" x="59" y="4.199999999999999" transform="translate(0,72.87)" style="font-family: 'Open Sans', verdana, arial, sans-serif; font-size: 12px; fill: rgb(68, 68, 68); fill-opacity: 1; white-space: pre;">140</text></g></g><g class="overaxes-above"/></g></g><g class="polarlayer"/><g class="ternarylayer"/><g class="geolayer"/><g class="funnelarealayer"/><g class="pielayer"/><g class="treemaplayer"/><g class="sunburstlayer"/><g class="glimages"/><defs id="topdefs-6b0d66"><g class="clips"/><clipPath id="legend6b0d66"><rect width="117" height="140" x="0" y="0"/></clipPath></defs><g class="layer-above"><g class="imagelayer"/><g class="shapelayer"/></g><g class="infolayer"><g class="legend" pointer-events="all" transform="translate(90.95, 46.750000000000014)"><rect class="bg" shape-rendering="crispEdges" style="stroke: rgb(68, 68, 68); stroke-opacity: 1; fill: rgb(226, 226, 226); fill-opacity: 1; stroke-width: 0px;" width="117" height="140" x="0" y="0"/><g class="scrollbox" transform="translate(0, 0)" clip-path="url('#legend6b0d66')"><text class="legendtitletext user-select-none" text-anchor="start" x="2" y="15.600000000000001" style="font-family: 'Open Sans', verdana, arial, sans-serif; font-size: 12px; fill: rgb(68, 68, 68); fill-opacity: 1; white-space: pre;"><tspan style="font-weight:bold"> Identification Time </tspan></text><g class="groups"><g class="traces" transform="translate(0, 30.1)" style="opacity: 1;"><text class="legendtext user-select-none" text-anchor="start" x="40" y="4.680000000000001" style="font-family: 'Open Sans', verdana, arial, sans-serif; font-size: 12px; fill: rgb(68, 68, 68); fill-opacity: 1; white-space: pre;">0 Months</text><g class="layers" style="opacity: 1;"><g class="legendfill"/><g class="legendlines"><path class="js-line" d="M5,0h30" style="fill: none; stroke: rgb(31, 119, 180); stroke-opacity: 1; stroke-width: 2px;"/></g><g class="legendsymbols"><g class="legendpoints"/></g></g><rect class="legendtoggle" pointer-events="all" x="0" y="-9.5" width="98.046875" height="19" style="cursor: pointer; fill: rgb(0, 0, 0); fill-opacity: 0;"/></g><g class="traces" transform="translate(0, 49.1)" style="opacity: 1;"><text class="legendtext user-select-none" text-anchor="start" x="40" y="4.680000000000001" style="font-family: 'Open Sans', verdana, arial, sans-serif; font-size: 12px; fill: rgb(68, 68, 68); fill-opacity: 1; white-space: pre;">3 Months</text><g class="layers" style="opacity: 1;"><g class="legendfill"/><g class="legendlines"><path class="js-line" d="M5,0h30" style="fill: none; stroke: rgb(255, 127, 14); stroke-opacity: 1; stroke-width: 2px;"/></g><g class="legendsymbols"><g class="legendpoints"/></g></g><rect class="legendtoggle" pointer-events="all" x="0" y="-9.5" width="98.046875" height="19" style="cursor: pointer; fill: rgb(0, 0, 0); fill-opacity: 0;"/></g><g class="traces" transform="translate(0, 68.1)" style="opacity: 1;"><text class="legendtext user-select-none" text-anchor="start" x="40" y="4.680000000000001" style="font-family: 'Open Sans', verdana, arial, sans-serif; font-size: 12px; fill: rgb(68, 68, 68); fill-opacity: 1; white-space: pre;">6 Months</text><g class="layers" style="opacity: 1;"><g class="legendfill"/><g class="legendlines"><path class="js-line" d="M5,0h30" style="fill: none; stroke: rgb(44, 160, 44); stroke-opacity: 1; stroke-width: 2px;"/></g><g class="legendsymbols"><g class="legendpoints"/></g></g><rect class="legendtoggle" pointer-events="all" x="0" y="-9.5" width="98.046875" height="19" style="cursor: pointer; fill: rgb(0, 0, 0); fill-opacity: 0;"/></g><g class="traces" transform="translate(0, 87.1)" style="opacity: 1;"><text class="legendtext user-select-none" text-anchor="start" x="40" y="4.680000000000001" style="font-family: 'Open Sans', verdana, arial, sans-serif; font-size: 12px; fill: rgb(68, 68, 68); fill-opacity: 1; white-space: pre;">12 Months</text><g class="layers" style="opacity: 1;"><g class="legendfill"/><g class="legendlines"><path class="js-line" d="M5,0h30" style="fill: none; stroke: rgb(214, 39, 40); stroke-opacity: 1; stroke-width: 2px;"/></g><g class="legendsymbols"><g class="legendpoints"/></g></g><rect class="legendtoggle" pointer-events="all" x="0" y="-9.5" width="98.046875" height="19" style="cursor: pointer; fill: rgb(0, 0, 0); fill-opacity: 0;"/></g><g class="traces" transform="translate(0, 106.1)" style="opacity: 1;"><text class="legendtext user-select-none" text-anchor="start" x="40" y="4.680000000000001" style="font-family: 'Open Sans', verdana, arial, sans-serif; font-size: 12px; fill: rgb(68, 68, 68); fill-opacity: 1; white-space: pre;">24 Months</text><g class="layers" style="opacity: 1;"><g class="legendfill"/><g class="legendlines"><path class="js-line" d="M5,0h30" style="fill: none; stroke: rgb(148, 103, 189); stroke-opacity: 1; stroke-width: 2px;"/></g><g class="legendsymbols"><g class="legendpoints"/></g></g><rect class="legendtoggle" pointer-events="all" x="0" y="-9.5" width="98.046875" height="19" style="cursor: pointer; fill: rgb(0, 0, 0); fill-opacity: 0;"/></g><g class="traces" transform="translate(0, 125.1)" style="opacity: 1;"><text class="legendtext user-select-none" text-anchor="start" x="40" y="4.680000000000001" style="font-family: 'Open Sans', verdana, arial, sans-serif; font-size: 12px; fill: rgb(68, 68, 68); fill-opacity: 1; white-space: pre;">36 Months</text><g class="layers" style="opacity: 1;"><g class="legendfill"/><g class="legendlines"><path class="js-line" d="M5,0h30" style="fill: none; stroke: rgb(140, 86, 75); stroke-opacity: 1; stroke-width: 2px;"/></g><g class="legendsymbols"><g class="legendpoints"/></g></g><rect class="legendtoggle" pointer-events="all" x="0" y="-9.5" width="98.046875" height="19" style="cursor: pointer; fill: rgb(0, 0, 0); fill-opacity: 0;"/></g></g></g><rect class="scrollbar" rx="20" ry="3" width="0" height="0" style="fill: rgb(128, 139, 164); fill-opacity: 1;" x="0" y="0"/></g><g class="g-gtitle"><text class="gtitle" x="350" y="12.5" text-anchor="middle" dy="0em" style="font-family: 'Open Sans', verdana, arial, sans-serif; font-size: 17px; fill: rgb(68, 68, 68); opacity: 1; font-weight: normal; white-space: pre;"><tspan style="font-weight:bold"> Leprosy Incidence PB - Immunity Vaccine 0.5, Treatment 95% </tspan></text></g><g class="g-xtitle" transform="translate(0,-15)"><text class="xtitle" x="369.5" y="512" text-anchor="middle" style="font-family: 'Open Sans', verdana, arial, sans-serif; font-size: 14px; fill: rgb(68, 68, 68); opacity: 1; font-weight: normal; white-space: pre;">Time(Years)</text></g><g class="g-ytitle"><text class="ytitle" transform="rotate(-90,22,242.5)" x="22" y="242.5" text-anchor="middle" style="font-family: 'Open Sans', verdana, arial, sans-serif; font-size: 14px; fill: rgb(68, 68, 68); opacity: 1; font-weight: normal; white-space: pre;">Number of new infectiuos individuals</text></g></g></svg>