<svg class="main-svg" xmlns="http://www.w3.org/2000/svg" xmlns:xlink="http://www.w3.org/1999/xlink" width="700" height="500" style="" viewBox="0 0 700 500"><rect x="0" y="0" width="700" height="500" style="fill: rgb(255, 255, 255); fill-opacity: 1;"/><defs id="defs-6170be"><g class="clips"><clipPath id="clip6170bexyplot" class="plotclip"><rect width="619" height="435"/></clipPath><clipPath class="axesclip" id="clip6170bex"><rect x="60" y="0" width="619" height="500"/></clipPath><clipPath class="axesclip" id="clip6170bey"><rect x="0" y="25" width="700" height="435"/></clipPath><clipPath class="axesclip" id="clip6170bexy"><rect x="60" y="25" width="619" height="435"/></clipPath></g><g class="gradients"/></defs><g class="bglayer"/><g class="layer-below"><g class="imagelayer"/><g class="shapelayer"/></g><g class="cartesianlayer"><g class="subplot xy"><g class="layer-subplot"><g class="shapelayer"/><g class="imagelayer"/></g><g class="gridlayer"><g class="x"><path class="xgrid crisp" transform="translate(212.42,0)" d="M0,25v435" style="stroke: rgb(238, 238, 238); stroke-opacity: 1; stroke-width: 1px;"/><path class="xgrid crisp" transform="translate(367.94,0)" d="M0,25v435" style="stroke: rgb(238, 238, 238); stroke-opacity: 1; stroke-width: 1px;"/><path class="xgrid crisp" transform="translate(523.47,0)" d="M0,25v435" style="stroke: rgb(238, 238, 238); stroke-opacity: 1; stroke-width: 1px;"/></g><g class="y"><path class="ygrid crisp" transform="translate(0,386.05)" d="M60,0h619" style="stroke: rgb(238, 238, 238); stroke-opacity: 1; stroke-width: 1px;"/><path class="ygrid crisp" transform="translate(0,333.86)" d="M60,0h619" style="stroke: rgb(238, 238, 238); stroke-opacity: 1; stroke-width: 1px;"/><path class="ygrid crisp" transform="translate(0,281.66)" d="M60,0h619" style="stroke: rgb(238, 238, 238); stroke-opacity: 1; stroke-width: 1px;"/><path class="ygrid crisp" transform="translate(0,229.46)" d="M60,0h619" style="stroke: rgb(238, 238, 238); stroke-opacity: 1; stroke-width: 1px;"/><path class="ygrid crisp" transform="translate(0,177.27)" d="M60,0h619" style="stroke: rgb(238, 238, 238); stroke-opacity: 1; stroke-width: 1px;"/><path class="ygrid crisp" transform="translate(0,125.07)" d="M60,0h619" style="stroke: rgb(238, 238, 238); stroke-opacity: 1; stroke-width: 1px;"/><path class="ygrid crisp" transform="translate(0,72.87)" d="M60,0h619" style="stroke: rgb(238, 238, 238); stroke-opacity: 1; stroke-width: 1px;"/></g></g><g class="zerolinelayer"><path class="yzl zl crisp" transform="translate(0,438.25)" d="M60,0h619" style="stroke: rgb(68, 68, 68); stroke-opacity: 1; stroke-width: 1px;"/></g><path class="xlines-below"/><path class="ylines-below"/><g class="overlines-below"/><g class="xaxislayer-below"/><g class="yaxislayer-below"/><g class="overaxes-below"/><g class="plot" transform="translate(60, 25)" clip-path="url('#clip6170bexyplot')"><g class="scatterlayer mlayer"><g class="trace scatter tracebf155d" style="stroke-miterlimit: 2; opacity: 1;"><g class="fills"/><g class="errorbars"/><g class="lines"><path class="js-line" d="M0,21.78L3.11,413.25L6.22,413.25L9.33,117.09L12.44,305.48L27.99,276.9L31.11,272.25L37.33,261.91L40.44,257.56L43.55,256.19L46.66,252.98L55.99,239.16L59.1,237.14L62.21,233.34L65.32,231.36L68.43,228.89L71.54,224.23L74.65,224L77.76,220.51L80.87,217.97L83.98,214.16L87.1,210.86L90.21,209.87L93.32,205.99L96.43,204.36L102.65,198.08L105.76,194.68L111.98,191.99L115.09,189.33L118.2,185.01L121.31,184.25L124.42,179.19L127.53,178.73L130.64,177.56L133.75,172.66L136.86,171.84L139.97,169.45L146.2,161.55L149.31,160.81L152.42,158.52L155.53,158.4L158.64,154.75L161.75,152.35L167.97,143.8L171.08,145.3L174.19,141.46L177.3,140.88L180.41,141.18L183.52,137.51L186.63,132.39L189.74,133.89L192.85,126.01L195.96,124.02L199.08,120.28L202.19,120.26L205.3,118.82L208.41,114.87L214.63,108.81L217.74,107.4L220.85,102.48L223.96,101.14L227.07,97.89L230.18,97.87L233.29,94.93L236.4,89.79L239.51,87.67L242.62,81.5L245.73,86.92L248.84,84.03L255.07,74.96L258.18,75.81L261.29,69.8L264.4,69.76L267.51,69.5L270.62,68.4L273.73,58.91L276.84,58.74L279.95,54.01L283.06,54.79L289.28,49.11L292.39,49.98L295.5,41.69L298.61,41.91L301.72,39.95L304.83,37.04L307.94,29.19L311.06,42.07L317.28,76.56L320.39,100.98L323.5,140.73L326.61,163.25L332.83,202.62L335.94,220.72L342.16,251.52L345.27,267.05L348.38,283.32L351.49,291.49L354.6,295.72L357.71,303.69L363.93,313.08L367.05,314.89L370.16,319.57L373.27,326.02L385.71,343.41L388.82,348.63L391.93,350.94L395.04,354.45L401.26,358.53L404.37,363.72L407.48,365.11L410.59,368.97L419.92,373.31L423.04,375.6L426.15,378.11L429.26,379.45L432.37,382.7L435.48,383.98L438.59,384.8L441.7,386.83L444.81,388.33L447.92,388.18L454.14,391.34L457.25,392.08L466.58,395.37L469.69,396.1L485.25,400.7L488.36,401.4L491.47,401.08L494.58,402.25L528.79,407.91L531.9,407.44L544.35,408.2L547.46,408.4L550.57,409.41L553.68,408.85L566.12,410.03L569.23,409.97L587.89,410.65L591.01,410.95L619,411.29" style="vector-effect: non-scaling-stroke; fill: none; stroke: rgb(31, 119, 180); stroke-opacity: 1; stroke-width: 2px; opacity: 1;"/></g><g class="points"/><g class="text"/></g><g class="trace scatter trace657c2c" style="stroke-miterlimit: 2; opacity: 1;"><g class="fills"/><g class="errorbars"/><g class="lines"><path class="js-line" d="M0,21.75L3.11,413.25L6.22,413.25L9.33,117.09L12.44,305.48L27.99,276.9L31.11,272.25L37.33,261.91L40.44,257.56L43.55,256.19L46.66,252.98L55.99,239.16L59.1,237.14L62.21,233.34L65.32,231.36L68.43,228.89L71.54,224.23L74.65,224L77.76,220.51L80.87,217.97L83.98,214.16L87.1,210.86L90.21,209.87L93.32,205.99L96.43,204.36L102.65,198.08L105.76,194.68L111.98,191.99L115.09,189.33L118.2,185.01L121.31,184.25L124.42,179.19L127.53,178.73L130.64,177.56L133.75,172.66L136.86,171.84L139.97,169.45L146.2,161.55L149.31,160.81L152.42,158.52L155.53,158.4L158.64,154.75L161.75,152.35L167.97,143.8L171.08,145.3L174.19,141.46L177.3,140.88L180.41,141.18L183.52,137.51L186.63,132.39L189.74,133.89L192.85,126.01L195.96,124.02L199.08,120.28L202.19,120.26L205.3,118.82L208.41,114.87L214.63,108.81L217.74,107.4L220.85,102.48L223.96,101.14L227.07,97.89L230.18,97.87L233.29,94.93L236.4,89.79L239.51,87.67L242.62,81.5L245.73,86.92L248.84,84.03L255.07,74.96L258.18,75.81L261.29,69.8L264.4,69.76L267.51,69.5L270.62,68.4L273.73,58.91L276.84,58.74L279.95,54.01L283.06,54.79L289.28,49.11L292.39,49.98L295.5,41.69L298.61,41.91L301.72,39.95L304.83,37.04L307.94,29.19L311.06,42.88L320.39,94.96L323.5,135.09L329.72,182.88L332.83,201.42L335.94,217.42L339.05,237.54L348.38,279.01L351.49,288.55L357.71,303.04L360.82,307.88L363.93,310.78L367.05,316.13L370.16,318.3L373.27,325.89L376.38,329.81L379.49,334.96L382.6,337.76L385.71,342.86L391.93,350.89L395.04,352.88L398.15,356.58L401.26,357.56L404.37,362.19L407.48,363.18L410.59,366.86L413.7,368.71L416.81,371.58L419.92,371.48L423.04,375.34L426.15,376.09L429.26,379.36L432.37,380.04L438.59,381.95L441.7,384.72L444.81,387L447.92,388.14L454.14,389.84L457.25,390.77L460.36,392.58L463.47,392.84L479.03,397.98L482.14,399.85L491.47,401.87L494.58,401.86L500.8,403.46L503.91,403.79L510.13,404.36L513.24,405.29L519.46,406.09L522.57,406.43L535.02,406.88L538.13,408.07L563.01,409.54L566.12,410.03L591.01,410.48L594.12,410.51L606.56,411.24L609.67,411.45L615.89,411.29L619,411.7" style="vector-effect: non-scaling-stroke; fill: none; stroke: rgb(255, 127, 14); stroke-opacity: 1; stroke-width: 2px; opacity: 1;"/></g><g class="points"/><g class="text"/></g><g class="trace scatter tracef223d6" style="stroke-miterlimit: 2; opacity: 1;"><g class="fills"/><g class="errorbars"/><g class="lines"><path class="js-line" d="M0,21.75L3.11,413.25L6.22,413.25L9.33,117.09L12.44,305.48L27.99,276.9L31.11,272.25L37.33,261.91L40.44,257.56L43.55,256.19L46.66,252.98L55.99,239.16L59.1,237.14L62.21,233.34L65.32,231.36L68.43,228.89L71.54,224.23L74.65,224L77.76,220.51L80.87,217.97L83.98,214.16L87.1,210.86L90.21,209.87L93.32,205.99L96.43,204.36L102.65,198.08L105.76,194.68L111.98,191.99L115.09,189.33L118.2,185.01L121.31,184.25L124.42,179.19L127.53,178.73L130.64,177.56L133.75,172.66L136.86,171.84L139.97,169.45L146.2,161.55L149.31,160.81L152.42,158.52L155.53,158.4L158.64,154.75L161.75,152.35L167.97,143.8L171.08,145.3L174.19,141.46L177.3,140.88L180.41,141.18L183.52,137.51L186.63,132.39L189.74,133.89L192.85,126.01L195.96,124.02L199.08,120.28L202.19,120.26L205.3,118.82L208.41,114.87L214.63,108.81L217.74,107.4L220.85,102.48L223.96,101.14L227.07,97.89L230.18,97.87L233.29,94.93L236.4,89.79L239.51,87.67L242.62,81.5L245.73,86.92L248.84,84.03L255.07,74.96L258.18,75.81L261.29,69.8L264.4,69.76L267.51,69.5L270.62,68.4L273.73,58.91L276.84,58.74L279.95,54.01L283.06,54.79L289.28,49.11L292.39,49.98L295.5,41.69L298.61,41.91L301.72,39.95L304.83,37.04L307.94,29.19L311.06,37.85L317.28,71.49L320.39,95.4L323.5,136.27L326.61,156.16L339.05,233.86L342.16,250.44L345.27,262.39L348.38,277.87L357.71,301.69L360.82,306.43L363.93,308.77L367.05,313.62L373.27,323.52L376.38,328.95L379.49,331.56L382.6,336.16L385.71,338.54L388.82,343.75L391.93,348.6L395.04,350.55L398.15,353.43L401.26,358.05L404.37,358.52L407.48,361.24L413.7,366.89L416.81,368.91L419.92,372.31L423.04,374.19L426.15,374.42L429.26,378.42L435.48,380.61L438.59,381.91L444.81,385.77L447.92,386.26L451.03,388.73L454.14,389.42L457.25,391.72L460.36,392.61L472.8,396.01L475.91,396.55L485.25,399.08L488.36,399.38L494.58,401.44L497.69,402.58L507.02,403.44L510.13,404.52L516.35,405.28L519.46,405.03L525.68,406.57L528.79,405.99L535.02,407.38L538.13,407.61L550.57,408.25L553.68,408.7L584.78,410.42L587.89,410.11L597.23,410.94L600.34,411.1L609.67,411.08L612.78,411.54L619,411.29" style="vector-effect: non-scaling-stroke; fill: none; stroke: rgb(44, 160, 44); stroke-opacity: 1; stroke-width: 2px; opacity: 1;"/></g><g class="points"/><g class="text"/></g><g class="trace scatter trace3dea15" style="stroke-miterlimit: 2; opacity: 1;"><g class="fills"/><g class="errorbars"/><g class="lines"><path class="js-line" d="M0,21.76L3.11,413.25L6.22,413.25L9.33,117.09L12.44,305.48L27.99,276.9L31.11,272.25L37.33,261.91L40.44,257.56L43.55,256.19L46.66,252.98L55.99,239.16L59.1,237.14L62.21,233.34L65.32,231.36L68.43,228.89L71.54,224.23L74.65,224L77.76,220.51L80.87,217.97L83.98,214.16L87.1,210.86L90.21,209.87L93.32,205.99L96.43,204.36L102.65,198.08L105.76,194.68L111.98,191.99L115.09,189.33L118.2,185.01L121.31,184.25L124.42,179.19L127.53,178.73L130.64,177.56L133.75,172.66L136.86,171.84L139.97,169.45L146.2,161.55L149.31,160.81L152.42,158.52L155.53,158.4L158.64,154.75L161.75,152.35L167.97,143.8L171.08,145.3L174.19,141.46L177.3,140.88L180.41,141.18L183.52,137.51L186.63,132.39L189.74,133.89L192.85,126.01L195.96,124.02L199.08,120.28L202.19,120.26L205.3,118.82L208.41,114.87L214.63,108.81L217.74,107.4L220.85,102.48L223.96,101.14L227.07,97.89L230.18,97.87L233.29,94.93L236.4,89.79L239.51,87.67L242.62,81.5L245.73,86.92L248.84,84.03L255.07,74.96L258.18,75.81L261.29,69.8L264.4,69.76L267.51,69.5L270.62,68.4L273.73,58.91L276.84,58.74L279.95,54.01L283.06,54.79L289.28,49.11L292.39,49.98L295.5,41.69L298.61,41.91L301.72,39.95L304.83,37.04L307.94,29.19L311.06,36.12L314.17,48.59L317.28,67.93L320.39,87.8L323.5,126.57L326.61,151.65L329.72,169.96L332.83,192.88L335.94,209.51L345.27,259.82L348.38,271.75L351.49,284.61L354.6,290.08L357.71,292.9L360.82,302.02L363.93,304.32L367.05,308.22L370.16,315.49L373.27,318.83L382.6,331.84L385.71,334.38L391.93,344.86L395.04,346.05L398.15,349.19L401.26,353.58L407.48,358L410.59,361.51L423.04,370.46L426.15,371.15L429.26,375.21L432.37,376.41L438.59,381.37L441.7,382.21L447.92,385.08L451.03,387.44L457.25,389.67L460.36,391.33L463.47,391.35L466.58,392.66L472.8,395.18L475.91,395.42L485.25,398.18L488.36,399.47L491.47,399.52L494.58,401.02L500.8,401.75L503.91,402.73L507.02,403.57L510.13,403.61L513.24,403.79L516.35,404.89L525.68,406.02L528.79,406.41L538.13,406.56L541.24,408.12L547.46,408.16L550.57,408.4L556.79,408.25L559.9,409.3L566.12,409.05L569.23,409L581.67,409.47L584.78,410.39L597.23,410.65L600.34,410.85L609.67,410.99L612.78,411.29L619,411.32" style="vector-effect: non-scaling-stroke; fill: none; stroke: rgb(214, 39, 40); stroke-opacity: 1; stroke-width: 2px; opacity: 1;"/></g><g class="points"/><g class="text"/></g><g class="trace scatter trace3f1998" style="stroke-miterlimit: 2; opacity: 1;"><g class="fills"/><g class="errorbars"/><g class="lines"><path class="js-line" d="M0,21.76L3.11,413.25L6.22,413.25L9.33,117.09L12.44,305.48L27.99,276.9L31.11,272.25L37.33,261.91L40.44,257.56L43.55,256.19L46.66,252.98L55.99,239.16L59.1,237.14L62.21,233.34L65.32,231.36L68.43,228.89L71.54,224.23L74.65,224L77.76,220.51L80.87,217.97L83.98,214.16L87.1,210.86L90.21,209.87L93.32,205.99L96.43,204.36L102.65,198.08L105.76,194.68L111.98,191.99L115.09,189.33L118.2,185.01L121.31,184.25L124.42,179.19L127.53,178.73L130.64,177.56L133.75,172.66L136.86,171.84L139.97,169.45L146.2,161.55L149.31,160.81L152.42,158.52L155.53,158.4L158.64,154.75L161.75,152.35L167.97,143.8L171.08,145.3L174.19,141.46L177.3,140.88L180.41,141.18L183.52,137.51L186.63,132.39L189.74,133.89L192.85,126.01L195.96,124.02L199.08,120.28L202.19,120.26L205.3,118.82L208.41,114.87L214.63,108.81L217.74,107.4L220.85,102.48L223.96,101.14L227.07,97.89L230.18,97.87L233.29,94.93L236.4,89.79L239.51,87.67L242.62,81.5L245.73,86.92L248.84,84.03L255.07,74.96L258.18,75.81L261.29,69.8L264.4,69.76L267.51,69.5L270.62,68.4L273.73,58.91L276.84,58.74L279.95,54.01L283.06,54.79L289.28,49.11L292.39,49.98L295.5,41.69L298.61,41.91L301.72,39.95L304.83,37.04L307.94,29.19L311.06,30.31L314.17,37.49L317.28,51.88L320.39,75.53L323.5,112L339.05,214.6L342.16,231.18L348.38,258.36L351.49,271.93L354.6,281.94L357.71,287.6L360.82,291.46L363.93,296.66L370.16,307.2L373.27,309.8L376.38,317.25L379.49,318.47L385.71,329.62L388.82,333.28L395.04,340.75L398.15,344.26L404.37,351.46L407.48,354.07L416.81,362.67L419.92,362.65L426.15,368.62L429.26,370.61L432.37,373.69L435.48,374.9L438.59,376.16L441.7,378.76L451.03,384.22L454.14,384.86L463.47,389.19L466.58,389.96L472.8,392.89L475.91,394L485.25,397.16L488.36,397.28L491.47,398.8L494.58,399.31L497.69,398.71L500.8,400.07L503.91,399.67L507.02,401.4L528.79,405.28L531.9,405.28L538.13,406.75L541.24,406.28L553.68,407.61L556.79,407.77L563.01,407.81L566.12,408.58L612.78,410.71L615.89,410.47L619,410.82" style="vector-effect: non-scaling-stroke; fill: none; stroke: rgb(148, 103, 189); stroke-opacity: 1; stroke-width: 2px; opacity: 1;"/></g><g class="points"/><g class="text"/></g><g class="trace scatter trace5ddfd8" style="stroke-miterlimit: 2; opacity: 1;"><g class="fills"/><g class="errorbars"/><g class="lines"><path class="js-line" d="M0,21.76L3.11,413.25L6.22,413.25L9.33,117.09L12.44,305.48L27.99,276.9L31.11,272.25L37.33,261.91L40.44,257.56L43.55,256.19L46.66,252.98L55.99,239.16L59.1,237.14L62.21,233.34L65.32,231.36L68.43,228.89L71.54,224.23L74.65,224L77.76,220.51L80.87,217.97L83.98,214.16L87.1,210.86L90.21,209.87L93.32,205.99L96.43,204.36L102.65,198.08L105.76,194.68L111.98,191.99L115.09,189.33L118.2,185.01L121.31,184.25L124.42,179.19L127.53,178.73L130.64,177.56L133.75,172.66L136.86,171.84L139.97,169.45L146.2,161.55L149.31,160.81L152.42,158.52L155.53,158.4L158.64,154.75L161.75,152.35L167.97,143.8L171.08,145.3L174.19,141.46L177.3,140.88L180.41,141.18L183.52,137.51L186.63,132.39L189.74,133.89L192.85,126.01L195.96,124.02L199.08,120.28L202.19,120.26L205.3,118.82L208.41,114.87L214.63,108.81L217.74,107.4L220.85,102.48L223.96,101.14L227.07,97.89L230.18,97.87L233.29,94.93L236.4,89.79L239.51,87.67L242.62,81.5L245.73,86.92L248.84,84.03L255.07,74.96L258.18,75.81L261.29,69.8L264.4,69.76L267.51,69.5L270.62,68.4L273.73,58.91L276.84,58.74L279.95,54.01L283.06,54.79L289.28,49.11L292.39,49.98L295.5,41.69L298.61,41.91L301.72,39.95L304.83,37.04L307.94,29.19L311.06,31.22L314.17,36.91L317.28,45.29L320.39,66.3L323.5,99.41L332.83,169.45L335.94,186.94L339.05,202.21L342.16,221.74L348.38,251.86L351.49,264.2L354.6,274.77L357.71,280.87L363.93,289.48L367.05,293.77L370.16,297.5L373.27,303.96L376.38,306.27L379.49,312.55L382.6,315.88L385.71,323.2L395.04,334.39L398.15,340.79L404.37,346.32L407.48,351.08L413.7,354.54L416.81,356.59L426.15,366L429.26,365.59L432.37,369L435.48,371.09L438.59,373.87L441.7,375.11L447.92,379.09L451.03,380.44L457.25,383.9L460.36,385.21L466.58,388.74L469.69,388.73L482.14,393.35L485.25,393.31L497.69,398.17L500.8,398.88L507.02,400.07L510.13,400.42L516.35,401.9L519.46,402.08L525.68,403.25L528.79,402.93L531.9,404.09L535.02,404.14L538.13,404.69L541.24,404.4L547.46,405.66L550.57,406.56L556.79,406.4L559.9,406.92L569.23,407.48L572.34,407.55L591.01,409.41L594.12,409.3L603.45,409.43L606.56,410.01L612.78,410.03L615.89,410.26L619,410.24" style="vector-effect: non-scaling-stroke; fill: none; stroke: rgb(140, 86, 75); stroke-opacity: 1; stroke-width: 2px; opacity: 1;"/></g><g class="points"/><g class="text"/></g></g></g><g class="overplot"/><path class="xlines-above crisp" style="fill: none;" d="M0,0"/><path class="ylines-above crisp" style="fill: none;" d="M0,0"/><g class="overlines-above"/><g class="xaxislayer-above"><g class="xtick"><text text-anchor="middle" x="0" y="473" transform="translate(212.42,0)" style="font-family: 'Open Sans', verdana, arial, sans-serif; font-size: 12px; fill: rgb(68, 68, 68); fill-opacity: 1; white-space: pre;">50</text></g><g class="xtick"><text text-anchor="middle" x="0" y="473" transform="translate(367.94,0)" style="font-family: 'Open Sans', verdana, arial, sans-serif; font-size: 12px; fill: rgb(68, 68, 68); fill-opacity: 1; white-space: pre;">100</text></g><g class="xtick"><text text-anchor="middle" x="0" y="473" transform="translate(523.47,0)" style="font-family: 'Open Sans', verdana, arial, sans-serif; font-size: 12px; fill: rgb(68, 68, 68); fill-opacity: 1; white-space: pre;">150</text></g><g class="xtick"><text text-anchor="middle" x="0" y="473" transform="translate(679,0)" style="font-family: 'Open Sans', verdana, arial, sans-serif; font-size: 12px; fill: rgb(68, 68, 68); fill-opacity: 1; white-space: pre;">200</text></g></g><g class="yaxislayer-above"><g class="ytick"><text text-anchor="end" x="59" y="4.199999999999999" transform="translate(0,438.25)" style="font-family: 'Open Sans', verdana, arial, sans-serif; font-size: 12px; fill: rgb(68, 68, 68); fill-opacity: 1; white-space: pre;">0</text></g><g class="ytick"><text text-anchor="end" x="59" y="4.199999999999999" transform="translate(0,386.05)" style="font-family: 'Open Sans', verdana, arial, sans-serif; font-size: 12px; fill: rgb(68, 68, 68); fill-opacity: 1; white-space: pre;">20</text></g><g class="ytick"><text text-anchor="end" x="59" y="4.199999999999999" transform="translate(0,333.86)" style="font-family: 'Open Sans', verdana, arial, sans-serif; font-size: 12px; fill: rgb(68, 68, 68); fill-opacity: 1; white-space: pre;">40</text></g><g class="ytick"><text text-anchor="end" x="59" y="4.199999999999999" transform="translate(0,281.66)" style="font-family: 'Open Sans', verdana, arial, sans-serif; font-size: 12px; fill: rgb(68, 68, 68); fill-opacity: 1; white-space: pre;">60</text></g><g class="ytick"><text text-anchor="end" x="59" y="4.199999999999999" transform="translate(0,229.46)" style="font-family: 'Open Sans', verdana, arial, sans-serif; font-size: 12px; fill: rgb(68, 68, 68); fill-opacity: 1; white-space: pre;">80</text></g><g class="ytick"><text text-anchor="end" x="59" y="4.199999999999999" transform="translate(0,177.27)" style="font-family: 'Open Sans', verdana, arial, sans-serif; font-size: 12px; fill: rgb(68, 68, 68); fill-opacity: 1; white-space: pre;">100</text></g><g class="ytick"><text text-anchor="end" x="59" y="4.199999999999999" transform="translate(0,125.07)" style="font-family: 'Open Sans', verdana, arial, sans-serif; font-size: 12px; fill: rgb(68, 68, 68); fill-opacity: 1; white-space: pre;">120</text></g><g class="ytick"><text text-anchor="end" x="59" y="4.199999999999999" transform="translate(0,72.87)" style="font-family: 'Open Sans', verdana, arial, sans-serif; font-size: 12px; fill: rgb(68, 68, 68); fill-opacity: 1; white-space: pre;">140</text></g></g><g class="overaxes-above"/></g></g><g class="polarlayer"/><g class="ternarylayer"/><g class="geolayer"/><g class="funnelarealayer"/><g class="pielayer"/><g class="treemaplayer"/><g class="sunburstlayer"/><g class="glimages"/><defs id="topdefs-6170be"><g class="clips"/><clipPath id="legend6170be"><rect width="117" height="140" x="0" y="0"/></clipPath></defs><g class="layer-above"><g class="imagelayer"/><g class="shapelayer"/></g><g class="infolayer"><g class="legend" pointer-events="all" transform="translate(90.95, 46.750000000000014)"><rect class="bg" shape-rendering="crispEdges" style="stroke: rgb(68, 68, 68); stroke-opacity: 1; fill: rgb(226, 226, 226); fill-opacity: 1; stroke-width: 0px;" width="117" height="140" x="0" y="0"/><g class="scrollbox" transform="translate(0, 0)" clip-path="url('#legend6170be')"><text class="legendtitletext user-select-none" text-anchor="start" x="2" y="15.600000000000001" style="font-family: 'Open Sans', verdana, arial, sans-serif; font-size: 12px; fill: rgb(68, 68, 68); fill-opacity: 1; white-space: pre;"><tspan style="font-weight:bold"> Identification Time </tspan></text><g class="groups"><g class="traces" transform="translate(0, 30.1)" style="opacity: 1;"><text class="legendtext user-select-none" text-anchor="start" x="40" y="4.680000000000001" style="font-family: 'Open Sans', verdana, arial, sans-serif; font-size: 12px; fill: rgb(68, 68, 68); fill-opacity: 1; white-space: pre;">0 Months</text><g class="layers" style="opacity: 1;"><g class="legendfill"/><g class="legendlines"><path class="js-line" d="M5,0h30" style="fill: none; stroke: rgb(31, 119, 180); stroke-opacity: 1; stroke-width: 2px;"/></g><g class="legendsymbols"><g class="legendpoints"/></g></g><rect class="legendtoggle" pointer-events="all" x="0" y="-9.5" width="98.046875" height="19" style="cursor: pointer; fill: rgb(0, 0, 0); fill-opacity: 0;"/></g><g class="traces" transform="translate(0, 49.1)" style="opacity: 1;"><text class="legendtext user-select-none" text-anchor="start" x="40" y="4.680000000000001" style="font-family: 'Open Sans', verdana, arial, sans-serif; font-size: 12px; fill: rgb(68, 68, 68); fill-opacity: 1; white-space: pre;">3 Months</text><g class="layers" style="opacity: 1;"><g class="legendfill"/><g class="legendlines"><path class="js-line" d="M5,0h30" style="fill: none; stroke: rgb(255, 127, 14); stroke-opacity: 1; stroke-width: 2px;"/></g><g class="legendsymbols"><g class="legendpoints"/></g></g><rect class="legendtoggle" pointer-events="all" x="0" y="-9.5" width="98.046875" height="19" style="cursor: pointer; fill: rgb(0, 0, 0); fill-opacity: 0;"/></g><g class="traces" transform="translate(0, 68.1)" style="opacity: 1;"><text class="legendtext user-select-none" text-anchor="start" x="40" y="4.680000000000001" style="font-family: 'Open Sans', verdana, arial, sans-serif; font-size: 12px; fill: rgb(68, 68, 68); fill-opacity: 1; white-space: pre;">6 Months</text><g class="layers" style="opacity: 1;"><g class="legendfill"/><g class="legendlines"><path class="js-line" d="M5,0h30" style="fill: none; stroke: rgb(44, 160, 44); stroke-opacity: 1; stroke-width: 2px;"/></g><g class="legendsymbols"><g class="legendpoints"/></g></g><rect class="legendtoggle" pointer-events="all" x="0" y="-9.5" width="98.046875" height="19" style="cursor: pointer; fill: rgb(0, 0, 0); fill-opacity: 0;"/></g><g class="traces" transform="translate(0, 87.1)" style="opacity: 1;"><text class="legendtext user-select-none" text-anchor="start" x="40" y="4.680000000000001" style="font-family: 'Open Sans', verdana, arial, sans-serif; font-size: 12px; fill: rgb(68, 68, 68); fill-opacity: 1; white-space: pre;">12 Months</text><g class="layers" style="opacity: 1;"><g class="legendfill"/><g class="legendlines"><path class="js-line" d="M5,0h30" style="fill: none; stroke: rgb(214, 39, 40); stroke-opacity: 1; stroke-width: 2px;"/></g><g class="legendsymbols"><g class="legendpoints"/></g></g><rect class="legendtoggle" pointer-events="all" x="0" y="-9.5" width="98.046875" height="19" style="cursor: pointer; fill: rgb(0, 0, 0); fill-opacity: 0;"/></g><g class="traces" transform="translate(0, 106.1)" style="opacity: 1;"><text class="legendtext user-select-none" text-anchor="start" x="40" y="4.680000000000001" style="font-family: 'Open Sans', verdana, arial, sans-serif; font-size: 12px; fill: rgb(68, 68, 68); fill-opacity: 1; white-space: pre;">24 Months</text><g class="layers" style="opacity: 1;"><g class="legendfill"/><g class="legendlines"><path class="js-line" d="M5,0h30" style="fill: none; stroke: rgb(148, 103, 189); stroke-opacity: 1; stroke-width: 2px;"/></g><g class="legendsymbols"><g class="legendpoints"/></g></g><rect class="legendtoggle" pointer-events="all" x="0" y="-9.5" width="98.046875" height="19" style="cursor: pointer; fill: rgb(0, 0, 0); fill-opacity: 0;"/></g><g class="traces" transform="translate(0, 125.1)" style="opacity: 1;"><text class="legendtext user-select-none" text-anchor="start" x="40" y="4.680000000000001" style="font-family: 'Open Sans', verdana, arial, sans-serif; font-size: 12px; fill: rgb(68, 68, 68); fill-opacity: 1; white-space: pre;">36 Months</text><g class="layers" style="opacity: 1;"><g class="legendfill"/><g class="legendlines"><path class="js-line" d="M5,0h30" style="fill: none; stroke: rgb(140, 86, 75); stroke-opacity: 1; stroke-width: 2px;"/></g><g class="legendsymbols"><g class="legendpoints"/></g></g><rect class="legendtoggle" pointer-events="all" x="0" y="-9.5" width="98.046875" height="19" style="cursor: pointer; fill: rgb(0, 0, 0); fill-opacity: 0;"/></g></g></g><rect class="scrollbar" rx="20" ry="3" width="0" height="0" style="fill: rgb(128, 139, 164); fill-opacity: 1;" x="0" y="0"/></g><g class="g-gtitle"><text class="gtitle" x="350" y="12.5" text-anchor="middle" dy="0em" style="font-family: 'Open Sans', verdana, arial, sans-serif; font-size: 17px; fill: rgb(68, 68, 68); opacity: 1; font-weight: normal; white-space: pre;"><tspan style="font-weight:bold"> Leprosy Incidence PB - Immunity Vaccine 0.5, Treatment 50% </tspan></text></g><g class="g-xtitle" transform="translate(0,-15)"><text class="xtitle" x="369.5" y="512" text-anchor="middle" style="font-family: 'Open Sans', verdana, arial, sans-serif; font-size: 14px; fill: rgb(68, 68, 68); opacity: 1; font-weight: normal; white-space: pre;">Time(Years)</text></g><g class="g-ytitle"><text class="ytitle" transform="rotate(-90,22,242.5)" x="22" y="242.5" text-anchor="middle" style="font-family: 'Open Sans', verdana, arial, sans-serif; font-size: 14px; fill: rgb(68, 68, 68); opacity: 1; font-weight: normal; white-space: pre;">Number of new infectiuos individuals</text></g></g></svg>